<?xml version="1.0" encoding="UTF-8"?>
<svg id="Layer_1" data-name="Layer 1" xmlns="http://www.w3.org/2000/svg" viewBox="0 0 100 100">
  <defs>
    <style>
      .cls-1 {
        fill: #00e2e5;
      }

      .cls-2 {
        fill: #9951ff;
      }
    </style>
  </defs>
  <path class="cls-2" d="M54.99,77.13l11.53-42.17c.1-.4-.01-.81-.33-1.13s-.75-.42-1.14-.28l-40.94,12.76c-.48.14-.76.59-.72,1.08.04.51.42.94.91,1.06l21.23,5.19c.43.12.8.47.93.91l6.39,22.47c.05.2.15.38.3.53.2.2.48.33.77.34.5.03.93-.28,1.07-.75Z"/>
  <path class="cls-2" d="M91.79,30.18c5.17,9.2,6.77,20.57,4.37,31.24-2.37,10.68-8.79,20.58-17.84,27.16-8.95,6.76-20.52,9.91-31.79,9.1-5.65-.41-11.21-1.91-16.37-4.26-5.16-2.38-9.88-5.69-13.93-9.66-3.98-4.04-7.29-8.77-9.67-13.93-2.35-5.16-3.84-10.73-4.26-16.37-.8-11.27,2.33-22.84,9.1-31.8C17.99,12.63,27.89,6.2,38.58,3.83c10.68-2.4,22.05-.8,31.25,4.38-9.87-3.66-20.69-4.01-30.3-.87-4.81,1.51-9.34,3.83-13.27,6.87-3.95,3.02-7.42,6.65-10.1,10.77-5.4,8.21-7.9,18.21-6.84,27.87.51,4.82,1.77,9.55,3.83,13.92,2.07,4.37,4.93,8.33,8.34,11.75,3.41,3.42,7.38,6.27,11.75,8.34,4.37,2.07,9.11,3.32,13.92,3.84,9.66,1.05,19.66-1.44,27.87-6.84,4.13-2.68,7.75-6.16,10.77-10.11,3.04-3.94,5.36-8.46,6.87-13.28,3.14-9.62,2.79-20.43-.88-30.31Z"/>
  <path class="cls-1" d="M90.18,27.91c-5.77-4.68-13.18-4.62-18.62.54,5.17-5.44,5.21-12.86.54-18.62,5.58,4.52,12.86,4.85,18.25-.17-5.03,5.39-4.68,12.67-.17,18.25Z"/>
</svg>