<?xml version="1.0" encoding="UTF-8"?>
<svg id="Layer_1" data-name="Layer 1" xmlns="http://www.w3.org/2000/svg" viewBox="0 0 100 100">
  <defs>
    <style>
      .cls-1 {
        fill: #9a52fd;
      }

      .cls-2 {
        fill: #01e2e6;
      }
    </style>
  </defs>
  <path class="cls-1" d="M56.27,34.53c7.03,4.84,8.81,14.47,3.97,21.5-4.84,7.03-14.47,8.81-21.5,3.97-7.03-4.84-8.81-14.47-3.97-21.5,4.84-7.03,14.47-8.81,21.5-3.97"/>
  <path class="cls-2" d="M78.81,8.35l-17.35-4.74c-.17-.04-.33,0-.47.14-.13.13-.17.31-.12.47l5.25,16.84c.06.2.24.31.45.3.21-.02.39-.17.44-.38l2.14-8.73c.05-.18.19-.33.38-.39l9.24-2.63c.08-.02.15-.06.22-.12.08-.08.14-.2.14-.32.01-.2-.11-.38-.31-.44"/>
  <path class="cls-1" d="M86.07,31.31c-.02-.06-.06-.13-.09-.19-2.54-5.53-6.28-10.66-11.28-15,1.18,1.09,2.29,2.24,3.31,3.46,11.67,13.85,12.12,35.45-.71,49.17-15.77,17.27-41.73,15.24-55.71-.17l-11.3,12.31c10.92,12.01,27.95,18.31,44.64,14.32,30.2-7.07,42.36-39.32,31.14-63.9"/>
  <path class="cls-2" d="M9.81,69.12h0c3.39,3.11,8.66,2.88,11.77-.51-3.11,3.39-2.88,8.66.51,11.77-3.39-3.11-8.66-2.88-11.77.51,3.11-3.39,2.88-8.66-.51-11.77"/>
</svg>