<?xml version="1.0" encoding="UTF-8"?>
<svg id="Layer_1" data-name="Layer 1" xmlns="http://www.w3.org/2000/svg" viewBox="0 0 810 309">
  <defs>
    <style>
      .cls-1 {
        fill: none;
      }

      .cls-2 {
        fill: #4118f4;
      }

      .cls-3 {
        fill: #333;
      }

      .cls-4 {
        fill: #00e2e5;
      }

      .cls-5 {
        fill: #9951ff;
      }
    </style>
  </defs>
  <g>
    <path class="cls-5" d="M675.56,234.17l34.99-127.99c.31-1.21-.04-2.47-1.01-3.43-.93-.93-2.28-1.26-3.45-.86l-124.26,38.73c-1.45.42-2.32,1.8-2.19,3.28.13,1.54,1.27,2.85,2.77,3.22l64.44,15.75c1.32.36,2.44,1.42,2.83,2.77l19.39,68.19c.16.61.47,1.14.92,1.59.61.61,1.45,1,2.32,1.03,1.51.1,2.83-.84,3.25-2.28Z"/>
    <path class="cls-5" d="M787.27,91.66c15.7,27.93,20.56,62.44,13.28,94.84-7.19,32.43-26.7,62.47-54.14,82.46-27.18,20.53-62.3,30.07-96.5,27.62-17.14-1.24-34.02-5.79-49.7-12.92-15.66-7.22-29.99-17.26-42.28-29.33-12.09-12.27-22.12-26.62-29.34-42.27-7.14-15.68-11.66-32.56-12.94-49.7-2.44-34.2,7.07-69.34,27.62-96.52,20-27.45,50.03-46.96,82.48-54.15,32.41-7.27,66.92-2.42,94.85,13.31-29.97-11.11-62.79-12.18-91.98-2.63-14.61,4.58-28.34,11.62-40.29,20.86-11.98,9.16-22.52,20.17-30.67,32.69-16.39,24.93-23.98,55.26-20.77,84.59,1.54,14.63,5.36,29,11.64,42.26,6.29,13.25,14.96,25.29,25.32,35.67,10.36,10.38,22.41,19.04,35.66,25.33,13.26,6.29,27.64,10.08,42.26,11.66,29.32,3.19,59.68-4.37,84.61-20.78,12.53-8.15,23.53-18.7,32.7-30.68,9.24-11.95,16.28-25.69,20.86-40.3,9.54-29.2,8.47-62.03-2.66-91.99Z"/>
    <path class="cls-4" d="M782.39,84.75c-17.51-14.22-40.01-14.04-56.53,1.64,15.7-16.53,15.83-39.02,1.64-56.53,16.93,13.72,39.05,14.73,55.4-.51-15.27,16.35-14.2,38.47-.5,55.4Z"/>
  </g>
  <path class="cls-2" d="M463.04,66.32c0,.31.08.62.15.85-.15-.54-.23-.85-.23-.85h.08Z"/>
  <g>
    <path class="cls-5" d="M326.73,35.87c.65-3.42,3.2-7.01,6.51-8.25,4.44-1.67,11.17.69,14.8,3.39,0,0,4.33-8.26,4.33-8.26-2.43-7.47-10.74-13.44-18.42-9.39-9.75,5.14-16.05,17.13-16.81,27.83-.27,3.74,1.2,7.71,3,10.95.34.61.61.95.61,1.56l-11.92,5.21,2.44,9.82,17.74-4,.54-.07,28.64-6.37v-15.3c-6.77,1.22-12.6,1.83-17.2,1.83-5.35,0-15.74-1.22-14.27-8.95Z"/>
    <path class="cls-5" d="M348.65,78.82l-20.86,3.39,2.78,29.8c.34,6.97,4.6,21.33-1.76,26.34-2.64,2.1-6.03,2.91-9.35,3.66-29.73,6.23-58.1,10.02-88.71,11.04-28.04.88-56,2.17-83.83-2.1-11.99-1.83-22.08-4.61-29.8-8.33-10.7-5.15-16.86-10.02-21.33-21.26-8.53-21.47-17.06-43-25.66-64.53-6.16,3.93-12.39,7.92-18.62,11.92,6.64,15.98,13.88,31.62,21.2,47.27.95,2.03,7.99,15.44,7.04,16.52-11.71,13.66-32.71,12.22-48.97,11.78-7.2-.2-14.43-.59-21.59-1.35l-3.05,21.47c5.21,2.17,12.6,3.05,18.42,4.6,22.08,2.44,52.82.81,61.62-24.51l1.22,3.32c3.42,6.85,5.92,11.91,12.52,16.1,15.59,9.88,33.88,13.99,52.08,15.49,51.14,4.21,104.91,3.43,155.06-8.24,4.42-1.03,8.87-2.34,13.16-4.02,10.19-4.01,19.43-10.17,25.08-19.86,7.07-12.12,7.48-26.89,6.13-40.49,0-.02-2.78-27.97-2.78-27.97Z"/>
    <path class="cls-5" d="M411.01,166.3s.07-.27.07-.61c0-.75.07-2.03.07-2.1,0-.75.07-1.42.07-2.1.2-4.88.61-7.72.61-7.79,0-15.1.74-30.2.74-45.37-.07-14.9-.27-29.86-.41-44.76-.2-17.88-.2-35.82-1.69-53.63l-20.86-.68c.2,4.4.68,14.02.75,15.17.41,8.13.68,16.25.81,24.45.47,40.43.88,76.45-.27,116.88l20.11.54Z"/>
    <path class="cls-5" d="M472.99,130.38c-.72-4.56-1.56-9.11-2.46-13.63-.75-3.73-1.54-7.46-2.38-11.17-1.19-5.29-2.51-10.54-3.57-15.86,0,0-.2-1.02-.2-1.02l-18.69,5.28c2.1,8.06,6.5,39.28,6.91,42.05,5.08,32.98-6.09,59.59-44.22,58.24-.41,5.42-.81,10.84-1.22,16.32,8.19,2.3,17.4,2.57,25.73,1.42,2.37-.31,4.73-.72,7.04-1.33,14.15-3.75,25.61-14.52,30.54-28.26,5.94-16.53,5.22-35.02,2.52-52.04Z"/>
  </g>
  <line class="cls-1" x1="460.85" y1="56.29" x2="460.62" y2="55.12"/>
  <g>
    <g>
      <path class="cls-3" d="M17.89,260.45c-.58,0-1.03.17-1.37.52-.33.34-.5.84-.5,1.49s.17,1.14.5,1.49c.33.34.79.52,1.37.52s1.06-.18,1.39-.55c.32-.36.48-.85.48-1.45s-.16-1.09-.48-1.45c-.32-.36-.78-.55-1.39-.55Z"/>
      <path class="cls-3" d="M43.1,237.14c-.85,0-1.67.04-2.47.11-.8.08-1.58.2-2.32.35-.74.16-1.46.35-2.15.57l.77,2.57c.98-.31,1.98-.55,3.01-.72,1.02-.17,2.08-.25,3.17-.25,2.94,0,5.09.71,6.46,2.15,1.37,1.44,2.05,3.67,2.05,6.69v6.55h-4.37v-4.41c0-1.6-.24-2.93-.72-3.99-.48-1.06-1.2-1.85-2.15-2.39-.96-.53-2.16-.8-3.61-.8-1.27,0-2.41.29-3.42.87-1.01.58-1.81,1.38-2.4,2.39-.59,1.01-.89,2.2-.89,3.56,0,1.04.21,1.99.64,2.84s.99,1.49,1.7,1.94h-9.28v-13.59h-2.84v13.59h-11.99c-.94,0-1.69-.38-2.27-1.13-.58-.76-.87-1.75-.87-2.97,0-.78.05-1.57.13-2.37s.21-1.6.37-2.4h-2.67c-.16.44-.3.96-.43,1.55-.13.59-.23,1.19-.3,1.8-.07.61-.1,1.17-.1,1.66,0,2,.56,3.58,1.68,4.74,1.12,1.16,2.64,1.74,4.56,1.74h42.07v-9.42c0-3.56-.98-6.32-2.95-8.28-1.97-1.96-4.77-2.94-8.4-2.94ZM44.4,255.17h-2.74c-.91,0-1.72-.19-2.42-.57s-1.25-.92-1.64-1.62c-.39-.7-.58-1.53-.58-2.48,0-1.27.32-2.25.95-2.94s1.52-1.03,2.66-1.03c1.25,0,2.19.38,2.82,1.13.63.76.95,1.96.95,3.61v3.91Z"/>
      <rect class="cls-3" x="60.63" y="232.4" width="2.97" height="25.37"/>
      <path class="cls-3" d="M109.88,255.17h-4.24c-.98,0-1.76-.15-2.35-.43-.59-.29-1.12-.79-1.59-1.5.24-.6.42-1.23.53-1.89s.17-1.34.17-2.05c0-1.42-.28-2.7-.85-3.84s-1.37-2.01-2.42-2.64c-.53-.29-1.11-.51-1.72-.67s-1.26-.24-1.95-.24c-1.13,0-2.23.2-3.29.6-1.06.4-2,.94-2.82,1.63-.4.78-.7,1.61-.9,2.5-.2.89-.3,1.83-.3,2.81,0,.82.1,1.71.3,2.65.2.95.51,1.96.94,3.06h-6.54v-13.59h-4.37c-1.85,0-3.45.35-4.82,1.05s-2.43,1.69-3.19,2.97c-.76,1.28-1.13,2.8-1.13,4.56,0,1.65.29,3.04.87,4.17.58,1.13,1.42,1.99,2.54,2.57,1.11.58,2.46.87,4.04.87h3.27v.97c0,1.34-.43,2.41-1.28,3.22-.86.81-2.04,1.22-3.56,1.22-.91,0-1.75-.12-2.52-.38-.77-.26-1.51-.57-2.22-.95l-1.33,2.24c.87.56,1.8.98,2.8,1.27,1,.29,2.07.43,3.21.43,1.62,0,3.02-.28,4.17-.85,1.16-.57,2.04-1.39,2.64-2.47.6-1.08.9-2.38.9-3.89v-.8h11.95c1.02,0,2-.18,2.94-.53.94-.35,1.76-.9,2.47-1.63.78.8,1.59,1.36,2.42,1.69.79.3,1.74.45,2.84.47,0,0,0,.01.01.01h7.38v-25.37h-2.97v22.77ZM79.99,255.17h-3.14c-1.54,0-2.68-.41-3.44-1.22-.76-.81-1.13-2.09-1.13-3.82,0-1.87.55-3.33,1.65-4.37,1.1-1.05,2.64-1.57,4.62-1.57h1.44v10.98ZM98.86,252.48c-.36.88-.87,1.55-1.55,2-.68.46-1.52.69-2.52.69h-2.37c-.49-1.16-.82-2.24-1-3.24-.18-1-.27-2.01-.27-3.04,0-.58.02-1.11.07-1.6.04-.49.15-.97.33-1.43.53-.4,1.14-.73,1.82-.99.68-.26,1.37-.39,2.09-.39,1.09,0,2.02.44,2.79,1.34.77.89,1.15,2.04,1.15,3.44,0,1.27-.18,2.34-.53,3.22Z"/>
      <rect class="cls-3" x="119.52" y="232.4" width="2.97" height="25.37"/>
      <path class="cls-3" d="M162.66,260.45c-.58,0-1.03.17-1.37.52-.33.34-.5.84-.5,1.49s.17,1.14.5,1.49c.33.34.79.52,1.37.52s1.06-.18,1.39-.55c.32-.36.48-.85.48-1.45s-.16-1.09-.48-1.45c-.32-.36-.79-.55-1.39-.55Z"/>
      <path class="cls-3" d="M164.09,257.78v-16.19h-2.97v13.59h-15.92v-13.59h-2.8v17.16c0,1.34-.28,2.41-.85,3.22s-1.35,1.22-2.35,1.22c-.4,0-.78-.03-1.13-.1-.36-.07-.8-.23-1.33-.47l-.87,2.24c.6.31,1.19.54,1.75.7.57.15,1.12.23,1.65.23,1.27,0,2.35-.29,3.24-.87.89-.58,1.56-1.41,2.02-2.49s.69-2.37.69-3.86v-.8h18.9Z"/>
      <path class="cls-3" d="M156.88,260.45c-.51,0-.95.15-1.32.47-.37.31-.55.83-.55,1.54s.18,1.22.55,1.53c.37.31.81.47,1.32.47.58,0,1.04-.17,1.37-.52.33-.35.5-.84.5-1.49s-.17-1.14-.5-1.49c-.33-.35-.79-.52-1.37-.52Z"/>
      <path class="cls-3" d="M218.35,238.41c.58,0,1.03-.17,1.37-.52.33-.34.5-.84.5-1.49s-.17-1.14-.5-1.49c-.34-.34-.79-.52-1.37-.52-.51,0-.95.16-1.32.47-.37.31-.55.83-.55,1.54s.18,1.23.55,1.54c.37.31.81.47,1.32.47Z"/>
      <path class="cls-3" d="M219.95,255.17h-10.48v-5.45c0-2.92-.65-5.06-1.94-6.42-1.29-1.37-3.19-2.05-5.71-2.05-1.31,0-2.54.28-3.67.83-1.13.56-2.18,1.39-3.12,2.51-.94,1.11-1.76,2.5-2.45,4.18v-16.36h-2.84v22.77h-6.48v-13.59h-4.37c-1.85,0-3.45.35-4.82,1.05-1.37.7-2.43,1.69-3.19,2.97-.76,1.28-1.13,2.8-1.13,4.56,0,1.65.29,3.04.87,4.17.58,1.13,1.42,1.99,2.54,2.57,1.11.58,2.46.87,4.04.87h3.27v.97c0,1.34-.43,2.41-1.28,3.22s-2.04,1.22-3.56,1.22c-.91,0-1.75-.12-2.52-.38-.77-.26-1.51-.57-2.22-.95l-1.33,2.24c.87.56,1.8.98,2.8,1.27,1,.29,2.07.43,3.21.43,1.62,0,3.02-.28,4.18-.85,1.16-.57,2.03-1.39,2.64-2.47.6-1.08.9-2.38.9-3.89v-.8h39.67v-16.19h-2.97v13.59ZM180.42,255.17h-3.14c-1.54,0-2.68-.41-3.44-1.22-.76-.81-1.13-2.09-1.13-3.82,0-1.87.55-3.33,1.65-4.37,1.1-1.05,2.64-1.57,4.62-1.57h1.44v10.98ZM206.63,255.17h-14.06v-2.74c.78-1.89,1.62-3.47,2.52-4.74.9-1.27,1.86-2.22,2.89-2.86,1.02-.64,2.1-.95,3.24-.95,1.8,0,3.15.48,4.06,1.45.9.97,1.35,2.48,1.35,4.53v5.31Z"/>
      <path class="cls-3" d="M224.13,234.4c-.58,0-1.04.17-1.37.52s-.5.84-.5,1.49.17,1.14.5,1.49c.33.35.79.52,1.37.52s1.06-.18,1.38-.55c.32-.36.48-.85.48-1.45s-.16-1.09-.48-1.45c-.32-.36-.78-.55-1.38-.55Z"/>
      <path class="cls-3" d="M232.89,242.63c-1.37.7-2.43,1.69-3.19,2.97-.76,1.28-1.13,2.8-1.13,4.56,0,2.47.65,4.36,1.94,5.66,1.29,1.3,3.13,1.95,5.51,1.95h3.27v.97c0,1.34-.43,2.41-1.28,3.22s-2.04,1.22-3.56,1.22c-.91,0-1.75-.12-2.52-.38s-1.51-.57-2.22-.95l-1.34,2.24c.87.56,1.8.98,2.8,1.27,1,.29,2.07.43,3.21.43,2.45,0,4.35-.64,5.69-1.9,1.35-1.27,2.02-3.04,2.02-5.31v-17h-4.37c-1.85,0-3.46.35-4.82,1.05ZM239.25,244.19v10.98h-3.14c-1.53,0-2.68-.41-3.44-1.22-.76-.81-1.13-2.09-1.13-3.82,0-1.87.55-3.33,1.65-4.37,1.1-1.05,2.64-1.57,4.63-1.57h1.44Z"/>
      <path class="cls-3" d="M277.96,242.63c-1.37.7-2.42,1.69-3.15,2.97-.73,1.28-1.1,2.79-1.1,4.53,0,.62.07,1.25.22,1.87.15.62.35,1.21.62,1.77.27.56.57,1.02.9,1.4h-10.85c-.93,0-1.69-.38-2.27-1.13s-.87-1.75-.87-2.97c0-.78.05-1.57.14-2.37.09-.8.21-1.6.36-2.4h-2.67c-.16.44-.3.96-.43,1.55-.14.59-.24,1.19-.3,1.8-.07.61-.1,1.17-.1,1.66,0,2,.56,3.58,1.69,4.74,1.12,1.16,2.64,1.74,4.56,1.74h22.54v-16.19h-4.37c-1.89,0-3.52.35-4.89,1.05ZM284.39,244.19v10.98h-3.14c-1.02,0-1.87-.19-2.55-.57s-1.18-.94-1.52-1.69c-.33-.75-.5-1.69-.5-2.82,0-1.25.25-2.31.75-3.19.5-.88,1.22-1.55,2.16-2.02.93-.47,2.06-.7,3.37-.7h1.43Z"/>
      <path class="cls-3" d="M280.92,238.41c.6,0,1.06-.18,1.38-.55.32-.36.49-.85.49-1.45s-.16-1.09-.49-1.45c-.32-.36-.78-.55-1.38-.55s-1.03.17-1.37.52c-.33.34-.5.84-.5,1.49s.17,1.14.5,1.49c.34.35.79.52,1.37.52Z"/>
      <path class="cls-3" d="M316.48,233.9c.47,0,.87-.14,1.22-.43.34-.29.52-.76.52-1.4s-.17-1.08-.52-1.38c-.35-.3-.75-.45-1.22-.45-.49,0-.9.15-1.24.43-.33.29-.5.76-.5,1.4s.17,1.11.5,1.4c.33.29.75.43,1.24.43Z"/>
      <path class="cls-3" d="M317.51,236.41c0,.65.17,1.14.5,1.49.33.35.79.52,1.37.52s1.06-.18,1.38-.55c.32-.36.48-.85.48-1.45s-.16-1.09-.48-1.45c-.32-.36-.78-.55-1.38-.55s-1.04.17-1.37.52-.5.84-.5,1.49Z"/>
      <path class="cls-3" d="M313.6,238.41c.6,0,1.07-.18,1.39-.55.32-.36.48-.85.48-1.45s-.16-1.09-.48-1.45c-.32-.36-.79-.55-1.39-.55-.51,0-.95.16-1.32.47-.37.31-.55.83-.55,1.54s.18,1.23.55,1.54c.37.31.81.47,1.32.47Z"/>
      <path class="cls-3" d="M340.98,238.41c.6,0,1.06-.18,1.38-.55.32-.36.49-.85.49-1.45s-.16-1.09-.49-1.45c-.32-.36-.78-.55-1.38-.55s-1.03.17-1.37.52c-.34.34-.5.84-.5,1.49s.17,1.14.5,1.49c.33.35.79.52,1.37.52Z"/>
      <path class="cls-3" d="M335.21,238.41c.58,0,1.03-.17,1.37-.52.33-.34.5-.84.5-1.49s-.17-1.14-.5-1.49-.79-.52-1.37-.52c-.51,0-.95.16-1.32.47-.37.31-.55.83-.55,1.54s.18,1.23.55,1.54c.37.31.81.47,1.32.47Z"/>
      <path class="cls-3" d="M358.88,243.39c-1.54-1.2-3.76-1.8-6.68-1.8h-2.9c.38-.78.92-1.58,1.62-2.41.7-.82,1.51-1.62,2.42-2.38.91-.77,1.89-1.47,2.92-2.1,1.03-.64,2.07-1.15,3.09-1.55l-1.07-2.54c-1.47.56-2.98,1.4-4.54,2.54-1.56,1.13-2.97,2.43-4.24,3.87-.62.74-1.19,1.47-1.69,2.2s-.93,1.48-1.29,2.24v2.74h5.68c2.09,0,3.64.39,4.64,1.17,1,.78,1.5,2,1.5,3.67v6.15h-18.73v-13.59h-2.97v13.59h-9.55v-13.59h-2.84v13.59h-2.04c-1.02,0-1.86-.19-2.52-.59-.66-.39-1.26-1.06-1.82-2.02,0-.18,0-.36.02-.55.01-.19.01-.37.01-.55v-7.28h-2.84v7.11c0,1.16-.3,2.09-.9,2.8s-1.44,1.07-2.51,1.07h-3.61v-10.98h-2.84v10.98h-8.85v-22.77h-2.97v25.37h18.56c1.13,0,2.11-.22,2.92-.65s1.46-1,1.95-1.68c.89.89,1.76,1.5,2.61,1.84.85.33,1.77.5,2.77.5h38.97v-9.25c0-2.22-.77-3.94-2.3-5.14Z"/>
      <rect class="cls-3" x="367.03" y="232.4" width="2.97" height="25.37"/>
      <path class="cls-3" d="M393.6,236.41c.58,0,1.03-.17,1.37-.52s.5-.84.5-1.49-.17-1.14-.5-1.49c-.33-.35-.79-.52-1.37-.52-.51,0-.95.15-1.32.47-.37.31-.55.83-.55,1.54s.18,1.23.55,1.53c.36.31.81.47,1.32.47Z"/>
      <path class="cls-3" d="M399.38,236.41c.6,0,1.06-.18,1.38-.55s.49-.85.49-1.45-.16-1.09-.49-1.45c-.32-.37-.78-.55-1.38-.55s-1.03.17-1.37.52c-.34.34-.5.84-.5,1.49s.17,1.14.5,1.49c.33.34.79.52,1.37.52Z"/>
      <path class="cls-3" d="M408.63,260.45c-.51,0-.95.15-1.32.47s-.55.83-.55,1.54.18,1.22.55,1.53.81.47,1.32.47c.58,0,1.03-.17,1.37-.52.33-.35.5-.84.5-1.49s-.17-1.14-.5-1.49c-.34-.35-.79-.52-1.37-.52Z"/>
      <path class="cls-3" d="M414.41,260.45c-.58,0-1.04.17-1.37.52-.33.34-.5.84-.5,1.49s.17,1.14.5,1.49c.33.34.79.52,1.37.52s1.06-.18,1.38-.55c.32-.36.48-.85.48-1.45s-.16-1.09-.48-1.45c-.32-.36-.78-.55-1.38-.55Z"/>
      <path class="cls-3" d="M474.02,253.87c-.3-.58-.58-1.32-.82-2.24-.25-.91-.48-2.03-.7-3.34-.29-1.8-.7-3.18-1.24-4.14s-1.26-1.68-2.17-2.17c-.45-.25-.95-.43-1.52-.55-.57-.12-1.2-.18-1.89-.18-1.11,0-2.16.12-3.14.35-.98.23-1.95.66-2.9,1.28l1.17,2.3c.84-.44,1.67-.78,2.49-1,.81-.23,1.6-.34,2.35-.34.82,0,1.51.17,2.05.5.55.33.99.88,1.32,1.63.34.76.61,1.78.84,3.07.29,1.62.61,2.94.95,3.96.34,1.01.73,1.73,1.15,2.16h-14.16c-.98,0-1.76-.15-2.35-.43-.59-.29-1.12-.79-1.59-1.5.24-.6.42-1.23.53-1.89.11-.66.17-1.34.17-2.05,0-1.42-.28-2.7-.85-3.84-.57-1.13-1.37-2.01-2.42-2.64-.53-.29-1.11-.51-1.72-.67-.61-.16-1.27-.24-1.95-.24-1.13,0-2.23.2-3.29.6-1.06.4-2,.94-2.82,1.63-.4.78-.7,1.61-.9,2.5-.2.89-.3,1.83-.3,2.81,0,.82.1,1.71.3,2.65.2.95.51,1.96.94,3.06h-7.84c-.62,0-1.24-.06-1.85-.18-.61-.12-1.23-.3-1.85-.52,1.25-.87,2.32-1.91,3.22-3.11.9-1.2,1.59-2.52,2.07-3.96s.72-2.92.72-4.46c-1.07-.74-2.31-1.33-3.74-1.77-1.43-.45-2.84-.67-4.24-.67-1.04,0-2.09.15-3.12.45-1.04.3-2.03.73-2.99,1.27-.96.54-1.85,1.2-2.67,1.95.2,1.2.61,2.48,1.24,3.84.62,1.36,1.38,2.62,2.27,3.77.44.6.89,1.12,1.34,1.57.44.44.88.82,1.3,1.13-.51.22-1.1.39-1.77.5-.67.11-1.4.17-2.2.17h-8.51v-13.59h-2.97v13.59h-8.88v-15.69h-2.84v2.1h-2.2c-1.87,0-3.49.34-4.86,1.02-1.37.68-2.43,1.65-3.17,2.92-.75,1.27-1.12,2.78-1.12,4.54,0,1.62.34,3.01,1,4.15.67,1.15,1.63,2.03,2.9,2.64,1.27.61,2.79.92,4.57.92h26.11c1.09,0,2.15-.14,3.19-.42,1.03-.28,2.04-.7,3.02-1.25,1.02.56,2.08.98,3.15,1.25,1.08.28,2.09.42,3.02.42h13.12c1.02,0,2.01-.18,2.94-.53.93-.35,1.76-.9,2.47-1.63.78.8,1.59,1.36,2.42,1.69.79.3,1.75.45,2.84.47,0,0,0,.01.01.01h17.36v-2.54c-.35-.33-.68-.79-.98-1.37ZM398.21,255.17h-2.94c-1.74,0-3.08-.44-4.03-1.32-.94-.88-1.42-2.16-1.42-3.82,0-1.85.54-3.28,1.63-4.31,1.09-1.02,2.64-1.53,4.64-1.53h2.1v10.98ZM427.69,253c-.87-.65-1.66-1.39-2.37-2.24-.71-.85-1.32-1.75-1.8-2.72s-.84-1.96-1.07-2.99c.62-.42,1.25-.78,1.89-1.07s1.27-.51,1.9-.65c.64-.14,1.26-.22,1.89-.22.82,0,1.63.1,2.44.3.8.2,1.59.51,2.37.94-.11,1.83-.58,3.43-1.42,4.82-.83,1.39-2.11,2.67-3.82,3.82ZM451.03,252.48c-.36.88-.87,1.55-1.55,2-.68.46-1.52.69-2.52.69h-2.37c-.49-1.16-.82-2.24-1-3.24-.18-1-.27-2.01-.27-3.04,0-.58.02-1.11.07-1.6.05-.49.16-.97.33-1.43.53-.4,1.14-.73,1.82-.99.68-.26,1.37-.39,2.09-.39,1.09,0,2.02.44,2.79,1.34.77.89,1.15,2.04,1.15,3.44,0,1.27-.18,2.34-.53,3.22Z"/>
      <path class="cls-3" d="M465.59,260.45c-.58,0-1.04.17-1.37.52-.33.34-.5.84-.5,1.49s.17,1.14.5,1.49c.33.34.79.52,1.37.52s1.06-.18,1.38-.55c.32-.36.48-.85.48-1.45s-.16-1.09-.48-1.45c-.32-.36-.78-.55-1.38-.55Z"/>
    </g>
    <g>
      <path class="cls-3" d="M12.27,281.89h-4.68v-1.69h11.39v1.69h-4.7v13.69h-2.01v-13.69Z"/>
      <path class="cls-3" d="M28.08,295.59l-.16-1.39h-.07c-.62.87-1.8,1.64-3.38,1.64-2.24,0-3.38-1.57-3.38-3.17,0-2.67,2.37-4.13,6.64-4.11v-.23c0-.91-.25-2.56-2.51-2.56-1.03,0-2.1.32-2.88.82l-.46-1.32c.91-.59,2.24-.98,3.63-.98,3.38,0,4.2,2.31,4.2,4.52v4.13c0,.96.05,1.89.18,2.65h-1.83ZM27.79,289.95c-2.19-.05-4.68.34-4.68,2.49,0,1.3.87,1.92,1.89,1.92,1.44,0,2.35-.91,2.67-1.85.07-.21.11-.43.11-.64v-1.92Z"/>
      <path class="cls-3" d="M34.77,279.38h2.01v16.2h-2.01v-16.2Z"/>
      <path class="cls-3" d="M41.77,290.43c.05,2.72,1.78,3.83,3.79,3.83,1.44,0,2.31-.25,3.06-.57l.34,1.44c-.71.32-1.92.68-3.67.68-3.4,0-5.43-2.24-5.43-5.57s1.96-5.96,5.18-5.96c3.61,0,4.56,3.17,4.56,5.2,0,.41-.05.73-.07.94h-7.76ZM47.66,288.99c.02-1.28-.52-3.26-2.78-3.26-2.03,0-2.92,1.87-3.08,3.26h5.87Z"/>
      <path class="cls-3" d="M53.52,287.53c0-1.14-.02-2.08-.09-2.99h1.78l.11,1.83h.05c.55-1.05,1.83-2.08,3.65-2.08,1.53,0,3.9.91,3.9,4.7v6.6h-2.01v-6.37c0-1.78-.66-3.26-2.56-3.26-1.32,0-2.35.94-2.69,2.05-.09.25-.14.59-.14.94v6.64h-2.01v-8.06Z"/>
      <path class="cls-3" d="M70.04,281.37v3.17h2.88v1.53h-2.88v5.96c0,1.37.39,2.15,1.51,2.15.52,0,.91-.07,1.16-.14l.09,1.51c-.39.16-1,.27-1.78.27-.94,0-1.69-.3-2.17-.84-.57-.59-.78-1.57-.78-2.88v-6.03h-1.71v-1.53h1.71v-2.65l1.96-.53Z"/>
      <path class="cls-3" d="M80.24,280.41c1.21-.18,2.65-.32,4.22-.32,2.85,0,4.88.66,6.23,1.92,1.37,1.26,2.17,3.03,2.17,5.52s-.78,4.56-2.21,5.98c-1.44,1.44-3.81,2.21-6.8,2.21-1.42,0-2.6-.07-3.61-.18v-15.13ZM82.22,294.01c.5.09,1.23.11,2.01.11,4.25,0,6.55-2.37,6.55-6.53.02-3.63-2.03-5.93-6.23-5.93-1.03,0-1.8.09-2.33.21v12.14Z"/>
      <path class="cls-3" d="M99.06,281.44c.02.68-.48,1.23-1.28,1.23-.71,0-1.21-.55-1.21-1.23s.53-1.26,1.26-1.26,1.23.55,1.23,1.26ZM96.82,295.59v-11.05h2.01v11.05h-2.01Z"/>
      <path class="cls-3" d="M102.44,293.53c.59.39,1.64.8,2.65.8,1.46,0,2.15-.73,2.15-1.64,0-.96-.57-1.48-2.05-2.03-1.99-.71-2.92-1.8-2.92-3.13,0-1.78,1.44-3.24,3.81-3.24,1.12,0,2.1.32,2.72.69l-.5,1.46c-.43-.27-1.23-.64-2.26-.64-1.19,0-1.85.68-1.85,1.51,0,.91.66,1.32,2.1,1.87,1.92.73,2.9,1.69,2.9,3.33,0,1.94-1.51,3.31-4.13,3.31-1.21,0-2.33-.3-3.1-.75l.5-1.53Z"/>
      <path class="cls-3" d="M121.51,295.18c-.53.27-1.69.64-3.17.64-3.33,0-5.5-2.26-5.5-5.64s2.33-5.87,5.93-5.87c1.19,0,2.24.3,2.78.57l-.46,1.55c-.48-.27-1.23-.53-2.33-.53-2.53,0-3.9,1.87-3.9,4.18,0,2.56,1.64,4.13,3.83,4.13,1.14,0,1.89-.3,2.46-.55l.34,1.51Z"/>
      <path class="cls-3" d="M134.59,289.97c0,4.09-2.83,5.87-5.5,5.87-2.99,0-5.29-2.19-5.29-5.68,0-3.7,2.42-5.87,5.48-5.87s5.32,2.31,5.32,5.68ZM125.82,290.09c0,2.42,1.39,4.25,3.36,4.25s3.36-1.8,3.36-4.29c0-1.87-.94-4.25-3.31-4.25s-3.4,2.19-3.4,4.29Z"/>
      <path class="cls-3" d="M139.17,284.54l2.17,6.21c.37,1,.66,1.92.89,2.83h.07c.25-.91.57-1.83.94-2.83l2.15-6.21h2.1l-4.34,11.05h-1.92l-4.2-11.05h2.15Z"/>
      <path class="cls-3" d="M151.1,290.43c.05,2.72,1.78,3.83,3.79,3.83,1.44,0,2.31-.25,3.06-.57l.34,1.44c-.71.32-1.92.68-3.67.68-3.4,0-5.43-2.24-5.43-5.57s1.96-5.96,5.18-5.96c3.61,0,4.56,3.17,4.56,5.2,0,.41-.05.73-.07.94h-7.76ZM156.99,288.99c.02-1.28-.52-3.26-2.78-3.26-2.03,0-2.92,1.87-3.08,3.26h5.87Z"/>
      <path class="cls-3" d="M162.85,287.99c0-1.3-.02-2.42-.09-3.45h1.76l.07,2.17h.09c.5-1.48,1.71-2.42,3.06-2.42.23,0,.39.02.57.07v1.89c-.21-.05-.41-.07-.68-.07-1.42,0-2.42,1.07-2.69,2.58-.05.27-.09.59-.09.94v5.89h-1.99v-7.6Z"/>
      <path class="cls-3" d="M173.01,284.54l2.42,6.53c.25.73.52,1.6.71,2.26h.05c.21-.66.43-1.51.71-2.31l2.19-6.48h2.12l-3.01,7.87c-1.44,3.79-2.42,5.73-3.79,6.92-.98.87-1.96,1.21-2.47,1.3l-.5-1.69c.5-.16,1.16-.48,1.76-.98.55-.43,1.23-1.21,1.69-2.24.09-.21.16-.37.16-.48s-.05-.27-.14-.52l-4.09-10.18h2.19Z"/>
      <path class="cls-3" d="M197.92,295.59c-.43-.43-.84-.87-1.44-1.51-1.32,1.23-2.81,1.76-4.5,1.76-2.99,0-4.72-2.01-4.72-4.31,0-2.1,1.26-3.54,3.01-4.5v-.07c-.8-1-1.28-2.12-1.28-3.22,0-1.87,1.35-3.79,3.9-3.79,1.92,0,3.4,1.28,3.4,3.26,0,1.62-.94,2.9-3.38,4.11v.07c1.3,1.51,2.76,3.2,3.74,4.29.71-1.07,1.19-2.56,1.48-4.5h1.83c-.41,2.42-1.07,4.34-2.21,5.68.82.87,1.62,1.73,2.53,2.72h-2.37ZM195.5,292.94c-.91-1-2.62-2.88-4.34-4.84-.82.53-1.99,1.51-1.99,3.13,0,1.76,1.3,3.1,3.15,3.1,1.32,0,2.44-.59,3.17-1.39ZM190.83,283.56c0,1.1.5,1.94,1.16,2.76,1.55-.89,2.56-1.71,2.56-3.01,0-.94-.52-1.99-1.78-1.99s-1.94,1.05-1.94,2.24Z"/>
      <path class="cls-3" d="M209.3,280.41c1.21-.18,2.65-.32,4.22-.32,2.85,0,4.88.66,6.23,1.92,1.37,1.26,2.17,3.03,2.17,5.52s-.78,4.56-2.21,5.98c-1.44,1.44-3.81,2.21-6.8,2.21-1.42,0-2.6-.07-3.61-.18v-15.13ZM211.29,294.01c.5.09,1.23.11,2.01.11,4.25,0,6.55-2.37,6.55-6.53.02-3.63-2.03-5.93-6.23-5.93-1.03,0-1.8.09-2.33.21v12.14Z"/>
      <path class="cls-3" d="M227.01,290.43c.05,2.72,1.78,3.83,3.79,3.83,1.44,0,2.31-.25,3.06-.57l.34,1.44c-.71.32-1.92.68-3.67.68-3.4,0-5.43-2.24-5.43-5.57s1.96-5.96,5.18-5.96c3.61,0,4.56,3.17,4.56,5.2,0,.41-.05.73-.07.94h-7.76ZM232.9,288.99c.02-1.28-.52-3.26-2.78-3.26-2.03,0-2.92,1.87-3.08,3.26h5.87Z"/>
      <path class="cls-3" d="M239.53,284.54l2.17,6.21c.37,1,.66,1.92.89,2.83h.07c.25-.91.57-1.83.94-2.83l2.15-6.21h2.1l-4.34,11.05h-1.92l-4.2-11.05h2.15Z"/>
      <path class="cls-3" d="M251.47,290.43c.05,2.72,1.78,3.83,3.79,3.83,1.44,0,2.31-.25,3.06-.57l.34,1.44c-.71.32-1.92.68-3.67.68-3.4,0-5.43-2.24-5.43-5.57s1.96-5.96,5.18-5.96c3.61,0,4.56,3.17,4.56,5.2,0,.41-.05.73-.07.94h-7.76ZM257.36,288.99c.02-1.28-.52-3.26-2.78-3.26-2.03,0-2.92,1.87-3.08,3.26h5.87Z"/>
      <path class="cls-3" d="M263.22,279.38h2.01v16.2h-2.01v-16.2Z"/>
      <path class="cls-3" d="M279.1,289.97c0,4.09-2.83,5.87-5.5,5.87-2.99,0-5.29-2.19-5.29-5.68,0-3.7,2.42-5.87,5.48-5.87s5.32,2.31,5.32,5.68ZM270.34,290.09c0,2.42,1.39,4.25,3.36,4.25s3.36-1.8,3.36-4.29c0-1.87-.94-4.25-3.31-4.25s-3.4,2.19-3.4,4.29Z"/>
      <path class="cls-3" d="M282.91,288.15c0-1.42-.05-2.56-.09-3.61h1.8l.09,1.89h.05c.82-1.35,2.12-2.15,3.93-2.15,2.67,0,4.68,2.26,4.68,5.62,0,3.97-2.42,5.93-5.02,5.93-1.46,0-2.74-.64-3.4-1.73h-.05v6h-1.99v-11.96ZM284.89,291.09c0,.3.05.57.09.82.37,1.39,1.57,2.35,3.01,2.35,2.12,0,3.35-1.73,3.35-4.27,0-2.21-1.16-4.11-3.29-4.11-1.37,0-2.65.98-3.04,2.49-.07.25-.14.55-.14.82v1.89Z"/>
      <path class="cls-3" d="M296.94,287.53c0-1.14-.02-2.08-.09-2.99h1.76l.09,1.78h.07c.62-1.05,1.64-2.03,3.47-2.03,1.51,0,2.65.91,3.13,2.21h.05c.34-.62.78-1.1,1.23-1.44.66-.5,1.39-.78,2.44-.78,1.46,0,3.63.96,3.63,4.79v6.5h-1.96v-6.25c0-2.12-.78-3.4-2.4-3.4-1.14,0-2.03.84-2.37,1.83-.09.27-.16.64-.16,1v6.82h-1.96v-6.62c0-1.76-.78-3.04-2.31-3.04-1.26,0-2.17,1-2.49,2.01-.11.3-.16.64-.16.98v6.66h-1.96v-8.06Z"/>
      <path class="cls-3" d="M319.39,290.43c.05,2.72,1.78,3.83,3.79,3.83,1.44,0,2.31-.25,3.06-.57l.34,1.44c-.71.32-1.92.68-3.67.68-3.4,0-5.43-2.24-5.43-5.57s1.96-5.96,5.18-5.96c3.61,0,4.56,3.17,4.56,5.2,0,.41-.04.73-.07.94h-7.76ZM325.28,288.99c.02-1.28-.52-3.26-2.78-3.26-2.03,0-2.92,1.87-3.08,3.26h5.87Z"/>
      <path class="cls-3" d="M331.14,287.53c0-1.14-.02-2.08-.09-2.99h1.78l.11,1.83h.05c.55-1.05,1.83-2.08,3.65-2.08,1.53,0,3.9.91,3.9,4.7v6.6h-2.01v-6.37c0-1.78-.66-3.26-2.56-3.26-1.32,0-2.35.94-2.69,2.05-.09.25-.14.59-.14.94v6.64h-2.01v-8.06Z"/>
      <path class="cls-3" d="M347.66,281.37v3.17h2.88v1.53h-2.88v5.96c0,1.37.39,2.15,1.51,2.15.53,0,.91-.07,1.16-.14l.09,1.51c-.39.16-1,.27-1.78.27-.94,0-1.69-.3-2.17-.84-.57-.59-.78-1.57-.78-2.88v-6.03h-1.71v-1.53h1.71v-2.65l1.96-.53Z"/>
      <path class="cls-3" d="M360.35,290.75l-1.6,4.84h-2.05l5.23-15.38h2.4l5.25,15.38h-2.12l-1.64-4.84h-5.46ZM365.39,289.2l-1.51-4.43c-.34-1-.57-1.92-.8-2.81h-.04c-.23.91-.48,1.85-.78,2.78l-1.51,4.45h4.63Z"/>
      <path class="cls-3" d="M372.09,293.53c.59.39,1.64.8,2.65.8,1.46,0,2.15-.73,2.15-1.64,0-.96-.57-1.48-2.05-2.03-1.99-.71-2.92-1.8-2.92-3.13,0-1.78,1.44-3.24,3.81-3.24,1.12,0,2.1.32,2.72.69l-.5,1.46c-.43-.27-1.23-.64-2.26-.64-1.19,0-1.85.68-1.85,1.51,0,.91.66,1.32,2.1,1.87,1.92.73,2.9,1.69,2.9,3.33,0,1.94-1.51,3.31-4.13,3.31-1.21,0-2.33-.3-3.1-.75l.5-1.53Z"/>
      <path class="cls-3" d="M383.02,293.53c.59.39,1.64.8,2.65.8,1.46,0,2.15-.73,2.15-1.64,0-.96-.57-1.48-2.05-2.03-1.99-.71-2.92-1.8-2.92-3.13,0-1.78,1.44-3.24,3.81-3.24,1.12,0,2.1.32,2.72.69l-.5,1.46c-.43-.27-1.23-.64-2.26-.64-1.19,0-1.85.68-1.85,1.51,0,.91.66,1.32,2.1,1.87,1.92.73,2.9,1.69,2.9,3.33,0,1.94-1.51,3.31-4.13,3.31-1.21,0-2.33-.3-3.1-.75l.5-1.53Z"/>
      <path class="cls-3" d="M404.22,289.97c0,4.09-2.83,5.87-5.5,5.87-2.99,0-5.3-2.19-5.3-5.68,0-3.7,2.42-5.87,5.48-5.87s5.32,2.31,5.32,5.68ZM395.46,290.09c0,2.42,1.39,4.25,3.35,4.25s3.36-1.8,3.36-4.29c0-1.87-.94-4.25-3.31-4.25s-3.4,2.19-3.4,4.29Z"/>
      <path class="cls-3" d="M415.91,295.18c-.52.27-1.69.64-3.17.64-3.33,0-5.5-2.26-5.5-5.64s2.33-5.87,5.93-5.87c1.19,0,2.24.3,2.78.57l-.46,1.55c-.48-.27-1.23-.53-2.33-.53-2.53,0-3.9,1.87-3.9,4.18,0,2.56,1.64,4.13,3.83,4.13,1.14,0,1.89-.3,2.46-.55l.34,1.51Z"/>
      <path class="cls-3" d="M421.22,281.44c.02.68-.48,1.23-1.28,1.23-.71,0-1.21-.55-1.21-1.23s.52-1.26,1.26-1.26,1.23.55,1.23,1.26ZM418.98,295.59v-11.05h2.01v11.05h-2.01Z"/>
      <path class="cls-3" d="M430.99,295.59l-.16-1.39h-.07c-.62.87-1.8,1.64-3.38,1.64-2.24,0-3.38-1.57-3.38-3.17,0-2.67,2.37-4.13,6.64-4.11v-.23c0-.91-.25-2.56-2.51-2.56-1.03,0-2.1.32-2.88.82l-.46-1.32c.91-.59,2.24-.98,3.63-.98,3.38,0,4.2,2.31,4.2,4.52v4.13c0,.96.05,1.89.18,2.65h-1.83ZM430.69,289.95c-2.19-.05-4.68.34-4.68,2.49,0,1.3.87,1.92,1.89,1.92,1.44,0,2.35-.91,2.67-1.85.07-.21.11-.43.11-.64v-1.92Z"/>
      <path class="cls-3" d="M440.09,281.37v3.17h2.88v1.53h-2.88v5.96c0,1.37.39,2.15,1.51,2.15.53,0,.91-.07,1.16-.14l.09,1.51c-.39.16-1,.27-1.78.27-.94,0-1.69-.3-2.17-.84-.57-.59-.78-1.57-.78-2.88v-6.03h-1.71v-1.53h1.71v-2.65l1.96-.53Z"/>
      <path class="cls-3" d="M448.14,281.44c.02.68-.48,1.23-1.28,1.23-.71,0-1.21-.55-1.21-1.23s.52-1.26,1.26-1.26,1.23.55,1.23,1.26ZM445.91,295.59v-11.05h2.01v11.05h-2.01Z"/>
      <path class="cls-3" d="M461.79,289.97c0,4.09-2.83,5.87-5.5,5.87-2.99,0-5.3-2.19-5.3-5.68,0-3.7,2.42-5.87,5.48-5.87s5.32,2.31,5.32,5.68ZM453.03,290.09c0,2.42,1.39,4.25,3.35,4.25s3.36-1.8,3.36-4.29c0-1.87-.94-4.25-3.31-4.25s-3.4,2.19-3.4,4.29Z"/>
      <path class="cls-3" d="M465.6,287.53c0-1.14-.02-2.08-.09-2.99h1.78l.11,1.83h.05c.55-1.05,1.83-2.08,3.65-2.08,1.53,0,3.9.91,3.9,4.7v6.6h-2.01v-6.37c0-1.78-.66-3.26-2.56-3.26-1.32,0-2.35.94-2.69,2.05-.09.25-.14.59-.14.94v6.64h-2.01v-8.06Z"/>
    </g>
  </g>
</svg>