<?xml version="1.0" encoding="UTF-8"?>
<svg id="Layer_1" data-name="Layer 1" xmlns="http://www.w3.org/2000/svg" viewBox="0 0 669.78 309">
  <defs>
    <style>
      .cls-1 {
        fill: #9a52fd;
      }

      .cls-2 {
        fill: #606060;
      }

      .cls-3 {
        fill: #01e2e6;
      }
    </style>
  </defs>
  <path class="cls-2" d="M142.97,72.12l5.47-2.91v29.56c0,6.28-1.82,11.21-5.47,14.78-3.41,3.26-7.95,4.89-13.61,4.89h-4.65c-7.68,0-13.11-2.83-16.29-8.49-3.26,5.66-8.73,8.49-16.41,8.49h-4.65c-5.66,0-10.2-1.63-13.61-4.89-.08,8.53-3.07,15.32-8.96,20.36-5.28,4.42-12.06,6.63-20.36,6.63-9.7,0-17.22-3.41-22.57-10.24-4.11-5.28-6.17-11.56-6.17-18.85,0-6.9,1.78-12.76,5.35-17.57l5.47-1.16c-3.96,5.74-5.93,11.99-5.93,18.73,0,7.14,2.37,13.03,7.1,17.69,4.42,4.34,10.01,6.52,16.76,6.52,7.91,0,14.04-2.37,18.39-7.1,3.65-3.96,5.47-9.04,5.47-15.24v-31.88l5.47-2.91v20.13c0,9.93,4.81,14.89,14.43,14.89h3.03c9.62,0,14.43-4.96,14.43-14.89v-21.88l5.47-2.91v24.79c0,9.93,4.81,14.89,14.43,14.89h3.03c9.62,0,14.43-4.96,14.43-14.89v-26.53ZM182.77,113.43c0,8.38-2.13,15.05-6.4,20.01-4.03,4.73-9.5,7.1-16.41,7.1-4.42,0-8.65-1.01-12.68-3.03v-4.89c4.03,2.09,8.07,3.14,12.1,3.14,6.36,0,11.13-2.48,14.31-7.45,2.4-3.88,3.61-8.77,3.61-14.66v-41.54l5.47-2.91v44.22ZM222.8,118.43c-5.9,0-10.55-1.76-13.96-5.29-3.41-3.53-5.12-8.32-5.12-14.37v-52.48l5.47-2.91v55.27c0,9.93,4.81,14.89,14.43,14.89h5v4.89h-5.82ZM283.19,98.65c0,9.93,4.81,14.89,14.43,14.89h5v4.89h-5.82c-7.91,0-13.42-2.95-16.52-8.84-3.57,7.45-9.62,11.17-18.15,11.17s-14.59-3.72-18.15-11.17c-3.1,5.9-8.61,8.84-16.52,8.84h-5.82v-4.89h5c9.62,0,14.43-4.96,14.43-14.89v-4.19c0-8.84,2.09-15.59,6.28-20.25,3.65-4.11,8.57-6.17,14.78-6.17,7.06,0,12.45,2.64,16.17,7.91,3.26,4.65,4.89,10.82,4.89,18.5v4.19h0ZM246.54,94.46c0,14.27,5.2,21.41,15.59,21.41,4.73,0,8.51-1.94,11.35-5.82,2.83-3.88,4.25-9.08,4.25-15.59,0-7.14-1.47-12.61-4.42-16.41-2.64-3.41-6.36-5.12-11.17-5.12s-8.81,1.86-11.52,5.59c-2.72,3.72-4.07,9.04-4.07,15.94h0ZM315.08,87.6c0-6.52,1.9-11.52,5.7-15.01,3.33-3.03,7.72-4.54,13.15-4.54,7.06,0,12.45,2.6,16.17,7.8,3.26,4.42,4.89,10.24,4.89,17.45,0,8.22-2.06,14.62-6.17,19.2-3.65,3.96-8.42,5.93-14.31,5.93-7.84,0-13.38-2.83-16.64-8.49-3.26,5.66-8.73,8.49-16.41,8.49h-5.82v-4.89h5c9.62,0,14.43-4.96,14.43-14.89v-11.05ZM320.55,98.65c0,9.93,4.81,14.89,14.43,14.89,4.5,0,8.05-1.8,10.65-5.41,2.6-3.61,3.9-8.55,3.9-14.84,0-6.59-1.47-11.71-4.42-15.36-2.72-3.33-6.44-5-11.17-5-8.92,0-13.38,5.2-13.38,15.59v10.12Z"/>
  <path class="cls-2" d="M63.84,222.12c0,9.93,4.81,14.89,14.43,14.89h5v4.89h-5.82c-8.77,0-14.62-3.61-17.57-10.82-4.11,4.89-9.39,7.33-15.83,7.33s-11.64-2.48-15.36-7.45c-3.18-4.19-4.77-9.5-4.77-15.94,0-7.37,2.05-13.27,6.17-17.69,3.65-3.88,8.3-5.82,13.96-5.82s10.67,1.9,14.31,5.7v-7.68l5.47-2.91v35.49h0ZM58.38,203.85c-3.8-4.96-8.57-7.45-14.31-7.45-4.35,0-7.87,1.73-10.59,5.18-2.72,3.45-4.07,7.93-4.07,13.44s1.34,10.07,4.01,13.44c2.68,3.37,6.23,5.06,10.65,5.06,5.74,0,10.59-2.56,14.55-7.68-.16-1.55-.23-2.75-.23-3.61v-18.39ZM46.62,172.31c0,2.56-1.2,3.84-3.61,3.84s-3.72-1.28-3.72-3.84,1.24-3.72,3.72-3.72,3.61,1.24,3.61,3.72h0ZM58.38,172.31c0,2.56-1.2,3.84-3.61,3.84s-3.72-1.28-3.72-3.84,1.24-3.72,3.72-3.72,3.61,1.24,3.61,3.72h0ZM76.29,241.9v-4.89h20.48v4.89h-20.48ZM89.79,241.9v-4.89h20.48v4.89h-20.48ZM128.19,222.12c0,9.93,4.81,14.89,14.43,14.89h5v4.89h-5.82c-7.68,0-13.11-2.83-16.29-8.49-3.26,5.66-8.73,8.49-16.41,8.49h-5.82v-4.89h5c9.62,0,14.43-4.96,14.43-14.89v-26.53l5.47-2.91v29.44h0ZM119.7,258.42c0-2.48,1.24-3.72,3.72-3.72s3.61,1.24,3.61,3.72-1.2,3.84-3.61,3.84-3.72-1.28-3.72-3.84h0ZM140.64,241.9v-4.89h20.48v4.89h-20.48ZM165.43,219.56c0-4.19.93-7.8,2.79-10.82,1.63-7.29,5.08-12.88,10.36-16.76,4.19-3.03,8.92-4.54,14.2-4.54,7.45,0,13.69,2.72,18.73,8.15,4.81,5.12,7.21,11.68,7.21,19.67v7.21c0,6.44-1.94,11.4-5.82,14.89-3.34,3.03-7.76,4.54-13.27,4.54h-10.47c-2.64,0-5.12-.39-7.45-1.16-2.33.78-4.81,1.16-7.45,1.16h-20.13v-4.89h20.01c-5.82-4.34-8.73-10.16-8.73-17.45h0ZM169.97,219.56c0,8.38,3.92,13.85,11.75,16.41,7.83-2.56,11.75-8.03,11.75-16.41,0-4.11-1.07-7.39-3.2-9.83-2.13-2.44-4.99-3.66-8.55-3.66s-6.42,1.22-8.55,3.66c-2.13,2.44-3.2,5.72-3.2,9.83h0ZM199.06,237.01c9.46,0,14.2-5.16,14.2-15.48v-6.28c0-7.52-2.44-13.46-7.33-17.8-3.8-3.41-8.3-5.12-13.5-5.12-7.91,0-13.65,3.45-17.22,10.36,2.17-.77,4.34-1.16,6.52-1.16,4.96,0,8.92,1.65,11.87,4.95,2.95,3.3,4.42,7.66,4.42,13.09,0,7.37-2.95,13.19-8.84,17.45h9.89ZM274.35,237.01h14.78v4.89h-14.78c0,6.67-2.56,12.18-7.68,16.52-4.35,3.72-9.39,5.59-15.13,5.59-4.42,0-8.65-1.01-12.68-3.03v-4.89c4.03,2.09,8.07,3.14,12.1,3.14,5.12,0,9.5-1.86,13.15-5.59,3.18-3.26,4.77-7.1,4.77-11.52v-.23c-2.09,0-5.31-.08-9.66-.23-16.52-.47-24.79-8.77-24.79-24.9,0-8.3,2.09-14.7,6.28-19.2,3.72-4.03,8.65-6.05,14.78-6.05s10.41,1.75,13.79,5.24,5.06,8.26,5.06,14.31v25.95ZM268.88,211.99c0-10.39-4.46-15.59-13.38-15.59-4.89,0-8.71,1.8-11.46,5.41-2.75,3.61-4.13,8.59-4.13,14.95,0,12.57,6.44,19.24,19.32,20.02,2.09.16,5.31.23,9.66.23v-25.02ZM282.14,241.9v-4.89h20.48v4.89h-20.48ZM315.08,211.06c0-6.52,1.9-11.52,5.7-15.01,3.33-3.03,7.72-4.54,13.15-4.54,7.06,0,12.45,2.6,16.17,7.8,3.26,4.42,4.89,10.24,4.89,17.45,0,8.22-2.06,14.62-6.17,19.2-3.65,3.96-8.42,5.93-14.31,5.93-7.84,0-13.38-2.83-16.64-8.49-3.26,5.66-8.73,8.49-16.41,8.49h-5.82v-4.89h5c9.62,0,14.43-4.96,14.43-14.89v-11.05ZM320.54,222.12c0,9.93,4.81,14.89,14.43,14.89,4.5,0,8.05-1.8,10.65-5.41,2.6-3.61,3.9-8.55,3.9-14.84,0-6.59-1.47-11.71-4.42-15.36-2.72-3.33-6.44-5-11.17-5-8.92,0-13.38,5.2-13.38,15.59v10.12Z"/>
  <g>
    <path class="cls-1" d="M544.67,105.79c22.15,15.25,27.74,45.56,12.49,67.71-15.25,22.15-45.56,27.74-67.71,12.49-22.15-15.25-27.74-45.56-12.49-67.71,15.25-22.15,45.56-27.74,67.71-12.49"/>
    <path class="cls-3" d="M615.64,23.35l-54.63-14.93c-.52-.14-1.05.01-1.47.43-.4.4-.54.98-.37,1.47l16.53,53.03c.18.62.77.99,1.4.94.66-.06,1.21-.54,1.37-1.18l6.72-27.5c.15-.56.6-1.04,1.18-1.21l29.11-8.27c.26-.07.49-.2.68-.39.26-.26.43-.62.44-.99.04-.65-.36-1.21-.98-1.38"/>
    <path class="cls-1" d="M638.5,95.65c-.06-.18-.18-.41-.3-.59-7.99-17.4-19.77-33.56-35.51-47.23,3.73,3.43,7.22,7.04,10.42,10.89,36.75,43.62,38.17,111.62-2.25,154.82-49.65,54.39-131.38,48-175.42-.53l-35.57,38.76c34.38,37.82,88,57.64,140.56,45.1,95.11-22.25,133.4-123.81,98.06-201.22"/>
    <path class="cls-3" d="M398.39,214.71h0c10.68,9.79,27.28,9.07,37.07-1.62-9.79,10.68-9.07,27.28,1.62,37.07-10.68-9.79-27.28-9.07-37.07,1.62,9.79-10.68,9.07-27.28-1.62-37.07"/>
  </g>
</svg>