<?xml version="1.0" encoding="UTF-8"?>
<svg id="Layer_1" data-name="Layer 1" xmlns="http://www.w3.org/2000/svg" viewBox="0 0 220.21 309.73">
  <defs>
    <style>
      .cls-1 {
        fill: #447cbd;
      }

      .cls-2 {
        fill: #0c5162;
      }

      .cls-3 {
        fill: #39b09a;
      }
    </style>
  </defs>
  <path class="cls-3" d="M92.52,124.1h0L18.52,70.7c-4-2.9-9.7-2.6-13.3,1.1-4,4-4,10.5,0,14.5l50.2,49.9L3.72,178.9c-3.8,3.1-4.9,8.7-2.3,13.1,2.9,4.9,9.1,6.6,14.1,3.7l75.7-44c1.9-1.1,3.7-2.7,5.1-4.6,5.2-7.4,3.6-17.7-3.8-23"/>
  <path class="cls-2" d="M211.12,197l-76.3-45.1c-2.7-1.6-5.8-2.4-9.2-2.3-9.2.4-14.4,6.2-14.4,15.9,0,33.6.1,100.2.1,134.4,0,5.2,4.3,9.5,9.6,9.8,5.7.4,10.5-3.9,10.9-9.6l10.4-108,59.9,23.3c4.6,1.8,10,0,12.6-4.4,2.9-4.8,1.3-11.1-3.6-14"/>
  <path class="cls-1" d="M219.82,73.9c-1.5-5.5-7.2-8.7-12.6-7.2l-65.4,18.1-10.1-76.2C130.92,3.7,126.62-.1,121.42,0c-5.7.1-10.2,4.8-10.1,10.4.2,24.5,0,73.5,0,97.9,0,13.3,13.6,18.6,21.8,14.8l81.1-37.2c4.5-2,7-7.1,5.6-12"/>
</svg>