<svg xmlns="http://www.w3.org/2000/svg" viewBox="0 0 800 600" preserveAspectRatio="xMidYMid slice">
<defs>
<linearGradient id="g" x1="0" y1="0" x2="1" y2="1">
<stop offset="0" stop-color="#1d3a6b"/><stop offset="1" stop-color="#0b2545"/>
</linearGradient>
<pattern id="dots" width="36" height="36" patternUnits="userSpaceOnUse">
<circle cx="2" cy="2" r="1.4" fill="#d9b066" opacity=".18"/>
</pattern>
</defs>
<rect width="800" height="600" fill="url(#g)"/>
<rect width="800" height="600" fill="url(#dots)"/>
<circle cx="660" cy="120" r="200" fill="#d9b066" opacity=".08"/>
<circle cx="120" cy="500" r="240" fill="#ffffff" opacity=".05"/>
<g transform="translate(400 270) scale(7)" fill="none" stroke="#d9b066" stroke-width="1.4" stroke-linecap="round" stroke-linejoin="round" opacity=".95">
<g transform="translate(-12 -12)"><path d="M9 3H6a2 2 0 0 0-2 2v14a2 2 0 0 0 2 2h12a2 2 0 0 0 2-2V5a2 2 0 0 0-2-2h-3 M9 3a2 2 0 0 0 2 2h2a2 2 0 0 0 2-2 M9 12h6 M9 16h6"/></g>
</g>
<text x="400" y="520" font-family="Tajawal, Arial" font-size="34" font-weight="700" fill="#ffffff" text-anchor="middle" opacity=".95">نماذج متابعة الأسرة</text>
<text x="400" y="555" font-family="Tajawal, Arial" font-size="18" fill="#d9b066" text-anchor="middle" opacity=".9">متجر جمعية سَنَد</text>
</svg>