<?xml version="1.0" encoding="UTF-8"?>
<svg id="Layer_1" data-name="Layer 1" xmlns="http://www.w3.org/2000/svg" viewBox="0 0 717.19 309.73">
  <defs>
    <style>
      .cls-1 {
        fill: #447cbd;
      }

      .cls-2 {
        fill: #0c5162;
      }

      .cls-3 {
        fill: #39b09a;
      }
    </style>
  </defs>
  <g>
    <path class="cls-3" d="M589.5,124.1h0l-74-53.4c-4-2.9-9.7-2.6-13.3,1.1-4,4-4,10.5,0,14.5l50.2,49.9-51.7,42.7c-3.8,3.1-4.9,8.7-2.3,13.1,2.9,4.9,9.1,6.6,14.1,3.7l75.7-44c1.9-1.1,3.7-2.7,5.1-4.6,5.2-7.4,3.6-17.7-3.8-23"/>
    <path class="cls-2" d="M708.1,197l-76.3-45.1c-2.7-1.6-5.8-2.4-9.2-2.3-9.2.4-14.4,6.2-14.4,15.9,0,33.6.1,100.2.1,134.4,0,5.2,4.3,9.5,9.6,9.8,5.7.4,10.5-3.9,10.9-9.6l10.4-108,59.9,23.3c4.6,1.8,10,0,12.6-4.4,2.9-4.8,1.3-11.1-3.6-14"/>
    <path class="cls-1" d="M716.8,73.9c-1.5-5.5-7.2-8.7-12.6-7.2l-65.4,18.1-10.1-76.2c-.8-4.9-5.1-8.7-10.3-8.6-5.7.1-10.2,4.8-10.1,10.4.2,24.5,0,73.5,0,97.9,0,13.3,13.6,18.6,21.8,14.8l81.1-37.2c4.5-2,7-7.1,5.6-12"/>
  </g>
  <g>
    <path class="cls-2" d="M5.3,79.2h3.7c.3,0,.6-.1.9-.4.3-.2.4-.5.4-.8v-4.2c0-.4-.1-.7-.4-.9-.3-.2-.6-.4-.9-.4h-3.7c-.4,0-.7.1-.9.4-.3.2-.4.5-.4.9v4.2c0,.3.1.6.4.8.3.2.6.4.9.4"/>
    <path class="cls-2" d="M3.2,107.5c1,.9,2.2,1.6,3.5,2s2.8.6,4.3.6h.7c1.3,0,2.5-.2,3.7-.6s2.2-.9,2.9-1.7c.6,1.1,1.5,1.9,2.7,2.3,1.2.5,2.7.7,4.6.7h3.6c.6,0,1.2,0,1.9-.1s1.3-.2,2-.3c.7-.1,1.3-.3,1.9-.6.6-.2,1.2-.5,1.7-.9.9.8,2.1,1.3,3.5,1.5s2.8.4,4.2.4h1.7c1.2,0,2.4-.1,3.5-.4,1.2-.3,2.1-.7,2.8-1.5.9,1,2.2,1.8,3.9,2.3s3.5.8,5.3.8,3.5-.3,5-.8,2.7-1.3,3.6-2.3c.9.7,2,1.1,3.2,1.4s2.4.4,3.6.4h2.2c.6,0,1.2,0,1.9-.1s1.3-.2,2-.3c.7-.1,1.3-.3,1.9-.6.6-.2,1.2-.5,1.7-.9.9.8,2.1,1.3,3.5,1.5s2.8.4,4.2.4h1.7c.6,0,1.2,0,1.9-.1s1.3-.2,2-.3c.7-.1,1.3-.3,1.9-.6.6-.2,1.2-.5,1.7-.9.9.8,2.1,1.3,3.5,1.5s2.8.4,4.2.4h5.1c.9,0,1.7-.1,2.6-.1.8-.1,1.6-.1,2.3-.2.7-.1,1.3-.2,1.7-.3.4-.2.7-.4.9-.7.2-.3.3-.6.4-.9.1-1,.2-2.1.2-3.2,0-1.2.1-2.3.1-3.2v-31.5c0-.3-.1-.6-.3-.8s-.4-.3-.7-.3h-5c-.3,0-.5.1-.8.3-.2.2-.3.5-.3.8v31.4c0,.9-.1,1.4-.4,1.5-.3.2-.8.2-1.7.2h-5.5c-.3,0-.7-.1-1.1-.1-.4-.1-.7-.2-1-.3-.3-.1-.5-.3-.6-.5v-14.4c0-.3-.1-.5-.3-.7s-.4-.3-.7-.3h-4.7c-.3,0-.6.1-.8.3-.2.2-.3.4-.3.7v13.5c0,.4-.1.8-.3,1s-.5.4-.8.5-.6.2-1,.2-.7.1-1,.1h-4.3c-.3,0-.7-.1-1.1-.1-.4-.1-.7-.2-1-.3-.3-.1-.5-.3-.6-.5v-14.4c0-.3-.1-.5-.3-.7s-.4-.3-.7-.3h-4.7c-.3,0-.6.1-.8.3-.2.2-.3.4-.3.7v13.5c0,.4-.1.8-.3,1s-.5.4-.8.5-.6.2-1,.2-.7.1-1,.1h-3.4c-.2,0-.5,0-.9-.1s-.7-.1-1-.3c-.3-.1-.6-.3-.9-.5-.3-.2-.4-.5-.5-.9.1-.4.1-.7.1-1.1v-4.3c0-4-1.1-7-3.2-9-2.1-2-5-3-8.7-3s-6.7,1-8.9,3.1c-2.2,2-3.3,5.1-3.3,9v4.6c0,.5-.1,1-.2,1.3-.1.3-.2.5-.4.7s-.5.3-.8.4-.6.1-1,.1h-4.4c-.3,0-.7-.1-1.1-.1-.4-.1-.7-.2-1-.3-.3-.1-.5-.3-.6-.5v-14.4c0-.3-.1-.5-.3-.7s-.4-.3-.7-.3h-4.7c-.3,0-.6.1-.8.3-.2.2-.3.4-.3.7v13.5c0,.4-.1.8-.3,1s-.5.4-.8.5-.6.2-1,.2-.7.1-1,.1h-3.6c-1.2,0-2.1-.2-2.6-.5-.5-.4-.8-1.1-.8-2.3v-14.9c0-.3-.1-.5-.2-.7-.1-.1-.4-.3-.8-.4-.8-.3-2-.5-3.4-.6-1.5-.1-2.9-.2-4.3-.2-4.8,0-8.4,1.2-10.9,3.6s-3.7,5.7-3.7,10v1.1c0,2,.3,3.6.9,5,.6,1.6,1.4,2.8,2.3,3.7M56.5,97.3c0-2.2.4-3.8,1.2-4.8s2.2-1.5,4-1.5,3.2.5,4,1.5,1.2,2.6,1.2,4.8v2.3c0,2.1-.4,3.7-1.2,4.6-.8,1-2.2,1.4-4,1.4-1.4,0-2.5-.3-3.4-.8-.9-.6-1.4-1.5-1.7-2.8-.1-.8-.2-1.6-.2-2.4v-2.3h.1ZM6.9,96.9c0-2.1.6-3.7,1.8-4.7s2.9-1.5,5.2-1.5h1.4c.6,0,1,0,1.2.1v10.1c0,.8-.3,1.4-1,1.8s-1.6.6-2.9.6h-.8c-1.7,0-2.9-.4-3.7-1.3s-1.2-2.3-1.2-4.4v-.7Z"/>
    <path class="cls-2" d="M15.4,79.2h3.8c.4,0,.7-.1.9-.4.2-.2.4-.5.4-.8v-4.2c0-.4-.1-.7-.4-.9-.2-.2-.5-.4-.9-.4h-3.8c-.3,0-.6.1-.9.4-.3.2-.4.5-.4.9v4.2c0,.3.1.6.4.8.3.2.6.4.9.4"/>
    <path class="cls-2" d="M29.2,115.6c-.4,0-.7.1-.9.4-.3.2-.4.5-.4.9v4.3c0,.3.1.6.4.8.3.2.6.4.9.4h3.7c.3,0,.6-.1.9-.4.3-.2.4-.5.4-.8v-4.3c0-.4-.1-.7-.4-.9-.3-.2-.6-.4-.9-.4h-3.7Z"/>
    <path class="cls-2" d="M39.3,115.6c-.3,0-.6.1-.9.4-.3.2-.4.5-.4.9v4.3c0,.3.1.6.4.8.3.2.6.4.9.4h3.8c.4,0,.7-.1.9-.4.2-.2.4-.5.4-.8v-4.3c0-.4-.1-.7-.4-.9-.2-.2-.5-.4-.9-.4h-3.8Z"/>
    <path class="cls-2" d="M84.8,81.5h4.2c.4,0,.7-.1.9-.4.2-.2.4-.5.4-.8v-4.2c0-.4-.1-.7-.4-.9-.2-.2-.5-.4-.8-.4h-4.3c-.4,0-.7.1-.9.4-.3.2-.4.5-.4.9v4.2c0,.3.1.6.4.8.2.3.5.4.9.4"/>
    <path class="cls-2" d="M96.8,81.5h3.7c.3,0,.6-.1.9-.4.3-.2.4-.5.4-.8v-4.2c0-.4-.1-.7-.4-.9-.3-.2-.6-.4-.9-.4h-3.7c-.4,0-.7.1-.9.4-.3.2-.4.5-.4.9v4.2c0,.3.1.6.4.8.3.3.6.4.9.4"/>
    <path class="cls-2" d="M106.9,81.5h3.8c.4,0,.7-.1.9-.4.2-.2.4-.5.4-.8v-4.2c0-.4-.1-.7-.4-.9-.2-.2-.5-.4-.9-.4h-3.8c-.3,0-.6.1-.9.4-.3.2-.4.5-.4.9v4.2c0,.3.1.6.4.8.2.3.5.4.9.4"/>
    <path class="cls-2" d="M322.4,123.7c.5.1,1.1.1,1.8.1h1.6c2.3,0,4.1-.3,5.6-.9,1.4-.6,2.6-1.7,3.4-3.3.4-.8.7-1.7.8-2.7.2-1.1.2-2.2.2-3.4v-2.6h28.5c1.1,0,2.3,0,3.4-.1,1.1,0,2.2-.1,3.1-.1s1.7-.1,2.3-.1c.8,0,1.2-.4,1.3-1,0-.4.1-.9.1-1.6.1-.7.1-1.3.1-2s.1-1.4.1-2v-3c0-2.6-.3-4.9-.9-6.9-.6-2-1.6-3.7-2.9-5-1.3-1.3-3.1-2.4-5.2-3-2.1-.7-4.7-1-7.8-1-.8,0-1.6,0-2.5.1-.9,0-2.2.1-3.7.2,0-.1.1-.4.2-.8s.3-.8.5-1.2c.2-.4.4-.9.6-1.4s.4-.9.6-1.3l5.1-9.7c.1-.2.2-.4.2-.6s-.1-.3-.2-.5c-.1-.1-.3-.2-.6-.2h-4.9c-.4,0-.7.1-.9.3s-.4.5-.6.8l-4.1,7.6c-.6,1-1.1,2-1.5,2.9s-.8,1.8-1.1,2.6c-.3.8-.5,1.7-.7,2.5-.1.8-.2,1.7-.2,2.6v.9c0,.2,0,.4.1.6v.4c0,.6.5.9,1.2.9h11.6c1.7,0,3.2.1,4.5.4s2.4.8,3.4,1.4c.9.7,1.6,1.5,2.1,2.6s.7,2.4.7,4v1.9c0,.7,0,1.3-.1,1.9-.3,0-.8.1-1.5.1h-30.2v-15.4c0-.3-.1-.5-.3-.7-.2-.2-.4-.3-.7-.3h-4.7c-.3,0-.6.1-.8.3s-.3.4-.3.7v24.4c0,1.1-.1,2-.3,2.6-.2.6-.5,1.1-.9,1.4s-1,.5-1.7.6-1.6.1-2.6.1h-1c-.6,0-.9.3-.9.8v4c-.1.6.2.9.7,1.1"/>
    <path class="cls-2" d="M330.6,81.5h4.2c.4,0,.7-.1.9-.4.2-.2.4-.5.4-.8v-4.2c0-.4-.1-.7-.4-.9-.2-.2-.5-.4-.8-.4h-4.3c-.4,0-.7.1-.9.4-.3.2-.4.5-.4.9v4.2c0,.3.1.6.4.8.2.3.5.4.9.4"/>
    <path class="cls-2" d="M440.2,69.6h-4.9c-.3,0-.5.1-.8.3-.2.2-.3.5-.3.8v31.4c0,.9-.1,1.4-.4,1.5-.3.2-.8.2-1.7.2h-4.6c-.2,0-.5,0-.9-.1s-.7-.1-1-.3c-.3-.1-.6-.3-.9-.5-.3-.2-.4-.5-.5-.9.1-.4.1-.7.1-1.1v-4.3c0-4-1.1-7-3.2-9-2.1-2-5-3-8.7-3s-6.7,1-8.9,3.1c-2.2,2-3.3,5.1-3.3,9v4.6c0,.5-.1,1-.2,1.3-.1.3-.2.5-.4.7s-.5.3-.8.4-.6.1-1,.1h-7v-15.4c0-.3-.1-.5-.3-.7s-.4-.3-.7-.3h-4.7c-.3,0-.6.1-.8.3-.2.2-.3.4-.3.7v24.4c0,1.1-.1,2-.3,2.6s-.5,1.1-.9,1.4-1,.5-1.7.6-1.6.1-2.6.1h-1.1c-.6,0-.9.3-.9.8v4c0,.6.3.9.8,1s1.1.1,1.8.1h1.6c2.3,0,4.1-.3,5.6-.9,1.4-.6,2.6-1.7,3.4-3.3.4-.8.7-1.7.8-2.7.2-1.1.2-2.2.2-3.4v-2.2h6c1.2,0,2.4-.1,3.5-.4,1.2-.3,2.1-.7,2.8-1.5.9,1.1,2.2,1.8,3.9,2.3s3.5.8,5.3.8,3.5-.3,5-.8,2.7-1.3,3.6-2.3c.9.7,2,1.1,3.2,1.4s2.4.4,3.6.4h5.5c.9,0,1.7-.1,2.6-.1.8-.1,1.6-.1,2.3-.2s1.3-.2,1.7-.3c.4-.2.7-.4.9-.7.2-.3.3-.6.4-.9.1-1,.2-2.1.2-3.2,0-1.2.1-2.3.1-3.2v-31.5c0-.3-.1-.6-.3-.8-.3-.2-.5-.3-.8-.3M417.4,99.6c0,2.1-.4,3.7-1.2,4.6-.8,1-2.2,1.4-4,1.4-1.4,0-2.5-.3-3.4-.8-.9-.6-1.4-1.5-1.7-2.8-.1-.8-.2-1.6-.2-2.4v-2.3c0-2.2.4-3.8,1.2-4.8s2.2-1.5,4-1.5,3.2.5,4,1.5,1.2,2.6,1.2,4.8v2.3h.1Z"/>
    <path class="cls-2" d="M450.6,110.9h4.9c.3,0,.6-.1.8-.4.2-.2.3-.5.3-.8v-39.1c0-.3-.1-.5-.3-.8-.2-.2-.5-.3-.8-.3h-4.9c-.3,0-.6.1-.8.3-.2.2-.3.5-.3.8v39.1c0,.3.1.6.3.8.2.3.5.4.8.4"/>
    <path class="cls-2" d="M39.1,159.6v9.5c0,1.4.2,2.6.5,3.4.3.9.8,1.6,1.4,2.1.6.5,1.4.8,2.4,1,.9.2,2,.3,3.3.3h61.3c.9,0,1.7-.1,2.5-.1.8-.1,1.6-.1,2.2-.2.7-.1,1.2-.2,1.6-.3.4-.2.7-.4.9-.6.2-.3.3-.6.4-.9.1-1,.2-2.3.2-3.8v-13.3c0-.9,0-1.9-.1-3.1,0-.3-.1-.5-.3-.7-.2-.2-.5-.3-.9-.3h-4.6c-.3,0-.6.1-.8.3-.2.2-.3.4-.3.7.1,2.6.1,5,.1,7.3v6.5c0,.9-.1,1.4-.4,1.5-.3.2-.9.2-1.7.2h-3.6c-.3,0-.5-.1-.7-.2-.2-.1-.4-.3-.5-.6-.1-.1-.2-.4-.4-.8-.1-.4-.3-.8-.5-1.2-.2-.4-.4-.8-.5-1.2-.2-.4-.3-.8-.4-1.1l-.7-1.5c-1.1-2.5-2.3-4.5-3.5-6.2-1.3-1.6-2.6-3-4.1-4s-3.1-1.7-4.8-2.1-3.5-.6-5.5-.6c-.9,0-1.8,0-2.7.1s-1.7.2-2.6.4c-.7.1-1.1.5-1.1,1v4c0,.7.4.9,1.1.9.4,0,.9-.1,1.6-.1h1.4c3.4,0,6.1.7,8.1,2s3.5,3.1,4.6,5.5l1.1,2.3,1.5,3.4h-45.9c-.9,0-1.6-.1-2-.4-.4-.2-.5-.7-.5-1.5v-12.3c0-.4-.1-.6-.2-.8-.2-.1-.4-.3-.7-.3-.9-.2-2.1-.3-3.5-.5-1.4-.1-2.8-.2-4.3-.2-4.5,0-7.9,1-10.3,2.9-2.4,2-3.6,5-3.6,9.1v.4c0,.7-.1,7.3-.2,8.2-.8.1-1.5.2-2.4.2-.8.1-1.7.1-2.7.1-2.4,0-4.4-.3-5.8-1-1.4-.7-2.6-1.6-3.3-2.8-.8-1.2-1.3-2.6-1.5-4.2-.2-1.6-.4-3.4-.4-5.2,0-.5,0-1.2.1-2s.1-1.6.2-2.4c.1-.7-.2-1-.9-1H2.5c-.6,0-1,.4-1.1,1.1-.1.6-.2,1.2-.3,1.9-.1.7-.2,1.3-.2,2-.1.7-.1,1.3-.1,1.8,0,.6-.1,1.1-.1,1.5,0,2.8.3,5.3,1,7.4s1.7,3.9,3.1,5.3c1.4,1.4,3.2,2.5,5.4,3.3,2.2.7,4.9,1.1,8,1.1,2,0,3.9-.1,5.8-.2,1.9-.1,3.6-.3,5.1-.6.8-.1,1.2-.5,1.2-1.2.1-1.3.2-13.1.2-13.1,0-2.4.5-4,1.6-5,1-.9,2.6-1.4,4.7-1.4.5,0,.9,0,1.3.1,0,.1.5.2,1,.2"/>
    <path class="cls-2" d="M12.5,190.7c.3,0,.6-.1.8-.3.3-.2.4-.5.4-.8v-3.9c0-.4-.1-.6-.4-.8-.3-.2-.5-.3-.9-.3h-3.6c-.3,0-.6.1-.9.3-.3.2-.4.5-.4.8v3.9c0,.3.1.5.4.8.3.2.5.3.9.3h3.7Z"/>
    <path class="cls-2" d="M22.6,190.7c.3,0,.6-.1.8-.3.3-.2.4-.5.4-.8v-3.9c0-.4-.1-.6-.4-.8-.3-.2-.5-.3-.8-.3h-3.7c-.3,0-.6.1-.8.3-.3.2-.4.5-.4.8v3.9c0,.3.1.5.4.8.3.2.5.3.8.3h3.7Z"/>
    <path class="cls-2" d="M106.3,180.7c-.3,0-.6.1-.9.4-.3.2-.4.5-.4.9v4.3c0,.3.1.6.4.8.3.2.5.4.9.4h4.2c.4,0,.7-.1.9-.4.3-.2.4-.5.4-.8v-4.3c0-.4-.1-.7-.4-.9-.3-.2-.6-.4-.9-.4h-4.2Z"/>
    <path class="cls-2" d="M122.5,182.8c-.7.1-1.6.1-2.6.1h-1.1c-.6,0-.9.3-.9.8v4c0,.6.3.9.8,1s1.1.1,1.8.1h1.6c2.3,0,4.1-.3,5.6-.9,1.4-.6,2.6-1.7,3.4-3.3.4-.8.7-1.7.8-2.7.2-1.1.2-2.2.2-3.4v-2.6h9.4c.9,0,1.7-.1,2.6-.1.8-.1,1.6-.1,2.3-.2.7-.1,1.3-.2,1.7-.3.4-.2.7-.4.9-.7.2-.3.3-.6.4-.9.1-1,.2-2.1.2-3.2s.1-2.3.1-3.2v-31.4c0-.3-.1-.6-.3-.8s-.4-.3-.7-.3h-4.9c-.3,0-.5.1-.8.3-.2.2-.3.5-.3.8v31.4c0,.9-.1,1.4-.4,1.5-.3.2-.8.2-1.7.2h-8.1v-15.4c0-.3-.1-.5-.3-.7-.2-.2-.4-.3-.7-.3h-4.9c-.3,0-.6.1-.8.3s-.3.4-.3.7v24.4c0,1.1-.1,2-.3,2.6-.2.6-.5,1.1-.9,1.4-.5.5-1.1.7-1.8.8"/>
    <path class="cls-2" d="M158,174.9c0,.3.1.6.3.8.2.2.5.4.8.4h4.9c.3,0,.6-.1.8-.4.2-.2.3-.5.3-.8v-39.1c0-.3-.1-.5-.3-.8-.2-.2-.5-.3-.8-.3h-4.9c-.3,0-.6.1-.8.3s-.3.5-.3.8v39.1Z"/>
    <path class="cls-2" d="M220.8,187.1c.2-.2.4-.5.4-.8v-4.3c0-.4-.1-.7-.4-.9-.2-.2-.5-.4-.9-.4h-3.8c-.3,0-.6.1-.9.4-.3.2-.4.5-.4.9v4.3c0,.3.1.6.4.8s.6.4.9.4h3.8c.3,0,.6-.1.9-.4"/>
    <path class="cls-2" d="M206,180.7c-.4,0-.7.1-.9.4-.3.2-.4.5-.4.9v4.3c0,.3.1.6.4.8s.6.4.9.4h3.7c.3,0,.6-.1.9-.4.3-.2.4-.5.4-.8v-4.3c0-.4-.1-.7-.4-.9s-.6-.4-.9-.4h-3.7Z"/>
    <path class="cls-2" d="M259,137.3c-.4,0-.7.1-.9.4-.3.2-.4.5-.4.9v4.2c0,.3.1.6.4.8.2.2.6.4.9.4h4.2c.4,0,.7-.1.9-.4.2-.2.4-.5.4-.8v-4.2c0-.4-.1-.7-.4-.9-.2-.2-.5-.4-.8-.4h-4.3Z"/>
    <path class="cls-2" d="M251,169.1h-31.3c-.3,0-.7-.1-1.1-.1-.4-.1-.7-.2-1-.3s-.5-.3-.6-.5v-14.4c0-.3-.1-.5-.3-.7-.2-.2-.4-.3-.7-.3h-4.7c-.3,0-.6.1-.8.3s-.3.4-.3.7v13.5c0,.4-.1.8-.3,1-.2.2-.5.4-.8.5s-.6.2-1,.2-.7.1-1,.1h-14.5v-15.4c0-.3-.1-.5-.3-.7-.2-.2-.4-.3-.7-.3h-4.7c-.3,0-.6.1-.8.3s-.3.4-.3.7v24.4c0,1.1-.1,2-.3,2.6-.2.6-.5,1.1-.9,1.4-.4.3-1,.5-1.7.6s-1.6.1-2.6.1h-1.1c-.6,0-.9.3-.9.8v4c0,.6.3.9.8,1s1.1.1,1.8.1h1.6c2.3,0,4.1-.3,5.6-1,1.4-.6,2.6-1.7,3.4-3.3.4-.8.7-1.7.8-2.7.2-1.1.2-2.2.2-3.4v-2.6h13.7c.6,0,1.2,0,1.9-.1.7-.1,1.3-.2,2-.3s1.3-.3,1.9-.6c.6-.2,1.2-.5,1.7-.9.9.8,2.1,1.3,3.5,1.5s2.8.4,4.2.4h49c.3,0,.5-.1.8-.2.2-.2.3-.4.3-.7v-5c0-.3-.1-.5-.3-.7-.2-.2-.5-.3-.8-.3h-11.3c-.8-.3-1.6-1.1-2.2-2.3-.7-1.2-1-2.6-1-4.1v-.6c0-2.3.7-3.9,2-4.9,1.4-1,3.3-1.4,5.8-1.4h1.5c.5,0,.9,0,1.3.1.4,0,.8,0,1.3.1.5,0,1,.1,1.5.1.8.1,1.1-.3,1.1-1v-4c0-.4-.1-.6-.3-.7-.2-.1-.5-.2-.9-.3-1.2-.2-2.3-.4-3.2-.5-1-.1-2.1-.1-3.4-.1-1.8,0-3.6.2-5.2.7-1.6.4-3.1,1.1-4.3,2.1-1.2.9-2.2,2.1-3,3.6-.7,1.5-1.1,3.2-1.1,5.3v.6c0,1.6.2,3,.6,4.3.3,1.6.8,2.6,1.4,3.3"/>
    <path class="cls-2" d="M291,161.1v.9c0,1.6.2,3,.6,4.3.4,1.2.9,2.3,1.5,3.1h-2.6c-.5,0-1,0-1.4.1h-.7c-.8,0-1.2.4-1.3,1.1-.1.7-.2,1.7-.2,2.8-.1,1.2-.1,2.2-.1,3.2,0,4.6,1.1,8,3.3,10.2,2.2,2.2,6.7,3.3,11.4,3.3h.5c.2,0,.5,0,.8-.1.7-.1,0-.5,0-1.2v-4c0-.7-.4-1-1.1-1h-.7c-2.5,0-4.3-.5-5.4-1.6-1.2-1.1-1.8-2.6-1.8-4.7v-1.6h18.9c.3,0,.6-.1.8-.3.2-.2.3-.4.3-.7v-4.9c0-.3-.1-.5-.3-.7-.2-.2-.5-.3-.8-.3h-11.3c-.4-.1-.9-.4-1.3-.8-.4-.4-.8-.9-1.1-1.4-.3-.6-.6-1.2-.8-1.9-.2-.7-.3-1.5-.3-2.3v-.5c0-2.3.7-3.9,2.1-4.9,1.4-.9,3.3-1.4,5.9-1.4,1.1,0,2.1,0,3,.1.8.1,1.8.1,3,.2.8.1,1.2-.3,1.2-1v-4c0-.4-.1-.6-.4-.7-.2-.1-.6-.2-.9-.3-1.2-.2-2.3-.4-3.3-.5s-2.2-.1-3.4-.1c-1.9,0-3.7.2-5.3.7-1.7.4-3.2,1.1-4.5,2s-2.3,2.1-3,3.6c-.9,1.4-1.3,3.2-1.3,5.3"/>
    <path class="cls-2" d="M409.6,144c.3,0,.6-.1.9-.4.3-.2.4-.5.4-.8v-4.2c0-.4-.1-.7-.4-.9-.3-.2-.6-.4-.9-.4h-3.7c-.4,0-.7.1-.9.4-.3.2-.4.5-.4.9v4.2c0,.3.1.6.4.8.3.2.6.4.9.4h3.7Z"/>
    <path class="cls-2" d="M419.7,144c.4,0,.7-.1.9-.4.2-.2.4-.5.4-.8v-4.2c0-.4-.1-.7-.4-.9-.2-.2-.5-.4-.9-.4h-3.8c-.3,0-.6.1-.9.4-.3.2-.4.5-.4.9v4.2c0,.3.1.6.4.8.3.2.6.4.9.4h3.8Z"/>
    <path class="cls-2" d="M440.2,134.7h-4.9c-.3,0-.5.1-.8.3-.2.2-.3.5-.3.8v31.4c0,.9-.1,1.4-.4,1.5-.3.2-.8.2-1.7.2h-8v-17.9c0-.3-.1-.5-.2-.7-.1-.2-.4-.3-.8-.4-.5-.1-1.1-.2-1.7-.3-.7-.1-1.4-.2-2.2-.3-.8-.1-1.6-.2-2.4-.2s-1.6-.1-2.4-.1c-2.1,0-4,.3-5.7.8s-3.2,1.3-4.4,2.3-2.2,2.3-2.8,3.8c-.7,1.5-1,3.3-1,5.3v1c0,1.6.2,2.9.6,4,.4,1.1.9,2,1.6,2.6h-10c.1-.2.1-.4.2-.8.1-.3.1-.7.1-1.1s0-.7.1-1.1v-2.1c0-2.7-.4-4.9-1.1-6.8-.7-1.9-1.7-3.4-3.1-4.5-1.3-1.1-2.9-2-4.8-2.5-1.9-.5-4-.8-6.3-.8-.6,0-1.4,0-2.4.1s-2,.2-3.1.4c-1.1.2-2.2.5-3.3.9-1.1.4-2.2.9-3.1,1.6v-16.2c0-.3-.1-.6-.3-.8s-.5-.3-.8-.3h-4.9c-.3,0-.5.1-.8.3-.2.2-.3.5-.3.8v33.2h-27.5c-1,0-1.8-.2-2.3-.5s-.8-1.1-.8-2.3v-30.5c0-.3-.1-.5-.3-.8-.2-.2-.5-.3-.8-.3h-4.8c-.3,0-.6.1-.8.3s-.3.5-.3.8v32.6c0,1.6.2,2.9.6,3.9s.9,1.8,1.6,2.3c.7.6,1.6.9,2.6,1.1,1,.2,2.1.3,3.3.3h104.1c.9,0,1.7-.1,2.6-.1.8-.1,1.6-.1,2.3-.2.7-.1,1.3-.2,1.7-.3.4-.2.7-.4.9-.7s.3-.6.4-.9c.1-1,.2-2.1.2-3.2,0-1.2.1-2.3.1-3.2v-31.5c0-.3-.1-.6-.3-.8-.6-.3-.8-.4-1.1-.4M386,165.7c0,1.4-.1,2.4-.3,2.9s-.5.7-1,.7h-16.4c-1,0-1.9,0-2.7-.1v-10.7c.7-.5,1.5-.9,2.4-1.2.9-.3,1.8-.5,2.8-.7s1.9-.3,2.7-.3c.9-.1,1.6-.1,2.2-.1,1.8,0,3.3.1,4.6.4s2.3.8,3.2,1.5c.8.7,1.4,1.6,1.8,2.7.4,1.1.6,2.5.6,4.2v.7h.1ZM417.2,169.3h-4.1c-2.1,0-3.6-.6-4.5-1.7-.9-1.1-1.4-2.7-1.4-4.9v-1c0-4.2,2.2-6.3,6.5-6.3,1.3,0,2.4.1,3.5.2v13.7Z"/>
    <path class="cls-2" d="M450.6,176h4.9c.3,0,.6-.1.8-.4.2-.2.3-.5.3-.8v-39.1c0-.3-.1-.5-.3-.8-.2-.2-.5-.3-.8-.3h-4.9c-.3,0-.6.1-.8.3-.2.2-.3.5-.3.8v39.2c0,.3.1.6.3.8s.5.3.8.3"/>
    <path class="cls-2" d="M29.8,204.6h-4.7c-.7,0-1,.3-1,1v28.5c0,.3-.1.5-.3.5s-.3-.1-.4-.4l-12.6-27.9c-.3-.7-.7-1.2-1-1.4s-.8-.3-1.4-.3H2.5c-.6,0-1.1.2-1.5.6-.4.4-.6.9-.6,1.5v37.2c0,.3.1.5.3.8.2.2.5.3.8.3h4.6c.3,0,.5-.1.7-.3s.3-.5.3-.8v-27.3c0-.3.1-.4.3-.4s.3.1.5.4l12,26.4c.4,1,.9,1.5,1.5,1.7s1.2.2,1.8.2h5.5c.6,0,1.1-.2,1.5-.6.4-.4.6-.9.6-1.5v-37.1c0-.7-.3-1.1-1-1.1"/>
    <path class="cls-2" d="M54.6,244.6c.2.2.5.3.8.3h4.6c.3,0,.5-.1.8-.3.2-.2.3-.5.3-.8v-19.5c0-3.5-1-6.1-3.1-7.8-2-1.7-5-2.6-8.9-2.6-1.9,0-3.6.1-5.1.3s-2.8.4-3.9.6c-.7.1-1,.5-1,1.1v3.4c0,.4.1.6.3.8.2.1.4.2.7.2h.3c.9-.1,2.2-.2,3.8-.3s3.3-.1,5-.1c1.6,0,2.8.3,3.6.9.8.6,1.2,1.8,1.2,3.6v2.4h-3.4c-2.4,0-4.4.2-6.1.6-1.7.4-3.1,1-4.1,1.8-1.1.8-1.8,1.8-2.3,2.9-.5,1.2-.7,2.5-.7,4.1v.2c0,1.8.3,3.3.8,4.5.6,1.2,1.3,2.1,2.2,2.8s1.9,1.2,3,1.4c1.1.3,2.2.4,3.4.4,1.3,0,2.6-.2,3.9-.6,1.3-.4,2.5-1,3.8-1.8v.9c-.2.2-.1.4.1.6M53.9,238.2c-.8.4-1.7.8-2.6,1.1-1,.3-1.9.4-2.9.4-1.4,0-2.4-.2-3-.7s-.9-1.3-.9-2.7v-.2c0-.8.1-1.4.2-2,.2-.6.5-1.1.9-1.4.5-.4,1.1-.7,1.9-.9.8-.2,1.8-.3,3-.3h3.4v6.7h0Z"/>
    <path class="cls-2" d="M70.4,236.8c0,1.8.2,3.3.5,4.4.3,1.1.8,2,1.5,2.6s1.6,1,2.7,1.2c1.1.2,2.4.3,3.9.3.6,0,1.2,0,1.8-.1s1.2-.2,1.9-.3,1-.4,1-1v-3.4c0-.5-.4-.8-1.2-.8h-2.9c-.5,0-.9,0-1.2-.1s-.5-.2-.6-.4-.2-.5-.3-.9c0-.4-.1-.9-.1-1.6v-17h4.9c.3,0,.5-.1.8-.3.2-.2.3-.5.3-.8v-3.2c0-.3-.1-.5-.3-.8-.2-.2-.5-.3-.8-.3h-4.9v-5.6c0-.5-.3-.8-.9-.8h-.2l-5,.9c-.3.1-.5.2-.8.4-.2.2-.3.4-.3.7v4.5h-5.1c-.3,0-.5.1-.8.3-.2.2-.3.5-.3.8v2.4c0,.3.1.5.3.7s.5.3.8.4l5.1.8v17h.2Z"/>
    <path class="cls-2" d="M94.8,214.3h-5c-.3,0-.5.1-.8.3-.2.2-.3.5-.3.8v28.4c0,.3.1.6.3.8s.5.4.8.4h5c.3,0,.5-.1.8-.4.2-.2.3-.5.3-.8v-28.4c0-.3-.1-.5-.3-.8-.2-.1-.5-.3-.8-.3"/>
    <path class="cls-2" d="M95,203.3h-5.3c-.3,0-.6.1-.8.3s-.4.5-.4.8v4.8c0,.3.1.5.4.8.2.2.5.3.8.3h5.3c.3,0,.5-.1.8-.3.2-.2.3-.5.3-.8v-4.8c0-.3-.1-.5-.3-.8-.3-.2-.5-.3-.8-.3"/>
    <path class="cls-2" d="M105.5,241.5c1.1,1.2,2.4,2.1,4,2.8s3.5,1,5.6,1,4-.3,5.6-1,3-1.6,4-2.8c1.1-1.2,1.9-2.6,2.5-4.3.6-1.6.8-3.4.8-5.4v-4.4c0-2-.3-3.8-.8-5.4-.6-1.6-1.4-3.1-2.5-4.3s-2.4-2.1-4-2.8-3.5-1-5.6-1-4,.3-5.6,1-3,1.6-4,2.8c-1.1,1.2-1.9,2.6-2.5,4.3-.6,1.6-.8,3.4-.8,5.4v4.4c0,2,.3,3.8.8,5.4.6,1.7,1.4,3.1,2.5,4.3M109.4,227.5c0-2.2.5-4,1.5-5.3s2.4-2,4.3-2,3.4.7,4.3,2c1,1.3,1.5,3.1,1.5,5.3v4.4c0,2.2-.5,4-1.5,5.3s-2.4,2-4.3,2-3.4-.7-4.3-2c-1-1.3-1.5-3.1-1.5-5.3v-4.4Z"/>
    <path class="cls-2" d="M150.1,220.3c.6.2,1.1.5,1.4,1s.5,1.1.6,1.8c.1.8.1,1.8.1,3v17.7c0,.3.1.6.3.8.2.2.5.4.8.4h5c.3,0,.5-.1.8-.4.2-.2.3-.5.3-.8v-17.7c0-1.7-.1-3.3-.4-4.8s-.7-2.8-1.4-3.9c-.7-1.1-1.6-1.9-2.8-2.6-1.2-.6-2.8-.9-4.8-.9-.9,0-1.7,0-2.4.1-.7.1-1.4.2-2.1.4s-1.4.5-2,.8c-.7.3-1.4.7-2.2,1.2v-1.1c0-.3-.1-.5-.3-.8-.2-.2-.5-.3-.8-.3h-4.7c-.3,0-.5.1-.8.3-.2.2-.3.5-.3.8v28.4c0,.3.1.6.3.8.2.2.5.4.8.4h5c.3,0,.5-.1.8-.4.2-.2.3-.5.3-.8v-21.8c1.2-.6,2.2-1.1,3.2-1.4,1-.3,2-.5,2.9-.5.9,0,1.8.1,2.4.3"/>
    <path class="cls-2" d="M182.3,243.9c0,.3.1.5.3.8.2.2.5.3.8.3h4.6c.3,0,.5-.1.8-.3.2-.2.3-.5.3-.8v-19.5c0-3.5-1-6.1-3.1-7.8-2-1.7-5-2.6-8.9-2.6-1.9,0-3.6.1-5.1.3s-2.8.4-3.9.6c-.7.1-1,.5-1,1.1v3.4c0,.4.1.6.3.8.2.1.4.2.7.2h.3c.9-.1,2.2-.2,3.8-.3,1.6-.1,3.3-.1,5-.1,1.6,0,2.8.3,3.6.9.8.6,1.2,1.8,1.2,3.6v2.4h-3.4c-2.4,0-4.4.2-6,.6-1.7.4-3.1,1-4.1,1.8s-1.8,1.8-2.3,2.9c-.5,1.2-.7,2.5-.7,4.1v.2c0,1.8.3,3.3.8,4.5.6,1.2,1.3,2.1,2.2,2.8.9.7,1.9,1.2,3,1.4,1.1.3,2.2.4,3.4.4,1.3,0,2.6-.2,3.9-.6,1.3-.4,2.5-1,3.8-1.8v.7h-.3ZM181.9,238.2c-.8.4-1.7.8-2.6,1.1-1,.3-1.9.4-2.9.4-1.4,0-2.4-.2-3-.7s-.9-1.3-.9-2.7v-.2c0-.8.1-1.4.2-2,.2-.6.5-1.1.9-1.4.5-.4,1.1-.7,1.9-.9s1.8-.3,3-.3h3.4v6.7Z"/>
    <path class="cls-2" d="M196.4,203.7c-.3,0-.5.1-.8.3-.2.2-.3.5-.3.8v39.1c0,.3.1.6.3.8.2.2.5.4.8.4h5c.3,0,.5-.1.7-.4.2-.2.3-.5.3-.8v-39.1c0-.3-.1-.5-.3-.8-.2-.2-.4-.3-.7-.3h-5Z"/>
    <path class="cls-2" d="M226.6,216c.4-1.3.9-2.3,1.6-3.1s1.5-1.3,2.5-1.7c1-.3,2-.5,3.2-.5.7,0,1.5,0,2.3.1.8,0,1.6.1,2.3.1.8,0,1.5.1,2.1.1.7.1,1.2.1,1.7.1h.1c.4,0,.7-.1.8-.3.2-.2.2-.5.2-.8v-3.6c0-.4-.1-.7-.3-.8-.2-.2-.5-.3-.9-.4-.2,0-.6-.1-1.1-.2-.5-.1-1.2-.2-1.9-.3-.8-.1-1.6-.2-2.5-.2-.9-.1-1.9-.1-3-.1-1.6,0-3.3.2-5.2.7-1.8.5-3.5,1.3-4.9,2.5-1.5,1.2-2.7,2.9-3.7,5.1-1,2.2-1.5,4.9-1.5,8.3v8c0,3.4.5,6.1,1.5,8.2,1,2.1,2.2,3.8,3.7,5.1,1.5,1.2,3.1,2.1,4.9,2.6s3.5.7,5.2.7c1,0,2,0,3-.1.9-.1,1.8-.2,2.5-.2.8-.1,1.4-.2,1.9-.3s.9-.2,1.1-.2c.4-.1.7-.2.9-.4.2-.2.3-.4.3-.8v-3.6c0-.3-.1-.6-.2-.8-.2-.2-.4-.3-.8-.3h-.1c-.5,0-1,.1-1.7.1-.7.1-1.4.1-2.1.1-.8,0-1.5.1-2.3.1s-1.6.1-2.3.1c-1.2,0-2.2-.2-3.2-.5s-1.8-.9-2.5-1.7-1.2-1.8-1.6-3.1-.6-2.9-.6-4.8v-8c0-2.3.2-3.9.6-5.2"/>
    <path class="cls-2" d="M266.5,245.2c.8-.1,1.5-.2,2.3-.3s1.6-.3,2.4-.4c.5-.1.8-.2.9-.4s.2-.5.2-1v-3.6c0-.3-.1-.5-.3-.6-.2-.1-.4-.2-.7-.2h-.2c-1.2.1-2.6.2-4.4.4-1.8.1-3.6.2-5.6.2-1.3,0-2.4-.2-3.2-.6-.8-.4-1.5-1-2-1.6-.5-.7-.8-1.4-1-2.2s-.3-1.6-.3-2.4v-.2h17.6c.7,0,1.1-.5,1.1-1.4v-3c0-2-.3-3.9-.8-5.6-.6-1.7-1.4-3.1-2.5-4.4-1.1-1.2-2.4-2.2-4-2.8-1.6-.7-3.5-1-5.5-1-2.1,0-3.9.3-5.5,1s-3,1.6-4.1,2.8-1.9,2.6-2.5,4.3-.9,3.6-.9,5.7v4c0,2.7.4,4.9,1.3,6.6.8,1.8,1.9,3.1,3.2,4.2,1.3,1,2.7,1.8,4.3,2.2,1.5.4,3,.6,4.4.6,1.2,0,2.3,0,3.2-.1,1-.1,1.8-.2,2.6-.2M254.8,226.8c0-2.2.5-3.8,1.6-5,1.1-1.1,2.5-1.7,4.2-1.7s3.1.6,4.1,1.7c1,1.2,1.6,2.8,1.6,4.9v.2h-11.5v-.1h0Z"/>
    <path class="cls-2" d="M304.4,244.6c.2-.2.3-.5.3-.8v-17.7c0-1.7-.1-3.3-.4-4.8s-.7-2.8-1.4-3.9c-.7-1.1-1.6-1.9-2.8-2.6-1.2-.6-2.8-.9-4.8-.9-.9,0-1.7,0-2.4.1-.7.1-1.4.2-2.1.4s-1.4.5-2,.8c-.7.3-1.4.7-2.2,1.3v-1.1c0-.3-.1-.5-.3-.8-.2-.2-.5-.3-.8-.3h-4.7c-.3,0-.5.1-.8.3-.2.2-.3.5-.3.8v28.4c0,.3.1.6.3.8.2.2.5.4.8.4h5c.3,0,.5-.1.8-.4.2-.2.3-.5.3-.8v-21.8c1.2-.6,2.2-1.1,3.2-1.4,1-.3,2-.5,2.9-.5,1.1,0,1.9.1,2.5.3s1.1.5,1.4,1,.5,1.1.6,1.8c.1.8.1,1.8.1,3v17.7c0,.3.1.6.3.8.2.2.5.4.8.4h5c.2-.2.5-.3.7-.5"/>
    <path class="cls-2" d="M308.6,214.7c-.2.2-.3.5-.3.8v2.4c0,.3.1.5.3.7.2.2.5.3.8.4l5.1.8v17c0,1.8.2,3.3.5,4.4.3,1.1.8,2,1.5,2.6s1.6,1,2.7,1.2,2.4.3,3.9.3c.6,0,1.2,0,1.8-.1s1.2-.2,1.9-.3c.7-.1,1-.4,1-1v-3.4c0-.5-.4-.8-1.2-.8h-2.9c-.5,0-.9,0-1.2-.1-.3-.1-.5-.2-.6-.4s-.2-.5-.3-.9c0-.4-.1-.9-.1-1.6v-17h4.9c.3,0,.5-.1.8-.3.2-.2.3-.5.3-.8v-3.2c0-.3-.1-.5-.3-.8-.2-.2-.5-.3-.8-.3h-4.8v-5.6c0-.5-.3-.8-.9-.8h-.2l-5,.9c-.3.1-.5.2-.8.4-.2.2-.3.4-.3.7v4.5h-5.1c-.3-.1-.5.1-.7.3"/>
    <path class="cls-2" d="M336.3,242.6c1.3,1,2.7,1.8,4.3,2.2,1.5.4,3,.6,4.4.6,1.2,0,2.3,0,3.2-.1.9,0,1.8-.1,2.6-.2.8-.1,1.5-.2,2.3-.3s1.6-.3,2.4-.4c.5-.1.8-.2.9-.4s.2-.5.2-1v-3.6c0-.3-.1-.5-.3-.6-.2-.1-.4-.2-.7-.2h-.2c-1.2.1-2.6.2-4.4.4-1.8.1-3.6.2-5.6.2-1.3,0-2.4-.2-3.2-.6-.8-.4-1.5-1-2-1.6-.5-.7-.8-1.4-1-2.2s-.3-1.6-.3-2.4v-.2h17.7c.7,0,1.1-.5,1.1-1.4v-3c0-2-.3-3.9-.8-5.6-.6-1.7-1.4-3.1-2.5-4.4-1.1-1.2-2.4-2.2-4-2.8-1.6-.7-3.5-1-5.5-1-2.1,0-3.9.3-5.5,1s-3,1.6-4.1,2.8-1.9,2.6-2.5,4.3-.9,3.6-.9,5.7v4c0,2.7.4,4.9,1.3,6.6.7,1.8,1.8,3.2,3.1,4.2M339,226.8c0-2.2.5-3.8,1.6-5,1.1-1.1,2.5-1.7,4.2-1.7s3.1.6,4.1,1.7c1,1.2,1.6,2.8,1.6,4.9v.2h-11.5v-.1h0Z"/>
    <path class="cls-2" d="M370.7,244.6c.2-.2.3-.5.3-.8v-21.8c1.2-.6,2.3-1.1,3.5-1.4,1.2-.3,2.5-.5,4-.5.3,0,.5-.1.8-.3.2-.2.3-.5.3-.8v-3.9c0-.3-.1-.5-.3-.8-.2-.2-.5-.3-.8-.3-1.1,0-2.3.2-3.7.5s-2.7,1-4.1,2.1v-1.1c0-.3-.1-.5-.3-.8-.2-.2-.5-.3-.8-.3h-4.7c-.3,0-.5.1-.8.3-.2.2-.3.5-.3.8v28.4c0,.3.1.6.3.8.2.2.5.4.8.4h5c.3-.2.5-.3.8-.5"/>
    <path class="cls-2" d="M198,81.5h4.2c.4,0,.7-.1.9-.4.2-.2.4-.5.4-.8v-4.2c0-.4-.1-.7-.4-.9-.2-.2-.5-.4-.8-.4h-4.3c-.4,0-.7.1-.9.4-.3.2-.4.5-.4.9v4.2c0,.3.1.6.4.8.2.3.5.4.9.4"/>
    <path class="cls-2" d="M266.6,110.9h4v1.6c0,1-.2,1.9-.5,2.6-.4.7-.9,1.2-1.7,1.5-.7.4-1.6.6-2.7.8-1.1.1-2.3.2-3.7.2h-4.9c-.7,0-1,.3-1,.9v4c0,.3.1.5.2.7s.3.3.7.4c.2.1.6.1,1.2.1s1.2,0,1.9.1c.7,0,1.3.1,2,.1h1.4c1.8,0,3.6-.2,5.2-.5s3.1-.9,4.3-1.7c1.2-.8,2.2-1.9,3-3.4.8-1.4,1.3-3.3,1.4-5.5v-1.9h7.7c.9,0,1.7-.1,2.6-.1.8-.1,1.6-.1,2.3-.2.7-.1,1.3-.2,1.7-.3.4-.2.7-.4.9-.7.2-.3.3-.6.4-.9.1-1,.2-2.1.2-3.2,0-1.2.1-2.3.1-3.2v-31.5c0-.3-.1-.6-.3-.8s-.4-.3-.7-.3h-4.9c-.3,0-.5.1-.8.3-.2.2-.3.5-.3.8v31.4c0,.9-.1,1.4-.4,1.5-.3.2-.8.2-1.7.2h-6.5v-17.5c0-.3-.1-.5-.2-.6s-.4-.3-.7-.4c-.4-.1-.9-.3-1.5-.4s-1.3-.2-2-.3c-.7-.1-1.5-.1-2.3-.2s-1.5-.1-2.2-.1c-4.7,0-8.3,1.2-10.8,3.5s-3.8,5.6-3.8,9.9v1.1c0,3.9,1.1,6.9,3.3,8.9,2,2.1,5.1,3.1,9.1,3.1M260.8,97.4c0-2.1.6-3.7,1.7-4.9,1.1-1.2,2.7-1.7,4.8-1.7,1.2,0,2.3.1,3.3.2v13.2h-4c-2,0-3.5-.5-4.4-1.5s-1.4-2.5-1.4-4.6v-.7Z"/>
    <path class="cls-2" d="M302.5,110.9h4.9c.3,0,.6-.1.8-.4.2-.2.3-.5.3-.8v-39.1c0-.3-.1-.5-.3-.8-.2-.2-.5-.3-.8-.3h-4.9c-.3,0-.6.1-.8.3s-.3.5-.3.8v39.1c0,.3.1.6.3.8.2.3.5.4.8.4"/>
    <path class="cls-2" d="M159.4,125.6h3.7c.3,0,.6-.1.8-.3.3-.2.4-.5.4-.8v-3.9c0-.4-.1-.6-.4-.8-.3-.2-.5-.3-.8-.3h-3.7c-.3,0-.6.1-.8.3-.3.2-.4.5-.4.8v3.9c0,.3.1.5.4.8.2.2.5.3.8.3"/>
    <path class="cls-2" d="M145,111.4c1.4,1.4,3.2,2.5,5.4,3.3,2.2.7,4.9,1.1,8,1.1,2,0,3.9-.1,5.8-.2s3.6-.3,5.1-.6c.8-.1,1.2-.5,1.2-1.2.1-1.3.2-13.1.2-13.1,0-2.4.5-4,1.6-5,1-.9,2.6-1.4,4.7-1.4.5,0,.9,0,1.3.1.4,0,.8.1,1.4.2v9.6c0,1.4.2,2.6.5,3.4.3.9.8,1.6,1.4,2.1s1.4.9,2.4,1c.9.2,2,.3,3.3.3h5.4c.6,0,1.2,0,1.9-.1.7-.1,1.3-.2,2-.3.7-.1,1.3-.3,1.9-.6.6-.2,1.2-.5,1.7-.9.9.8,2.1,1.3,3.5,1.5s2.3.4,3.6.4h28c1.3,0,2.6,0,3.9-.1,1.3,0,2.6-.1,3.7-.1,1.2,0,2-.1,2.5-.1.6-.1,1-.3,1.2-.6.3-.3.4-.6.5-1,.3-1.1.4-2.4.6-3.9.1-1.5.2-2.8.2-4v-2.3c0-2.7-.4-4.9-1.1-6.8s-1.7-3.4-3.1-4.5c-1.3-1.1-2.9-2-4.8-2.5s-4-.8-6.3-.8c-.6,0-1.4,0-2.4.1s-2,.2-3.1.4c-1.1.2-2.2.5-3.3.9-1.1.4-2.2.9-3.1,1.6v-16.6c0-.3-.1-.6-.3-.8s-.5-.3-.8-.3h-5c-.3,0-.5.1-.7.3-.2.2-.3.5-.3.8v33.2h-7.9c-.3,0-.7-.1-1.1-.1-.4-.1-.1-.2-.4-.3-.3-.1-.5-.3-.6-.5v-14.4c0-.3-.1-.5-.3-.7-.2-.2-.4-.3-.7-.3h-4.7c-.3,0-.6.1-.8.3s-.3.4-.3.7v13.5c0,.4-.1.8-.3,1-.2.2-.5.4-.8.5s-.6.2-1,.2-.7.1-1,.1h-4.6c-.9,0-1.6-.1-2-.4-.4-.2-.5-.8-.5-1.5v-12.3c0-.4-.1-.6-.2-.8-.2-.1-.4-.3-.7-.3-.9-.2-2.1-.3-3.5-.5-1.4-.1-2.8-.2-4.3-.2-4.5,0-7.9,1-10.3,2.9-2.4,2-3.6,5-3.6,9.1v.4c0,.7-.1,7.3-.2,8.2-.8.1-1.5.2-2.4.2-.8.1-1.7.1-2.7.1-2.4,0-4.4-.3-5.8-1s-2.6-1.6-3.3-2.8c-.8-1.2-1.3-2.6-1.5-4.2s-.4-3.4-.4-5.2c0-.5,0-1.2.1-2s.1-1.6.2-2.4c.1-.7-.2-1-.9-1h-4.2c-.6,0-1,.4-1.1,1.1-.1.6-.2,1.2-.3,1.9-.1.7-.2,1.3-.2,2-.1.7-.1,1.3-.1,1.8,0,.6-.1,1.1-.1,1.5,0,2.8.3,5.3,1,7.4.5,2.3,1.5,4.1,2.9,5.5M220.7,93.3c.7-.5,1.5-.9,2.4-1.2.9-.3,1.8-.5,2.8-.7s1.9-.3,2.7-.3c.9-.1,1.6-.1,2.2-.1,1.8,0,3.3.1,4.6.4,1.3.3,2.3.8,3.2,1.5.8.7,1.4,1.6,1.8,2.7s.6,2.5.6,4.2v.8c0,1.5-.1,2.5-.2,2.9-.2.5-.5.7-.9.7h-16.3c-1.1,0-2,0-2.8-.1v-10.8h-.1Z"/>
    <path class="cls-2" d="M149.4,119.5c-.3,0-.6.1-.9.3-.3.2-.4.5-.4.8v3.9c0,.3.1.5.4.8.3.2.5.3.9.3h3.6c.3,0,.6-.1.8-.3.3-.2.4-.5.4-.8v-3.9c0-.4-.1-.6-.4-.8-.3-.2-.5-.3-.9-.3h-3.5Z"/>
    <path class="cls-2" d="M409.4,203.7c-.2-.1-.4-.2-.7-.3-.5-.1-1-.2-1.5-.3s-1.1-.1-1.7-.1c-1.4,0-2.7.1-3.9.4-1.2.3-2.1.7-3,1.4-.8.7-1.4,1.5-1.9,2.7-.5,1.1-.7,2.6-.7,4.3v2.7h-4.8c-.3,0-.5.1-.8.3-.2.2-.3.5-.3.8v2.5c0,.3.1.5.3.7s.5.3.8.4l4.8.8v24.1c0,.3.1.6.4.8.2.2.5.4.8.4h4.9c.3,0,.5-.1.8-.4.2-.2.3-.5.3-.8v-24.1h5.2c.3,0,.5-.1.8-.3.2-.2.3-.4.3-.7v-3.3c0-.3-.1-.5-.3-.8-.2-.2-.5-.3-.8-.3h-5.2v-2.7c0-1.3.2-2.2.6-2.6s1.3-.6,2.6-.6h2.4c.2,0,.4-.1.5-.2.2-.1.3-.4.3-.7v-3.2c.1-.5,0-.7-.2-.9"/>
    <path class="cls-2" d="M434.7,217.8c-1.1-1.2-2.4-2.1-4-2.8s-3.5-1-5.6-1-4,.3-5.6,1-3,1.6-4,2.8c-1.1,1.2-1.9,2.6-2.5,4.3-.6,1.6-.8,3.4-.8,5.4v4.4c0,2,.3,3.8.8,5.4.6,1.6,1.4,3.1,2.5,4.3s2.4,2.1,4,2.8,3.5,1,5.6,1,4-.3,5.6-1,3-1.6,4-2.8c1.1-1.2,1.9-2.6,2.5-4.3.6-1.6.8-3.4.8-5.4v-4.4c0-2-.3-3.8-.8-5.4-.6-1.7-1.4-3.1-2.5-4.3M430.8,231.9c0,2.2-.5,4-1.5,5.3s-2.4,2-4.3,2-3.4-.7-4.3-2c-1-1.3-1.5-3.1-1.5-5.3v-4.4c0-2.2.5-4,1.5-5.3s2.4-2,4.3-2,3.4.7,4.3,2c1,1.3,1.5,3.1,1.5,5.3v4.4Z"/>
    <path class="cls-2" d="M459.5,214.3c-.2-.2-.5-.3-.8-.3-1.1,0-2.3.2-3.7.5s-2.7,1-4.1,2.1v-1.1c0-.3-.1-.5-.3-.8-.2-.2-.5-.3-.8-.3h-4.7c-.3,0-.5.1-.8.3-.2.2-.3.5-.3.8v28.4c0,.3.1.6.3.8s.5.4.8.4h5c.3,0,.5-.1.8-.4.2-.2.3-.5.3-.8v-21.8c1.2-.6,2.3-1.1,3.5-1.4,1.2-.3,2.5-.5,4-.5.3,0,.5-.1.8-.3.2-.2.3-.5.3-.8v-3.9c.1-.4,0-.7-.3-.9"/>
    <path class="cls-2" d="M29.5,268.1h-4.7c-.7,0-1,.3-1,1v28.5c0,.3-.1.5-.3.5s-.3-.1-.4-.4l-12.7-27.8c-.3-.7-.7-1.2-1-1.4s-.8-.3-1.4-.3H2.1c-.6,0-1.1.2-1.5.6-.4.4-.6.9-.6,1.5v37.1c0,.3.1.5.3.8.2.2.5.3.8.3h4.6c.3,0,.5-.1.7-.3s.3-.5.3-.8v-27.3c0-.3.1-.4.3-.4s.3.1.5.4l12,26.4c.4,1,.9,1.5,1.5,1.7s1.2.2,1.8.2h5.5c.6,0,1.1-.2,1.5-.6.4-.4.6-.9.6-1.5v-37.1c.1-.7-.2-1.1-.9-1.1"/>
    <path class="cls-2" d="M59.8,281.3c-1.1-1.2-2.4-2.1-4-2.8s-3.5-1-5.6-1-4,.3-5.6,1-3,1.6-4,2.8c-1.1,1.2-1.9,2.6-2.5,4.3-.6,1.6-.8,3.4-.8,5.4v4.4c0,2,.3,3.8.8,5.4.6,1.6,1.4,3.1,2.5,4.3s2.4,2.1,4,2.8,3.5,1,5.6,1,4-.3,5.6-1,3-1.6,4-2.8c1.1-1.2,1.9-2.6,2.5-4.3.6-1.6.8-3.4.8-5.4v-4.4c0-2-.3-3.8-.8-5.4-.6-1.7-1.4-3.1-2.5-4.3M56,295.4c0,2.2-.5,4-1.5,5.3s-2.4,2-4.3,2-3.4-.7-4.3-2c-1-1.3-1.5-3.1-1.5-5.3v-4.4c0-2.2.5-4,1.5-5.3s2.4-2,4.3-2,3.4.7,4.3,2c1,1.3,1.5,3.1,1.5,5.3v4.4Z"/>
    <path class="cls-2" d="M92.6,280.9c-.7-1.1-1.6-1.9-2.8-2.6-1.2-.6-2.8-.9-4.8-.9-.9,0-1.7,0-2.4.1s-1.4.2-2.1.4c-.7.2-1.4.5-2,.8-.7.3-1.4.7-2.2,1.2v-1c0-.3-.1-.5-.3-.8-.2-.2-.5-.3-.8-.3h-4.7c-.3,0-.5.1-.8.3-.2.2-.3.5-.3.8v28.4c0,.3.1.6.3.8s.5.4.8.4h5c.3,0,.5-.1.8-.4.2-.2.3-.5.3-.8v-21.8c1.2-.6,2.2-1.1,3.2-1.4,1-.3,2-.5,2.9-.5,1,0,1.9.1,2.5.3s1.1.5,1.4,1c.3.5.5,1.1.6,1.8.1.8.1,1.8.1,3v17.7c0,.3.1.6.3.8s.5.4.8.4h5c.3,0,.5-.1.8-.4.2-.2.3-.5.3-.8v-17.7c0-1.7-.1-3.3-.4-4.8-.4-1.6-.9-2.9-1.5-4"/>
    <path class="cls-2" d="M136.7,289h-33.2c-.3,0-.5.1-.8.3-.2.2-.3.4-.3.7v4c0,.3.1.5.3.7s.5.3.8.3h33.2c.7,0,1-.3,1-1v-4c0-.6-.3-1-1-1"/>
    <path class="cls-2" d="M171.3,270.3c-1.4-1-3.1-1.7-5-2.1-1.9-.4-3.9-.6-6-.6s-5.5.1-7.4.2c-1.9.1-3.5.3-4.9.5-.5.1-1,.2-1.3.5-.3.2-.5.6-.5,1.2v37.3c0,.3.1.5.3.8.2.2.5.3.8.3h5.4c.3,0,.5-.1.7-.3s.3-.5.3-.8v-14.2c.6,0,1.4.1,2.3.1.9.1,3.4.1,4.1.1,2.1,0,4.1-.2,6-.6,1.9-.4,3.5-1.1,5-2.1,1.4-1,2.6-2.3,3.4-3.9.9-1.6,1.3-3.6,1.3-6v-.5c0-2.4-.4-4.4-1.3-6-.6-1.6-1.8-2.9-3.2-3.9M168.4,280.7c0,2.2-.6,3.8-1.9,4.9-1.2,1.1-3.3,1.6-6.3,1.6h-2.6c-.5,0-.9,0-1.4-.1-.5,0-1,0-1.4-.1h-1v-13c.3,0,.6-.1,1-.1s.9,0,1.3-.1.9,0,1.4-.1h2.7c2.7,0,4.7.5,6.1,1.4,1.4,1,2,2.6,2,4.9v.7h.1Z"/>
    <path class="cls-2" d="M196,277.5c-1.1,0-2.3.2-3.7.5-1.4.3-2.7,1-4.1,2.1v-1.2c0-.3-.1-.5-.3-.8-.2-.2-.5-.3-.8-.3h-4.7c-.3,0-.5.1-.8.3-.2.2-.3.5-.3.8v28.4c0,.3.1.6.3.8.2.2.5.4.8.4h5c.3,0,.5-.1.8-.4.2-.2.3-.5.3-.8v-21.8c1.2-.6,2.3-1.1,3.5-1.4,1.2-.3,2.5-.5,4-.5.3,0,.5-.1.8-.3.2-.2.3-.5.3-.8v-3.9c0-.3-.1-.5-.3-.8-.2-.2-.5-.3-.8-.3"/>
    <path class="cls-2" d="M222,281.3c-1.1-1.2-2.4-2.1-4-2.8s-3.5-1-5.6-1-4,.3-5.6,1-3,1.6-4,2.8c-1.1,1.2-1.9,2.6-2.5,4.3-.6,1.6-.8,3.4-.8,5.4v4.4c0,2,.3,3.8.8,5.4.6,1.6,1.4,3.1,2.5,4.3s2.4,2.1,4,2.8,3.5,1,5.6,1,4-.3,5.6-1,3-1.6,4-2.8c1.1-1.2,1.9-2.6,2.5-4.3.6-1.6.8-3.4.8-5.4v-4.4c0-2-.3-3.8-.8-5.4-.6-1.7-1.4-3.1-2.5-4.3M218.2,295.4c0,2.2-.5,4-1.5,5.3s-2.4,2-4.3,2-3.4-.7-4.3-2c-1-1.3-1.5-3.1-1.5-5.3v-4.4c0-2.2.5-4,1.5-5.3s2.4-2,4.3-2,3.4.7,4.3,2c1,1.3,1.5,3.1,1.5,5.3v4.4Z"/>
    <path class="cls-2" d="M246.9,267.2c-.2-.1-.4-.2-.7-.3-.5-.1-1-.2-1.5-.3s-1.1-.1-1.7-.1c-1.4,0-2.7.1-3.9.4-1.2.3-2.1.7-3,1.4-.8.7-1.4,1.5-1.9,2.7-.5,1.1-.7,2.6-.7,4.3v2.7h-4.8c-.3,0-.5.1-.8.3-.2.2-.3.5-.3.8v2.5c0,.3.1.5.3.7.2.2.5.3.8.4l4.8.8v24.1c0,.3.1.6.4.8.2.2.5.4.8.4h4.9c.3,0,.5-.1.8-.4.2-.2.3-.5.3-.8v-24.1h5.2c.3,0,.5-.1.8-.3.2-.2.3-.4.3-.7v-3.6c0-.3-.1-.5-.3-.8-.2-.2-.5-.3-.8-.3h-5.2v-2.7c0-1.3.2-2.2.6-2.6.4-.4,1.3-.6,2.6-.6h2.4c.2,0,.4-.1.5-.2.2-.1.3-.4.3-.7v-3.2c.1-.3,0-.5-.2-.6"/>
    <path class="cls-2" d="M258,277.8h-5c-.3,0-.5.1-.8.3-.2.2-.3.5-.3.8v28.4c0,.3.1.6.3.8.2.2.5.4.8.4h5c.3,0,.5-.1.8-.4.2-.2.3-.5.3-.8v-28.4c0-.3-.1-.5-.3-.8-.2-.2-.5-.3-.8-.3"/>
    <path class="cls-2" d="M258.2,266.8h-5.3c-.3,0-.6.1-.8.3-.2.2-.4.5-.4.8v4.8c0,.3.1.5.4.8.2.2.5.3.8.3h5.3c.3,0,.5-.1.8-.3.2-.2.3-.5.3-.8v-4.8c0-.3-.1-.5-.3-.8-.3-.2-.5-.3-.8-.3"/>
    <path class="cls-2" d="M282.3,303.3h-2.9c-.5,0-.9,0-1.2-.1-.3-.1-.5-.2-.6-.4s-.2-.5-.3-.9c0-.4-.1-.9-.1-1.6v-17h4.9c.3,0,.5-.1.8-.3.2-.2.3-.5.3-.8v-3.3c0-.3-.1-.5-.3-.8-.2-.2-.5-.3-.8-.3h-4.9v-5.6c0-.5-.3-.8-.9-.8h-.2l-5,.9c-.3.1-.5.2-.8.4-.2.2-.3.4-.3.7v4.4h-5.1c-.3,0-.5.1-.8.3-.2.2-.3.5-.3.8v2.4c0,.3.1.5.3.7.2.2.5.3.8.4l5.1.8v17c0,1.8.2,3.3.5,4.4.3,1.1.8,2,1.5,2.6s1.6,1,2.7,1.2,2.4.3,3.9.3c.6,0,1.2,0,1.8-.1.6-.1,1.2-.2,1.9-.3.7-.1,1-.4,1-1v-3.4c.1-.3-.2-.6-1-.6"/>
    <path class="cls-2" d="M327.5,291.6c-.6-.9-1.3-1.8-2.3-2.6s-2.2-1.7-3.7-2.5l-7.6-3.6c-.9-.5-1.6-.9-2.2-1.3-.6-.4-1-.8-1.4-1.2-.3-.4-.6-.8-.7-1.1-.1-.4-.2-.8-.2-1.2,0-1.2.4-2.2,1.3-2.8.9-.7,2.3-1,4.4-1,1.8,0,4.6,0,6.4.1s3.6.2,5.4.4h.1c.3,0,.5-.1.7-.3s.2-.4.2-.7v-4c0-.3-.1-.5-.3-.7-.2-.2-.4-.3-.7-.4-.5-.1-1.1-.2-1.9-.3s-1.7-.2-2.7-.3-2-.2-3-.2c-1-.1-3.1-.1-4-.1-2.5,0-4.7.3-6.4.8-1.7.5-3.1,1.2-4.2,2.1-1.1.9-1.8,2-2.3,3.3s-.7,2.6-.7,4.1c0,.9.1,1.9.3,2.7.2.9.5,1.7,1,2.5s1.1,1.6,2,2.4c.8.8,1.9,1.5,3.1,2.3l8.2,4.3c.9.5,1.6,1,2.2,1.4s1,.8,1.4,1.2.6.8.8,1.2c.1.4.2.9.2,1.4,0,1.6-.4,2.8-1.3,3.6s-2.5,1.2-5,1.2c-.5,0-2.3,0-3.1-.1-.8,0-1.7-.1-2.7-.1-.9-.1-1.9-.1-2.7-.2-.9-.1-1.6-.1-2.1-.2h-.1c-.3,0-.5.1-.7.3s-.3.4-.3.7v3.9c0,.3.1.5.3.7.2.2.4.3.7.4,1.3.3,2.7.5,4.2.7s4.4.3,6.5.3c2.7,0,5-.3,6.8-1s3.3-1.5,4.4-2.6,1.9-2.3,2.4-3.6c.5-1.4.7-2.7.7-4.1,0-1.1-.1-2.1-.4-3.1-.1-.8-.5-1.8-1-2.7"/>
    <path class="cls-2" d="M356.7,281.3c-1.1-1.2-2.4-2.2-4-2.8-1.6-.7-3.5-1-5.6-1s-3.9.3-5.5,1-3,1.6-4.1,2.8-1.9,2.6-2.5,4.3-.9,3.6-.9,5.7v4c0,2.7.4,4.9,1.3,6.6.8,1.8,1.9,3.1,3.2,4.2,1.3,1,2.7,1.8,4.3,2.2,1.5.4,3,.6,4.4.6,1.2,0,2.3,0,3.2-.1.9,0,1.8-.1,2.6-.2.8-.1,1.5-.2,2.3-.3s1.6-.3,2.4-.4c.5-.1.8-.2.9-.4s.2-.5.2-1v-3.6c0-.3-.1-.5-.3-.6-.2-.1-.4-.2-.7-.2h-.2c-1.2.1-2.6.2-4.4.4-1.8.1-3.6.2-5.6.2-1.3,0-2.4-.2-3.2-.6-.9-.4-1.5-1-2-1.6-.5-.7-.8-1.4-1-2.2s-.3-1.6-.3-2.4v-.2h17.6c.7,0,1.1-.5,1.1-1.4v-3c0-2-.3-3.9-.8-5.6-.5-1.7-1.4-3.2-2.4-4.4M352.8,290.5h-11.5v-.2c0-2.2.5-3.8,1.6-5,1.1-1.1,2.5-1.7,4.2-1.7s3.1.6,4.1,1.7c1,1.2,1.6,2.8,1.6,4.9v.3h0Z"/>
    <path class="cls-2" d="M384.4,278.2c-.6-.2-1.5-.3-2.7-.5-1.2-.1-2.6-.2-4.3-.2-1.8,0-3.4.3-4.9.8s-2.8,1.4-3.9,2.5-2,2.5-2.6,4.1-1,3.6-1,5.8v5c0,2.2.3,4.1,1,5.8.6,1.6,1.5,3,2.6,4.1s2.4,1.9,3.9,2.5c1.5.5,3.1.8,4.9.8,1.7,0,3.1-.1,4.3-.2,1.2-.1,2.1-.3,2.7-.5.5-.1.8-.3.9-.5.1-.2.2-.5.2-.9v-3.5c0-.3-.1-.5-.3-.6s-.4-.2-.7-.2h-.2c-.5.1-1.1.1-1.5.2-.5.1-1,.1-1.5.1s-1.1,0-1.7.1h-2.3c-.7,0-1.3-.1-1.9-.3-.6-.2-1.2-.6-1.7-1.1s-.9-1.3-1.2-2.2-.5-2.1-.5-3.5v-5c0-1.4.2-2.6.5-3.5s.7-1.6,1.2-2.2c.5-.5,1-.9,1.7-1.1.6-.2,1.2-.3,1.9-.3h2.3c.7,0,1.2,0,1.7.1.5,0,1,.1,1.5.1.5.1,1,.1,1.5.2h.2c.3,0,.5-.1.7-.2.2-.1.3-.3.3-.6v-3.5c0-.4-.1-.7-.2-.9-.1-.5-.4-.6-.9-.7"/>
    <path class="cls-2" d="M407.5,303.3h-2.9c-.5,0-.9,0-1.2-.1s-.5-.2-.6-.4-.2-.5-.3-.9c0-.4-.1-.9-.1-1.6v-17h4.9c.3,0,.5-.1.8-.3.2-.2.3-.5.3-.8v-3.3c0-.3-.1-.5-.3-.8-.2-.2-.5-.3-.8-.3h-4.9v-5.6c0-.5-.3-.8-.9-.8h-.2l-5,.9c-.3.1-.5.2-.8.4-.2.2-.3.4-.3.7v4.4h-5.1c-.3,0-.5.1-.8.3-.2.2-.3.5-.3.8v2.4c0,.3.1.5.3.7s.5.3.8.4l5.1.8v17c0,1.8.2,3.3.5,4.4.3,1.1.8,2,1.5,2.6s1.6,1,2.7,1.2c1.1.2,2.4.3,3.9.3.6,0,1.2,0,1.8-.1s1.2-.2,1.9-.3,1-.4,1-1v-3.4c.1-.3-.3-.6-1-.6"/>
    <path class="cls-2" d="M434.7,281.3c-1.1-1.2-2.4-2.1-4-2.8s-3.5-1-5.6-1-4,.3-5.6,1-3,1.6-4,2.8c-1.1,1.2-1.9,2.6-2.5,4.3-.6,1.6-.8,3.4-.8,5.4v4.4c0,2,.3,3.8.8,5.4.6,1.6,1.4,3.1,2.5,4.3s2.4,2.1,4,2.8,3.5,1,5.6,1,4-.3,5.6-1,3-1.6,4-2.8c1.1-1.2,1.9-2.6,2.5-4.3.6-1.6.8-3.4.8-5.4v-4.4c0-2-.3-3.8-.8-5.4-.6-1.7-1.4-3.1-2.5-4.3M430.8,295.4c0,2.2-.5,4-1.5,5.3s-2.4,2-4.3,2-3.4-.7-4.3-2c-1-1.3-1.5-3.1-1.5-5.3v-4.4c0-2.2.5-4,1.5-5.3s2.4-2,4.3-2,3.4.7,4.3,2c1,1.3,1.5,3.1,1.5,5.3v4.4Z"/>
    <path class="cls-2" d="M458.8,277.5c-1.1,0-2.3.2-3.7.5s-2.7,1-4.1,2.1v-1.2c0-.3-.1-.5-.3-.8-.2-.2-.5-.3-.8-.3h-4.7c-.3,0-.5.1-.8.3-.2.2-.3.5-.3.8v28.4c0,.3.1.6.3.8s.5.4.8.4h5c.3,0,.5-.1.8-.4.2-.2.3-.5.3-.8v-21.8c1.2-.6,2.3-1.1,3.5-1.4,1.2-.3,2.5-.5,4-.5.3,0,.5-.1.8-.3.2-.2.3-.5.3-.8v-3.9c0-.3-.1-.5-.3-.8-.3-.2-.5-.3-.8-.3"/>
  </g>
</svg>