<?xml version="1.0" encoding="UTF-8"?>
<svg id="Layer_1" data-name="Layer 1" xmlns="http://www.w3.org/2000/svg" viewBox="0 0 175.39 85.25">
  <defs>
    <style>
      .cls-1 {
        fill: #883d34;
      }

      .cls-2 {
        fill: #ed7558;
      }
    </style>
  </defs>
  <path class="cls-1" d="M115.13,19.7c-.74,0-1.54.8-2.02,2.13.64.32,1.22.53,1.91.74.69-.21,1.38-.42,2.07-.74-.48-1.33-1.22-2.13-1.97-2.13Z"/>
  <path class="cls-1" d="M159.14,0h-41.05c-3.34,0-6.6,1.04-9.32,2.98l-18.63,13.27v52.76c0,8.97,7.27,16.24,16.24,16.24h41.03c3.35,0,6.62-1.05,9.35-3l18.62-13.31V16.24c0-8.97-7.27-16.24-16.24-16.24ZM109.55,24.22c.85-.21,1.75-.48,2.76-.8-.53-.64-.96-1.38-.96-2.18,0-2.34,1.59-5,3.77-5s3.77,2.6,3.77,4.94c0,2.98-2.34,4.52-9.57,6.22l.21-3.19ZM157.75,59.21l-.19.75c-2.35,6.95-5.63,9.01-12.29,9.01h-38.94v-9.1h38.94c4.88,0,8.07-.56,11.54-1.6l-5.54-7.88,4.13-6.85h1.13c2.63,6.29,3.38,9.38,1.22,15.67ZM120.13,43.96l1.59-.43c.37,1.49.48,2.66.48,3.67,0,3.56-1.81,4.84-3.56,4.84-1.33,0-2.55-.74-2.92-1.75-.48,1.06-1.65,1.86-2.92,1.86-1.7,0-3.45-1.44-3.45-5.53,0-.64.05-1.27.11-2.02h1.38c0,2.18,1.06,3.29,2.13,3.29s2.02-1.12,2.02-3.83h1.59c-.05,2.66,1.01,3.67,1.97,3.67.9,0,1.75-.9,1.75-2.5,0-.43-.05-.85-.16-1.27ZM126.16,50.54l6.43-5.77c1.92,2.29,3.92,4.22,6.58,6.21l-6.58,5.99c-2.44-1.85-4.44-4.07-6.43-6.43ZM157.75,31.92l-.19.75c-2.35,6.94-5.63,9.01-12.29,9.01h-38.94v-9.1h38.94c4.88,0,8.07-.56,11.54-1.6l-5.54-7.88,4.13-6.85h1.13c2.63,6.29,3.38,9.38,1.22,15.67Z"/>
  <path class="cls-1" d="M4.9,23.19l3.17-2.88c.91,1.07,1.85,2.06,2.97,2.88l3.67-3.34c-1.48-1.11-2.6-2.18-3.67-3.46l-3.21,2.88c-1.11-.91-2.06-1.81-2.93-2.88l-3.58,3.21c1.11,1.32,2.23,2.55,3.58,3.58"/>
  <path class="cls-1" d="M33.62,24.96l3.67-3.34c-1.48-1.11-2.6-2.18-3.67-3.46l-3.58,3.21c1.11,1.32,2.23,2.55,3.58,3.58"/>
  <path class="cls-1" d="M31.89,30.32c1.65,2.8,2.8,5.44,3.42,8.28-2.51.87-4.49,1.15-6.68,1.15h-6.1c-1.61,0-2.88-.17-4.62-1.15v-15l-4.9,2.76.08.99c-5.32,1.03-7.58,1.69-11.33,3.87l-1.77,5.93c2.93,3.42,7.54,5.32,12.28,5.69l1.77-4.99c.87,6.47,4.7,8.32,8.49,8.32h6.1c3.21,0,6.47-1.61,8.36-4.29l1.77-5.81c0-3.05-.91-6.18-2.64-9.06l-4.24,3.3ZM13.97,37.28c-3.21-.04-6.3-.78-9.02-2.68,2.43-.99,4.66-1.48,8.61-1.98l.41,4.53v.12Z"/>
  <path class="cls-1" d="M51.02,22.46c.92,0,1.76-.57,2.11-1.34.27.73,1.15,1.26,2.11,1.26,1.26,0,2.57-.92,2.57-3.49,0-.73-.08-1.57-.35-2.64l-1.15.31c.08.31.11.61.11.92,0,1.15-.61,1.8-1.26,1.8-.69,0-1.46-.73-1.42-2.64h-1.15c0,1.95-.69,2.76-1.46,2.76s-1.53-.8-1.53-2.37h-1c-.04.54-.08.99-.08,1.45,0,2.95,1.26,3.98,2.49,3.98"/>
  <path class="cls-1" d="M58.84,23.52l-3.58,3.21c1.11,1.32,2.23,2.55,3.58,3.58l3.67-3.34c-1.48-1.11-2.6-2.18-3.67-3.46"/>
  <path class="cls-1" d="M71.78,19.44c0-1.51-1.1-3.19-2.44-3.19-1.41,0-2.44,1.72-2.44,3.23,0,.52.27,1,.62,1.41-.65.21-1.24.38-1.78.51l-.14,2.06c4.67-1.1,6.18-2.09,6.18-4.02M69.27,20.34c-.45-.14-.82-.27-1.24-.48.31-.86.82-1.37,1.31-1.37s.96.51,1.27,1.37c-.45.21-.89.34-1.34.48"/>
  <path class="cls-1" d="M68.48,46.77l-3.58,3.21c1.11,1.32,2.23,2.55,3.58,3.58l3.67-3.34c-1.48-1.11-2.6-2.18-3.67-3.46"/>
  <path class="cls-1" d="M71.32,27.02l-4.24,3.3c1.65,2.8,2.8,5.44,3.42,8.28-2.51.87-4.49,1.15-6.67,1.15-2.56,0-3.75-.99-4.28-3.09.25-.78.49-1.65.74-2.6l-1.77-.7c-2.84,5.36-5.03,6.39-7.99,6.39-1.36,0-3.01-.12-5.15-1.03l.41-22.48-4.12,3.71v16.25l1.77,5.77c1.94,2.68,3.75,4.2,7.09,4.2h0c3.09,0,5.36-1.24,7.21-4.82.7,2.8,2.68,4.82,6.1,4.82h0c3.21,0,6.47-1.61,8.36-4.28l1.77-5.81c0-3.05-.91-6.18-2.64-9.06"/>
  <path class="cls-2" d="M0,68.92c.15-.24.26-.51.32-.82.06-.31.09-.6.09-.88v-8.25c0-.28-.03-.57-.09-.87-.06-.3-.17-.58-.32-.83.8,0,1.63,0,2.5-.03.87-.02,1.71-.03,2.5-.03.63,0,1.18.07,1.66.21.47.14.87.33,1.18.57.32.24.55.51.71.81.16.3.24.62.24.95,0,.35-.07.69-.21,1-.14.31-.33.58-.56.81-.23.23-.5.41-.81.54-.3.13-.62.2-.95.2v.13c.53,0,1,.09,1.41.27.41.18.75.41,1.02.69.27.28.48.61.63.98.15.37.22.74.22,1.12,0,.43-.09.85-.26,1.27-.17.42-.45.79-.82,1.13-.38.34-.86.6-1.45.81-.59.2-1.3.3-2.13.3-.78,0-1.6-.01-2.44-.03-.85-.02-1.66-.03-2.44-.03M3.77,62c.38,0,.7-.07.98-.2.27-.13.5-.31.67-.53.18-.22.31-.46.4-.72.09-.26.13-.52.13-.77,0-.23-.04-.46-.11-.68-.08-.22-.18-.42-.32-.58-.14-.17-.31-.3-.51-.4-.2-.1-.43-.15-.68-.15h-.55v4.04ZM3.77,68.21c.44,0,.83-.08,1.17-.25.34-.16.61-.38.83-.63.22-.26.39-.56.49-.89.11-.34.16-.68.16-1.03s-.06-.67-.17-1c-.11-.32-.28-.61-.51-.87-.23-.26-.51-.46-.83-.62-.33-.15-.71-.23-1.14-.23v5.52Z"/>
  <path class="cls-2" d="M21.59,63.1c0,.73-.12,1.45-.37,2.16-.25.71-.61,1.34-1.1,1.89-.49.55-1.09.99-1.82,1.33-.73.33-1.58.5-2.55.5s-1.82-.17-2.55-.5c-.73-.34-1.33-.78-1.82-1.33-.49-.55-.85-1.18-1.09-1.89-.24-.71-.36-1.43-.36-2.16s.12-1.45.36-2.16c.24-.71.6-1.34,1.09-1.9.49-.56,1.09-1,1.82-1.34.73-.33,1.58-.5,2.55-.5s1.82.17,2.55.5c.73.34,1.33.78,1.82,1.34.49.56.85,1.19,1.1,1.9.25.71.37,1.43.37,2.16M13.1,63.09c.05.64.15,1.28.31,1.89.16.61.37,1.16.63,1.64.26.48.57.87.93,1.16.36.29.76.44,1.2.44s.82-.15,1.13-.44c.31-.29.56-.68.74-1.16.18-.48.31-1.03.37-1.64.06-.61.07-1.24.02-1.89-.05-.65-.15-1.28-.31-1.89-.16-.61-.37-1.16-.63-1.64-.26-.48-.57-.87-.93-1.16-.36-.29-.76-.44-1.2-.44s-.82.15-1.13.44c-.31.29-.56.68-.74,1.16-.18.48-.31,1.03-.37,1.64-.06.61-.07,1.24-.02,1.89"/>
  <path class="cls-2" d="M22.33,68.09c.06-.31.09-.6.09-.88v-8.25c0-.28-.03-.57-.09-.87-.06-.3-.17-.58-.32-.83h3.18l4.32,6.73c0-.56-.04-1.17-.12-1.83-.08-.66-.19-1.32-.32-1.95s-.28-1.22-.45-1.74c-.16-.52-.33-.93-.49-1.2h3.37c-.15.25-.26.53-.32.83-.06.3-.09.59-.09.87v9.95h-1.67l-5.42-8.49c0,.85.04,1.71.11,2.59.08.88.18,1.71.31,2.48.13.78.28,1.47.44,2.08.16.61.33,1.06.51,1.35h-3.37c.15-.24.26-.52.32-.82"/>
  <path class="cls-2" d="M32.58,68.09c.06-.31.09-.6.09-.88v-8.25c0-.28-.03-.57-.09-.87-.06-.3-.17-.58-.32-.83h3.18l4.32,6.73c0-.56-.04-1.17-.12-1.83-.08-.66-.19-1.32-.32-1.95s-.28-1.22-.45-1.74c-.16-.52-.33-.93-.49-1.2h3.37c-.15.25-.26.53-.32.83-.06.3-.09.59-.09.87v9.95h-1.67l-5.42-8.49c0,.85.04,1.71.11,2.59.08.88.18,1.71.31,2.48.13.78.28,1.47.44,2.08.16.61.33,1.06.51,1.35h-3.37c.15-.24.26-.52.32-.82"/>
  <path class="cls-2" d="M41.98,68.92c.23-.24.4-.52.53-.83.13-.31.24-.6.34-.88l2.9-8.66-.44-1.29h3.37l3.34,9.95c.09.28.2.57.32.88.13.31.3.59.53.83h-4.08c.08-.24.09-.52.06-.83-.04-.31-.11-.6-.21-.88l-.32-1.02h-3.47l-.32,1.02c-.1.28-.17.57-.21.88-.04.31-.03.59.04.83h-2.39ZM48.07,65.37l-1.48-4.59-1.46,4.59h2.94Z"/>
  <path class="cls-2" d="M53.43,68.09c.06-.31.09-.6.09-.88v-8.25c0-.28-.03-.57-.09-.87-.06-.3-.17-.58-.32-.83h3.18l4.32,6.73c0-.56-.04-1.17-.12-1.83-.08-.66-.19-1.32-.32-1.95s-.28-1.22-.45-1.74c-.16-.52-.33-.93-.49-1.2h3.37c-.15.25-.26.53-.32.83-.06.3-.09.59-.09.87v9.95h-1.67l-5.42-8.49c0,.85.04,1.71.11,2.59.08.88.18,1.71.31,2.48.13.78.28,1.47.44,2.08.16.61.33,1.06.51,1.35h-3.37c.15-.24.26-.52.32-.82"/>
  <path class="cls-2" d="M63.69,68.09c.06-.31.09-.6.09-.88v-8.25c0-.28-.03-.57-.09-.87-.06-.3-.17-.58-.32-.83h4.18c-.15.25-.25.53-.32.83-.06.3-.09.59-.09.87v4.09h3.05v-4.09c0-.28-.03-.57-.1-.87-.07-.3-.18-.58-.33-.83h4.2c-.15.25-.26.53-.32.83-.06.3-.09.59-.09.87v8.25c0,.28.03.57.09.88.06.31.17.58.32.82h-4.2c.16-.24.27-.52.33-.82.07-.31.1-.6.1-.88v-3.34h-3.05v3.34c0,.28.03.57.09.88.06.31.17.58.32.82h-4.18c.15-.24.26-.52.32-.82"/>
</svg>