<?xml version="1.0" encoding="UTF-8"?>
<svg xmlns="http://www.w3.org/2000/svg" xmlns:xlink="http://www.w3.org/1999/xlink" viewBox="0 0 400 400">
  <defs>
    <style>
      .cls-1 {
        fill: url(#linear-gradient-2);
      }

      .cls-1, .cls-2 {
        mix-blend-mode: multiply;
      }

      .cls-3 {
        fill: #fff;
      }

      .cls-4 {
        isolation: isolate;
      }

      .cls-2 {
        fill: url(#linear-gradient-3);
      }

      .cls-5 {
        fill: url(#linear-gradient);
      }
    </style>
    <linearGradient id="linear-gradient" x1="398.38" y1="396.53" x2="4.21" y2="6.02" gradientUnits="userSpaceOnUse">
      <stop offset="0" stop-color="#7fffff"/>
      <stop offset=".5" stop-color="#42acfd"/>
      <stop offset="1" stop-color="#1249ff"/>
    </linearGradient>
    <linearGradient id="linear-gradient-2" x1="1286.06" y1="359.54" x2="-132.11" y2="13.83" gradientUnits="userSpaceOnUse">
      <stop offset=".49" stop-color="#e6e6e6"/>
      <stop offset="1" stop-color="#fff" stop-opacity="0"/>
    </linearGradient>
    <linearGradient id="linear-gradient-3" x1="338.96" y1="199.12" x2="-1079.2" y2="-146.59" gradientTransform="translate(-547.09 239.58) rotate(-180)" xlink:href="#linear-gradient-2"/>
  </defs>
  <g class="cls-4">
    <g id="Layer_1" data-name="Layer 1">
      <rect class="cls-5" width="400" height="400"/>
      <path class="cls-1" d="M0,189.58S227.16,164.56,400,0H0v189.58Z"/>
      <path class="cls-2" d="M400,210.42S172.84,235.44,0,400h400v-189.58Z"/>
      <g>
        <path class="cls-3" d="M248.6,192.17l43.88-26.7c8.27-5.04,10.89-15.81,5.89-24.08-5.04-8.27-15.81-10.89-24.08-5.89l-43.88,26.7c-8.27,5.04-10.89,15.81-5.89,24.08,5.04,8.27,15.81,10.89,24.08,5.89h0Z"/>
        <path class="cls-3" d="M181.77,144.38c.08,9.68,7.94,17.46,17.66,17.42,3.43,0,6.62-1.05,9.31-2.74,4.92-3.15,8.15-8.63,8.11-14.88l-.29-42.38c-.08-9.68-7.94-17.46-17.66-17.42-9.68.08-17.46,7.99-17.42,17.66l.29,42.38v-.04h0Z"/>
        <path class="cls-3" d="M294.37,231.45l-37.63-21.01c-8.47-4.72-19.12-1.69-23.84,6.77-4.72,8.47-1.69,19.12,6.77,23.84l37.63,21.01c5.49,3.06,11.94,2.86,17.06,0,2.78-1.53,5.16-3.83,6.82-6.77,4.72-8.47,1.69-19.12-6.77-23.84h-.04,0Z"/>
        <path class="cls-3" d="M216.3,190.31l-93.44-53.6c-8.39-4.84-19.12-1.93-23.91,6.45-4.84,8.39-1.93,19.12,6.45,23.91l58.76,34.08c-.49.24-.93.49-1.41.76l-56.38,34.28c-8.11,4.92-11.21,15.44-6.57,23.76,4.88,8.71,15.93,11.58,24.4,6.42l56.74-34.48c.32-.2.61-.41.88-.61l.2,67.39c.32,9.68,9.56,17.26,19.2,16.94,3.1-.12,6.01-1.01,8.51-2.54,5.25-3.18,7.91-9.03,7.7-15.56l-1.17-107.19h.05Z"/>
      </g>
    </g>
  </g>
</svg>