<?xml version="1.0" encoding="UTF-8"?>
<svg id="Layer_1" data-name="Layer 1" xmlns="http://www.w3.org/2000/svg" viewBox="0 0 235.78 82.38">
  <defs>
    <style>
      .cls-1 {
        fill: #e95d47;
      }

      .cls-2 {
        fill: #0b232f;
      }

      .cls-3 {
        fill: #e1a580;
      }
    </style>
  </defs>
  <rect class="cls-1" x="122.73" y="0" width="15.34" height="15.34"/>
  <rect class="cls-3" x="122.73" y="30.69" width="15.34" height="46.02"/>
  <g>
    <path class="cls-3" d="M107.39,15.35V0h-15.34v15.34h-7.67l-7.67,15.34h15.34v19.48c0,6.18-5.01,11.2-11.2,11.2h-4.14v15.34h4.08c14.69,0,26.61-11.91,26.61-26.61v-19.41h15.34v-15.34h-15.34Z"/>
    <polygon class="cls-3" points="61.37 30.69 46.03 30.69 53.7 15.35 61.37 30.69"/>
    <path class="cls-1" d="M30.68,61.37c-8.47,0-15.34-6.87-15.34-15.34s6.87-15.34,15.34-15.34h7.67l7.67-15.34h-15.34C13.74,15.35,0,29.09,0,46.03s13.74,30.68,30.68,30.68h30.69v-15.34h-30.69Z"/>
    <polygon class="cls-1" points="61.37 15.35 76.71 15.35 69.04 30.69 61.37 15.35"/>
    <path class="cls-2" d="M217.9,48.25h0c-.79,0-1.42.64-1.42,1.42v.05c0,.79.64,1.42,1.42,1.42h0c.79,0,1.42-.64,1.42-1.42v-.05c0-.79-.64-1.42-1.42-1.42"/>
    <path class="cls-2" d="M227.34,39.78c0,.92-.07,1.54-.21,1.86-.28.57-.89.85-1.84.85h-5.95v-8.8h-2.91v8.8h-46.82c.1-.55.15-1.09.15-1.61v-7.2h-2.93v6.86c0,1.69-.42,3.14-1.27,4.35-1.02,1.38-2.34,2.07-3.96,2.07s-2.97-.69-3.99-2.07c-.86-1.22-1.29-2.67-1.29-4.35v-6.86h-2.93v7.2c0,2.49.82,4.59,2.46,6.32,1.59,1.69,3.5,2.54,5.75,2.54,1.47,0,2.83-.4,4.09-1.19,1.21-.74,2.17-1.78,2.9-3.11h57.28c2.9,0,4.35-1.56,4.35-4.68v-13.54h-2.9v12.56Z"/>
    <rect class="cls-2" x="232.91" y="27.19" width="2.87" height="18.26"/>
    <path class="cls-2" d="M161.68,31.31c.79,0,1.42-.64,1.42-1.42v-.03c0-.79-.64-1.42-1.42-1.42s-1.42.64-1.42,1.42v.03c0,.79.64,1.42,1.42,1.42"/>
    <path class="cls-2" d="M201.84,30.68l.04.08h.09c.46,0,1.03-.1,1.7-.29.8-.23,1.42-.58,1.84-1.02.43-.46.65-.94.65-1.42,0-.4-.13-.76-.39-1.09-.27-.34-.65-.51-1.13-.51-.41,0-.71.12-.91.35-.3.3-.46.66-.46,1.06,0,.54.21,1,.63,1.39-.15.09-.42.22-.87.36-.48.17-.96.25-1.43.25h-.26l.13.22c.27.44.34.57.36.61M204.72,27.34c.14,0,.26.05.38.16.11.1.17.21.17.34,0,.34-.21.62-.64.86-.27-.2-.4-.48-.4-.86,0-.35.15-.5.5-.5"/>
    <path class="cls-2" d="M179.76,71.04c0,.92-.07,1.54-.21,1.86-.28.57-.89.85-1.84.85h-4.74v-8.8h-2.91v8.8h-8.75c-1.57,0-2.75-.28-3.55-.83-.98-.67-1.48-1.85-1.48-3.55v-4.43h-2.87v4.43c0,4.88,2.74,7.33,8.23,7.33h16.69c2.88,0,4.32-1.56,4.32-4.69v-7.07h-2.9v6.08Z"/>
    <path class="cls-2" d="M187,74.85c0,2.45-1.2,3.68-3.6,3.68v2.48c2.24,0,3.89-.52,4.93-1.57,1.04-1.04,1.57-2.72,1.57-5.03v-9.45h-2.9v9.89Z"/>
    <path class="cls-2" d="M165.2,79.48c-.79,0-1.42.64-1.42,1.42v.05c0,.79.64,1.42,1.42,1.42s1.42-.64,1.42-1.42v-.05c0-.79-.64-1.42-1.42-1.42"/>
    <path class="cls-2" d="M176.27,79.48c-.79,0-1.42.64-1.42,1.42v.05c0,.79.64,1.42,1.42,1.42s1.42-.64,1.42-1.42v-.05c0-.79-.64-1.42-1.42-1.42"/>
    <path class="cls-2" d="M179.68,79.48c-.79,0-1.42.64-1.42,1.42v.05c0,.79.64,1.42,1.42,1.42s1.42-.64,1.42-1.42v-.05c0-.79-.64-1.42-1.42-1.42"/>
    <path class="cls-2" d="M210.42,62.55c.79,0,1.42-.64,1.42-1.42v-.03c0-.79-.64-1.42-1.42-1.42s-1.42.64-1.42,1.42v.03c0,.79.64,1.42,1.42,1.42"/>
    <path class="cls-2" d="M213.86,62.55c.79,0,1.42-.64,1.42-1.42v-.03c0-.79-.64-1.42-1.42-1.42s-1.42.64-1.42,1.42v.03c0,.79.64,1.42,1.42,1.42"/>
    <path class="cls-2" d="M232.88,71.04c0,.92-.07,1.54-.21,1.86-.28.57-.89.85-1.84.85h-5.75v-15.27h-2.9v15.27h-6.9v-8.8h-2.91v8.8h-7.17c.49-.86.77-1.85.77-2.9,0-3.23-2.62-5.85-5.85-5.85h-6.62v2.9h6.65c1.61,0,2.92,1.31,2.92,2.93s-1.31,2.93-2.92,2.93h-6.65v2.95h37.93c2.9,0,4.35-1.56,4.35-4.69v-13.54h-2.9v12.56Z"/>
    <path class="cls-2" d="M234.15,7.48c-1.09-1.15-2.48-1.73-4.17-1.73s-3.13.56-4.22,1.67c-1.09,1.11-1.63,2.54-1.63,4.28,0,.16.02.39.05.7l.03.13h-7.64c-.59,0-.97-.02-1.14-.05-.35-.07-.69-.28-1.04-.65.93-.64,1.92-1.61,2.98-2.9,1-1.24,1.61-2.2,1.84-2.87-2.09-1.8-4.55-2.69-7.38-2.69-2.43,0-4.77.71-7.02,2.12v2.74c.98.24,2,.71,3.05,1.4,1.09.69,1.82,1.33,2.2,1.92-.6.4-1.23.66-1.86.8-.47.12-1.14.18-2.02.18h-5.88c0-3.3-.79-6.07-2.38-8.31-1.59-2.24-3.77-3.65-6.55-4.22l-.36,2.77c1.86.38,3.4,1.42,4.61,3.12,1.21,1.7,1.81,3.65,1.81,5.84,0,.35,0,.61-.03.8h-3.42c.45-1.09.67-1.98.67-2.69,0-1.54-.47-2.76-1.4-3.66-.93-.91-2.17-1.36-3.7-1.36s-2.77.45-3.71,1.36c-.94.9-1.41,2.13-1.41,3.66,0,.71.22,1.6.67,2.69h-20c.49-.86.77-1.84.77-2.9,0-3.23-2.62-5.85-5.85-5.85h-6.62v2.91h6.65c1.62,0,2.93,1.31,2.93,2.92s-1.31,2.93-2.93,2.93h-6.65v2.95h52.83c1.92,0,3.82-.62,5.72-1.86.45.5,1,.91,1.66,1.24.79.41,1.56.62,2.3.62h9.37c1.12,1.54,2.68,2.3,4.69,2.3,1.71,0,3.1-.56,4.18-1.7,1.08-1.13,1.62-2.56,1.62-4.28s-.54-3.17-1.63-4.32M191.28,11.8c-.45.54-1.02.8-1.71.8s-1.26-.26-1.71-.79c-.45-.53-.67-1.19-.67-1.98s.21-1.45.63-1.95c.42-.51,1.01-.76,1.75-.76s1.28.25,1.72.75c.44.5.66,1.16.66,1.97s-.23,1.43-.67,1.97M212.33,10.04c-1.29-1.5-2.76-2.54-4.4-3.11,1.33-.71,2.66-1.06,3.99-1.06s2.6.35,3.75,1.04c-.35.52-.83,1.09-1.45,1.71-.73.69-1.35,1.17-1.89,1.42M232.04,14.19c-.51.6-1.17.91-1.98.91-.86,0-1.57-.32-2.12-.97-.55-.65-.83-1.46-.83-2.44s.26-1.76.79-2.38c.53-.62,1.19-.93,2.01-.93s1.54.33,2.08.98c.54.66.82,1.48.82,2.46s-.26,1.78-.76,2.38"/>
  </g>
</svg>