<?xml version="1.0" encoding="UTF-8"?>
<svg id="Layer_1" data-name="Layer 1" xmlns="http://www.w3.org/2000/svg" viewBox="0 0 227.32 83.08">
  <defs>
    <style>
      .cls-1 {
        fill: #2ba54a;
      }

      .cls-2 {
        fill: #f5ad1b;
      }
    </style>
  </defs>
  <polygon class="cls-2" points="75.52 54.49 75.52 67.65 65.03 54.46 61.78 54.46 61.78 75.45 66.05 75.45 66.05 62.55 76.38 75.45 79.8 75.45 79.8 54.49 75.52 54.49"/>
  <path class="cls-2" d="M95.49,54.46h-3.29l-8.6,20.98h4.59l2.24-5.61h6.78l2.26,5.61h4.59l-8.57-20.98ZM95.94,66.11h-4.29l2.18-5.41,2.11,5.41Z"/>
  <polygon class="cls-2" points="13.23 54.46 13.23 71.24 0 71.24 0 75.45 17.44 75.45 17.44 54.46 13.23 54.46"/>
  <polygon class="cls-2" points="36.52 58.67 36.52 54.46 21.67 54.46 21.67 75.45 36.52 75.45 36.52 71.24 25.88 71.24 25.88 67.06 34.62 67.06 34.62 62.85 25.88 62.85 25.88 58.67 36.52 58.67"/>
  <g>
    <path class="cls-2" d="M57.66,60.76c0-3.47-2.83-6.3-6.3-6.3h-10.61v20.98h10.61c3.47,0,6.3-2.83,6.3-6.3,0-1.55-.57-3.04-1.61-4.19,1.04-1.16,1.61-2.64,1.61-4.19M51.36,62.85h-4.68v4.21h4.69c1.15,0,2.09.94,2.09,2.09s-.94,2.09-2.09,2.09h-6.4v-12.57h6.4c1.15,0,2.09.94,2.09,2.09s-.94,2.09-2.09,2.09"/>
    <polygon class="cls-2" points="111.93 71.24 111.93 54.46 107.72 54.46 107.72 75.45 125.16 75.45 125.16 71.24 111.93 71.24"/>
    <path class="cls-1" d="M47.94,19.15c1.96,0,3.55-1.59,3.55-3.55s-1.59-3.55-3.55-3.55-3.55,1.59-3.55,3.55,1.59,3.55,3.55,3.55"/>
    <path class="cls-1" d="M68.17,40.92c-1.19-.23-2.36.13-3.2.97-.85.85-1.2,2.01-.97,3.2.27,1.4,1.39,2.53,2.79,2.79.23.04.47.07.7.07.94,0,1.83-.37,2.5-1.04.85-.85,1.2-2.01.97-3.2-.27-1.4-1.39-2.52-2.79-2.79"/>
    <path class="cls-1" d="M97.6,40.92c-1.19-.23-2.36.13-3.2.97-.85.85-1.2,2.01-.97,3.2.27,1.4,1.39,2.53,2.79,2.79.23.04.47.07.7.07.94,0,1.83-.37,2.5-1.04.85-.85,1.2-2.01.97-3.2-.27-1.4-1.39-2.52-2.79-2.79"/>
    <polygon class="cls-1" points="76.06 32.31 76.06 17.51 69.42 17.51 69.42 32.31 60.35 32.31 60.35 17.51 53.72 17.51 53.72 32.31 40.95 32.31 40.95 7.89 34.31 7.89 34.31 38.94 108.77 38.94 108.77 32.31 76.06 32.31"/>
    <polygon class="cls-1" points="24.41 32.31 0 32.31 0 38.94 31.05 38.94 31.05 7.89 24.41 7.89 24.41 32.31"/>
    <path class="cls-1" d="M120.98,32.31c-3.54,0-6.81-2.06-8.33-5.25l-2.95-6.17c-2.79-5.84-8.78-9.61-15.25-9.61h-10.55v6.63h10.55c3.54,0,6.81,2.06,8.33,5.25l2.95,6.17c.37.76.81,1.52,1.31,2.26l.52.72c3.2,4.15,8.21,6.63,13.42,6.63h4.18v-6.64h-4.18Z"/>
    <path class="cls-1" d="M144.24,0v83.08h83.08V0h-83.08ZM219.01,74.13h-18.75c-6.58,0-12.77-2.91-16.97-7.98-3.08-3.72-7.62-5.86-12.46-5.86h-18.29v-5.86h18.29c6.58,0,12.77,2.91,16.97,7.98,3.08,3.72,7.62,5.85,12.46,5.85h18.75v5.86ZM219.01,60.29h-18.75c-6.58,0-12.77-2.91-16.97-7.98-3.08-3.72-7.62-5.86-12.46-5.86h-18.29v-5.86h18.29c6.58,0,12.77,2.91,16.97,7.98,3.08,3.72,7.62,5.85,12.46,5.85h18.75v5.86ZM219.01,32.63c-4.06,0-7.91-1.95-10.32-5.21l-4.28-5.81-6.01,5.17,6.44,8.86c2.26,3.11,5.89,4.96,9.73,4.96h4.44v5.86h-4.44c-5.71,0-11.12-2.76-14.47-7.38l-15.61-21.51-12.24,10.66c-3.26,2.83-7.43,4.39-11.74,4.39h-7.95v-5.86h7.95c2.9,0,5.7-1.05,7.89-2.95l17.07-14.86,9.48,13.06,10.43-8.98,8.03,10.9c1.31,1.77,3.4,2.83,5.6,2.83v5.86Z"/>
  </g>
</svg>