<?xml version="1.0" encoding="UTF-8"?>
<svg id="Layer_1" xmlns="http://www.w3.org/2000/svg" version="1.1" viewBox="0 0 195.25 100.41">
  <!-- Generator: Adobe Illustrator 29.8.3, SVG Export Plug-In . SVG Version: 2.1.1 Build 3)  -->
  <defs>
    <style>
      .st0 {
        stroke: #0071bc;
      }

      .st0, .st1 {
        fill: none;
        stroke-miterlimit: 10;
      }

      .st1 {
        stroke: #24c2ec;
      }
    </style>
  </defs>
  <g>
    <rect class="st1" x="66.28" y="38.83" width="23.45" height="23.45" transform="translate(58.59 -40.35) rotate(45)"/>
    <rect class="st1" x="5.56" y="38.83" width="23.45" height="23.45" transform="translate(40.81 2.58) rotate(45)"/>
    <rect class="st1" x="36.08" y="5.56" width="23.45" height="23.45" transform="translate(26.23 -28.74) rotate(45)"/>
    <rect class="st1" x="36.08" y="71.4" width="23.45" height="23.45" transform="translate(72.78 -9.46) rotate(45)"/>
    <rect class="st1" x="24.78" y="27.23" width="46.06" height="46.06"/>
    <g>
      <rect class="st0" x="54.74" y="17.36" width="23.45" height="23.45"/>
      <rect class="st0" x="54.74" y="59.71" width="23.45" height="23.45"/>
    </g>
    <g>
      <rect class="st0" x="17.4" y="17.36" width="23.45" height="23.45"/>
      <rect class="st0" x="17.4" y="59.71" width="23.45" height="23.45"/>
    </g>
  </g>
  <g>
    <rect class="st1" x="166.24" y="38.83" width="23.45" height="23.45" transform="translate(87.87 -111.03) rotate(45)"/>
    <rect class="st1" x="105.52" y="38.83" width="23.45" height="23.45" transform="translate(70.09 -68.1) rotate(45)"/>
    <rect class="st1" x="136.04" y="5.56" width="23.45" height="23.45" transform="translate(55.5 -99.42) rotate(45)"/>
    <rect class="st1" x="136.04" y="71.4" width="23.45" height="23.45" transform="translate(102.05 -80.14) rotate(45)"/>
    <rect class="st1" x="124.73" y="27.23" width="46.06" height="46.06"/>
    <g>
      <rect class="st0" x="154.7" y="17.36" width="23.45" height="23.45"/>
      <rect class="st0" x="154.7" y="59.71" width="23.45" height="23.45"/>
    </g>
    <g>
      <rect class="st0" x="117.36" y="17.36" width="23.45" height="23.45"/>
      <rect class="st0" x="117.36" y="59.71" width="23.45" height="23.45"/>
    </g>
  </g>
</svg>