<?xml version="1.0" encoding="UTF-8"?>
<svg id="Layer_1" data-name="Layer 1" xmlns="http://www.w3.org/2000/svg" viewBox="0 0 404.24 127.56">
  <defs>
    <style>
      .cls-1 {
        fill: #ea5c48;
      }

      .cls-2 {
        fill: #06232f;
      }

      .cls-3 {
        fill: #00953f;
      }

      .cls-4 {
        fill: #e88062;
      }

      .cls-5 {
        fill: #e2a681;
      }
    </style>
  </defs>
  <g>
    <path class="cls-2" d="M210.39,87.19c0,2.7-1.92,4.66-4.81,4.66-2.66,0-4.36-1.66-4.75-4.05l2.39-.48c.17,1.29.96,2.27,2.37,2.27s2.29-1.04,2.29-2.4v-6.56l2.52-1.44v8.01Z"/>
    <path class="cls-2" d="M222.16,91.57h-2.44v-.72c-.78.63-1.79,1-3.05,1-2.35,0-4.53-1.98-4.53-4.88s2.18-4.9,4.53-4.9c1.26,0,2.27.37,3.05,1.02v-.74h2.44v9.23ZM219.72,86.96c0-1.7-1.31-2.77-2.63-2.77-1.48,0-2.59,1.07-2.59,2.77s1.11,2.76,2.59,2.76c1.31,0,2.63-1.05,2.63-2.76Z"/>
    <path class="cls-2" d="M232.39,91.85h-8.19v-1.59l4.96-5.64h-4.83v-2h7.84v1.63l-4.96,5.6h5.18v2Z"/>
    <path class="cls-2" d="M243.43,91.57h-2.44v-.72c-.78.63-1.79,1-3.05,1-2.35,0-4.53-1.98-4.53-4.88s2.18-4.9,4.53-4.9c1.26,0,2.27.37,3.05,1.02v-.74h2.44v9.23ZM240.99,86.96c0-1.7-1.31-2.77-2.63-2.77-1.48,0-2.59,1.07-2.59,2.77s1.11,2.76,2.59,2.76c1.31,0,2.63-1.05,2.63-2.76Z"/>
    <path class="cls-2" d="M255.06,86.22v5.62h-2.44v-5.1c0-1.29-.74-2.16-1.87-2.16-1.39,0-2.29.92-2.29,3.18v4.09h-2.44v-9.23h2.44v.83c.72-.72,1.68-1.11,2.9-1.11,2.22,0,3.7,1.59,3.7,3.88Z"/>
    <path class="cls-2" d="M10.17,86.39l2.44.5c-.61,3.18-3.13,4.96-6.1,4.96-3.64,0-6.51-2.83-6.51-6.47s2.87-6.47,6.51-6.47c2.98,0,5.47,1.79,6.1,4.77l-2.44.68c-.46-2.15-1.94-3.09-3.66-3.09-2.22,0-3.98,1.76-3.98,4.11s1.76,4.12,3.98,4.12c1.72,0,3.2-.94,3.66-3.11Z"/>
    <path class="cls-2" d="M23.91,87c0,2.9-2.27,4.85-4.97,4.85s-5.03-1.94-5.03-4.85,2.27-4.85,5.03-4.85,4.97,1.94,4.97,4.85ZM21.55,87c0-1.72-1.33-2.76-2.61-2.76s-2.66,1.04-2.66,2.76,1.33,2.76,2.66,2.76,2.61-1.04,2.61-2.76Z"/>
    <path class="cls-2" d="M31.29,82.62v2h-2.79v7.23h-2.44v-7.23h-1.41v-2h1.41v-.83c0-2.16,1.48-3.5,3.64-3.5.59,0,1.13.11,1.65.35l-.55,1.98c-.33-.11-.67-.17-.92-.17-.8,0-1.37.46-1.37,1.33v.83h2.79Z"/>
    <path class="cls-2" d="M37.75,82.62v2h-2.79v7.23h-2.44v-7.23h-1.41v-2h1.41v-.83c0-2.16,1.48-3.5,3.64-3.5.59,0,1.13.11,1.65.35l-.55,1.98c-.33-.11-.67-.17-.92-.17-.8,0-1.37.46-1.37,1.33v.83h2.79Z"/>
    <path class="cls-2" d="M47.57,87.61h-7.03c.24,1.33,1.18,2.15,2.31,2.15.72,0,1.63-.09,2.29-1.22l2.18.46c-.81,1.92-2.46,2.85-4.48,2.85-2.61,0-4.73-1.98-4.73-4.88s2.13-4.9,4.77-4.9c2.46,0,4.59,1.91,4.68,4.72v.83ZM40.62,85.89h4.46c-.31-1.18-1.2-1.7-2.18-1.7-.92,0-1.98.56-2.27,1.7Z"/>
    <path class="cls-2" d="M58.13,87.61h-7.03c.24,1.33,1.18,2.15,2.31,2.15.72,0,1.63-.09,2.29-1.22l2.18.46c-.81,1.92-2.46,2.85-4.48,2.85-2.61,0-4.73-1.98-4.73-4.88s2.13-4.9,4.77-4.9c2.46,0,4.59,1.91,4.68,4.72v.83ZM51.18,85.89h4.46c-.31-1.18-1.2-1.7-2.18-1.7-.92,0-1.98.56-2.27,1.7Z"/>
    <path class="cls-2" d="M74.09,86.39l2.44.5c-.61,3.18-3.13,4.96-6.1,4.96-3.64,0-6.51-2.83-6.51-6.47s2.87-6.47,6.51-6.47c2.98,0,5.47,1.79,6.1,4.77l-2.44.68c-.46-2.15-1.94-3.09-3.66-3.09-2.22,0-3.98,1.76-3.98,4.11s1.76,4.12,3.98,4.12c1.72,0,3.2-.94,3.66-3.11Z"/>
    <path class="cls-2" d="M87.84,87c0,2.9-2.27,4.85-4.97,4.85s-5.03-1.94-5.03-4.85,2.27-4.85,5.03-4.85,4.97,1.94,4.97,4.85ZM85.47,87c0-1.72-1.33-2.76-2.61-2.76s-2.66,1.04-2.66,2.76,1.33,2.76,2.66,2.76,2.61-1.04,2.61-2.76Z"/>
    <path class="cls-2" d="M98.95,87c0,2.9-2.27,4.85-4.97,4.85s-5.03-1.94-5.03-4.85,2.27-4.85,5.03-4.85,4.97,1.94,4.97,4.85ZM96.59,87c0-1.72-1.33-2.76-2.61-2.76s-2.66,1.04-2.66,2.76,1.33,2.76,2.66,2.76,2.61-1.04,2.61-2.76Z"/>
    <path class="cls-2" d="M110.83,86.96c0,2.9-2.18,4.88-4.53,4.88-1.26,0-2.27-.37-3.05-1v3.86h-2.44v-12.37h2.44v.74c.78-.65,1.79-1.02,3.05-1.02,2.35,0,4.53,2,4.53,4.9ZM108.46,86.96c0-1.7-1.11-2.77-2.59-2.77-1.31,0-2.63,1.07-2.63,2.77s1.31,2.76,2.63,2.76c1.48,0,2.59-1.05,2.59-2.76Z"/>
    <path class="cls-2" d="M121.39,87.61h-7.03c.24,1.33,1.18,2.15,2.31,2.15.72,0,1.63-.09,2.29-1.22l2.18.46c-.81,1.92-2.46,2.85-4.48,2.85-2.61,0-4.73-1.98-4.73-4.88s2.13-4.9,4.77-4.9c2.46,0,4.59,1.91,4.68,4.72v.83ZM114.44,85.89h4.46c-.31-1.18-1.2-1.7-2.18-1.7-.92,0-1.98.56-2.27,1.7Z"/>
    <path class="cls-2" d="M129.64,82.56l-.13,2.35h-.54c-2.26,0-3.29,1.39-3.29,3.96v2.98h-2.44v-9.23h2.44v1.68c.74-1.07,1.81-1.81,3.31-1.81.24,0,.43,0,.65.07Z"/>
    <path class="cls-2" d="M140.37,91.57h-2.44v-.72c-.78.63-1.79,1-3.05,1-2.35,0-4.53-1.98-4.53-4.88s2.18-4.9,4.53-4.9c1.26,0,2.27.37,3.05,1.02v-.74h2.44v9.23ZM137.93,86.96c0-1.7-1.31-2.77-2.63-2.77-1.48,0-2.59,1.07-2.59,2.77s1.11,2.76,2.59,2.76c1.31,0,2.63-1.05,2.63-2.76Z"/>
    <path class="cls-2" d="M149.67,91.16c-.96.52-1.63.68-2.4.68-2.18,0-3.62-1.15-3.62-3.68v-3.83h-1.98v-2h1.98v-2.79l2.44,1.44v1.35h3.01v2h-3.01v3.64c0,1.11.54,1.59,1.35,1.59.43,0,1.05-.18,1.54-.44l.7,2.03Z"/>
    <path class="cls-2" d="M153.81,79.86c0,.81-.63,1.42-1.48,1.42s-1.48-.61-1.48-1.42.61-1.46,1.48-1.46,1.48.68,1.48,1.46ZM151.11,91.85v-9.23l2.44,1.44v7.78h-2.44Z"/>
    <g>
      <path class="cls-2" d="M195.04,86.22v5.62h-2.44v-5.1c0-1.29-.74-2.16-1.87-2.16-1.39,0-2.29.92-2.29,3.18v4.09h-2.44v-9.23h2.44v.83c.72-.72,1.68-1.11,2.9-1.11,2.22,0,3.7,1.59,3.7,3.88Z"/>
      <path class="cls-2" d="M183.85,79.86c0,.81-.63,1.42-1.48,1.42s-1.48-.61-1.48-1.42.61-1.46,1.48-1.46,1.48.68,1.48,1.46ZM181.16,91.85v-9.23l2.44,1.44v7.78h-2.44Z"/>
    </g>
    <path class="cls-2" d="M161.6,91.85h-2.59l-3.85-9.25h2.63l2.52,6.27,2.52-6.27h2.63l-3.85,9.25Z"/>
    <path class="cls-2" d="M175.36,87.61h-7.03c.24,1.33,1.18,2.15,2.31,2.15.72,0,1.63-.09,2.29-1.22l2.18.46c-.81,1.92-2.46,2.85-4.48,2.85-2.61,0-4.73-1.98-4.73-4.88s2.13-4.9,4.77-4.9c2.46,0,4.59,1.91,4.68,4.72v.83ZM168.41,85.89h4.46c-.31-1.18-1.2-1.7-2.18-1.7-.92,0-1.98.56-2.27,1.7Z"/>
  </g>
  <g>
    <g>
      <path class="cls-2" d="M126.93,48.72c0,2.86-2.32,5.18-5.18,5.18h0c-2.83,0-5.13-2.27-5.18-5.1,0-.03,0-.06,0-.09v-6.36h0l-3.17-2h0v8.36s0,.06,0,.09c-.05,2.82-2.34,5.1-5.18,5.1h0c-2.86,0-5.18-2.32-5.18-5.18v-6.37h-.01l-3.17-2h-.01v8.38c0,2.86-2.32,5.18-5.18,5.18h0s-.76,0-.76,0c-2.86,0-5.18-2.32-5.18-5.18v-6.38l-3.18-2v8.38c0,4.49,3.54,8.14,7.97,8.34v.02h.38s0,0,0,0h0s.75,0,.75,0h0s0,0,0,0c2.8,0,5.27-1.38,6.79-3.49,1.52,2.1,3.98,3.47,6.77,3.47s5.25-1.37,6.77-3.47c1.52,2.1,3.98,3.47,6.77,3.47,4.62,0,8.36-3.74,8.36-8.36v-13.62l-3.18-2v15.63Z"/>
      <path class="cls-2" d="M136.85,48.72v-15.63l-3.18,2v13.62c0,4.62,3.75,8.36,8.37,8.36v-3.18h0c-2.86,0-5.18-2.32-5.18-5.18Z"/>
      <circle class="cls-2" cx="108.1" cy="61.45" r="2.39"/>
      <circle class="cls-2" cx="93.64" cy="36.01" r="2.39"/>
    </g>
    <g>
      <path class="cls-2" d="M27.92,56.92c0,2.86-2.32,5.18-5.18,5.18h0v3.18c4.62,0,8.37-3.74,8.37-8.36v-14.58l-3.18-2v16.59Z"/>
      <polygon class="cls-2" points="21.04 56.99 24.33 56.99 24.33 33.09 21.04 35.09 21.04 56.99"/>
      <path class="cls-2" d="M29.42,33.67c-1.32,0-2.39,1.07-2.39,2.39s1.07,2.39,2.39,2.39,2.39-1.07,2.39-2.39-1.07-2.39-2.39-2.39Z"/>
      <g>
        <path class="cls-2" d="M14.3,48.63c0,2.86-2.32,5.18-5.18,5.18h0s-.76,0-.76,0c-2.86,0-5.18-2.32-5.18-5.18v-6.66l-3.18-1.77v8.43c0,4.49,3.54,8.14,7.98,8.34v.02h.38s0,0,0,0h0s.75,0,.75,0h0c4.62,0,8.36-3.74,8.36-8.36v-8.43l-3.18,2v6.43Z"/>
        <path class="cls-2" d="M8.74,38.45c1.32,0,2.39-1.07,2.39-2.39s-1.07-2.39-2.39-2.39-2.39,1.07-2.39,2.39,1.07,2.39,2.39,2.39Z"/>
      </g>
      <circle class="cls-2" cx="54.69" cy="62.22" r="2.39"/>
      <g>
        <path class="cls-2" d="M75.06,42.27v6.37c0,2.86-2.32,5.18-5.18,5.18h-1.26c-2.86,0-5.18-2.32-5.18-5.18h0s0,0,0,0c0-4.62-3.74-8.36-8.36-8.36h-9.79l1.77,3.18h8.02c2.86,0,5.18,2.32,5.18,5.18h0s0,0,0,0c0,1.96.68,3.76,1.81,5.18h-19.06c-2.86,0-5.18-2.32-5.18-5.18v-13.55l-3.18-2v15.54c0,4.6,3.72,8.34,8.32,8.36h0s.04,0,.04,0h26.86c4.62,0,8.36-3.74,8.36-8.36v-8.36l-3.18,2Z"/>
        <circle class="cls-2" cx="72.06" cy="62.18" r="2.39"/>
      </g>
    </g>
    <g>
      <path class="cls-2" d="M212.15,40.28h-5.28c-4.62,0-8.36,3.74-8.36,8.36s3.74,8.36,8.36,8.36h5.28v.16c0,2.86-2.32,5.18-5.18,5.18h0v3.18h0c4.62,0,8.36-3.74,8.36-8.36v-16.89h-3.18ZM206.86,53.83c-2.86,0-5.18-2.32-5.18-5.18h0c0-2.87,2.32-5.19,5.18-5.19h5.29v10.37h-5.29Z"/>
      <path class="cls-2" d="M245.6,53.83h0s-4.26,0-4.26,0l2.8-5.28c0-4.62-3.74-8.36-8.36-8.36s-8.36,3.74-8.36,8.36l2.8,5.28h-2.95s0,0,0,0c-2.86,0-5.18-2.32-5.18-5.18v-13.56l-3.18-2v15.55c0,4.62,3.74,8.36,8.36,8.36h0s4.63,0,4.63,0h0s3.18,0,3.18,0l-4.49-8.46c0-2.86,2.32-5.18,5.18-5.18h0c2.86,0,5.18,2.32,5.18,5.18l-4.49,8.46h3.18s5.94,0,5.94,0h0"/>
      <g>
        <circle class="cls-2" cx="247.3" cy="36.11" r="2.39"/>
        <circle class="cls-2" cx="252.67" cy="36.11" r="2.39"/>
      </g>
      <g>
        <path class="cls-2" d="M191.74,48.63c0,2.86-2.32,5.18-5.18,5.18h0c-2.86,0-5.18-2.32-5.18-5.18v-6.37s-3.18-2-3.18-2h-.01v8.38c0,2.86-2.32,5.18-5.18,5.18h0s-.14,0-.14,0h-.2s0,0,0,0c-2.85,0-5.15-2.3-5.18-5.14,0-.02,0-.03,0-.05v-10.13h0l-3.17,1.77h0v8.36s0,.03,0,.05c-.02,2.84-2.33,5.14-5.18,5.14h0s-1.41,0-1.41,0c-2.86,0-5.18-2.32-5.18-5.18h0c0-2.87,2.32-5.19,5.18-5.19h4.78s1.77-3.18,1.77-3.18h-6.55c-4.62,0-8.36,3.74-8.36,8.36h0c0,4.62,3.74,8.36,8.36,8.36h1.41s0,0,0,0c2.79,0,5.25-1.37,6.77-3.47,1.52,2.1,3.98,3.47,6.77,3.47h0s.14,0,.14,0h.2c2.8,0,5.27-1.38,6.79-3.49,1.62,2.23,4.3,3.64,7.32,3.45,4.45-.28,7.82-4.18,7.82-8.64v-6.07s-3.18-2-3.18-2v8.37Z"/>
        <g>
          <circle class="cls-2" cx="156.52" cy="36.5" r="2.39"/>
          <circle class="cls-2" cx="161.9" cy="36.5" r="2.39"/>
        </g>
        <g>
          <circle class="cls-2" cx="170.28" cy="62.11" r="2.39"/>
          <circle class="cls-2" cx="175.65" cy="62.11" r="2.39"/>
        </g>
        <circle class="cls-2" cx="186.58" cy="36.09" r="2.39"/>
      </g>
    </g>
    <path class="cls-2" d="M244.75,57h1.95c4.62,0,8.36-3.74,8.36-8.36v-8.36l-3.18,2v6.37c0,2.86-2.32,5.18-5.18,5.18h-1.96"/>
  </g>
  <g>
    <g>
      <path class="cls-4" d="M292.14,63.8c0-1.94.13-3.86.35-5.74-.43-.3-.85-.6-1.26-.92-.29,2.18-.46,4.4-.46,6.66s.16,4.39.44,6.53c.41-.32.83-.62,1.26-.92-.21-1.84-.34-3.71-.34-5.61Z"/>
      <path class="cls-4" d="M389.69,57.14c-.41.32-.83.62-1.26.92.22,1.88.35,3.8.35,5.74s-.12,3.77-.34,5.61c.43.29.85.6,1.26.92.28-2.14.44-4.31.44-6.53s-.17-4.48-.46-6.66Z"/>
      <path class="cls-4" d="M322.05,108.47c-4.23-1.75-8.16-4.09-11.69-6.91-.48.22-.96.42-1.45.6,3.97,3.27,8.46,5.93,13.32,7.85-.08-.51-.14-1.03-.19-1.55Z"/>
      <path class="cls-4" d="M370.55,101.56c-3.53,2.82-7.46,5.16-11.69,6.91-.05.52-.11,1.03-.19,1.55,4.86-1.92,9.35-4.58,13.32-7.85-.49-.19-.97-.39-1.45-.6Z"/>
      <path class="cls-4" d="M358.95,19.17c4.15,1.73,8.01,4.02,11.48,6.78.48-.22.96-.42,1.45-.6-3.92-3.21-8.34-5.82-13.11-7.72.08.51.14,1.03.18,1.55Z"/>
      <path class="cls-4" d="M310.48,25.94c3.52-2.8,7.44-5.11,11.66-6.85.05-.52.11-1.03.19-1.55-4.85,1.91-9.33,4.54-13.3,7.79.49.19.97.39,1.45.6Z"/>
    </g>
    <g>
      <path class="cls-5" d="M306.18,112.46c-.16,0-.32-.05-.46-.15-.22-.16-.34-.41-.33-.68l.35-7.16c.01-.3.19-.56.47-.68.28-.12.59-.08.82.12,1.97,1.65,4.06,3.15,6.22,4.47.26.16.4.44.37.74-.03.3-.22.55-.49.66l-6.67,2.63c-.09.04-.19.06-.29.06ZM306.73,104.98l-.31,6.35,5.91-2.33c-1.94-1.21-3.82-2.56-5.6-4.02Z"/>
      <path class="cls-5" d="M316.18,118.23c-.11,0-.22-.02-.33-.07-.24-.11-.41-.34-.46-.6l-1.05-7.09c-.04-.3.08-.59.33-.76.25-.17.56-.19.83-.04,2.26,1.23,4.6,2.3,6.97,3.16h0c.28.1.48.35.51.65.03.3-.1.58-.36.75l-6.02,3.88c-.13.08-.28.13-.43.13ZM315.41,110.77l.94,6.29,5.34-3.44c-2.13-.8-4.23-1.76-6.27-2.85Z"/>
      <path class="cls-5" d="M374.73,112.46c-.1,0-.2-.02-.29-.06l-6.67-2.63c-.28-.11-.47-.36-.5-.66-.03-.3.12-.58.37-.74,2.16-1.32,4.25-2.82,6.22-4.47.23-.19.55-.24.82-.12.27.12.45.38.47.68l.35,7.16c.01.27-.11.52-.33.68-.14.1-.3.15-.46.15ZM368.58,109l5.91,2.33-.31-6.35c-1.79,1.46-3.67,2.82-5.6,4.02Z"/>
      <path class="cls-5" d="M364.74,118.23c-.15,0-.3-.04-.43-.13l-6.02-3.88c-.25-.16-.39-.45-.36-.75.03-.3.23-.55.51-.65h0c2.37-.87,4.71-1.93,6.97-3.16.26-.14.58-.13.83.04.25.17.37.46.33.76l-1.05,7.09c-.04.27-.21.49-.46.6-.1.05-.22.07-.33.07ZM359.23,113.62l5.34,3.44.94-6.29c-2.04,1.09-4.15,2.05-6.27,2.85Z"/>
      <g>
        <path class="cls-5" d="M374.39,23.84c-.18,0-.36-.06-.5-.18-1.97-1.64-4.06-3.15-6.22-4.47-.26-.16-.4-.44-.37-.74.03-.3.22-.55.5-.66l6.67-2.63c.25-.1.53-.06.75.09.22.16.34.41.33.68l-.35,7.16c-.01.3-.19.56-.47.68-.1.05-.21.07-.32.07ZM368.58,18.56c1.94,1.21,3.82,2.56,5.6,4.02l.31-6.35-5.91,2.33Z"/>
        <path class="cls-5" d="M365.8,18c-.13,0-.26-.03-.38-.1-2.26-1.23-4.6-2.29-6.97-3.16h0c-.28-.1-.48-.35-.51-.65-.03-.3.1-.58.36-.75l6.02-3.88c.23-.15.51-.17.75-.06.24.11.41.34.46.6l1.05,7.09c.04.3-.08.59-.33.76-.14.09-.29.14-.45.14ZM359.23,13.95c2.13.8,4.23,1.76,6.27,2.85l-.94-6.29-5.34,3.44Z"/>
      </g>
      <g>
        <path class="cls-5" d="M306.53,23.84c-.11,0-.21-.02-.32-.07-.27-.12-.45-.38-.47-.68h0s-.35-7.16-.35-7.16c-.01-.27.11-.52.33-.68.22-.16.5-.19.75-.09l6.67,2.63c.28.11.47.36.5.66.03.3-.12.58-.37.74-2.16,1.32-4.25,2.82-6.22,4.47-.15.12-.32.18-.5.18ZM306.42,16.23l.31,6.35c1.78-1.46,3.67-2.82,5.6-4.02l-5.91-2.33Z"/>
        <path class="cls-5" d="M315.12,18c-.16,0-.31-.05-.45-.14-.25-.17-.37-.46-.33-.76l1.05-7.09c.04-.27.21-.49.46-.6.24-.11.53-.09.75.06l6.02,3.88c.25.16.39.45.36.75-.03.3-.23.55-.51.65h0c-2.37.87-4.71,1.93-6.97,3.16-.12.07-.25.1-.38.1ZM316.35,10.5l-.94,6.29c2.04-1.09,4.14-2.05,6.27-2.85l-5.34-3.44Z"/>
      </g>
      <g>
        <g>
          <path class="cls-5" d="M287.46,63.28c-.17,0-.35-.06-.49-.17l-5.61-4.46c-.21-.17-.32-.43-.29-.7.03-.27.18-.5.42-.62l6.38-3.28c.27-.14.58-.11.82.06.24.18.36.47.31.77-.44,2.53-.69,5.09-.76,7.62,0,.3-.18.57-.45.7-.11.05-.22.07-.33.07ZM282.27,58.08l4.98,3.95c.08-2.28.31-4.59.68-6.86l-5.66,2.91ZM288.34,54.96h0Z"/>
          <path class="cls-5" d="M288.23,73.64c-.12,0-.25-.03-.36-.09l-6.37-3.27c-.24-.12-.4-.36-.42-.62s.08-.53.29-.7l5.61-4.46c.24-.19.55-.22.82-.1.27.13.45.39.45.7.06,2.57.31,5.13.75,7.62h0c.05.3-.07.59-.31.77-.14.1-.3.15-.46.15ZM288,72.89h0s0,0,0,0ZM282.28,69.54l5.65,2.9c-.37-2.24-.59-4.55-.67-6.86l-4.98,3.96Z"/>
        </g>
        <g>
          <path class="cls-5" d="M393.45,63.28c-.11,0-.23-.02-.33-.07-.27-.13-.45-.39-.45-.7-.06-2.53-.32-5.09-.76-7.62-.05-.3.07-.59.31-.77.24-.18.56-.2.82-.06h0s6.38,3.28,6.38,3.28c.24.12.4.36.42.62.03.27-.08.53-.29.7l-5.61,4.46c-.14.11-.31.17-.49.17ZM392.98,55.17c.38,2.28.6,4.58.68,6.86l4.98-3.95-5.66-2.91Z"/>
          <path class="cls-5" d="M392.68,73.64c-.16,0-.33-.05-.46-.15-.24-.18-.36-.47-.31-.77h0c.43-2.49.68-5.05.75-7.62,0-.3.18-.57.45-.7.27-.13.59-.09.82.1l5.61,4.46c.21.17.32.43.29.7s-.18.5-.42.62l-6.37,3.27c-.11.06-.24.09-.36.09ZM392.91,72.89h0ZM393.66,65.58c-.08,2.31-.3,4.61-.67,6.86l5.65-2.9-4.98-3.96Z"/>
        </g>
      </g>
    </g>
    <g>
      <path class="cls-1" d="M313.36,121.46c-.11,0-.23-.03-.34-.08-3.01-1.43-5.93-3.12-8.69-5.02-.24-.16-.37-.45-.33-.73.03-.29.22-.54.49-.64l7.41-2.92c.22-.09.47-.07.68.05.21.12.35.33.38.56l1.17,7.88c.04.29-.08.57-.31.75-.14.1-.3.15-.47.15ZM305.27,115.77c2.49,1.69,5.11,3.2,7.8,4.51l-1.06-7.16-6.73,2.65ZM312.28,113h0,0Z"/>
      <path class="cls-1" d="M302.79,115.07c-.17,0-.33-.05-.47-.16-2.67-1.99-5.2-4.22-7.53-6.61-.2-.21-.27-.51-.18-.79.09-.28.32-.48.61-.53l7.83-1.42h0c.24-.04.47.02.66.18.18.16.28.39.27.63l-.39,7.95c-.01.29-.19.55-.45.67-.11.05-.22.08-.34.08ZM295.82,107.9c2.11,2.13,4.38,4.13,6.76,5.93l.35-7.23-7.12,1.29ZM303.23,106.56h0s0,0,0,0Z"/>
      <path class="cls-1" d="M324.99,125.65c-.06,0-.13,0-.19-.02-3.24-.82-6.44-1.9-9.51-3.22-.27-.11-.45-.37-.47-.65-.02-.29.11-.57.36-.73l6.7-4.32c.2-.13.45-.16.68-.08.23.08.4.25.49.48l2.7,7.5c.1.27.04.58-.16.79-.15.17-.36.26-.58.26ZM316.09,121.64c2.77,1.17,5.64,2.14,8.54,2.89l-2.45-6.82-6.09,3.92Z"/>
      <path class="cls-1" d="M367.55,121.46c-.17,0-.33-.05-.47-.15-.23-.17-.35-.46-.31-.75l1.17-7.88c.04-.24.18-.44.38-.56.21-.12.46-.14.68-.05l7.41,2.92c.27.11.46.35.49.64.03.29-.09.57-.33.73-2.76,1.9-5.68,3.59-8.69,5.02-.11.05-.22.08-.34.08ZM368.9,113.11l-1.06,7.16c2.69-1.31,5.31-2.82,7.8-4.51l-6.73-2.65ZM368.63,113h0,0Z"/>
      <path class="cls-1" d="M378.12,115.07c-.11,0-.23-.03-.34-.08-.26-.12-.44-.38-.45-.67l-.39-7.95c-.01-.24.08-.47.27-.63s.42-.23.66-.18l7.83,1.42c.29.05.52.26.61.54.09.28.02.58-.19.79-2.33,2.39-4.86,4.61-7.53,6.61-.14.1-.3.16-.47.16ZM377.98,106.61l.35,7.23c2.38-1.81,4.66-3.8,6.76-5.93l-7.12-1.29ZM377.69,106.56s0,0,0,0h0Z"/>
      <path class="cls-1" d="M355.92,125.65c-.22,0-.43-.09-.58-.26-.2-.22-.26-.52-.16-.79l2.7-7.5c.08-.23.26-.4.49-.48.23-.08.47-.05.68.08l6.7,4.32c.24.16.38.44.36.73-.02.29-.21.54-.47.65-3.07,1.32-6.27,2.4-9.51,3.22-.06.02-.13.02-.19.02ZM358.74,117.72l-2.45,6.82c2.9-.75,5.77-1.72,8.54-2.89l-6.09-3.92Z"/>
      <path class="cls-1" d="M368.72,15.56c-.14,0-.27-.04-.39-.11-.21-.12-.35-.33-.38-.56l-1.17-7.88c-.04-.29.08-.57.31-.75.23-.17.54-.2.8-.08,3.01,1.43,5.93,3.12,8.69,5.02.24.16.37.45.33.73-.03.29-.22.54-.49.64l-7.41,2.92c-.09.04-.19.06-.29.06ZM368.63,14.56h0s0,0,0,0ZM367.84,7.29l1.06,7.16,6.73-2.65c-2.49-1.69-5.11-3.2-7.8-4.51Z"/>
      <path class="cls-1" d="M377.73,22.02c-.19,0-.37-.07-.52-.2-.18-.16-.28-.39-.27-.63l.39-7.95c.01-.29.19-.55.45-.67.26-.12.57-.09.8.08,2.67,1.99,5.2,4.22,7.53,6.61.2.21.27.51.19.79-.09.28-.32.48-.61.54l-7.83,1.42s-.09.01-.14.01ZM378.33,13.73l-.35,7.23,7.12-1.29c-2.11-2.13-4.38-4.13-6.76-5.93Z"/>
      <path class="cls-1" d="M358.62,10.99c-.08,0-.17-.01-.25-.04-.23-.08-.4-.25-.49-.48l-2.7-7.5c-.1-.27-.04-.58.16-.79.19-.22.49-.3.77-.23,3.24.82,6.44,1.9,9.51,3.22.27.12.45.37.47.66.02.29-.11.57-.36.73l-6.7,4.32c-.13.08-.28.13-.42.13ZM356.28,3.03l2.45,6.82,6.09-3.92c-2.77-1.17-5.64-2.14-8.54-2.89Z"/>
      <path class="cls-1" d="M312.2,15.56c-.1,0-.19-.02-.29-.06l-7.41-2.92c-.27-.11-.46-.35-.49-.64-.03-.29.09-.57.33-.73,2.76-1.9,5.68-3.59,8.69-5.02.26-.12.57-.1.8.08.23.17.35.46.31.75l-1.17,7.88c-.04.24-.18.44-.38.56-.12.07-.26.11-.39.11ZM312.28,14.56h0s0,0,0,0ZM305.27,11.8l6.73,2.65,1.06-7.16c-2.69,1.31-5.31,2.82-7.8,4.51Z"/>
      <path class="cls-1" d="M303.19,22.02s-.09,0-.14-.01l-7.83-1.42c-.29-.05-.52-.26-.61-.53-.09-.28-.02-.58.18-.79,2.33-2.39,4.87-4.62,7.53-6.61.23-.17.54-.2.8-.08.26.12.44.38.45.67l.39,7.95c.01.24-.09.47-.27.63-.14.13-.33.19-.51.19ZM295.82,19.66l7.12,1.29-.35-7.23c-2.38,1.81-4.66,3.8-6.76,5.93Z"/>
      <path class="cls-1" d="M322.3,10.99c-.15,0-.29-.04-.42-.13l-6.7-4.32c-.24-.16-.38-.44-.36-.73.02-.29.2-.54.47-.66,3.07-1.32,6.27-2.4,9.51-3.22.28-.07.58.02.77.24.2.22.26.52.16.79l-2.7,7.5c-.08.23-.26.4-.49.48-.08.03-.17.04-.25.04ZM316.09,5.92l6.09,3.92,2.45-6.82c-2.9.75-5.77,1.72-8.54,2.89Z"/>
      <path class="cls-1" d="M277.66,69.55c-.11,0-.21-.02-.31-.07-.27-.12-.45-.37-.47-.66-.26-3.32-.26-6.7,0-10.03.02-.29.2-.54.47-.66.27-.12.58-.08.8.1l6.23,4.95c.19.15.3.37.3.61s-.11.46-.3.61l-6.24,4.96c-.14.11-.31.17-.49.17ZM277.85,59.3c-.22,3-.22,6.02,0,9.01l5.67-4.51-5.67-4.5ZM283.75,63.99s0,0,0,0h0Z"/>
      <path class="cls-1" d="M277.9,57.2c-.16,0-.31-.05-.45-.14-.24-.17-.37-.45-.33-.74.39-3.31,1.05-6.62,1.95-9.83.08-.28.3-.49.59-.55.28-.06.58.04.77.26l5.15,6.07c.16.18.22.42.17.66-.05.24-.2.43-.41.54l-7.08,3.64c-.11.06-.24.09-.36.09ZM279.93,47.18c-.79,2.89-1.38,5.86-1.75,8.82l6.43-3.31-4.68-5.52ZM284.8,52.92s0,0,0,0h0Z"/>
      <path class="cls-1" d="M279.84,81.71c-.06,0-.11,0-.17-.02-.28-.06-.51-.27-.59-.55-.91-3.21-1.58-6.52-1.97-9.85-.03-.29.09-.57.33-.74.24-.17.55-.19.81-.05l7.09,3.64c.21.11.36.31.41.54.05.24-.01.48-.17.66l-5.14,6.09c-.15.18-.37.28-.6.28ZM278.18,71.61c.38,2.98.97,5.95,1.77,8.84l4.67-5.53-6.44-3.31ZM284.88,75.05s0,0,0,0h0Z"/>
      <path class="cls-1" d="M403.25,69.55c-.17,0-.35-.06-.49-.17l-6.24-4.96c-.19-.15-.3-.37-.3-.61s.11-.46.3-.61l6.23-4.95c.23-.18.53-.22.8-.11.27.12.45.37.47.66.26,3.34.26,6.71,0,10.03-.02.29-.2.54-.47.66-.1.04-.21.07-.31.07ZM397.39,63.81l5.67,4.51c.21-2.98.21-6.01,0-9.01l-5.67,4.5ZM397.16,63.99h0s0,0,0,0Z"/>
      <path class="cls-1" d="M403.01,57.2c-.12,0-.25-.03-.36-.09l-7.08-3.64c-.21-.11-.36-.31-.41-.54-.05-.24.01-.48.17-.66h0s5.15-6.07,5.15-6.07c.19-.22.48-.32.77-.26.28.06.51.27.59.55.9,3.21,1.56,6.52,1.95,9.83.03.29-.09.57-.33.74-.13.09-.29.14-.45.14ZM396.3,52.7l6.43,3.31c-.37-2.97-.96-5.93-1.75-8.82l-4.68,5.52Z"/>
      <path class="cls-1" d="M401.07,81.71c-.23,0-.45-.1-.6-.28l-5.14-6.09c-.16-.18-.22-.42-.17-.66.05-.24.2-.43.41-.54l7.09-3.64c.26-.13.57-.11.81.05.24.17.37.45.33.74-.39,3.32-1.06,6.63-1.97,9.85-.08.28-.31.49-.59.55-.06.01-.11.02-.17.02ZM396.29,74.91l4.67,5.53c.8-2.89,1.39-5.86,1.77-8.84l-6.44,3.31Z"/>
    </g>
    <g>
      <g>
        <g>
          <path class="cls-3" d="M379.29,68.35c-2.81,0-5.42-1.53-7.37-4.32l-.17-.25.17-.25c1.95-2.79,4.57-4.32,7.37-4.32s5.42,1.53,7.37,4.32l.17.25-.17.25c-1.95,2.79-4.57,4.32-7.37,4.32ZM372.8,63.78c1.76,2.39,4.06,3.71,6.49,3.71s4.73-1.31,6.49-3.71c-1.76-2.39-4.06-3.71-6.49-3.71s-4.73,1.31-6.49,3.71Z"/>
          <rect class="cls-3" x="370.22" y="63.35" width="16.05" height=".86"/>
          <polygon class="cls-3" points="378.97 68.3 375.75 63.78 378.97 59.27 379.67 59.77 376.81 63.78 379.67 67.8 378.97 68.3"/>
        </g>
        <polygon class="cls-3" points="382.42 67.57 379.73 63.8 382.42 60.02 383.13 60.52 380.79 63.8 383.13 67.07 382.42 67.57"/>
      </g>
      <g>
        <path class="cls-3" d="M301.63,68.35c-2.81,0-5.42-1.53-7.37-4.32l-.17-.25.17-.25c1.95-2.79,4.57-4.32,7.37-4.32s5.42,1.53,7.37,4.32l.17.25-.17.25c-1.95,2.79-4.57,4.32-7.37,4.32ZM295.14,63.78c1.76,2.39,4.06,3.71,6.49,3.71s4.73-1.31,6.49-3.71c-1.76-2.39-4.06-3.71-6.49-3.71s-4.73,1.31-6.49,3.71Z"/>
        <rect class="cls-3" x="294.64" y="63.35" width="16.05" height=".86"/>
        <polygon class="cls-3" points="301.95 68.3 301.24 67.8 304.1 63.78 301.24 59.77 301.95 59.27 305.16 63.78 301.95 68.3"/>
        <polygon class="cls-3" points="298.49 67.54 297.79 67.04 300.12 63.77 297.79 60.49 298.49 59.99 301.18 63.77 298.49 67.54"/>
      </g>
    </g>
    <g>
      <g>
        <g>
          <path class="cls-3" d="M356.1,36.69l-.13-.27c-1.44-3.08-1.46-6.12-.06-8.55,1.4-2.43,4.04-3.93,7.43-4.22l.3-.03.13.27c1.44,3.08,1.46,6.12.06,8.55h0c-1.4,2.43-4.04,3.93-7.43,4.22l-.3.03ZM363.11,24.53c-2.95.33-5.24,1.66-6.45,3.77-1.22,2.11-1.23,4.75-.03,7.47,2.95-.33,5.24-1.66,6.45-3.77h0c1.22-2.11,1.23-4.75.03-7.47Z"/>
          <rect class="cls-3" x="351.32" y="30.62" width="16.05" height=".86" transform="translate(152.88 326.8) rotate(-60.02)"/>
          <polygon class="cls-3" points="358.1 33.22 355.8 28.17 356.59 27.82 358.63 32.3 363.54 31.83 363.62 32.69 358.1 33.22"/>
        </g>
        <polygon class="cls-3" points="360.11 29.77 358.18 25.56 358.97 25.2 360.64 28.86 364.64 28.47 364.72 29.33 360.11 29.77"/>
      </g>
      <g>
        <path class="cls-3" d="M317.27,103.94l-.13-.27c-1.44-3.08-1.46-6.12-.06-8.55h0c1.4-2.43,4.04-3.93,7.43-4.22l.3-.03.13.27c1.44,3.08,1.46,6.12.06,8.55-1.4,2.43-4.04,3.93-7.43,4.22l-.3.03ZM317.83,95.56c-1.22,2.11-1.23,4.75-.03,7.47,2.95-.33,5.24-1.66,6.45-3.77,1.22-2.11,1.23-4.75.03-7.47-2.95.33-5.24,1.66-6.45,3.77h0Z"/>
        <rect class="cls-3" x="313.53" y="96.08" width="16.05" height=".86" transform="translate(77.27 326.81) rotate(-60.02)"/>
        <polygon class="cls-3" points="324.33 99.75 322.28 95.27 317.37 95.73 317.29 94.87 322.81 94.35 325.11 99.39 324.33 99.75"/>
        <polygon class="cls-3" points="321.94 102.36 320.27 98.71 316.27 99.09 316.19 98.23 320.8 97.79 322.73 102.01 321.94 102.36"/>
      </g>
    </g>
    <g>
      <g>
        <g>
          <path class="cls-3" d="M324.81,36.69l-.3-.03c-3.39-.29-6.03-1.79-7.43-4.22-1.4-2.43-1.38-5.46.06-8.55l.13-.27.3.03c3.39.29,6.03,1.79,7.43,4.22h0c1.4,2.43,1.38,5.46-.06,8.55l-.13.27ZM317.8,24.53c-1.19,2.72-1.18,5.37.03,7.47,1.22,2.11,3.5,3.44,6.45,3.77,1.19-2.72,1.18-5.37-.03-7.47-1.22-2.11-3.5-3.44-6.45-3.77Z"/>
          <rect class="cls-3" x="321.13" y="23.03" width=".86" height="16.05" transform="translate(27.56 164.95) rotate(-30)"/>
          <polygon class="cls-3" points="322.81 33.22 317.29 32.69 317.37 31.83 322.28 32.3 324.33 27.82 325.11 28.17 322.81 33.22"/>
        </g>
        <polygon class="cls-3" points="320.83 29.76 316.22 29.32 316.3 28.46 320.3 28.84 321.97 25.18 322.76 25.54 320.83 29.76"/>
      </g>
      <g>
        <path class="cls-3" d="M363.64,103.94l-.3-.03c-3.39-.29-6.03-1.79-7.43-4.22h0c-1.4-2.43-1.38-5.46.06-8.55l.13-.27.3.03c3.39.29,6.03,1.8,7.43,4.22,1.4,2.43,1.38,5.46-.06,8.55l-.13.27ZM356.66,99.26c1.22,2.11,3.5,3.44,6.45,3.77,1.19-2.72,1.18-5.37-.03-7.47-1.22-2.11-3.5-3.44-6.45-3.77-1.19,2.72-1.18,5.37.03,7.47h0Z"/>
        <rect class="cls-3" x="358.92" y="88.48" width=".86" height="16.05" transform="translate(-.11 192.6) rotate(-30)"/>
        <polygon class="cls-3" points="356.59 99.75 355.8 99.39 358.1 94.35 363.62 94.87 363.54 95.73 358.63 95.27 356.59 99.75"/>
        <polygon class="cls-3" points="358.94 102.38 358.16 102.02 360.08 97.8 364.7 98.24 364.61 99.1 360.61 98.72 358.94 102.38"/>
      </g>
    </g>
    <path class="cls-1" d="M340.45,0c-5.98,0-10.84,7.15-10.84,15.94s4.86,15.95,10.84,15.95,10.84-7.15,10.84-15.95-4.86-15.94-10.84-15.94ZM338.03,29.21c-3.95-1.63-6.71-7.09-6.71-13.26,0-7.2,3.73-13.23,8.5-13.72h.07s.04.05.04.05c1.41,1.95,1.97,4.14,1.68,6.5-.23,1.86-.85,3.57-1.43,4.99-.28.69-.57,1.39-.85,2.08-.47,1.14-1.01,2.43-1.5,3.71-.64,1.67-.96,3.25-.96,4.82,0,1.63.44,3.19,1.31,4.64l.2.33-.35-.15ZM341.07,29.67h-.07s-.04-.05-.04-.05c-1.39-1.95-1.95-4.13-1.66-6.5.16-1.34.53-2.69,1.11-4.14.38-.94.76-1.87,1.15-2.81.43-1.03.81-1.96,1.19-2.91.73-1.82,1.12-3.37,1.25-4.88.16-1.97-.27-3.83-1.29-5.52l-.2-.33.35.14c3.96,1.62,6.73,7.08,6.73,13.27,0,7.21-3.74,13.24-8.52,13.72Z"/>
    <path class="cls-1" d="M340.45,95.67c-5.98,0-10.84,7.15-10.84,15.94s4.86,15.94,10.84,15.94,10.84-7.15,10.84-15.94-4.86-15.94-10.84-15.94ZM339.93,125.28l-.04.06h-.07c-4.77-.5-8.5-6.53-8.5-13.73,0-6.18,2.76-11.63,6.71-13.26l.35-.15-.2.33c-.87,1.45-1.31,3.01-1.31,4.64,0,1.57.31,3.15.96,4.82.49,1.27,1.02,2.56,1.5,3.71.29.69.57,1.38.85,2.08.58,1.43,1.2,3.14,1.43,5,.29,2.36-.27,4.55-1.68,6.5ZM342.86,124.88l-.35.14.2-.33c1.02-1.69,1.45-3.55,1.29-5.52-.12-1.51-.52-3.05-1.25-4.88-.37-.93-.74-1.83-1.19-2.91-.39-.93-.78-1.87-1.15-2.81-.58-1.45-.94-2.81-1.11-4.14-.29-2.37.27-4.56,1.66-6.5l.04-.06h.07c4.78.49,8.52,6.51,8.52,13.73,0,6.19-2.77,11.65-6.73,13.27Z"/>
    <g>
      <path class="cls-1" d="M285.22,31.89c-2.99,5.18.77,12.97,8.39,17.36,7.61,4.4,16.24,3.76,19.23-1.42,2.99-5.18-.77-12.97-8.39-17.36-7.61-4.4-16.24-3.76-19.23,1.42ZM309.3,48.59c-3.39,2.61-9.49,2.27-14.84-.82-6.24-3.6-9.59-9.85-7.63-14.22l.03-.07h.07c2.39-.25,4.57.35,6.47,1.79,1.5,1.13,2.67,2.52,3.61,3.73.46.59.92,1.18,1.37,1.78.75.98,1.6,2.09,2.46,3.15,1.13,1.39,2.34,2.45,3.7,3.24,1.41.81,2.98,1.21,4.67,1.19h.38s-.3.23-.3.23ZM311.22,46.19l-.03.07h-.07c-2.38.24-4.55-.37-6.46-1.81-1.08-.81-2.07-1.8-3.04-3.03-.63-.79-1.24-1.6-1.85-2.4-.68-.89-1.29-1.68-1.92-2.48-1.21-1.54-2.36-2.66-3.6-3.52-1.62-1.13-3.45-1.68-5.42-1.65h-.38s.3-.23.3-.23c3.39-2.62,9.49-2.28,14.85.81,6.25,3.61,9.6,9.86,7.62,14.24Z"/>
      <path class="cls-1" d="M368.07,79.72c-2.99,5.18.77,12.97,8.39,17.36,7.61,4.4,16.24,3.76,19.23-1.42,2.99-5.18-.77-12.97-8.39-17.36-7.61-4.4-16.24-3.76-19.23,1.42ZM393.45,94.98l.03.07-.04.06c-2.81,3.88-9.9,4.1-16.13.5-5.35-3.09-8.69-8.21-8.13-12.44l.05-.38.19.33c.82,1.47,1.95,2.64,3.37,3.45,1.36.79,2.88,1.3,4.65,1.58,1.34.21,2.73.4,3.96.56.74.1,1.49.2,2.23.3,1.52.21,3.31.53,5.04,1.26,2.19.93,3.81,2.51,4.79,4.71ZM394.57,92.24l-.05.38-.19-.33c-.96-1.73-2.35-3.03-4.14-3.87-1.37-.64-2.91-1.08-4.85-1.36-.99-.14-1.96-.27-3.11-.42-1-.13-2.01-.26-3.01-.41-1.55-.22-2.9-.59-4.14-1.11-2.2-.93-3.81-2.51-4.8-4.69l-.03-.07.04-.06c2.8-3.9,9.89-4.12,16.14-.51,5.36,3.09,8.7,8.22,8.13,12.46Z"/>
    </g>
    <g>
      <path class="cls-1" d="M285.22,95.67c2.99,5.18,11.62,5.81,19.23,1.42,7.61-4.4,11.38-12.19,8.39-17.36-2.99-5.18-11.62-5.81-19.23-1.42s-11.38,12.19-8.39,17.36ZM311.72,83.16c.56,4.24-2.78,9.35-8.13,12.44-6.24,3.6-13.32,3.38-16.13-.5l-.04-.06.03-.07c.99-2.19,2.6-3.78,4.79-4.71,1.73-.73,3.52-1.05,5.04-1.26.74-.1,1.48-.2,2.23-.3,1.22-.16,2.61-.34,3.96-.56,1.77-.28,3.29-.8,4.65-1.58,1.41-.82,2.54-1.98,3.37-3.45l.19-.33.05.38ZM310.6,80.3l.04.06-.03.07c-.99,2.18-2.6,3.76-4.8,4.69-1.24.53-2.59.89-4.14,1.11-1,.14-2,.28-3.01.41-1.11.14-2.1.27-3.11.42-1.94.28-3.48.71-4.85,1.36-1.79.84-3.18,2.15-4.14,3.87l-.19.33-.05-.38c-.57-4.24,2.77-9.36,8.13-12.46,6.25-3.61,13.34-3.38,16.14.51Z"/>
      <path class="cls-1" d="M368.07,47.83c2.99,5.18,11.62,5.81,19.23,1.42,7.61-4.4,11.38-12.19,8.39-17.36s-11.62-5.81-19.23-1.42c-7.61,4.4-11.38,12.19-8.39,17.36ZM393.97,33.48h.07s.03.07.03.07c1.96,4.37-1.4,10.62-7.63,14.22-5.35,3.09-11.45,3.43-14.84.82l-.3-.23h.38c1.69.03,3.26-.37,4.67-1.18,1.36-.78,2.57-1.84,3.7-3.24.85-1.06,1.71-2.17,2.46-3.15.46-.59.91-1.19,1.37-1.78.95-1.21,2.12-2.6,3.61-3.73,1.9-1.44,4.08-2.04,6.47-1.8ZM392.16,31.14l.3.23h-.38c-1.98-.04-3.8.51-5.42,1.64-1.24.86-2.38,1.98-3.6,3.52-.62.79-1.21,1.56-1.92,2.48-.61.8-1.23,1.61-1.85,2.4-.97,1.23-1.96,2.22-3.04,3.03-1.91,1.43-4.08,2.04-6.46,1.81h-.07s-.03-.07-.03-.07c-1.97-4.38,1.38-10.63,7.62-14.24,5.36-3.09,11.47-3.43,14.85-.81Z"/>
    </g>
    <g>
      <g>
        <path class="cls-5" d="M350.07,127l-.81-.62c2.86-3.75,4.5-9.14,4.5-14.77s-1.64-11.02-4.5-14.77l.81-.62c2.99,3.93,4.71,9.53,4.71,15.39s-1.72,11.46-4.71,15.39Z"/>
        <path class="cls-5" d="M330.83,127c-2.99-3.93-4.71-9.53-4.71-15.39s1.72-11.46,4.71-15.39l.81.62c-2.86,3.75-4.5,9.14-4.5,14.77s1.64,11.02,4.5,14.77l-.81.62Z"/>
      </g>
      <g>
        <g>
          <path class="cls-5" d="M350.07,31.33l-.81-.62c2.86-3.75,4.5-9.14,4.5-14.77s-1.64-11.02-4.5-14.77l.81-.62c2.99,3.92,4.71,9.53,4.71,15.39s-1.72,11.46-4.71,15.39Z"/>
          <path class="cls-5" d="M330.83,31.33c-2.99-3.92-4.71-9.53-4.71-15.39s1.72-11.46,4.71-15.39l.81.62c-2.86,3.75-4.5,9.14-4.5,14.77s1.64,11.02,4.5,14.77l-.81.62Z"/>
        </g>
        <g>
          <path class="cls-5" d="M317.16,39.23l-.94.39c-1.82-4.35-5.66-8.46-10.54-11.28-4.88-2.82-10.36-4.09-15.04-3.49l-.13-1.01c4.89-.63,10.61.69,15.68,3.62,5.07,2.93,9.07,7.22,10.97,11.77Z"/>
          <path class="cls-5" d="M307.54,55.88c-4.89.63-10.61-.69-15.68-3.62-5.07-2.93-9.07-7.22-10.97-11.77l.94-.39c1.82,4.35,5.66,8.46,10.54,11.28,4.88,2.82,10.36,4.09,15.04,3.49l.13,1.01Z"/>
        </g>
        <g>
          <path class="cls-5" d="M400.01,87.06l-.94.39c-1.82-4.35-5.66-8.46-10.54-11.28-4.88-2.82-10.36-4.09-15.04-3.49l-.13-1.01c4.9-.63,10.61.69,15.68,3.62,5.07,2.93,9.07,7.22,10.97,11.77Z"/>
          <path class="cls-5" d="M390.39,103.72c-4.9.63-10.61-.69-15.68-3.62-5.07-2.93-9.07-7.22-10.97-11.77l.94-.39c1.82,4.35,5.66,8.46,10.54,11.28,4.88,2.82,10.36,4.09,15.04,3.49l.13,1.01Z"/>
        </g>
        <g>
          <path class="cls-5" d="M307.54,71.67l-.13,1.01c-4.68-.6-10.16.67-15.04,3.49-4.88,2.82-8.72,6.93-10.54,11.28l-.94-.39c1.9-4.55,5.9-8.84,10.97-11.77,5.07-2.93,10.78-4.25,15.68-3.62Z"/>
          <path class="cls-5" d="M317.16,88.33c-1.9,4.55-5.9,8.84-10.97,11.77-5.07,2.93-10.78,4.25-15.68,3.62l.13-1.01c4.68.6,10.16-.67,15.04-3.49,4.88-2.82,8.72-6.93,10.54-11.28l.94.39Z"/>
        </g>
        <g>
          <path class="cls-5" d="M390.39,23.84l-.13,1.01c-4.68-.6-10.16.67-15.04,3.49-4.88,2.82-8.72,6.93-10.54,11.28l-.94-.39c1.9-4.55,5.9-8.84,10.97-11.77,5.07-2.93,10.78-4.25,15.68-3.62Z"/>
          <path class="cls-5" d="M400.01,40.5c-1.9,4.55-5.9,8.84-10.97,11.77-5.07,2.93-10.78,4.25-15.68,3.62l.13-1.01c4.68.6,10.16-.67,15.04-3.49,4.88-2.82,8.72-6.93,10.54-11.28l.94.39Z"/>
        </g>
      </g>
    </g>
    <g>
      <path class="cls-4" d="M340.46,90.67c-14.83,0-26.89-12.06-26.89-26.89s12.06-26.89,26.89-26.89,26.89,12.06,26.89,26.89-12.06,26.89-26.89,26.89ZM340.46,37.67c-14.4,0-26.11,11.71-26.11,26.11s11.71,26.11,26.11,26.11,26.11-11.71,26.11-26.11-11.71-26.11-26.11-26.11Z"/>
      <g>
        <g>
          <polygon class="cls-1" points="336.21 47.14 334.39 41.15 335.79 47.16 336.21 47.14"/>
          <polygon class="cls-1" points="338.84 49.27 337.4 40.55 338.2 48.7 338.84 49.27"/>
          <polygon class="cls-1" points="333.82 47.27 331.49 42.14 333.43 47.29 333.82 47.27"/>
          <polygon class="cls-1" points="340.81 51.01 340.46 40.35 340.12 50.41 340.81 51.01"/>
          <polygon class="cls-1" points="326.69 55.55 320.17 52.07 326.71 56.14 326.69 55.55"/>
          <polygon class="cls-1" points="326.61 52.92 321.87 49.52 326.63 53.43 326.61 52.92"/>
          <polygon class="cls-1" points="343.65 53.46 346.52 41.15 342.96 52.88 343.65 53.46"/>
          <polygon class="cls-1" points="331.18 47.42 328.74 43.49 330.85 47.43 331.18 47.42"/>
          <polygon class="cls-1" points="328.35 47.83 326.19 45.19 328.21 48.01 328.35 47.83"/>
          <polygon class="cls-1" points="326.82 49.96 323.89 47.22 326.76 50.28 326.82 49.96"/>
          <polygon class="cls-1" points="350.56 59.92 350.51 60.07 350.8 59.94 350.56 59.92"/>
          <polygon class="cls-1" points="350.02 61.51 350.02 61.69 363.09 57.72 350.3 60.7 350.02 61.51"/>
          <polygon class="cls-1" points="350.02 62.48 350.93 62.83 363.68 60.72 350.02 62.07 350.02 62.48"/>
          <polygon class="cls-1" points="351.72 59.52 362.1 54.82 352.37 58.48 351.72 59.52"/>
          <polygon class="cls-1" points="352.44 63.4 352.72 63.51 352.85 64.14 363.88 63.78 352.44 63.4"/>
          <polygon class="cls-1" points="325.76 57.69 325.94 57.5 318.81 54.82 325.61 57.9 325.76 57.69"/>
          <polygon class="cls-1" points="350.82 56.27 359.04 49.52 350.13 55.9 350.82 56.27"/>
          <polygon class="cls-1" points="347.68 54.58 347.91 54.7 354.72 45.19 347.04 54.54 347.68 54.58"/>
          <polygon class="cls-1" points="346.29 54.5 352.17 43.49 345.36 54.44 346.29 54.5"/>
          <polygon class="cls-1" points="352.51 57.19 360.75 52.07 351.84 56.82 352.51 57.19"/>
          <polygon class="cls-1" points="349.31 55.46 357.02 47.22 348.62 55.09 349.31 55.46"/>
          <polygon class="cls-1" points="344.77 54.41 344.81 54.41 349.42 42.14 344.11 53.85 344.77 54.41"/>
          <polygon class="cls-1" points="341.97 52.04 342.35 52.37 343.51 40.55 341.66 51.77 341.97 52.04"/>
          <polygon class="cls-1" points="347.87 77.16 352.17 84.07 348.31 76.84 347.87 77.16"/>
          <polygon class="cls-1" points="348.72 75.07 354.72 82.37 348.15 73.21 348.72 75.07"/>
          <polygon class="cls-1" points="347.95 71.44 348 71.9 357.02 80.35 348.16 70.88 347.95 71.44"/>
          <polygon class="cls-1" points="347.26 80.66 349.42 85.43 347.59 80.57 347.26 80.66"/>
          <polygon class="cls-1" points="345.15 81.89 346.52 86.41 345.46 81.87 345.15 81.89"/>
          <polygon class="cls-1" points="351.61 68.56 351.34 68.7 362.1 72.75 351.6 67.99 351.61 68.56"/>
          <path class="cls-1" d="M352.93,67.17l-.39.22,10.55,2.46-9.8-2.97c-.1.11-.22.22-.36.29Z"/>
          <polygon class="cls-1" points="349.03 70.13 348.55 70.53 359.04 78.04 349.01 69.81 349.03 70.13"/>
          <path class="cls-1" d="M353.68,65.86l10.01.98-10.19-1.68c.12.21.18.45.18.7Z"/>
          <polygon class="cls-1" points="349.65 69.57 360.75 75.5 350.51 69.13 349.65 69.57"/>
          <polygon class="cls-1" points="342.75 82.38 343.51 87.01 343.05 82.3 342.75 82.38"/>
          <polygon class="cls-1" points="338.39 78.63 338.23 78.53 337.4 87.01 338.64 79.47 338.39 78.63"/>
          <polygon class="cls-1" points="334.43 69.8 334.49 69.02 323.89 80.35 335.18 69.78 334.43 69.8"/>
          <path class="cls-1" d="M334.5,69l.03-.34c-.05-.27-.47-1.02-.9-1.61l-.12-.16-.05-.19c-.23-.86-.79-1.12-.92-1.16-.11-.02-.21-.05-.32-.07l-14.4,4.37,15.19-3.54-14.21,6.44,14.6-5.49-13.25,8.24,13.76-7.35-12.06,9.9,12.63-9.04Z"/>
          <path class="cls-1" d="M330.83,64.59l-13.6,2.25,14.72-1.45c-.52-.19-.89-.48-1.13-.8Z"/>
          <path class="cls-1" d="M330.48,63.89l-.32-.55-13.13.43,13.58.45c-.06-.12-.1-.23-.13-.33Z"/>
          <polygon class="cls-1" points="340.3 82.49 340.46 87.21 340.61 82.49 340.3 82.49"/>
          <path class="cls-1" d="M329.31,61.91l-.57-.06-.23-.02-.74-.07c-.3,0-.68.02-1.2.05h-.11s-.11-.01-.11-.01c-.22-.03-.49-.12-.78-.26l-8.34-.82,12.61,2.08-.53-.9Z"/>
          <path class="cls-1" d="M324.17,59.37v-.17s-6.34-1.48-6.34-1.48l6.37,1.93c-.01-.09-.02-.19-.02-.29Z"/>
          <polygon class="cls-1" points="337.1 76.51 337.23 75.22 337.32 75.07 337.2 74.72 337.12 74.7 334.39 86.41 337.33 76.72 337.1 76.51"/>
          <polygon class="cls-1" points="335.97 74.45 336.03 73.36 331.49 85.43 336.42 74.55 335.97 74.45"/>
          <path class="cls-1" d="M336.2,72.08l.02-.47.43-.25.17-.27c-.03-.51-.27-.67-.32-.7l-.4-.13-.06-.31c-.1-.18-.41-.17-.41-.17h-.42s-9.02,12.6-9.02,12.6l9.9-12.06-7.35,13.76,7.46-11.99Z"/>
        </g>
        <g>
          <path class="cls-4" d="M334.4,59.63c-.07,0-.14,0-.21,0l-.48-.04v-1.91c-.05-.1-.19-.29-.46-.25-.18.29-.73,1.07-1.66,1.1l-.6.48c-.1.03-.62.17-.95-.02-.13-.08-.22-.19-.25-.34-.01-.03-.56-1.45-2.07-1.19l-.29.05-.16-4.99-.15-.73.36-1.91,1.37-1.74,7.25-.4,5.35,4.75.19,3.83c.38.19,1.25.81,1.41,2.47l.03.27-4.04.17-.04-.23c-.01-.08-.34-1.92-2.48-1.94l-.6,2.07c-.04.05-.43.48-1.53.48ZM334.22,59.11c.81.04,1.17-.18,1.28-.26l.63-2.28h.19c2.28-.1,2.96,1.53,3.14,2.14l3.05-.13c-.25-1.5-1.15-1.82-1.19-1.84l-.17-.06v-.18s-.2-3.77-.2-3.77l-5.03-4.46-6.81.38-1.15,1.46-.32,1.68.14.68.14,4.45c1.37-.09,2.13.97,2.36,1.58.05.07.29.08.51.02l.61-.52h.1s.01,0,.02,0c.85,0,1.32-.92,1.33-.93l.05-.1.1-.03c.68-.21,1.09.28,1.21.57l.02.1v1.49Z"/>
          <path class="cls-4" d="M328.67,60.97c-.1-.03-.57-.11-2.3,0h-.03s-.03,0-.03,0c-.51-.08-1.48-.53-1.52-1.69v-.32s.3.06.3.06c.01,0,.46.06.91-.58l.06-.09.1-.02c.18-.03.46-.14.52-.26,0-.02.03-.06-.03-.16l-.09-.16.12-.14s.44-.48.97-.65l.16.49c-.26.08-.5.27-.63.4.05.19.01.34-.03.44-.16.33-.58.47-.78.53-.37.49-.76.65-1.03.7.16.73.88.91,1.03.94,1.72-.11,2.28-.04,2.49.04l2.31-.05.24-.2h.55l.47-.13,1.46-1,.29.43-1.57,1.06-.61.15h-.4l-.23.2-2.69.02Z"/>
          <path class="cls-4" d="M347.2,71.44l-.48-.18.43-1.15.63-.53-.04-1.15,1.51-.04,1.15-.59v-.63s2.02-1.13,2.02-1.13c.06-.04.08-.09.09-.12s0-.09-.04-.15l-.62-.67-.13-.62-2.91-1.1v-2.15s.95-2.73.95-2.73l1.1.08.43-.69-3.89-2.1-3.08-.18-3.31-2.79.33-.39,3.18,2.68,3.08.21,4.42,2.38-.88,1.42-1.01-.07-.79,2.32v1.67l2.84,1.08.16.76.52.56c.15.16.21.37.18.58-.03.21-.16.39-.34.5l-1.76.98v.64s-1.59.79-1.59.79l-1.05.03.03.88-.72.6-.38,1.02Z"/>
          <path class="cls-4" d="M342.95,66.08h-.52s.02-1.85.02-1.85c-.08-.19-.14-.54.05-.93l.08-.29-1.46-.1-1.49-1.47-.02-.73-.58-1.09v-.54h.52v.41l.58,1.09.02.65,1.2,1.19,1.89.12-.26.97c-.16.31-.05.52-.04.53l.03.06v.07s-.02,1.91-.02,1.91Z"/>
          <path class="cls-4" d="M340.23,81.87l-.42-1.69-.38-.72-.37-1.21-.53-.34.02-1.01-.63-.59.1-.78.16-.26-.22-.63-.08-.33-.35-.24-.77-.16.04-.6.13-.18.04-.98,1.32-.78,2.19-.09.48-.12.46-.06,1.31-.09.55-.15,3.89.14.23,2.33.84,2.75-1.32.95.22,3.01-1.52.42.22.75-1.79.13-.71.24-1.08.27-2.02.02ZM339.04,77.63l.45.28.41,1.35.4.76.33,1.33,1.58-.02.97-.25.79-.26,1.19-.09-.18-.64,1.61-.45-.21-2.88,1.26-.9-.75-2.44-.2-1.93-3.37-.12-.53.14-1.76.15-.5.12-2.11.1-.97.57-.03.84-.13.2.48.12.56.38.11.5.29.83-.25.42-.04.36.61.57-.02.95Z"/>
          <path class="cls-4" d="M345.98,71.29l-.41-.32.91-1.16.05-.74-.02-.75-.08-.34-.96-.32-.82-1.11-.19-.38h0s-.11-.18-.3-.27l-.33-.18-.28.07-.66.38-1.46,2.57v.22l.26.43.04,1.77h-.52s-.04-1.62-.04-1.62l-.27-.44v-.5l1.6-2.81.88-.5.51-.12.48.27c.34.14.52.45.54.49l.17.35.7.94,1.08.36.16.7.02.8-.06.93-1.01,1.28Z"/>
          <path class="cls-4" d="M338.08,71.88l-.52-.02.03-.69c-.02-1.1-.74-1.44-.77-1.45l-.08-.04-.04-.08c-.35-.64-1.13-.59-1.16-.59l-.31.02.03-.31c.04-.4-.6-1.48-1.07-2.12l-.04-.09c-.39-1.45-1.49-1.74-1.54-1.76-1.23-.16-1.45-.94-1.49-1.18l-1.57-2.67.44-.26,1.63,2.77v.06s.07.64,1.09.78c.09.02,1.44.37,1.92,2.08.23.32.99,1.42,1.12,2.17.35.03.98.18,1.35.78.25.14.97.66.99,1.89l-.03.71Z"/>
        </g>
      </g>
      <path class="cls-3" d="M340.46,87.81c-13.25,0-24.02-10.78-24.02-24.02s10.78-24.02,24.02-24.02,24.02,10.78,24.02,24.02-10.78,24.02-24.02,24.02ZM340.46,40.53c-12.82,0-23.25,10.43-23.25,23.25s10.43,23.25,23.25,23.25,23.25-10.43,23.25-23.25-10.43-23.25-23.25-23.25Z"/>
    </g>
  </g>
</svg>