<?xml version="1.0" encoding="UTF-8"?>
<svg id="Layer_1" data-name="Layer 1" xmlns="http://www.w3.org/2000/svg" xmlns:xlink="http://www.w3.org/1999/xlink" viewBox="0 0 208.61 208.61">
  <defs>
    <style>
      .cls-1 {
        mask: url(#mask-15);
      }

      .cls-2 {
        mask: url(#mask-5);
      }

      .cls-3 {
        mask: url(#mask-13);
      }

      .cls-4 {
        fill: url(#linear-gradient-2);
      }

      .cls-5 {
        fill: url(#linear-gradient-9);
      }

      .cls-5, .cls-6, .cls-7, .cls-8, .cls-9, .cls-10, .cls-11, .cls-12 {
        mix-blend-mode: multiply;
      }

      .cls-6 {
        fill: url(#linear-gradient-13);
      }

      .cls-13 {
        mask: url(#mask-1);
      }

      .cls-14 {
        fill: url(#linear-gradient-10);
      }

      .cls-15 {
        fill: url(#linear-gradient-12);
      }

      .cls-16 {
        mask: url(#mask-10);
      }

      .cls-17 {
        mask: url(#mask-6);
      }

      .cls-18 {
        mask: url(#mask-7);
      }

      .cls-19 {
        filter: url(#luminosity-noclip-15);
      }

      .cls-20 {
        filter: url(#luminosity-noclip-5);
      }

      .cls-21 {
        mask: url(#mask);
      }

      .cls-22 {
        fill: url(#linear-gradient-4);
      }

      .cls-23 {
        mask: url(#mask-8);
      }

      .cls-24 {
        filter: url(#luminosity-noclip-11);
      }

      .cls-25 {
        mask: url(#mask-2);
      }

      .cls-26 {
        fill: #53687a;
      }

      .cls-27 {
        filter: url(#luminosity-noclip-3);
      }

      .cls-28 {
        mask: url(#mask-9);
      }

      .cls-29 {
        fill: url(#linear-gradient-3);
      }

      .cls-30 {
        fill: url(#linear-gradient-5);
      }

      .cls-31 {
        fill: url(#linear-gradient-22);
      }

      .cls-32 {
        fill: url(#linear-gradient-24);
      }

      .cls-7 {
        fill: url(#linear-gradient-21);
      }

      .cls-33 {
        fill: url(#linear-gradient-8);
      }

      .cls-34 {
        filter: url(#luminosity-noclip-13);
      }

      .cls-8 {
        fill: url(#linear-gradient-23);
      }

      .cls-35 {
        fill: url(#linear-gradient-14);
      }

      .cls-36 {
        filter: url(#luminosity-noclip-9);
      }

      .cls-37 {
        fill: url(#linear-gradient-20);
      }

      .cls-38 {
        fill: url(#linear-gradient-7);
      }

      .cls-9 {
        fill: url(#linear-gradient-11);
      }

      .cls-39 {
        fill: url(#linear-gradient-6);
      }

      .cls-10 {
        fill: url(#linear-gradient-17);
      }

      .cls-40 {
        mask: url(#mask-11);
      }

      .cls-41 {
        mask: url(#mask-12);
      }

      .cls-42 {
        mask: url(#mask-4);
      }

      .cls-11 {
        fill: url(#linear-gradient-15);
      }

      .cls-43 {
        fill: url(#linear-gradient-16);
      }

      .cls-12 {
        fill: url(#linear-gradient-19);
      }

      .cls-44 {
        mask: url(#mask-14);
      }

      .cls-45 {
        fill: url(#linear-gradient);
      }

      .cls-46 {
        filter: url(#luminosity-noclip-7);
      }

      .cls-47 {
        fill: url(#linear-gradient-18);
      }

      .cls-48 {
        mask: url(#mask-3);
      }

      .cls-49 {
        filter: url(#luminosity-noclip);
      }
    </style>
    <linearGradient id="linear-gradient" x1="104.31" y1="38.38" x2="104.31" y2="9.01" gradientUnits="userSpaceOnUse">
      <stop offset="0" stop-color="#51d6f2"/>
      <stop offset=".43" stop-color="#2dc9cd"/>
      <stop offset=".78" stop-color="#17c1b6"/>
      <stop offset="1" stop-color="#0fbfae"/>
    </linearGradient>
    <linearGradient id="linear-gradient-2" y1="170.23" y2="199.6" xlink:href="#linear-gradient"/>
    <linearGradient id="linear-gradient-3" x1="9.01" y1="104.31" x2="38.38" y2="104.31" gradientUnits="userSpaceOnUse">
      <stop offset="0" stop-color="#519ef2"/>
      <stop offset="1" stop-color="#0fbfae"/>
    </linearGradient>
    <linearGradient id="linear-gradient-4" x1="170.23" y1="104.31" x2="199.6" y2="104.31" gradientUnits="userSpaceOnUse">
      <stop offset="0" stop-color="#0fbfae"/>
      <stop offset="1" stop-color="#519ef2"/>
    </linearGradient>
    <linearGradient id="linear-gradient-5" x1="122.83" y1="123.48" x2="171.51" y2="171.33" gradientUnits="userSpaceOnUse">
      <stop offset="0" stop-color="#519ef2"/>
      <stop offset=".5" stop-color="#0fbfae"/>
      <stop offset="1" stop-color="#d9e021"/>
    </linearGradient>
    <linearGradient id="linear-gradient-6" x1="85.83" y1="123.27" x2="37.15" y2="171.33" xlink:href="#linear-gradient-5"/>
    <linearGradient id="linear-gradient-7" x1="123.26" y1="85.69" x2="171.43" y2="37.09" xlink:href="#linear-gradient-5"/>
    <linearGradient id="linear-gradient-8" x1="85.27" y1="85.77" x2="36.99" y2="36.86" xlink:href="#linear-gradient-5"/>
    <filter id="luminosity-noclip" x="93.49" y="12.88" width="21.64" height="13.47" color-interpolation-filters="sRGB" filterUnits="userSpaceOnUse">
      <feFlood flood-color="#fff" result="bg"/>
      <feBlend in="SourceGraphic" in2="bg"/>
    </filter>
    <filter id="luminosity-noclip-2" x="93.49" y="-7527.55" width="21.64" height="32766" color-interpolation-filters="sRGB" filterUnits="userSpaceOnUse">
      <feFlood flood-color="#fff" result="bg"/>
      <feBlend in="SourceGraphic" in2="bg"/>
    </filter>
    <mask id="mask-1" x="93.49" y="-7527.55" width="21.64" height="32766" maskUnits="userSpaceOnUse"/>
    <linearGradient id="linear-gradient-9" x1="104.31" y1="8.99" x2="104.31" y2="31.13" gradientUnits="userSpaceOnUse">
      <stop offset="0" stop-color="#b3b3b3"/>
      <stop offset="1" stop-color="#000"/>
    </linearGradient>
    <mask id="mask" x="93.49" y="12.88" width="21.64" height="13.47" maskUnits="userSpaceOnUse">
      <g class="cls-49">
        <g class="cls-13">
          <path class="cls-5" d="M104.31,23.7c-5.97,0-10.82,5.97-10.82,0s4.85-10.82,10.82-10.82,10.82,4.85,10.82,10.82-4.85,0-10.82,0Z"/>
        </g>
      </g>
    </mask>
    <linearGradient id="linear-gradient-10" x1="104.31" y1="8.99" x2="104.31" y2="31.13" gradientUnits="userSpaceOnUse">
      <stop offset="0" stop-color="#fff"/>
      <stop offset="1" stop-color="#fff"/>
    </linearGradient>
    <filter id="luminosity-noclip-3" x="12.88" y="93.48" width="13.47" height="21.64" color-interpolation-filters="sRGB" filterUnits="userSpaceOnUse">
      <feFlood flood-color="#fff" result="bg"/>
      <feBlend in="SourceGraphic" in2="bg"/>
    </filter>
    <filter id="luminosity-noclip-4" x="12.88" y="-7527.55" width="13.47" height="32766" color-interpolation-filters="sRGB" filterUnits="userSpaceOnUse">
      <feFlood flood-color="#fff" result="bg"/>
      <feBlend in="SourceGraphic" in2="bg"/>
    </filter>
    <mask id="mask-3" x="12.88" y="-7527.55" width="13.47" height="32766" maskUnits="userSpaceOnUse"/>
    <linearGradient id="linear-gradient-11" x1="990.29" y1="-688.39" x2="990.29" y2="-666.25" gradientTransform="translate(697.38 1094.6) rotate(-90)" xlink:href="#linear-gradient-9"/>
    <mask id="mask-2" x="12.88" y="93.48" width="13.47" height="21.64" maskUnits="userSpaceOnUse">
      <g class="cls-27">
        <g class="cls-48">
          <path class="cls-9" d="M23.7,104.31c0,5.97,5.97,10.82,0,10.82s-10.82-4.85-10.82-10.82,4.85-10.82,10.82-10.82,0,4.85,0,10.82Z"/>
        </g>
      </g>
    </mask>
    <linearGradient id="linear-gradient-12" x1="990.29" y1="-688.39" x2="990.29" y2="-666.25" gradientTransform="translate(697.38 1094.6) rotate(-90)" xlink:href="#linear-gradient-10"/>
    <filter id="luminosity-noclip-5" x="93.49" y="182.26" width="21.64" height="13.47" color-interpolation-filters="sRGB" filterUnits="userSpaceOnUse">
      <feFlood flood-color="#fff" result="bg"/>
      <feBlend in="SourceGraphic" in2="bg"/>
    </filter>
    <filter id="luminosity-noclip-6" x="93.49" y="-7527.55" width="21.64" height="32766" color-interpolation-filters="sRGB" filterUnits="userSpaceOnUse">
      <feFlood flood-color="#fff" result="bg"/>
      <feBlend in="SourceGraphic" in2="bg"/>
    </filter>
    <mask id="mask-5" x="93.49" y="-7527.55" width="21.64" height="32766" maskUnits="userSpaceOnUse"/>
    <linearGradient id="linear-gradient-13" x1="1687.67" y1="197.59" x2="1687.67" y2="219.73" gradientTransform="translate(1791.98 397.21) rotate(-180)" xlink:href="#linear-gradient-9"/>
    <mask id="mask-4" x="93.49" y="182.26" width="21.64" height="13.47" maskUnits="userSpaceOnUse">
      <g class="cls-20">
        <g class="cls-2">
          <path class="cls-6" d="M104.31,184.91c5.97,0,10.82-5.97,10.82,0s-4.85,10.82-10.82,10.82-10.82-4.85-10.82-10.82,4.85,0,10.82,0Z"/>
        </g>
      </g>
    </mask>
    <linearGradient id="linear-gradient-14" x1="1687.67" y1="197.59" x2="1687.67" y2="219.73" gradientTransform="translate(1791.98 397.21) rotate(-180)" xlink:href="#linear-gradient-10"/>
    <filter id="luminosity-noclip-7" x="182.26" y="93.48" width="13.47" height="21.64" color-interpolation-filters="sRGB" filterUnits="userSpaceOnUse">
      <feFlood flood-color="#fff" result="bg"/>
      <feBlend in="SourceGraphic" in2="bg"/>
    </filter>
    <filter id="luminosity-noclip-8" x="182.26" y="-7527.55" width="13.47" height="32766" color-interpolation-filters="sRGB" filterUnits="userSpaceOnUse">
      <feFlood flood-color="#fff" result="bg"/>
      <feBlend in="SourceGraphic" in2="bg"/>
    </filter>
    <mask id="mask-7" x="182.26" y="-7527.55" width="13.47" height="32766" maskUnits="userSpaceOnUse"/>
    <linearGradient id="linear-gradient-15" x1="801.69" y1="894.97" x2="801.69" y2="917.11" gradientTransform="translate(1094.6 -697.38) rotate(90)" xlink:href="#linear-gradient-9"/>
    <mask id="mask-6" x="182.26" y="93.48" width="13.47" height="21.64" maskUnits="userSpaceOnUse">
      <g class="cls-46">
        <g class="cls-18">
          <path class="cls-11" d="M184.92,104.31c0-5.97-5.97-10.82,0-10.82s10.82,4.85,10.82,10.82-4.85,10.82-10.82,10.82,0-4.85,0-10.82Z"/>
        </g>
      </g>
    </mask>
    <linearGradient id="linear-gradient-16" x1="801.69" y1="894.97" x2="801.69" y2="917.11" gradientTransform="translate(1094.6 -697.38) rotate(90)" xlink:href="#linear-gradient-10"/>
    <filter id="luminosity-noclip-9" x="40.05" y="37.06" width="38.27" height="41.27" color-interpolation-filters="sRGB" filterUnits="userSpaceOnUse">
      <feFlood flood-color="#fff" result="bg"/>
      <feBlend in="SourceGraphic" in2="bg"/>
    </filter>
    <filter id="luminosity-noclip-10" x="40.05" y="-7527.55" width="38.27" height="32766" color-interpolation-filters="sRGB" filterUnits="userSpaceOnUse">
      <feFlood flood-color="#fff" result="bg"/>
      <feBlend in="SourceGraphic" in2="bg"/>
    </filter>
    <mask id="mask-9" x="40.05" y="-7527.55" width="38.27" height="32766" maskUnits="userSpaceOnUse"/>
    <linearGradient id="linear-gradient-17" x1="69.87" y1="45.13" x2="56.19" y2="63.13" xlink:href="#linear-gradient-9"/>
    <mask id="mask-8" x="40.05" y="37.06" width="38.27" height="41.27" maskUnits="userSpaceOnUse">
      <g class="cls-36">
        <g class="cls-28">
          <path class="cls-10" d="M78.32,78.32c-6.25-15.72-16.28-30.79-23.76-38.27-1.94-1.93-4.51-3-7.26-3s-5.32,1.07-7.25,3t0,0l38.27,38.27Z"/>
        </g>
      </g>
    </mask>
    <linearGradient id="linear-gradient-18" x1="69.87" y1="45.13" x2="56.19" y2="63.13" xlink:href="#linear-gradient-10"/>
    <filter id="luminosity-noclip-11" x="37.06" y="130.29" width="41.27" height="38.27" color-interpolation-filters="sRGB" filterUnits="userSpaceOnUse">
      <feFlood flood-color="#fff" result="bg"/>
      <feBlend in="SourceGraphic" in2="bg"/>
    </filter>
    <filter id="luminosity-noclip-12" x="37.06" y="-7527.55" width="41.27" height="32766" color-interpolation-filters="sRGB" filterUnits="userSpaceOnUse">
      <feFlood flood-color="#fff" result="bg"/>
      <feBlend in="SourceGraphic" in2="bg"/>
    </filter>
    <mask id="mask-11" x="37.06" y="-7527.55" width="41.27" height="32766" maskUnits="userSpaceOnUse"/>
    <linearGradient id="linear-gradient-19" x1="955.85" y1="-652.25" x2="942.18" y2="-634.25" gradientTransform="translate(697.38 1094.6) rotate(-90)" xlink:href="#linear-gradient-9"/>
    <mask id="mask-10" x="37.06" y="130.29" width="41.27" height="38.27" maskUnits="userSpaceOnUse">
      <g class="cls-24">
        <g class="cls-40">
          <path class="cls-12" d="M78.32,130.29c-15.72,6.25-30.79,16.28-38.27,23.76-1.93,1.94-3,4.51-3,7.26s1.07,5.32,3,7.25t0,0l38.27-38.27Z"/>
        </g>
      </g>
    </mask>
    <linearGradient id="linear-gradient-20" x1="955.85" y1="-652.25" x2="942.18" y2="-634.25" gradientTransform="translate(697.38 1094.6) rotate(-90)" xlink:href="#linear-gradient-10"/>
    <filter id="luminosity-noclip-13" x="130.29" y="130.29" width="38.27" height="41.27" color-interpolation-filters="sRGB" filterUnits="userSpaceOnUse">
      <feFlood flood-color="#fff" result="bg"/>
      <feBlend in="SourceGraphic" in2="bg"/>
    </filter>
    <filter id="luminosity-noclip-14" x="130.29" y="-7527.55" width="38.27" height="32766" color-interpolation-filters="sRGB" filterUnits="userSpaceOnUse">
      <feFlood flood-color="#fff" result="bg"/>
      <feBlend in="SourceGraphic" in2="bg"/>
    </filter>
    <mask id="mask-13" x="130.29" y="-7527.55" width="38.27" height="32766" maskUnits="userSpaceOnUse"/>
    <linearGradient id="linear-gradient-21" x1="1653.23" y1="233.73" x2="1639.56" y2="251.73" gradientTransform="translate(1791.98 397.21) rotate(-180)" xlink:href="#linear-gradient-9"/>
    <mask id="mask-12" x="130.29" y="130.29" width="38.27" height="41.27" maskUnits="userSpaceOnUse">
      <g class="cls-34">
        <g class="cls-3">
          <path class="cls-7" d="M130.29,130.29c6.25,15.72,16.28,30.79,23.76,38.27,1.94,1.93,4.51,3,7.26,3s5.32-1.07,7.25-3h0s-38.27-38.27-38.27-38.27Z"/>
        </g>
      </g>
    </mask>
    <linearGradient id="linear-gradient-22" x1="1653.23" y1="233.73" x2="1639.56" y2="251.73" gradientTransform="translate(1791.98 397.21) rotate(-180)" xlink:href="#linear-gradient-10"/>
    <filter id="luminosity-noclip-15" x="130.29" y="40.05" width="41.27" height="38.27" color-interpolation-filters="sRGB" filterUnits="userSpaceOnUse">
      <feFlood flood-color="#fff" result="bg"/>
      <feBlend in="SourceGraphic" in2="bg"/>
    </filter>
    <filter id="luminosity-noclip-16" x="130.29" y="-7527.55" width="41.27" height="32766" color-interpolation-filters="sRGB" filterUnits="userSpaceOnUse">
      <feFlood flood-color="#fff" result="bg"/>
      <feBlend in="SourceGraphic" in2="bg"/>
    </filter>
    <mask id="mask-15" x="130.29" y="-7527.55" width="41.27" height="32766" maskUnits="userSpaceOnUse"/>
    <linearGradient id="linear-gradient-23" x1="767.25" y1="931.11" x2="753.57" y2="949.11" gradientTransform="translate(1094.6 -697.38) rotate(90)" xlink:href="#linear-gradient-9"/>
    <mask id="mask-14" x="130.29" y="40.05" width="41.27" height="38.27" maskUnits="userSpaceOnUse">
      <g class="cls-19">
        <g class="cls-1">
          <path class="cls-8" d="M130.29,78.32c15.72-6.25,30.79-16.28,38.27-23.76,1.93-1.94,3-4.51,3-7.26s-1.07-5.32-3-7.25t0,0l-38.27,38.27Z"/>
        </g>
      </g>
    </mask>
    <linearGradient id="linear-gradient-24" x1="767.25" y1="931.11" x2="753.57" y2="949.11" gradientTransform="translate(1094.6 -697.38) rotate(90)" xlink:href="#linear-gradient-10"/>
  </defs>
  <path class="cls-26" d="M120.76,113.14c-.5-3.03-.76-5.98-.76-8.83s.27-5.8.76-8.83c22.42-5.45,46.06-20.16,57.3-31.41,4.48-4.47,6.94-10.43,6.94-16.76s-2.46-12.28-6.94-16.76c-9.24-9.24-24.27-9.24-33.51,0-11.25,11.25-25.96,34.88-31.41,57.3-6.06.99-11.61.99-17.66,0-5.45-22.42-20.16-46.06-31.41-57.3-9.24-9.24-24.27-9.24-33.51,0-4.48,4.48-6.94,10.43-6.94,16.76s2.46,12.28,6.94,16.76c11.25,11.25,34.88,25.96,57.3,31.41.5,3.03.76,5.99.76,8.83s-.27,5.8-.76,8.83c-22.42,5.45-46.06,20.16-57.3,31.41-4.48,4.47-6.94,10.43-6.94,16.76s2.46,12.28,6.94,16.76c9.24,9.24,24.27,9.24,33.51,0,11.25-11.25,25.96-34.88,31.41-57.3,6.06-.99,11.61-.99,17.66,0,5.45,22.42,20.16,46.06,31.41,57.3,4.62,4.62,10.69,6.93,16.76,6.93s12.14-2.31,16.76-6.93c4.48-4.48,6.94-10.43,6.94-16.76s-2.46-12.28-6.94-16.76c-11.25-11.25-34.88-25.96-57.3-31.41ZM111.42,111.42c-2.42-.29-4.8-.44-7.12-.44s-4.7.15-7.12.44c.29-2.42.44-4.8.44-7.12s-.15-4.7-.44-7.12c4.84.58,9.4.58,14.24,0-.29,2.42-.44,4.8-.44,7.12s.15,4.7.44,7.12Z"/>
  <path class="cls-26" d="M104.31,47.4c-13.07,0-23.7-10.63-23.7-23.7S91.24,0,104.31,0s23.7,10.63,23.7,23.7-10.63,23.7-23.7,23.7Z"/>
  <path class="cls-45" d="M104.31,9.01c-8.1,0-14.68,6.59-14.68,14.68s6.59,14.68,14.68,14.68,14.68-6.59,14.68-14.68-6.59-14.68-14.68-14.68Z"/>
  <path class="cls-26" d="M104.31,208.61c-13.07,0-23.7-10.63-23.7-23.7s10.63-23.7,23.7-23.7,23.7,10.63,23.7,23.7-10.63,23.7-23.7,23.7Z"/>
  <path class="cls-4" d="M104.31,170.23c-8.1,0-14.68,6.59-14.68,14.68s6.59,14.68,14.68,14.68,14.68-6.59,14.68-14.68-6.59-14.68-14.68-14.68Z"/>
  <path class="cls-26" d="M23.7,128c-13.07,0-23.7-10.63-23.7-23.7s10.63-23.7,23.7-23.7,23.7,10.63,23.7,23.7-10.63,23.7-23.7,23.7Z"/>
  <path class="cls-29" d="M23.7,89.62c-8.1,0-14.68,6.59-14.68,14.68s6.59,14.68,14.68,14.68,14.68-6.59,14.68-14.68-6.59-14.68-14.68-14.68Z"/>
  <path class="cls-26" d="M184.92,128c-13.07,0-23.7-10.63-23.7-23.7s10.63-23.7,23.7-23.7,23.7,10.63,23.7,23.7-10.63,23.7-23.7,23.7Z"/>
  <path class="cls-22" d="M184.92,89.62c-8.1,0-14.68,6.59-14.68,14.68s6.59,14.68,14.68,14.68,14.68-6.59,14.68-14.68-6.59-14.68-14.68-14.68Z"/>
  <path class="cls-30" d="M123.09,123.09c5.75,19.25,18.37,39.14,27.83,48.6,2.77,2.77,6.46,4.3,10.38,4.3s7.61-1.53,10.38-4.3c2.77-2.77,4.3-6.46,4.3-10.38s-1.53-7.61-4.3-10.38c-9.46-9.46-29.35-22.08-48.6-27.83Z"/>
  <path class="cls-39" d="M85.52,123.09c-19.25,5.75-39.14,18.37-48.6,27.83-2.77,2.77-4.3,6.46-4.3,10.38s1.53,7.61,4.3,10.38c2.77,2.77,6.46,4.3,10.38,4.3s7.61-1.53,10.38-4.3c9.46-9.46,22.08-29.35,27.83-48.6Z"/>
  <path class="cls-38" d="M161.31,32.63c-3.76,0-7.52,1.43-10.38,4.29-9.46,9.46-22.08,29.35-27.83,48.6,19.25-5.75,39.14-18.37,48.6-27.83,2.77-2.77,4.3-6.46,4.3-10.38s-1.53-7.61-4.3-10.38c-2.86-2.86-6.62-4.29-10.38-4.29Z"/>
  <path class="cls-33" d="M47.31,32.63c-3.76,0-7.52,1.43-10.38,4.29-2.77,2.77-4.3,6.46-4.3,10.38s1.53,7.61,4.3,10.38c9.46,9.46,29.35,22.08,48.6,27.83-5.75-19.25-18.37-39.14-27.83-48.6-2.86-2.86-6.62-4.29-10.38-4.29Z"/>
  <g class="cls-21">
    <path class="cls-14" d="M104.31,23.7c-5.97,0-10.82,5.97-10.82,0s4.85-10.82,10.82-10.82,10.82,4.85,10.82,10.82-4.85,0-10.82,0Z"/>
  </g>
  <g class="cls-25">
    <path class="cls-15" d="M23.7,104.31c0,5.97,5.97,10.82,0,10.82s-10.82-4.85-10.82-10.82,4.85-10.82,10.82-10.82,0,4.85,0,10.82Z"/>
  </g>
  <g class="cls-42">
    <path class="cls-35" d="M104.31,184.91c5.97,0,10.82-5.97,10.82,0s-4.85,10.82-10.82,10.82-10.82-4.85-10.82-10.82,4.85,0,10.82,0Z"/>
  </g>
  <g class="cls-17">
    <path class="cls-43" d="M184.92,104.31c0-5.97-5.97-10.82,0-10.82s10.82,4.85,10.82,10.82-4.85,10.82-10.82,10.82,0-4.85,0-10.82Z"/>
  </g>
  <g class="cls-23">
    <path class="cls-47" d="M78.32,78.32c-6.25-15.72-16.28-30.79-23.76-38.27-1.94-1.93-4.51-3-7.26-3s-5.32,1.07-7.25,3t0,0l38.27,38.27Z"/>
  </g>
  <g class="cls-16">
    <path class="cls-37" d="M78.32,130.29c-15.72,6.25-30.79,16.28-38.27,23.76-1.93,1.94-3,4.51-3,7.26s1.07,5.32,3,7.25t0,0l38.27-38.27Z"/>
  </g>
  <g class="cls-41">
    <path class="cls-31" d="M130.29,130.29c6.25,15.72,16.28,30.79,23.76,38.27,1.94,1.93,4.51,3,7.26,3s5.32-1.07,7.25-3h0s-38.27-38.27-38.27-38.27Z"/>
  </g>
  <g class="cls-44">
    <path class="cls-32" d="M130.29,78.32c15.72-6.25,30.79-16.28,38.27-23.76,1.93-1.94,3-4.51,3-7.26s-1.07-5.32-3-7.25t0,0l-38.27,38.27Z"/>
  </g>
</svg>