<?xml version="1.0" encoding="UTF-8"?>
<svg width="450px" height="134px" viewBox="0 0 450 134" version="1.1" xmlns="http://www.w3.org/2000/svg" xmlns:xlink="http://www.w3.org/1999/xlink">
    <title>pay-option-stcpay</title>
    <g id="Page-1" stroke="none" stroke-width="1" fill="none" fill-rule="evenodd">
        <g id="pay-option-stcpay" fill-rule="nonzero">
            <path d="M291.862,98.563 L291.862,28.673 L303.714,28.673 L303.714,34.277 C307.321,29.768 312.668,27.32 319.302,27.32 C332.958,27.32 342.749,38.206 342.749,53.794 C342.749,69.382 332.894,80.462 319.302,80.462 C312.603,80.462 307.321,77.885 303.714,73.376 L303.714,98.562 L291.862,98.562 L291.862,98.563 Z M303.715,47.354 L303.715,60.237 C306.227,65.455 310.736,69.255 317.242,69.255 C325.101,69.255 330.383,63.393 330.383,53.731 C330.383,44.198 325.101,38.4 317.242,38.4 C310.736,38.464 306.227,42.007 303.715,47.354" id="Shape" fill="#02AA7C"></path>
            <path d="M350.415,64.617 C350.415,56.114 355.697,50.188 364.457,49.093 L384.619,46.516 L384.619,44.004 C384.619,40.977 383.073,39.366 380.239,39.366 L354.924,39.366 L354.924,28.609 L380.69,28.609 C390.932,28.609 396.536,33.633 396.536,42.523 L396.536,78.917 L384.555,78.917 L384.555,72.798 C381.077,77.694 375.344,80.463 367.936,80.463 C357.501,80.463 350.415,74.086 350.415,64.617 M370.834,70.8 C376.889,70.8 382.493,67.386 384.554,62.362 L384.554,56.049 L369.159,58.175 C364.908,58.755 362.524,61.009 362.524,64.681 C362.525,68.61 365.552,70.8 370.834,70.8" id="Shape" fill="#02AA7C"></path>
            <path d="M405.167,87.806 L413.799,87.806 C417.084,87.806 418.566,86.453 419.661,83.361 L421.207,78.916 L402.913,28.608 L415.281,28.608 L426.682,63.65 L426.94,63.65 L437.826,28.608 L450,28.608 L429.967,86.388 C427.262,94.311 423.654,98.562 414.83,98.562 L405.168,98.562 L405.167,87.806 L405.167,87.806 Z" id="Path" fill="#02AA7C"></path>
            <path d="M43.48,133.154 C57.265,133.154 68.602,128.838 76.074,121.624 C81.678,116.084 84.963,108.612 84.963,99.981 C84.963,92.187 82.064,85.166 76.718,79.819 C71.372,74.472 63.706,70.543 54.044,68.675 L38.198,65.583 C31.628,64.359 27.892,61.074 27.892,56.501 C27.892,50.51 33.689,46.388 42.965,46.388 C48.762,46.388 53.722,48.256 57.007,51.541 C59.068,53.796 60.485,56.694 60.936,59.979 L83.803,54.826 C83.159,48.256 80.067,42.458 75.365,37.692 C67.829,30.284 56.298,25.582 42.707,25.582 C30.146,25.582 19.647,29.705 12.368,36.275 C6.184,42.072 2.706,49.866 2.706,58.562 C2.706,66.163 5.154,72.604 10.114,77.5 C15.074,82.46 22.288,86.132 31.757,88.45 L47.41,92.186 C55.269,94.054 58.747,96.953 58.747,102.106 C58.747,108.483 52.95,112.219 43.481,112.219 C36.653,112.219 31.113,109.964 27.635,106.228 C25.187,103.78 23.706,100.431 23.512,96.759 L0,101.913 C0.644,108.934 3.929,115.118 8.889,120.078 C16.683,128.258 29.309,133.154 43.48,133.154 M217.528,133.154 C232.794,133.154 244.518,127.614 252.569,119.756 C258.946,113.572 262.875,106.358 264.937,98.95 L240.846,90.898 C239.815,94.634 237.754,98.563 234.469,101.591 C230.54,105.327 225.193,107.968 217.528,107.968 C210.507,107.968 203.937,105.263 199.17,100.56 C194.403,95.6 191.505,88.386 191.505,79.303 C191.505,70.027 194.404,63.006 199.17,58.046 C203.872,53.279 210.314,50.832 217.335,50.832 C224.743,50.832 229.896,53.28 233.632,57.016 C236.724,60.108 238.592,64.037 239.816,67.966 L264.358,59.721 C262.49,52.507 258.561,45.292 252.828,39.302 C244.583,31.25 232.602,25.517 216.756,25.517 C202.134,25.517 188.929,31.057 179.46,40.59 C169.991,50.252 164.194,63.715 164.194,79.368 C164.194,95.021 170.185,108.419 179.847,118.146 C189.25,127.614 202.648,133.154 217.528,133.154 M134.24,133.154 C144.933,133.154 152.598,129.869 155.883,126.97 L155.883,104.683 C153.371,106.551 148.475,108.806 142.034,108.806 C137.461,108.806 134.175,107.775 131.728,105.521 C129.667,103.46 128.636,99.917 128.636,95.215 L128.636,0.848 L101.389,0.848 L101.389,28.675 L155.819,28.675 L155.819,55.085 L101.389,55.085 L101.389,101.914 C101.389,111.383 104.288,119.048 109.441,124.395 C115.238,130.062 123.74,133.154 134.24,133.154" id="Shape" fill="#502C84"></path>
        </g>
    </g>
</svg>