<?xml version="1.0" encoding="UTF-8"?>
<svg width="894px" height="298px" viewBox="0 0 894 298" version="1.1" xmlns="http://www.w3.org/2000/svg" xmlns:xlink="http://www.w3.org/1999/xlink">
    <title>pay-option-mada</title>
    <g id="Page-1" stroke="none" stroke-width="1" fill="none" fill-rule="evenodd">
        <g id="pay-option-mada" fill-rule="nonzero">
            <path d="M892.976,62.56 C892.376,65.06 891.799,67.567 891.159,70.06 C885.159,93.416 865.977,107.534 840.868,106.895 C831.312166,106.719486 821.834091,105.139582 812.738,102.206 C809.638,101.188 805.738,102.555 802.211,102.862 C797.536,103.268 792.864,104.062 788.191,104.071 C744.263,104.165 700.335,104.183667 656.407,104.127 L651.607,104.127 C652.707,96.874 653.737,90.048 654.736,83.448 L709.904,83.448 C709.561,83.864 709.836,83.686 709.833,83.512 C709.605,70.012 709.459,56.512 709.014,43.012 C708.931,40.501 707.85,37.942 706.866,35.555 C703.328,26.974 696.861,22.574 687.53,22.54 C680.208,22.513 672.887,22.531 665.566,22.529 L661.188,22.529 C662.158,15.729 662.982,9.487 664.017,3.281 C664.356102,2.33545264 665.155075,1.6289008 666.135,1.408 C678.523,1.64 691.066,0.913 703.257,2.637 C721.518,5.219 734.694,19.815 737.878,39.269 C739.052,46.445 739.141,53.823 739.391,61.121 C739.633,68.166 739.444,75.221 739.444,82.549 C740.762,82.649 741.831,82.798 742.899,82.799 C758.783,82.814 774.667,82.712 790.549,82.89 C793.823,82.927 795.068,81.49 795.399,78.71 C795.602776,76.7354953 795.691593,74.7508139 795.665,72.766 C795.687,59.489 795.658,46.211 795.682,32.933 C795.709,17.479 802.021,8.533 816.798,3.933 C822.666,2.105 828.848,1.281 834.887,-1.13686838e-13 L847.548,-1.13686838e-13 C848.479278,0.300866133 849.428039,0.544652065 850.389,0.73 C870.612,3.439 885.375,16.34 890.757,36.1 C891.596,39.183 892.243,42.319 892.979,45.43 L892.976,62.56 Z M822.922,28.66 C823.233,32.546 823.699,35.833 823.722,39.124 C823.811,51.642 823.873,64.164 823.677,76.679 C823.628,79.76 824.729,80.894 827.55,81.079 C832.491,81.409 837.422,82.058 842.365,82.154 C853.065,82.361 860.065,77.254 862.95,66.981 C865.54064,57.7342322 865.570366,47.9573497 863.036,38.695 C861.549,33.077 858.489,28.187 852.75,26.328 C842.393,22.981 832.326,24.906 822.922,28.664 L822.922,28.66 Z" id="Path_1" fill="#26292C"></path>
            <path d="M641.205,1.812 C640.14,8.78 639.112,15.507 638.005,22.718 L633.558,22.718 C614.940667,22.718 596.323333,22.7233333 577.706,22.734 C575.101125,22.6953699 572.496313,22.8152581 569.906,23.093 C562.295,24.042 558.261,28.793 558.606,36.169 C558.952,43.469 563.506,48.307 570.863,48.51 C580.288,48.771 589.728,48.496 599.156,48.701 C603.368631,48.7328267 607.56888,49.1617242 611.701,49.982 C627.309,53.327 637.218,65.811 636.989,81.797 C636.963994,85.8869106 636.474183,89.9607258 635.529,93.94 C632.358,106.718 623.011,112.876 610.906,115.258 C604.700813,116.465058 598.394494,117.076503 592.073,117.084 C550.745,117.17 509.413,117.258 468.088,116.859 C442.313,116.61 425.26,99.868 423.797,74.181 C423.077,61.548 422.487,48.869 426.008,36.469 C431.83,15.974 447.839,3.491 469.183,3.113 C482.195,2.882 495.214,3.07 508.509,3.07 C507.463,10.202 506.462,17.035 505.391,24.342 C500.384,24.342 495.452,24.332 490.521,24.342 C485.681,24.355 480.835,24.254 476.002,24.45 C467.254,24.806 460.725,29.008 457.414,37.05 C455.486325,41.608408 454.376378,46.4706456 454.135,51.414 C453.845,60.419 453.735,69.584 455.08,78.449 C456.642,88.698 463.68,94.78 473.98,95.401 C486.101,96.132 498.28,95.936 510.438,95.979 C537.122,96.0743333 563.806333,96.1093333 590.491,96.084 C592.472943,96.1306105 594.454969,95.994704 596.412,95.678 C604.486,94.169 609.112,88.212 608.44,80.366 C607.78,72.592 602.223,67.566 593.92,67.426 C582.259,67.226 570.577,67.488 558.938,66.884 C545.125,66.168 535.118,58.397 531.52,46.567 C527.354,32.867 531.163,18.436 541.134,10.667 C549.088,4.467 558.507,1.902 568.266,1.726 C592.088,1.295 615.921,1.494 639.749992,1.453 C640.245271,1.52633738 640.732458,1.64654367 641.205,1.812 L641.205,1.812 Z" id="Path_2" fill="#26292C"></path>
            <rect id="Rectangle_1" fill="#008BCF" x="0" y="0" width="377.597" height="125.121"></rect>
            <rect id="Rectangle_2" fill="#80AA2C" x="0" y="170.559" width="377.597" height="125.121"></rect>
            <g id="Group_1" transform="translate(422.488000, 148.953000)" fill="#26292C">
                <path d="M470.488,148.953 C461.227,147.277 451.988,145.444 442.688,144.025 C440.105,143.625 437.299,144.278 434.655,144.766 C423.37,146.853 412.098,148.197 400.755,145.202 C387.29,141.646 379.639,132.173 379.18,118.455 C378.703,104.233 385.272,94.047 399.015,90.206 C407.14,87.935 415.792,87.353 424.259,86.569 C430.021,86.035 435.872,86.469 441.613,86.469 C444.396,74.669 438.958,67.297 427.228,67.091 C414.312,66.865 401.907,69.775 389.765,73.954 C388.613,74.354 387.44,74.682 385.923,75.154 C384.88,68.091 383.875,61.288 382.832,54.223 C402.901,47.788 422.842,41.997 444.098,46.241 C459.61,49.341 467.842,58.27 469.826,73.851 C469.996684,74.8158757 470.217652,75.7711772 470.488,76.713 L470.488,148.953 Z M431.345,103.544 L431.251,103.089 C425.901,103.839 420.4,104.046 415.245,105.489 C409.901,106.984 407.419,112.007 407.904,117.836 C408.319,122.827 411.289,126.872 416.678,127.373 C422.302058,127.814354 427.959852,127.504292 433.502,126.451 C442.718,124.808 442.719,124.49 442.633,115.039 C442.599,111.383 443.549,106.551 441.638,104.429 C439.954,102.56 434.906,103.721 431.345,103.544 Z" id="Path_3"></path>
                <path d="M144.726,145.7 L115.515,145.7 L115.515,141.126 C115.515,122.508 115.511333,103.89 115.504,85.272 C115.541569,83.2863564 115.461764,81.3002277 115.265,79.324 C114.59,73.691 110.939,69.864 105.446,69.269 C99.1466707,68.4986021 92.7597501,69.5938604 87.077,72.419 C87.269,80.619 87.565,88.351 87.607,96.087 C87.69,111.23 87.632,126.373 87.632,141.516 L87.632,145.704 L58.489,145.704 L58.489,141.42 C58.489,122.802 58.314,104.181 58.544,85.566 C58.724,71.071 52.228,67.303 38.656,69.687 C30.517,71.117 30.556,71.327 30.556,79.469 L30.556,145.569 L0.909,145.569 L0.909,141.082 C0.909,117.002 0.909,92.9223333 0.909,68.843 C0.915,56.633 4.015,52.509 15.849,49.27 C30.475,45.27 45.304,43.308 60.355,46.309 C64.444535,47.2605604 68.3891867,48.7523315 72.085,50.745 C73.7119439,51.780591 75.7548374,51.9144462 77.503,51.1 C91.843,45.062 106.659,43.206 121.889,46.928 C135.257,50.194 143.628,59.593 144.121,73.31 C144.806,92.4 144.575,111.523 144.721,130.632 C144.757,135.576 144.726,140.516 144.726,145.7 Z" id="Path_4"></path>
                <path d="M333.2,49.221 L333.2,44.875 C333.2,32.717 333.229,20.559 333.174,8.401 C333.165,6.456 333.419,5.115 335.726,4.746 C344.526,3.336 353.308,1.803 362.646,0.222 L362.646,4.41 C362.646,44.358 362.644,84.306 362.64,124.254 C362.64,135.695 360.13,139.19 349.23,142.54 C335.190609,146.881484 320.351246,147.99218 305.822,145.789 C284.639,142.635 270.477,126.689 268.785,104.443 C268.059,94.889 268.358,85.38 270.84,76.009 C275.819,57.209 289.208,46.049 308.615,45.655 C315.204,45.521 321.833,47.099 328.433,47.975 C330.044768,48.2977582 331.636444,48.7137911 333.2,49.221 L333.2,49.221 Z M333.2,96.821 L333.2,82.321 C333.2,69.029 333.2,69.029 319.759,67.837 C309.369,66.916 301.802,71.953 299.159,82.003 C296.718279,91.1552836 296.740704,100.790177 299.224,109.931 C301.988,120.216 309.032,125.409 319.678,125.211 C322.878,125.152 326.057,124.444 329.259,124.199 C332.278,123.967 333.399,122.713 333.285,119.499 C333.017,111.944 333.2,104.377 333.2,96.817 L333.2,96.821 Z" id="Path_5"></path>
                <path d="M223.894,86.5 C224.856,71.6 220.259,66.692 206.052,67.09 C194.301,67.419 182.973,70.062 171.898,73.89 C170.743,74.29 169.571,74.637 167.865,75.181 C166.914,68.521 165.944,62.081 165.153,55.616 C165.300718,54.7445934 165.87408,54.0046256 166.681,53.644 C182.664,48.514 198.781,44.019 215.827,44.899 C218.430787,45.0247693 221.024738,45.3059365 223.595,45.741 C242.785,49.064 251.871,59.59 252.027,79.197 C252.205,101.539 252.073,123.882 252.069,146.225 C252.069,146.961 251.994,147.696 251.93,148.852 C248.659,148.295 245.498,147.974 242.453,147.199 C230.722321,144.038029 218.411654,143.687206 206.52,146.175 C197.707322,148.02701 188.55519,147.421988 180.063,144.426 C167.986,140.255 161.448,131.265 161.068,118.363 C160.68,105.207 166.407,95.958 178.168,90.999 C186.19,87.617 194.711,86.744 203.297,86.536 C210.09,86.368 216.887,86.5 223.894,86.5 Z M224.494,104.286 C215.994,104.286 208.164,103.776 200.437,104.436 C193.385,105.036 189.357,110.536 189.7,117.295 C190.018,123.559 194.554,128.295 201.65,127.948 C208.746,127.601 215.78,125.818 222.814,124.517 C223.651773,124.167632 224.256312,123.418636 224.421,122.526 C224.551,116.469 224.5,110.409 224.5,104.285 L224.494,104.286 Z" id="Path_6"></path>
            </g>
        </g>
    </g>
</svg>