<?xml version="1.0" encoding="UTF-8"?>
<svg id="Layer_1" data-name="Layer 1" xmlns="http://www.w3.org/2000/svg" viewBox="0 0 604.64 482.98">
  <defs>
    <style>
      .cls-1 {
        fill: #42b07a;
      }

      .cls-2 {
        fill: #263370;
      }

      .cls-3 {
        fill: #0f7fad;
      }
    </style>
  </defs>
  <g>
    <path class="cls-2" d="M286.21,261.69c-24.46,0-44.39-19.93-44.39-44.39s19.93-44.39,44.39-44.39,44.39,19.93,44.39,44.39-19.93,44.39-44.39,44.39ZM286.21,196.08c-11.78,0-21.22,9.58-21.22,21.22s9.58,21.22,21.22,21.22,21.22-9.58,21.22-21.22-9.58-21.22-21.22-21.22Z"/>
    <path class="cls-3" d="M460.52,147.43h0c6.34,0,11.65,5.18,11.65,11.65v91.1c0,6.34-5.18,11.52-11.65,11.52h0c-6.34,0-11.65-5.18-11.65-11.52v-91.23c0-6.34,5.18-11.52,11.65-11.52Z"/>
    <path class="cls-2" d="M391.55,261.69h0c-23.68,0-44-19.28-44-42.96,0-33.78-26.66-61.86-59.53-62.76-16.69-.52-32.48,5.69-44.52,17.34-9.58,9.32-15.79,21.35-17.86,34.29-.91,5.56-5.82,9.58-11.39,9.58h0c-7.12,0-12.55-6.34-11.52-13.33,2.85-17.86,11.26-34.29,24.46-47.23,16.43-16.05,38.31-24.59,61.21-23.94,45.16,1.29,81.92,39.6,82.05,85.67,0,11,8.8,20.06,19.8,20.06h0c7.76,0,13.98-6.21,13.98-13.98v-40.25c0-6.34,5.18-11.65,11.65-11.65h0c6.34,0,11.65,5.18,11.65,11.65v41.28c0,19.93-16.18,36.11-36.11,36.11h0l.13.13Z"/>
    <path class="cls-2" d="M129.11,284.86c-22.39.39-40.63-18.63-40.63-41.02v-47.88c0-6.34,5.18-11.65,11.52-11.65h0c6.34,0,11.52,5.18,11.52,11.65v48.4c0,8.54,6.08,16.18,14.62,17.21,10.22,1.29,19.02-6.73,19.02-16.69v-60.56h23.16v60.56c0,21.74-17.6,39.6-39.34,39.99h.13Z"/>
    <path class="cls-1" d="M504.91,132.8h0c6.34,0,11.65,5.18,11.65,11.52v105.73c0,6.34-5.18,11.52-11.65,11.52h0c-6.34,0-11.65-5.18-11.65-11.52v-105.73c0-6.34,5.18-11.52,11.65-11.65v.13Z"/>
    <path class="cls-2" d="M286.21,261.69h-92.01c-27.05,0-49.05-22-49.05-49.05v-68.33c0-6.34,5.18-11.52,11.65-11.52h0c6.34,0,11.65,5.18,11.65,11.52v68.33c0,14.36,11.65,25.88,25.88,25.88h92.01v23.16h-.13Z"/>
  </g>
  <g>
    <path class="cls-2" d="M117.33,338.82c-3.62,0-6.34-1.04-8.28-3.11l-.26-.26c-.91.91-2.2,1.81-3.88,2.46-1.42.52-2.98.91-4.66.91s-.52,0-.91,0c-1.94,0-3.75-.65-5.31-1.68-3.88-2.33-5.95-5.95-5.95-11.26s1.04-7.12,3.24-9.45c2.46-2.46,5.69-3.75,9.96-3.75h0c2.33,0,4.53.39,6.34,1.29,2.72,1.16,4.14,2.85,4.14,5.18v9.58c0,1.81.52,3.36,1.42,4.4.91.91,2.2,1.29,3.88,1.29v4.53h0l.26-.13ZM106.33,319.02c0-.52-.39-.91-1.16-1.29-1.04-.52-2.33-.65-3.62-.65h0c-2.33,0-4.14.65-5.31,2.07-1.42,1.55-2.2,3.75-2.2,6.73s1.16,6.21,3.62,7.64c.78.39,1.55.65,2.46.78h.39c.78,0,1.42-.13,2.07-.39,2.2-.91,3.49-2.59,3.88-5.31v-9.45h0l-.13-.13ZM94.3,306.21c0-.39,0-.78.26-1.16.13-.39.39-.65.65-.91s.52-.52.91-.65c.39-.13.65-.26,1.04-.26s.78,0,1.16.26c.39.13.65.39.91.65s.52.52.65.91.26.78.26,1.16,0,.78-.26,1.16c-.13.39-.39.65-.65.91s-.52.52-.91.65-.78.26-1.16.26-.78,0-1.04-.26-.65-.39-.91-.65-.52-.52-.65-.91-.26-.78-.26-1.16ZM101.16,306.21c0-.39,0-.78.26-1.16.13-.39.39-.65.65-.91s.52-.52.91-.65c.39-.13.78-.26,1.16-.26s.78,0,1.04.26c.39.13.65.39.91.65s.52.52.65.91.26.78.26,1.16,0,.78-.26,1.16-.39.65-.65.91-.52.52-.91.65-.65.26-1.04.26-.78,0-1.16-.26-.65-.39-.91-.65-.52-.52-.65-.91-.26-.78-.26-1.16Z"/>
    <path class="cls-2" d="M114.48,338.82v-4.53h2.2c1.42,0,2.59-.39,3.36-1.29,1.04-1.04,1.42-2.46,1.42-4.4v-11.26h5.69v11.78c0,1.55.52,2.85,1.42,3.75.91.91,1.94,1.29,3.36,1.29h2.33v4.53h-2.33c-3.24,0-5.69-1.04-7.64-2.85-1.94,1.94-4.53,2.85-7.76,2.85h-2.2l.13.13ZM117.59,345.55c0-.39,0-.78.26-1.16.13-.39.39-.65.65-.91s.52-.52.91-.65.65-.26,1.04-.26.78,0,1.16.26c.39.13.65.39.91.65s.52.52.65.91.26.78.26,1.16,0,.78-.26,1.16c-.13.39-.39.65-.65.91s-.52.52-.91.65-.78.26-1.16.26-.78,0-1.04-.26c-.39-.13-.65-.39-.91-.65s-.52-.52-.65-.91-.26-.78-.26-1.16ZM124.45,345.55c0-.39,0-.78.26-1.16.13-.39.39-.65.65-.91s.52-.52.91-.65.78-.26,1.16-.26.78,0,1.04.26c.39.13.65.39.91.65s.39.52.65.91c.13.39.26.78.26,1.16s0,.78-.26,1.16c-.13.39-.39.65-.65.91s-.52.52-.91.65-.65.26-1.04.26-.78,0-1.16-.26c-.39-.13-.65-.39-.91-.65s-.52-.52-.65-.91-.26-.78-.26-1.16Z"/>
    <path class="cls-2" d="M149.55,317.34v12.68c0,2.33-.91,4.27-2.59,5.95-1.81,1.81-4.14,2.72-6.73,2.72h-8.8v-4.53h8.8c.91,0,1.68-.39,2.33-1.04.91-.78,1.29-1.94,1.29-3.24v-12.68h5.69v.13ZM137.78,345.68c0-.39,0-.78.26-1.16.13-.39.39-.65.65-.91s.52-.52.91-.65.65-.26,1.04-.26.78,0,1.04.26c.39.13.65.39.91.65s.52.52.65.91.26.78.26,1.16,0,.78-.26,1.16c-.13.39-.39.65-.65.91s-.52.52-.91.65-.65.26-1.04.26-.78,0-1.04-.26c-.39-.13-.65-.39-.91-.65s-.52-.52-.65-.91-.26-.78-.26-1.16Z"/>
    <path class="cls-2" d="M159.39,307.38v22.65c0,1.29.39,2.33,1.29,3.24.65.65,1.55,1.04,2.33,1.04h6.21v4.53h-6.21c-2.72,0-4.92-.91-6.73-2.72-1.68-1.68-2.59-3.62-2.59-5.95v-22.65h5.69v-.13Z"/>
    <path class="cls-2" d="M166.9,338.82v-4.53h2.2c1.42,0,2.59-.39,3.36-1.29,1.04-1.04,1.42-2.46,1.42-4.4v-11.26h5.69v11.78c0,1.55.52,2.85,1.42,3.75.91.91,1.94,1.29,3.36,1.29h2.33v4.53h-2.33c-3.24,0-5.69-1.04-7.64-2.85-1.94,1.94-4.4,2.85-7.76,2.85h-2.2l.13.13ZM174.01,345.68c0-.39,0-.78.26-1.16.13-.39.39-.65.65-.91s.52-.52.91-.65c.39-.13.65-.26,1.04-.26s.78,0,1.04.26.65.39.91.65.52.52.65.91.26.78.26,1.16,0,.78-.26,1.16c-.13.39-.39.65-.65.91s-.52.52-.91.65c-.39.13-.78.26-1.04.26s-.78,0-1.04-.26c-.39-.13-.65-.39-.91-.65s-.52-.52-.65-.91-.26-.78-.26-1.16Z"/>
    <path class="cls-2" d="M210.25,328.6c0,1.81.52,3.36,1.42,4.4.91.91,1.94,1.29,3.36,1.29s2.59-.39,3.36-1.29c1.04-1.04,1.42-2.46,1.42-4.4v-11.26h5.69v11.26c0,2.85-.91,5.31-2.72,7.12-1.94,2.07-4.66,3.11-7.89,3.11s-5.69-1.04-7.64-2.85c-1.94,1.94-4.53,2.85-7.76,2.85s-5.69-1.04-7.64-2.85c-1.94,1.94-4.66,2.85-8.28,2.85v-4.53c1.81,0,3.11-.39,4.01-1.29,1.04-1.04,1.42-2.46,1.42-4.4v-11.26h5.69v11.26c0,1.81.52,3.36,1.42,4.4.91.91,1.94,1.29,3.36,1.29s2.59-.39,3.36-1.29c1.04-1.04,1.55-2.46,1.55-4.4v-11.26h5.69v11.26h.13ZM200.02,310.61c0-.39,0-.78.26-1.16.13-.39.39-.65.65-.91s.52-.52.91-.65c.39-.13.65-.26,1.04-.26s.78,0,1.04.26c.39.13.65.39.91.65s.52.52.65.91.26.78.26,1.16,0,.78-.26,1.16-.39.65-.65.91-.52.52-.91.65-.78.26-1.04.26-.78,0-1.04-.26c-.39-.13-.65-.39-.91-.65s-.52-.52-.65-.91-.26-.78-.26-1.16ZM204.29,303.88c0-.39,0-.78.26-1.16.13-.39.39-.65.65-.91s.52-.52.91-.65c.39-.13.65-.26,1.04-.26s.78,0,1.04.26c.39.13.65.39.91.65s.52.52.65.91.26.78.26,1.16,0,.78-.26,1.16c-.13.39-.39.65-.65.91s-.52.52-.91.65-.78.26-1.04.26-.78,0-1.04-.26c-.39-.13-.65-.39-.91-.65s-.52-.52-.65-.91-.26-.78-.26-1.16ZM208.56,310.61c0-.39,0-.78.26-1.16.13-.39.39-.65.65-.91s.52-.52.91-.65.78-.26,1.16-.26.78,0,1.04.26c.39.13.65.39.91.65s.39.52.65.91c.13.39.26.78.26,1.16s0,.78-.26,1.16c-.13.39-.39.65-.65.91s-.52.52-.91.65-.65.26-1.04.26-.78,0-1.16-.26-.65-.39-.91-.65-.52-.52-.65-.91-.26-.78-.26-1.16Z"/>
    <path class="cls-2" d="M272.23,338.82c-3.62,0-6.34-1.04-8.28-3.11l-.26-.26c-.91.91-2.2,1.81-3.88,2.46-1.42.52-2.98.91-4.66.91s-.52,0-.91,0c-1.94,0-3.75-.65-5.31-1.68-3.88-2.33-5.95-5.95-5.95-11.26s1.04-7.12,3.24-9.45c2.46-2.46,5.69-3.75,9.84-3.75h0c2.33,0,4.53.39,6.34,1.29,2.72,1.16,4.14,2.85,4.14,5.18v9.58c0,1.81.52,3.36,1.42,4.4.91.91,2.2,1.29,3.88,1.29v4.53h0l.39-.13ZM261.23,319.02c0-.52-.39-.91-1.16-1.29-1.04-.52-2.33-.65-3.62-.65h0c-2.33,0-4.01.65-5.31,2.07-1.42,1.55-2.2,3.75-2.2,6.73s1.16,6.21,3.62,7.64c.78.39,1.55.65,2.46.78h.39c.78,0,1.42-.13,2.07-.39,2.2-.91,3.49-2.59,3.88-5.31v-9.45h0l-.13-.13ZM249.2,306.21c0-.39,0-.78.26-1.16.13-.39.39-.65.65-.91s.52-.52.91-.65.65-.26,1.04-.26.78,0,1.16.26c.39.13.65.39.91.65s.52.52.65.91.26.78.26,1.16,0,.78-.26,1.16c-.13.39-.39.65-.65.91s-.52.52-.91.65-.78.26-1.16.26-.78,0-1.04-.26-.65-.39-.91-.65-.52-.52-.65-.91-.26-.78-.26-1.16ZM256.06,306.21c0-.39,0-.78.26-1.16.13-.39.39-.65.65-.91s.52-.52.91-.65.78-.26,1.16-.26.78,0,1.04.26c.39.13.65.39.91.65s.52.52.65.91.26.78.26,1.16,0,.78-.26,1.16-.39.65-.65.91-.52.52-.91.65-.65.26-1.04.26-.78,0-1.16-.26c-.39-.13-.65-.39-.91-.65s-.52-.52-.65-.91-.26-.78-.26-1.16Z"/>
    <path class="cls-2" d="M287.5,317.34v12.68c0,2.33-.78,4.27-2.46,5.95-1.68,1.68-4.14,2.72-6.73,2.72h-8.8v-4.53h8.8c.91,0,1.68-.39,2.33-1.04.91-.78,1.29-1.94,1.29-3.24v-12.68h5.69l-.13.13ZM272.49,345.55c0-.39,0-.78.26-1.16.13-.39.39-.65.65-.91s.52-.52.91-.65.65-.26,1.04-.26.78,0,1.16.26c.39.13.65.39.91.65s.52.52.65.91.26.78.26,1.16,0,.78-.26,1.16c-.13.39-.39.65-.65.91s-.52.52-.91.65-.78.26-1.16.26-.78,0-1.04-.26c-.39-.13-.65-.39-.91-.65s-.52-.52-.65-.91-.26-.78-.26-1.16ZM279.22,345.55c0-.39,0-.78.26-1.16.13-.39.39-.65.65-.91s.52-.52.91-.65.78-.26,1.16-.26.78,0,1.04.26c.39.13.65.39.91.65s.52.52.65.91.26.78.26,1.16,0,.78-.26,1.16c-.13.39-.39.65-.65.91s-.52.52-.91.65-.65.26-1.04.26-.78,0-1.16-.26c-.39-.13-.65-.39-.91-.65s-.52-.52-.65-.91-.26-.78-.26-1.16Z"/>
    <path class="cls-2" d="M315.07,338.82c-.26,1.55-.91,3.11-1.94,4.66-.52,1.04-1.29,2.2-2.33,3.24-.91,1.04-2.07,2.2-3.36,3.49l-3.88-2.72c1.42-1.29,2.46-2.33,3.24-3.24s1.29-1.81,1.81-2.46c.52-1.16.91-2.07,1.04-2.85h-4.66c-4.01,0-7.25-1.29-9.71-3.88-2.33-2.33-3.36-5.31-3.36-9.06s1.04-7.12,3.24-9.45c2.46-2.46,5.69-3.75,9.84-3.75h0c2.33,0,4.53.39,6.34,1.29,2.72,1.16,4.14,2.85,4.14,5.18v15.14h4.66v4.53h-5.18l.13-.13ZM309.89,319.02c0-.52-.39-.91-1.16-1.29-1.04-.52-2.33-.65-3.62-.65h0c-2.33,0-4.01.65-5.31,2.07-1.42,1.55-2.2,3.75-2.2,6.73s.78,4.79,2.2,6.34c1.42,1.42,3.36,2.07,5.82,2.07h4.4v-15.27h-.13Z"/>
    <path class="cls-2" d="M336.42,338.82c-4.01,0-7.25-1.16-9.58-3.75l-.65.65c-1.94,2.07-4.79,3.11-8.41,3.11v-4.53c1.81,0,3.11-.39,3.88-1.29,1.04-1.04,1.42-2.46,1.42-4.4v-2.72c0-4.01,1.04-7.12,3.24-9.45,2.46-2.59,5.69-3.88,9.84-3.88s7.51,1.29,9.96,3.75c2.2,2.33,3.24,5.44,3.24,9.45s-.91,6.6-2.72,8.41h5.56v4.53h-16.05l.26.13ZM341.73,319.15c-1.29-1.29-3.11-2.07-5.44-2.07s-4.01.65-5.31,2.07c-1.42,1.55-2.2,3.75-2.2,6.73s.78,4.79,2.2,6.34c1.42,1.42,3.11,2.07,5.31,2.07s4.01-.65,5.31-2.07c1.42-1.55,2.2-3.62,2.2-6.34s-.78-5.18-2.2-6.73h.13Z"/>
    <path class="cls-2" d="M350.01,338.82v-4.53h2.2c1.42,0,2.59-.39,3.36-1.29,1.04-1.04,1.42-2.46,1.42-4.4v-11.26h5.69v11.78c0,1.55.52,2.85,1.42,3.75.91.91,1.94,1.29,3.36,1.29h2.33v4.53h-2.33c-3.24,0-5.69-1.04-7.64-2.85-1.94,1.94-4.4,2.85-7.76,2.85h-2.2l.13.13ZM356.74,311.26c0-.39,0-.78.26-1.16s.39-.65.65-.91.52-.52.91-.65.65-.26,1.04-.26.78,0,1.16.26c.39.13.65.39.91.65s.52.52.65.91.26.78.26,1.16,0,.78-.26,1.16c-.13.39-.39.65-.65.91s-.52.52-.91.65-.78.26-1.16.26-.78,0-1.04-.26-.65-.39-.91-.65-.52-.52-.65-.91-.26-.78-.26-1.16Z"/>
    <path class="cls-2" d="M385.08,317.34v12.68c0,2.33-.78,4.27-2.46,5.95s-4.14,2.72-6.73,2.72h-8.8v-4.53h8.8c.91,0,1.68-.39,2.33-1.04.91-.78,1.29-1.94,1.29-3.24v-12.68h5.69l-.13.13ZM371.23,310.48c0-.39,0-.78.26-1.16.13-.39.39-.65.65-.91s.52-.52.91-.65.65-.26,1.04-.26.78,0,1.16.26c.39.13.65.39.91.65s.52.52.65.91.26.78.26,1.16,0,.78-.26,1.16c-.13.39-.39.65-.65.91s-.52.52-.91.65-.78.26-1.16.26-.78,0-1.04-.26-.65-.39-.91-.65-.52-.52-.65-.91-.26-.78-.26-1.16ZM378.09,310.48c0-.39,0-.78.26-1.16.13-.39.39-.65.65-.91s.52-.52.91-.65.78-.26,1.16-.26.78,0,1.04.26c.39.13.65.39.91.65s.52.52.65.91.26.78.26,1.16,0,.78-.26,1.16c-.13.39-.39.65-.65.91s-.52.52-.91.65-.65.26-1.04.26-.78,0-1.16-.26c-.39-.13-.65-.39-.91-.65s-.52-.52-.65-.91-.26-.78-.26-1.16Z"/>
    <path class="cls-2" d="M426.88,324.72c0-4.27-.65-7.12-1.55-8.54l4.66-2.72c.65,1.16,1.04,2.07,1.29,2.98,1.55-2.33,4.53-3.62,8.93-3.62h14.62c4.14,0,7.51,1.29,9.84,3.88,2.2,2.33,3.24,5.44,3.24,9.45s-1.16,6.73-3.36,9.06c-2.46,2.59-5.69,3.88-9.71,3.88h-23.29c-.65,1.55-1.55,3.11-2.85,4.4-2.85,2.98-6.73,4.4-11.39,4.4s-7.64-1.55-10.48-4.53c-2.59-2.72-4.01-6.34-4.01-10.61s0-2.33.26-3.36c.13-1.04.52-2.33,1.04-3.62l4.66,1.16c-.39,1.16-.65,2.07-.78,2.98-.13.91-.26,1.81-.26,2.85,0,3.36.91,5.95,2.72,7.89,1.81,1.81,4.01,2.72,6.86,2.72s5.18-.91,6.99-2.72c1.81-1.94,2.72-4.53,2.72-7.89v-7.76h0l-.13-.26ZM454.7,334.29c2.07,0,3.88-.78,5.31-2.07,1.42-1.55,2.2-3.62,2.2-6.34s-.65-5.18-2.2-6.73c-1.29-1.29-3.11-2.07-5.31-2.07h-14.62c-2.33,0-4.01.65-5.31,2.07-1.42,1.55-2.2,3.75-2.2,6.73v8.41h22.13Z"/>
    <path class="cls-2" d="M486.02,338.82c-2.07,0-3.62-.39-4.66-1.04-.39,1.81-1.04,3.75-2.07,5.69-.52,1.04-1.29,2.2-2.33,3.36-.91,1.04-2.07,2.2-3.36,3.49l-3.88-2.72c1.42-1.29,2.46-2.33,3.24-3.24s1.29-1.81,1.81-2.59c.91-1.81,1.42-3.75,1.42-5.95s0-.78,0-1.16v-17.21h5.69v11.91c0,1.55.65,2.72,1.42,3.62.91.91,1.94,1.29,3.36,1.29h2.33v4.53h-2.98Z"/>
    <path class="cls-2" d="M492.75,334.29c-1.81-1.94-2.72-4.66-2.72-8.41s1.04-7.12,3.24-9.45c2.46-2.59,5.69-3.88,9.84-3.88s7.51,1.29,9.96,3.75c2.2,2.33,3.24,5.44,3.24,9.45s-1.16,6.73-3.36,9.06c-2.46,2.59-5.82,3.88-9.84,3.88h-16.82v-4.53h6.47v.13ZM508.54,319.15c-1.29-1.29-3.11-2.07-5.44-2.07s-4.01.65-5.31,2.07c-1.42,1.55-2.2,3.75-2.2,6.73s.78,4.79,2.2,6.34c1.42,1.42,3.11,2.07,5.31,2.07s4.01-.65,5.31-2.07c1.42-1.55,2.2-3.62,2.2-6.34s-.78-5.18-2.2-6.73h.13ZM500.12,307.89c0-.39,0-.78.26-1.16s.39-.65.65-.91.52-.52.91-.65.65-.26,1.04-.26.78,0,1.16.26c.39.13.65.39.91.65s.52.52.65.91.26.78.26,1.16,0,.78-.26,1.16c-.13.39-.39.65-.65.91s-.52.52-.91.65-.78.26-1.16.26-.78,0-1.04-.26-.65-.39-.91-.65-.52-.52-.65-.91-.26-.78-.26-1.16Z"/>
  </g>
</svg>