<?xml version="1.0" encoding="UTF-8"?>
<svg id="Layer_1" data-name="Layer 1" xmlns="http://www.w3.org/2000/svg" viewBox="0 0 166.27 158.88">
  <defs>
    <style>
      .cls-1 {
        fill: #42b07a;
      }

      .cls-2 {
        fill: #263370;
      }

      .cls-3 {
        fill: #0c7fae;
      }
    </style>
  </defs>
  <path class="cls-1" d="M155.6,138.96h0c5.89,0,10.67-4.78,10.67-10.67v-27.13c0-5.89-4.78-10.67-10.67-10.67s-10.67,4.78-10.67,10.67v27.13c0,5.89,4.78,10.67,10.67,10.67"/>
  <path class="cls-1" d="M126.61,145.9h0c5.89,0,10.67-4.78,10.67-10.67v-49.79c0-5.89-4.78-10.67-10.67-10.67s-10.67,4.78-10.67,10.67v49.79c0,5.89,4.78,10.67,10.67,10.67"/>
  <path class="cls-3" d="M97.63,158.88h0c5.89,0,10.67-4.78,10.67-10.67V55.36c0-5.89-4.78-10.67-10.67-10.67s-10.67,4.78-10.67,10.67v92.86c0,5.89,4.78,10.67,10.67,10.67"/>
  <path class="cls-3" d="M68.64,158.88h0c5.89,0,10.67-4.78,10.67-10.67V44.13c0-5.89-4.78-10.67-10.67-10.67s-10.67,4.78-10.67,10.67v104.09c0,5.89,4.78,10.67,10.67,10.67"/>
  <path class="cls-2" d="M10.67,101.79h0c5.89,0,10.67-4.78,10.67-10.67v-40.77c0-5.89-4.78-10.67-10.67-10.67S0,44.46,0,50.35v40.77c0,5.89,4.78,10.67,10.67,10.67"/>
  <path class="cls-2" d="M21.04,24.9c0,5.78-4.69,10.47-10.47,10.47S.09,30.68.09,24.9s4.69-10.47,10.47-10.47,10.47,4.69,10.47,10.47"/>
  <path class="cls-2" d="M50.07,10.47c0,5.78-4.69,10.47-10.47,10.47s-10.47-4.69-10.47-10.47S33.82,0,39.6,0s10.47,4.69,10.47,10.47"/>
  <path class="cls-3" d="M79.12,18.79c0,5.78-4.69,10.47-10.47,10.47s-10.47-4.69-10.47-10.47,4.69-10.47,10.47-10.47,10.47,4.69,10.47,10.47"/>
  <path class="cls-3" d="M108.11,29.99c0,5.78-4.69,10.47-10.47,10.47s-10.47-4.69-10.47-10.47,4.69-10.47,10.47-10.47,10.47,4.69,10.47,10.47"/>
  <path class="cls-1" d="M137.28,60.16c0,5.78-4.69,10.47-10.47,10.47s-10.47-4.69-10.47-10.47,4.69-10.47,10.47-10.47,10.47,4.69,10.47,10.47"/>
  <path class="cls-1" d="M166.07,75.88c0,5.78-4.69,10.47-10.47,10.47s-10.47-4.69-10.47-10.47,4.69-10.47,10.47-10.47,10.47,4.69,10.47,10.47"/>
  <path class="cls-2" d="M39.65,135.31h0c5.89,0,10.67-4.78,10.67-10.67V35.96c0-5.89-4.78-10.67-10.67-10.67s-10.67,4.78-10.67,10.67v88.69c0,5.89,4.78,10.67,10.67,10.67"/>
</svg>