<?xml version="1.0" encoding="UTF-8"?>
<svg id="Layer_1" data-name="Layer 1" xmlns="http://www.w3.org/2000/svg" viewBox="0 0 611.5 163.81">
  <defs>
    <style>
      .cls-1 {
        font-family: GalanoGrotesque-SemiBold, 'Galano Grotesque';
        font-size: 23.25px;
        font-weight: 600;
      }

      .cls-1, .cls-2 {
        fill: #263370;
      }

      .cls-3 {
        fill: #42b07a;
      }

      .cls-4 {
        fill: #0c7fae;
      }
    </style>
  </defs>
  <g>
    <path class="cls-2" d="M26.66,32.89c.2,3.17-.96,5.64-3.43,7.36-2.22,1.56-5.19,2.32-8.97,2.32-4.43,0-7.81-1.26-10.08-3.73-2.02-2.17-3.02-5.14-3.02-8.87,0-3.02.65-6.15,2.02-9.37l5.49-3.33c-1.97,4.38-2.97,8.31-2.97,11.79,0,5.79,2.97,9.22,8.57,9.17,2.42,0,4.13-.2,5.19-.66,2.02-.76,3.12-2.32,3.33-4.69-3.12-.25-5.19-1.51-6.2-3.83l2.22-4.53c1.26,3.17,2.57,4.23,5.8,4.23h2.07v4.13ZM13.41,49.17c0,1.41-1.16,2.62-2.62,2.62s-2.62-1.21-2.62-2.62,1.21-2.57,2.62-2.57,2.62,1.21,2.62,2.57ZM20.21,49.17c0,1.41-1.21,2.62-2.62,2.62s-2.62-1.21-2.62-2.62,1.16-2.57,2.62-2.57,2.62,1.21,2.62,2.57Z"/>
    <path class="cls-2" d="M35.37,32.89h-9.32v-4.23h9.32v4.23Z"/>
    <path class="cls-2" d="M43.49,32.89h-9.32v-4.23h9.32v4.23Z"/>
    <path class="cls-2" d="M51.6,32.89h-9.32v-4.23h9.32v4.23Z"/>
    <path class="cls-2" d="M95.24,32.89h-44.75v-4.23h5.95v-12.75l4.79-1.36v10.38c.65-2.52,1.76-4.89,3.23-7.06,3.17-4.84,7.56-7.31,13.15-7.46,4.89-.15,8.62,1.81,11.09,5.8,1.71,2.87,2.47,7,2.27,12.45h4.28v4.23ZM86.11,28.66c.1-.81.15-1.61.15-2.47,0-3.12-.6-5.69-1.86-7.76-1.56-2.42-3.78-3.63-6.7-3.63-3.58,0-6.8,1.71-9.78,5.14-2.67,2.97-4.08,5.85-4.28,8.72h22.47Z"/>
    <path class="cls-2" d="M139.02,32.89h-44.75v-4.23h5.95v-12.75l4.79-1.36v10.38c.66-2.52,1.76-4.89,3.23-7.06,3.18-4.84,7.56-7.31,13.15-7.46,4.89-.15,8.62,1.81,11.09,5.8,1.71,2.87,2.47,7,2.27,12.45h4.28v4.23ZM129.9,28.66c.1-.81.15-1.61.15-2.47,0-3.12-.6-5.69-1.86-7.76-1.56-2.42-3.78-3.63-6.7-3.63-3.58,0-6.8,1.71-9.78,5.14-2.67,2.97-4.08,5.85-4.28,8.72h22.48Z"/>
    <path class="cls-2" d="M171.72,32.89h-33.76v-4.13h22.63v-1.81c0-3.83-.35-6.6-1.06-8.32-1.11-2.82-3.33-4.23-6.65-4.23-2.77,0-5.29,1.31-7.66,3.88l-3.43-3.17c3.38-3.28,7.06-4.94,11.09-4.94,5.09,0,8.62,1.86,10.58,5.54,1.36,2.57,2.02,6.35,2.02,11.24v1.71h6.25v4.23ZM155.54,3.06c0,1.41-1.21,2.62-2.62,2.62s-2.67-1.21-2.67-2.62,1.21-2.57,2.67-2.57,2.62,1.16,2.62,2.57Z"/>
    <path class="cls-2" d="M191.31,32.89h-3.02c-2.97,0-5.29-.91-7-2.67-1.71,1.76-4.08,2.67-7.16,2.67h-3.63v-4.13h3.33c3.38,0,5.04-1.71,5.04-5.14v-12.04l4.74-1.41v13.61c0,3.33,1.66,4.99,4.99,4.99h2.72v4.13ZM180.28,3.06c0,1.41-1.21,2.62-2.62,2.62s-2.57-1.21-2.57-2.62,1.11-2.57,2.57-2.57,2.62,1.16,2.62,2.57ZM187.03,3.06c0,1.41-1.21,2.62-2.62,2.62s-2.57-1.21-2.57-2.62,1.21-2.57,2.57-2.57,2.62,1.16,2.62,2.57Z"/>
    <path class="cls-2" d="M202.8,23.97c0,2.57-.86,4.69-2.57,6.4-1.71,1.66-4.03,2.52-6.9,2.52h-3.23v-4.23h2.97c3.28,0,4.94-1.71,4.94-5.14V1.9l4.79-1.41v23.48Z"/>
    <path class="cls-2" d="M211.92,32.89h-4.79V1.9l4.79-1.51v32.5Z"/>
    <path class="cls-2" d="M287.56,32.89h-35.23c-.4,6.45-4.89,9.68-13.45,9.68-6.05,0-10.13-1.86-12.3-5.59-1.56-2.67-2.27-6.85-2.17-12.65l4.74-1.41v4.38c0,7.86,2.72,10.94,9.78,10.94,5.79,0,8.67-2.27,8.67-6.85v-15.02l4.79-1.46v13.76h10.08v-14.87l4.79-1.41v16.28h10.08V11.57l4.79-1.41v18.49h5.44v4.23Z"/>
    <path class="cls-2" d="M295.71,32.89h-9.32v-4.23h9.32v4.23Z"/>
    <path class="cls-2" d="M316.01,32.89h-3.33c-2.92,0-5.24-.91-7.01-2.72-1.66,1.81-4.03,2.72-7.11,2.72h-4.08v-4.23h3.78c3.33,0,4.99-1.71,4.99-5.14V1.9l4.79-1.51v23.38c0,3.28,1.66,4.89,4.94,4.89h3.02v4.23Z"/>
    <path class="cls-2" d="M348.51,32.89h-33.76v-4.13h22.63v-1.81c0-3.83-.35-6.6-1.06-8.32-1.11-2.82-3.33-4.23-6.65-4.23-2.77,0-5.29,1.31-7.66,3.88l-3.43-3.17c3.38-3.28,7.06-4.94,11.09-4.94,5.09,0,8.62,1.86,10.58,5.54,1.36,2.57,2.02,6.35,2.02,11.24v1.71h6.25v4.23ZM332.24,39.94c0,1.41-1.21,2.62-2.62,2.62s-2.62-1.21-2.62-2.62,1.21-2.57,2.62-2.57,2.62,1.16,2.62,2.57Z"/>
    <path class="cls-2" d="M381.87,32.89h-.66c-2.97,0-5.29-1.06-6.9-3.17-1.21,4.23-4.94,6.7-9.78,6.7-4.59,0-8.27-2.22-9.63-6.05-1.46,1.66-3.53,2.52-6.25,2.52h-1.61v-4.23h1.31c3.58,0,5.59-1.61,6-4.84.86-5.9,4.23-8.82,10.18-8.82,3.27,0,5.69.76,7.31,2.27,1.46,1.36,2.37,3.58,2.82,6.55.55,3.28,2.62,4.94,6.2,4.94l1.01-.1v4.23ZM369.82,25.68c0-4.49-1.76-6.7-5.29-6.7s-5.34,2.22-5.34,6.7,1.76,6.7,5.34,6.7,5.29-2.22,5.29-6.7Z"/>
    <path class="cls-2" d="M393.5,23.97c0,2.57-.86,4.69-2.57,6.4-1.71,1.66-4.03,2.52-6.9,2.52h-3.23v-4.23h2.97c3.28,0,4.94-1.71,4.94-5.14V1.9l4.79-1.41v23.48Z"/>
    <path class="cls-2" d="M402.62,32.89h-4.79V1.9l4.79-1.51v32.5Z"/>
    <path class="cls-2" d="M27.82,102.78h-3.28c-3.93,0-6.45-1.16-7.51-3.53-1.16,2.37-3.63,3.53-7.41,3.53C3.23,102.78,0,98.95,0,91.24s3.23-11.19,9.63-11.19h10.23v13.45c0,3.43,1.66,5.14,4.94,5.14h3.02v4.13ZM15.07,83.93h-5.14c-1.96,0-3.38.65-4.13,1.96-.65,1.06-1.01,2.87-1.01,5.34s.35,4.28,1.01,5.39c.76,1.36,2.17,2.02,4.13,2.02s3.38-.65,4.13-2.02c.65-1.11,1.01-2.92,1.01-5.39v-7.31ZM10.69,72.94c0,1.41-1.21,2.62-2.67,2.62s-2.62-1.21-2.62-2.62,1.21-2.57,2.62-2.57,2.67,1.16,2.67,2.57ZM17.44,72.94c0,1.41-1.21,2.62-2.62,2.62s-2.57-1.21-2.57-2.62,1.16-2.57,2.57-2.57,2.62,1.16,2.62,2.57Z"/>
    <path class="cls-2" d="M35.93,102.78h-9.32v-4.23h9.32v4.23Z"/>
    <path class="cls-2" d="M44.04,102.78h-9.32v-4.23h9.32v4.23Z"/>
    <path class="cls-2" d="M52.15,102.78h-9.32v-4.23h9.32v4.23Z"/>
    <path class="cls-2" d="M71.76,102.78h-3.02c-2.97,0-5.29-.91-7-2.67-1.71,1.76-4.08,2.67-7.16,2.67h-3.63v-4.13h3.33c3.38,0,5.04-1.71,5.04-5.14v-12.04l4.74-1.41v13.61c0,3.33,1.66,4.99,4.99,4.99h2.72v4.13ZM60.97,109.83c0,1.41-1.21,2.62-2.62,2.62s-2.57-1.21-2.57-2.62,1.11-2.57,2.57-2.57,2.62,1.16,2.62,2.57ZM67.72,109.83c0,1.41-1.21,2.62-2.62,2.62s-2.57-1.21-2.57-2.62,1.16-2.57,2.57-2.57,2.62,1.16,2.62,2.57Z"/>
    <path class="cls-2" d="M83.9,93.86c0,2.57-.86,4.74-2.57,6.4-1.71,1.66-4.03,2.52-6.9,2.52h-3.88v-4.13h3.63c3.33,0,4.99-1.71,4.99-5.14v-12.04l4.74-1.41v13.81ZM80.87,109.83c0,1.41-1.21,2.62-2.62,2.62s-2.57-1.21-2.57-2.62,1.21-2.57,2.57-2.57,2.62,1.16,2.62,2.57Z"/>
    <path class="cls-2" d="M100.22,102.78h-5.34c-4.28,0-6.65-2.62-6.65-6.5v-24.49l4.79-1.51v25.85c0,1.61.81,2.42,2.47,2.42h4.74v4.23Z"/>
    <path class="cls-2" d="M119.77,102.78h-3.02c-2.97,0-5.29-.91-7-2.67-1.71,1.76-4.08,2.67-7.16,2.67h-3.63v-4.13h3.33c3.38,0,5.04-1.71,5.04-5.14v-12.04l4.74-1.41v13.61c0,3.33,1.66,4.99,4.99,4.99h2.72v4.13ZM112.56,109.88c0,1.41-1.16,2.62-2.57,2.62s-2.62-1.21-2.62-2.62,1.21-2.57,2.62-2.57,2.57,1.21,2.57,2.57Z"/>
    <path class="cls-2" d="M164.47,102.78h-45.81v-4.23h5.95v-12.75l4.79-1.36v14.11h9.98v-14.87l4.79-1.41v16.28h10.08v-17.08l4.79-1.41v18.49h5.44v4.23ZM140.73,72.94c0,1.41-1.21,2.62-2.62,2.62s-2.57-1.21-2.57-2.62,1.16-2.67,2.57-2.67,2.62,1.21,2.62,2.67ZM144.16,67.1c0,1.36-1.21,2.57-2.62,2.57s-2.62-1.21-2.62-2.57,1.21-2.62,2.62-2.62,2.62,1.21,2.62,2.62ZM147.53,72.94c0,1.41-1.21,2.62-2.62,2.62s-2.62-1.21-2.62-2.62,1.16-2.67,2.62-2.67,2.62,1.21,2.62,2.67Z"/>
    <path class="cls-2" d="M176.1,93.86c0,2.57-.86,4.69-2.57,6.4-1.71,1.66-4.03,2.52-6.9,2.52h-3.23v-4.23h2.97c3.28,0,4.94-1.71,4.94-5.14v-21.62l4.79-1.41v23.48Z"/>
    <path class="cls-2" d="M185.22,102.78h-4.79v-30.99l4.79-1.51v32.5Z"/>
    <path class="cls-2" d="M234.15,94.11c0,5.29-3.58,8.67-9.47,8.67h-17.89c-5.44,0-9.07-3.48-9.07-8.67v-5.09l4.74-4.84v9.42c0,3.27,1.66,4.94,4.99,4.94h16.98c3.38,0,5.04-1.66,5.04-4.94v-12.3l4.69-1.26v14.06ZM215.2,80.65c0,1.46-1.21,2.62-2.62,2.62s-2.57-1.16-2.57-2.62,1.16-2.62,2.57-2.62,2.62,1.21,2.62,2.62ZM221.95,80.65c0,1.46-1.21,2.62-2.62,2.62s-2.57-1.16-2.57-2.62,1.21-2.62,2.57-2.62,2.62,1.21,2.62,2.62Z"/>
    <path class="cls-2" d="M250.46,102.78h-5.34c-4.28,0-6.65-2.62-6.65-6.5v-24.49l4.79-1.51v25.85c0,1.61.81,2.42,2.47,2.42h4.74v4.23Z"/>
    <path class="cls-2" d="M258.53,102.78h-9.32v-4.23h9.32v4.23Z"/>
    <path class="cls-2" d="M278.13,102.78h-3.02c-2.97,0-5.29-.91-7.01-2.67-1.71,1.76-4.08,2.67-7.16,2.67h-3.63v-4.13h3.33c3.38,0,5.04-1.71,5.04-5.14v-12.04l4.74-1.41v13.61c0,3.33,1.66,4.99,4.99,4.99h2.72v4.13ZM267.34,109.83c0,1.41-1.21,2.62-2.62,2.62s-2.57-1.21-2.57-2.62,1.11-2.57,2.57-2.57,2.62,1.16,2.62,2.57ZM274.09,109.83c0,1.41-1.21,2.62-2.62,2.62s-2.57-1.21-2.57-2.62,1.16-2.57,2.57-2.57,2.62,1.16,2.62,2.57Z"/>
    <path class="cls-2" d="M304.83,102.78h-27.92v-4.23h5.75v-8.62c0-2.82.91-5.19,2.67-7.06,1.81-1.86,4.33-2.82,7.51-2.82,2.72,0,5.09,1.01,7.11,2.97l-3.53,3.23c-1.21-1.46-2.57-2.17-4.13-2.17-2.87,0-4.84,2.17-4.84,5.04v9.42h17.39v4.23Z"/>
    <path class="cls-2" d="M338.19,102.78h-.66c-2.97,0-5.29-1.06-6.9-3.17-1.21,4.23-4.94,6.7-9.78,6.7-4.59,0-8.27-2.22-9.63-6.05-1.46,1.66-3.53,2.52-6.25,2.52h-1.61v-4.23h1.31c3.58,0,5.59-1.61,6-4.84.86-5.9,4.23-8.82,10.18-8.82,3.27,0,5.69.76,7.31,2.27,1.46,1.36,2.37,3.58,2.82,6.55.55,3.28,2.62,4.94,6.2,4.94l1.01-.1v4.23ZM326.14,95.57c0-4.49-1.76-6.7-5.29-6.7s-5.34,2.22-5.34,6.7,1.76,6.7,5.34,6.7,5.29-2.22,5.29-6.7Z"/>
    <path class="cls-2" d="M370.88,102.78h-33.76v-4.13h22.63v-1.81c0-3.83-.35-6.6-1.06-8.32-1.11-2.82-3.33-4.23-6.65-4.23-2.77,0-5.29,1.31-7.66,3.88l-3.43-3.17c3.38-3.28,7.06-4.94,11.09-4.94,5.09,0,8.62,1.86,10.58,5.54,1.36,2.57,2.02,6.35,2.02,11.24v1.71h6.25v4.23ZM354.61,109.83c0,1.41-1.21,2.62-2.62,2.62s-2.62-1.21-2.62-2.62,1.21-2.57,2.62-2.57,2.62,1.16,2.62,2.57Z"/>
    <path class="cls-2" d="M391.19,102.78h-3.33c-2.92,0-5.24-.91-7-2.72-1.66,1.81-4.03,2.72-7.11,2.72h-4.08v-4.23h3.78c3.33,0,4.99-1.71,4.99-5.14v-21.62l4.79-1.51v23.38c0,3.28,1.66,4.89,4.94,4.89h3.02v4.23Z"/>
    <path class="cls-2" d="M402.62,93.86c0,2.57-.86,4.69-2.57,6.4-1.71,1.66-4.03,2.52-6.9,2.52h-3.23v-4.23h2.97c3.28,0,4.94-1.71,4.94-5.14v-21.62l4.79-1.41v23.48Z"/>
  </g>
  <text class="cls-1" transform="translate(0 158.89)"><tspan x="0" y="0">Specialized Council for Youth NGOs</tspan></text>
  <g>
    <path class="cls-3" d="M600.83,138.96h0c5.89,0,10.67-4.78,10.67-10.67v-27.13c0-5.89-4.78-10.67-10.67-10.67s-10.67,4.78-10.67,10.67v27.13c0,5.89,4.78,10.67,10.67,10.67"/>
    <path class="cls-3" d="M571.85,145.9h0c5.89,0,10.67-4.78,10.67-10.67v-49.79c0-5.89-4.78-10.67-10.67-10.67s-10.67,4.78-10.67,10.67v49.79c0,5.89,4.78,10.67,10.67,10.67"/>
    <path class="cls-4" d="M542.86,158.88h0c5.89,0,10.67-4.78,10.67-10.67V55.36c0-5.89-4.78-10.67-10.67-10.67s-10.67,4.78-10.67,10.67v92.86c0,5.89,4.78,10.67,10.67,10.67"/>
    <path class="cls-4" d="M513.87,158.88h0c5.89,0,10.67-4.78,10.67-10.67V44.13c0-5.89-4.78-10.67-10.67-10.67s-10.67,4.78-10.67,10.67v104.09c0,5.89,4.78,10.67,10.67,10.67"/>
    <path class="cls-2" d="M455.9,101.79h0c5.89,0,10.67-4.78,10.67-10.67v-40.77c0-5.89-4.78-10.67-10.67-10.67s-10.67,4.78-10.67,10.67v40.77c0,5.89,4.78,10.67,10.67,10.67"/>
    <path class="cls-2" d="M466.27,24.9c0,5.78-4.69,10.47-10.47,10.47s-10.47-4.69-10.47-10.47,4.69-10.47,10.47-10.47,10.47,4.69,10.47,10.47"/>
    <path class="cls-2" d="M495.31,10.47c0,5.78-4.69,10.47-10.47,10.47s-10.47-4.69-10.47-10.47S479.05,0,484.84,0s10.47,4.69,10.47,10.47"/>
    <path class="cls-4" d="M524.36,18.79c0,5.78-4.69,10.47-10.47,10.47s-10.47-4.69-10.47-10.47,4.69-10.47,10.47-10.47,10.47,4.69,10.47,10.47"/>
    <path class="cls-4" d="M553.34,29.99c0,5.78-4.69,10.47-10.47,10.47s-10.47-4.69-10.47-10.47,4.69-10.47,10.47-10.47,10.47,4.69,10.47,10.47"/>
    <path class="cls-3" d="M582.51,60.16c0,5.78-4.69,10.47-10.47,10.47s-10.47-4.69-10.47-10.47,4.69-10.47,10.47-10.47,10.47,4.69,10.47,10.47"/>
    <path class="cls-3" d="M611.31,75.88c0,5.78-4.69,10.47-10.47,10.47s-10.47-4.69-10.47-10.47,4.69-10.47,10.47-10.47,10.47,4.69,10.47,10.47"/>
    <path class="cls-2" d="M484.89,135.31h0c5.89,0,10.67-4.78,10.67-10.67V35.96c0-5.89-4.78-10.67-10.67-10.67s-10.67,4.78-10.67,10.67v88.69c0,5.89,4.78,10.67,10.67,10.67"/>
  </g>
</svg>