<?xml version="1.0" encoding="UTF-8"?>
<svg id="Layer_1" data-name="Layer 1" xmlns="http://www.w3.org/2000/svg" viewBox="0 0 1000 1000">
  <defs>
    <style>
      .cls-1 {
        fill: #815ea7;
      }
    </style>
  </defs>
  <path class="cls-1" d="M598.82,389.96c2.7,92.05,40.97,171.21,111.17,229.51,6.11,5.06,12.28,9.77,18.54,14.35-6.64,11.36-14.11,22.15-22.34,32.31-9.77-6.93-18.87-14.2-27.59-21.81-66.68-58.26-107.12-135.53-116.94-223.49-7.22-64.47-2.07-121.62,8.09-176.5,12.85,3.47,25.37,7.94,37.36,13.29-1.44,8.18-2.79,16.51-4,25.04-2.21,15.5-.72,29.08,4.62,42.66,21.18,53.73,57.82,74.1,104.23,99.95,5.54,3.08,11.22,6.21,16.95,9.53,11.55,6.36,22.05,12.28,31.63,18.2,2.74,15.26,4.19,30.96,4.19,47.04,0,1.25,0,2.46-.05,3.71-21.04-16.23-43.43-28.55-67.07-41.45-20.32-11.17-41.36-22.68-61.29-36.88-13.87-10.83-24.6-21.86-37.51-35.44Z"/>
  <path class="cls-1" d="M417.84,445.52c-.87,1.83-1.64,3.76-2.41,5.63-1.3,3.18-2.6,6.45-4.38,9.53l-3.13,5.44c-10.74,18.68-20.85,36.3-34.28,53.25l-45.35,57.2-37.84,49.35c-4.04,5.3-8.38,11.8-12.61,19.16-8.09-12.37-15.17-25.47-21.14-39.14,6.79-9.68,14.54-19.79,23.54-31.49l15.21-19.69c6.31-8.18,12.76-16.18,19.02-23.88,12.57-15.65,24.46-30.38,35.72-46.94,23.3-34.23,38.37-64.8,47.47-96.24.05-.19.1-.48.1-.87-1.97,1.49-4.72,4.04-6.74,5.92-3.8,3.56-8.14,7.61-12.57,10.16l-45.83,26.77c-6.26,3.66-13.96,7.32-19.98,10.11-29.08,13.48-54.93,26.09-77.37,42.08,1.2-17.67,4.09-34.91,8.62-51.47,9.92-5.34,20.89-10.69,32.26-16.23,63.07-30.67,141.6-68.8,134.33-153.25-.29-3.42-.63-6.84-1.06-10.21,12.42-4.53,25.28-8.14,38.52-10.74,9.82,75.2-.1,141.89-30.09,205.53Z"/>
  <path class="cls-1" d="M647.45,720.1c-10.83,7.27-22.29,13.82-34.18,19.45-14.97-42.18-39.53-72.27-70.63-110.35l-6.74-8.28c-10.78-13.24-19.02-27.88-27.73-43.38l-1.59-2.89c-8.67-15.31-13.58-30.48-18.82-46.51-.82-2.46-1.59-4.91-2.46-7.41l-9.82,21.71c-26.34,58.11-12.81,83.15,16.75,137.99l2.74,5.15c13.72,25.52,23.21,51.95,28.17,78.48-7.75.67-15.55,1.01-23.45,1.01-5.44,0-10.83-.14-16.18-.48-1.44-6.79-3.32-13.43-5.54-20.08-7.41-20.99-16.03-39.77-26.34-57.39l-23.01-47.76c-16.27,27.64-30.14,54.98-43.33,85.46-1.59,4.14-3.03,8.18-4.38,12.18-12.08-6.07-23.64-13.05-34.57-20.85,4.86-12.81,10.88-25.81,18.05-40.39,4.04-8.18,13.96-26.62,21.95-41.41,4.53-8.47,8.33-15.55,9.82-18.39l19.74-38.76,9.58-19.84c10.64-22.24,20.75-43.23,28.98-66.87,27.73-79.73,39.53-162.44,35.87-255.36,3.08-.14,6.21-.19,9.34-.19,10.16,0,20.17.58,30.04,1.68.91,28.26.53,55.03-1.11,81.32-1.54,25.04-4.86,48.1-8.33,72.46-1.01,6.93-2.02,13.91-2.99,21.04-9.2,67.31,9,133.99,51.23,187.72l36.73,46.75c20.13,25.61,33.37,51.13,42.18,74.19Z"/>
</svg>