<?xml version="1.0" encoding="UTF-8"?>
<svg id="Layer_1" data-name="Layer 1" xmlns="http://www.w3.org/2000/svg" viewBox="0 0 453.8 166.11">
  <defs>
    <style>
      .cls-1 {
        fill: #ce8e69;
      }

      .cls-2 {
        fill: #005965;
      }
    </style>
  </defs>
  <g>
    <path class="cls-1" d="M357.5,165.05c-5.18-.8-10.29-2.13-15.22-3.94-.33-.11-.61-.23-.76-.4-.2-.24-.24-.65-.25-1.08-.25-5.16.06-10.37.93-15.46.35-2.06,1.01-5.9-1.54-7.75-.81-.6-1.71-.82-2.65-.82-1.65,0-3.41.71-4.95,1.34-6.83,2.74-17.39,3.71-24.46-.61-4.04-2.49-6.31-6.32-6.75-11.39-1.01-11.5,5.26-23.25,11.23-33.34,1.06-1.8,2.16-3.6,3.28-5.41,1.66-2.73,3.39-5.54,4.99-8.38,1.51-2.68,2.74-5.08,3.75-7.34,2.26-5,4.68-10.97,5.34-17.22.25-2.39-.3-4.44-1.55-5.74-2.89-3.03-7.44-3.26-13.17-.71-4.49,2-9.1,4.71-14.53,8.54-2.23,1.58-4.39,3.2-6.78,5-.34.26-.94.63-1.63,1.05-.99.6-1.89,1.16-2.63,1.7,1.99-6.21,4.38-12.34,7.12-18.24,1.38-2.95,2.93-6,5.45-8.08,2.28-1.88,5.19-2.8,7.95-3.6,4.53-1.29,10.52-2.75,16.56-2.53,2.76.09,9.49.85,12.43,5.74,1.23,2.04,1.73,4.65,1.54,7.99-.53,9.42-5.51,17.66-10.34,25.62-.58.96-1.15,1.91-1.73,2.86-1.39,2.34-2.81,4.66-4.24,6.99-3.85,6.28-7.82,12.77-11.12,19.42-2.74,5.51-11.05,22.32-2,30.54,2.83,2.58,7.25,3.58,11.83,2.68,4.16-.83,8.04-3.03,11.15-4.79l.22-.13c3.33-1.9,6.78-3.86,10.5-4.74,2.06-.48,3.6-.32,4.6.46,1.71,1.34,1.5,4.01,1.01,6.72-.86,4.83-1.89,12.07-.79,19.23.96,6.26,3.49,11.8,7.19,15.82Z"/>
    <g>
      <path class="cls-1" d="M416.92,151.76c-.85.68-1.73,1.33-2.59,1.86-3,1.88-6.16,3.58-9.39,5.08-6.53,3-13.25,5.14-19.98,6.33-9.92,1.75-20,2.61-24.76-7.41-4.78-10.03-2.6-21.06-.49-31.71.4-2.06.81-4.11,1.16-6.13.63-3.68-.29-8.12-3.79-9.74-.96-.45-1.96-.65-2.98-.65-4.84,0-10.1,4.53-14.14,8-.95.81-1.85,1.59-2.6,2.18l-.14.1c-5.16,4.01-11.62,9-18.46,7.85-4.01-.66-6.06-5.74-5.74-10.27.44-6.19,3.5-11.8,6.59-17.02,2.64-4.45,5.48-8.93,8.45-13.32,3-4.43,6.29-8.89,9.47-13.22,9.85-13.43,20.04-27.31,24.91-43.38.98-3.23,1.68-7.9-.5-11.9-2-3.68-5.16-6.15-9.43-7.39-9.24-2.66-22.37,1.11-30.65,5.75-2.1,1.18-4.13,2.41-6.08,3.73,12.57-11.29,27.43-18.29,42.62-19.93,4.21-.46,8.24.88,11,3.66,3.13,3.13,4.31,7.39,3.56,12.65-2.84,19.54-15.51,35.19-27.76,50.31l-.2.25c-5.09,6.29-8.83,11.28-12.1,16.19l-.24.35c-4.2,6.29-9.43,14.12-10.12,22.07-.25,3.03.69,5.64,2.64,7.35,2.2,1.93,5.46,2.59,8.97,1.81,5.68-1.26,10.48-4.59,15.12-7.8l2.19-1.5c4.69-3.24,9.99-6.91,15.57-6.08,1.19.18,2.08.69,2.7,1.58,1.26,1.79,1.44,5.04.53,9.69l-.13.63c-2.05,10.42-4.16,21.2-.87,31.87,1.13,3.64,2.66,6.38,4.69,8.35,2.8,2.71,6.88,4.34,12.45,4.95,9.38,1.04,19.62-.7,30.51-5.15Z"/>
      <path class="cls-1" d="M360.2,157.61c-4.78-10.03-2.6-21.06-.49-31.71.4-2.06.81-4.11,1.16-6.13.42-2.5.19-5.33-1.23-7.5-1.71-2.61-4.85-3.31-7.77-2.6-1.66.4-3.2,1.19-4.65,2.09-4.25,2.66-7.83,6.26-11.8,9.29-3.78,2.88-8,5.85-12.83,6.5-1.27.17-2.56.17-3.82-.04-4.01-.66-6.06-5.74-5.74-10.27.44-6.19,3.5-11.8,6.59-17.02,2.64-4.45,5.48-8.93,8.45-13.32,3-4.43,6.29-8.89,9.47-13.22,9.85-13.43,20.04-27.31,24.91-43.38.98-3.23,1.68-7.9-.5-11.9-2-3.68-5.16-6.15-9.43-7.39-9.24-2.66-22.37,1.11-30.65,5.75-2.1,1.18-4.13,2.41-6.08,3.73,12.57-11.29,27.43-18.29,42.62-19.93,4.21-.46,8.24.88,11,3.66,3.13,3.13,4.31,7.39,3.56,12.65-2.84,19.54-15.51,35.19-27.76,50.31l-.2.25c-5.09,6.29-8.83,11.28-12.1,16.19l-.24.35c-4.2,6.29-9.43,14.12-10.12,22.07-.25,3.03.69,5.64,2.64,7.35,5.53,4.86,14.02.5,19.2-2.72,3.68-2.29,7.17-4.9,10.8-7.26,3.45-2.24,7.62-4.21,11.84-3.58,1.19.18,2.08.69,2.7,1.58,1.26,1.79,1.44,5.04.53,9.69l-.13.63c-2.05,10.42-4.16,21.2-.87,31.87,1.13,3.64,2.66,6.38,4.69,8.35,2.8,2.71,6.88,4.34,12.45,4.95,9.38,1.04,19.62-.7,30.51-5.15-.85.68-1.73,1.33-2.59,1.86-3,1.88-6.16,3.58-9.39,5.08-6.53,3-13.25,5.14-19.98,6.33-9.92,1.75-20,2.61-24.76-7.41Z"/>
    </g>
    <path class="cls-1" d="M319.87,69.5v.02c-.81,2.78-2.6,5.25-4.33,7.65-.46.64-.93,1.28-1.34,1.9l-4.21,5.8c-.45.65-.94,1.34-1.44,2.06-5.26,7.48-12.99,18.48-14.54,28.16l-.04-.09-2.49-7.69c-1.46-5.87,5.74-14.73,12.09-22.55,6.4-7.88,11.93-14.68,8.55-18.06-1.56-1.56-3.46-2.16-5.64-1.75-7.05,1.33-15.37,13.05-18.89,19.62-.01-.55-.01-1.09-.01-1.63,0-2.81.14-5.68.42-8.58,4.51-8.45,14.41-15.32,23.05-15.98,3.34-.19,6.2.93,7.84,3.04,1.61,2.08,1.96,4.94.98,8.05Z"/>
    <path class="cls-1" d="M452.4,101.79c-1.44,6.28-3.59,12.29-6.36,17.95h0c-7.31,8.67-18.25,14.1-30.57,15.08-11.42.9-20.67-1.46-24.36-12.56-4.07-12.21-.32-23.19,1.76-35.21.59-3.43-.28-7.6-3.44-9.07-6.28-2.93-14.66,6.03-19.08,9.46-5.3,4.11-11.9,9.29-19.08,8.09-4.56-.76-6.6-6.33-6.26-10.93.45-6.22,3.5-11.93,6.68-17.3,2.69-4.53,5.52-8.98,8.48-13.34,10.78-15.89,43.27-41.32,22.18-53.95,7.17.99,14.05,2.9,20.52,5.59-1.24,14.63-65.51,66.73-42.14,76.29,4.98,2.04,12-2.34,16.3-4.66,5.38-2.91,29.09-20.67,27.34-3.21-.57,5.64-2.85,10.98-3.35,16.69-.64,7.34-.26,15.72,2.44,22.64,7.41,19,36.44,7.03,48.95-11.56Z"/>
    <path class="cls-1" d="M453.8,72.01s0,.01,0,.01c-3.53,10.22-9.29,20.23-17.73,27.01-2.54,2.04-5.66,3.95-8.93,4.48-1.35.22-2.8.1-3.96-.61-1.78-1.09-2.53-3.29-2.9-5.35-1.77-10,1.07-21.06,3.15-30.82.7-3.31,1.45-6.61,2.13-9.92.68-3.29,1.73-7.47-.53-10.39-1.41-1.82-3.97-2.47-6.24-2.07-2.26.4-4.28,1.67-6.08,3.11-5.16,4.14-9.92,8.93-15.42,12.62-1.25.84-2.57,1.62-4.03,2-3.82.99-7.2-1.73-8.56-5.16-1.03-2.61-1.24-5.86-.68-8.6,1.26-6.14,5.52-11.33,9.62-15.85,4.27-4.7,8.92-9.05,12.75-14.13,1.53-2.02,2.95-4.26,3.21-6.78.11-1-.03-2.05-.38-3,4.97,2.58,9.65,5.64,13.97,9.11-7.43,8.33-17.05,14.4-25.77,21.4-1.55,1.25-3.17,2.65-3.73,4.56-1.46,5,5.01,5.73,8.32,4.89,3.42-.86,6.47-2.73,9.54-4.39,3.78-2.05,7.2-4.73,10.97-6.8,3.13-1.71,8.78-4.98,12.34-2.66,1.75,1.13,2.21,3.44,2.11,5.39-.26,4.93-3.19,9.46-4.85,14.01-1.94,5.27-3.58,10.68-4.2,16.28-.5,4.51-.32,9.12.97,13.49,1.92,6.54,20.37,9.83,20.52-29.68,2.09,5.69,3.97,11.64,4.37,17.87Z"/>
  </g>
  <g>
    <path class="cls-2" d="M27.53,118.14c1.47-.77,2.72-1.69,3.77-2.76,1.04-1.07,1.85-2.26,2.43-3.58.58-1.32.86-2.74.86-4.26,0-1.84-.37-3.53-1.12-5.09-.75-1.55-1.86-2.9-3.32-4.02-1.47-1.13-3.31-2-5.51-2.63-2.2-.62-4.76-.94-7.68-.94H.05v48.72h8.19v-22.89h5.73l16.94,22.89h9.52l-17.75-23.62c1.76-.44,3.38-1.05,4.85-1.82ZM18.07,117.5c-1.56.49-3.25.73-5.09.73h-4.74v-20.32h7.2c1.49,0,2.87.25,4.13.73,1.26.49,2.35,1.17,3.27,2.04.92.87,1.63,1.92,2.13,3.14.5,1.23.75,2.57.75,4.04,0,1.59-.32,3.02-.96,4.3-.64,1.27-1.52,2.36-2.66,3.25-1.14.89-2.49,1.59-4.04,2.08Z"/>
    <path class="cls-2" d="M75.42,141.51c-.67-.89-1.01-1.92-1.01-3.07v-23.22c0-1.49-.21-2.86-.64-4.1-.43-1.24-1.15-2.28-2.15-3.14-1.01-.86-2.34-1.52-4.01-2-1.67-.48-3.72-.72-6.17-.72-1.91,0-3.75.23-5.53.7-1.78.47-3.36,1.13-4.76,2-1.4.87-2.55,1.94-3.47,3.21-.92,1.27-1.48,2.72-1.67,4.34h6.83c.15-1.05.43-2.05.86-2.99.43-.94.98-1.76,1.65-2.46.67-.7,1.45-1.25,2.33-1.67.88-.42,1.85-.62,2.9-.62s2.05.15,2.85.46c.8.31,1.45.82,1.97,1.54.51.72.89,1.67,1.14,2.85.24,1.18.37,2.62.37,4.33v2.35c-1.67.42-3.38.87-5.14,1.36-1.76.49-3.48,1.05-5.14,1.67-1.67.62-3.23,1.34-4.7,2.13-1.47.8-2.76,1.7-3.88,2.72-1.11,1.02-1.99,2.17-2.63,3.47-.64,1.3-.95,2.76-.95,4.37,0,1.32.23,2.56.68,3.71.45,1.15,1.09,2.14,1.91,2.98.82.83,1.82,1.49,3.01,1.97,1.19.48,2.52.72,3.99.72,1.59,0,2.99-.18,4.21-.55,1.21-.37,2.31-.84,3.31-1.41.99-.58,1.91-1.22,2.76-1.93.84-.71,1.71-1.4,2.59-2.06,0,1.15.34,2.17,1.01,3.07.67.89,1.5,1.59,2.48,2.08h7.49c-.98-.49-1.81-1.18-2.48-2.08ZM66.91,135.72c-.73.56-1.46,1.09-2.17,1.58-.71.49-1.42.93-2.13,1.3-.71.38-1.45.68-2.2.9-.76.22-1.56.33-2.39.33-.78,0-1.54-.18-2.28-.53-.73-.35-1.38-.85-1.95-1.47-.56-.62-1.02-1.35-1.36-2.17-.34-.82-.51-1.7-.51-2.63,0-.88.22-1.73.66-2.54.44-.81,1.04-1.58,1.8-2.31.76-.74,1.64-1.42,2.65-2.06,1-.64,2.06-1.23,3.16-1.78,1.1-.55,2.23-1.05,3.38-1.49,1.15-.44,2.27-.83,3.34-1.18v14.03Z"/>
    <path class="cls-2" d="M115.26,108.57c-.86-1.03-1.86-1.84-2.99-2.42-1.14-.59-2.37-.88-3.69-.88-2.52,0-5.01.63-7.46,1.89-2.45,1.26-4.81,3.17-7.09,5.71v-7.6h-2.13l-5.36,2.09v36.22h7.49v-27.85c.83-.81,1.7-1.54,2.61-2.2.91-.66,1.82-1.23,2.74-1.71.92-.48,1.82-.85,2.7-1.12.88-.27,1.71-.4,2.5-.4.88,0,1.68.17,2.41.5.72.33,1.35.81,1.89,1.45.54.64.95,1.43,1.25,2.37.29.94.44,2.04.44,3.29v25.68h7.46v-26.97c0-1.57-.25-3.04-.73-4.43-.49-1.38-1.16-2.59-2.02-3.62Z"/>
    <path class="cls-2" d="M160.93,132.89c-.86,1.1-1.89,2.08-3.1,2.94-1.21.86-2.57,1.55-4.06,2.08-1.49.53-3.05.79-4.67.79-1.93,0-3.71-.44-5.33-1.32-1.62-.88-3.01-2.11-4.19-3.67-1.18-1.57-2.09-3.43-2.74-5.58-.65-2.15-.97-4.49-.97-7.02h28.03c0-2.08-.41-4.08-1.23-5.99-.82-1.91-1.97-3.59-3.45-5.05-1.48-1.46-3.25-2.62-5.31-3.49-2.06-.87-4.31-1.3-6.76-1.3-2.79,0-5.32.53-7.59,1.58-2.27,1.05-4.21,2.51-5.82,4.37-1.62,1.86-2.87,4.07-3.75,6.63-.88,2.56-1.32,5.35-1.32,8.36,0,2.5.48,4.86,1.45,7.07.97,2.22,2.28,4.15,3.95,5.79,1.67,1.64,3.62,2.94,5.86,3.89,2.24.95,4.64,1.43,7.18,1.43,1.93,0,3.84-.37,5.73-1.1,1.89-.73,3.63-1.73,5.24-2.99,1.6-1.26,3.01-2.74,4.21-4.43,1.2-1.69,2.07-3.5,2.61-5.44l-2.17-.96c-.34,1.18-.94,2.31-1.8,3.42ZM136.84,114.08c.53-1.22,1.19-2.28,2-3.18.81-.89,1.73-1.59,2.75-2.09,1.03-.5,2.11-.75,3.23-.75,1.35,0,2.61.26,3.78.77,1.18.51,2.2,1.22,3.09,2.11.88.89,1.57,1.95,2.08,3.18.5,1.23.75,2.55.75,3.97l-18.63-.04c.1-1.42.41-2.74.94-3.97Z"/>
    <path class="cls-2" d="M205.23,132.89c-.86,1.1-1.89,2.08-3.1,2.94-1.21.86-2.57,1.55-4.06,2.08-1.49.53-3.05.79-4.67.79-1.94,0-3.71-.44-5.33-1.32-1.62-.88-3.01-2.11-4.19-3.67-1.18-1.57-2.09-3.43-2.74-5.58-.65-2.15-.97-4.49-.97-7.02h28.03c0-2.08-.41-4.08-1.23-5.99-.82-1.91-1.97-3.59-3.45-5.05-1.48-1.46-3.25-2.62-5.31-3.49-2.06-.87-4.31-1.3-6.76-1.3-2.79,0-5.32.53-7.59,1.58-2.26,1.05-4.21,2.51-5.82,4.37-1.62,1.86-2.87,4.07-3.75,6.63-.88,2.56-1.32,5.35-1.32,8.36,0,2.5.48,4.86,1.45,7.07.97,2.22,2.28,4.15,3.95,5.79,1.67,1.64,3.62,2.94,5.86,3.89,2.24.95,4.64,1.43,7.18,1.43,1.94,0,3.84-.37,5.73-1.1,1.89-.73,3.63-1.73,5.24-2.99,1.6-1.26,3.01-2.74,4.21-4.43,1.2-1.69,2.07-3.5,2.61-5.44l-2.17-.96c-.34,1.18-.94,2.31-1.8,3.42ZM181.15,114.08c.53-1.22,1.19-2.28,2-3.18.81-.89,1.73-1.59,2.76-2.09,1.03-.5,2.11-.75,3.23-.75,1.35,0,2.61.26,3.78.77,1.18.51,2.2,1.22,3.09,2.11.88.89,1.57,1.95,2.08,3.18.5,1.23.75,2.55.75,3.97l-18.63-.04c.1-1.42.41-2.74.94-3.97Z"/>
    <path class="cls-2" d="M248.59,108.57c-.86-1.03-1.86-1.84-2.99-2.42-1.14-.59-2.37-.88-3.69-.88-2.52,0-5.01.63-7.46,1.89-2.45,1.26-4.81,3.17-7.09,5.71v-7.6h-2.13l-5.36,2.09v36.22h7.49v-27.85c.83-.81,1.7-1.54,2.61-2.2.91-.66,1.82-1.23,2.74-1.71.92-.48,1.82-.85,2.7-1.12.88-.27,1.71-.4,2.5-.4.88,0,1.68.17,2.41.5.72.33,1.35.81,1.89,1.45.54.64.95,1.43,1.25,2.37.29.94.44,2.04.44,3.29v25.68h7.46v-26.97c0-1.57-.25-3.04-.73-4.43-.49-1.38-1.16-2.59-2.02-3.62Z"/>
    <path class="cls-2" d="M244.35,30.97v34.98c0,6.05-4.9,10.95-10.95,10.95-.25,0,.03,3.01-.24,3.01,10.09,0,18.27-8.18,18.27-18.27v-30.67h-7.09Z"/>
    <path class="cls-2" d="M3.84,77.17c2.41,2.1,5.33,2.74,8.43,2.74h43.41v-30.96c.86.24,1.75.39,2.66.4.6,0,1.21,0,1.81,0h31.43v5.1c0,2.14-.02,4.29,0,6.43.04,4.35,2.48,8.36,6.46,10.21,2.62,1.22,5.39,1.04,8.18,1.04,0,0,120,.1,120,0V30.97h-7.09v38.16h-90.2c-6.35,0-12.71.08-19.06,0-4.11-.05-7.92-2.25-9.88-5.9-1.3-2.42-1.32-4.95-1.32-7.59v-24.67h-7.09v15.38h-23.45c-3.16,0-6.15-.02-8.79-2.13-2.41-1.93-3.65-4.8-3.67-7.85,0-.42,0-4.97,0-5.39h-7.14l.04,4.13c-.03,1.44-.08,2.9.02,4.34v37.46h-27.95c-2.34,0-4.59.05-6.8-.91-4.16-1.79-6.7-5.91-6.75-10.39-.05-5.61,0-11.23,0-16.85v-17.78H0v36.95C0,71.47,1.09,74.78,3.84,77.17Z"/>
    <circle class="cls-2" cx="209.2" cy="27.18" r="5.13"/>
    <circle class="cls-2" cx="27.84" cy="27.18" r="5.13"/>
    <circle class="cls-2" cx="81.39" cy="65.5" r="5.13"/>
    <circle class="cls-2" cx="66.91" cy="65.5" r="5.13"/>
  </g>
</svg>