<?xml version="1.0" encoding="UTF-8"?>
<svg id="Layer_1" data-name="Layer 1" xmlns="http://www.w3.org/2000/svg" viewBox="0 0 595.28 78.1">
  <defs>
    <style>
      .cls-1 {
        fill: #79cfdc;
      }

      .cls-2, .cls-3 {
        fill: #fff;
      }

      .cls-4 {
        fill: #e0f3fa;
      }

      .cls-3 {
        fill-rule: evenodd;
      }

      .cls-5 {
        fill: none;
      }

      .cls-6 {
        fill: #f27baa;
      }

      .cls-7 {
        fill: #97d9ec;
      }

      .cls-8 {
        fill: #27c3ed;
      }

      .cls-9 {
        fill: #253d85;
      }

      .cls-10 {
        fill: #243f85;
      }

      .cls-11 {
        fill: #2dc2eb;
      }

      .cls-12 {
        fill: #1172ba;
      }

      .cls-13 {
        fill: #2ac2eb;
      }
    </style>
  </defs>
  <g>
    <g>
      <g>
        <path class="cls-9" d="M104.05,37.64c1.41,0,2.12.66,2.12,1.99v4.37h-1.25v-4.12c0-.72-.4-1.08-1.19-1.08-.57,0-1.12.2-1.65.6v4.6h-1.25v-9.39h1.25v3.65c.67-.41,1.33-.61,1.98-.61Z"/>
        <path class="cls-9" d="M116.01,39.91v2.49c0,.54.1,1.03.31,1.49l-.05.11h-1.2c-.06-.12-.11-.26-.15-.41-.55.4-1.17.6-1.85.6s-1.2-.16-1.57-.48c-.37-.32-.56-.77-.56-1.36,0-.48.12-.96.36-1.42.9-.23,2.07-.37,3.51-.4v-.44c0-.48-.11-.82-.33-1.02-.22-.2-.55-.31-.99-.31-.58,0-1.28.12-2.09.36l-.09-.05v-1.06c.85-.24,1.65-.36,2.38-.36.81,0,1.4.17,1.77.51.37.34.55.92.55,1.75ZM113.32,43.23c.48,0,.97-.15,1.49-.44v-1.47c-1.04.04-1.9.12-2.56.24-.09.2-.14.41-.14.64,0,.68.4,1.03,1.2,1.03Z"/>
        <path class="cls-9" d="M122.43,34.61v9.39h-1.25v-9.39h1.25Z"/>
        <path class="cls-9" d="M132.23,39.91v2.49c0,.54.1,1.03.31,1.49l-.05.11h-1.2c-.06-.12-.11-.26-.15-.41-.55.4-1.17.6-1.85.6s-1.2-.16-1.57-.48c-.37-.32-.56-.77-.56-1.36,0-.48.12-.96.36-1.42.9-.23,2.07-.37,3.51-.4v-.44c0-.48-.11-.82-.33-1.02-.22-.2-.55-.31-.99-.31-.58,0-1.28.12-2.09.36l-.09-.05v-1.06c.85-.24,1.65-.36,2.38-.36.81,0,1.4.17,1.77.51.37.34.55.92.55,1.75ZM129.54,43.23c.48,0,.97-.15,1.49-.44v-1.47c-1.04.04-1.9.12-2.56.24-.09.2-.14.41-.14.64,0,.68.4,1.03,1.2,1.03Z"/>
        <path class="cls-9" d="M144.45,38.09l-.34,3.71c-.07.54.05.81.36.81.41,0,.79-.29,1.15-.86s.54-1.32.54-2.23c0-1-.36-1.82-1.06-2.45-.71-.63-1.63-.95-2.77-.95-1.28,0-2.32.5-3.14,1.48-.81.99-1.22,2.28-1.22,3.86,0,1.19.36,2.14,1.08,2.85.72.71,1.75,1.06,3.09,1.06.93,0,1.83-.18,2.71-.54l.1.04v.96c-.85.35-1.79.53-2.81.53-1.65,0-2.95-.46-3.88-1.37-.93-.92-1.4-2.09-1.4-3.53,0-1.84.51-3.35,1.54-4.55,1.02-1.19,2.33-1.79,3.93-1.79,1.44,0,2.62.41,3.54,1.24.93.83,1.39,1.88,1.39,3.14,0,1.19-.29,2.16-.88,2.93-.58.77-1.29,1.15-2.12,1.15-.53,0-.91-.2-1.13-.6-.48.48-1.02.73-1.62.73s-1.05-.18-1.38-.54c-.34-.36-.51-.87-.51-1.54,0-1.19.35-2.38,1.05-3.57.51-.15.97-.23,1.39-.23.51,0,.98.1,1.42.29l.83-.17.12.12ZM141.67,42.73c.43,0,.87-.22,1.3-.65v-.18s.29-2.84.29-2.84c-.36-.15-.75-.23-1.17-.23-.26,0-.5.03-.74.09-.41.95-.61,1.84-.61,2.66,0,.77.31,1.15.93,1.15Z"/>
        <path class="cls-9" d="M160.61,37.82l-1.85,6.19h-1.69l-1.3-4.79-1.33,4.79h-1.63l-1.77-6.19h1.34l1.33,4.97,1.39-4.97h1.57l1.32,4.97,1.39-4.97h1.24Z"/>
        <path class="cls-9" d="M169.7,40.2c0,.33-.03.67-.1,1h-3.97c.03.65.19,1.13.46,1.43.28.3.71.45,1.32.45.68,0,1.35-.12,2.03-.38l.09.05v1.03c-.69.28-1.43.41-2.24.41-.99,0-1.71-.26-2.17-.77-.46-.51-.7-1.29-.7-2.34,0-1.14.25-2.12.75-2.97.69-.32,1.39-.48,2.09-.48,1.63,0,2.44.85,2.44,2.56ZM168.51,40.34v-.15c0-.53-.1-.9-.31-1.13s-.52-.34-.94-.34c-.48,0-.89.08-1.24.23-.18.41-.3.87-.35,1.39h2.84Z"/>
        <path class="cls-9" d="M177.58,37.64c.82,0,1.44.26,1.88.77s.65,1.27.65,2.26c0,.58-.07,1.15-.21,1.7-.14.55-.31.99-.53,1.33-.6.33-1.26.49-1.98.49-.65,0-1.22-.11-1.7-.33l-.91.19-.14-.14v-9.31h1.25v3.51c.52-.32,1.08-.48,1.69-.48ZM178.49,42.88c.24-.63.36-1.32.36-2.08,0-.7-.13-1.22-.39-1.55s-.67-.5-1.21-.5c-.46,0-.92.14-1.37.43v3.66c.44.18.93.26,1.45.26.42,0,.8-.07,1.15-.21Z"/>
        <path class="cls-9" d="M189.84,37.82l-3.27,9.27h-1.24l1.09-3.08h-.36l-2.07-6.19h1.34l1.55,4.87,1.72-4.87h1.24Z"/>
        <path class="cls-9" d="M198.67,39.91v2.49c0,.54.1,1.03.31,1.49l-.05.11h-1.2c-.06-.12-.11-.26-.15-.41-.55.4-1.17.6-1.85.6s-1.2-.16-1.57-.48c-.37-.32-.56-.77-.56-1.36,0-.48.12-.96.36-1.42.9-.23,2.07-.37,3.51-.4v-.44c0-.48-.11-.82-.33-1.02-.22-.2-.55-.31-.99-.31-.58,0-1.28.12-2.09.36l-.09-.05v-1.06c.85-.24,1.65-.36,2.38-.36.81,0,1.4.17,1.77.51.37.34.55.92.55,1.75ZM195.98,43.23c.48,0,.97-.15,1.49-.44v-1.47c-1.04.04-1.9.12-2.56.24-.09.2-.14.41-.14.64,0,.68.4,1.03,1.2,1.03Z"/>
        <path class="cls-9" d="M207.14,37.64c1.41,0,2.12.66,2.12,1.99v4.37h-1.25v-4.12c0-.73-.4-1.09-1.19-1.09-.58,0-1.13.21-1.65.61v4.6h-1.25v-6.19h1.08l.11.48c.69-.43,1.37-.65,2.04-.65Z"/>
        <path class="cls-9" d="M215.13,44.27l-.96-.95.96-.96.95.96-.95.95Z"/>
        <path class="cls-9" d="M223.24,40.38c.78.18,1.34.43,1.68.73.34.3.51.69.51,1.15,0,.49-.12.94-.38,1.35-.48.39-1.17.59-2.09.59-.71,0-1.45-.13-2.21-.39v-1.06s.1-.04.1-.04c.72.27,1.43.41,2.1.41.54,0,.97-.06,1.28-.19.04-.12.06-.28.06-.45,0-.24-.12-.44-.34-.59-.23-.15-.63-.3-1.2-.44-.75-.19-1.28-.43-1.6-.71-.31-.28-.47-.66-.47-1.15,0-.45.13-.9.39-1.35.22-.17.53-.31.91-.42s.77-.16,1.17-.16c.65,0,1.27.12,1.87.36v1.06l-.09.05c-.63-.26-1.23-.39-1.79-.39-.48,0-.9.08-1.27.23-.04.17-.06.32-.06.45,0,.23.1.41.3.54.2.14.57.27,1.12.41Z"/>
        <path class="cls-9" d="M234.85,39.91v2.49c0,.54.1,1.03.31,1.49l-.05.11h-1.2c-.06-.12-.11-.26-.15-.41-.55.4-1.17.6-1.85.6s-1.2-.16-1.57-.48c-.37-.32-.56-.77-.56-1.36,0-.48.12-.96.36-1.42.9-.23,2.07-.37,3.51-.4v-.44c0-.48-.11-.82-.32-1.02-.22-.2-.55-.31-.99-.31-.58,0-1.28.12-2.09.36l-.09-.05v-1.06c.85-.24,1.64-.36,2.38-.36.81,0,1.4.17,1.77.51.37.34.55.92.55,1.75ZM232.15,43.23c.48,0,.97-.15,1.49-.44v-1.47c-1.04.04-1.89.12-2.55.24-.09.2-.14.41-.14.64,0,.68.4,1.03,1.2,1.03Z"/>
      </g>
      <g>
        <circle class="cls-8" cx="87.79" cy="40.21" r="7.43"/>
        <path class="cls-3" d="M91.7,38.21v4.61c-.09.35-.31.53-.7.58-.11.02-.21.02-.32.02h-5.79c-.1,0-.2,0-.3-.02-.42-.06-.64-.24-.71-.61v-4.61c.09-.35.31-.53.7-.58.11-.02.21-.02.32-.02h5.79c.1,0,.2,0,.3.02.42.06.64.24.72.61ZM90.14,41.42c0,.37,0,.74,0,1.1,0,.1.03.13.14.12.15,0,.31-.01.46,0,.14,0,.19-.02.19-.16,0-1.32,0-2.65,0-3.97v-.1s0-.06-.05-.06c-.18.01-.36-.04-.53.06-.81.47-1.62.92-2.43,1.38-.08.05-.14.05-.22,0-.76-.43-1.52-.85-2.28-1.29-.19-.11-.38-.16-.6-.15-.12,0-.14.04-.14.14,0,.63,0,1.27,0,1.9,0,.71,0,1.41,0,2.11,0,.13.04.16.17.15.15-.01.31-.01.46,0,.12,0,.15-.02.15-.13,0-.95,0-1.9,0-2.85v-.16c.06.03.09.05.13.07.71.41,1.42.82,2.12,1.23.08.05.13.05.2,0,.4-.24.81-.47,1.22-.71.33-.19.67-.39,1.03-.59v1.93Z"/>
      </g>
    </g>
    <g>
      <g>
        <path class="cls-9" d="M124.19,21.73h-2.21v2.2h-1.09v-2.2h-2.22v-1.09h2.22v-2.22h1.09v2.22h2.21v1.09Z"/>
        <path class="cls-9" d="M129.78,16.14c2.07,0,3.11,1.54,3.11,4.63,0,1.55-.29,2.7-.88,3.43s-1.5,1.1-2.74,1.1c-.65,0-1.35-.12-2.09-.36l.26-1.17c.71.26,1.34.39,1.89.39.72,0,1.26-.23,1.63-.7.37-.46.58-1.18.64-2.16-.57.33-1.2.5-1.9.5-.91,0-1.6-.24-2.08-.72s-.71-1.16-.71-2.05.27-1.73.81-2.42c.74-.32,1.43-.48,2.07-.48ZM128.14,19c0,.54.14.96.43,1.25.29.29.71.44,1.27.44.6,0,1.19-.14,1.75-.41-.08-2-.71-2.99-1.92-2.99-.36,0-.73.06-1.1.18-.29.44-.44.96-.44,1.54Z"/>
        <path class="cls-9" d="M138.53,19.64c.92,0,1.63.24,2.12.71.5.48.75,1.16.75,2.04,0,.96-.26,1.76-.79,2.41-.67.33-1.35.5-2.04.5-2.15,0-3.23-1.29-3.23-3.88,0-1.78.31-3.1.93-3.97.62-.87,1.56-1.3,2.82-1.3.58,0,1.19.12,1.85.36l-.25,1.17c-.62-.26-1.17-.39-1.67-.39-1.35,0-2.13.95-2.34,2.86.54-.33,1.16-.5,1.85-.5ZM136.61,21.16v.21c0,1.85.7,2.78,2.09,2.78.33,0,.67-.06,1.04-.18.28-.44.41-.96.41-1.54,0-.54-.16-.96-.46-1.25-.31-.29-.74-.44-1.3-.44-.62,0-1.21.14-1.78.41Z"/>
        <path class="cls-9" d="M147.06,19.64c.92,0,1.63.24,2.12.71.5.48.75,1.16.75,2.04,0,.96-.26,1.76-.79,2.41-.67.33-1.35.5-2.04.5-2.15,0-3.23-1.29-3.23-3.88,0-1.78.31-3.1.93-3.97.62-.87,1.56-1.3,2.82-1.3.58,0,1.19.12,1.85.36l-.25,1.17c-.62-.26-1.17-.39-1.67-.39-1.35,0-2.13.95-2.34,2.86.54-.33,1.16-.5,1.85-.5ZM145.14,21.16v.21c0,1.85.7,2.78,2.09,2.78.33,0,.67-.06,1.04-.18.28-.44.41-.96.41-1.54,0-.54-.15-.96-.46-1.25s-.74-.44-1.3-.44c-.62,0-1.21.14-1.78.41Z"/>
        <path class="cls-9" d="M158.28,19.94h.59c2.35,0,3.52.92,3.52,2.74,0,.85-.25,1.57-.74,2.16-.58.31-1.32.46-2.22.46-.95,0-1.89-.16-2.82-.48l.29-1.14c.76.32,1.61.48,2.56.48.48,0,.94-.08,1.39-.23.18-.38.28-.79.28-1.25,0-1.09-.75-1.64-2.25-1.64h-1.69l-.14-.17.48-4.52h4.5v1.2h-3.48l-.25,2.39Z"/>
        <path class="cls-9" d="M169.29,20.5c1.13.39,1.69,1.15,1.69,2.27,0,.82-.25,1.51-.74,2.07-.61.31-1.37.46-2.28.46-.98,0-1.92-.16-2.82-.48l.3-1.14c.73.32,1.58.48,2.53.48.52,0,1.01-.08,1.48-.24.18-.36.28-.74.28-1.15,0-.53-.21-.94-.61-1.24-.41-.3-1.02-.45-1.84-.45h-1.13v-1.14h1.25c.75,0,1.36-.11,1.82-.33.19-.43.29-.83.29-1.18,0-.38-.14-.67-.41-.86-.27-.19-.63-.29-1.07-.29-.78,0-1.54.15-2.28.44l-.29-1.14c.77-.29,1.64-.44,2.61-.44.82,0,1.47.17,1.97.53.49.35.74.87.74,1.57,0,.55-.21,1.21-.61,1.98-.3.12-.59.22-.86.29Z"/>
        <path class="cls-9" d="M182.01,20.71c1.09.61,1.64,1.35,1.64,2.23,0,.69-.23,1.31-.69,1.85-.75.33-1.6.5-2.54.5s-1.7-.2-2.24-.59c-.54-.39-.81-.93-.81-1.63,0-.89.54-1.71,1.62-2.44-.82-.59-1.23-1.31-1.23-2.16,0-.67.25-1.31.74-1.93.7-.28,1.37-.43,2-.43.82,0,1.48.21,1.98.62.5.41.75.95.75,1.62,0,.85-.41,1.63-1.23,2.34ZM178.56,22.96c0,.39.17.7.53.92.35.22.84.33,1.45.33.5,0,1.04-.08,1.62-.23.17-.33.25-.65.25-.95,0-.33-.16-.63-.48-.89-.32-.26-.85-.53-1.58-.8-.11-.04-.26-.1-.46-.19-.88.63-1.31,1.23-1.31,1.8ZM179.26,17.44c-.2.42-.3.75-.3.99,0,.37.14.69.42.96.28.27.75.53,1.42.78l.25.1c.67-.62,1-1.21,1-1.78,0-.38-.14-.68-.43-.91-.29-.23-.67-.35-1.15-.35-.36,0-.76.07-1.21.21Z"/>
        <path class="cls-9" d="M187.93,19.94h.59c2.35,0,3.52.92,3.52,2.74,0,.85-.25,1.57-.74,2.16-.58.31-1.32.46-2.22.46-.95,0-1.89-.16-2.82-.48l.29-1.14c.76.32,1.61.48,2.56.48.48,0,.94-.08,1.39-.23.18-.38.28-.79.28-1.25,0-1.09-.75-1.64-2.26-1.64h-1.69l-.14-.17.48-4.52h4.5v1.2h-3.48l-.25,2.39Z"/>
        <path class="cls-9" d="M196.45,19.94h.59c2.35,0,3.52.92,3.52,2.74,0,.85-.25,1.57-.74,2.16-.58.31-1.32.46-2.22.46-.95,0-1.89-.16-2.82-.48l.29-1.14c.76.32,1.61.48,2.56.48.48,0,.94-.08,1.39-.23.18-.38.28-.79.28-1.25,0-1.09-.75-1.64-2.26-1.64h-1.69l-.14-.17.48-4.52h4.5v1.2h-3.48l-.25,2.39Z"/>
        <path class="cls-9" d="M211.44,20.5c1.13.39,1.69,1.15,1.69,2.27,0,.82-.25,1.51-.74,2.07-.61.31-1.37.46-2.28.46-.98,0-1.92-.16-2.82-.48l.3-1.14c.73.32,1.58.48,2.53.48.52,0,1.01-.08,1.48-.24.18-.36.28-.74.28-1.15,0-.53-.21-.94-.61-1.24-.41-.3-1.02-.45-1.84-.45h-1.13v-1.14h1.25c.75,0,1.36-.11,1.82-.33.19-.43.29-.83.29-1.18,0-.38-.14-.67-.41-.86-.27-.19-.63-.29-1.07-.29-.78,0-1.54.15-2.28.44l-.29-1.14c.77-.29,1.64-.44,2.61-.44.82,0,1.47.17,1.97.53.49.35.74.87.74,1.57,0,.55-.21,1.21-.61,1.98-.3.12-.59.22-.86.29Z"/>
        <path class="cls-9" d="M221.95,22.87h-1.34v2.24h-1.21v-2.24h-3.91v-1.15l3.85-5.39h1.28v5.4h1.34v1.14ZM219.4,21.73v-3.78l-2.69,3.78h2.69Z"/>
        <path class="cls-9" d="M227.29,16.15c2.05,0,3.07,1.43,3.07,4.28,0,.82-.08,1.6-.23,2.36-.15.75-.35,1.36-.6,1.83-.72.45-1.49.68-2.3.68-2.07,0-3.11-1.43-3.11-4.3,0-.83.07-1.61.22-2.36s.36-1.35.61-1.82c.74-.44,1.52-.66,2.33-.66ZM228.63,23.84c.34-.88.51-2.01.49-3.39,0-1.09-.17-1.9-.47-2.4-.3-.51-.78-.76-1.41-.76-.5,0-.96.11-1.38.31-.36.96-.53,2.09-.51,3.39,0,1.09.17,1.88.48,2.4s.78.77,1.4.77c.53,0,.99-.1,1.4-.31Z"/>
        <path class="cls-9" d="M235.81,16.15c2.04,0,3.07,1.43,3.07,4.28,0,.82-.07,1.6-.22,2.36-.15.75-.35,1.36-.6,1.83-.72.45-1.49.68-2.3.68-2.07,0-3.11-1.43-3.11-4.3,0-.83.08-1.61.23-2.36s.35-1.35.61-1.82c.74-.44,1.52-.66,2.33-.66ZM237.15,23.84c.34-.88.51-2.01.49-3.39,0-1.09-.16-1.9-.47-2.4-.31-.51-.78-.76-1.41-.76-.5,0-.96.11-1.38.31-.36.96-.53,2.09-.51,3.39,0,1.09.17,1.88.47,2.4.31.51.78.77,1.4.77.53,0,.99-.1,1.4-.31Z"/>
      </g>
      <g>
        <g id="Telegram">
          <circle class="cls-8" cx="105.49" cy="21.42" r="7.43"/>
        </g>
        <path class="cls-3" d="M107.82,16.79c.27.1.4.29.4.58,0,2.69,0,5.39,0,8.09,0,.33-.2.6-.59.59-1.43-.01-2.87-.01-4.3,0-.37,0-.58-.25-.58-.57v-8.12c0-.28.14-.47.4-.57h4.66ZM107.73,18.08c0-.12-.03-.14-.14-.14-1.4,0-2.8,0-4.2,0-.12,0-.14.03-.14.14,0,2.03,0,4.06,0,6.09,0,.12.03.15.14.15,1.4,0,2.8,0,4.2,0,.12,0,.14-.03.14-.15,0-1.01,0-2.03,0-3.04s0-2.03,0-3.05ZM105.48,24.74c-.2,0-.38.21-.38.46,0,.25.15.41.38.42.21,0,.38-.17.38-.43,0-.25-.17-.45-.38-.45Z"/>
        <g id="WhatsApp">
          <circle class="cls-8" cx="87.79" cy="21.42" r="7.43"/>
          <g id="WA_Logo" data-name="WA Logo">
            <path class="cls-3" d="M91.36,17.94c-.89-.89-2.07-1.38-3.33-1.38-2.6,0-4.71,2.11-4.71,4.71,0,.83.22,1.64.63,2.35l-.67,2.44,2.5-.66c.69.38,1.46.57,2.25.57h0c2.6,0,4.71-2.11,4.71-4.71,0-1.26-.49-2.44-1.38-3.33ZM88.03,25.19h0c-.7,0-1.39-.19-1.99-.55l-.14-.08-1.48.39.4-1.44-.09-.15c-.39-.62-.6-1.34-.6-2.08,0-2.16,1.76-3.91,3.92-3.91,1.05,0,2.03.41,2.77,1.15s1.15,1.72,1.15,2.77c0,2.16-1.76,3.92-3.92,3.92ZM90.18,22.26c-.12-.06-.7-.34-.8-.38-.11-.04-.19-.06-.26.06-.08.12-.3.38-.37.46-.07.08-.14.09-.26.03-.12-.06-.5-.18-.95-.58-.35-.31-.59-.7-.66-.82-.07-.12,0-.18.05-.24.05-.05.12-.14.18-.21.06-.07.08-.12.12-.2s.02-.15,0-.21c-.03-.06-.26-.64-.36-.87-.1-.23-.19-.2-.26-.2-.07,0-.15,0-.23,0s-.21.03-.31.15c-.11.12-.41.4-.41.98s.42,1.14.48,1.22c.06.08.83,1.27,2.01,1.78.28.12.5.19.67.25.28.09.54.08.74.05.23-.03.7-.28.79-.56.1-.27.1-.51.07-.56-.03-.05-.11-.08-.23-.14Z"/>
          </g>
        </g>
      </g>
    </g>
    <g>
      <g>
        <g>
          <path class="cls-9" d="M276.74,18.28l-1.92,6.42h-1.76l-1.35-4.97-1.38,4.97h-1.69l-1.83-6.42h1.39l1.38,5.16,1.44-5.16h1.62l1.37,5.16,1.44-5.16h1.29Z"/>
          <path class="cls-9" d="M290.54,18.28l-1.92,6.42h-1.75l-1.35-4.97-1.38,4.97h-1.69l-1.83-6.42h1.39l1.38,5.16,1.44-5.16h1.62l1.36,5.16,1.44-5.16h1.29Z"/>
          <path class="cls-9" d="M304.35,18.28l-1.92,6.42h-1.75l-1.35-4.97-1.38,4.97h-1.69l-1.83-6.42h1.39l1.38,5.16,1.44-5.16h1.62l1.36,5.16,1.44-5.16h1.29Z"/>
          <path class="cls-9" d="M309.82,24.97l-1-.99,1-1,.99,1-.99.99Z"/>
          <path class="cls-9" d="M325.29,18.28l-1.92,6.42h-1.76l-1.35-4.97-1.38,4.97h-1.69l-1.83-6.42h1.39l1.38,5.16,1.44-5.16h1.62l1.37,5.16,1.44-5.16h1.29Z"/>
          <path class="cls-9" d="M335.16,20.75c0,.35-.04.69-.1,1.04h-4.12c.03.68.2,1.17.48,1.48.29.31.74.47,1.37.47.7,0,1.4-.13,2.11-.39l.09.05v1.07c-.71.29-1.49.43-2.33.43-1.02,0-1.77-.27-2.25-.8-.48-.53-.72-1.34-.72-2.42,0-1.18.26-2.21.78-3.08.72-.33,1.44-.49,2.17-.49,1.69,0,2.54.88,2.54,2.65ZM333.92,20.89v-.16c0-.55-.11-.94-.33-1.17-.22-.23-.54-.35-.97-.35-.49,0-.92.08-1.29.23-.19.42-.31.91-.36,1.44h2.95Z"/>
          <path class="cls-9" d="M343.76,18.1c.85,0,1.5.27,1.95.8.45.53.68,1.32.68,2.35,0,.61-.07,1.19-.21,1.76-.14.57-.33,1.03-.55,1.38-.62.34-1.31.51-2.05.51-.68,0-1.27-.11-1.77-.34l-.95.2-.14-.14v-9.66h1.3v3.64c.54-.33,1.12-.49,1.76-.49ZM344.71,23.53c.25-.65.38-1.37.38-2.16,0-.73-.14-1.27-.41-1.61s-.69-.52-1.25-.52c-.48,0-.95.15-1.42.44v3.8c.46.18.96.27,1.51.27.43,0,.83-.07,1.2-.22Z"/>
          <path class="cls-9" d="M356.92,18.28l-3.39,9.62h-1.29l1.13-3.2h-.38l-2.14-6.42h1.39l1.61,5.06,1.78-5.06h1.29Z"/>
          <path class="cls-9" d="M366.51,20.45v2.59c0,.55.11,1.07.33,1.55l-.05.12h-1.25c-.06-.13-.11-.27-.16-.43-.57.42-1.21.62-1.92.62s-1.25-.17-1.63-.5c-.39-.33-.58-.8-.58-1.41,0-.5.12-.99.38-1.47.94-.24,2.15-.38,3.64-.42v-.46c0-.49-.11-.85-.34-1.06-.22-.21-.57-.32-1.03-.32-.61,0-1.33.13-2.17.38l-.09-.05v-1.1c.88-.25,1.71-.38,2.47-.38.84,0,1.45.17,1.83.53.38.35.57.96.57,1.81ZM363.72,23.89c.49,0,1.01-.15,1.55-.46v-1.52c-1.08.04-1.97.13-2.65.25-.09.21-.14.43-.14.66,0,.71.42,1.07,1.25,1.07Z"/>
          <path class="cls-9" d="M375.73,18.1c1.46,0,2.2.69,2.2,2.07v4.54h-1.3v-4.28c0-.75-.41-1.13-1.23-1.13-.6,0-1.17.21-1.72.64v4.77h-1.3v-6.42h1.12l.12.49c.72-.45,1.43-.68,2.12-.68Z"/>
          <path class="cls-9" d="M384.45,24.97l-1-.99,1-1,.99,1-.99.99Z"/>
          <path class="cls-9" d="M393.29,20.93c.8.19,1.39.44,1.74.75.35.31.53.71.53,1.2,0,.51-.13.98-.39,1.4-.49.41-1.22.61-2.17.61-.74,0-1.5-.13-2.29-.4v-1.11s.1-.04.1-.04c.75.28,1.48.42,2.18.43.56,0,1.01-.07,1.33-.2.04-.13.06-.29.06-.47,0-.25-.12-.46-.36-.62-.24-.16-.65-.31-1.24-.46-.78-.2-1.33-.44-1.66-.73-.32-.29-.49-.69-.49-1.19,0-.47.13-.94.4-1.4.23-.18.55-.33.95-.44s.8-.16,1.21-.16c.68,0,1.32.12,1.94.38v1.1l-.09.05c-.66-.27-1.28-.4-1.86-.4-.49,0-.93.08-1.31.23-.04.17-.06.33-.06.47,0,.23.1.42.31.57.21.14.59.28,1.16.42Z"/>
          <path class="cls-9" d="M405.77,20.45v2.59c0,.55.11,1.07.33,1.55l-.05.12h-1.25c-.06-.13-.11-.27-.16-.43-.57.42-1.21.62-1.92.62s-1.25-.17-1.63-.5c-.39-.33-.58-.8-.58-1.41,0-.5.12-.99.38-1.47.94-.24,2.15-.38,3.64-.42v-.46c0-.49-.11-.85-.34-1.06-.22-.21-.57-.32-1.03-.32-.61,0-1.33.13-2.17.38l-.09-.05v-1.1c.88-.25,1.71-.38,2.47-.38.84,0,1.45.17,1.83.53.38.35.57.96.57,1.81ZM402.98,23.89c.49,0,1.01-.15,1.55-.46v-1.52c-1.08.04-1.97.13-2.65.25-.09.21-.14.43-.14.66,0,.71.42,1.07,1.25,1.07Z"/>
        </g>
        <g>
          <circle class="cls-8" cx="254.39" cy="21.42" r="7.43"/>
          <path class="cls-2" d="M254.9,16.27h0c-.28-.03-.59-.03-.7-.03-.9.03-1.76.29-2.53.76-1.48.91-2.4,2.5-2.46,4.23-.1,2.74,1.96,5.05,4.64,5.33.17.02.46.04.74.03.1,0,.2-.01.3-.02,0,0,0,0,0,0,.78-.08,1.53-.33,2.2-.74,1.48-.91,2.4-2.5,2.46-4.23.1-2.74-1.97-5.07-4.67-5.33ZM255.96,17.18c.6.22,1.14.57,1.58,1-.27.13-.53.25-.8.34-.25-.54-.53-.99-.79-1.34ZM254.88,16.93s.02,0,.03,0c.2.21.75.85,1.19,1.78-.44.1-.87.16-1.28.17l.06-1.95ZM254.08,21.81l-.05,1.52c-.56,0-1.08.08-1.54.17-.22-.58-.34-1.17-.36-1.76l1.95.07ZM252.14,21.09c.05-.67.23-1.28.46-1.81.45.12.97.22,1.55.26l-.05,1.62-1.96-.07ZM254.73,21.84l1.96.07c-.07.59-.23,1.17-.49,1.74-.53-.16-1.03-.25-1.52-.29l.05-1.52ZM254.76,21.18l.05-1.64c.49-.01,1.02-.08,1.56-.22.21.57.36,1.22.36,1.93l-1.97-.07ZM254.17,18.87c-.46-.03-.89-.11-1.27-.2.5-.9,1.09-1.51,1.33-1.73l-.06,1.93ZM252.02,17.57c.37-.23.78-.4,1.2-.52-.3.36-.65.84-.96,1.42-.42-.15-.73-.3-.91-.39.21-.19.43-.36.68-.51ZM250.88,18.57c.14.08.53.3,1.09.5-.24.58-.43,1.24-.48,1.97,0,0,0,.02,0,.02l-1.6-.06c.08-.9.43-1.75.99-2.44ZM252.96,25.71c-.67-.23-1.27-.6-1.76-1.09.2-.09.51-.22.91-.33.22.48.51.95.85,1.43ZM250.75,24.1c-.51-.69-.83-1.53-.88-2.44l1.6.06c.02.65.15,1.3.38,1.95-.53.16-.91.34-1.1.43ZM252.76,24.13c.37-.07.79-.12,1.24-.13l-.07,1.9c-.49-.59-.88-1.18-1.18-1.77ZM254.66,24.02c.4.03.81.1,1.23.22-.33.57-.77,1.13-1.3,1.68l.07-1.9ZM256.76,25.28c-.36.22-.75.39-1.16.51.36-.43.67-.88.92-1.32.27.11.54.24.82.39-.18.16-.37.3-.58.43ZM257.83,24.37c-.34-.2-.67-.37-1-.5.28-.63.46-1.28.53-1.94l1.53.05c-.11.89-.48,1.72-1.06,2.39ZM258.91,21.33l-1.53-.05s0-.02,0-.02c0-.78-.17-1.49-.39-2.12.33-.12.66-.26,1-.44.56.74.9,1.65.92,2.64Z"/>
        </g>
      </g>
      <g>
        <g>
          <path class="cls-9" d="M273.47,41.14v.77l-.1.14h-1.11c-.96,0-1.74-.23-2.33-.7-.43.5-.65.92-.65,1.27,0,.72.54,1.08,1.6,1.08.68,0,1.36-.12,2.04-.35l.07.03v.84c-.75.31-1.5.47-2.25.47-.7,0-1.26-.16-1.68-.48-.43-.32-.64-.78-.64-1.37s.33-1.27.98-2.01c-.4-.52-.72-1.23-.95-2.15l-.41.11-.08-.06.09-.87c.78-.23,1.57-.34,2.35-.34s1.58.11,2.3.32l.14,1.03c-1.12.87-1.88,1.48-2.27,1.84.42.22,1.04.33,1.88.33h.9l.1.11ZM271.93,38.61c-.5-.11-1.06-.16-1.68-.16-.3,0-.63.02-.96.07.17.77.41,1.34.72,1.7.45-.43,1.09-.97,1.93-1.61Z"/>
          <path class="cls-9" d="M277.12,41.14v.81l-.1.1h-.19c-.39,0-.79-.2-1.2-.6l-.37.6h-1.89l-.14-.14v-.77l.14-.11h1.66v-2.65h.91v2.41c.23.16.54.24.94.24h.15l.1.11ZM274.38,42.88l.66.8-.83.69-.66-.8.83-.69ZM275.87,42.88l.66.8-.82.69-.67-.8.83-.69Z"/>
          <path class="cls-9" d="M279.51,38.05v3.99h-2.49l-.14-.14v-.77l.14-.11h1.59v-2.98h.9ZM278.76,42.81l.67.8-.83.69-.67-.8.83-.69Z"/>
          <path class="cls-9" d="M284.02,41.14v.81l-.1.1h-.16c-.31,0-.65-.14-1.02-.42v.2c0,1.58-.61,2.37-1.81,2.37-.26,0-.51-.06-.75-.17l-.16-.87.07-.06c.26.08.55.12.88.12.3,0,.52-.09.67-.28.14-.19.22-.5.22-.94v-3.61h.89v2.43c.26.15.6.22,1.03.22h.15l.1.11Z"/>
          <path class="cls-9" d="M285.92,34.58v7.47h-2l-.11-.11v-.79l.11-.12h1.08v-6.45h.93Z"/>
          <path class="cls-9" d="M288.53,42.05h-.9v-7.47h.9v7.47Z"/>
          <path class="cls-9" d="M293.29,39.19l-.43,1.57.51.94-.86.44c-.31-.44-.47-.79-.47-1.05,0-.19.09-.49.26-.92s.37-.81.57-1.15l.41.17Z"/>
          <path class="cls-9" d="M299.9,39.7c.53.23.93.45,1.19.67.27.22.4.51.4.85,0,.32-.06.65-.18.99-1.06.5-2.26.76-3.62.76-1.08,0-1.89-.23-2.41-.69-.53-.46-.79-1.08-.79-1.85,0-.49.08-.98.24-1.45l.73-.14.05.05c-.11.45-.17.87-.17,1.24-.01,1.22.85,1.83,2.58,1.83,1.08,0,1.99-.14,2.73-.42v-.14c0-.14-.09-.28-.29-.43-.2-.15-.52-.33-.98-.54-.47-.23-.82-.45-1.05-.66-.23-.21-.35-.5-.35-.85,0-.38.1-.76.31-1.16.5-.27,1.07-.41,1.69-.41.41,0,.83.06,1.27.19v.96s-.06.03-.06.03c-.5-.12-.94-.18-1.31-.18s-.73.05-1.03.14c-.01.06-.02.14-.02.25,0,.19.08.35.23.48.15.13.44.29.85.47ZM297.19,43.63l.66.8-.83.69-.66-.8.83-.69ZM298.68,43.63l.66.8-.82.69-.67-.8.83-.69Z"/>
          <path class="cls-9" d="M304.55,38.38v3.45c0,1.58-.6,2.37-1.81,2.37-.26,0-.51-.06-.75-.17l-.16-.87.07-.06c.26.08.55.12.88.12.3,0,.52-.09.67-.28.15-.19.22-.5.22-.94v-3.61h.89Z"/>
          <path class="cls-9" d="M308.09,41.15v.79l-.1.11h-1.95v-7.47h.9v6.45h1.05l.1.12Z"/>
          <path class="cls-9" d="M315.78,41.14v.81l-.1.1h-.13c-.42,0-.81-.19-1.17-.56l-.38.56h-6.03l-.1-.11v-.84l.1-.07h1.09v-2.68h.88v.99c1.26-1,2.19-1.5,2.79-1.5.39,0,.73.15,1.03.44.29.3.51.66.65,1.1.14.43.22.91.25,1.42.23.16.54.24.93.24h.09l.1.11ZM309.95,41.03h3.88c-.03-.41-.1-.77-.18-1.08-.09-.31-.23-.57-.42-.78-.19-.21-.42-.31-.69-.31-.53,0-1.39.45-2.59,1.33v.84Z"/>
          <path class="cls-9" d="M317.28,38.05h.9v3.99h-2.49l-.14-.14v-.77l.14-.11h1.59v-2.98ZM317.6,37.26l-.66-.78.84-.69.65.78-.83.69Z"/>
          <path class="cls-9" d="M321.06,34.78l.08.51c-.3.08-.67.12-1.1.12h-.96v-.56l.5.02c-.13-.17-.19-.33-.19-.51,0-.25.06-.48.18-.71.25-.09.5-.13.76-.13.19,0,.39.02.59.07l-.05.5c-.21-.03-.42-.04-.62-.04-.1,0-.21,0-.33.03-.01.04-.02.11-.02.22,0,.23.07.42.2.58.38,0,.68-.04.92-.12l.05.02ZM323.1,38.79c.63.78,1.11,1.55,1.43,2.31l-.42.95h-4.43l-.34-.88.02-.11c1.02-.56,1.87-1.24,2.53-2.02l.14-.17c-.63-.68-1.48-1.45-2.55-2.31v-.08l.64-.57c.99.82,1.78,1.55,2.37,2.19.25-.56.37-1.33.37-2.29v-1.23h.89v1.1c0,1.35-.22,2.39-.65,3.12ZM322.58,39.49l-.09.11c-.48.56-1.11,1.05-1.89,1.48h3.07c-.27-.5-.63-1.04-1.09-1.59Z"/>
          <path class="cls-9" d="M326.58,42.05h-.9v-7.47h.9v7.47Z"/>
          <path class="cls-9" d="M331.98,37.33h.11c1.08,1.35,1.75,2.6,1.99,3.76l-.53.96h-3.27l-.24-.93.08-.09h3.06c-.32-.91-.95-1.92-1.86-3.05l.66-.66ZM331.37,36.66l-.66-.78.84-.69.65.78-.83.69Z"/>
          <path class="cls-9" d="M337.54,41.15v.79l-.1.11h-1.95v-7.47h.9v6.45h1.05l.1.12Z"/>
          <path class="cls-9" d="M343.95,41.17v.74l-.1.14h-1.25c-.69,0-1.32-.16-1.9-.49-.7.33-1.53.49-2.5.49h-.76l-.1-.13v-.75l.1-.14h1.05c.53,0,.99-.03,1.39-.1-.52-.55-.9-1.21-1.14-1.97l-.41.11-.08-.05.09-.89c.86-.28,1.67-.42,2.41-.42.7,0,1.41.12,2.13.35l.14,1.01c-.28.75-.74,1.38-1.37,1.9.26.04.55.06.88.06h1.32l.1.14ZM342.19,38.87c-.38-.12-.9-.18-1.53-.18-.38,0-.74.03-1.1.09.19.67.54,1.25,1.06,1.73.06.06.12.11.2.16.64-.44,1.1-1.04,1.37-1.8Z"/>
          <path class="cls-9" d="M347.23,37.96c.44,0,.79.2,1.07.6.28.4.41.91.41,1.52,0,.52-.12,1.02-.38,1.47l-.7.67-2.27-1.04c-.21.31-.41.53-.63.66-.21.13-.48.19-.81.19h-.08l-.1-.15v-.7l.1-.17h.16c.24,0,.44-.09.6-.26s.37-.5.61-.97c.3-.58.62-1.04.94-1.35.32-.32.67-.48,1.07-.48ZM345.8,40.42l1.84.85c.14-.33.22-.67.22-1.02,0-.39-.07-.7-.22-.93-.15-.23-.35-.34-.59-.34-.2,0-.38.1-.56.31-.17.21-.38.54-.61.99l-.08.14Z"/>
          <path class="cls-9" d="M358.15,41.14v.81l-.1.1h-.1c-.3,0-.62-.12-.95-.36v1.33c-.8.42-1.58.63-2.33.63-.86,0-1.51-.23-1.95-.7-.45-.46-.67-1.1-.67-1.91,0-.48.09-.99.27-1.54l.72-.12.05.05c-.12.48-.19.93-.19,1.36,0,.61.15,1.07.46,1.38.3.31.81.47,1.52.47.42,0,.84-.06,1.23-.18v-3.95h.89v2.33c.25.13.57.19.96.19h.09l.1.11ZM354.35,38.64l-.66-.78.84-.69.65.78-.83.69Z"/>
          <path class="cls-9" d="M360.54,38.05v3.99h-2.49l-.14-.14v-.77l.14-.11h1.59v-2.98h.9ZM359.79,42.81l.67.8-.83.69-.67-.8.83-.69Z"/>
          <path class="cls-9" d="M371.41,41.14v.82l-.1.09h-.47c-.28,0-.59-.07-.94-.21l-.04.07c.39.31.74.65,1.04,1.02l-.27.91c-.45.21-.98.38-1.59.52-.61.13-1.22.2-1.82.2-2.14,0-3.21-.83-3.21-2.48,0-.54.1-1.05.29-1.51l.72-.12.06.05c-.15.44-.22.89-.22,1.34,0,.6.21,1.03.62,1.3.41.27,1.06.41,1.94.41,1.04,0,1.91-.14,2.64-.41-.63-.74-1.4-1.34-2.3-1.78l.31-.81.07-.03c.42.21.78.34,1.09.41s.66.1,1.06.1h1.03l.1.11ZM366.51,45.04l.66.79-.83.69-.66-.79.83-.69ZM367.99,45.04l.66.79-.82.69-.67-.79.83-.69Z"/>
          <path class="cls-9" d="M373.07,38.05v3.99h-2.49l-.14-.14v-.77l.14-.11h1.59v-2.98h.9ZM372.32,42.81l.67.8-.83.69-.67-.8.83-.69Z"/>
          <path class="cls-9" d="M376.1,33.93l.08.51c-.3.08-.67.12-1.1.12h-.96v-.56l.5.02c-.12-.17-.19-.33-.19-.51,0-.25.06-.48.18-.71.25-.09.5-.13.76-.13.19,0,.39.02.59.07l-.05.5c-.21-.03-.42-.04-.62-.04-.1,0-.21,0-.33.03-.01.04-.02.11-.02.22,0,.23.07.42.2.58.38,0,.68-.04.92-.12l.05.02ZM374.69,35.25h.9v6.8h-.9v-6.8Z"/>
          <path class="cls-9" d="M380.35,39.19l-.43,1.57.51.94-.86.44c-.31-.44-.47-.79-.47-1.05,0-.19.09-.49.26-.92s.37-.81.57-1.15l.41.17Z"/>
          <path class="cls-9" d="M390.62,42.05h-4.09v.98c-.8.42-1.58.63-2.33.63-.86,0-1.51-.23-1.95-.7-.45-.46-.67-1.1-.67-1.91,0-.48.09-.99.27-1.54l.71-.12.06.05c-.12.48-.19.93-.19,1.36,0,.61.15,1.07.45,1.38.3.31.81.47,1.52.47.43,0,.85-.06,1.24-.18v-3.95h.89v.85c1.26-1.02,2.2-1.52,2.81-1.52.42,0,.79.17,1.09.5.3.33.52.74.65,1.21s.2.98.2,1.53l-.66.98ZM386.53,41.03h3.9c-.04-.64-.17-1.16-.38-1.56-.21-.4-.51-.61-.91-.61-.52,0-1.39.45-2.61,1.35v.82ZM387.82,37.14l-.66-.78.84-.69.65.78-.83.69Z"/>
          <path class="cls-9" d="M394.81,41.15v.79l-.1.11h-1.95v-7.47h.9v6.45h1.05l.1.12Z"/>
          <path class="cls-9" d="M395.34,42.88l.66.8-.83.69-.66-.8.83-.69ZM394.71,42.05l-.14-.14v-.77l.14-.11h1.59v-2.98h.9v3.99h-2.49ZM397.48,43.68l-.82.69-.67-.8.83-.69.66.8Z"/>
          <path class="cls-9" d="M402.03,41.14v.81l-.1.1h-.16c-.31,0-.65-.14-1.02-.42v.2c0,1.58-.6,2.37-1.81,2.37-.26,0-.51-.06-.75-.17l-.16-.87.07-.06c.26.08.55.12.88.12.3,0,.52-.09.67-.28.15-.19.22-.5.22-.94v-3.61h.89v2.43c.26.15.6.22,1.03.22h.15l.1.11Z"/>
          <path class="cls-9" d="M403.93,34.58v7.47h-2l-.11-.11v-.79l.11-.12h1.07v-6.45h.93Z"/>
          <path class="cls-9" d="M406.54,42.05h-.9v-7.47h.9v7.47Z"/>
        </g>
        <g>
          <circle class="cls-8" cx="254.39" cy="40.21" r="7.43"/>
          <path class="cls-3" d="M254.9,35.78c.19.03.37.05.55.09.77.18,1.42.58,1.93,1.18.43.52.7,1.11.79,1.78.13.96-.1,1.83-.68,2.61-.86,1.16-1.72,2.31-2.57,3.47-.16.21-.35.21-.51,0-.86-1.15-1.71-2.3-2.56-3.45-.35-.47-.58-.99-.68-1.58-.13-.83.02-1.62.44-2.35.39-.67.95-1.16,1.65-1.47.34-.15.7-.24,1.08-.27.03,0,.06-.01.09-.02h.47ZM256.57,39.33c0-1.05-.85-1.91-1.91-1.92-1.05,0-1.9.85-1.91,1.9,0,1.05.85,1.91,1.9,1.92,1.05,0,1.91-.85,1.92-1.9Z"/>
        </g>
      </g>
    </g>
    <g>
      <g>
        <path class="cls-9" d="M125.13,56.54l-.34,3.71c-.07.54.05.81.36.81.41,0,.79-.29,1.15-.86.36-.58.54-1.32.54-2.23,0-1-.36-1.82-1.06-2.45-.71-.63-1.63-.95-2.77-.95-1.28,0-2.32.5-3.14,1.48s-1.22,2.28-1.22,3.86c0,1.19.36,2.14,1.08,2.85.72.71,1.75,1.06,3.09,1.06.93,0,1.83-.18,2.71-.54l.1.04v.96c-.85.35-1.79.53-2.81.53-1.65,0-2.95-.46-3.88-1.37-.93-.92-1.4-2.09-1.4-3.53,0-1.84.51-3.35,1.53-4.55s2.33-1.79,3.93-1.79c1.44,0,2.62.41,3.54,1.24.93.83,1.39,1.87,1.39,3.14,0,1.19-.29,2.16-.88,2.93-.58.77-1.29,1.15-2.12,1.15-.54,0-.91-.2-1.13-.6-.48.48-1.02.73-1.62.73s-1.04-.18-1.38-.54c-.34-.36-.51-.87-.51-1.54,0-1.19.35-2.38,1.05-3.57.51-.15.97-.23,1.39-.23.51,0,.98.1,1.42.29l.83-.17.12.12ZM122.35,61.17c.43,0,.87-.22,1.3-.65v-.18s.29-2.84.29-2.84c-.36-.15-.75-.22-1.16-.22-.26,0-.51.03-.74.09-.41.95-.61,1.84-.61,2.66,0,.77.31,1.15.93,1.15Z"/>
        <path class="cls-9" d="M141.2,56.26l-1.85,6.19h-1.69l-1.3-4.79-1.33,4.79h-1.63l-1.77-6.19h1.34l1.33,4.97,1.39-4.97h1.57l1.31,4.97,1.39-4.97h1.24Z"/>
        <path class="cls-9" d="M150.2,58.64c0,.33-.03.67-.1,1h-3.97c.03.65.19,1.13.46,1.43s.71.45,1.31.45c.68,0,1.35-.12,2.03-.38l.09.05v1.03c-.68.28-1.43.41-2.24.41-.99,0-1.71-.26-2.17-.77-.46-.51-.7-1.29-.7-2.34,0-1.13.25-2.12.75-2.97.69-.32,1.39-.48,2.09-.48,1.63,0,2.44.85,2.44,2.56ZM149.01,58.78v-.15c0-.53-.1-.9-.31-1.13-.21-.22-.52-.34-.94-.34-.48,0-.89.08-1.24.23-.18.41-.3.87-.35,1.39h2.84Z"/>
        <path class="cls-9" d="M157.99,56.09c.82,0,1.44.26,1.88.77.43.51.65,1.27.65,2.26,0,.58-.07,1.15-.21,1.7s-.32.99-.53,1.33c-.6.33-1.26.49-1.98.49-.65,0-1.22-.11-1.7-.33l-.91.19-.14-.14v-9.31h1.25v3.51c.52-.32,1.08-.48,1.69-.48ZM158.91,61.32c.24-.63.36-1.32.36-2.08,0-.7-.13-1.22-.39-1.55-.26-.33-.67-.5-1.21-.5-.46,0-.91.14-1.37.43v3.66c.44.18.93.26,1.45.26.42,0,.8-.07,1.15-.21Z"/>
        <path class="cls-9" d="M170.17,56.26l-3.27,9.27h-1.24l1.09-3.08h-.36l-2.07-6.19h1.34l1.55,4.87,1.72-4.87h1.24Z"/>
        <path class="cls-9" d="M178.91,58.35v2.49c0,.54.1,1.03.31,1.49l-.05.11h-1.2c-.06-.12-.11-.26-.15-.41-.55.4-1.17.6-1.85.6s-1.2-.16-1.57-.48c-.37-.32-.56-.77-.56-1.36,0-.48.12-.96.36-1.42.9-.23,2.07-.37,3.51-.4v-.44c0-.48-.11-.82-.33-1.02-.22-.21-.55-.31-.99-.31-.58,0-1.28.12-2.09.36l-.09-.05v-1.06c.85-.24,1.65-.36,2.38-.36.81,0,1.4.17,1.77.51.37.34.55.92.55,1.75ZM176.22,61.67c.48,0,.97-.15,1.49-.44v-1.47c-1.04.04-1.9.12-2.56.24-.09.2-.14.41-.14.64,0,.68.4,1.03,1.2,1.03Z"/>
        <path class="cls-9" d="M187.29,56.09c1.41,0,2.12.66,2.12,1.99v4.37h-1.25v-4.12c0-.73-.4-1.09-1.19-1.09-.58,0-1.13.21-1.65.61v4.6h-1.25v-6.19h1.08l.11.48c.69-.43,1.37-.65,2.04-.65Z"/>
        <path class="cls-9" d="M196.84,58.82c.78.18,1.34.43,1.68.73.34.3.51.68.51,1.15,0,.49-.12.94-.38,1.35-.48.39-1.17.59-2.09.59-.71,0-1.44-.13-2.2-.39v-1.06s.1-.04.1-.04c.73.27,1.43.41,2.1.41.54,0,.97-.06,1.28-.19.04-.12.06-.28.06-.45,0-.24-.12-.44-.35-.59-.23-.15-.63-.3-1.2-.44-.75-.19-1.28-.43-1.6-.71-.31-.28-.47-.66-.47-1.15,0-.45.13-.9.39-1.35.23-.18.53-.32.92-.42.38-.1.77-.16,1.16-.16.65,0,1.27.12,1.87.36v1.06l-.09.05c-.63-.26-1.23-.39-1.79-.39-.48,0-.9.08-1.27.23-.04.17-.06.32-.06.45,0,.23.1.41.3.54.2.14.57.27,1.11.41Z"/>
        <path class="cls-9" d="M208.36,58.35v2.49c0,.54.1,1.03.31,1.49l-.05.11h-1.2c-.06-.12-.11-.26-.15-.41-.55.4-1.17.6-1.85.6s-1.2-.16-1.57-.48c-.37-.32-.56-.77-.56-1.36,0-.48.12-.96.36-1.42.9-.23,2.07-.37,3.51-.4v-.44c0-.48-.11-.82-.33-1.02-.22-.21-.55-.31-.99-.31-.58,0-1.28.12-2.09.36l-.09-.05v-1.06c.85-.24,1.64-.36,2.38-.36.81,0,1.4.17,1.77.51.37.34.55.92.55,1.75ZM205.67,61.67c.48,0,.97-.15,1.49-.44v-1.47c-1.04.04-1.89.12-2.55.24-.09.2-.14.41-.14.64,0,.68.4,1.03,1.2,1.03Z"/>
      </g>
      <circle class="cls-8" cx="87.79" cy="59.17" r="7.43"/>
      <circle class="cls-8" cx="105.49" cy="59.17" r="7.43"/>
      <g>
        <path class="cls-2" d="M101.79,57.55h1.64v5.26h-1.64v-5.26ZM102.6,54.94c.52,0,.95.42.95.95s-.42.95-.95.95-.95-.43-.95-.95.42-.95.95-.95"/>
        <path class="cls-2" d="M104.45,57.55h1.57v.72h.02c.22-.41.75-.85,1.55-.85,1.65,0,1.96,1.09,1.96,2.5v2.88h-1.63v-2.56c0-.61-.01-1.39-.85-1.39s-.98.66-.98,1.35v2.6h-1.63v-5.26Z"/>
      </g>
      <path id="twitter_logo" data-name="twitter logo" class="cls-2" d="M92.08,62.98h-2.36l-2.23-2.99-2.78,2.99h-.67l3.16-3.38-3.16-4.24h2.32l2.13,2.84,2.65-2.84h.65l-3.01,3.24,3.29,4.38ZM90,62.45h1.08l-4.93-6.59h-1.11l4.96,6.59Z"/>
    </g>
  </g>
  <g>
    <g>
      <rect class="cls-13" x="431.89" y="14.56" width="15.05" height="15.05"/>
      <rect class="cls-7" x="451.09" y="14.56" width="15.05" height="15.05"/>
      <rect class="cls-2" x="470.3" y="14.56" width="15.05" height="15.05"/>
      <rect class="cls-12" x="489.5" y="14.56" width="15.05" height="15.05"/>
      <rect class="cls-5" x="508.7" y="14.56" width="15.05" height="15.05"/>
      <rect class="cls-13" x="527.91" y="14.56" width="15.05" height="15.05"/>
      <rect class="cls-2" x="547.11" y="14.56" width="15.05" height="15.05"/>
      <rect class="cls-1" x="566.31" y="14.56" width="15.05" height="15.05"/>
    </g>
    <g>
      <rect class="cls-6" x="431.89" y="33.44" width="15.05" height="15.05"/>
      <rect class="cls-13" x="451.09" y="33.44" width="15.05" height="15.05"/>
      <rect class="cls-6" x="470.3" y="33.44" width="15.05" height="15.05"/>
      <rect class="cls-5" x="489.5" y="33.44" width="15.05" height="15.05"/>
      <rect class="cls-12" x="508.7" y="33.44" width="15.05" height="15.05"/>
      <rect class="cls-4" x="527.91" y="33.44" width="15.05" height="15.05"/>
      <rect class="cls-6" x="547.11" y="33.44" width="15.05" height="15.05"/>
      <rect class="cls-12" x="566.31" y="33.44" width="15.05" height="15.05"/>
    </g>
    <g>
      <rect class="cls-5" x="431.89" y="52.31" width="15.05" height="15.05"/>
      <rect class="cls-6" x="451.09" y="52.31" width="15.05" height="15.05"/>
      <rect class="cls-7" x="470.3" y="52.31" width="15.05" height="15.05"/>
      <rect class="cls-13" x="489.5" y="52.31" width="15.05" height="15.05"/>
      <rect class="cls-7" x="508.7" y="52.31" width="15.05" height="15.05"/>
      <rect class="cls-4" x="527.91" y="52.31" width="15.05" height="15.05"/>
      <rect class="cls-2" x="547.11" y="52.31" width="15.05" height="15.05"/>
      <rect class="cls-1" x="566.31" y="52.31" width="15.05" height="15.05"/>
    </g>
  </g>
  <g>
    <rect class="cls-2" x="13.91" y="12.88" width="56.16" height="56.16"/>
    <g>
      <g>
        <rect class="cls-10" x="16.49" y="31.46" width="1.78" height="1.78"/>
        <rect class="cls-10" x="16.49" y="33.24" width="1.78" height="1.78"/>
        <rect class="cls-10" x="16.49" y="35.02" width="1.78" height="1.78"/>
        <rect class="cls-10" x="16.49" y="36.8" width="1.78" height="1.78"/>
        <rect class="cls-10" x="16.49" y="38.58" width="1.78" height="1.78"/>
        <rect class="cls-10" x="16.49" y="40.35" width="1.78" height="1.78"/>
        <rect class="cls-10" x="16.49" y="47.47" width="1.78" height="1.78"/>
        <rect class="cls-10" x="16.49" y="49.25" width="1.78" height="1.78"/>
        <rect class="cls-10" x="18.27" y="31.46" width="1.78" height="1.78"/>
        <rect class="cls-10" x="18.27" y="36.8" width="1.78" height="1.78"/>
        <rect class="cls-10" x="18.27" y="40.35" width="1.78" height="1.78"/>
        <rect class="cls-10" x="18.27" y="42.13" width="1.78" height="1.78"/>
        <rect class="cls-10" x="18.27" y="43.91" width="1.78" height="1.78"/>
        <rect class="cls-10" x="18.27" y="47.47" width="1.78" height="1.78"/>
        <rect class="cls-10" x="20.04" y="31.46" width="1.78" height="1.78"/>
        <rect class="cls-10" x="20.04" y="36.8" width="1.78" height="1.78"/>
        <rect class="cls-10" x="20.04" y="38.58" width="1.78" height="1.78"/>
        <rect class="cls-10" x="20.04" y="43.91" width="1.78" height="1.78"/>
        <rect class="cls-10" x="20.04" y="45.69" width="1.78" height="1.78"/>
        <rect class="cls-10" x="21.82" y="29.68" width="1.78" height="1.78"/>
        <rect class="cls-10" x="21.82" y="31.46" width="1.78" height="1.78"/>
        <rect class="cls-10" x="21.82" y="35.02" width="1.78" height="1.78"/>
        <rect class="cls-10" x="21.82" y="38.58" width="1.78" height="1.78"/>
        <rect class="cls-10" x="21.82" y="42.13" width="1.78" height="1.78"/>
        <rect class="cls-10" x="21.82" y="45.69" width="1.78" height="1.78"/>
        <rect class="cls-10" x="21.82" y="47.47" width="1.78" height="1.78"/>
        <rect class="cls-10" x="23.6" y="33.24" width="1.78" height="1.78"/>
        <rect class="cls-10" x="23.6" y="35.02" width="1.78" height="1.78"/>
        <rect class="cls-10" x="23.6" y="43.91" width="1.78" height="1.78"/>
        <rect class="cls-10" x="23.6" y="47.47" width="1.78" height="1.78"/>
        <rect class="cls-10" x="25.38" y="29.68" width="1.78" height="1.78"/>
        <rect class="cls-10" x="25.38" y="35.02" width="1.78" height="1.78"/>
        <rect class="cls-10" x="25.38" y="36.8" width="1.78" height="1.78"/>
        <rect class="cls-10" x="25.38" y="40.35" width="1.78" height="1.78"/>
        <rect class="cls-10" x="25.38" y="45.69" width="1.78" height="1.78"/>
        <rect class="cls-10" x="25.38" y="47.47" width="1.78" height="1.78"/>
        <rect class="cls-10" x="27.16" y="29.68" width="1.78" height="1.78"/>
        <rect class="cls-10" x="27.16" y="33.24" width="1.78" height="1.78"/>
        <rect class="cls-10" x="27.16" y="36.8" width="1.78" height="1.78"/>
        <rect class="cls-10" x="27.16" y="40.35" width="1.78" height="1.78"/>
        <rect class="cls-10" x="27.16" y="43.91" width="1.78" height="1.78"/>
        <rect class="cls-10" x="27.16" y="47.47" width="1.78" height="1.78"/>
        <rect class="cls-10" x="27.16" y="51.02" width="1.78" height="1.78"/>
        <rect class="cls-10" x="28.94" y="29.68" width="1.78" height="1.78"/>
        <rect class="cls-10" x="28.94" y="31.46" width="1.78" height="1.78"/>
        <rect class="cls-10" x="28.94" y="33.24" width="1.78" height="1.78"/>
        <rect class="cls-10" x="28.94" y="38.58" width="1.78" height="1.78"/>
        <rect class="cls-10" x="28.94" y="42.13" width="1.78" height="1.78"/>
        <rect class="cls-10" x="28.94" y="49.25" width="1.78" height="1.78"/>
        <rect class="cls-10" x="28.94" y="51.02" width="1.78" height="1.78"/>
        <rect class="cls-10" x="30.72" y="17.23" width="1.78" height="1.78"/>
        <rect class="cls-10" x="30.72" y="19.01" width="1.78" height="1.78"/>
        <rect class="cls-10" x="30.72" y="26.13" width="1.78" height="1.78"/>
        <rect class="cls-10" x="30.72" y="33.24" width="1.78" height="1.78"/>
        <rect class="cls-10" x="30.72" y="35.02" width="1.78" height="1.78"/>
        <rect class="cls-10" x="30.72" y="38.58" width="1.78" height="1.78"/>
        <rect class="cls-10" x="30.72" y="40.35" width="1.78" height="1.78"/>
        <rect class="cls-10" x="30.72" y="42.13" width="1.78" height="1.78"/>
        <rect class="cls-10" x="30.72" y="43.91" width="1.78" height="1.78"/>
        <rect class="cls-10" x="30.72" y="45.69" width="1.78" height="1.78"/>
        <rect class="cls-10" x="30.72" y="47.47" width="1.78" height="1.78"/>
        <rect class="cls-10" x="30.72" y="51.02" width="1.78" height="1.78"/>
        <rect class="cls-10" x="30.72" y="54.58" width="1.78" height="1.78"/>
        <rect class="cls-10" x="30.72" y="56.36" width="1.78" height="1.78"/>
        <rect class="cls-10" x="30.72" y="59.92" width="1.78" height="1.78"/>
        <rect class="cls-10" x="32.49" y="15.46" width="1.78" height="1.78"/>
        <rect class="cls-10" x="32.49" y="17.23" width="1.78" height="1.78"/>
        <rect class="cls-10" x="32.49" y="22.57" width="1.78" height="1.78"/>
        <rect class="cls-10" x="32.49" y="24.35" width="1.78" height="1.78"/>
        <rect class="cls-10" x="32.49" y="27.9" width="1.78" height="1.78"/>
        <rect class="cls-10" x="32.49" y="31.46" width="1.78" height="1.78"/>
        <rect class="cls-10" x="32.49" y="35.02" width="1.78" height="1.78"/>
        <rect class="cls-10" x="32.49" y="36.8" width="1.78" height="1.78"/>
        <rect class="cls-10" x="32.49" y="38.58" width="1.78" height="1.78"/>
        <rect class="cls-10" x="32.49" y="42.13" width="1.78" height="1.78"/>
        <rect class="cls-10" x="32.49" y="43.91" width="1.78" height="1.78"/>
        <rect class="cls-10" x="32.49" y="51.02" width="1.78" height="1.78"/>
        <rect class="cls-10" x="32.49" y="52.8" width="1.78" height="1.78"/>
        <rect class="cls-10" x="32.49" y="54.58" width="1.78" height="1.78"/>
        <rect class="cls-10" x="32.49" y="56.36" width="1.78" height="1.78"/>
        <rect class="cls-10" x="32.49" y="59.92" width="1.78" height="1.78"/>
        <rect class="cls-10" x="32.49" y="61.69" width="1.78" height="1.78"/>
        <rect class="cls-10" x="32.49" y="63.47" width="1.78" height="1.78"/>
        <rect class="cls-10" x="32.49" y="65.25" width="1.78" height="1.78"/>
        <rect class="cls-10" x="34.27" y="17.23" width="1.78" height="1.78"/>
        <rect class="cls-10" x="34.27" y="19.01" width="1.78" height="1.78"/>
        <rect class="cls-10" x="34.27" y="20.79" width="1.78" height="1.78"/>
        <rect class="cls-10" x="34.27" y="22.57" width="1.78" height="1.78"/>
        <rect class="cls-10" x="34.27" y="26.13" width="1.78" height="1.78"/>
        <rect class="cls-10" x="34.27" y="27.9" width="1.78" height="1.78"/>
        <rect class="cls-10" x="34.27" y="29.68" width="1.78" height="1.78"/>
        <rect class="cls-10" x="34.27" y="43.91" width="1.78" height="1.78"/>
        <rect class="cls-10" x="34.27" y="45.69" width="1.78" height="1.78"/>
        <rect class="cls-10" x="34.27" y="49.25" width="1.78" height="1.78"/>
        <rect class="cls-10" x="34.27" y="51.02" width="1.78" height="1.78"/>
        <rect class="cls-10" x="34.27" y="52.8" width="1.78" height="1.78"/>
        <rect class="cls-10" x="34.27" y="56.36" width="1.78" height="1.78"/>
        <rect class="cls-10" x="34.27" y="58.14" width="1.78" height="1.78"/>
        <rect class="cls-10" x="34.27" y="65.25" width="1.78" height="1.78"/>
        <rect class="cls-10" x="36.05" y="15.46" width="1.78" height="1.78"/>
        <rect class="cls-10" x="36.05" y="19.01" width="1.78" height="1.78"/>
        <rect class="cls-10" x="36.05" y="20.79" width="1.78" height="1.78"/>
        <rect class="cls-10" x="36.05" y="24.35" width="1.78" height="1.78"/>
        <rect class="cls-10" x="36.05" y="27.9" width="1.78" height="1.78"/>
        <rect class="cls-10" x="36.05" y="31.46" width="1.78" height="1.78"/>
        <rect class="cls-10" x="36.05" y="33.24" width="1.78" height="1.78"/>
        <rect class="cls-10" x="36.05" y="35.02" width="1.78" height="1.78"/>
        <rect class="cls-10" x="36.05" y="40.35" width="1.78" height="1.78"/>
        <rect class="cls-10" x="36.05" y="42.13" width="1.78" height="1.78"/>
        <rect class="cls-10" x="36.05" y="47.47" width="1.78" height="1.78"/>
        <rect class="cls-10" x="36.05" y="54.58" width="1.78" height="1.78"/>
        <rect class="cls-10" x="36.05" y="56.36" width="1.78" height="1.78"/>
        <rect class="cls-10" x="36.05" y="59.92" width="1.78" height="1.78"/>
        <rect class="cls-10" x="37.83" y="17.23" width="1.78" height="1.78"/>
        <rect class="cls-10" x="37.83" y="24.35" width="1.78" height="1.78"/>
        <rect class="cls-10" x="37.83" y="26.13" width="1.78" height="1.78"/>
        <rect class="cls-10" x="37.83" y="29.68" width="1.78" height="1.78"/>
        <rect class="cls-10" x="37.83" y="33.24" width="1.78" height="1.78"/>
        <rect class="cls-10" x="37.83" y="35.02" width="1.78" height="1.78"/>
        <rect class="cls-10" x="37.83" y="36.8" width="1.78" height="1.78"/>
        <rect class="cls-10" x="37.83" y="38.58" width="1.78" height="1.78"/>
        <rect class="cls-10" x="37.83" y="40.35" width="1.78" height="1.78"/>
        <rect class="cls-10" x="37.83" y="47.47" width="1.78" height="1.78"/>
        <rect class="cls-10" x="37.83" y="51.02" width="1.78" height="1.78"/>
        <rect class="cls-10" x="37.83" y="52.8" width="1.78" height="1.78"/>
        <rect class="cls-10" x="37.83" y="54.58" width="1.78" height="1.78"/>
        <rect class="cls-10" x="37.83" y="59.92" width="1.78" height="1.78"/>
        <rect class="cls-10" x="37.83" y="63.47" width="1.78" height="1.78"/>
        <rect class="cls-10" x="39.61" y="19.01" width="1.78" height="1.78"/>
        <rect class="cls-10" x="39.61" y="20.79" width="1.78" height="1.78"/>
        <rect class="cls-10" x="39.61" y="22.57" width="1.78" height="1.78"/>
        <rect class="cls-10" x="39.61" y="24.35" width="1.78" height="1.78"/>
        <rect class="cls-10" x="39.61" y="27.9" width="1.78" height="1.78"/>
        <rect class="cls-10" x="39.61" y="29.68" width="1.78" height="1.78"/>
        <rect class="cls-10" x="39.61" y="31.46" width="1.78" height="1.78"/>
        <rect class="cls-10" x="39.61" y="33.24" width="1.78" height="1.78"/>
        <rect class="cls-10" x="39.61" y="35.02" width="1.78" height="1.78"/>
        <rect class="cls-10" x="39.61" y="36.8" width="1.78" height="1.78"/>
        <rect class="cls-10" x="39.61" y="40.35" width="1.78" height="1.78"/>
        <rect class="cls-10" x="39.61" y="42.13" width="1.78" height="1.78"/>
        <rect class="cls-10" x="39.61" y="43.91" width="1.78" height="1.78"/>
        <rect class="cls-10" x="39.61" y="45.69" width="1.78" height="1.78"/>
        <rect class="cls-10" x="39.61" y="49.25" width="1.78" height="1.78"/>
        <rect class="cls-10" x="39.61" y="54.58" width="1.78" height="1.78"/>
        <rect class="cls-10" x="39.61" y="59.92" width="1.78" height="1.78"/>
        <rect class="cls-10" x="39.61" y="65.25" width="1.78" height="1.78"/>
        <rect class="cls-10" x="41.39" y="19.01" width="1.78" height="1.78"/>
        <rect class="cls-10" x="41.39" y="20.79" width="1.78" height="1.78"/>
        <rect class="cls-10" x="41.39" y="26.13" width="1.78" height="1.78"/>
        <rect class="cls-10" x="41.39" y="27.9" width="1.78" height="1.78"/>
        <rect class="cls-10" x="41.39" y="31.46" width="1.78" height="1.78"/>
        <rect class="cls-10" x="41.39" y="33.24" width="1.78" height="1.78"/>
        <rect class="cls-10" x="41.39" y="35.02" width="1.78" height="1.78"/>
        <rect class="cls-10" x="41.39" y="36.8" width="1.78" height="1.78"/>
        <rect class="cls-10" x="41.39" y="40.35" width="1.78" height="1.78"/>
        <rect class="cls-10" x="41.39" y="42.13" width="1.78" height="1.78"/>
        <rect class="cls-10" x="41.39" y="43.91" width="1.78" height="1.78"/>
        <rect class="cls-10" x="41.39" y="49.25" width="1.78" height="1.78"/>
        <rect class="cls-10" x="41.39" y="54.58" width="1.78" height="1.78"/>
        <rect class="cls-10" x="41.39" y="59.92" width="1.78" height="1.78"/>
        <rect class="cls-10" x="41.39" y="61.69" width="1.78" height="1.78"/>
        <rect class="cls-10" x="41.39" y="65.25" width="1.78" height="1.78"/>
        <rect class="cls-10" x="43.16" y="15.46" width="1.78" height="1.78"/>
        <rect class="cls-10" x="43.16" y="19.01" width="1.78" height="1.78"/>
        <rect class="cls-10" x="43.16" y="27.9" width="1.78" height="1.78"/>
        <rect class="cls-10" x="43.16" y="29.68" width="1.78" height="1.78"/>
        <rect class="cls-10" x="43.16" y="33.24" width="1.78" height="1.78"/>
        <rect class="cls-10" x="43.16" y="36.8" width="1.78" height="1.78"/>
        <rect class="cls-10" x="43.16" y="38.58" width="1.78" height="1.78"/>
        <rect class="cls-10" x="43.16" y="40.35" width="1.78" height="1.78"/>
        <rect class="cls-10" x="43.16" y="42.13" width="1.78" height="1.78"/>
        <rect class="cls-10" x="43.16" y="43.91" width="1.78" height="1.78"/>
        <rect class="cls-10" x="43.16" y="45.69" width="1.78" height="1.78"/>
        <rect class="cls-10" x="43.16" y="54.58" width="1.78" height="1.78"/>
        <rect class="cls-10" x="43.16" y="59.92" width="1.78" height="1.78"/>
        <rect class="cls-10" x="43.16" y="63.47" width="1.78" height="1.78"/>
        <rect class="cls-10" x="43.16" y="65.25" width="1.78" height="1.78"/>
        <rect class="cls-10" x="44.94" y="19.01" width="1.78" height="1.78"/>
        <rect class="cls-10" x="44.94" y="20.79" width="1.78" height="1.78"/>
        <rect class="cls-10" x="44.94" y="26.13" width="1.78" height="1.78"/>
        <rect class="cls-10" x="44.94" y="29.68" width="1.78" height="1.78"/>
        <rect class="cls-10" x="44.94" y="31.46" width="1.78" height="1.78"/>
        <rect class="cls-10" x="44.94" y="35.02" width="1.78" height="1.78"/>
        <rect class="cls-10" x="44.94" y="42.13" width="1.78" height="1.78"/>
        <rect class="cls-10" x="44.94" y="45.69" width="1.78" height="1.78"/>
        <rect class="cls-10" x="44.94" y="49.25" width="1.78" height="1.78"/>
        <rect class="cls-10" x="44.94" y="54.58" width="1.78" height="1.78"/>
        <rect class="cls-10" x="44.94" y="58.14" width="1.78" height="1.78"/>
        <rect class="cls-10" x="44.94" y="63.47" width="1.78" height="1.78"/>
        <rect class="cls-10" x="44.94" y="65.25" width="1.78" height="1.78"/>
        <rect class="cls-10" x="46.72" y="17.23" width="1.78" height="1.78"/>
        <rect class="cls-10" x="46.72" y="19.01" width="1.78" height="1.78"/>
        <rect class="cls-10" x="46.72" y="20.79" width="1.78" height="1.78"/>
        <rect class="cls-10" x="46.72" y="24.35" width="1.78" height="1.78"/>
        <rect class="cls-10" x="46.72" y="29.68" width="1.78" height="1.78"/>
        <rect class="cls-10" x="46.72" y="31.46" width="1.78" height="1.78"/>
        <rect class="cls-10" x="46.72" y="33.24" width="1.78" height="1.78"/>
        <rect class="cls-10" x="46.72" y="35.02" width="1.78" height="1.78"/>
        <rect class="cls-10" x="46.72" y="36.8" width="1.78" height="1.78"/>
        <rect class="cls-10" x="46.72" y="45.69" width="1.78" height="1.78"/>
        <rect class="cls-10" x="46.72" y="49.25" width="1.78" height="1.78"/>
        <rect class="cls-10" x="46.72" y="56.36" width="1.78" height="1.78"/>
        <rect class="cls-10" x="46.72" y="59.92" width="1.78" height="1.78"/>
        <rect class="cls-10" x="46.72" y="61.69" width="1.78" height="1.78"/>
        <rect class="cls-10" x="46.72" y="65.25" width="1.78" height="1.78"/>
        <rect class="cls-10" x="48.5" y="15.46" width="1.78" height="1.78"/>
        <rect class="cls-10" x="48.5" y="17.23" width="1.78" height="1.78"/>
        <rect class="cls-10" x="48.5" y="20.79" width="1.78" height="1.78"/>
        <rect class="cls-10" x="48.5" y="24.35" width="1.78" height="1.78"/>
        <rect class="cls-10" x="48.5" y="26.13" width="1.78" height="1.78"/>
        <rect class="cls-10" x="48.5" y="33.24" width="1.78" height="1.78"/>
        <rect class="cls-10" x="48.5" y="35.02" width="1.78" height="1.78"/>
        <rect class="cls-10" x="48.5" y="38.58" width="1.78" height="1.78"/>
        <rect class="cls-10" x="48.5" y="42.13" width="1.78" height="1.78"/>
        <rect class="cls-10" x="48.5" y="45.69" width="1.78" height="1.78"/>
        <rect class="cls-10" x="48.5" y="49.25" width="1.78" height="1.78"/>
        <rect class="cls-10" x="48.5" y="51.02" width="1.78" height="1.78"/>
        <rect class="cls-10" x="48.5" y="56.36" width="1.78" height="1.78"/>
        <rect class="cls-10" x="48.5" y="61.69" width="1.78" height="1.78"/>
        <rect class="cls-10" x="48.5" y="65.25" width="1.78" height="1.78"/>
        <rect class="cls-10" x="50.28" y="24.35" width="1.78" height="1.78"/>
        <rect class="cls-10" x="50.28" y="29.68" width="1.78" height="1.78"/>
        <rect class="cls-10" x="50.28" y="31.46" width="1.78" height="1.78"/>
        <rect class="cls-10" x="50.28" y="33.24" width="1.78" height="1.78"/>
        <rect class="cls-10" x="50.28" y="47.47" width="1.78" height="1.78"/>
        <rect class="cls-10" x="50.28" y="49.25" width="1.78" height="1.78"/>
        <rect class="cls-10" x="50.28" y="51.02" width="1.78" height="1.78"/>
        <rect class="cls-10" x="50.28" y="52.8" width="1.78" height="1.78"/>
        <rect class="cls-10" x="50.28" y="54.58" width="1.78" height="1.78"/>
        <rect class="cls-10" x="52.06" y="15.46" width="1.78" height="1.78"/>
        <rect class="cls-10" x="52.06" y="17.23" width="1.78" height="1.78"/>
        <rect class="cls-10" x="52.06" y="19.01" width="1.78" height="1.78"/>
        <rect class="cls-10" x="52.06" y="22.57" width="1.78" height="1.78"/>
        <rect class="cls-10" x="52.06" y="26.13" width="1.78" height="1.78"/>
        <rect class="cls-10" x="52.06" y="27.9" width="1.78" height="1.78"/>
        <rect class="cls-10" x="52.06" y="29.68" width="1.78" height="1.78"/>
        <rect class="cls-10" x="52.06" y="31.46" width="1.78" height="1.78"/>
        <rect class="cls-10" x="52.06" y="33.24" width="1.78" height="1.78"/>
        <rect class="cls-10" x="52.06" y="35.02" width="1.78" height="1.78"/>
        <rect class="cls-10" x="52.06" y="36.8" width="1.78" height="1.78"/>
        <rect class="cls-10" x="52.06" y="40.35" width="1.78" height="1.78"/>
        <rect class="cls-10" x="52.06" y="42.13" width="1.78" height="1.78"/>
        <rect class="cls-10" x="52.06" y="43.91" width="1.78" height="1.78"/>
        <rect class="cls-10" x="52.06" y="49.25" width="1.78" height="1.78"/>
        <rect class="cls-10" x="52.06" y="51.02" width="1.78" height="1.78"/>
        <rect class="cls-10" x="52.06" y="52.8" width="1.78" height="1.78"/>
        <rect class="cls-10" x="52.06" y="54.58" width="1.78" height="1.78"/>
        <rect class="cls-10" x="52.06" y="56.36" width="1.78" height="1.78"/>
        <rect class="cls-10" x="52.06" y="58.14" width="1.78" height="1.78"/>
        <rect class="cls-10" x="52.06" y="59.92" width="1.78" height="1.78"/>
        <rect class="cls-10" x="53.83" y="29.68" width="1.78" height="1.78"/>
        <rect class="cls-10" x="53.83" y="33.24" width="1.78" height="1.78"/>
        <rect class="cls-10" x="53.83" y="40.35" width="1.78" height="1.78"/>
        <rect class="cls-10" x="53.83" y="42.13" width="1.78" height="1.78"/>
        <rect class="cls-10" x="53.83" y="47.47" width="1.78" height="1.78"/>
        <rect class="cls-10" x="53.83" y="49.25" width="1.78" height="1.78"/>
        <rect class="cls-10" x="53.83" y="51.02" width="1.78" height="1.78"/>
        <rect class="cls-10" x="53.83" y="58.14" width="1.78" height="1.78"/>
        <rect class="cls-10" x="53.83" y="59.92" width="1.78" height="1.78"/>
        <rect class="cls-10" x="53.83" y="65.25" width="1.78" height="1.78"/>
        <rect class="cls-10" x="55.61" y="31.46" width="1.78" height="1.78"/>
        <rect class="cls-10" x="55.61" y="35.02" width="1.78" height="1.78"/>
        <rect class="cls-10" x="55.61" y="36.8" width="1.78" height="1.78"/>
        <rect class="cls-10" x="55.61" y="42.13" width="1.78" height="1.78"/>
        <rect class="cls-10" x="55.61" y="43.91" width="1.78" height="1.78"/>
        <rect class="cls-10" x="55.61" y="45.69" width="1.78" height="1.78"/>
        <rect class="cls-10" x="55.61" y="47.47" width="1.78" height="1.78"/>
        <rect class="cls-10" x="55.61" y="51.02" width="1.78" height="1.78"/>
        <rect class="cls-10" x="55.61" y="54.58" width="1.78" height="1.78"/>
        <rect class="cls-10" x="55.61" y="58.14" width="1.78" height="1.78"/>
        <rect class="cls-10" x="55.61" y="59.92" width="1.78" height="1.78"/>
        <rect class="cls-10" x="55.61" y="61.69" width="1.78" height="1.78"/>
        <rect class="cls-10" x="55.61" y="65.25" width="1.78" height="1.78"/>
        <rect class="cls-10" x="57.39" y="33.24" width="1.78" height="1.78"/>
        <rect class="cls-10" x="57.39" y="36.8" width="1.78" height="1.78"/>
        <rect class="cls-10" x="57.39" y="38.58" width="1.78" height="1.78"/>
        <rect class="cls-10" x="57.39" y="42.13" width="1.78" height="1.78"/>
        <rect class="cls-10" x="57.39" y="47.47" width="1.78" height="1.78"/>
        <rect class="cls-10" x="57.39" y="49.25" width="1.78" height="1.78"/>
        <rect class="cls-10" x="57.39" y="51.02" width="1.78" height="1.78"/>
        <rect class="cls-10" x="57.39" y="58.14" width="1.78" height="1.78"/>
        <rect class="cls-10" x="57.39" y="59.92" width="1.78" height="1.78"/>
        <rect class="cls-10" x="57.39" y="65.25" width="1.78" height="1.78"/>
        <rect class="cls-10" x="59.17" y="33.24" width="1.78" height="1.78"/>
        <rect class="cls-10" x="59.17" y="36.8" width="1.78" height="1.78"/>
        <rect class="cls-10" x="59.17" y="42.13" width="1.78" height="1.78"/>
        <rect class="cls-10" x="59.17" y="43.91" width="1.78" height="1.78"/>
        <rect class="cls-10" x="59.17" y="45.69" width="1.78" height="1.78"/>
        <rect class="cls-10" x="59.17" y="47.47" width="1.78" height="1.78"/>
        <rect class="cls-10" x="59.17" y="49.25" width="1.78" height="1.78"/>
        <rect class="cls-10" x="59.17" y="51.02" width="1.78" height="1.78"/>
        <rect class="cls-10" x="59.17" y="52.8" width="1.78" height="1.78"/>
        <rect class="cls-10" x="59.17" y="54.58" width="1.78" height="1.78"/>
        <rect class="cls-10" x="59.17" y="56.36" width="1.78" height="1.78"/>
        <rect class="cls-10" x="59.17" y="58.14" width="1.78" height="1.78"/>
        <rect class="cls-10" x="60.95" y="31.46" width="1.78" height="1.78"/>
        <rect class="cls-10" x="60.95" y="33.24" width="1.78" height="1.78"/>
        <rect class="cls-10" x="60.95" y="36.8" width="1.78" height="1.78"/>
        <rect class="cls-10" x="60.95" y="43.91" width="1.78" height="1.78"/>
        <rect class="cls-10" x="60.95" y="47.47" width="1.78" height="1.78"/>
        <rect class="cls-10" x="60.95" y="49.25" width="1.78" height="1.78"/>
        <rect class="cls-10" x="60.95" y="51.02" width="1.78" height="1.78"/>
        <rect class="cls-10" x="60.95" y="56.36" width="1.78" height="1.78"/>
        <rect class="cls-10" x="60.95" y="58.14" width="1.78" height="1.78"/>
        <rect class="cls-10" x="60.95" y="59.92" width="1.78" height="1.78"/>
        <rect class="cls-10" x="60.95" y="61.69" width="1.78" height="1.78"/>
        <rect class="cls-10" x="60.95" y="63.47" width="1.78" height="1.78"/>
        <rect class="cls-10" x="62.73" y="29.68" width="1.78" height="1.78"/>
        <rect class="cls-10" x="62.73" y="31.46" width="1.78" height="1.78"/>
        <rect class="cls-10" x="62.73" y="35.02" width="1.78" height="1.78"/>
        <rect class="cls-10" x="62.73" y="38.58" width="1.78" height="1.78"/>
        <rect class="cls-10" x="62.73" y="40.35" width="1.78" height="1.78"/>
        <rect class="cls-10" x="62.73" y="43.91" width="1.78" height="1.78"/>
        <rect class="cls-10" x="62.73" y="45.69" width="1.78" height="1.78"/>
        <rect class="cls-10" x="62.73" y="47.47" width="1.78" height="1.78"/>
        <rect class="cls-10" x="62.73" y="52.8" width="1.78" height="1.78"/>
        <rect class="cls-10" x="62.73" y="58.14" width="1.78" height="1.78"/>
        <rect class="cls-10" x="62.73" y="63.47" width="1.78" height="1.78"/>
        <rect class="cls-10" x="62.73" y="65.25" width="1.78" height="1.78"/>
        <rect class="cls-10" x="64.51" y="29.68" width="1.78" height="1.78"/>
        <rect class="cls-10" x="64.51" y="31.46" width="1.78" height="1.78"/>
        <rect class="cls-10" x="64.51" y="33.24" width="1.78" height="1.78"/>
        <rect class="cls-10" x="64.51" y="36.8" width="1.78" height="1.78"/>
        <rect class="cls-10" x="64.51" y="38.58" width="1.78" height="1.78"/>
        <rect class="cls-10" x="64.51" y="42.13" width="1.78" height="1.78"/>
        <rect class="cls-10" x="64.51" y="43.91" width="1.78" height="1.78"/>
        <rect class="cls-10" x="64.51" y="47.47" width="1.78" height="1.78"/>
        <rect class="cls-10" x="64.51" y="52.8" width="1.78" height="1.78"/>
        <rect class="cls-10" x="64.51" y="59.92" width="1.78" height="1.78"/>
        <rect class="cls-10" x="66.28" y="31.46" width="1.78" height="1.78"/>
        <rect class="cls-10" x="66.28" y="33.24" width="1.78" height="1.78"/>
        <rect class="cls-10" x="66.28" y="36.8" width="1.78" height="1.78"/>
        <rect class="cls-10" x="66.28" y="40.35" width="1.78" height="1.78"/>
        <rect class="cls-10" x="66.28" y="51.02" width="1.78" height="1.78"/>
        <rect class="cls-10" x="66.28" y="52.8" width="1.78" height="1.78"/>
        <rect class="cls-10" x="66.28" y="56.36" width="1.78" height="1.78"/>
        <rect class="cls-10" x="66.28" y="58.14" width="1.78" height="1.78"/>
        <rect class="cls-10" x="66.28" y="61.69" width="1.78" height="1.78"/>
        <rect class="cls-10" x="66.28" y="65.25" width="1.78" height="1.78"/>
      </g>
      <g>
        <rect class="cls-11" x="16.49" y="15.46" width="1.78" height="1.78"/>
        <rect class="cls-11" x="16.49" y="17.23" width="1.78" height="1.78"/>
        <rect class="cls-11" x="16.49" y="19.01" width="1.78" height="1.78"/>
        <rect class="cls-11" x="16.49" y="20.79" width="1.78" height="1.78"/>
        <rect class="cls-11" x="16.49" y="22.57" width="1.78" height="1.78"/>
        <rect class="cls-11" x="16.49" y="24.35" width="1.78" height="1.78"/>
        <rect class="cls-11" x="16.49" y="26.13" width="1.78" height="1.78"/>
        <rect class="cls-11" x="18.27" y="15.46" width="1.78" height="1.78"/>
        <rect class="cls-11" x="18.27" y="26.13" width="1.78" height="1.78"/>
        <rect class="cls-11" x="20.04" y="15.46" width="1.78" height="1.78"/>
        <rect class="cls-11" x="20.04" y="26.13" width="1.78" height="1.78"/>
        <rect class="cls-11" x="21.82" y="15.46" width="1.78" height="1.78"/>
        <rect class="cls-11" x="21.82" y="26.13" width="1.78" height="1.78"/>
        <rect class="cls-11" x="23.6" y="15.46" width="1.78" height="1.78"/>
        <rect class="cls-11" x="23.6" y="26.13" width="1.78" height="1.78"/>
        <rect class="cls-11" x="25.38" y="15.46" width="1.78" height="1.78"/>
        <rect class="cls-11" x="25.38" y="26.13" width="1.78" height="1.78"/>
        <rect class="cls-11" x="27.16" y="15.46" width="1.78" height="1.78"/>
        <rect class="cls-11" x="27.16" y="17.23" width="1.78" height="1.78"/>
        <rect class="cls-11" x="27.16" y="19.01" width="1.78" height="1.78"/>
        <rect class="cls-11" x="27.16" y="20.79" width="1.78" height="1.78"/>
        <rect class="cls-11" x="27.16" y="22.57" width="1.78" height="1.78"/>
        <rect class="cls-11" x="27.16" y="24.35" width="1.78" height="1.78"/>
        <rect class="cls-11" x="27.16" y="26.13" width="1.78" height="1.78"/>
      </g>
      <rect class="cls-11" x="20.04" y="19.01" width="5.34" height="5.34"/>
      <g>
        <rect class="cls-11" x="55.61" y="15.46" width="1.78" height="1.78"/>
        <rect class="cls-11" x="55.61" y="17.23" width="1.78" height="1.78"/>
        <rect class="cls-11" x="55.61" y="19.01" width="1.78" height="1.78"/>
        <rect class="cls-11" x="55.61" y="20.79" width="1.78" height="1.78"/>
        <rect class="cls-11" x="55.61" y="22.57" width="1.78" height="1.78"/>
        <rect class="cls-11" x="55.61" y="24.35" width="1.78" height="1.78"/>
        <rect class="cls-11" x="55.61" y="26.13" width="1.78" height="1.78"/>
        <rect class="cls-11" x="57.39" y="15.46" width="1.78" height="1.78"/>
        <rect class="cls-11" x="57.39" y="26.13" width="1.78" height="1.78"/>
        <rect class="cls-11" x="59.17" y="15.46" width="1.78" height="1.78"/>
        <rect class="cls-11" x="59.17" y="26.13" width="1.78" height="1.78"/>
        <rect class="cls-11" x="60.95" y="15.46" width="1.78" height="1.78"/>
        <rect class="cls-11" x="60.95" y="26.13" width="1.78" height="1.78"/>
        <rect class="cls-11" x="62.73" y="15.46" width="1.78" height="1.78"/>
        <rect class="cls-11" x="62.73" y="26.13" width="1.78" height="1.78"/>
        <rect class="cls-11" x="64.51" y="15.46" width="1.78" height="1.78"/>
        <rect class="cls-11" x="64.51" y="26.13" width="1.78" height="1.78"/>
        <rect class="cls-11" x="66.28" y="15.46" width="1.78" height="1.78"/>
        <rect class="cls-11" x="66.28" y="17.23" width="1.78" height="1.78"/>
        <rect class="cls-11" x="66.28" y="19.01" width="1.78" height="1.78"/>
        <rect class="cls-11" x="66.28" y="20.79" width="1.78" height="1.78"/>
        <rect class="cls-11" x="66.28" y="22.57" width="1.78" height="1.78"/>
        <rect class="cls-11" x="66.28" y="24.35" width="1.78" height="1.78"/>
        <rect class="cls-11" x="66.28" y="26.13" width="1.78" height="1.78"/>
      </g>
      <rect class="cls-11" x="59.17" y="19.01" width="5.34" height="5.34"/>
      <g>
        <rect class="cls-11" x="16.49" y="54.58" width="1.78" height="1.78"/>
        <rect class="cls-11" x="16.49" y="56.36" width="1.78" height="1.78"/>
        <rect class="cls-11" x="16.49" y="58.14" width="1.78" height="1.78"/>
        <rect class="cls-11" x="16.49" y="59.92" width="1.78" height="1.78"/>
        <rect class="cls-11" x="16.49" y="61.69" width="1.78" height="1.78"/>
        <rect class="cls-11" x="16.49" y="63.47" width="1.78" height="1.78"/>
        <rect class="cls-11" x="16.49" y="65.25" width="1.78" height="1.78"/>
        <rect class="cls-11" x="18.27" y="54.58" width="1.78" height="1.78"/>
        <rect class="cls-11" x="18.27" y="65.25" width="1.78" height="1.78"/>
        <rect class="cls-11" x="20.04" y="54.58" width="1.78" height="1.78"/>
        <rect class="cls-11" x="20.04" y="65.25" width="1.78" height="1.78"/>
        <rect class="cls-11" x="21.82" y="54.58" width="1.78" height="1.78"/>
        <rect class="cls-11" x="21.82" y="65.25" width="1.78" height="1.78"/>
        <rect class="cls-11" x="23.6" y="54.58" width="1.78" height="1.78"/>
        <rect class="cls-11" x="23.6" y="65.25" width="1.78" height="1.78"/>
        <rect class="cls-11" x="25.38" y="54.58" width="1.78" height="1.78"/>
        <rect class="cls-11" x="25.38" y="65.25" width="1.78" height="1.78"/>
        <rect class="cls-11" x="27.16" y="54.58" width="1.78" height="1.78"/>
        <rect class="cls-11" x="27.16" y="56.36" width="1.78" height="1.78"/>
        <rect class="cls-11" x="27.16" y="58.14" width="1.78" height="1.78"/>
        <rect class="cls-11" x="27.16" y="59.92" width="1.78" height="1.78"/>
        <rect class="cls-11" x="27.16" y="61.69" width="1.78" height="1.78"/>
        <rect class="cls-11" x="27.16" y="63.47" width="1.78" height="1.78"/>
        <rect class="cls-11" x="27.16" y="65.25" width="1.78" height="1.78"/>
      </g>
      <rect class="cls-11" x="20.04" y="58.14" width="5.34" height="5.34"/>
    </g>
  </g>
</svg>