<?xml version="1.0" encoding="UTF-8"?>
<svg id="Layer_1" data-name="Layer 1" xmlns="http://www.w3.org/2000/svg" viewBox="0 0 293.89 141.84">
  <defs>
    <style>
      .cls-1 {
        fill: #206f8d;
      }
    </style>
  </defs>
  <g>
    <polygon class="cls-1" points="58.21 101.47 38.94 90.34 38.94 68.09 47.68 62.99 47.68 50.96 28.52 62.08 28.52 96.36 58.21 113.5 77.49 102.49 67.07 96.48 58.21 101.47"/>
    <path class="cls-1" d="M120.07,44.96l-.42-.15-.25-.37c-6.7-10.08-17.89-16.09-29.92-16.09-10.65,0-20.64,4.68-27.5,12.85l9.64,5.56c4.69-4.79,11.19-7.52,17.86-7.52,3.81,0,7.46.84,10.86,2.5l.84.41v.08c4.51,2.78,8.08,6.99,10.08,11.88.13.01.26.03.39.04.42.05.82.11,1.22.18.63.11,1.27.25,1.92.41l.08.02c.55.14,1.14.33,1.75.54l.19.07c.57.2,1.13.43,1.67.68l.18.08c.59.27,1.12.54,1.64.83.51.29,1.02.6,1.55.95l.14.09c.47.32.93.66,1.4,1.03l.23.18c.45.37.88.75,1.28,1.12l.19.19c.46.44.86.85,1.22,1.26,3.81,4.27,5.91,9.77,5.91,15.48,0,12.84-10.44,23.28-23.28,23.28-2.5,0-4.97-.4-7.35-1.2-1.72-.57-3.38-1.36-4.94-2.33l-10.23,5.91c6.24,5.49,14.22,8.51,22.52,8.51,18.84,0,34.17-15.33,34.17-34.17,0-14.55-9.25-27.53-23.03-32.3Z"/>
    <polygon class="cls-1" points="92.42 93.74 111.44 82.75 111.88 82.5 111.88 81.81 111.88 70.09 101.46 64.06 101.46 76.46 82.2 87.58 80.97 86.86 78.08 85.2 67.65 79.17 62.93 76.45 62.93 71.36 62.93 59.69 62.96 59.71 62.96 54.23 68.65 50.94 68.65 50.94 68.83 50.84 58.4 44.81 58.26 44.9 58.24 44.89 52.51 48.19 52.51 65.34 52.51 70.43 52.51 82.5 82.18 99.63 82.19 99.62 82.22 99.63 92.42 93.74 92.42 93.74"/>
  </g>
  <g>
    <path class="cls-1" d="M216.77,85.46c-.16-.43-.57-.71-1.02-.71h-5.32c-.46,0-.86.29-1.02.71l-9.08,24.77-1.2,3.26h6.76c.55,0,1.03-.36,1.2-.88l1.95-6.31,8.16-.03,1.93,6.34c.16.52.65.88,1.19.88h6.81l-1.1-2.98-9.26-25.06ZM211.26,99.12l1.83-5.92,1.84,5.92h-3.67Z"/>
    <path class="cls-1" d="M246.11,99.09c.85-1.38,1.27-3.12,1.27-5.22,0-2.9-1.01-5.15-3.02-6.73-2.02-1.59-4.81-2.38-8.39-2.38h-9.12c-.6,0-1.09.49-1.09,1.09v19.98l2.84,7.68h3.26c.65,0,1.17-.52,1.17-1.17v-6.02h3.54l3.03,6.54c.2.4.6.65,1.05.65h5.25c.88,0,1.44-.93,1.04-1.71l-4.81-9.35c1.81-.86,3.14-1.98,3.99-3.36ZM239.08,98.04c-.7.73-1.74,1.09-3.12,1.09h-2.94v-7.18h2.94c1.37,0,2.4.37,3.11,1.11.7.74,1.13,1.19,1.13,2.48s-.42,1.78-1.12,2.5Z"/>
    <path class="cls-1" d="M264.25,84.75h-12.14c-.62,0-1.12.5-1.12,1.12v3.38c0,.62.5,1.12,1.12,1.12h2.52v21.94c0,.66.53,1.19,1.19,1.19h4.67c.66,0,1.19-.53,1.19-1.19v-21.94h2.57c.62,0,1.12-.5,1.12-1.12v-3.38c0-.62-.5-1.12-1.12-1.12Z"/>
    <path class="cls-1" d="M261.73,48.39c.9,0,1.76-.34,2.42-.95.21-.19.39-.4.54-.61.18-.26.33-.56.43-.87.13-.37.19-.76.19-1.15s-.06-.77-.19-1.15c-.11-.31-.25-.6-.43-.87-.15-.22-.33-.42-.54-.61-.66-.61-1.53-.95-2.42-.95-1.98,0-3.58,1.61-3.58,3.58s1.61,3.58,3.58,3.58Z"/>
    <path class="cls-1" d="M247.33,48.39c.9,0,1.76-.34,2.42-.95.21-.19.39-.4.54-.61.18-.26.33-.56.43-.87.13-.37.19-.76.19-1.15s-.06-.77-.19-1.15c-.11-.31-.25-.6-.43-.87-.15-.22-.33-.42-.54-.61-.66-.61-1.53-.95-2.42-.95-1.98,0-3.58,1.61-3.58,3.58s1.61,3.58,3.58,3.58Z"/>
    <path class="cls-1" d="M232.96,48.39c.9,0,1.76-.34,2.42-.95.21-.19.39-.4.54-.61.18-.26.33-.56.43-.87.13-.37.19-.76.19-1.15s-.06-.77-.19-1.15c-.11-.31-.25-.6-.43-.87-.15-.22-.33-.42-.54-.61-.66-.61-1.53-.95-2.42-.95-1.98,0-3.58,1.61-3.58,3.58s1.61,3.58,3.58,3.58Z"/>
    <path class="cls-1" d="M215.07,73.87h21.63v-1.22c.3.81,5.13,1.22,7.85,1.22l6.5.06v-1.24c.28.83,1.76,1.24,4.45,1.24h8.37c.83,0,1.5-.67,1.49-1.5l-.08-19.42c0-.6-.49-1.09-1.09-1.09h-4.95c-.6,0-1.09.49-1.09,1.09v13.47h-2.65c-1.44,0-2.51-.52-3.23-1.57-.69-1.01-1.1-1.51-1.22-3.32v-8.58c0-.6-.49-1.09-1.09-1.09h-5c-.6,0-1.09.49-1.09,1.09v13.47l-2.65-.06c-1.63,0-2.8-.66-3.52-1.97-.68-1.24-1.02-2.02-1.02-4.14v-7.36c0-.6-.49-1.09-1.09-1.09h-4.98c-.6,0-1.09.49-1.09,1.09v12.35c0,.62-.5,1.12-1.12,1.12h-13.24c-.14,0-.21-.14-.21-.41v-23.76c0-.6-.49-1.09-1.09-1.09h-5.01c-.6,0-1.09.49-1.09,1.09v23.76c0,1.96.68,4.68,2.03,5.95,1.34,1.27,3.09,1.91,5.24,1.91Z"/>
    <path class="cls-1" d="M175.46,48.39c.9,0,1.76-.34,2.42-.95.21-.19.39-.4.54-.61.18-.26.33-.56.43-.87.13-.37.19-.76.19-1.15s-.06-.77-.19-1.15c-.11-.31-.25-.6-.43-.87-.15-.22-.33-.42-.54-.61-.66-.61-1.53-.95-2.42-.95-1.98,0-3.58,1.61-3.58,3.58s1.61,3.58,3.58,3.58Z"/>
    <path class="cls-1" d="M165.32,48.39c.9,0,1.76-.34,2.42-.95.21-.19.39-.4.54-.61.18-.26.33-.56.43-.87.13-.37.19-.76.19-1.15s-.06-.77-.19-1.15c-.11-.31-.25-.6-.43-.87-.15-.22-.33-.42-.54-.61-.66-.61-1.53-.95-2.42-.95-1.98,0-3.58,1.61-3.58,3.58s1.61,3.58,3.58,3.58Z"/>
    <path class="cls-1" d="M200.73,85.56c0-.54-.44-.98-.98-.98h-5.27c-.54,0-.98.44-.98.98v13.39h-7.24v-13.39c0-.54-.44-.98-.98-.98h-5.3c-.54,0-.98.44-.98.98v26.55c0,.67.54,1.21,1.21,1.21h4.79c.67,0,1.21-.54,1.21-1.2l.06-5.98h7.24v6.01c0,.65.52,1.17,1.17,1.17h3.12l2.94-8v-19.76Z"/>
    <path class="cls-1" d="M163.27,92.02c1.81,0,3.16.52,4.05,1.56.25.3.47.65.65,1.05.25.55.83.88,1.44.88l4.29.17c1.04,0,1.81-.95,1.57-1.94-.5-2.04-1.71-3.92-3.02-5.37-.26-.28-.52-.54-.8-.79-.87-.79-1.83-1.42-2.88-1.9-1.56-.7-3.33-1.07-5.3-1.07-1.73,0-3.31.36-4.76,1.06-.72.35-1.41.78-2.07,1.3-1.97,1.57-3.48,3.8-4.52,6.68l-.02.05c-1.18,3.27-1.36,6.84-.37,10.17.56,1.88,1.33,3.52,2.29,4.92,1.27,1.83,2.8,3.06,4.6,3.81,1.49.62,3.15.9,4.99.9s3.59-.16,5.15-.76c.45-.18.9-.38,1.33-.64.48-.29.93-.61,1.35-.95,1.27-1.04,2.3-2.34,3.08-3.91.45-.89.75-1.81.96-2.78.22-1-.53-1.94-1.57-1.94h-4.14c-.65,0-1.25.38-1.48.97-.22.55-.49,1.02-.83,1.4-.9,1.02-2.2,1.53-3.9,1.53-2.01,0-3.43-.9-4.25-2.69-.49-1.06-.82-2.55-1.02-4.44.22-1.96.59-3.51,1.14-4.63.86-1.76,2.21-2.64,4.05-2.64Z"/>
    <path class="cls-1" d="M162.54,73.87h22.56c.6,0,1.09-.49,1.09-1.09v-19.68c0-.6-.49-1.09-1.09-1.09h-4.95c-.6,0-1.09.49-1.09,1.09v12.21c0,.62-.5,1.12-1.12,1.12h-14.89c-1.49,0-2.79-.2-3.7-1.09-.9-.87-1.23-1.33-1.25-2.7-.03-2.34,1.46-3.4,3.15-4.62.46-.33.59-.96.29-1.45l-2.45-4.04c-.32-.53-1.02-.68-1.54-.34-4.03,2.69-6.65,6.53-6.65,10.44,0,3.05,1.06,5.83,3.19,7.94,2.25,2.2,5.06,3.29,8.43,3.29Z"/>
    <path class="cls-1" d="M192.16,80.77c.2.4.72.49,1.05.2,4.87-4.22,7.39-9.62,7.39-15.07v-12.8c0-.6-.49-1.09-1.09-1.09h-4.95c-.6,0-1.09.49-1.09,1.09v12.8c0,3.15-1.29,6.14-3.74,8.84-.19.21-.18.77-.05,1.02l2.47,5.01Z"/>
  </g>
</svg>