<?xml version="1.0" encoding="UTF-8"?>
<svg id="Layer_1" data-name="Layer 1" xmlns="http://www.w3.org/2000/svg" viewBox="0 0 293.89 141.84">
  <defs>
    <style>
      .cls-1 {
        fill: #00d2a8;
      }

      .cls-2 {
        fill: #00d6ab;
      }

      .cls-3 {
        fill: #101010;
      }
    </style>
  </defs>
  <path class="cls-3" d="M215.75,64.87l-.41,32.58-12.37.28-.02-28.28c0-2.37-1.59-4.48-3.84-5.03-3.13-.76-6.16-.46-8.24.7l.34,32.34-12.5.27.07-39.83c8.61-6.19,19.83-7,29.65-2.76,5.62-2.16,11.59-3.1,17.47-2.27,8.9,1.25,13.55,7.46,13.6,16.11l.15,28.48-12.43.28-.04-28.27c0-3.08-2.28-5.15-5.45-5.34-1.4-.08-4.63-.44-5.98.76Z"/>
  <g>
    <g>
      <path class="cls-3" d="M148.76,97.53c-4.77-.01-9.5-1.48-12.33-4.95-4.48-5.49-4.74-14.97.99-19.39,5.38-4.16,12.57-2.46,19.06-2.95,1.26-.1.82-3.16.1-4.09-.88-1.13-2.41-2.38-4.46-2.46l-13.68-.48-5-10.37,19.19-.06c9.03-.03,16.79,6.27,16.84,15.08l.17,29.73-20.88-.06ZM157.15,88.01l-.02-7.9c-6.15-.25-12.09-1.58-12.57,2.21-.27,2.1-.5,5.36,2.05,5.43l10.53.26Z"/>
      <path class="cls-3" d="M104.4,87.45c5.14,1.57,10.56.07,15.78.66,2.24,2.92,4.28,5.2,6.07,9.36l-21.59-.04c-8.04-.02-14.52-6.04-14.55-14.06l-.07-15.59c1.28-11.65,12.59-17.05,23.42-14.66,8.81,1.94,14.36,8.89,13.22,18.19-.36,2.95.04,6.11.69,9.42l-25.75.34c-.48,1.81.32,5.64,2.79,6.39ZM115.89,71.98c.76-5.98-3.23-8.86-7.69-8.91s-7.47,4.29-6.57,9l14.26-.09Z"/>
    </g>
    <g>
      <path class="cls-3" d="M39.58,43.73h.9l11.65,7.49-.09,46.32-20.08-.06c-10.89-.03-18.61-7.61-19.21-18.45-.38-6.85-.36-14.64,4.77-19.87,5.62-5.73,14.15-6.46,21.93-6.63l.13-8.81ZM39.65,86.86v-22.63c-5.23-.03-10.03.7-12.74,3.89-2.56,3.02-2.75,12.25.44,15.53,2.56,2.63,7.75,3.69,12.3,3.21Z"/>
      <path class="cls-3" d="M73.73,64.11l-.18,33.35-12.45.26.15-44.93,25.27-.19-5.99,11.32c-1.97.43-3.74.2-6.8.19Z"/>
    </g>
  </g>
  <g>
    <path class="cls-1" d="M243.36,43.73c2.89,2.48,7.02,3.35,10.36,5.74,1.05,1.05.36,3.75.37,4.94,3.04.38,2.44,8.97-.22,9.15-1.01.07-1.24-.87-.72-1.92-.74-.65-1.63-1.01-2.66-1.11-1.13,1.28-1.85.97-1.67-.72-2.47-.77-5.06-1.83-7.35-3.51l.1-12.58h1.8Z"/>
    <path class="cls-3" d="M248.82,59.82c.55.17,1.2.4,1.67.72,1.86-1.62,2.39-1.21,2.66,1.11.07,1,1.13.71,1-.06l-.06-7.17c7.15-3.27,15.22-1.8,22.44,1.81l-.17,10.43c-8.16-3.36-17.15-5.3-17.45-.34-.26,4.39,12.95,3.93,19.15,9.71,4.67,4.35,4,13.05-.36,17.45-4.02,4.05-10.14,5.43-15.41,4.19l-11.68-2.75.02-10.57c8.38,2.95,19.17,5.99,19.74.6.55-5.16-9.58-3.83-17.62-8.73-6.17-3.76-7.54-10.85-3.95-16.4Z"/>
    <path class="cls-2" d="M253.15,61.64c-1.04,0-1.84-.55-2.66-1.11,2.38-1.13,1.8-3.69,2.21-6.18,1.09,2.62.47,5.06.45,7.29Z"/>
  </g>
</svg>