<?xml version="1.0" encoding="UTF-8"?>
<svg id="Layer_1" data-name="Layer 1" xmlns="http://www.w3.org/2000/svg" viewBox="0 0 387.5 141.84">
  <defs>
    <style>
      .cls-1 {
        fill: #ea4335;
      }

      .cls-2 {
        fill: #4285f4;
      }

      .cls-3 {
        fill: #34a853;
      }

      .cls-4 {
        fill: #fbbc05;
      }
    </style>
  </defs>
  <path class="cls-2" d="M102.44,77.44c2.73-3.15,4.13-7.58,4.69-11.78h-24.89s0-10.5,0-10.5h35.18c1.63,10.66-.74,22.77-8.35,30.47-7.41,7.96-17.16,11.25-27.97,10.91-14.08-.43-26.89-8.58-33.36-21.03-5.6-10.77-5.55-23.59.07-34.32,6.91-13.18,20.83-21.34,35.73-20.88,6.74.21,13.22,2.02,18.88,5.73,2.17,1.39,4.08,2.94,6,4.75l-7.4,7.4c-4.97-4.82-11.35-7.31-18.18-7.45-10.89-.22-20.76,5.89-25.32,15.79-3.5,7.58-3.46,16.48.13,24.03,4.77,10.03,15.02,16.1,26.13,15.51,3.46-.19,6.73-.77,9.91-2.18,3.38-1.49,6.32-3.67,8.73-6.45Z"/>
  <path class="cls-2" d="M239.7,100.13c2.2,4.95,6.52,8.63,12.07,8.71s9.91-2.02,12.04-7c.8-1.88,1.29-3.83,1.31-5.91l.04-4.99c-.53-.03-.57.37-.82.62-5.5,5.59-14,6.24-21.1,3.19-8.66-3.71-14.45-12.13-14.88-21.54-.46-10.15,5.26-19.6,14.51-23.81,7.36-3.35,16.62-2.61,22.18,3.74l.09-4.19h10.29s-.07,46.45-.07,46.45c0,3.56-.88,6.96-2.17,10.19-2.29,5.73-6.97,9.97-12.85,11.78-3.94,1.21-8,1.51-12.08.9-8.09-1.21-14.71-6.69-17.96-14.2l9.41-3.93ZM256.12,86.4c3.83-1.04,6.71-3.75,8.31-7.3,3.36-7.44.98-17.54-6.6-20.87-5.21-2.29-11.19-.75-14.9,3.49-4.94,5.65-5.01,14.83-.15,20.45,3.31,3.83,8.35,5.59,13.34,4.24Z"/>
  <g>
    <path class="cls-4" d="M211.52,93.74c-6.94,3.59-15.2,3.75-22.23.53-11.79-5.39-16.84-18.75-12.66-30.78,1.12-3.22,2.84-6.01,5.18-8.48,9.72-10.26,26.94-10.12,36.47.39,3.01,3.33,4.98,7.35,5.79,11.77,1.98,10.74-2.72,21.48-12.55,26.57ZM188.24,80.17c2.6,4.36,7.2,6.82,12.13,6.65s9.18-2.92,11.49-7.3c2.51-4.77,2.45-10.61-.12-15.33-1.95-3.58-5.43-6.01-9.03-6.74-4.43-.91-8.67.28-11.81,3.14-1.45,1.32-2.52,2.67-3.33,4.43-2.22,4.81-2.09,10.51.68,15.15Z"/>
    <path class="cls-1" d="M153.8,95.57c-9.06,2.57-18.97.09-25.4-6.91-8.32-9.07-8.47-23.7-.42-32.87l2.37-2.35c9.2-8.03,23.6-8.01,32.88.1,5.38,4.7,8.15,11.47,8.15,18.55,0,10.95-7.02,20.49-17.58,23.49ZM137.55,83.2c3.19,2.97,7.31,4.17,11.68,3.39,3.63-.65,7.09-2.98,9.14-6.46,2.77-4.71,2.91-10.68.42-15.56-2.34-4.6-7-7.4-12.03-7.42s-9.61,2.75-12.03,7.25c-3.16,5.89-2.3,14.03,2.82,18.8Z"/>
  </g>
  <g>
    <path class="cls-1" d="M321.09,86.83c5.17.06,9.27-2.4,12.17-6.79l8.42,5.58c-4.6,6.75-11.76,10.78-19.97,10.92-6.25.11-12.28-1.94-16.9-6.13-3.27-2.97-5.61-6.6-6.89-10.86-1.87-6.25-1.4-13.03,1.3-18.91,3.93-8.53,12.49-13.65,21.87-13.21,8.91.42,15.65,6.09,19.26,14.01l1.78,4.41-32.82,13.59c2.59,4.89,6.24,7.32,11.76,7.39ZM329.46,62.11c-.75-1.71-1.93-2.78-3.32-3.69-5.3-2.86-11.24-1.37-15.22,3.06-2.37,2.64-3.5,6.11-3.34,9.72l21.88-9.09Z"/>
    <polygon class="cls-3" points="292.35 95.01 281.76 95.04 281.76 23.08 292.35 23.08 292.35 95.01"/>
  </g>
</svg>