<?xml version="1.0" encoding="UTF-8"?>
<svg id="Layer_1" data-name="Layer 1" xmlns="http://www.w3.org/2000/svg" viewBox="0 0 293.89 141.84">
  <defs>
    <style>
      .cls-1 {
        fill: #1bb99a;
      }

      .cls-2 {
        fill: #142c48;
      }
    </style>
  </defs>
  <g>
    <g>
      <g>
        <path class="cls-1" d="M80.56,82.5v3.24c-1.89-2.2-4.41-3.24-7.56-3.24-6.05,0-11.53,4.19-11.53,12.31s5.87,12.32,11.53,12.32c3.24,0,5.74-1.52,7.56-4.02v4.02h8.38v-24.62h-8.38ZM74.86,100.33c-2.5,0-4.58-2.12-4.58-5.61,0-3.28,2.04-5.4,4.54-5.4,2.25,0,4.27,1.38,5.74,5.36-1.16,3.49-3.41,5.65-5.7,5.65Z"/>
        <path class="cls-1" d="M113.67,84.12h-21.59v5.99h10.99l-10.99,12.69v4.32h21.59v-5.99h-11.24l11.24-12.61v-4.4Z"/>
        <path class="cls-1" d="M140.38,94.72c0-8.55-5.38-12.22-12.26-12.22-7.78,0-12.65,5.38-12.65,12.26,0,7.49,4.14,12.36,13.07,12.36,4.83,0,7.57-.86,10.82-2.49l-1.24-5.59c-2.48,1.11-4.78,1.79-7.86,1.79-3.38,0-5.3-1.28-6.03-3.68h15.94c.13-.64.21-1.36.21-2.44ZM124.01,92.84c.35-2.74,1.45-4.24,3.98-4.24s3.63,1.5,3.89,4.24h-7.87Z"/>
        <path class="cls-1" d="M167.45,94.72c0-8.55-5.38-12.22-12.27-12.22-7.78,0-12.65,5.38-12.65,12.26,0,7.49,4.15,12.36,13.08,12.36,4.83,0,7.56-.86,10.81-2.49l-1.23-5.59c-2.48,1.11-4.79,1.79-7.87,1.79-3.38,0-5.29-1.28-6.03-3.68h15.94c.13-.64.22-1.36.22-2.44ZM151.07,92.84c.34-2.74,1.45-4.24,3.97-4.24,2.66,0,3.64,1.5,3.89,4.24h-7.86Z"/>
        <path class="cls-1" d="M170.51,74.34v32.79h8.29v-32.79h-8.29Z"/>
      </g>
      <g>
        <path class="cls-1" d="M26.1,90.73c0,9.05,7.34,16.39,16.39,16.39v-16.39h-16.39Z"/>
        <path class="cls-1" d="M42.49,74.34c0,9.05,7.34,16.39,16.39,16.39v-16.39h-16.39Z"/>
        <path class="cls-1" d="M42.49,107.12c9.05,0,16.39-7.34,16.39-16.39-9.05,0-16.39,7.34-16.39,16.39Z"/>
      </g>
    </g>
    <g>
      <g>
        <path class="cls-2" d="M26.1,51.11c0,9.05,7.34,16.39,16.39,16.39v-16.39h-16.39Z"/>
        <path class="cls-2" d="M42.49,34.72c0,9.05,7.34,16.39,16.39,16.39v-16.39h-16.39Z"/>
        <path class="cls-2" d="M42.49,67.5c9.05,0,16.39-7.34,16.39-16.39-9.05,0-16.39,7.34-16.39,16.39Z"/>
      </g>
      <g>
        <path class="cls-2" d="M116.84,59.83c7.44-.02,10.76-4.67,10.76-11.67,0-2.91-.68-6.16-1.67-8.85l-6.2,1.92c.68,2.69,1.37,5.56,1.37,7.18,0,1.8-1.07,2.69-3.89,2.69h-58.34l.29,2.08c.52,3.81,3.78,6.65,7.62,6.65h50.06Z"/>
        <path class="cls-2" d="M117.27,61.11c-1.98,0-3.22,1.4-3.22,3.14s1.24,3.14,3.22,3.14,3.18-1.4,3.18-3.14-1.24-3.14-3.18-3.14Z"/>
        <path class="cls-2" d="M109.51,61.11c-1.98,0-3.22,1.4-3.22,3.14s1.24,3.14,3.22,3.14,3.18-1.4,3.18-3.14-1.24-3.14-3.18-3.14Z"/>
        <path class="cls-2" d="M140.64,34.72c-1.98,0-3.22,1.4-3.22,3.14s1.24,3.14,3.22,3.14,3.18-1.4,3.18-3.14-1.24-3.14-3.18-3.14Z"/>
        <path class="cls-2" d="M169.15,57.33c-1.98,0-3.22,1.4-3.22,3.14s1.24,3.14,3.22,3.14,3.18-1.4,3.18-3.14-1.24-3.14-3.18-3.14Z"/>
        <path class="cls-2" d="M178.81,41.9l-.66,8.31h-6.94c-4.74,3.59-8.33,5.6-11.78,6.72-3.45,1.12-6.76,1.34-10.93,1.34h-2.68c-1.54,5.67-5.59,9.22-10.9,9.22-2.43,0-4.38-.46-5.17-.79l.41-7.77c1.04.09,2.01.13,2.93.13,4.8,0,7.02-2.43,7.02-5.47,0-1.62-.4-3.78-.89-6.11h-.01c-.1-.5-.22-1.02-.33-1.54l-.53-2.44,6.36-1.91.53,2.44.38,1.77c.27,1.3.51,2.64.67,3.94h2.63c4.47,0,9.9,0,16.79-2.47-2.18-.83-4.72-1.75-7.9-1.75-2.8,0-4.63,1.09-5.81,1.84l-2.26-5.59c1.13-1.75,4.51-4.3,8.98-4.3,3.92,0,6.52,1.75,8.68,2.8,3.22,1.54,4.18,1.62,6.98,1.62h4.42Z"/>
      </g>
    </g>
  </g>
  <g>
    <path class="cls-2" d="M195.39,70.92c0,19.99,16.21,36.2,36.2,36.2v-36.2h-36.2Z"/>
    <path class="cls-2" d="M231.59,34.72c0,19.99,16.21,36.2,36.2,36.2v-36.2h-36.2Z"/>
    <path class="cls-1" d="M231.59,107.12c19.99,0,36.2-16.21,36.2-36.2-19.99,0-36.2,16.21-36.2,36.2Z"/>
  </g>
</svg>