<?xml version="1.0" encoding="UTF-8"?>
<svg id="Layer_1" data-name="Layer 1" xmlns="http://www.w3.org/2000/svg" viewBox="0 0 387.5 141.84">
  <defs>
    <style>
      .cls-1 {
        fill: #f15022;
      }

      .cls-2 {
        fill: #a6a6a6;
      }

      .cls-3 {
        fill: #737373;
      }

      .cls-4 {
        fill: #feb800;
      }

      .cls-5 {
        fill: #7eb900;
      }

      .cls-6 {
        fill: #00a3ee;
      }
    </style>
  </defs>
  <polygon class="cls-1" points="24.13 69.34 24.13 35.01 58.56 35.01 58.56 69.36 24.13 69.34"/>
  <rect class="cls-6" x="24.13" y="72.77" width="34.43" height="34.33"/>
  <polygon class="cls-4" points="96.43 107.1 62 107.1 62 72.77 96.43 72.77 96.43 107.1"/>
  <polygon class="cls-5" points="96.43 69.34 62 69.36 62 35.01 96.43 35.01 96.43 69.34"/>
  <path class="cls-3" d="M125.36,59.28c-.25-.03-.27.24-.06.82l-.02,32.68-7.14.06v-43.56s10.93,0,10.93,0l12.52,32.22,13.29-32.22,10.4.05v43.46s-7.66.06-7.66.06l-.09-33.91-13.48,33.88-5.06.02-13.62-33.54Z"/>
  <path class="cls-3" d="M356.67,85.93c1.72,1.87,4.43,1.4,6.41.3l.02,6.12c-3.84,1.55-9.82,1.5-12.47-1.33-1.31-1.4-2.26-3.36-2.28-5.35l-.12-17.94-10.81.07-.02,24.97-7.4.06v-25.08s-5.3,0-5.3,0l.07-6.08,5.15-.07.12-6c.82-7.28,8.35-11.05,15.58-8.94v6.43c-1.29-.58-2.42-.64-3.7-.7-2.57-.13-4.34,1.68-4.39,4.19l-.1,4.85h10.84s.02-6.91.02-6.91l7.39-2.29v9.2s7.42,0,7.42,0v6.33s-7.44,0-7.44,0l.1,15.24c0,.84.28,2.26.9,2.93Z"/>
  <path class="cls-3" d="M264.72,78.92c-.84,7.99-5.74,13.83-13.9,14.48-1.56.28-2.99.4-4.53.02-5.47-.38-10.21-3.52-12.22-8.71-1.85-4.76-1.72-10.18.23-14.88,3.39-8.16,12.49-10.41,20.5-8.18,7.35,2.04,10.69,9.93,9.92,17.28ZM252.66,86.59c6-2.62,5.44-14.06,2.17-17.31-3.07-3.05-8.19-3.08-11.34-.14-1.88,1.75-2.71,4.26-2.77,6.72-.49,1.14-.12,2.15-.04,3.27.21,2.72,1.14,5.34,3.54,6.82s5.62,1.88,8.44.65Z"/>
  <path class="cls-3" d="M320.23,88.39c-3.53,4.19-9.22,5.65-14.63,5.08-3.94-.42-7.55-1.95-10.09-5.09-3.45-4.27-4.07-10.31-2.93-15.67,1.4-6.59,6.69-11.2,13.44-11.72h4.81c8.6.93,13.16,7.31,13.15,15.73,0,4.31-.95,8.34-3.75,11.67ZM313.4,85.68c3.49-2.84,3.76-9.87,2.05-14.21-.9-2.27-2.75-3.75-5.03-4.25-4.3-.95-8.38,1.13-9.81,5.29-1.84,5.34-.75,12.77,4.88,14.39,2.63.75,5.72.57,7.92-1.22Z"/>
  <path class="cls-3" d="M285.3,91.09c-4.6,3.24-11.89,2.79-17.25.65v-7.42c2.98,2.06,6.16,3.24,9.79,2.99,1.15-.08,2.51-.23,3.15-1.37s.37-2.94-.6-3.83c-2.1-1.92-6.49-2.74-9.37-5.21-3.62-3.1-3.87-9.14-.62-12.61,4.26-4.53,11.14-4.39,16.95-2.37l.02,5.58c0,.61-.12,1.18-.41,1.54-3.39-2.45-9.51-3.53-10.94-.53-.55,1.15-.48,2.56.46,3.52,2.83,2.86,11.84,3.16,12.5,10.72.3,3.48-.87,6.35-3.69,8.34Z"/>
  <path class="cls-3" d="M197.19,86.38c4.19,1.9,7.68.78,11.69-1.85l.08,6.85c-2.84,1.7-5.84,1.91-8.97,2.03-7.93.31-14.45-5.12-15.46-12.98-.79-6.2,1.36-13.12,6.65-16.73s12.18-3.73,17.76-1.06l.05,5.13c0,.69-.04,1.38-.44,1.83-3.37-2.56-7.82-3.27-11.56-1.4-3.46,1.74-4.73,5.38-4.78,9.05s1.31,7.46,4.98,9.12Z"/>
  <path class="cls-3" d="M221.66,92.74l-7.39.09v-31.15s7.41,0,7.41,0l.08,4.53c2.33-4.47,5.64-5.83,10.77-4.76l-.02,7.68c-.61-.74-1.38-.75-2.21-1.01-2.78-.9-5.68.08-7.2,2.69-.78,1.33-1.31,3.02-1.32,4.7l-.12,17.24Z"/>
  <polygon class="cls-3" points="179.58 92.74 172.16 92.84 172.16 61.68 179.58 61.68 179.58 92.74"/>
  <path class="cls-3" d="M175.21,56.97c-2.64-.19-4.01-2.44-3.89-4.8s3.23-4.53,6.24-3.41c1.7.63,3.09,2.61,2.76,4.69-.38,2.38-2.65,3.71-5.11,3.53Z"/>
  <path class="cls-2" d="M125.36,59.28l-.06.82c-.38-.29-.38-.95-.14-1.33.24.24.17.42.21.51Z"/>
</svg>