<?xml version="1.0" encoding="UTF-8"?>
<svg id="Layer_1" data-name="Layer 1" xmlns="http://www.w3.org/2000/svg" viewBox="0 0 293.89 141.84">
  <defs>
    <style>
      .cls-1 {
        fill: #231f20;
      }

      .cls-2 {
        fill: #ec1c24;
      }
    </style>
  </defs>
  <g>
    <path class="cls-1" d="M148.75,76.24l-1.87-3.27h-.16l.5,3.3v11.33h-4.36v-21.94h3.33l8.99,11.61,1.77,3.17h.19l-.5-3.21v-11.42h4.36v21.94h-3.33l-8.93-11.51Z"/>
    <path class="cls-1" d="M175.82,76.15h8.9v9.77c-.48.37-1,.69-1.57.95-.57.26-1.17.48-1.8.65s-1.28.31-1.94.39c-.66.08-1.32.12-1.96.12-1.49,0-2.89-.22-4.18-.65-1.3-.44-2.43-1.12-3.39-2.04-.96-.92-1.72-2.1-2.27-3.53-.55-1.43-.82-3.13-.82-5.1s.33-3.8,1-5.24c.66-1.44,1.53-2.61,2.6-3.52s2.26-1.56,3.58-1.96,2.63-.61,3.94-.61,2.54.1,3.56.3,1.83.39,2.41.58l-.97,3.83c-.56-.19-1.19-.34-1.9-.47s-1.59-.19-2.64-.19c-.97,0-1.87.13-2.68.39-.81.26-1.51.68-2.12,1.26-.6.58-1.07,1.34-1.4,2.27-.33.93-.5,2.06-.5,3.39s.17,2.39.5,3.3c.33.91.78,1.67,1.35,2.26.57.59,1.23,1.02,1.98,1.29.75.27,1.53.4,2.36.4.56,0,1.13-.06,1.7-.19s1.05-.32,1.45-.59v-3.76l-5.16-.5v-2.8Z"/>
    <path class="cls-1" d="M189.82,76.71c0-1.78.23-3.38.68-4.79.46-1.41,1.11-2.6,1.98-3.56.86-.97,1.91-1.7,3.16-2.21,1.25-.51,2.66-.76,4.23-.76,1.68,0,3.15.28,4.4.82,1.26.55,2.3,1.32,3.14,2.32.84,1,1.47,2.19,1.9,3.58.42,1.39.64,2.92.64,4.6,0,1.78-.23,3.38-.7,4.79s-1.14,2.6-2.01,3.56c-.87.97-1.93,1.7-3.17,2.21-1.24.51-2.64.76-4.2.76-1.68,0-3.15-.28-4.4-.82-1.26-.55-2.3-1.32-3.14-2.32-.84-1-1.47-2.19-1.88-3.58-.42-1.39-.62-2.92-.62-4.61ZM194.71,76.71c0,1.08.1,2.06.31,2.96.21.89.52,1.66.93,2.3.41.64.95,1.14,1.6,1.49.65.35,1.43.53,2.32.53,1.64,0,2.91-.56,3.83-1.68.91-1.12,1.37-2.99,1.37-5.6,0-1.04-.09-2-.28-2.89-.19-.89-.49-1.66-.92-2.32-.42-.65-.96-1.16-1.62-1.52s-1.45-.54-2.38-.54c-1.62,0-2.88.58-3.8,1.74-.91,1.16-1.37,3.01-1.37,5.54Z"/>
    <path class="cls-1" d="M161.23,110.33l.5-4.51h-.19l-1.49,3.42-5.04,8.12h-1.43l-5.35-8.15-1.46-3.36h-.19l.65,4.45v10.95h-4.36v-21.78h4.17l6.28,10.05,1.18,2.4h.16l1.03-2.46,6.01-9.99h4.14v21.78h-4.61v-10.92Z"/>
    <path class="cls-1" d="M174.08,101.96h-2.49v-2.49h9.58v2.49h-2.49v16.8h2.49v2.49h-9.58v-2.49h2.49v-16.8Z"/>
    <path class="cls-1" d="M186.93,99.69c.5-.08,1.04-.16,1.63-.23s1.19-.13,1.79-.17c.6-.04,1.19-.07,1.76-.09s1.09-.03,1.57-.03c1.1,0,2.18.09,3.25.28,1.07.19,2.02.51,2.86.97.84.46,1.52,1.08,2.04,1.88.52.8.78,1.8.78,3,0,1.78-.44,3.25-1.32,4.4s-2.1,1.93-3.66,2.35l1.65.97,5.45,8.25h-5.35l-5.41-8.43-2.43-.37v8.81h-4.61v-21.56ZM193.99,103.2c-.48,0-.94,0-1.39.02-.45.01-.8.05-1.07.11v6.01h1.96c1.31,0,2.34-.25,3.1-.75s1.14-1.36,1.14-2.58c0-.91-.32-1.61-.97-2.09s-1.57-.72-2.77-.72Z"/>
    <path class="cls-1" d="M209.71,99.69c.5-.08,1.04-.16,1.63-.23.59-.07,1.19-.13,1.79-.17.6-.04,1.19-.07,1.76-.09.57-.02,1.09-.03,1.57-.03,1.1,0,2.18.09,3.25.28,1.07.19,2.02.51,2.86.97.84.46,1.52,1.08,2.04,1.88.52.8.78,1.8.78,3,0,1.78-.44,3.25-1.32,4.4s-2.1,1.93-3.66,2.35l1.65.97,5.45,8.25h-5.35l-5.41-8.43-2.43-.37v8.81h-4.61v-21.56ZM216.77,103.2c-.48,0-.94,0-1.39.02-.45.01-.8.05-1.07.11v6.01h1.96c1.31,0,2.34-.25,3.1-.75.76-.5,1.14-1.36,1.14-2.58,0-.91-.32-1.61-.96-2.09-.64-.48-1.57-.72-2.77-.72Z"/>
    <path class="cls-1" d="M230.69,110.36c0-1.76.23-3.34.68-4.74.45-1.39,1.1-2.57,1.95-3.52.85-.95,1.89-1.68,3.12-2.19,1.23-.5,2.63-.75,4.18-.75,1.66,0,3.11.27,4.35.82,1.24.54,2.28,1.31,3.11,2.29.83.98,1.46,2.17,1.88,3.54.42,1.37.63,2.89.63,4.55,0,1.76-.23,3.34-.69,4.74-.46,1.4-1.12,2.57-1.99,3.52-.86.95-1.91,1.68-3.14,2.19-1.23.5-2.62.75-4.15.75-1.66,0-3.11-.27-4.35-.82-1.24-.54-2.28-1.31-3.11-2.29s-1.45-2.16-1.86-3.54c-.41-1.37-.62-2.89-.62-4.55ZM235.63,110.36c0,1.05.1,2,.3,2.87.2.87.5,1.61.91,2.23.4.62.92,1.11,1.55,1.45.63.34,1.38.51,2.25.51,1.59,0,2.83-.54,3.71-1.63.89-1.09,1.33-2.9,1.33-5.43,0-1.01-.09-1.94-.27-2.81-.18-.86-.48-1.61-.89-2.25s-.93-1.13-1.57-1.48c-.63-.35-1.4-.53-2.31-.53-1.57,0-2.8.56-3.68,1.69-.89,1.13-1.33,2.92-1.33,5.37Z"/>
    <path class="cls-1" d="M256.47,99.69c.5-.08,1.04-.16,1.63-.23.59-.07,1.19-.13,1.79-.17.6-.04,1.19-.07,1.76-.09.57-.02,1.09-.03,1.57-.03,1.1,0,2.18.09,3.25.28,1.07.19,2.02.51,2.86.97.84.46,1.52,1.08,2.04,1.88.52.8.78,1.8.78,3,0,1.78-.44,3.25-1.32,4.4s-2.1,1.93-3.66,2.35l1.65.97,5.45,8.25h-5.35l-5.41-8.43-2.43-.37v8.81h-4.61v-21.56ZM263.54,103.2c-.48,0-.94,0-1.39.02-.45.01-.8.05-1.07.11v6.01h1.96c1.31,0,2.34-.25,3.1-.75.76-.5,1.14-1.36,1.14-2.58,0-.91-.32-1.61-.96-2.09s-1.57-.72-2.77-.72Z"/>
  </g>
  <g>
    <path class="cls-2" d="M109.21,20.28H19.62v100.93h100.94V20.28h-11.34ZM109.21,109.87h-33.54l-11.18-11.18v11.18h0s-33.54,0-33.54,0V31.62h78.26v78.26Z"/>
    <polygon class="cls-2" points="53.32 87.52 53.32 76.34 64.5 76.34 64.5 76.34 64.5 87.52 64.5 98.7 75.68 87.52 75.68 76.34 86.86 76.34 86.86 87.52 86.86 98.7 98.03 98.7 98.03 87.52 98.03 76.34 98.03 65.16 86.86 65.16 75.68 65.16 64.5 65.16 53.32 65.16 42.14 65.16 42.14 87.52 42.14 98.7 53.32 98.7 53.32 87.52"/>
  </g>
</svg>