<?xml version="1.0" encoding="UTF-8"?>
<svg id="Layer_1" data-name="Layer 1" xmlns="http://www.w3.org/2000/svg" viewBox="0 0 293.89 141.84">
  <defs>
    <style>
      .cls-1 {
        fill: #005a65;
      }

      .cls-2 {
        fill: #cc8d69;
      }
    </style>
  </defs>
  <g>
    <path class="cls-2" d="M225.88,117.78c-2.96-.46-5.88-1.21-8.7-2.25-.19-.06-.35-.13-.44-.23-.11-.14-.14-.37-.14-.61-.14-2.95.04-5.92.53-8.83.2-1.18.58-3.37-.88-4.43-.46-.34-.98-.47-1.51-.47-.94,0-1.95.41-2.83.76-3.9,1.56-9.94,2.12-13.98-.35-2.31-1.42-3.61-3.61-3.86-6.51-.58-6.57,3.01-13.28,6.42-19.05.61-1.03,1.24-2.06,1.87-3.09.95-1.56,1.94-3.17,2.85-4.79.86-1.53,1.56-2.9,2.14-4.19,1.29-2.86,2.67-6.27,3.05-9.84.14-1.36-.17-2.54-.89-3.28-1.65-1.73-4.25-1.86-7.52-.41-2.57,1.14-5.2,2.69-8.3,4.88-1.27.9-2.51,1.83-3.87,2.86-.19.15-.54.36-.93.6-.56.34-1.08.66-1.5.97,1.14-3.55,2.5-7.05,4.07-10.43.79-1.69,1.67-3.43,3.12-4.62,1.3-1.07,2.97-1.6,4.54-2.06,2.59-.74,6.01-1.57,9.46-1.44,1.58.05,5.42.49,7.1,3.28.7,1.16.99,2.66.88,4.57-.3,5.38-3.15,10.09-5.91,14.64-.33.55-.66,1.09-.99,1.64-.79,1.34-1.61,2.67-2.42,3.99-2.2,3.59-4.47,7.3-6.35,11.1-1.56,3.15-6.32,12.75-1.14,17.45,1.62,1.47,4.14,2.04,6.76,1.53,2.38-.47,4.59-1.73,6.37-2.74l.13-.07c1.9-1.09,3.87-2.21,6-2.71,1.18-.27,2.06-.19,2.63.26.98.76.86,2.29.58,3.84-.49,2.76-1.08,6.9-.45,10.99.55,3.58,1.99,6.75,4.11,9.04Z"/>
    <g>
      <path class="cls-2" d="M259.83,110.18c-.49.39-.99.76-1.48,1.06-1.72,1.07-3.52,2.04-5.37,2.9-3.73,1.71-7.57,2.94-11.42,3.62-5.67,1-11.43,1.49-14.15-4.24-2.73-5.73-1.49-12.03-.28-18.12.23-1.18.46-2.35.66-3.5.36-2.1-.16-4.64-2.17-5.57-.55-.26-1.12-.37-1.7-.37-2.77,0-5.77,2.59-8.08,4.57-.54.46-1.06.91-1.49,1.24l-.08.06c-2.95,2.29-6.64,5.14-10.55,4.49-2.29-.38-3.47-3.28-3.28-5.87.25-3.54,2-6.75,3.77-9.72,1.51-2.54,3.13-5.1,4.83-7.61,1.72-2.53,3.59-5.08,5.41-7.55,5.63-7.67,11.45-15.61,14.23-24.79.56-1.84.96-4.52-.29-6.8-1.14-2.1-2.95-3.52-5.39-4.22-5.28-1.52-12.78.64-17.51,3.29-1.2.67-2.36,1.38-3.47,2.13,7.18-6.45,15.68-10.45,24.35-11.39,2.41-.26,4.71.5,6.29,2.09,1.79,1.79,2.47,4.22,2.04,7.23-1.62,11.17-8.86,20.11-15.86,28.75l-.11.14c-2.91,3.59-5.04,6.45-6.92,9.25l-.14.2c-2.4,3.59-5.39,8.07-5.78,12.61-.14,1.73.39,3.22,1.51,4.2,1.26,1.1,3.12,1.48,5.12,1.04,3.24-.72,5.99-2.62,8.64-4.46l1.25-.86c2.68-1.85,5.71-3.95,8.9-3.47.68.1,1.19.39,1.54.9.72,1.02.82,2.88.3,5.54l-.07.36c-1.17,5.95-2.38,12.11-.5,18.21.64,2.08,1.52,3.64,2.68,4.77,1.6,1.55,3.93,2.48,7.12,2.83,5.36.59,11.21-.4,17.43-2.94Z"/>
      <path class="cls-2" d="M227.42,113.52c-2.73-5.73-1.49-12.03-.28-18.12.23-1.18.46-2.35.66-3.5.24-1.43.11-3.05-.7-4.28-.98-1.49-2.77-1.89-4.44-1.49-.95.23-1.83.68-2.66,1.2-2.43,1.52-4.47,3.58-6.75,5.31-2.16,1.64-4.57,3.34-7.33,3.72-.73.1-1.46.09-2.18-.03-2.29-.38-3.47-3.28-3.28-5.87.25-3.54,2-6.75,3.77-9.72,1.51-2.54,3.13-5.1,4.83-7.61,1.72-2.53,3.59-5.08,5.41-7.55,5.63-7.67,11.45-15.61,14.23-24.79.56-1.84.96-4.52-.29-6.8-1.14-2.1-2.95-3.52-5.39-4.22-5.28-1.52-12.78.64-17.51,3.29-1.2.67-2.36,1.38-3.47,2.13,7.18-6.45,15.68-10.45,24.35-11.39,2.41-.26,4.71.5,6.29,2.09,1.79,1.79,2.47,4.22,2.04,7.23-1.62,11.17-8.86,20.11-15.86,28.75l-.11.14c-2.91,3.59-5.04,6.45-6.92,9.25l-.14.2c-2.4,3.59-5.39,8.07-5.78,12.61-.14,1.73.39,3.22,1.51,4.2,3.16,2.78,8.01.29,10.97-1.56,2.1-1.31,4.09-2.8,6.17-4.15,1.97-1.28,4.36-2.41,6.77-2.05.68.1,1.19.39,1.54.9.72,1.02.82,2.88.3,5.54l-.07.36c-1.17,5.95-2.38,12.11-.5,18.21.64,2.08,1.52,3.64,2.68,4.77,1.6,1.55,3.93,2.48,7.12,2.83,5.36.59,11.21-.4,17.43-2.94-.49.39-.99.76-1.48,1.06-1.72,1.07-3.52,2.04-5.37,2.9-3.73,1.71-7.57,2.94-11.42,3.62-5.67,1-11.43,1.49-14.15-4.24Z"/>
    </g>
    <path class="cls-2" d="M204.38,63.18h0c-.46,1.6-1.48,3.02-2.46,4.39-.26.36-.53.73-.76,1.09l-2.41,3.32c-.26.37-.54.76-.82,1.18-3.01,4.27-7.42,10.56-8.31,16.09l-.02-.05-1.42-4.39c-.84-3.35,3.28-8.42,6.91-12.88,3.66-4.5,6.82-8.39,4.89-10.32-.89-.89-1.98-1.24-3.22-1-4.03.76-8.78,7.46-10.8,11.21,0-.31,0-.62,0-.93,0-1.61.08-3.24.24-4.9,2.58-4.83,8.23-8.75,13.17-9.13,1.91-.11,3.54.53,4.48,1.74.92,1.19,1.12,2.82.56,4.6Z"/>
    <path class="cls-2" d="M280.1,81.63c-.83,3.59-2.05,7.02-3.63,10.26h0c-4.18,4.96-10.43,8.06-17.47,8.62-6.52.52-11.81-.84-13.92-7.18-2.33-6.98-.18-13.25,1.01-20.12.34-1.96-.16-4.34-1.96-5.18-3.59-1.67-8.38,3.45-10.9,5.4-3.03,2.35-6.8,5.31-10.9,4.62-2.6-.44-3.77-3.61-3.58-6.25.25-3.56,2-6.82,3.82-9.89,1.54-2.59,3.15-5.13,4.84-7.62,6.16-9.08,24.73-23.61,12.67-30.83,4.1.57,8.03,1.65,11.73,3.19-.71,8.36-37.44,38.13-24.08,43.6,2.84,1.16,6.85-1.33,9.31-2.66,3.07-1.66,16.62-11.81,15.62-1.84-.32,3.22-1.63,6.27-1.91,9.54-.37,4.19-.15,8.98,1.39,12.94,4.24,10.85,20.82,4.02,27.97-6.6Z"/>
    <path class="cls-2" d="M280.91,64.61s0,0,0,0c-2.02,5.84-5.31,11.56-10.13,15.43-1.45,1.16-3.23,2.26-5.1,2.56-.77.13-1.6.06-2.26-.35-1.02-.62-1.45-1.88-1.65-3.06-1.01-5.71.61-12.04,1.8-17.61.4-1.89.83-3.78,1.22-5.67.39-1.88.99-4.27-.3-5.94-.81-1.04-2.27-1.41-3.56-1.18-1.29.23-2.45.96-3.47,1.78-2.95,2.37-5.67,5.1-8.81,7.21-.71.48-1.47.93-2.3,1.14-2.18.57-4.12-.99-4.89-2.95-.59-1.49-.71-3.35-.39-4.91.72-3.51,3.16-6.47,5.5-9.06,2.44-2.68,5.1-5.17,7.29-8.07.87-1.15,1.69-2.43,1.84-3.87.06-.57-.02-1.17-.22-1.72,2.84,1.47,5.51,3.22,7.98,5.21-4.24,4.76-9.74,8.23-14.73,12.23-.89.71-1.81,1.51-2.13,2.61-.84,2.86,2.86,3.28,4.76,2.79,1.95-.49,3.7-1.56,5.45-2.51,2.16-1.17,4.11-2.7,6.27-3.89,1.79-.98,5.01-2.84,7.05-1.52,1,.65,1.27,1.97,1.2,3.08-.15,2.82-1.82,5.4-2.77,8-1.11,3.01-2.05,6.1-2.4,9.3-.29,2.58-.18,5.21.55,7.71,1.1,3.74,11.64,5.62,11.73-16.96,1.19,3.25,2.27,6.65,2.5,10.21Z"/>
  </g>
  <g>
    <path class="cls-1" d="M37.32,90.97c.84-.44,1.56-.97,2.15-1.57.59-.61,1.06-1.29,1.39-2.05.33-.76.49-1.57.49-2.43,0-1.05-.21-2.02-.64-2.91-.43-.89-1.06-1.65-1.9-2.3-.84-.64-1.89-1.14-3.15-1.5-1.26-.36-2.72-.54-4.39-.54h-9.66v27.84h4.68v-13.08h3.28l9.68,13.08h5.44l-10.14-13.5c1.01-.25,1.93-.6,2.77-1.04ZM31.91,90.6c-.89.28-1.86.42-2.91.42h-2.71v-11.61h4.11c.85,0,1.64.14,2.36.42.72.28,1.34.67,1.87,1.17.53.5.93,1.1,1.22,1.79.29.7.43,1.47.43,2.31,0,.91-.18,1.73-.55,2.46-.36.73-.87,1.35-1.52,1.86-.65.51-1.42.91-2.31,1.19Z"/>
    <path class="cls-1" d="M64.69,104.32c-.39-.51-.58-1.1-.58-1.75v-13.27c0-.85-.12-1.63-.37-2.34-.25-.71-.65-1.3-1.23-1.79-.57-.49-1.34-.87-2.29-1.14-.95-.27-2.13-.41-3.53-.41-1.09,0-2.15.13-3.16.4-1.01.27-1.92.65-2.72,1.14-.8.5-1.46,1.11-1.98,1.84-.52.73-.84,1.55-.96,2.48h3.9c.08-.6.25-1.17.49-1.71.24-.54.56-1.01.94-1.41.39-.4.83-.72,1.33-.96.5-.24,1.06-.36,1.66-.36s1.17.09,1.63.26c.45.17.83.47,1.12.88.29.41.51.96.65,1.63.14.67.21,1.5.21,2.48v1.34c-.95.24-1.93.5-2.94.78-1.01.28-1.99.6-2.94.96-.95.36-1.85.76-2.69,1.22-.84.46-1.58.97-2.21,1.55-.64.58-1.14,1.24-1.5,1.98-.36.74-.55,1.57-.55,2.5,0,.76.13,1.46.39,2.12.26.66.62,1.22,1.09,1.7.47.48,1.04.85,1.72,1.12.68.27,1.44.41,2.28.41.91,0,1.71-.1,2.4-.31.69-.21,1.32-.48,1.89-.81.57-.33,1.09-.7,1.57-1.1.48-.41.98-.8,1.48-1.18,0,.66.19,1.24.58,1.75.38.51.86.91,1.42,1.19h4.28c-.56-.28-1.03-.68-1.42-1.19ZM59.83,101.02c-.42.32-.83.62-1.24.9-.41.28-.81.53-1.22.75-.41.22-.83.39-1.26.51-.43.13-.89.19-1.36.19-.45,0-.88-.1-1.3-.3-.42-.2-.79-.48-1.11-.84-.32-.36-.58-.77-.78-1.24-.2-.47-.29-.97-.29-1.5,0-.5.13-.99.38-1.45.25-.46.59-.9,1.03-1.32.43-.42.94-.81,1.51-1.18.57-.36,1.18-.7,1.81-1.02.63-.31,1.27-.6,1.93-.85.66-.25,1.29-.48,1.91-.67v8.02Z"/>
    <path class="cls-1" d="M87.45,85.5c-.49-.59-1.06-1.05-1.71-1.39-.65-.34-1.35-.5-2.11-.5-1.44,0-2.86.36-4.26,1.08-1.4.72-2.75,1.81-4.05,3.26v-4.35h-1.22l-3.07,1.2v20.7h4.28v-15.91c.48-.46.97-.88,1.49-1.26.52-.38,1.04-.7,1.56-.98.52-.27,1.04-.49,1.54-.64.5-.15.98-.23,1.43-.23.5,0,.96.09,1.38.28.41.19.77.47,1.08.83.31.36.55.82.71,1.35.17.54.25,1.17.25,1.88v14.67h4.26v-15.41c0-.9-.14-1.74-.42-2.53-.28-.79-.67-1.48-1.15-2.07Z"/>
    <path class="cls-1" d="M113.55,99.4c-.49.63-1.08,1.19-1.77,1.68-.69.49-1.47.89-2.32,1.19-.85.3-1.74.45-2.67.45-1.11,0-2.12-.25-3.04-.76-.92-.5-1.72-1.2-2.39-2.1-.67-.9-1.19-1.96-1.56-3.19-.37-1.23-.56-2.57-.56-4.01h16.02c0-1.19-.23-2.33-.7-3.42-.47-1.09-1.13-2.05-1.97-2.89-.85-.83-1.86-1.5-3.03-1.99-1.18-.5-2.46-.75-3.86-.75-1.6,0-3.04.3-4.34.9-1.29.6-2.4,1.43-3.33,2.5-.92,1.06-1.64,2.33-2.14,3.79-.5,1.46-.76,3.05-.76,4.78,0,1.43.28,2.78.83,4.04.55,1.27,1.31,2.37,2.26,3.31.95.94,2.07,1.68,3.35,2.23,1.28.55,2.65.82,4.1.82,1.11,0,2.2-.21,3.28-.63,1.08-.42,2.07-.99,2.99-1.71.92-.72,1.72-1.56,2.4-2.53.69-.97,1.18-2,1.49-3.11l-1.24-.55c-.2.67-.54,1.32-1.03,1.95ZM99.79,88.65c.3-.7.68-1.3,1.14-1.82.46-.51.99-.91,1.57-1.2.59-.29,1.2-.43,1.85-.43.77,0,1.49.15,2.16.44.67.29,1.26.7,1.76,1.21.5.51.9,1.12,1.19,1.82.29.7.43,1.46.43,2.27l-10.64-.02c.06-.81.23-1.57.54-2.27Z"/>
    <path class="cls-1" d="M138.87,99.4c-.49.63-1.08,1.19-1.77,1.68-.69.49-1.47.89-2.32,1.19-.85.3-1.74.45-2.67.45-1.11,0-2.12-.25-3.04-.76-.92-.5-1.72-1.2-2.39-2.1-.67-.9-1.19-1.96-1.56-3.19-.37-1.23-.56-2.57-.56-4.01h16.02c0-1.19-.23-2.33-.7-3.42-.47-1.09-1.13-2.05-1.97-2.89-.85-.83-1.86-1.5-3.03-1.99s-2.46-.75-3.86-.75c-1.6,0-3.04.3-4.34.9-1.29.6-2.4,1.43-3.33,2.5-.92,1.06-1.64,2.33-2.14,3.79-.5,1.46-.76,3.05-.76,4.78,0,1.43.28,2.78.83,4.04.55,1.27,1.31,2.37,2.26,3.31s2.07,1.68,3.35,2.23c1.28.55,2.65.82,4.1.82,1.11,0,2.2-.21,3.28-.63,1.08-.42,2.08-.99,2.99-1.71.92-.72,1.72-1.56,2.4-2.53.69-.97,1.18-2,1.49-3.11l-1.24-.55c-.2.67-.54,1.32-1.03,1.95ZM125.11,88.65c.3-.7.68-1.3,1.14-1.82.46-.51.99-.91,1.57-1.2.59-.29,1.2-.43,1.85-.43.77,0,1.49.15,2.16.44.67.29,1.26.7,1.76,1.21.5.51.9,1.12,1.19,1.82.29.7.43,1.46.43,2.27l-10.64-.02c.06-.81.23-1.57.54-2.27Z"/>
    <path class="cls-1" d="M163.64,85.5c-.49-.59-1.06-1.05-1.71-1.39-.65-.34-1.35-.5-2.11-.5-1.44,0-2.86.36-4.26,1.08-1.4.72-2.75,1.81-4.05,3.26v-4.35h-1.22l-3.06,1.2v20.7h4.28v-15.91c.48-.46.97-.88,1.49-1.26.52-.38,1.04-.7,1.56-.98.52-.27,1.04-.49,1.54-.64.5-.15.98-.23,1.43-.23.5,0,.96.09,1.38.28.41.19.77.47,1.08.83.31.36.55.82.71,1.35.17.54.25,1.17.25,1.88v14.67h4.26v-15.41c0-.9-.14-1.74-.42-2.53-.28-.79-.67-1.48-1.15-2.07Z"/>
    <path class="cls-1" d="M161.22,41.16v19.99c0,3.46-2.8,6.26-6.26,6.26-.14,0,.02,1.72-.14,1.72,5.77,0,10.44-4.68,10.44-10.44v-17.52h-4.05Z"/>
    <path class="cls-1" d="M23.78,67.56c1.38,1.2,3.04,1.56,4.81,1.56h24.81v-17.69c.49.14,1,.22,1.52.23.35,0,.69,0,1.04,0h17.96v2.92c0,1.22-.01,2.45,0,3.67.03,2.48,1.42,4.78,3.69,5.83,1.5.7,3.08.59,4.67.59,0,0,68.57.06,68.57,0v-23.53h-4.05v21.8h-51.54c-3.63,0-7.26.04-10.89,0-2.35-.03-4.53-1.29-5.64-3.37-.74-1.38-.75-2.83-.75-4.34v-14.1h-4.05v8.79h-13.4c-1.8,0-3.51-.01-5.02-1.22-1.38-1.1-2.09-2.74-2.1-4.49,0-.24,0-2.84,0-3.08h-4.08l.02,2.36c-.02.82-.04,1.66,0,2.48v21.41h-15.97c-1.33,0-2.62.03-3.89-.52-2.38-1.03-3.83-3.38-3.86-5.94-.03-3.21,0-6.42,0-9.63v-10.16h-4.05v21.11c0,2.03.62,3.92,2.19,5.29Z"/>
    <circle class="cls-1" cx="141.13" cy="38.99" r="2.93"/>
    <circle class="cls-1" cx="37.5" cy="38.99" r="2.93"/>
    <circle class="cls-1" cx="68.1" cy="60.89" r="2.93"/>
    <circle class="cls-1" cx="59.83" cy="60.89" r="2.93"/>
  </g>
</svg>