<svg xmlns="http://www.w3.org/2000/svg" viewBox="0 0 800 600" preserveAspectRatio="xMidYMid slice">
<defs>
<linearGradient id="g" x1="0" y1="0" x2="1" y2="1">
<stop offset="0" stop-color="#075c3a"/><stop offset="1" stop-color="#0d7a4f"/>
</linearGradient>
<pattern id="dots" width="36" height="36" patternUnits="userSpaceOnUse">
<circle cx="2" cy="2" r="1.4" fill="#faf7f0" opacity=".18"/>
</pattern>
</defs>
<rect width="800" height="600" fill="url(#g)"/>
<rect width="800" height="600" fill="url(#dots)"/>
<circle cx="660" cy="120" r="200" fill="#faf7f0" opacity=".08"/>
<circle cx="120" cy="500" r="240" fill="#ffffff" opacity=".05"/>
<g transform="translate(400 270) scale(7)" fill="none" stroke="#faf7f0" stroke-width="1.4" stroke-linecap="round" stroke-linejoin="round" opacity=".95">
<g transform="translate(-12 -12)"><path d="M16 21v-2a4 4 0 0 0-4-4H6a4 4 0 0 0-4 4v2 M9 11a4 4 0 1 0 0-8 4 4 0 0 0 0 8 M23 21v-2a4 4 0 0 0-3-3.87 M17 3.13a4 4 0 0 1 0 7.75"/></g>
</g>
<text x="400" y="520" font-family="Tajawal, Arial" font-size="34" font-weight="700" fill="#ffffff" text-anchor="middle" opacity=".95">استشارة للمتطوعين</text>
<text x="400" y="555" font-family="Tajawal, Arial" font-size="18" fill="#faf7f0" text-anchor="middle" opacity=".9">متجر جمعية سَنَد</text>
</svg>