<?xml version="1.0" encoding="UTF-8"?>
<svg id="Layer_1" data-name="Layer 1" xmlns="http://www.w3.org/2000/svg" xmlns:xlink="http://www.w3.org/1999/xlink" viewBox="0 0 208.61 208.61">
  <defs>
    <style>
      .cls-1 {
        fill: url(#linear-gradient-20);
      }

      .cls-1, .cls-2, .cls-3, .cls-4, .cls-5, .cls-6, .cls-7, .cls-8 {
        opacity: .5;
      }

      .cls-9 {
        mask: url(#mask-15);
      }

      .cls-2 {
        fill: url(#linear-gradient-14);
      }

      .cls-10 {
        mask: url(#mask-5);
      }

      .cls-11 {
        mask: url(#mask-13);
      }

      .cls-12 {
        fill: url(#linear-gradient-2);
      }

      .cls-13 {
        fill: url(#linear-gradient-9);
      }

      .cls-13, .cls-14, .cls-15, .cls-16, .cls-17, .cls-18, .cls-19, .cls-20 {
        mix-blend-mode: multiply;
      }

      .cls-14 {
        fill: url(#linear-gradient-13);
      }

      .cls-21 {
        mask: url(#mask-1);
      }

      .cls-3 {
        fill: url(#linear-gradient-24);
      }

      .cls-22 {
        mask: url(#mask-10);
      }

      .cls-23 {
        mask: url(#mask-6);
      }

      .cls-24 {
        fill: #d9a86a;
      }

      .cls-25 {
        mask: url(#mask-7);
      }

      .cls-26 {
        filter: url(#luminosity-noclip-15);
      }

      .cls-27 {
        filter: url(#luminosity-noclip-5);
      }

      .cls-28 {
        mask: url(#mask);
      }

      .cls-29 {
        fill: url(#linear-gradient-4);
      }

      .cls-30 {
        mask: url(#mask-8);
      }

      .cls-31 {
        filter: url(#luminosity-noclip-11);
      }

      .cls-4 {
        fill: url(#linear-gradient-12);
      }

      .cls-32 {
        mask: url(#mask-2);
      }

      .cls-33 {
        filter: url(#luminosity-noclip-3);
      }

      .cls-34 {
        mask: url(#mask-9);
      }

      .cls-35 {
        fill: url(#linear-gradient-3);
      }

      .cls-36 {
        fill: url(#linear-gradient-5);
      }

      .cls-15 {
        fill: url(#linear-gradient-21);
      }

      .cls-37 {
        fill: url(#linear-gradient-8);
      }

      .cls-38 {
        filter: url(#luminosity-noclip-13);
      }

      .cls-5 {
        fill: url(#linear-gradient-22);
      }

      .cls-6 {
        fill: url(#linear-gradient-10);
      }

      .cls-16 {
        fill: url(#linear-gradient-23);
      }

      .cls-39 {
        filter: url(#luminosity-noclip-9);
      }

      .cls-40 {
        fill: url(#linear-gradient-7);
      }

      .cls-17 {
        fill: url(#linear-gradient-11);
      }

      .cls-41 {
        fill: url(#linear-gradient-6);
      }

      .cls-18 {
        fill: url(#linear-gradient-17);
      }

      .cls-42 {
        mask: url(#mask-11);
      }

      .cls-43 {
        mask: url(#mask-12);
      }

      .cls-44 {
        mask: url(#mask-4);
      }

      .cls-19 {
        fill: url(#linear-gradient-15);
      }

      .cls-20 {
        fill: url(#linear-gradient-19);
      }

      .cls-45 {
        mask: url(#mask-14);
      }

      .cls-46 {
        fill: url(#linear-gradient);
      }

      .cls-47 {
        filter: url(#luminosity-noclip-7);
      }

      .cls-7 {
        fill: url(#linear-gradient-18);
      }

      .cls-8 {
        fill: url(#linear-gradient-16);
      }

      .cls-48 {
        mask: url(#mask-3);
      }

      .cls-49 {
        filter: url(#luminosity-noclip);
      }
    </style>
    <linearGradient id="linear-gradient" x1="104.31" y1="47.12" x2="104.31" y2="21.64" gradientUnits="userSpaceOnUse">
      <stop offset="0" stop-color="#006837"/>
      <stop offset=".5" stop-color="#009245"/>
      <stop offset="1" stop-color="#39b54a"/>
    </linearGradient>
    <linearGradient id="linear-gradient-2" y1="161.49" y2="186.97" xlink:href="#linear-gradient"/>
    <linearGradient id="linear-gradient-3" x1="21.64" y1="104.31" x2="47.12" y2="104.31" xlink:href="#linear-gradient"/>
    <linearGradient id="linear-gradient-4" x1="161.5" y1="104.31" x2="186.97" y2="104.31" xlink:href="#linear-gradient"/>
    <linearGradient id="linear-gradient-5" x1="120.37" y1="120.94" x2="162.6" y2="162.45" xlink:href="#linear-gradient"/>
    <linearGradient id="linear-gradient-6" x1="88.28" y1="120.76" x2="46.05" y2="162.45" xlink:href="#linear-gradient"/>
    <linearGradient id="linear-gradient-7" x1="120.75" y1="88.16" x2="162.53" y2="46" xlink:href="#linear-gradient"/>
    <linearGradient id="linear-gradient-8" x1="87.8" y1="88.23" x2="45.91" y2="45.8" xlink:href="#linear-gradient"/>
    <filter id="luminosity-noclip" x="94.92" y="24.99" width="18.77" height="11.69" color-interpolation-filters="sRGB" filterUnits="userSpaceOnUse">
      <feFlood flood-color="#fff" result="bg"/>
      <feBlend in="SourceGraphic" in2="bg"/>
    </filter>
    <filter id="luminosity-noclip-2" x="94.92" y="-7527.55" width="18.77" height="32766" color-interpolation-filters="sRGB" filterUnits="userSpaceOnUse">
      <feFlood flood-color="#fff" result="bg"/>
      <feBlend in="SourceGraphic" in2="bg"/>
    </filter>
    <mask id="mask-1" x="94.92" y="-7527.55" width="18.77" height="32766" maskUnits="userSpaceOnUse"/>
    <linearGradient id="linear-gradient-9" x1="104.31" y1="21.62" x2="104.31" y2="40.83" gradientUnits="userSpaceOnUse">
      <stop offset="0" stop-color="#b3b3b3"/>
      <stop offset="1" stop-color="#000"/>
    </linearGradient>
    <mask id="mask" x="94.92" y="24.99" width="18.77" height="11.69" maskUnits="userSpaceOnUse">
      <g class="cls-49">
        <g class="cls-21">
          <path class="cls-13" d="M104.31,34.38c-5.18,0-9.39,5.18-9.39,0s4.21-9.39,9.39-9.39,9.39,4.21,9.39,9.39-4.21,0-9.39,0Z"/>
        </g>
      </g>
    </mask>
    <linearGradient id="linear-gradient-10" x1="104.31" y1="21.62" x2="104.31" y2="40.83" gradientUnits="userSpaceOnUse">
      <stop offset="0" stop-color="#fff"/>
      <stop offset="1" stop-color="#fff"/>
    </linearGradient>
    <filter id="luminosity-noclip-3" x="24.99" y="94.92" width="11.69" height="18.77" color-interpolation-filters="sRGB" filterUnits="userSpaceOnUse">
      <feFlood flood-color="#fff" result="bg"/>
      <feBlend in="SourceGraphic" in2="bg"/>
    </filter>
    <filter id="luminosity-noclip-4" x="24.99" y="-7527.55" width="11.69" height="32766" color-interpolation-filters="sRGB" filterUnits="userSpaceOnUse">
      <feFlood flood-color="#fff" result="bg"/>
      <feBlend in="SourceGraphic" in2="bg"/>
    </filter>
    <mask id="mask-3" x="24.99" y="-7527.55" width="11.69" height="32766" maskUnits="userSpaceOnUse"/>
    <linearGradient id="linear-gradient-11" x1="80.08" y1="234.45" x2="80.08" y2="253.65" gradientTransform="translate(-212.82 184.39) rotate(-90)" xlink:href="#linear-gradient-9"/>
    <mask id="mask-2" x="24.99" y="94.92" width="11.69" height="18.77" maskUnits="userSpaceOnUse">
      <g class="cls-33">
        <g class="cls-48">
          <path class="cls-17" d="M34.38,104.31c0,5.18,5.18,9.39,0,9.39s-9.39-4.21-9.39-9.39,4.21-9.39,9.39-9.39,0,4.21,0,9.39Z"/>
        </g>
      </g>
    </mask>
    <linearGradient id="linear-gradient-12" x1="80.08" y1="234.45" x2="80.08" y2="253.65" gradientTransform="translate(-212.82 184.39) rotate(-90)" xlink:href="#linear-gradient-10"/>
    <filter id="luminosity-noclip-5" x="94.92" y="171.93" width="18.77" height="11.69" color-interpolation-filters="sRGB" filterUnits="userSpaceOnUse">
      <feFlood flood-color="#fff" result="bg"/>
      <feBlend in="SourceGraphic" in2="bg"/>
    </filter>
    <filter id="luminosity-noclip-6" x="94.92" y="-7527.55" width="18.77" height="32766" color-interpolation-filters="sRGB" filterUnits="userSpaceOnUse">
      <feFlood flood-color="#fff" result="bg"/>
      <feBlend in="SourceGraphic" in2="bg"/>
    </filter>
    <mask id="mask-5" x="94.92" y="-7527.55" width="18.77" height="32766" maskUnits="userSpaceOnUse"/>
    <linearGradient id="linear-gradient-13" x1="-132.74" y1="210.22" x2="-132.74" y2="229.43" gradientTransform="translate(-28.43 397.21) rotate(-180)" xlink:href="#linear-gradient-9"/>
    <mask id="mask-4" x="94.92" y="171.93" width="18.77" height="11.69" maskUnits="userSpaceOnUse">
      <g class="cls-27">
        <g class="cls-10">
          <path class="cls-14" d="M104.31,174.23c5.18,0,9.39-5.18,9.39,0s-4.21,9.39-9.39,9.39-9.39-4.21-9.39-9.39,4.21,0,9.39,0Z"/>
        </g>
      </g>
    </mask>
    <linearGradient id="linear-gradient-14" x1="-132.74" y1="210.22" x2="-132.74" y2="229.43" gradientTransform="translate(-28.43 397.21) rotate(-180)" xlink:href="#linear-gradient-10"/>
    <filter id="luminosity-noclip-7" x="171.93" y="94.92" width="11.69" height="18.77" color-interpolation-filters="sRGB" filterUnits="userSpaceOnUse">
      <feFlood flood-color="#fff" result="bg"/>
      <feBlend in="SourceGraphic" in2="bg"/>
    </filter>
    <filter id="luminosity-noclip-8" x="171.93" y="-7527.55" width="11.69" height="32766" color-interpolation-filters="sRGB" filterUnits="userSpaceOnUse">
      <feFlood flood-color="#fff" result="bg"/>
      <feBlend in="SourceGraphic" in2="bg"/>
    </filter>
    <mask id="mask-7" x="171.93" y="-7527.55" width="11.69" height="32766" maskUnits="userSpaceOnUse"/>
    <linearGradient id="linear-gradient-15" x1="-108.52" y1="-2.6" x2="-108.52" y2="16.6" gradientTransform="translate(184.39 212.82) rotate(90)" xlink:href="#linear-gradient-9"/>
    <mask id="mask-6" x="171.93" y="94.92" width="11.69" height="18.77" maskUnits="userSpaceOnUse">
      <g class="cls-47">
        <g class="cls-25">
          <path class="cls-19" d="M174.23,104.31c0-5.18-5.18-9.39,0-9.39s9.39,4.21,9.39,9.39-4.21,9.39-9.39,9.39,0-4.21,0-9.39Z"/>
        </g>
      </g>
    </mask>
    <linearGradient id="linear-gradient-16" x1="-108.52" y1="-2.6" x2="-108.52" y2="16.6" gradientTransform="translate(184.39 212.82) rotate(90)" xlink:href="#linear-gradient-10"/>
    <filter id="luminosity-noclip-9" x="48.57" y="45.97" width="33.2" height="35.8" color-interpolation-filters="sRGB" filterUnits="userSpaceOnUse">
      <feFlood flood-color="#fff" result="bg"/>
      <feBlend in="SourceGraphic" in2="bg"/>
    </filter>
    <filter id="luminosity-noclip-10" x="48.57" y="-7527.55" width="33.2" height="32766" color-interpolation-filters="sRGB" filterUnits="userSpaceOnUse">
      <feFlood flood-color="#fff" result="bg"/>
      <feBlend in="SourceGraphic" in2="bg"/>
    </filter>
    <mask id="mask-9" x="48.57" y="-7527.55" width="33.2" height="32766" maskUnits="userSpaceOnUse"/>
    <linearGradient id="linear-gradient-17" x1="74.43" y1="52.97" x2="62.57" y2="68.59" xlink:href="#linear-gradient-9"/>
    <mask id="mask-8" x="48.57" y="45.97" width="33.2" height="35.8" maskUnits="userSpaceOnUse">
      <g class="cls-39">
        <g class="cls-34">
          <path class="cls-18" d="M81.77,81.77c-5.42-13.63-14.12-26.71-20.61-33.2-1.68-1.68-3.91-2.6-6.29-2.6s-4.62.92-6.29,2.6t0,0l33.2,33.2Z"/>
        </g>
      </g>
    </mask>
    <linearGradient id="linear-gradient-18" x1="74.43" y1="52.97" x2="62.57" y2="68.59" xlink:href="#linear-gradient-10"/>
    <filter id="luminosity-noclip-11" x="45.97" y="126.85" width="35.8" height="33.2" color-interpolation-filters="sRGB" filterUnits="userSpaceOnUse">
      <feFlood flood-color="#fff" result="bg"/>
      <feBlend in="SourceGraphic" in2="bg"/>
    </filter>
    <filter id="luminosity-noclip-12" x="45.97" y="-7527.55" width="35.8" height="32766" color-interpolation-filters="sRGB" filterUnits="userSpaceOnUse">
      <feFlood flood-color="#fff" result="bg"/>
      <feBlend in="SourceGraphic" in2="bg"/>
    </filter>
    <mask id="mask-11" x="45.97" y="-7527.55" width="35.8" height="32766" maskUnits="userSpaceOnUse"/>
    <linearGradient id="linear-gradient-19" x1="50.21" y1="265.8" x2="38.35" y2="281.41" gradientTransform="translate(-212.82 184.39) rotate(-90)" xlink:href="#linear-gradient-9"/>
    <mask id="mask-10" x="45.97" y="126.85" width="35.8" height="33.2" maskUnits="userSpaceOnUse">
      <g class="cls-31">
        <g class="cls-42">
          <path class="cls-20" d="M81.77,126.85c-13.63,5.42-26.71,14.12-33.2,20.61-1.68,1.68-2.6,3.91-2.6,6.29s.92,4.62,2.6,6.29t0,0l33.2-33.2Z"/>
        </g>
      </g>
    </mask>
    <linearGradient id="linear-gradient-20" x1="50.21" y1="265.8" x2="38.35" y2="281.41" gradientTransform="translate(-212.82 184.39) rotate(-90)" xlink:href="#linear-gradient-10"/>
    <filter id="luminosity-noclip-13" x="126.85" y="126.85" width="33.2" height="35.8" color-interpolation-filters="sRGB" filterUnits="userSpaceOnUse">
      <feFlood flood-color="#fff" result="bg"/>
      <feBlend in="SourceGraphic" in2="bg"/>
    </filter>
    <filter id="luminosity-noclip-14" x="126.85" y="-7527.55" width="33.2" height="32766" color-interpolation-filters="sRGB" filterUnits="userSpaceOnUse">
      <feFlood flood-color="#fff" result="bg"/>
      <feBlend in="SourceGraphic" in2="bg"/>
    </filter>
    <mask id="mask-13" x="126.85" y="-7527.55" width="33.2" height="32766" maskUnits="userSpaceOnUse"/>
    <linearGradient id="linear-gradient-21" x1="-162.62" y1="241.57" x2="-174.48" y2="257.19" gradientTransform="translate(-28.43 397.21) rotate(-180)" xlink:href="#linear-gradient-9"/>
    <mask id="mask-12" x="126.85" y="126.85" width="33.2" height="35.8" maskUnits="userSpaceOnUse">
      <g class="cls-38">
        <g class="cls-11">
          <path class="cls-15" d="M126.85,126.85c5.42,13.63,14.12,26.71,20.61,33.2,1.68,1.68,3.91,2.6,6.29,2.6s4.62-.92,6.29-2.6h0s-33.2-33.2-33.2-33.2Z"/>
        </g>
      </g>
    </mask>
    <linearGradient id="linear-gradient-22" x1="-162.62" y1="241.57" x2="-174.48" y2="257.19" gradientTransform="translate(-28.43 397.21) rotate(-180)" xlink:href="#linear-gradient-10"/>
    <filter id="luminosity-noclip-15" x="126.85" y="48.57" width="35.8" height="33.2" color-interpolation-filters="sRGB" filterUnits="userSpaceOnUse">
      <feFlood flood-color="#fff" result="bg"/>
      <feBlend in="SourceGraphic" in2="bg"/>
    </filter>
    <filter id="luminosity-noclip-16" x="126.85" y="-7527.55" width="35.8" height="32766" color-interpolation-filters="sRGB" filterUnits="userSpaceOnUse">
      <feFlood flood-color="#fff" result="bg"/>
      <feBlend in="SourceGraphic" in2="bg"/>
    </filter>
    <mask id="mask-15" x="126.85" y="-7527.55" width="35.8" height="32766" maskUnits="userSpaceOnUse"/>
    <linearGradient id="linear-gradient-23" x1="-138.39" y1="28.75" x2="-150.25" y2="44.36" gradientTransform="translate(184.39 212.82) rotate(90)" xlink:href="#linear-gradient-9"/>
    <mask id="mask-14" x="126.85" y="48.57" width="35.8" height="33.2" maskUnits="userSpaceOnUse">
      <g class="cls-26">
        <g class="cls-9">
          <path class="cls-16" d="M126.85,81.76c13.63-5.42,26.71-14.12,33.2-20.61,1.68-1.68,2.6-3.91,2.6-6.29s-.92-4.62-2.6-6.29t0,0l-33.2,33.2Z"/>
        </g>
      </g>
    </mask>
    <linearGradient id="linear-gradient-24" x1="-138.39" y1="28.75" x2="-150.25" y2="44.36" gradientTransform="translate(184.39 212.82) rotate(90)" xlink:href="#linear-gradient-10"/>
  </defs>
  <path class="cls-24" d="M118.58,111.97c-.43-2.63-.66-5.19-.66-7.66s.23-5.04.66-7.66c19.45-4.73,39.95-17.49,49.71-27.25,3.88-3.88,6.02-9.04,6.02-14.54s-2.14-10.65-6.02-14.54c-8.02-8.02-21.06-8.02-29.07,0-9.76,9.76-22.52,30.26-27.25,49.71-5.25.86-10.07.86-15.32,0-4.73-19.45-17.49-39.95-27.25-49.71-8.01-8.02-21.06-8.02-29.07,0-3.88,3.88-6.02,9.04-6.02,14.54s2.14,10.65,6.02,14.54c9.76,9.76,30.26,22.52,49.71,27.25.43,2.63.66,5.19.66,7.66s-.23,5.03-.66,7.66c-19.45,4.73-39.95,17.49-49.71,27.25-3.88,3.88-6.02,9.04-6.02,14.54s2.14,10.65,6.02,14.54c8.02,8.02,21.06,8.02,29.07,0,9.76-9.76,22.52-30.26,27.25-49.71,5.25-.86,10.07-.86,15.32,0,4.73,19.45,17.49,39.95,27.25,49.71,4.01,4.01,9.27,6.01,14.54,6.01s10.53-2,14.54-6.01c3.88-3.88,6.02-9.04,6.02-14.54s-2.14-10.65-6.02-14.54c-9.76-9.76-30.26-22.52-49.71-27.25ZM110.48,110.48c-2.1-.25-4.16-.38-6.17-.38s-4.08.13-6.17.38c.25-2.1.38-4.16.38-6.17s-.13-4.08-.38-6.17c4.2.5,8.15.5,12.35,0-.25,2.1-.38,4.16-.38,6.17s.13,4.08.38,6.17Z"/>
  <path class="cls-24" d="M104.31,54.94c-11.34,0-20.56-9.22-20.56-20.56s9.22-20.56,20.56-20.56,20.56,9.22,20.56,20.56-9.22,20.56-20.56,20.56Z"/>
  <path class="cls-46" d="M104.31,21.64c-7.02,0-12.74,5.71-12.74,12.74s5.71,12.74,12.74,12.74,12.74-5.71,12.74-12.74-5.71-12.74-12.74-12.74Z"/>
  <path class="cls-24" d="M104.31,194.79c-11.34,0-20.56-9.22-20.56-20.56s9.22-20.56,20.56-20.56,20.56,9.22,20.56,20.56-9.22,20.56-20.56,20.56Z"/>
  <path class="cls-12" d="M104.31,161.49c-7.02,0-12.74,5.71-12.74,12.74s5.71,12.74,12.74,12.74,12.74-5.71,12.74-12.74-5.71-12.74-12.74-12.74Z"/>
  <path class="cls-24" d="M34.38,124.86c-11.34,0-20.56-9.22-20.56-20.56s9.22-20.56,20.56-20.56,20.56,9.22,20.56,20.56-9.22,20.56-20.56,20.56Z"/>
  <path class="cls-35" d="M34.38,91.57c-7.02,0-12.74,5.71-12.74,12.74s5.71,12.74,12.74,12.74,12.74-5.71,12.74-12.74-5.71-12.74-12.74-12.74Z"/>
  <path class="cls-24" d="M174.23,124.86c-11.34,0-20.56-9.22-20.56-20.56s9.22-20.56,20.56-20.56,20.56,9.22,20.56,20.56-9.22,20.56-20.56,20.56Z"/>
  <path class="cls-29" d="M174.23,91.57c-7.02,0-12.74,5.71-12.74,12.74s5.71,12.74,12.74,12.74,12.74-5.71,12.74-12.74-5.71-12.74-12.74-12.74Z"/>
  <path class="cls-36" d="M120.6,120.6c4.99,16.7,15.94,33.95,24.14,42.16,2.41,2.41,5.61,3.73,9.01,3.73s6.6-1.33,9.01-3.73c2.41-2.41,3.73-5.61,3.73-9.01s-1.33-6.6-3.73-9.01c-8.2-8.21-25.46-19.15-42.16-24.14Z"/>
  <path class="cls-41" d="M88.01,120.6c-16.7,4.99-33.95,15.94-42.16,24.14-2.41,2.41-3.73,5.61-3.73,9.01s1.33,6.6,3.73,9.01c2.41,2.41,5.61,3.73,9.01,3.73s6.6-1.33,9.01-3.73c8.2-8.21,19.15-25.46,24.14-42.16Z"/>
  <path class="cls-40" d="M153.75,42.13c-3.26,0-6.52,1.24-9.01,3.72-8.2,8.21-19.15,25.46-24.14,42.16,16.7-4.99,33.95-15.94,42.16-24.14,2.41-2.41,3.73-5.61,3.73-9.01s-1.33-6.6-3.73-9.01c-2.48-2.48-5.75-3.72-9.01-3.72Z"/>
  <path class="cls-37" d="M54.86,42.13c-3.26,0-6.52,1.24-9.01,3.72-2.41,2.41-3.73,5.61-3.73,9.01s1.33,6.6,3.73,9.01c8.2,8.21,25.46,19.15,42.16,24.14-4.99-16.7-15.94-33.95-24.14-42.16-2.48-2.48-5.75-3.72-9.01-3.72Z"/>
  <g class="cls-28">
    <path class="cls-6" d="M104.31,34.38c-5.18,0-9.39,5.18-9.39,0s4.21-9.39,9.39-9.39,9.39,4.21,9.39,9.39-4.21,0-9.39,0Z"/>
  </g>
  <g class="cls-32">
    <path class="cls-4" d="M34.38,104.31c0,5.18,5.18,9.39,0,9.39s-9.39-4.21-9.39-9.39,4.21-9.39,9.39-9.39,0,4.21,0,9.39Z"/>
  </g>
  <g class="cls-44">
    <path class="cls-2" d="M104.31,174.23c5.18,0,9.39-5.18,9.39,0s-4.21,9.39-9.39,9.39-9.39-4.21-9.39-9.39,4.21,0,9.39,0Z"/>
  </g>
  <g class="cls-23">
    <path class="cls-8" d="M174.23,104.31c0-5.18-5.18-9.39,0-9.39s9.39,4.21,9.39,9.39-4.21,9.39-9.39,9.39,0-4.21,0-9.39Z"/>
  </g>
  <g class="cls-30">
    <path class="cls-7" d="M81.77,81.77c-5.42-13.63-14.12-26.71-20.61-33.2-1.68-1.68-3.91-2.6-6.29-2.6s-4.62.92-6.29,2.6t0,0l33.2,33.2Z"/>
  </g>
  <g class="cls-22">
    <path class="cls-1" d="M81.77,126.85c-13.63,5.42-26.71,14.12-33.2,20.61-1.68,1.68-2.6,3.91-2.6,6.29s.92,4.62,2.6,6.29t0,0l33.2-33.2Z"/>
  </g>
  <g class="cls-43">
    <path class="cls-5" d="M126.85,126.85c5.42,13.63,14.12,26.71,20.61,33.2,1.68,1.68,3.91,2.6,6.29,2.6s4.62-.92,6.29-2.6h0s-33.2-33.2-33.2-33.2Z"/>
  </g>
  <g class="cls-45">
    <path class="cls-3" d="M126.85,81.76c13.63-5.42,26.71-14.12,33.2-20.61,1.68-1.68,2.6-3.91,2.6-6.29s-.92-4.62-2.6-6.29t0,0l-33.2,33.2Z"/>
  </g>
</svg>