<?xml version="1.0" encoding="UTF-8"?>
<svg id="Layer_1" xmlns="http://www.w3.org/2000/svg" version="1.1" viewBox="0 0 500 500">
  <!-- Generator: Adobe Illustrator 30.5.1, SVG Export Plug-In . SVG Version: 2.1.4 Build 3)  -->
  <defs>
    <style>
      .st0 {
        fill: #178ea8;
      }

      .st1 {
        fill: #36444d;
      }

      .st2 {
        fill: #7ec151;
      }

      .st3 {
        fill: #3fbbab;
      }
    </style>
  </defs>
  <path class="st1" d="M263.74,200.95c-1.5,2.49-1.59,4.9-1.58,7.34.04,5.29.06,10.58-.02,15.86-.02,1.46.4,1.92,1.87,1.88,3.48-.09,6.96-.07,10.44,0,1.14.02,1.58-.29,1.57-1.51-.04-9.25-.02-18.51-.03-27.77,0-1.76-.45-3.41-1.46-5.2,1.68,0,3.2-.12,4.68.03,2.11.21,3.27,1.88,3.27,4.59.02,7.24,0,14.48,0,21.71,0,1.53.04,3.06-.01,4.59-.08,2.38.06,4.71,1.44,7.1h-2.47c-41.89,0-83.78,0-125.68-.01-1.24,0-2.51-.06-3.73-.3-2.2-.43-4.37-.61-6.58-.03-1.49.39-3.03.35-4.57.35-9.88,0-19.76-.02-29.64.02-1.14,0-1.75-.09-1.73-1.52.07-7.79.04-15.58.04-23.49-2.18-.02-4.56-.46-6.81.58-3.33,1.54-5.15,4.16-5.18,7.87-.04,4.94-.06,9.88.02,14.82.02,1.35-.33,1.77-1.73,1.75-6.33-.07-12.67.03-19-.05-7.03-.08-12.96-6.07-13.09-13.12-.05-2.85,0-5.71,0-8.56,0-5.01,2.57-7.29,7.61-6.8-2.03,6.02-1.18,12.22-.88,18.32.19,3.87,4.04,6.59,8.55,6.75,3.55.12,7.1-.02,10.65.04,1.26.02,1.51-.55,1.49-1.64-.04-3.13-.01-6.26-.01-9.39,0-7.97,4.92-13.54,12.85-14.11,4.35-.31,8.75-.05,13.31-.05-2.4,5.15-1.12,10.48-1.39,15.7-.13,2.64-.02,5.29-.02,7.93,0,.69-.13,1.42.98,1.39,9.24-.28,18.51.68,27.72-.63,3.4-.48,6.58-1.74,9.25-4.03,2.28-1.95,3.58-4.44,3.76-7.41.14-2.29,0-4.59.05-6.89.03-.99-.28-1.31-1.29-1.3-5.15.04-10.3.05-15.45,0-1.12,0-1.42.39-1.39,1.45.06,2.23-.03,4.46.04,6.68.09,2.89.74,4.08,4.22,8.16-.56.16-1.08.35-1.62.45-4.58.91-5.73.34-7.75-3.93-.84-1.77-1.35-3.64-1.35-5.63,0-3.48.04-6.96-.03-10.44-.02-1.18.34-1.56,1.53-1.56,10.23.04,20.46.02,30.98.02-1.87,3.32-1.65,6.81-1.49,10.24.29,6.01-2.27,10.44-7.1,13.75-.28.19-.54.4-.8,1.07h3.57c4.45,0,8.91-.05,13.36.03,1.35.02,1.77-.35,1.76-1.73-.07-6.05-.03-12.11-.03-18.16,0-3.96,1.25-5.18,5.28-5.19h2.18c-1.91,7.92-.56,15.91-.98,23.82-.06,1.08.49,1.25,1.39,1.24,4.25-.03,8.49-.05,12.73.02,1.22.02,1.5-.4,1.49-1.55-.05-5.84-.02-11.69-.02-17.54,0-5,1.01-6.01,5.96-6,.55,0,1.11,0,1.78,0-2.33,5.63-1.04,11.45-1.34,17.14-.11,2.15.05,4.32-.04,6.47-.06,1.3.58,1.47,1.64,1.46,3.96-.04,7.93-.06,11.9.01,1.25.02,1.49-.46,1.48-1.58-.05-5.08.03-10.16-.05-15.24-.02-1.53.22-2.2,2-2.15,4.52.11,4.52.01,4.52,4.62,0,4.18.04,8.35-.02,12.53-.02,1.27.22,1.88,1.69,1.82,2.99-.11,5.98-.09,8.97,0,1.27.04,1.66-.32,1.64-1.62-.08-5.15.02-10.3-.06-15.45-.02-1.41.28-1.91,1.8-1.89,4.61.05,4.61-.02,4.61,4.48,0,4.25.06,8.49-.03,12.73-.03,1.41.47,1.77,1.79,1.74,2.99-.07,5.99-.1,8.97.01,1.41.05,1.73-.44,1.71-1.76-.07-6.12-.03-12.25-.03-18.37,0-3.62,1.28-4.92,4.85-4.95.9,0,1.8,0,3.09,0"/>
  <path class="st1" d="M93.16,265.85c-1.2,2.08-1.52,3.96-1.51,5.94.03,5.71.05,11.41-.02,17.12-.02,1.42.18,2.04,1.88,2.03,20.94-.07,41.88-.06,62.83-.01,1.63,0,2.14-.44,2.11-2.09-.1-5.77-.04-11.55-.04-17.32,0-4.78,1.09-5.84,5.93-5.83h1.81c-2.43,5.87-1.05,11.89-1.35,17.79-.16,3.12-.08,6.26,0,9.39.03,1.19-.32,1.54-1.51,1.51-3.96-.07-7.93-.02-11.9-.03-21.36-.02-42.72-.05-64.08-.01-1.71,0-2.23-.42-2.2-2.17.11-6.26,0-12.53.07-18.79.01-1.36-.38-1.81-1.75-1.76-2.5.1-5.01-.02-7.51.04-3.29.07-5.26,1.59-5.49,4.79-.29,4.02-.22,8.06-.13,12.09.04,1.84,1.52,2.33,3.12,2.35,2.43.02,4.87.09,7.3-.03,1.36-.06,1.44.59,1.39,1.62-.05.97.18,1.89-1.41,1.84-3.75-.11-7.51.01-11.27-.05-3.13-.05-5.55-2.41-5.64-5.55-.1-3.75-.12-7.52,0-11.27.17-5.01,3.73-8.64,8.95-8.98,3.67-.24,7.37-.09,11.06-.14.61,0,1.4.25,1.76-.36,1.79-3.1,4.68-1.93,7.6-2.13"/>
  <path class="st1" d="M220.77,265.68c-1.66,2.88-1.63,5.79-1.62,8.7.02,4.66.1,9.33-.04,13.98-.06,1.96.42,2.6,2.49,2.58,9.67-.11,19.34-.04,29.02-.07,1.23,0,2-.04,2.02,1.66.02,1.75-.7,1.83-2.08,1.83-19.48-.05-38.96-.05-58.45-.11-1.4,0-2.21.17-2.12,1.83.05,1.03-.14,2.09-.36,3.1-1.52,7.08-6.58,10.79-14.33,10.53-1.18-.04-2.35-.31-3.53-.3-2.16.02-3.33-1.01-3.66-3.25,1.51.16,2.98.3,4.45.47,6.9.76,10.96-2.74,11.02-9.69.07-8.07.21-16.15-.04-24.21-.21-6.75,2.09-7.42,7.85-6.93-2.2,4.42-1.08,9.13-1.28,13.71-.14,3.19.02,6.4-.05,9.6-.03,1.28.27,1.83,1.72,1.81,6.47-.08,12.94-.08,19.41,0,1.49.02,1.67-.58,1.66-1.82-.05-6.12-.02-12.24-.02-18.37,0-3.65,1.32-4.98,5.01-5.06.88-.02,1.76,0,2.92,0"/>
  <path class="st1" d="M274.61,256.43c.29-.11.36-.15.42-.16,6.63-.34,7.46.45,7.46,7.13,0,8.07.03,16.14-.02,24.2-.01,2.24.1,4.43,1.51,6.73h-5.15c-4.94,0-9.88.07-14.81-.04-1.68-.04-2.14.46-1.62,2,.35,1.04.65,2.09,1.04,3.4-1.45,0-2.81.09-4.15-.02-2.17-.18-3.46-1.75-3.48-4.16-.02-4.87,0-9.74,0-14.61,0-7.11-2.95-10.25-10.07-10.86-4.61-.4-9.09-.24-13.52,1.46-1.77.68-1.83-1.64-2.62-2.58-.76-.9.5-1.08,1.01-1.29,7.66-3,15.47-3.23,23.25-.72,5.26,1.7,7.84,5.8,8.17,11.21.22,3.6.16,7.23.11,10.84-.02,1.4.32,1.98,1.84,1.94,3.41-.1,6.82-.08,10.22,0,1.31.03,1.83-.28,1.82-1.71-.06-9.18-.03-18.36-.03-27.54,0-1.83-.43-3.55-1.39-5.24"/>
  <path class="st1" d="M301.93,191.51c-1.48,2.44-1.51,4.83-1.5,7.27.04,9.65-.01,19.3.05,28.95,0,1.44-.35,1.89-1.84,1.88-4.68-.04-4.68.03-4.68-4.64v-27.5c0-5.1.86-5.98,5.89-5.96.55,0,1.11,0,2.09,0"/>
  <path class="st1" d="M301.96,256.23c-1.35,2.23-1.55,4.32-1.54,6.51.04,9.81-.02,19.62.06,29.42.01,1.65-.27,2.29-2.1,2.23-4.42-.13-4.43-.03-4.43-4.48v-27.54c0-5.29.89-6.18,6.19-6.14.47,0,.95,0,1.83,0"/>
  <path class="st0" d="M416.63,268.61c3.03.14,5.96-.4,8.75-1.54,1.25-.51,1.59-.19,1.63,1.06.16,4.76-1.21,9.01-4.1,12.8-.72.94-1.31.91-2.22.25-3.77-2.79-6.25-6.41-7.45-10.95-.4-1.52-.25-2.23,1.53-1.76.59.16,1.24.11,1.86.15"/>
  <path class="st0" d="M357.44,290.51c-4.52-.18-8.45-1.48-11.91-4.2-.84-.66-.94-1.19-.32-2.05,2.92-4.07,6.83-6.6,11.7-7.73,1.17-.27,1.33.25,1.16,1.18-.68,3.94.13,7.68,1.36,11.42.84,2.56-1.62.62-1.99,1.38"/>
  <path class="st0" d="M375.78,206.34c-2.72-3.88-6.08-6.61-10.23-8.31-.88-.36-.57-.76-.18-1.21,3.31-3.76,7.41-6,12.43-6.51,1.08-.11,1.46.33,1.62,1.36.8,5.28-.34,10.06-3.63,14.67"/>
  <path class="st0" d="M336.04,219.22c.09-2.95,1.44-6.65,3.91-10,.82-1.11,1.5-1.15,2.55-.36,3.8,2.89,6.29,6.59,7.36,11.27.27,1.21.2,1.66-1.19,1.39-3.36-.65-6.64-.15-9.85.91q-2.78.92-2.77-3.21"/>
  <path class="st0" d="M383.31,295.32c.13-3.95,1.06-7.38,3.05-10.52.62-.97,1.03-1.08,1.77-.07,2.32,3.14,5.32,5.49,8.92,6.96,1.25.51,1.05.9.33,1.7-3.25,3.63-7.33,5.61-12.11,6.29-1.09.15-1.55-.28-1.64-1.3-.11-1.11-.24-2.21-.33-3.05"/>
  <path class="st3" d="M426.96,219.99c0,3.28-.01,3.3-2.41,2.42-3.4-1.24-6.9-1.5-10.44-.99-1.18.17-1.32-.12-1.08-1.15,1.09-4.88,3.64-8.77,7.68-11.72.9-.65,1.39-.5,2.04.3,2.83,3.48,4.09,7.49,4.22,11.15"/>
  <path class="st3" d="M336.03,269.43c.01-2.78,0-2.74,2.34-1.98,3.25,1.06,6.57,1.74,10.01,1.08,1.58-.3,1.9.14,1.49,1.72-1.17,4.47-3.53,8.07-7.21,10.87-1.13.86-1.8.77-2.68-.39-2.6-3.46-3.79-7.35-3.95-11.3"/>
  <path class="st0" d="M342.88,250.69c-4.1,2.86-6.87,6.51-8.67,11.05-4.33-3.39-6.69-7.67-7.36-12.92-.1-.77-.18-1.47.96-1.68,5.47-1,10.38.23,15.08,3.55"/>
  <path class="st0" d="M431.68,243.08c-3.8.05-7.25-1.04-10.44-3.06-.9-.57-.98-.93-.06-1.62,3.18-2.37,5.6-5.38,7.09-9.08.4-1,.8-1.09,1.6-.36,3.54,3.21,5.61,7.17,6.31,11.88.2,1.33-.31,1.94-1.59,2.03-.97.06-1.94.13-2.91.19"/>
  <path class="st3" d="M385.39,190.34c4.73.54,8.66,2.67,11.89,6.14.84.9.49,1.36-.5,1.78-3.59,1.51-6.55,3.87-8.85,7.01-.62.86-1,.97-1.58.01-2.54-4.16-3.7-8.6-2.9-13.49.21-1.27.72-1.69,1.94-1.45"/>
  <path class="st3" d="M405.16,290.44c-1.89-.01-1.9-.07-1.14-2.34,1.14-3.4,1.7-6.88,1.02-10.45-.21-1.09.13-1.43,1.16-1.19,4.93,1.15,8.93,3.69,11.86,7.88.64.91.23,1.33-.43,1.86-3.49,2.79-7.51,4.1-12.47,4.25"/>
  <path class="st3" d="M379.83,294.44c-.02,5.46-.6,5.88-5.1,4.59-3.42-.98-6.3-2.79-8.74-5.36-.82-.86-1.2-1.38.29-2.02,3.43-1.46,6.39-3.64,8.57-6.71.97-1.37,1.46-.92,2.14.2,1.87,3.1,2.79,6.45,2.84,9.29"/>
  <path class="st3" d="M420.21,250.62c3.04-2.44,6.36-3.58,10.02-3.88.48-.04.97,0,1.46,0,5.01,0,5.28.34,3.85,5.2-1,3.41-2.84,6.29-5.47,8.68-.7.64-1.25,1.08-1.78-.22-1.65-4.01-4.36-7.19-8.07-9.78"/>
  <path class="st3" d="M356.9,199.55c.35,0,.7.03,1.04,0,1.6-.17,1.84.37,1.25,1.85-1.36,3.47-1.94,7.09-1.21,10.82.22,1.15,0,1.46-1.23,1.19-4.84-1.04-8.66-3.58-11.58-7.56-.69-.95-.52-1.55.36-2.24,3.35-2.61,7.13-3.94,11.36-4.06"/>
  <path class="st0" d="M406.38,199.48c3.88.1,7.29,1.46,10.48,3.6,1.55,1.04,1.58,1.91.44,3.3-2.83,3.44-6.31,5.8-10.65,6.88-1.26.31-2,.14-1.68-1.46.69-3.44,0-6.77-1.06-10.03-.74-2.28-.79-2.27,1.63-2.28.28,0,.55,0,.83,0"/>
  <path class="st3" d="M334.14,228.31c1.81,4.32,4.22,7.84,7.86,10.38.86.6.5.93-.12,1.34-4.32,2.85-9.03,3.78-14.12,2.9-1.14-.2-1.03-.96-.93-1.72.68-5.19,2.97-9.47,7.31-12.92"/>
  <path class="st2" d="M353.55,263.95c-.62-4.4-1.96-8.29-4.62-11.63-.61-.77-.27-1.06.45-1.28,4.56-1.38,9.01-1.1,13.4.75,1.15.48.88,1.13.53,1.97-1.89,4.55-5.04,7.88-9.76,10.18"/>
  <path class="st2" d="M376.33,218.26c-.1,2.8-.55,5.31-1.54,7.72-.38.92-.76,1.35-1.84.89-4.25-1.78-7.58-4.57-9.8-8.64-.44-.8-.63-1.36.63-1.51,3.74-.43,7.1-1.87,10.08-4.14.99-.76,1.36-.54,1.67.55.5,1.75.65,3.54.8,5.13"/>
  <path class="st3" d="M362.66,272.96c2.17-4.83,5.72-7.92,10.35-9.91.85-.36,1.36-.23,1.75.7,1.8,4.31,2.18,8.7.8,13.19-.15.49-.21,1.48-1.15.72-3.4-2.71-7.38-4-11.75-4.7"/>
  <path class="st3" d="M408.94,250.07c.98-.02,2.67.34,4.35.77,1.05.27,1.47.52.66,1.62-2.18,2.94-3.66,6.21-4.1,9.88-.14,1.17-.6,1.41-1.63.85-4-2.18-6.79-5.42-8.55-9.6-.42-.99-.16-1.52.82-1.93,2.46-1.04,5.02-1.58,8.46-1.59"/>
  <path class="st2" d="M407.43,239.7c-2.11.03-4.51-.53-6.86-1.44-1.01-.4-1.37-.88-.89-2.03,1.76-4.18,4.54-7.38,8.49-9.62,1.12-.64,1.44-.25,1.59.82.52,3.71,1.95,7.06,4.23,10.01.76.99.31,1.2-.61,1.48-1.81.54-3.65.78-5.95.77"/>
  <path class="st3" d="M386.63,218.29c-.02-1.82.36-3.58.83-5.33.22-.83.6-1.14,1.45-.5,3.12,2.3,6.58,3.82,10.47,4.25,1.01.11.89.6.53,1.27-2.23,4.13-5.49,7.08-9.86,8.84-1.05.42-1.5.13-1.87-.83-.97-2.48-1.55-5.03-1.55-7.7"/>
  <path class="st2" d="M400.45,272.94c-4.66.59-8.66,2.2-12.35,5.16-1.57-3.41-1.82-6.91-.98-10.3,1.49-6.04,1.08-6.11,6.69-2.73,2.97,1.79,5.09,4.43,6.64,7.86"/>
  <path class="st3" d="M355,239.68c-.62,0-1.25.01-1.87,0-1.48-.03-3.37-.04-4.12-1.01-.91-1.19,1.01-2.2,1.56-3.35,1.17-2.45,2.33-4.89,2.59-7.63.14-1.47.72-1.53,1.87-.86,3.79,2.21,6.51,5.32,8.25,9.35.53,1.23.13,1.75-.97,2.19-2.35.94-4.77,1.44-7.31,1.31"/>
  <path class="st0" d="M402.25,280.67c-.19,2.68-.55,5.14-1.53,7.48-.42,1.01-.86,1.4-2.02.91-3.49-1.46-6.35-3.66-8.53-6.75-.51-.72-.65-1.3.13-1.94,2.98-2.46,6.41-3.8,10.23-4.23.91-.1,1.26.41,1.35,1.2.14,1.17.26,2.34.37,3.34"/>
  <path class="st0" d="M360.8,209.29c.16-2.76.55-5.28,1.56-7.68.39-.92.77-1.3,1.84-.83,3.45,1.5,6.34,3.65,8.59,6.7.76,1.03.62,1.59-.36,2.34-2.65,2.02-5.62,3.23-8.87,3.87-1.81.36-2.59-.27-2.55-2.1.02-.83-.15-1.65-.22-2.29"/>
  <path class="st0" d="M402.01,209.2c-.22,5.35.03,5.04-5.17,3.79-2.39-.57-4.46-1.82-6.44-3.28-.95-.7-.96-1.27-.3-2.2,2.15-3.03,4.95-5.19,8.32-6.69,1.1-.49,1.74-.37,2.18.87.86,2.44,1.54,4.89,1.41,7.5"/>
  <path class="st0" d="M417.09,224.2c2.81.15,5.31.59,7.71,1.61.93.39,1.33.77.88,1.83-1.46,3.48-3.64,6.35-6.7,8.59-1.06.78-1.65.5-2.38-.43-2-2.59-3.21-5.47-3.79-8.68-.3-1.68.06-2.68,2.01-2.65.82.01,1.65-.18,2.26-.26"/>
  <path class="st0" d="M345.59,224.34c4.69-.05,5.32.76,4.02,5.22-.71,2.42-1.87,4.6-3.42,6.6-.65.84-1.15.9-2.02.28-3.13-2.24-5.4-5.11-6.9-8.65-.44-1.03-.1-1.47.83-1.86,2.4-1.01,4.91-1.41,7.48-1.58"/>
  <path class="st0" d="M417.49,265.54c-5.47-.27-5.27-.16-4.02-5.24.58-2.38,1.79-4.5,3.3-6.45.73-.94,1.32-.93,2.24-.27,3.02,2.17,5.15,5.01,6.66,8.39.56,1.26.09,1.7-1,2.11-2.36.9-4.78,1.45-7.18,1.46"/>
  <path class="st0" d="M345.73,265.61c-2.54.05-4.95-.49-7.31-1.4-1.11-.43-1.5-.99-.98-2.19,1.48-3.47,3.75-6.29,6.81-8.49.75-.54,1.26-.54,1.89.24,2.18,2.71,3.51,5.77,4.07,9.2.28,1.69-.29,2.48-1.98,2.51-.83.01-1.66.08-2.49.13"/>
  <path class="st0" d="M362.68,276.25c3.83.39,6.99,1.69,9.82,3.86.92.7,1.21,1.25.4,2.34-2.22,2.98-4.98,5.18-8.39,6.64-1.09.47-1.62.21-2.06-.86-1.38-3.37-1.75-6.85-1.26-10.43.13-.95.25-2.12,1.5-1.55"/>
  <path class="st1" d="M75.85,260.15c-1.19-1.26-2.57-2.38-3.46-3.82-.37-.61.97-1.34,1.57-1.96,2.05-2.12,2.07-2.1,4.15-.02,1.93,1.93,1.94,1.95-.01,3.85-.68.66-1.21,1.5-2.26,1.94"/>
  <path class="st1" d="M176.82,243.57c-.34.03-3.78-3.34-3.78-3.71,0-.33,3.43-3.77,3.76-3.78.32,0,3.81,3.41,3.83,3.74.01.33-3.42,3.72-3.81,3.75"/>
  <path class="st1" d="M200.74,239.77c.03.34-3.32,3.82-3.68,3.82-.29,0-3.94-3.6-3.8-3.75,1.19-1.25,2.41-2.49,3.67-3.67.22-.21,3.77,3.16,3.81,3.6"/>
  <path class="st1" d="M89.06,240.12c-1.15,1.08-2.29,2.48-3.74,3.33-.56.33-1.42-1.08-2.06-1.76-.59-.61-1.95-1.26-1.5-1.98.86-1.37,2.23-2.44,3.45-3.57.26-.24,3.93,3.36,3.85,3.97"/>
  <path class="st1" d="M89.11,256.19c.04.32-3.28,3.79-3.67,3.84-.34.05-3.76-3.21-3.81-3.64-.04-.34,3.21-3.83,3.61-3.87.29-.03,3.83,3.32,3.87,3.66"/>
  <path class="st1" d="M241.9,260.53c-1.48-1.51-2.79-2.58-3.75-3.9-.67-.92.63-1.35,1.12-1.86,2.67-2.77,2.67-2.73,5.61.66.58.67.61,1.07,0,1.7-1.01,1.03-1.91,2.16-2.98,3.39"/>
  <path class="st1" d="M155.15,305.03c-.74.52-1.56.95-2.2,1.57-2.08,2-2.09,2.06-3.97.07-.66-.7-2.2-1.3-1.63-2.3.76-1.34,2.16-2.3,3.3-3.43.04-.04.11-.09.17-.09.27-.02,3.85,3.43,4.33,4.19"/>
  <path class="st1" d="M210.49,300.31c1.52,1.65,2.8,2.84,3.81,4.22.33.46-.61.96-1.02,1.39-2.67,2.74-2.6,2.65-5.33.12-1.29-1.2-1.09-1.89.08-2.91.86-.75,1.53-1.73,2.46-2.82"/>
  <path class="st1" d="M171.22,239.76c.03.28-3.31,3.77-3.65,3.81-.28.03-3.78-3.31-3.81-3.65-.03-.28,3.31-3.78,3.65-3.82.28-.03,3.77,3.31,3.81,3.65"/>
  <path class="st1" d="M75.66,244.02c-.57-.77-1.01-1.7-1.74-2.28-1.6-1.29-1.91-2.41-.05-3.71.61-.43,1.08-1.06,1.62-1.59.32-.32.64-.47,1.03-.06.96.98,1.95,1.94,2.92,2.92.14.14.29.32.34.51.07.25-3.41,3.78-4.12,4.21"/>
  <path class="st1" d="M145.5,304.48c-.44.49-.79.9-1.16,1.29-.68.7-1.37,1.38-2.06,2.06-.32.32-.63.81-1.16.28-1.03-1.03-2.05-2.06-3.08-3.09-.3-.3-.25-.58.04-.86,1.03-1.02,2.05-2.06,3.1-3.07.13-.12.44-.27.5-.22,1.27,1.17,2.51,2.37,3.82,3.62"/>
  <path class="st1" d="M205.07,304.47c-.03.44-3.66,4.02-3.81,3.89-1.22-1.12-2.57-2.16-3.53-3.49-.57-.78.67-1.3,1.18-1.82,2.38-2.45,2.4-2.44,4.84.03.47.48.92.98,1.31,1.4"/>
</svg>