<?xml version="1.0" encoding="UTF-8"?>
<svg id="Layer_1" xmlns="http://www.w3.org/2000/svg" xmlns:xlink="http://www.w3.org/1999/xlink" version="1.1" viewBox="0 0 500 500">
  <!-- Generator: Adobe Illustrator 30.5.1, SVG Export Plug-In . SVG Version: 2.1.4 Build 3)  -->
  <defs>
    <style>
      .st0 {
        fill: none;
      }

      .st1 {
        fill: url(#linear-gradient2);
      }

      .st2 {
        fill: url(#linear-gradient1);
      }

      .st3 {
        fill: url(#linear-gradient9);
      }

      .st4 {
        fill: url(#linear-gradient3);
      }

      .st5 {
        fill: url(#linear-gradient6);
      }

      .st6 {
        fill: url(#linear-gradient8);
      }

      .st7 {
        fill: url(#linear-gradient7);
      }

      .st8 {
        fill: url(#linear-gradient5);
      }

      .st9 {
        fill: url(#linear-gradient4);
      }

      .st10 {
        fill: url(#linear-gradient12);
      }

      .st11 {
        fill: url(#linear-gradient11);
      }

      .st12 {
        fill: url(#linear-gradient10);
      }

      .st13 {
        fill: url(#linear-gradient);
      }

      .st14 {
        clip-path: url(#clippath-11);
      }

      .st15 {
        clip-path: url(#clippath-10);
      }

      .st16 {
        clip-path: url(#clippath-12);
      }

      .st17 {
        fill: #0f407b;
      }

      .st18 {
        clip-path: url(#clippath-1);
      }

      .st19 {
        clip-path: url(#clippath-3);
      }

      .st20 {
        clip-path: url(#clippath-4);
      }

      .st21 {
        clip-path: url(#clippath-2);
      }

      .st22 {
        clip-path: url(#clippath-7);
      }

      .st23 {
        clip-path: url(#clippath-6);
      }

      .st24 {
        clip-path: url(#clippath-9);
      }

      .st25 {
        clip-path: url(#clippath-8);
      }

      .st26 {
        clip-path: url(#clippath-5);
      }

      .st27 {
        clip-path: url(#clippath);
      }

      .st28 {
        fill: #4eadac;
      }
    </style>
    <clipPath id="clippath">
      <path class="st0" d="M364.04,207.94h0c-1.06.76-2.11,1.53-3.16,2.3l-7.11,5.21-3.74,2.77c-.17.12-.33.25-.5.38l-2.85,2.11c-4.72,3.5-9.41,7.05-14.1,10.6-3.73,2.83-7.43,5.68-11.13,8.55-.18.14-.33.25-.46.35-.08.06-.14.12-.21.16-.18.14-.27.21-.27.21l-4.09-4.95c-1.97-2.34-3.9-4.69-5.9-7.01l-5.94-6.96c-.85-.96-1.69-1.93-2.54-2.9,10.23-5.74,21.39-9.71,32.91-11.64.95-.16,1.92-.3,2.88-.43.1-.01.2-.03.3-.04,6.5-.87,13.09-1.11,19.64-.71,2.66.16,5.31.42,7.95.79-.56.4-1.11.8-1.67,1.21M252.38,268.41h0c-.18,1.58-.38,3.26-.58,4.99-.22,1.67-.36,2.89-.43,3.75-.71,6.32-1.36,12.56-1.38,15.57,0-14.81-3.78-29.8-10.78-43.27-6.24-12.06-15.13-22.86-25.81-31.51-1.24-1-2.5-1.98-3.79-2.92-.09-.07-.18-.14-.27-.2-.01-.01-.04-.02-.05-.04-2.51-5.83-5.17-11.59-7.95-17.28-.43-.9-.87-1.79-1.32-2.68-3.56-7.14-7.27-14.22-11.19-21.17-2.25-4.01-4.55-7.98-6.91-11.91-.03-.04-.05-.09-.08-.13,3.04.9,6.04,1.97,8.99,3.16,6.1,2.48,11.99,5.55,17.49,9.19,5,3.28,9.7,7.03,14.02,11.21.07.06.11.09.13.12h.01c5.16,5.01,9.78,10.59,13.75,16.64.95,1.37,1.79,2.81,2.65,4.24.88,1.42,1.67,2.9,2.47,4.37,1.58,2.95,2.98,5.99,4.25,9.1,2.57,6.2,4.5,12.67,5.79,19.29.62,3.15,1.08,6.34,1.38,9.55.12,1.54.61,9.33-.4,19.93ZM379.35,199.18c-.54-.15-1.08-.3-1.62-.45h0s-.06-.01-.06-.01c-.02,0-.04,0-.06-.01-4.53-1.21-9.15-2.11-13.82-2.69-8.21-1.03-16.54-1.08-24.77-.11h0c-1.97.22-3.91.51-5.86.85-7.67,1.32-15.16,3.59-22.32,6.61-6.89,2.96-13.47,6.62-19.53,10.98-.22.15-.44.31-.66.47-.25.19-.5.38-.75.57.25-.44.49-.88.73-1.33,2.83-5.12,5.59-10.27,8.29-15.46,3.87-7.38,7.6-14.83,11.26-22.31,3.31-6.82,6.57-13.66,9.72-20.54.32-.68.63-1.37.94-2.05l4.87-10.67-11.02,3.38-5.58,1.71c-1.79.67-3.59,1.33-5.38,2.03-.04.01-.09.04-.14.06-1.76.77-3.54,1.51-5.27,2.33-1.72.9-3.46,1.76-5.16,2.69-6.79,3.76-13.09,8.37-18.73,13.62-5.63,5.26-10.58,11.2-14.67,17.62-4.08,6.42-7.34,13.31-9.47,20.48,0,0,.02-.04.06-.09,2-3.03,4.06-5.97,6.22-8.8,0,0,0,0,0,0,2.26-2.98,4.63-5.85,7.14-8.58,3.02-3.3,6.19-6.41,9.52-9.31,0,0,0,0,.01-.01,0,0,.02-.02.04-.04.02-.01.04-.04.08-.06.03-.03.06-.06.11-.09.1-.09.21-.18.31-.27.19-.17.42-.36.7-.59.2-.17.41-.34.61-.51.02-.02.04-.04.06-.05.27-.22.56-.46.88-.72,1.17-.98,2.36-1.91,3.57-2.81,2.55-1.92,5.16-3.72,7.85-5.39.31-.2.63-.4.95-.59,3.02-1.84,6.12-3.54,9.29-5.09,1.58-.77,3.21-1.45,4.81-2.19,1.22-.51,2.46-1,3.69-1.49,0,.02-.01.04-.02.06-1.77,3.88-3.51,7.79-5.25,11.68-3.35,7.62-6.62,15.28-9.76,23-2.25,5.48-4.43,11-6.54,16.54-.86,2.25-1.71,4.5-2.54,6.77-.65,1.77-1.29,3.55-1.93,5.33-1.24,1.19-2.46,2.42-3.63,3.68-6.25,6.64-11.58,14.11-15.73,22.13-2.6,5.01-4.76,10.23-6.44,15.57.26-1.94.48-3.88.64-5.83.51-6.88.36-13.85-.51-20.76-1.74-13.81-6.45-27.3-13.6-39.39-3.59-6.04-7.74-11.8-12.54-17-4.79-5.2-10.11-9.94-15.89-14.06-4.35-3.12-8.96-5.88-13.75-8.3h0c-1.55-.79-3.12-1.54-4.71-2.26-3.25-1.45-6.57-2.73-9.97-3.85-1.7-.56-3.41-1.06-5.16-1.52-.87-.24-1.75-.45-2.65-.65l-1.35-.29c-.47-.09-.88-.17-1.46-.27l-3.41-.54-4.22-.67s-.06.04-.09.07c-.02.02-.04.05-.05.08l1.84,4,1.55,3.38c.09.2.18.4.27.59,3.26,7.06,6.72,14.02,10.33,20.89,3.7,7.07,7.61,14.03,11.66,20.91.34.57.68,1.14,1.03,1.71,1,1.67,2.01,3.33,3.03,4.98-.18-.09-.35-.18-.54-.27-1.86-.93-3.74-1.81-5.65-2.63-7.16-3.02-14.66-5.29-22.33-6.61-7.7-1.37-15.55-1.79-23.35-1.34-.27.01-.54.03-.8.04-.3.02-.59.04-.9.06-.91.06-1.85.13-2.82.22-.3.03-.6.06-.91.09-.4.04-.8.09-1.21.13-.56.06-1.14.13-1.72.2-.39.05-.79.1-1.19.16-2.91.43-5.81.98-8.67,1.66h-.07c-1.53.38-3.05.77-4.56,1.21l-10.53,3s.16.11.46.31l.26.17,8.25,5.5c.76.51,1.52,1.01,2.28,1.53,4.13,2.75,8.25,5.53,12.41,8.25l7.37,4.84,7.4,4.8c3.88,2.52,7.77,5,11.66,7.48,2.57,1.63,5.31,2.98,8.19,4.01.82.29,1.64.57,2.46.84.05.02.11.04.17.06,5.26,1.71,10.35,2.98,12,3.38.03,0,.06.01.08.02.11.02.2.04.27.06.07.02.14.04.2.05,0,0-.34-.26-.97-.73-2.95-2.21-11.83-8.88-15.18-11.42-4.69-3.55-9.38-7.1-14.11-10.6l-7.08-5.26-7.12-5.21c-1.58-1.16-3.15-2.31-4.74-3.46,0,0,0,0,0,0-.02-.01-.05-.04-.07-.05,2.63-.37,5.28-.63,7.92-.79,7.64-.46,15.31-.06,22.85,1.19,8.46,1.42,16.73,3.94,24.58,7.46h.01c2.83,1.27,5.6,2.66,8.3,4.18l.85.48c1.78,1.02,3.53,2.08,5.24,3.21,3.41,2.24,6.67,4.69,9.79,7.32,2.14,1.81,4.22,3.69,6.21,5.68,5.19,5.15,9.86,10.86,13.9,17.06,7.87,12.03,13.29,25.82,16.05,40.41,2.77-14.59,8.19-28.38,16.05-40.41,2.47-3.78,5.17-7.39,8.08-10.79.16-.19.33-.37.49-.56,6.25-7.2,13.44-13.51,21.34-18.71,1.71-1.13,3.46-2.19,5.23-3.21.69,1.13,1.37,2.26,2.05,3.38l4.85,7.77c1.61,2.6,3.27,5.16,4.9,7.74l4.96,7.69,1.33,2.05,2.33-1.44c.71-.44,1.42-.87,2.13-1.32,4.3-2.66,8.58-5.34,12.85-8.04,4.97-3.15,9.93-6.3,14.87-9.51l7.4-4.8,7.36-4.84c4.1-2.68,8.16-5.42,12.23-8.13.82-.55,1.63-1.1,2.45-1.64l8.98-5.98-10.53-3Z"/>
    </clipPath>
    <linearGradient id="linear-gradient" x1="262.16" y1="309.84" x2="237.84" y2="126.13" gradientUnits="userSpaceOnUse">
      <stop offset="0" stop-color="#075098"/>
      <stop offset=".75" stop-color="#56b7b1"/>
      <stop offset="1" stop-color="#56b7b1"/>
    </linearGradient>
    <clipPath id="clippath-1">
      <path class="st0" d="M187.67,171.76l-9.57,3.8-5.37-10.51c-1.15-2.37-2.28-4.75-3.38-7.14-.09-.2-.18-.4-.27-.59l-.32-.69,13.3,3.7c.3.56.59,1.14.89,1.74-.35-.11-.7-.22-1.05-.32.03.04.05.09.08.13,1.74,2.89,3.43,5.78,5.1,8.71.2.4.4.8.59,1.18"/>
    </clipPath>
    <linearGradient id="linear-gradient1" x1="178.91" y1="155.47" x2="178.22" y2="165.94" gradientUnits="userSpaceOnUse">
      <stop offset="0" stop-color="#000"/>
      <stop offset=".14" stop-color="#0c2423"/>
      <stop offset=".35" stop-color="#1e5755"/>
      <stop offset=".55" stop-color="#2b7f7c"/>
      <stop offset=".73" stop-color="#359c98"/>
      <stop offset=".89" stop-color="#3bada9"/>
      <stop offset="1" stop-color="#3eb4b0"/>
    </linearGradient>
    <clipPath id="clippath-2">
      <path class="st0" d="M209.23,214.64c-4.93-3.53-9.86-6.37-14.42-8.64-.65-1.17-1.29-2.35-1.93-3.54-.2-.4-.38-.79-.56-1.18l9.02-3.78c2.76,5.64,5.4,11.35,7.89,17.14"/>
    </clipPath>
    <linearGradient id="linear-gradient2" x1="196.11" y1="219.73" x2="201.04" y2="205.31" gradientUnits="userSpaceOnUse">
      <stop offset="0" stop-color="#000"/>
      <stop offset=".11" stop-color="#0a191b"/>
      <stop offset=".32" stop-color="#1e484e"/>
      <stop offset=".53" stop-color="#2d6d76"/>
      <stop offset=".72" stop-color="#388893"/>
      <stop offset=".88" stop-color="#3f98a4"/>
      <stop offset="1" stop-color="#429eab"/>
    </linearGradient>
    <clipPath id="clippath-3">
      <path class="st0" d="M293.46,208.88c-.22.43-3.04,5.57-3.51,6.42-3.09,2.31-6.42,5.05-9.78,8.26.63-1.75,1.26-3.51,1.9-5.25.83-2.26,1.68-4.52,2.54-6.77l8.85-2.67Z"/>
    </clipPath>
    <linearGradient id="linear-gradient3" x1="292.44" y1="226.48" x2="285.38" y2="213.61" gradientUnits="userSpaceOnUse">
      <stop offset="0" stop-color="#000"/>
      <stop offset=".18" stop-color="#0d2127"/>
      <stop offset=".46" stop-color="#1f4e5e"/>
      <stop offset=".7" stop-color="#2c6f85"/>
      <stop offset=".88" stop-color="#34839e"/>
      <stop offset="1" stop-color="#378ba7"/>
    </linearGradient>
    <clipPath id="clippath-4">
      <path class="st0" d="M377.61,198.7l-12.3,9.59-1.27-.35c.56-.41,1.11-.81,1.67-1.21-2.64-.37-5.29-.63-7.95-.79l6.03-9.93c4.66.58,9.28,1.48,13.82,2.69"/>
    </clipPath>
    <linearGradient id="linear-gradient4" x1="361.26" y1="195.8" x2="389.26" y2="223.48" gradientUnits="userSpaceOnUse">
      <stop offset="0" stop-color="#358ba8"/>
      <stop offset="1" stop-color="#000"/>
    </linearGradient>
    <clipPath id="clippath-5">
      <path class="st0" d="M134.29,206.79c.56.41,1.11.8,1.67,1.21l-1.27.35-12.3-9.59.09-.02c.94-.25,1.89-.48,2.83-.71,3.59-.85,7.23-1.5,10.9-1.96l5.99,9.86c-2.65.16-5.29.42-7.92.79.02.01.05.04.07.05,0,0,0,0,0,0-.02,0-.05,0-.07,0"/>
    </clipPath>
    <linearGradient id="linear-gradient5" x1="139.3" y1="196.19" x2="115.68" y2="216.56" gradientUnits="userSpaceOnUse">
      <stop offset="0" stop-color="#45a2ad"/>
      <stop offset="1" stop-color="#000"/>
    </linearGradient>
    <clipPath id="clippath-6">
      <path class="st0" d="M389.89,202.18l-8.98,5.98c-.82.54-1.63,1.09-2.45,1.64-4.07,2.72-8.13,5.45-12.23,8.13l-7.36,4.84-7.4,4.8c-4.93,3.2-9.9,6.36-14.87,9.51-.85.54-1.71,1.08-2.57,1.61-3.41,2.16-6.84,4.3-10.28,6.43l-3.23-4.54s.09-.07.27-.21c.07-.04.13-.1.21-.16.13-.1.28-.22.46-.35,1.45-1.1,4.43-3.37,8.2-6.24,5.7-4.32,13.19-10,19.88-15.03.17-.12.33-.25.5-.38,8.11-6.09,14.91-11.14,15.68-11.5,2.02-.94,11.95-8.01,11.95-8.01,0,0,.02,0,.06.01h0c.54.14,1.08.3,1.62.45l10.53,3Z"/>
    </clipPath>
    <linearGradient id="linear-gradient6" x1="299.98" y1="221.92" x2="382.45" y2="221.92" xlink:href="#linear-gradient"/>
    <clipPath id="clippath-7">
      <path class="st0" d="M334.02,238.7c-3.41,2.16-6.84,4.3-10.28,6.43l-3.23-4.54s.09-.07.27-.21c.07-.04.13-.1.21-.16.13-.1.28-.22.46-.35,1.45-1.1,4.43-3.37,8.2-6.24l4.37,5.08Z"/>
    </clipPath>
    <linearGradient id="linear-gradient7" x1="317.87" y1="245.44" x2="329.84" y2="237.72" gradientUnits="userSpaceOnUse">
      <stop offset="0" stop-color="#000"/>
      <stop offset=".11" stop-color="#07161d"/>
      <stop offset=".33" stop-color="#143c4d"/>
      <stop offset=".53" stop-color="#1e5a74"/>
      <stop offset=".71" stop-color="#256f8f"/>
      <stop offset=".88" stop-color="#297ca0"/>
      <stop offset="1" stop-color="#2b81a6"/>
    </linearGradient>
    <clipPath id="clippath-8">
      <path class="st0" d="M311.11,174.36l-9.69-3.5c1.73-3.65,3.48-7.97,5.25-11.61l13.55-4.23-9.11,19.34Z"/>
    </clipPath>
    <linearGradient id="linear-gradient8" x1="305.92" y1="152.04" x2="310.24" y2="163.19" gradientUnits="userSpaceOnUse">
      <stop offset="0" stop-color="#000"/>
      <stop offset=".11" stop-color="#0c1b1d"/>
      <stop offset=".33" stop-color="#214b50"/>
      <stop offset=".53" stop-color="#327278"/>
      <stop offset=".72" stop-color="#3e8d95"/>
      <stop offset=".88" stop-color="#459ea6"/>
      <stop offset="1" stop-color="#48a4ad"/>
    </linearGradient>
    <clipPath id="clippath-9">
      <path class="st0" d="M302.03,218.77s19.07,22.09,22.08,26.13l-4.83,2.99s-17.24-26.72-18.1-28.63l.85-.48Z"/>
    </clipPath>
    <linearGradient id="linear-gradient9" x1="314.74" y1="249.13" x2="310.56" y2="217.53" xlink:href="#linear-gradient"/>
    <clipPath id="clippath-10">
      <path class="st0" d="M325.69,143.04l-5.81,12.72-13.7,4.5c-6.46,2.38-12.39,5.4-17.79,8.77-.32.19-.64.39-.95.59-14.37,9.16-24.8,20.64-30.9,28.44,0,0,0,0,0,0-3.75,4.79-5.85,8.19-6.22,8.8-.04.06-.06.09-.06.09,2.13-7.17,5.39-14.06,9.47-20.48,4.09-6.42,9.05-12.36,14.67-17.62,5.64-5.25,11.94-9.86,18.73-13.62,1.7-.93,3.44-1.79,5.16-2.69,1.74-.82,3.51-1.55,5.27-2.33.04-.02.09-.04.14-.06,1.79-.7,3.59-1.36,5.38-2.03l5.58-1.71,11.02-3.38Z"/>
    </clipPath>
    <linearGradient id="linear-gradient10" x1="292.78" y1="211.31" x2="283.18" y2="138.68" xlink:href="#linear-gradient"/>
    <clipPath id="clippath-11">
      <path class="st0" d="M238.89,206.17s-21.88-41.05-68.77-46.63l-4.49-9.75s49.95,2.4,77.01,52.36c0,0,16.86,26.75,11.7,62.88h-1.67s4.64-28.6-13.78-58.86"/>
    </clipPath>
    <linearGradient id="linear-gradient11" x1="223.19" y1="287.69" x2="206.66" y2="162.77" xlink:href="#linear-gradient"/>
    <clipPath id="clippath-12">
      <path class="st0" d="M183.56,243.47c-.06-.01-.14-.03-.2-.05-.09-.01-.17-.04-.27-.06-.02,0-.05-.01-.08-.02-2.89-.66-7.22-1.68-12-3.38-.06-.02-.12-.04-.17-.06-3.43-1.23-7.11-2.81-10.65-4.84-8.16-4.71-43.84-28.68-49.36-32.39l-.26-.17c-.3-.2-.46-.31-.46-.31l12.28-3.41.09-.02,2.72-.76h.07s.02,0,.05.05c.61.72,6.04,7.1,9.04,8.74,0,0,0,0,0,0,2.95,1.63,41.58,30.9,48.23,35.95.63.47.97.73.97.73"/>
    </clipPath>
    <linearGradient id="linear-gradient12" x1="150.43" y1="247.85" x2="143.25" y2="193.59" xlink:href="#linear-gradient"/>
  </defs>
  <path class="st28" d="M228.66,319.3c-.26-.13-.5-.07-.7.13-.12.11-.22.26-.28.4-.34.74-.47,1.54-.56,2.35-.04.36-.1.71-.15,1.07,0,.04-.03.08-.08.18-.64-1.67-1.72-2.89-3.2-3.79-.07.1-.13.16-.16.24-.08.2-.16.41-.22.62-.1.37-.08.71.24.98.1.08.2.17.3.25.15.11.32.19.46.31.15.13.29.2.46.06.25.17.45.39.62.62.35.48.64.99.84,1.55.14.38.25.77.36,1.15.03.1.06.19.17.21.13.03.2-.08.24-.17.07-.16.14-.33.17-.5.08-.43.15-.86.21-1.3.08-.49.14-.99.22-1.49.06-.43.11-.85.19-1.28.07-.37.32-.47.65-.27.29.18.5.44.64.75.03.07.02.15.04.23.01.06.02.18.05.18.08.01.19.01.24-.03.09-.08.15-.19.21-.3.29-.61.29-.81-.06-1.38-.21-.34-.5-.61-.87-.78"/>
  <path class="st28" d="M219.43,306.03c.12.1.25.21.38.31.18.13.39.24.56.39.18.16.35.24.57.07.31.22.55.48.77.77.43.59.79,1.23,1.03,1.91.17.47.31.95.45,1.43.04.12.07.24.21.26.16.03.24-.09.29-.21.09-.2.17-.4.21-.61.1-.53.18-1.07.26-1.61.09-.61.18-1.23.27-1.84.08-.53.14-1.06.23-1.58.08-.45.4-.58.8-.33.36.22.62.54.79.93.04.09.03.19.05.28.02.08.03.22.06.23.1.02.23.01.3-.04.11-.1.19-.23.26-.37.36-.75.35-1.01-.07-1.71-.26-.43-.62-.75-1.07-.97-.33-.16-.62-.08-.87.16-.14.14-.27.32-.35.5-.42.92-.58,1.91-.7,2.9-.05.44-.12.88-.19,1.32,0,.05-.04.1-.09.22-.79-2.06-2.12-3.57-3.96-4.69-.08.12-.16.2-.2.3-.1.25-.2.5-.28.77-.13.46-.09.88.3,1.21"/>
  <path class="st28" d="M157.43,305.68c.1.08.19.17.3.24.15.11.31.19.44.31.14.13.28.19.45.05.24.17.43.38.6.6.34.46.62.96.81,1.5.13.37.24.75.35,1.12.03.09.06.19.16.21.13.03.19-.07.23-.16.07-.16.13-.32.16-.48.08-.42.14-.84.21-1.26.07-.48.14-.96.21-1.45.06-.41.11-.83.18-1.24.07-.36.32-.45.63-.26.29.17.49.42.62.73.03.07.02.15.04.22.01.06.02.17.05.18.08.01.18.01.23-.03.09-.08.15-.18.2-.29.28-.59.28-.79-.05-1.34-.2-.33-.49-.59-.84-.76-.26-.12-.49-.06-.68.12-.11.11-.21.25-.28.39-.33.72-.45,1.5-.55,2.28-.04.35-.1.69-.15,1.04,0,.04-.03.08-.07.18-.62-1.62-1.67-2.81-3.11-3.68-.07.1-.13.16-.16.24-.08.2-.16.4-.22.6-.1.36-.07.69.24.95"/>
  <path class="st28" d="M114.07,310.54c.04.12.07.23.2.25.16.03.23-.09.28-.2.08-.19.16-.39.2-.59.1-.51.18-1.03.25-1.54.09-.59.17-1.18.26-1.76.07-.51.13-1.01.22-1.52.08-.43.39-.55.77-.32.35.21.6.52.76.89.03.08.03.18.05.27.01.08.03.21.06.22.09.02.22.01.28-.04.1-.09.18-.22.24-.35.34-.72.34-.97-.07-1.64-.25-.41-.59-.72-1.03-.93-.31-.15-.6-.08-.83.15-.14.13-.26.3-.34.48-.4.88-.56,1.83-.67,2.78-.05.42-.12.85-.18,1.27,0,.05-.04.1-.09.21-.76-1.98-2.04-3.43-3.8-4.5-.08.12-.16.2-.19.29-.1.24-.19.48-.26.73-.12.44-.09.85.29,1.16.12.1.24.21.36.3.18.13.38.23.54.37.18.15.34.23.55.07.3.21.53.46.74.74.42.57.75,1.17.99,1.83.16.45.29.91.43,1.37"/>
  <path class="st28" d="M160.9,327.24c.08-.55.15-1.1.21-1.66.07-.63.14-1.26.21-1.89.06-.54.1-1.09.18-1.63.07-.47.39-.6.81-.37.38.21.66.53.84.93.04.09.04.19.06.29.02.08.04.22.07.23.1.01.24,0,.3-.05.11-.1.19-.25.25-.39.34-.78.33-1.05-.13-1.75-.28-.43-.66-.75-1.13-.96-.34-.15-.64-.06-.89.19-.14.15-.26.33-.34.52-.39.96-.52,1.98-.61,3-.04.45-.09.91-.14,1.36,0,.05-.04.11-.09.23-.88-2.09-2.3-3.59-4.23-4.66-.08.13-.16.21-.2.31-.1.26-.19.53-.25.79-.12.47-.06.91.35,1.23.13.1.26.21.4.3.19.13.41.23.59.38.19.16.37.24.59.05.33.21.58.47.81.76.47.59.85,1.23,1.13,1.92.19.47.35.96.51,1.44.04.12.08.24.22.26.17.03.25-.1.29-.23.08-.21.16-.42.19-.64"/>
  <path class="st28" d="M247.59,306.27c.12.1.25.21.38.31.18.13.39.24.56.39.18.16.35.24.57.07.31.22.55.48.77.77.43.59.79,1.22,1.03,1.91.17.47.31.95.45,1.43.04.12.07.24.21.26.16.03.24-.09.29-.21.09-.2.17-.4.21-.61.1-.53.18-1.07.26-1.61.09-.61.18-1.23.27-1.84.08-.53.14-1.06.23-1.58.08-.45.4-.58.8-.33.36.22.62.54.79.93.04.09.03.19.05.28.02.08.03.22.06.23.1.02.23.01.3-.04.11-.1.19-.23.26-.37.36-.75.35-1.01-.07-1.71-.26-.43-.62-.75-1.07-.97-.33-.16-.62-.08-.87.16-.14.14-.27.32-.35.5-.42.92-.58,1.91-.7,2.9-.05.44-.12.88-.19,1.32,0,.05-.04.1-.09.22-.79-2.06-2.12-3.57-3.96-4.69-.08.12-.16.2-.2.3-.1.25-.2.5-.28.77-.13.46-.09.88.3,1.21"/>
  <path class="st28" d="M278.52,306.27c.12.1.25.21.38.31.18.13.39.24.56.39.18.16.35.24.57.07.31.22.55.48.77.77.43.59.79,1.22,1.03,1.91.17.47.31.95.45,1.43.04.12.07.24.21.26.16.03.24-.09.29-.21.09-.2.17-.4.21-.61.1-.53.18-1.07.26-1.61.09-.61.18-1.23.27-1.84.08-.53.14-1.06.23-1.58.08-.45.4-.58.8-.33.36.22.62.54.79.93.04.09.03.19.05.28.02.08.03.22.06.23.1.02.23.01.3-.04.11-.1.19-.23.26-.37.36-.75.35-1.01-.07-1.71-.26-.43-.62-.75-1.07-.97-.33-.16-.62-.08-.87.16-.14.14-.27.32-.35.5-.42.92-.58,1.91-.7,2.9-.05.44-.12.88-.19,1.32,0,.05-.04.1-.09.22-.79-2.06-2.12-3.57-3.96-4.69-.08.12-.16.2-.2.3-.1.25-.2.5-.28.77-.13.46-.09.88.3,1.21"/>
  <path class="st28" d="M292.22,317.19c-.26-.13-.5-.07-.7.13-.12.11-.22.25-.28.4-.34.74-.47,1.54-.56,2.34-.04.36-.1.71-.15,1.07,0,.04-.03.08-.08.18-.64-1.67-1.71-2.89-3.2-3.78-.07.1-.13.16-.16.24-.08.2-.16.41-.22.62-.1.37-.08.71.24.98.1.08.2.17.3.25.15.11.32.19.45.31.15.13.29.2.46.06.25.17.45.38.62.62.35.48.64.99.83,1.54.14.38.25.77.36,1.15.03.1.06.19.17.21.13.03.2-.08.24-.17.07-.16.14-.33.17-.5.08-.43.15-.86.21-1.3.08-.49.14-.99.21-1.48.06-.43.11-.85.19-1.28.07-.37.32-.46.64-.27.29.18.5.44.64.75.03.07.02.15.04.23.01.06.02.18.05.18.08.01.19.01.24-.03.09-.08.15-.19.21-.3.29-.61.29-.81-.06-1.38-.21-.34-.5-.61-.87-.78"/>
  <path class="st28" d="M260.41,349.69c-.09.3-.18.61-.28.91-.15.45-.45.54-.82.24-.1-.08-.17-.2-.24-.31-.5-.82-.46-1.75-.26-2.59.03-.14.07-.27.1-.41.19-.74.42-1.46.68-2.18.23-.64.62-1.22.78-1.89,0,0,0,0,0,0,.02-.09.02-.21-.06-.25-.07-.03-.14.03-.19.08-.25.25-.38.55-.52.87-.15.34-.3.68-.43,1.02-.55,1.36-1,2.76-1.2,4.22-.13.96-.14,1.94.34,2.83.15.27.38.53.63.7.36.25.59.18.89-.16.6-.69.86-1.64.88-2.54,0-.21-.09-.46-.3-.52"/>
  <path class="st28" d="M255.03,334.4c-.14.42-.42.51-.76.22-.09-.08-.16-.19-.22-.29-.47-.77-.43-1.63-.24-2.42.03-.13.06-.26.09-.38.18-.69.39-1.37.63-2.04.22-.6.58-1.15.73-1.77,0,0,0,0,0,0,.02-.08.02-.2-.06-.23-.06-.02-.13.03-.18.07-.23.23-.35.51-.49.81-.14.32-.28.63-.41.95-.52,1.27-.94,2.59-1.12,3.95-.12.9-.13,1.82.32,2.65.14.25.35.49.59.66.34.23.55.17.83-.15.56-.65.81-1.53.83-2.38,0-.2-.08-.43-.28-.48-.09.28-.17.57-.26.85"/>
  <path class="st28" d="M251.24,319.04c.17-.68.38-1.34.62-1.99.21-.59.56-1.12.71-1.73,0,0,0,0,0,0,.02-.08.02-.2-.06-.23-.06-.02-.13.02-.18.07-.23.23-.35.5-.47.79-.14.31-.27.62-.4.93-.5,1.24-.91,2.52-1.09,3.85-.12.88-.13,1.77.31,2.59.13.25.34.48.58.64.33.22.54.16.81-.15.55-.63.79-1.5.81-2.32,0-.2-.08-.42-.27-.47-.08.28-.16.55-.25.83-.13.41-.41.49-.75.22-.09-.08-.16-.18-.22-.28-.46-.75-.42-1.59-.23-2.36.03-.12.06-.25.09-.37"/>
  <path class="st28" d="M202.86,343.16c.12-.48.27-.94.44-1.41.15-.41.4-.79.5-1.22,0,0,0,0,0,0,.01-.06.01-.14-.04-.16-.04-.02-.09.02-.12.05-.16.16-.24.35-.33.56-.1.22-.19.44-.28.66-.36.88-.65,1.78-.77,2.72-.08.62-.09,1.25.22,1.83.09.17.24.34.41.45.23.16.38.12.57-.11.39-.45.55-1.06.57-1.64,0-.14-.06-.3-.19-.33-.06.19-.12.39-.18.59-.1.29-.29.35-.53.15-.06-.05-.11-.13-.15-.2-.32-.53-.3-1.13-.17-1.67.02-.09.04-.18.07-.26"/>
  <path class="st28" d="M262.79,313.58c.38.26.62.19.93-.17.63-.73.9-1.72.93-2.67,0-.23-.09-.49-.31-.54-.1.32-.19.64-.29.95-.16.47-.48.57-.86.25-.1-.09-.18-.21-.25-.33-.53-.86-.48-1.83-.27-2.72.03-.14.07-.29.11-.43.2-.78.44-1.54.71-2.29.24-.68.65-1.29.82-1.99,0,0,0,0,0-.01.02-.1.02-.22-.07-.26-.07-.03-.15.03-.2.08-.26.26-.4.58-.54.91-.16.35-.31.71-.46,1.07-.58,1.43-1.05,2.91-1.26,4.44-.14,1.01-.15,2.04.35,2.98.15.28.4.55.66.74"/>
  <path class="st28" d="M302.58,317.96c.24-.92.52-1.82.84-2.72.29-.8.77-1.53.97-2.36,0,0,0,0,0-.01.03-.11.03-.27-.08-.31-.09-.03-.18.03-.24.1-.31.31-.47.68-.65,1.08-.19.42-.37.84-.54,1.27-.69,1.69-1.25,3.44-1.49,5.26-.16,1.2-.18,2.42.42,3.53.18.34.47.66.78.87.45.31.73.22,1.1-.2.75-.86,1.07-2.04,1.1-3.17,0-.27-.11-.58-.37-.64-.12.38-.22.76-.35,1.13-.18.56-.57.67-1.02.29-.12-.1-.21-.25-.3-.39-.62-1.02-.57-2.17-.32-3.22.04-.17.08-.34.13-.51"/>
  <path class="st28" d="M276.56,327.17c.16-.64.37-1.28.59-1.9.2-.56.54-1.07.68-1.65,0,0,0,0,0,0,.02-.08.02-.19-.06-.22-.06-.02-.12.02-.17.07-.22.22-.33.48-.45.75-.13.29-.26.59-.38.89-.48,1.18-.87,2.41-1.04,3.68-.11.84-.13,1.69.29,2.47.13.24.33.46.55.61.31.21.51.16.77-.14.52-.6.75-1.43.77-2.22,0-.19-.08-.4-.26-.45-.08.26-.16.53-.24.79-.13.39-.4.47-.71.21-.09-.07-.15-.17-.21-.27-.44-.71-.4-1.52-.22-2.25.03-.12.06-.24.09-.36"/>
  <path class="st28" d="M214.03,314.42c.4.28.67.2,1-.18.68-.78.97-1.85,1-2.87,0-.24-.1-.52-.33-.58-.11.34-.2.69-.31,1.02-.17.51-.51.61-.92.27-.11-.09-.19-.23-.27-.35-.57-.93-.52-1.97-.29-2.92.04-.15.08-.31.11-.46.21-.84.47-1.65.77-2.46.26-.73.7-1.38.88-2.14,0,0,0,0,0-.01.02-.1.03-.24-.07-.28-.08-.03-.16.03-.22.09-.28.28-.43.62-.59.98-.17.38-.33.76-.49,1.15-.62,1.53-1.13,3.12-1.35,4.77-.15,1.09-.16,2.19.38,3.2.16.31.43.6.71.79"/>
  <path class="st28" d="M197.13,310.5c.27.18.44.13.66-.12.44-.51.64-1.21.65-1.88,0-.16-.07-.34-.22-.38-.07.22-.13.45-.21.67-.11.33-.34.4-.61.18-.07-.06-.13-.15-.18-.23-.37-.61-.34-1.29-.19-1.92.02-.1.05-.2.08-.3.14-.55.31-1.08.5-1.62.17-.48.46-.91.58-1.4,0,0,0,0,0,0,.02-.07.02-.16-.05-.18-.05-.02-.11.02-.14.06-.18.19-.28.41-.38.64-.11.25-.22.5-.32.76-.41,1.01-.74,2.05-.89,3.13-.1.71-.11,1.44.25,2.1.11.2.28.39.47.52"/>
  <path class="st28" d="M145.92,329.79c.14-.55.31-1.08.5-1.62.17-.48.46-.91.58-1.4,0,0,0,0,0,0,.02-.07.02-.16-.05-.18-.05-.02-.1.02-.14.06-.18.19-.28.41-.38.64-.11.25-.22.5-.32.76-.41,1.01-.74,2.05-.89,3.13-.1.71-.11,1.44.25,2.1.11.2.28.39.47.52.27.18.44.13.66-.12.44-.51.64-1.21.65-1.88,0-.16-.07-.34-.22-.38-.07.22-.13.45-.21.67-.11.33-.34.4-.61.18-.07-.06-.13-.15-.18-.23-.37-.61-.34-1.29-.19-1.92.02-.1.05-.2.08-.3"/>
  <path class="st28" d="M114.16,331.77c.3.2.49.15.73-.14.5-.57.71-1.36.73-2.1,0-.18-.07-.38-.24-.43-.08.25-.15.5-.23.75-.12.37-.38.45-.68.2-.08-.07-.14-.16-.2-.26-.41-.68-.38-1.44-.21-2.14.03-.11.05-.23.08-.34.16-.61.35-1.21.56-1.8.19-.53.51-1.01.64-1.57,0,0,0,0,0,0,.02-.08.02-.18-.05-.2-.06-.02-.12.02-.16.07-.2.21-.31.45-.43.72-.12.28-.24.56-.36.84-.46,1.12-.83,2.29-.99,3.49-.11.8-.12,1.6.28,2.34.12.22.31.44.52.58"/>
  <path class="st28" d="M120.27,339.98c.16-.61.35-1.21.56-1.8.19-.53.51-1.01.64-1.57,0,0,0,0,0,0,.02-.08.02-.18-.05-.2-.06-.02-.12.02-.16.07-.2.21-.31.45-.43.72-.12.28-.24.56-.36.84-.46,1.12-.83,2.29-.99,3.49-.11.8-.12,1.6.28,2.34.12.22.31.44.52.58.3.2.49.15.73-.14.5-.57.71-1.36.73-2.1,0-.18-.07-.38-.24-.43-.08.25-.15.5-.23.75-.12.37-.38.45-.68.2-.08-.07-.14-.16-.2-.26-.41-.68-.38-1.44-.21-2.14.03-.11.06-.23.08-.34"/>
  <path class="st28" d="M138.29,309.24c.22.15.37.11.55-.1.37-.43.54-1.02.55-1.59,0-.13-.06-.29-.18-.32-.06.19-.11.38-.17.57-.09.28-.28.34-.51.15-.06-.05-.11-.12-.15-.19-.31-.51-.29-1.09-.16-1.61.02-.09.04-.17.06-.26.12-.46.26-.91.42-1.36.14-.4.39-.76.49-1.18,0,0,0,0,0,0,.01-.06.01-.13-.04-.15-.04-.02-.09.02-.12.05-.15.16-.24.34-.32.54-.09.21-.18.42-.27.64-.34.85-.62,1.72-.75,2.63-.08.6-.09,1.21.21,1.77.09.17.24.33.39.44"/>
  <path class="st28" d="M164.89,350.46c-.07.22-.13.45-.21.67-.11.33-.34.4-.61.18-.07-.06-.13-.15-.18-.23-.37-.61-.34-1.29-.19-1.92.02-.1.05-.2.08-.3.14-.55.31-1.08.5-1.62.17-.48.46-.91.58-1.4,0,0,0,0,0,0,.02-.07.02-.16-.05-.18-.05-.02-.11.02-.14.06-.18.19-.28.41-.38.64-.11.25-.22.5-.32.76-.41,1.01-.74,2.05-.89,3.13-.1.71-.11,1.44.25,2.1.11.2.28.39.47.52.27.18.44.13.66-.12.44-.51.64-1.21.65-1.88,0-.16-.07-.34-.22-.38"/>
  <path class="st28" d="M283.5,350.79c-.06.21-.12.42-.19.62-.1.31-.31.37-.56.16-.07-.06-.12-.14-.17-.21-.34-.56-.32-1.2-.18-1.78.02-.09.05-.19.07-.28.13-.51.29-1.01.47-1.5.16-.44.43-.84.54-1.3,0,0,0,0,0,0,.01-.06.02-.15-.04-.17-.05-.02-.1.02-.13.05-.17.17-.26.38-.36.6-.1.23-.2.47-.3.7-.38.94-.69,1.91-.83,2.91-.09.66-.1,1.34.23,1.95.1.19.26.36.43.48.25.17.41.12.61-.11.41-.48.59-1.13.61-1.75,0-.15-.06-.32-.2-.36"/>
  <path class="st28" d="M358.6,320.98c1.22.88,2.03-1.08,2.26-1.86.09.19.19.38.32.56.47.61,1.58,1.13,2.12.33,1.28-1.89-.49-3.67-.95-5.44-.04-.15-.29.48-.3.51-.09.28-.24.69-.17.99.19.74.59,1.38.93,2.07.08.16.14.44.22.66-.1.03-.2.05-.35.02-1.87-.34-1.54-2.93-2.26-4.14-.09-.15-.29.47-.3.51-.07.21-.3.77-.17.99.46.77.49,1.69.74,2.52-.19.53-.73,1.02-1.39.86-.69-.18-.72-.93-.72-1.47,0-.65.09-2-.59-2.4-.01,0-.71,1.4-.42,1.57.6.35.51,1.57.52,2.16,0,.54-.02,1.2.49,1.56"/>
  <path class="st28" d="M374.02,351.38c-.36-.04-.73-.12-1.05-.3-.12-.07-.24-.15-.33-.26-.07-.08-.1-.17-.15-.26.36-.42,1.41-1.65,1.53-1.78.48-.55.93-1.11,1.22-1.8.19-.46.64-1.49.33-1.96-.16-.25-.51-.26-.78-.28-.48-.03-.98-.04-1.45.1-.69.21-1.07.72-1.29,1.38-.1.3-.32.79-.26,1.11.06.28.18-.13.22-.25.2-.59,1.29-.76,1.86-.76.31,0,.67-.02.96.09.06.02.11.05.15.08-.89,1.2-2.23,2.16-2.72,3.61-.2.59-.48,1.42-.23,2.03.26.63,1.04.8,1.64.85,1.39.12,2.86-.32,4.07-.99,1.31-.73,2.37-1.78,3.13-3.07.19-.31.27-.73.33-1.09,0-.01,0-.03,0-.05,0,0,0,.01.01.02,0-.03,0-.05,0-.08-.05-.04-.1-.07-.15-.11-1.42,2.31-4.29,4.07-7.06,3.76"/>
  <path class="st28" d="M343.72,330.08c.36.25.59.18.89-.16.6-.7.86-1.65.89-2.55,0-.22-.09-.46-.3-.52-.09.3-.18.61-.28.91-.15.45-.46.54-.82.24-.1-.08-.17-.2-.24-.31-.5-.82-.46-1.75-.26-2.6.03-.14.07-.27.1-.41.19-.74.42-1.47.68-2.19.23-.65.62-1.23.78-1.9,0,0,0,0,0,0,.02-.09.02-.21-.06-.25-.07-.03-.14.03-.19.08-.25.25-.38.55-.52.87-.15.34-.3.68-.44,1.02-.55,1.36-1.01,2.78-1.2,4.24-.13.97-.15,1.95.34,2.85.15.27.38.53.63.7"/>
  <path class="st28" d="M353.66,310.14c.24.17.4.12.6-.11.4-.47.58-1.11.6-1.72,0-.14-.06-.31-.2-.35-.06.2-.12.41-.19.61-.1.3-.31.37-.55.16-.07-.06-.12-.13-.16-.21-.34-.55-.31-1.18-.17-1.75.02-.09.04-.18.07-.28.13-.5.28-.99.46-1.47.16-.43.42-.83.53-1.28,0,0,0,0,0,0,.01-.06.02-.14-.04-.17-.05-.02-.1.02-.13.05-.17.17-.26.37-.35.58-.1.23-.2.46-.29.69-.37.92-.68,1.87-.81,2.85-.09.65-.1,1.31.23,1.91.1.18.25.36.43.47"/>
  <path class="st28" d="M345.79,310.14c.24.17.4.12.6-.11.4-.47.58-1.11.6-1.72,0-.14-.06-.31-.2-.35-.06.2-.12.41-.19.61-.1.3-.31.37-.55.16-.07-.06-.12-.13-.16-.21-.34-.55-.31-1.18-.17-1.75.02-.09.04-.18.07-.28.13-.5.28-.99.46-1.47.16-.43.42-.83.53-1.28,0,0,0,0,0,0,.01-.06.02-.14-.04-.17-.05-.02-.1.02-.13.05-.17.17-.26.37-.35.58-.1.23-.2.46-.29.69-.37.92-.68,1.87-.81,2.85-.09.65-.1,1.31.23,1.91.1.18.25.36.43.47"/>
  <path class="st28" d="M347.32,343.79s-.35.83-.37.91c-.06.21-.28.77-.13.97.72.97,1.35,2.02,1.74,3.18.37,1.09.61,2.37.33,3.51-.03.11-.19.72-.03.7.17-.02.37-1.02.4-1.13.37-1.47.41-2.99-.02-4.45-.38-1.34-1.09-2.56-1.92-3.67"/>
  <path class="st28" d="M382.81,321.57c.11-.25.21-.5.32-.74.17-.37.44-.42.72-.13.08.08.13.19.18.29.35.74.23,1.53-.02,2.22-.04.11-.08.23-.12.34-.23.61-.49,1.2-.78,1.79-.26.52-.64.98-.84,1.54,0,0,0,0,0,0-.03.08-.04.18.03.22.06.03.12,0,.17-.05.23-.19.37-.43.52-.69.16-.27.31-.55.46-.83.59-1.1,1.1-2.26,1.4-3.48.2-.81.3-1.64-.03-2.44-.1-.24-.27-.48-.47-.65-.28-.24-.48-.21-.77.06-.57.53-.88,1.31-.98,2.08-.02.18.03.4.2.47"/>
  <path class="st28" d="M342.76,347.86c-.16-.18-.3-.18-.5-.03-.42.3-.69.78-.82,1.26-.03.12-.01.26.09.32.09-.15.18-.31.27-.46.14-.23.32-.23.48-.02.04.06.07.13.09.2.16.51.02,1.01-.21,1.44-.04.07-.07.14-.11.21-.2.38-.42.74-.66,1.09-.21.32-.5.58-.68.92,0,0,0,0,0,0-.02.05-.04.11,0,.14.03.02.08,0,.12-.02.17-.1.28-.25.4-.4.13-.16.25-.33.37-.5.48-.66.91-1.37,1.21-2.13.2-.51.34-1.04.2-1.58-.04-.17-.13-.34-.25-.46"/>
  <path class="st28" d="M159.18,347.86c-.16-.18-.3-.18-.5-.03-.42.3-.69.78-.82,1.26-.03.12-.01.26.09.32.09-.15.18-.31.27-.46.14-.23.32-.23.48-.02.04.06.07.13.09.2.16.51.02,1.01-.21,1.44-.04.07-.07.14-.11.21-.2.38-.42.74-.66,1.09-.21.32-.5.58-.68.92,0,0,0,0,0,0-.02.05-.04.11,0,.14.03.02.08,0,.12-.02.17-.1.28-.25.4-.4.13-.16.25-.33.37-.5.48-.66.91-1.37,1.21-2.13.2-.51.34-1.04.2-1.58-.04-.17-.13-.34-.25-.46"/>
  <path class="st28" d="M376.39,324.75s0,0,0,0c0,0,0,0,0,0"/>
  <path class="st28" d="M352.72,314.61c5.39-3.5,11.19-6.28,16.98-9.05.28-.13.42-.76.51-1.03.09-.25.17-.51.22-.78,0-.03.05-.37,0-.35-5.82,2.78-11.66,5.58-17.08,9.1-.11.07-.21.37-.25.47-.12.27-.22.55-.3.83-.03.11-.22.9-.09.81"/>
  <path class="st28" d="M269.48,335.28c-.24.65-.52,1.27-.82,1.89-.27.55-.67,1.04-.88,1.63,0,0,0,0,0,0-.03.08-.04.19.03.23.06.03.13-.01.18-.05.25-.2.39-.46.55-.73.17-.29.33-.58.49-.87.63-1.17,1.17-2.39,1.49-3.68.21-.85.32-1.73-.03-2.58-.11-.26-.29-.51-.5-.69-.3-.26-.51-.22-.81.06-.61.56-.93,1.39-1.04,2.2-.03.19.03.42.22.49.11-.26.22-.53.34-.79.18-.39.46-.44.76-.13.08.08.13.2.19.3.37.78.24,1.61-.02,2.35-.04.12-.09.24-.13.36"/>
  <path class="st28" d="M218.34,325.57c-.16.44-.35.86-.56,1.28-.18.38-.46.7-.6,1.1,0,0,0,0,0,0-.02.05-.03.13.02.15.04.02.09,0,.12-.04.17-.14.27-.31.37-.49.11-.2.22-.39.33-.59.42-.79.79-1.62,1.01-2.49.14-.58.22-1.17-.02-1.74-.07-.17-.19-.35-.34-.47-.2-.17-.35-.15-.55.04-.41.38-.63.94-.7,1.49-.02.13.02.29.15.33.08-.18.15-.36.23-.53.12-.26.31-.3.51-.09.05.06.09.13.13.2.25.53.16,1.09-.01,1.59-.03.08-.06.16-.09.24"/>
  <path class="st28" d="M126.55,305.25c.07-.19.13-.38.2-.58.1-.29.3-.34.53-.14.06.05.11.13.15.2.31.53.26,1.13.11,1.66-.02.09-.05.17-.07.26-.13.47-.3.93-.48,1.38-.16.41-.42.77-.53,1.2,0,0,0,0,0,0-.02.06-.02.14.04.16.04.02.09-.01.13-.05.16-.16.25-.35.35-.54.1-.21.2-.43.3-.64.38-.86.69-1.75.85-2.68.1-.61.13-1.24-.16-1.82-.09-.18-.23-.35-.39-.46-.22-.16-.37-.13-.57.09-.4.43-.58,1.03-.61,1.61,0,.14.05.3.18.34"/>
  <path class="st28" d="M326.51,311.57h0c-.15.11-.32.26-.43.31-.23.12-.48.21-.73.27-.72.16-1.6.05-2-.63-.31-.54-.29-1.25-.11-1.93,0,0,.02,0,.03,0h.02s.01,0,.02,0c0,0,.02,0,.03.01.01,0,.03,0,.04,0,.94.21,2.08.5,2.84,1.12.23.19.35.39.46.65-.05.07-.1.13-.16.19M324.08,307.64c.2-.38.38-.85.39-1.25.01-.32-.06-.45-.27-.09-.98,1.68-1.64,3.6-1.8,5.54-.06.69-.06,1.49.52,1.98.56.48,1.41.43,2.07.22,1.49-.47,2.25-1.94,2.47-3.41.3-2.02-1.75-2.63-3.38-2.99Z"/>
  <path class="st28" d="M272.77,311.78h0c-.14.1-.3.24-.4.29-.21.11-.44.2-.68.25-.67.15-1.49.05-1.85-.59-.29-.51-.27-1.16-.1-1.79,0,0,.02,0,.03,0,0,0,.01,0,.02,0,0,0,.01,0,.02,0,0,0,.02,0,.03,0,.01,0,.02,0,.03,0,.87.19,1.93.46,2.63,1.04.21.18.32.36.43.6-.05.06-.09.12-.15.17M270.52,308.14c.19-.35.35-.79.36-1.16.01-.3-.05-.42-.25-.08-.91,1.56-1.52,3.34-1.67,5.14-.05.64-.06,1.38.48,1.84.52.44,1.31.4,1.92.21,1.39-.44,2.09-1.79,2.29-3.16.28-1.87-1.63-2.44-3.14-2.78Z"/>
  <path class="st28" d="M208.14,309.02h0c-.13.09-.27.22-.36.27-.19.1-.4.18-.62.23-.61.13-1.36.04-1.69-.54-.27-.46-.24-1.06-.09-1.63,0,0,.01,0,.02,0h.02s.01,0,.01,0h0s.02,0,.03,0c.01,0,.02,0,.03,0,.8.18,1.76.43,2.4.95.19.16.29.33.39.55-.04.06-.09.11-.13.16M206.08,305.69c.17-.32.32-.72.33-1.06,0-.27-.05-.38-.22-.08-.83,1.42-1.39,3.05-1.52,4.69-.05.59-.05,1.26.44,1.68.47.4,1.19.36,1.75.19,1.26-.4,1.9-1.64,2.09-2.89.25-1.71-1.48-2.23-2.86-2.54Z"/>
  <path class="st28" d="M151.61,307.9h0c-.13.09-.27.22-.36.27-.19.1-.4.18-.62.23-.61.13-1.36.04-1.69-.54-.27-.46-.24-1.06-.09-1.63,0,0,.01,0,.02,0h.02s.01,0,.02,0c0,0,.02,0,.03,0,.01,0,.02,0,.03,0,.8.18,1.76.42,2.4.95.19.16.29.33.39.55-.04.06-.09.11-.13.16M149.56,304.57c.17-.32.32-.72.33-1.06,0-.27-.05-.38-.22-.08-.83,1.42-1.39,3.05-1.52,4.69-.05.59-.05,1.26.44,1.68.47.4,1.19.36,1.75.19,1.26-.4,1.9-1.64,2.09-2.89.25-1.71-1.48-2.23-2.86-2.54Z"/>
  <path class="st28" d="M308.64,306.08c.28.46.68.8,1.13,1.1.08-.06.14-.09.19-.14.11-.12.21-.1.31.01.03.04.06.08.1.12.56.66.96,1.43,1.27,2.23.17.43.28.87.4,1.32.03.11.03.27-.03.34-.36.41-.53.92-.78,1.39-.04.07-.06.16-.06.24,0,.07.06.17.12.2.05.03.16,0,.22-.04.09-.05.15-.14.23-.2.51-.4,1.09-.28,1.42.31-.11.01-.21.03-.3.04-1.44.08-2.43.65-2.68,2.16-.26,1.62.2,3.22.7,4.75.49,1.51.85,3.09,1.22,4.63.72,3.08,1.22,6.22,1.08,9.39-.02.41.28-.21.31-.28.57-1.32.44-2.77.35-4.17-.1-1.59-.32-3.17-.63-4.73-.6-3.1-1.5-6.13-2.3-9.18-.07-.29-.13-.64.1-.83.1-.08.22-.1.34-.13.89-.17,1.91-.48,2.79-.13.21.08.35,0,.44-.16.12-.19.21-.4.31-.6.11-.24.13-.47-.02-.7-.09-.14-.15-.29-.24-.43-.26-.38-.53-.76-.82-1.11-.26-.32-.58-.55-1.02-.55-.04,0-.07-.02-.13-.04.07-.23.16-.45.21-.68.17-.65.33-1.31.48-1.97.15-.67.26-1.35.4-2.02.07-.34.11-.69.29-1,.23-.38.54-.43.86-.14.28.26.47.6.61.95.04.09.03.24.15.23.09,0,.22-.08.27-.16.15-.25.28-.52.4-.79.07-.17.06-.35-.05-.53-.1-.16-.17-.35-.27-.52-.18-.32-.41-.59-.74-.76-.29-.14-.57-.13-.81.05-.18.13-.36.3-.45.49-.27.58-.55,1.17-.72,1.79-.24.89-.38,1.8-.56,2.71-.01.07-.05.14-.09.24-.05-.08-.07-.11-.08-.14-.2-.45-.39-.9-.6-1.34-.59-1.24-1.49-2.23-2.58-3.04-.1-.07-.21-.13-.32-.18-.13-.06-.24-.03-.3.11-.12.33-.24.65-.36.98-.02.07-.03.17,0,.24.07.22.13.46.25.65"/>
  <path class="st28" d="M332.78,306.81c.35.59.87,1.02,1.44,1.4.1-.07.18-.11.24-.18.14-.16.27-.13.39.02.04.05.08.1.13.15.72.85,1.23,1.82,1.62,2.85.21.54.36,1.11.51,1.68.04.14.04.35-.04.44-.46.52-.68,1.17-.99,1.77-.05.09-.08.2-.07.3.01.09.07.21.15.25.07.03.2,0,.28-.05.11-.07.19-.18.3-.26.65-.5,1.39-.36,1.81.39-.14.02-.26.04-.39.05-1.84.11-3.1.83-3.41,2.75-.33,2.06.26,4.11.89,6.05.63,1.92,1.09,3.93,1.55,5.9.92,3.92,1.56,7.93,1.37,11.96-.02.52.35-.27.39-.36.72-1.68.56-3.54.44-5.31-.13-2.03-.41-4.04-.8-6.03-.77-3.95-1.91-7.81-2.93-11.7-.1-.36-.16-.82.13-1.05.12-.1.28-.13.44-.16,1.13-.22,2.44-.61,3.56-.16.27.11.44,0,.56-.2.15-.24.27-.51.39-.76.14-.3.17-.6-.03-.89-.11-.17-.19-.38-.31-.54-.34-.48-.67-.96-1.04-1.42-.33-.4-.74-.7-1.3-.7-.05,0-.09-.03-.16-.05.1-.3.2-.58.27-.87.21-.83.42-1.67.61-2.51.19-.85.33-1.72.51-2.57.09-.43.14-.88.38-1.27.29-.48.69-.55,1.1-.18.36.34.59.76.77,1.21.05.12.04.3.19.29.12,0,.28-.1.34-.21.19-.32.36-.67.5-1.01.09-.22.08-.45-.06-.67-.13-.21-.21-.45-.34-.66-.23-.4-.52-.75-.95-.97-.36-.18-.72-.16-1.03.07-.23.17-.46.38-.58.63-.34.74-.71,1.49-.92,2.28-.3,1.13-.48,2.3-.72,3.45-.02.09-.07.18-.12.31-.06-.1-.09-.14-.11-.18-.26-.57-.5-1.15-.77-1.71-.75-1.58-1.89-2.84-3.29-3.87-.12-.09-.27-.16-.41-.23-.17-.08-.31-.04-.38.15-.16.41-.31.83-.45,1.25-.03.09-.03.21,0,.31.09.28.17.58.32.83"/>
  <path class="st28" d="M329.65,320.29s0,0,0,0c0,0,0,.01,0,0"/>
  <path class="st28" d="M266.09,328.8c9.08-7.65,19.53-13.41,30.17-18.59,3-1.46,6.02-2.88,9.05-4.29.33-.15.44-1.03.51-1.34.03-.11.17-1.45.13-1.43-10.74,5-21.49,10.13-31.29,16.84-2.78,1.91-5.47,3.94-8.05,6.11-.36.31-.45,1.24-.53,1.67-.03.13-.15,1.16.02,1.02"/>
  <path class="st28" d="M132.17,330.69c-.38.32-.47,1.31-.56,1.77-.03.14-.16,1.23.02,1.08,9.59-8.08,20.63-14.17,31.87-19.63,3.17-1.54,6.37-3.04,9.56-4.53.35-.16.47-1.09.54-1.42.03-.12.18-1.53.13-1.51-11.34,5.28-22.71,10.7-33.06,17.79-2.94,2.01-5.78,4.16-8.51,6.46"/>
  <path class="st28" d="M213.82,321.63c-.02.11-.13.9.01.8,4.71-3.5,10.17-5.74,15.21-8.69.26-.15.34-.77.4-1.04.02-.1.11-1.12.1-1.11-5.07,2.97-10.57,5.22-15.31,8.75-.28.21-.35.98-.41,1.3"/>
  <path class="st28" d="M237.73,346.98c-.83,2.06-2.15,4.19-4.45,4.77-.47.12-.96.17-1.44.1-.21-.03-.45-.08-.62-.22-.29-.24-.27-.35-.1-.62.41-.67.97-1.23,1.56-1.76.25-.17.49-.37.7-.6.15-.16.18-.49.22-.7.01-.06.06-.49,0-.43-.23.2-.47.4-.7.6-.53.36-1.18.59-1.78.47-.09-.02-.19-.04-.27-.09-.07-.05-.12-.13-.17-.19.02-.02.04-.05.05-.06.3-.31.98-.59,1.16,0,.03.1.19-.36.19-.38.05-.2.17-.52.11-.72-.23-.79-1.08-.27-1.4.15-.35.45-.55,1.14-.55,1.7,0,.67.61.82,1.17.74-.15.23-.29.48-.4.74-.21.5-.4,1.14-.35,1.68.07.67.67.83,1.26.85,2.99.09,4.77-2.78,5.75-5.2.1-.24.2-.56.19-.82,0-.17-.02-.25-.11-.03"/>
  <path class="st28" d="M173.15,320.35h0c-.5-.17-1-.34-1.47-.58-.21-.11-.43-.24-.61-.4-.07-.06-.14-.13-.19-.21.5-.63,1.32-1.19,1.97-.64.38.32.49.94.59,1.41.04.18.07.37.09.56-.12-.04-.24-.09-.37-.13M175.61,321.85c-.4-.55-.96-.9-1.58-1.16,0-.07.02-.14.02-.21.06-.72.04-1.44-.09-2.16-.1-.55-.22-1.26-.67-1.64-.45-.38-1.07-.16-1.5.14-.86.62-1.42,1.77-1.59,2.8-.07.39-.08.81.1,1.17.31.64,1.1.92,1.72,1.15.3.11.61.21.91.32-.18.26-.36.51-.55.76-.44.58-.9,1.14-1.38,1.68-.24.27-.49.54-.74.8-.12.13-.26.26-.38.39-.13.13-.27.25-.4.38l-.41.37c-.14.12-.27.25-.41.37-.28.24-.57.48-.85.72-1.15.96-2.32,1.9-3.51,2.83-.6.46-1.19.92-1.79,1.38-.6.46-1.21.92-1.81,1.39-.01,0-.01.02,0,.03,0,.01.02.02.04.01.7-.3,1.38-.64,2.06-1,.67-.36,1.34-.73,1.99-1.13,1.3-.79,2.57-1.65,3.78-2.58,1.21-.92,2.42-1.94,3.41-3.17.49-.62.91-1.3,1.22-2.03.02-.05.04-.09.06-.14.02-.05.03-.09.05-.14.03-.09.07-.19.1-.28.05-.14.09-.29.13-.43.63.27,1.22.61,1.64,1.19.03.04.16-.24.16-.25.08-.2.15-.42.2-.64.05-.22.1-.44.12-.66,0-.1.03-.21-.03-.29Z"/>
  <path class="st17" d="M325.21,346.62c-.36-.22-2.55,3.34-2.22,3.54.98.59,1.94,1.22,2.88,1.88.24.17,1.24-1.46,1.34-1.62.11-.18,1.15-1.73.88-1.91-.94-.66-1.9-1.29-2.88-1.88"/>
  <path class="st17" d="M309.25,338.38c.98.59,1.94,1.22,2.88,1.88.24.17,1.24-1.46,1.34-1.63.11-.18,1.15-1.73.88-1.91-.94-.66-1.9-1.29-2.88-1.88-.36-.22-2.55,3.34-2.22,3.54"/>
  <path class="st17" d="M273.89,347.17c-.39-.23-2.76,3.61-2.4,3.83,1.06.64,2.1,1.32,3.12,2.03.26.18,1.34-1.58,1.45-1.76.12-.2,1.24-1.87.95-2.07-1.02-.71-2.06-1.39-3.12-2.03"/>
  <path class="st17" d="M206.63,338.96c.98.59,1.94,1.22,2.88,1.88.24.17,1.24-1.46,1.34-1.63.11-.18,1.15-1.73.88-1.91-.94-.66-1.9-1.29-2.88-1.88-.36-.22-2.55,3.34-2.22,3.54"/>
  <path class="st17" d="M221.92,347.31c-.26-.26-2.55,1.93-3.02,2.73-.77-.87-1.57-1.72-2.39-2.54-.31-.3-3.37,2.73-3.09,3.01.84.83,1.65,1.7,2.43,2.59.2.23,1.59-1.16,1.74-1.3.12-.12,1.02-.95,1.29-1.42.82.82,1.62,1.66,2.38,2.53.2.23,1.59-1.16,1.74-1.3.16-.15,1.57-1.45,1.35-1.7-.78-.89-1.59-1.75-2.43-2.59"/>
  <path class="st17" d="M136.79,347.3c-.77-.87-1.57-1.72-2.39-2.54-.31-.3-3.37,2.73-3.09,3.01.84.83,1.65,1.7,2.43,2.59.2.23,1.59-1.16,1.74-1.3.12-.12,1.02-.95,1.29-1.42.82.82,1.62,1.66,2.38,2.53.2.23,1.59-1.16,1.74-1.3.16-.15,1.57-1.45,1.35-1.7-.78-.89-1.59-1.75-2.43-2.59-.26-.26-2.55,1.93-3.02,2.73"/>
  <path class="st17" d="M198.42,318.37c.24.17,1.24-1.46,1.34-1.63.11-.18,1.15-1.73.88-1.91-.94-.66-1.9-1.29-2.88-1.88-.36-.22-2.55,3.34-2.22,3.54.98.59,1.94,1.22,2.88,1.88"/>
  <path class="st17" d="M170.42,347.4c-.36-.22-2.55,3.34-2.22,3.54.98.59,1.94,1.22,2.88,1.88.24.17,1.24-1.46,1.34-1.63.11-.18,1.15-1.73.88-1.91-.94-.66-1.9-1.29-2.88-1.88"/>
  <path class="st17" d="M331.52,326.26c0,.07-.1.9-.25,1.55-.04.31-.09.62-.16.93-.05.26-.14.83-.33,1.06-1.17,1.4-3,2.12-4.79,1.78.12.02.23,1.33.25,1.48.06.5.09,1.01.09,1.52,0,1.08-.17,2.15-.33,3.22-.11.75-.23,1.51-.51,2.21-.36.93-.99,1.74-1.66,2.48-1.45,1.58-3.15,2.78-4.95,3.9-4.67,2.9-10.7,5.78-16.11,3-1.92-.99-3.12-2.43-3.84-4.11-.02.04-.03.08-.05.12-1.44,3.56-4.04,7.76-8.43,7.63-.86-.03-1.74-.27-1.84-1.25-.08-.8.2-1.74.51-2.47.16-.38.36-.74.58-1.08-.82.12-1.71-.1-1.72-1.09,0-.83.29-1.84.8-2.49.47-.61,1.72-1.37,2.06-.22.09.31-.08.77-.16,1.06-.01.03-.24.71-.28.56-.26-.89-1.26-.47-1.7-.01-.03.03-.05.06-.08.09.08.09.14.21.25.27.12.07.26.11.39.14.89.18,1.83-.17,2.61-.69.34-.3.69-.6,1.03-.89.1-.09.03.54,0,.63-.06.3-.11.79-.32,1.02-.3.33-.65.63-1.02.88-.86.77-1.68,1.59-2.29,2.57-.24.39-.27.56.15.91.25.21.6.29.92.33.7.09,1.43.03,2.11-.15,3.14-.79,5.03-3.56,6.26-6.37-.74-2.05-.83-4.41-.67-6.73-.92.43-1.85.85-2.78,1.25-1.82,1.06-3.68,2.03-5.6,2.9-2.21,1-4.52,1.99-6.88,2.59-3.75.96-8.57-.47-9.45-4.46-.25.9-.53,1.81-.87,2.64-.58,1.4-1.38,2.82-2.72,3.62-2.01,1.2-4.72.74-6.06-1.21-.71-1.02-1.03-2.22-1.26-3.43-.3-1.59-.51-3.2-.72-4.8-.11-.83-.21-1.67-.31-2.5-.04.13-.09.26-.14.39,0,.11-.02.21-.03.26-.11,1.01-.25,2.26-.75,3.16-1.28,2.3-2.94,4.31-4.85,6.11-2.98,2.8-7.16,6.31-11.58,5.5-5.81-1.06-4.04-8.8-3.17-12.71.03-.12.44-1.86.72-1.54.13.15,0,.99-.02,1.11-.07.61-.19,1.2-.32,1.8-.21.93-.33,1.92-.06,3.02.27,1.12.84,2.18,1.78,2.87,2,1.45,4.8.99,6.92.07,2.31-1,4.31-2.67,6.15-4.36,1.76-1.62,3.4-3.42,4.62-5.47.15-2.57-.6-5.25-1.13-7.74-.58-2.72-1.23-5.42-1.96-8.11-.09-.33.02-.77.08-1.1.1-.6.24-1.19.42-1.78.04-.12.6-1.91.8-1.5,1.4,2.86,2.25,5.93,2.84,9.04.56,2.96.87,5.96,1.26,8.94.19,1.49.39,2.99.65,4.47.2,1.16.44,2.36,1.03,3.4,1.13,1.99,3.7,2.72,5.76,1.78,1.85-.84,2.44-2.54,2.89-4.29.07-.36.16-.72.27-1.07.06-.23.12-.46.18-.69.04-.12.53-1.84.8-1.5.08.1.03.53-.02.82.17,1.96,1.72,3.52,3.46,4.29,1.98.87,4.18.88,6.24.3.23-.06.46-.13.69-.2-.38-.24-.74-.51-1.07-.8-1.02-.87-1.87-1.96-2.47-3.16-.91-1.81-.85-3.61-.43-5.56.31-1.44.71-3.48,2.21-4.17,1.47-.68,3.35.29,4.83.54,1.54.25,3.18.26,4.66-.31.72-.28,1.39-.69,1.95-1.22.22-.21.42-.44.6-.69.2-.27.36-.75.28-.43.16-.53.42-1.3.62-1.07.13.15-.02.99-.04,1.11-.08.6-.19,1.21-.35,1.79-.47,1.68-1.06,3.25-2.53,4.31-1.23.88-2.68,1.28-4.18,1.3-1.55.02-3-.39-4.5-.74-.72-.17-1.51-.3-2.22,0-.03.01-.06.03-.09.04.81,2.16,2.71,3.99,4.71,4.97,3.08,1.5,6.06.25,8.97-1.02.72-.31,1.43-.63,2.14-.95h.03c.17-.09.34-.17.52-.25l.73-.34h0c.23-.1.46-.21.69-.32l.03-.02c1.59-.75,3.17-1.53,4.73-2.33.1-.05.09.66.08.73-.04.56-.14,1.11-.26,1.66-.12.54-.28,1.96-.83,2.24-1.55.8-3.11,1.58-4.68,2.33.09,1.27.38,2.52.99,3.73,2.44,4.78,8.55,5.23,13.09,3.71,2.57-.86,4.93-2.26,7.21-3.71,1.88-1.19,3.85-2.58,5-4.54-.23-1.85-1.03-3.63-1.87-5.27-.48-.94-1.15-1.87-1.33-2.92-.28-1.6.06-3.5.56-5.02.14-.41.27-.31.33.04.62,3.45,4.94,4.2,7.4,2.32-.01-.02-.02-.05-.03-.07-.25-.57-.6-1.07-1.05-1.51-.17-.17-.14-.49-.15-.72-.01-.56.04-1.12.11-1.67.07-.55.15-1.11.3-1.64,0,0,0,0,0,0,.03-.08.23-.75.32-.66,1.83,1.82,1.81,4.23,1.55,6.64"/>
  <path class="st17" d="M241.79,308.03c0,.16,0,.31.02.46.86,5.5,1.8,10.99,2.82,16.46,1,5.37,2.39,10.81,2.14,16.32-.04.96.62-.53.68-.68.39-.96.79-2.09.83-3.14.25-5.59-1.07-11.06-2.1-16.52-.64-3.4-1.24-6.8-1.81-10.21.19-.56.36-1.13.49-1.71.06-.3.24-.81.13-1.1-.6-1.52-1.21-3.03-1.84-4.54-.17-.42-.83,1.34-.87,1.46-.2.57-.37,1.16-.5,1.76-.06.29-.25.82-.13,1.1.05.11.09.22.14.33"/>
  <path class="st17" d="M224.18,335.72h0c-.59-.75-1.18-1.54-1.83-2.26.07,0,.14-.01.21-.01,1.92-.1,3.86.06,5.69.57-1.12.43-2.26.86-3.34,1.38-.24.12-.48.22-.73.33M126.72,321.84h0c-.99-1.82-3.29-2.28-5.12-2.95-1.17-.43-2.32-.97-3.38-1.63-.5-.31-.99-.67-1.37-1.13-.1-.12-.19-.25-.27-.39.42-.18.91-.28,1.24-.34,1.01-.18,2.06-.19,3.09-.24,2.45-.12,4.91-.14,7.37-.09,2.84.05,5.67.2,8.5.37-3.56,1.82-6.98,3.9-10.06,6.4ZM235.69,320.94c-.64-3.4-1.24-6.8-1.81-10.22.19-.56.36-1.13.49-1.71.06-.3.24-.81.13-1.1-.6-1.52-1.21-3.03-1.84-4.54-.17-.42-.83,1.34-.87,1.46-.2.57-.37,1.16-.5,1.75-.06.3-.24.82-.13,1.1.05.11.09.22.14.33,0,.16,0,.31.02.46.86,5.5,1.8,10.99,2.82,16.46.87,4.67,2.03,9.4,2.16,14.17-1.71,1.09-3.81,1.85-5.81,1.49-1.45-.26-2.66-1.04-3.73-2.02.3-.12.6-.24.9-.35,1.61-.61,3.21-1.25,4.56-2.33.23-.18.42-.75.51-.98.06-.16.12-.32.18-.49.15-.41.27-.78.3-.84.1-.33.78-2.1.38-2.36-3.02-1.99-6.68-2.57-10.24-2.29-1.78.14-3.58.43-5.3.92-1.42.4-2.66,1.04-3.44,2.33-.5.82-.78,1.87-.99,2.79-.08.35-.21.76-.2,1.12,0,.07-.02.53.17.3,1.34-1.56,3.67-1.3,5.27-.29.56.36,1.07.79,1.55,1.26-.45.25-.9.51-1.35.77-1.16.68-2.32,1.35-3.45,2.08-2.71,1.73-5.22,3.76-7.63,5.88-2.04,1.79-4.45,4.06-7.31,4.25-1.35.09-2.63-.47-3.34-1.65-.52-.87-.8-2.13-.57-3,.14-.54.27-1.1.36-1.65,2.17-1.81,4.14-3.88,5.89-6.01,0-.17.38-.75.44-.95.13-.41.24-.83.35-1.25.21-.84.36-1.69.46-2.55.08-.7.15-1.41.13-2.11,0-.19-.15-2.11-.28-2.11,1.7.02,3.49-.77,4.83-1.69.2-.14.38-.84.44-1.02.12-.37.22-.74.31-1.12.3-.79.45-1.77.55-2.51.16-1.17.2-2.31-.25-3.43-.38-.94-1.02-1.74-1.7-2.48-.12-.12-.82,2.07-.86,2.23-.13.54-.24,1.1-.28,1.66-.02.21-.09.56.07.73.51.55,1,1.13,1.35,1.8.05.1.1.2.14.3-1.42.72-3.15,1.15-4.64.77-1.86-.47-2.9-2.24-3.76-3.81-.22-.4-.73,1.39-.77,1.52-.16.59-.29,1.18-.38,1.79-.04.29-.19.84-.05,1.11.94,1.79,1.93,3.56,2.76,5.39.58,1.29,1.11,2.68,1.27,4.11-1.34,1.55-2.8,3.02-4.35,4.35-1.75,1.49-3.62,2.86-5.56,4.12.21-.49.36-.99.51-1.5.53-1.81.78-3.63.84-5.44,1.24-.38,2.5-.73,3.75-1.08.65-.18.98-1.56,1.16-2.12.05-.15.56-2.46.3-2.39-1.78.51-3.59.81-5.42.97-.32-2.84-.94-5.68-1.54-8.48-.75-3.47-1.56-6.93-2.27-10.41,0-.02.02-.04.02-.05.22-.57.4-1.15.52-1.75.06-.32.21-.81.08-1.12-.42-.98-.81-1.97-1.17-2.97-.16-.46-.31-.92-.46-1.38-.1-.32-.29-.73-.38-1.11,0-.03,0-.06.01-.09.02-.15.12-.69-.09-.76-.21-.07-.47.48-.52.56-.64,1.03-1.12,2.48-1.14,3.69,0,.29.05.58.12.87,0,.16,0,.32.02.47.73,5.78,2.09,11.44,3.34,17.12.4,1.84.8,3.68,1.15,5.53-1.9.05-3.8-.04-5.7-.21-1.6-.14-3.19-.34-4.78-.55.08-.27.15-.53.21-.76.27-.66.45-1.4.54-1.96.34-2,.35-3.93.06-5.93-.28-1.91-.74-3.8-1.09-5.7-.27-1.45-.52-2.9-.75-4.35.03-.08.06-.13.06-.15.22-.57.4-1.15.52-1.75.06-.31.22-.82.08-1.12-.81-1.81-1.39-3.69-1.74-5.64-.1-.55-1.01,1.33-1.04,1.4-.32.83-.77,1.95-.6,2.87.03.17.07.34.1.51,0,.14,0,.28,0,.42.36,3.64.85,7.27,1.5,10.87.31,1.75.69,3.5,1.03,5.25.25,1.27.51,2.64.51,3.98-1.02.46-2.25.57-3.31.79-1.39.29-2.77.58-4.16.86-.18.03-.35.07-.52.11-.64.15-.99,1.58-1.16,2.11-.05.15-.59,2.45-.3,2.39.17-.04.35-.07.52-.11,2.02-.37,4.07-.14,6.1.14,2.25.31,4.5.62,6.76.82.17.01.35.03.52.04-1.87.85-3.76,1.65-5.72,2.29-6.25,2.05-13.55,2.89-19.78.29-2.78-1.16-5.31-3.07-6.54-5.86.09-.57.21-1.65-.13-1.42-1.45.98-2.39,2.47-3.31,3.93-.93,1.47-1.97,3.07-3.67,3.71-1.45.55-3.19.13-4.33-.89-1.42-1.27-1.48-3.29-1.4-5.05,0-.06.1-.98-.25-.71-1.61,1.27-2.34,3.19-3.5,4.81-1.35,1.87-3.61,3.19-5.96,3.01-1.86-.14-3.65-1.27-4.42-2.97-.66-1.45-.54-3.14-.14-4.69.93-3.6,2.49-7.05,4.71-10.04.01-.02.02-.03.03-.05,4.23-2.56,8.77-4.57,13.33-6.47.25-.1.54-.73.64-.92.28-.54.51-1.12.7-1.69.06-.17.38-1.29.27-1.65,0,0,0-.02,0-.03,0,0,0,0,0,0,0,0,0,0,0-.02-.02-.03-.04-.06-.08-.06-.02,0-.03,0-.05,0-.47-.01-.94-.02-1.41-.02-.01,0-.02,0-.03,0-5.22-.38-10.45-.76-15.69-.82-2.61-.03-5.23.02-7.84.18-1.77.11-3.39.33-4.38,1.81-.03,0-.05.03-.09.06-.16.17-.3.37-.4.58-.3.62-.46,1.28-.6,1.95-.4,1.5-.58,3.19-.05,4.57.52,1.34,1.85,2.18,3.07,2.82,1.42.76,2.92,1.22,4.43,1.76.3.11.6.23.88.36-1.39,1.4-2.69,2.91-3.85,4.56-2.54,3.61-4.66,8.04-5.59,12.37-.72,3.35-.46,7.09,1.59,9.83,1.4,1.87,3.5,3.12,5.68,3.95,4.58,1.75,9.61,1.87,14.5,1.46,1.81-.15,3.63-.38,5.37-.91,1.89-.57,3.22-1.6,4.82-2.68.51-.34,1.04-.66,1.59-.94,1.22-.64,2.51-1.16,3.8-1.64.28-.1.18-.52-.13-.46-5.54,1.25-11.31,2.2-17,2.36-3.59.1-7.22-.23-10.62-1.4-2.87-.99-5.65-2.69-7.06-5.37-1.13-2.14-1.25-4.73-.66-7.08.79-3.2,2.8-6.01,4.96-8.44,1.36-1.53,2.85-2.93,4.44-4.21.18.26.34.54.45.86.18.53.82-1.45.83-1.53.03-.12.06-.26.09-.39.58-.43,1.16-.85,1.76-1.26.06-.04.11-.07.16-.11.19-.13.39-.26.58-.38-1.13,1.39-2.09,2.93-2.83,4.56-1.49,3.31-2.52,7.22-2.23,10.88.25,3.16,2.24,5.86,5.64,5.85,2.09,0,4.05-1.11,5.41-2.65,1.37-1.54,2.05-3.65,3.58-5.04-.06,1.71,0,3.54,1.06,4.94,1.02,1.35,2.8,2.07,4.47,1.7,3.57-.8,4.49-4.85,6.87-7.17-.34,1.89-.4,3.85.25,5.67.76,2.12,2.75,3.45,3.49,5.55.19.55,1.04-1.4,1.04-1.4.48-1.18.89-2.5,1-3.82,2.78,1.44,6.09,2.08,9.08,2.19,7.16.27,13.86-2.26,20.22-5.26,1.89-.89,3.78-1.76,5.74-2.47.22-.08.43-.15.65-.23.2,1.95.21,3.96-.33,5.82-.05.17-.22.74-.26,1.18-3.57,2.24-7.36,4.16-11.1,5.93-1.39.66-2.79,1.29-4.2,1.89-.25.11-.07.51.18.43,2.42-.78,4.94-1.18,7.42-1.7,1.05-.22,2.1-.46,3.13-.76,3.16-.93,6.05-2.58,8.65-4.62-.68,2.56-1.6,5.89-.25,8.32,1.24,2.24,3.72,2.29,5.85,1.32,2.2-1,4.01-2.7,5.81-4.28,1.94-1.7,3.97-3.3,6.1-4.75,2.5-1.7,5.12-3.21,7.85-4.52.04-.02.07-.04.11-.07.24-.11.48-.23.72-.34.1-.05.21-.09.31-.14.3.39.6.77.91,1.13,1.49,1.78,3.35,3.56,5.77,3.82,2.29.24,4.68-.89,6.47-2.23.22-.17.42-.76.51-.98.16-.39.3-.8.42-1.21.04-.09.07-.16.08-.19.39-.96.79-2.09.83-3.14.25-5.59-1.07-11.06-2.1-16.52Z"/>
  <path class="st17" d="M365.19,339.58h0c-.82.43-1.64.89-2.38,1.45-.79.59-1.35,1.32-1.76,2.22-.11.24-.21.49-.31.74-.05.07-.09.16-.1.18-.18.36-.3.8-.4,1.19-.11.42-.21.84-.28,1.26-2.05-1.23-3.81-2.92-5.08-4.96-1.01-1.61-1.64-3.41-2.07-5.26,6.95-.53,13.93-.17,20.89-.32-2.88,1.05-5.79,2.08-8.49,3.51M368.8,320.52h0c.32-.14.67-.2,1.02-.19.93.04,1.77.53,2.51,1.07.43.32.85.66,1.24,1.02-1.29.33-2.58.65-3.86,1-.34-.49-.68-.97-.95-1.5-.14-.27-.25-.55-.34-.84-.03-.09-.05-.18-.07-.27.14-.11.29-.21.45-.28ZM387.17,330.95c-8.53,1.57-17.23,1.04-25.86,1.14-1.36.02-2.72.05-4.08.11,1.09-.77,2.25-1.44,3.47-2.03,2.9-1.39,6.01-2.3,9.11-3.11.35.63.6,1.28.55,1.98,0,0-.05.39.03.41.08.02.21-.36.21-.35.22-.57.38-1.22.42-1.83.01-.18.02-.35.01-.51,1.61-.41,3.22-.81,4.81-1.25.08-.02.15-.11.21-.21.09-.04.33-.53.34-.54.2-.44.36-.92.5-1.38.14-.47.28-.95.36-1.44.03-.19.11-.47,0-.64-.63-.94-1.35-1.8-2.16-2.59-.8-.77-1.71-1.55-2.73-2.03-.09-.04-.19-.08-.29-.12,0,0,0,0,0,0-.07-.03-.15-.06-.25-.08,0,0,0,0,0,0-.37-.11-.74-.15-1.1-.12-.03,0-.06,0-.09.01-.36.05-.71.16-1.05.38-.46.3-.74.77-.97,1.26-.52,1.14-.87,2.4-1.03,3.63-.01.11-.02.21.01.26-.03.31-.03.62,0,.92.04.39.14.76.28,1.12-3.42,1.02-6.74,2.32-9.7,4.4-1.53,1.08-2.91,2.36-4.12,3.79-.07.09-.14.2-.2.31-.13.12-.25.43-.28.49-.21.44-.37.92-.51,1.39-.03.1-.3,1.16-.37,1.72-.23-1.06-.41-2.14-.55-3.21-.44-3.26-.7-6.53-1.12-9.79-.48-3.7-1.15-7.38-2.45-10.88-.12-.33-.51.86-.51.87-.25.8-.46,1.64-.53,2.48-.14,1.83.24,3.55.64,5.33.39,1.72.72,3.45,1.02,5.18.55,3.26.93,6.55,1.15,9.85-2.6,2.7-5.64,4.94-9,6.6-1.72.85-3.55,1.63-5.42,2.07-1.81.42-3.81.3-4.95-1.37-.63-.93-.83-2.1-.81-3.21,0-.24.02-.47.04-.7.03-.32.04-.46.07-.67.02-.12.03-.24.05-.36.01-.07.02-.11.02-.14,0-.02.01-.05.02-.09,0-.02.01-.04.01-.06.01-.04.02-.07.03-.1l-.02.08c.01-.05.02-.11.04-.16,0-.03.02-.06.03-.1.14-.52.26-1.05.34-1.58.02-.12.16-.82.06-.97-.11-.16-.17,0-.25.16-.19.37-.3.79-.4,1.19-.42,1.6-.75,3.22-.95,4.86-.15,1.21-.24,2.46-.06,3.68.31,2.08,1.72,3.77,3.91,3.83,2.03.06,4.12-.86,5.95-1.66,1.94-.85,3.79-1.89,5.54-3.09,1.95-1.35,3.75-2.91,5.37-4.65.19-.2.3-.67.37-.9.16-.51.29-1.04.39-1.56.05-.27.11-.55.14-.83.03-.1.05-.19.06-.22.02-.06.04-.12.06-.19.38,3.1.91,6.27,2.39,9.06,1.25,2.34,3.11,4.31,5.35,5.73,2.55,1.61,5.54,2.48,8.56,2.4.15,0,.31-.51.33-.55.17-.46.3-.95.41-1.42.11-.48.21-.97.26-1.46,0-.11.09-.59-.05-.64-2.32-.78-5.47-1.41-6.83-3.62.17-.14.33-.28.49-.38.68-.49,1.42-.91,2.16-1.3,1.52-.8,3.12-1.45,4.73-2.07,3.5-1.34,7.01-2.64,10.52-3.95.37-.14.74-.28,1.1-.41.02,0,.03-.01.05-.02.05-.02.1-.04.15-.06h0c.19-.06.38-.13.57-.2.05-.02.09-.04.14-.06,0,0,0,0,0,0,.06-.03.13-.05.19-.07.01,0,.03-.01.04-.02.01,0,.02,0,.03,0,.12-.04.23-.09.35-.13h0s1.02-.38,1.02-.38l.83-.31,1.25-.51c.46-.19.87-.36.93-.37.17-.03.32-.44.36-.53.21-.44.37-.92.51-1.39.14-.47.28-.95.36-1.44,0-.06.1-.66,0-.64Z"/>
  <path class="st17" d="M323.29,286.91v2.67h-.74c-1.39,0-2.56-.6-3.32-1.56-.84.93-2,1.49-3.62,1.49-2.74,0-4.95-2.32-4.95-5.11v-1.6c0-2.9,2.16-5.11,5.06-5.11h5.32v7.71c0,.88.6,1.51,1.51,1.51h.74ZM312.31,274.22c0-.86.74-1.6,1.63-1.6s1.6.74,1.6,1.6-.74,1.6-1.6,1.6-1.63-.72-1.63-1.6ZM318.37,280.36h-2.65c-1.42,0-2.39.98-2.39,2.44v1.6c0,1.35,1.02,2.42,2.28,2.42,1.11,0,2.14-.44,2.76-1.28v-5.18ZM316.88,274.22c0-.86.74-1.6,1.6-1.6s1.6.74,1.6,1.6-.72,1.6-1.6,1.6-1.6-.72-1.6-1.6ZM344.1,286.91v2.67h-1.44c-1,.02-1.86-.44-2.35-1.18-.6.74-1.42,1.18-2.72,1.18h-1.63c-1.05,0-1.9-.56-2.32-1.18-.51.77-1.44,1.18-2.69,1.18h-1.51c-1.07,0-1.95-.53-2.35-1.23-.53.77-1.35,1.23-3.18,1.23h-.74l-1.16-.44v-1.81l1.16-.42h.51c1.16,0,1.65-.6,1.65-1.51v-5.11h2.65v5.11c0,1.02.63,1.51,1.44,1.51h1.05c.88,0,1.46-.6,1.46-1.51v-5.11h2.6v5.11c0,.91.58,1.51,1.51,1.51h1.07c.91,0,1.42-.6,1.42-1.51v-7.32h2.6v7.32c0,.91.58,1.51,1.53,1.51h1.44ZM342.85,289.16v-1.84l1.16-.42v2.67l-1.16-.42ZM361.85,277.92v7.27c0,2.42-1.97,4.39-4.39,4.39-1.42,0-2.49-.46-3.21-1.23-.84.86-2.02,1.28-3.21,1.28s-2.23-.44-3.02-1.25c-.72.74-1.77,1.21-2.95,1.21h-1.05v-2.67h1.11c.91,0,1.58-.65,1.58-1.58v-5.04h2.65v5.04c0,1.02.6,1.63,1.74,1.63,1.07.02,1.81-.6,1.81-1.63v-5.04h2.67v5.04c0,.98.67,1.58,1.86,1.58.95,0,1.7-.77,1.7-1.72v-7.27h2.69ZM376.89,289.58h-1.72v1.05c0,3.25-3.04,5.25-8.69,3.93v-2.49c4.6.81,6.02-.21,6.02-2.09v-.42h-2.81c-2.72-.02-4.92-2.3-4.92-5.11v-1.65c0-2.9,2.18-5.09,5.09-5.09h.26c2.9,0,5.06,2.18,5.06,5.09v4.11h1.72v2.67ZM372.5,286.88v-4.09c0-1.44-.98-2.42-2.39-2.42h-.26c-1.42,0-2.42.98-2.42,2.42v1.65c0,1.32,1.07,2.44,2.28,2.44h2.79ZM372.55,275.08h-4.97v-1.49h.86c-.37-.37-.6-.86-.6-1.51,0-1.28.81-2.18,2.21-2.18s2.25.86,2.37,2.46h-1.35c-.09-.63-.46-.95-.98-.95s-.84.26-.84.84c0,.39.21.98.86,1.35h2.44v1.49ZM389.6,282.8v1.6c0,2.79-2.23,5.11-4.97,5.11-1.46,0-2.83-.51-3.88-1.39-.67.91-1.77,1.46-3.07,1.46h-1l-1.16-.42v-1.84l1.16-.42h1c.88,0,1.49-.63,1.49-1.51v-2.6c0-2.9,2.18-5.11,5.09-5.11h.26c2.9,0,5.09,2.21,5.09,5.11ZM386.93,282.8c0-1.46-1-2.44-2.42-2.44h-.26c-1.42,0-2.42.98-2.42,2.44v2.74c.63.84,1.67,1.28,2.79,1.28,1.23,0,2.3-1.07,2.3-2.42v-1.6Z"/>
  <g class="st27">
    <rect class="st13" x="110.11" y="143.04" width="279.77" height="149.9"/>
  </g>
  <g class="st18">
    <rect class="st2" x="168.76" y="156.62" width="18.92" height="18.94"/>
  </g>
  <g class="st21">
    <rect class="st1" x="192.32" y="197.51" width="16.91" height="17.14"/>
  </g>
  <g class="st19">
    <rect class="st4" x="280.17" y="208.88" width="13.29" height="14.69"/>
  </g>
  <g class="st20">
    <rect class="st9" x="357.76" y="196.01" width="19.85" height="12.28"/>
  </g>
  <g class="st26">
    <rect class="st8" x="122.4" y="196.08" width="19.81" height="12.28"/>
  </g>
  <g class="st23">
    <rect class="st5" x="320.51" y="198.72" width="69.38" height="46.41"/>
  </g>
  <g class="st22">
    <rect class="st7" x="320.51" y="233.63" width="13.51" height="11.5"/>
  </g>
  <g class="st25">
    <rect class="st6" x="301.42" y="155.02" width="18.8" height="19.34"/>
  </g>
  <g class="st24">
    <rect class="st3" x="301.19" y="218.77" width="22.93" height="29.12"/>
  </g>
  <g class="st15">
    <rect class="st12" x="250.27" y="143.04" width="75.42" height="63.93"/>
  </g>
  <g class="st14">
    <rect class="st11" x="165.63" y="149.8" width="93.87" height="115.23"/>
  </g>
  <g class="st16">
    <rect class="st10" x="110.11" y="197.97" width="73.45" height="45.49"/>
  </g>
  <path class="st17" d="M126.74,286.91v2.67h-.74c-1.39,0-2.56-.6-3.32-1.56-.84.93-2,1.49-3.62,1.49-2.74,0-4.95-2.32-4.95-5.11v-1.6c0-2.9,2.16-5.11,5.06-5.11h5.32v7.71c0,.88.6,1.51,1.51,1.51h.74ZM115.75,274.22c0-.86.74-1.6,1.63-1.6s1.6.74,1.6,1.6-.74,1.6-1.6,1.6-1.63-.72-1.63-1.6ZM121.82,280.36h-2.65c-1.42,0-2.39.98-2.39,2.44v1.6c0,1.35,1.02,2.42,2.28,2.42,1.11,0,2.14-.44,2.76-1.28v-5.18ZM120.33,274.22c0-.86.74-1.6,1.6-1.6s1.6.74,1.6,1.6-.72,1.6-1.6,1.6-1.6-.72-1.6-1.6ZM137.07,286.91v2.67h-2.39c-1.07,0-2.04-.53-2.76-1.3-.67.77-1.67,1.3-3.14,1.3h-2.25l-1.16-.42v-1.81l1.16-.44h2.3c1.35,0,1.74-.84,1.77-1.84l-.02-6.48h2.69v5.37c0,.21,0,.42-.02.65v.39c0,1.05.44,1.9,1.79,1.9h2.04ZM130.8,293.34c0,.88-.74,1.63-1.6,1.63s-1.63-.74-1.63-1.63.74-1.6,1.63-1.6,1.6.74,1.6,1.6ZM135.36,293.34c0,.88-.72,1.63-1.6,1.63s-1.6-.74-1.6-1.63.72-1.6,1.6-1.6,1.6.74,1.6,1.6ZM144.41,286.91v2.67h-1.11c-1.07,0-2.04-.53-2.74-1.3-.67.77-1.67,1.3-3.14,1.3h-.63l-1.14-.44v-1.81l1.14-.42h.65c1.37,0,1.77-.86,1.77-1.9v-11.59h2.67v11.59c0,1.05.42,1.9,1.79,1.9h.74ZM162.04,282.98v1.6c0,2.76-2.23,4.99-4.99,4.99h-13.03l-1.16-.42v-1.84l1.16-.42h3.58c-.49-.53-.81-1.3-.81-2.16v-1.23c.07-2.04,1.32-3.6,3.21-4.07v-1.35c7.22-1.74,11.96,1.07,12.06,4.88ZM153.56,283.63c0-1.32-.81-2.18-2.23-2.18-1.49,0-2.28.81-2.28,2.18v1.05c0,1.21,1.02,2.14,2.18,2.23h2.32v-3.28ZM159.37,284.52l-.02-1.53c-.07-1.84-2.72-3.21-6.23-2.86,1.6.37,2.72,1.65,2.72,3.58v3.21h1.14c1.32,0,2.39-1.07,2.39-2.39ZM177.55,273.41v13.38c0,1.58-1.21,2.79-2.79,2.79h-10.24v-2.67h3.04v-11.85h2.69v11.85h3.65c.44,0,.98-.33.98-1.05v-12.45h2.67ZM171.33,273.81h-4.97v-1.51h.84c-.33-.37-.56-.86-.56-1.49,0-1.3.81-2.18,2.21-2.18s2.25.84,2.37,2.46h-1.37c-.09-.63-.46-.98-.98-.98s-.81.28-.81.86c0,.39.19.95.84,1.32h2.44v1.51ZM180.73,289.58v-16.17h2.67v16.17h-2.67Z"/>
</svg>