<?xml version="1.0" encoding="UTF-8"?>
<svg id="Layer_1" xmlns="http://www.w3.org/2000/svg" version="1.1" viewBox="114.7 124.2 270.5 251.6">
  <!-- Generator: Adobe Illustrator 30.5.1, SVG Export Plug-In . SVG Version: 2.1.4 Build 3)  -->
  <defs>
    <style>
      .st0 {
        fill: #afafac;
      }

      .st1 {
        isolation: isolate;
        opacity: .5;
      }

      .st1, .st2 {
        fill: #d8b769;
      }

      .st3 {
        fill: #0054a3;
      }
    </style>
  </defs>
  <g id="Layer_14">
    <path class="st2" d="M377.13,317.7h-14.03v-75.69c0-1.58-.11-3.18-.3-4.78-.4-5.96-1.38-12.02-3.68-18.53-5-14.18-14.2-29.1-29.14-44.27h.03s25.23,16.55,38.16,38.46c1.67,2.84,3.18,5.77,4.43,8.78,1.24,2.96,4.4,11.17,4.52,28.07.01,1.21,0,39.24,0,67.94h0Z"/>
    <path class="st2" d="M170.05,174.44c-14.95,15.16-24.14,30.09-29.14,44.27-2.31,6.51-3.28,12.58-3.69,18.53-.18,1.6-.29,3.2-.29,4.78v75.69h-14.03c-.01-28.72-.01-66.73,0-67.94.12-16.9,3.27-25.11,4.52-28.07,1.24-3,2.76-5.93,4.43-8.78,12.93-21.9,38.16-38.45,38.16-38.45h.03v-.02Z"/>
    <path class="st2" d="M354.14,309.68h-13.36c-.02-5.52-.15-41.11-.15-59.79,0-64.8-90.15-92.53-90.53-92.65,0,.01-90.53,27.72-90.53,92.66,0,18.67-.13,54.28-.15,59.78h-13.36c-.01-7.05-.1-63.55-.01-67.51.18-7.16.98-14.33,3.92-22.2,10.43-27.89,38.99-58.86,100.13-88.62v-.02h.02c61.14,29.78,89.69,60.74,100.12,88.63,2.95,7.88,3.73,15.05,3.92,22.21.1,3.95,0,60.46,0,67.51h0Z"/>
    <g>
      <polygon class="st3" points="128.37 333.04 130.24 334.8 132.44 332.32 130.19 330.13 128.55 331.86 126.77 330.13 124.42 332.58 126.81 334.8 128.37 333.04"/>
      <polygon class="st3" points="135.77 349.99 133.99 348.27 131.64 350.71 134.04 352.93 135.59 351.18 137.47 352.93 139.67 350.45 137.42 348.27 135.77 349.99"/>
      <path class="st3" d="M132.13,346.85h5.99c.31-1.65.49-3.49.49-5.31l.83-1.03-2.22-3.36-2.74,1.4c.72,1.67,1.34,3.14,1.91,4.57h-5.91c0-1.52-.02-3.75-.18-7.28l-3.51,1.4c.05.28.08.55.13.77-2.66,1.6-4.34,3.14-4.34,5.03,0,1.67,1.19,2.74,3.43,3.79l2.11-1.73c.26.62.68,1.19,1.11,1.76h2.9ZM124.88,342c.67-.64,1.4-1.16,2.37-1.63.08.59.18,1.29.46,3.2-1.21-.31-1.93-.67-2.83-1.58h0Z"/>
      <polygon class="st3" points="151.87 349.99 150.09 348.27 147.74 350.71 150.14 352.93 151.69 351.18 153.57 352.93 155.76 350.45 153.52 348.27 151.87 349.99"/>
      <polygon class="st3" points="161.03 333.58 158.78 331.38 156.44 333.84 158.83 336.06 161.03 333.58"/>
      <path class="st3" d="M165.83,337.66c.26-.75.33-1.8.33-3.51l.83-1.03-2.22-3.36-2.74,1.4c.88,3.33,1.11,4,1.58,6.27-.68.13-2.06.2-3.36.2-1.16,1.11-2.06,1.91-3.05,2.94l.36.62h3.31c.8.41,1.49,1.16,2.53,1.91h-7.3c-2.3,0-3.2-.54-3.2-2.43,0-.7.05-1.21.24-2.28-.57-.08-.98-.08-1.55-.02-.39,1.01-1.34,1.99-2.37,1.99-.75,0-1.36-.52-1.84-1.4l-3.36,1.84c1.32,1.73,1.99,2.94,2.66,4.74-1.11,1.23-1.89,1.96-2.99,2.74-.88.64-1.86,1.14-2.96,1.65v.77l5.09,1.03c1.6-2.35,2.5-5.05,2.5-7.48v-.46c.2.08.44.11.64.11.67,0,1.55-.57,2.09-1.86.02.36.08.7.13,1.03.46,2.58,2.28,3.77,4.93,3.77h4.36c2.28,0,3.46-1.96,5.16-2.48.44.18.9.33,1.42.49l1.06-3.09c-1.8-.44-3.09-1.4-4.23-2.24,1.06-.59,1.65-1.03,1.96-1.86h-.02Z"/>
      <path class="st3" d="M168.74,332.45c.7,4.52,1.01,7.43,1.58,14.66l2.83-.26c-.2-8.12-.33-11.28-.62-15.74l-3.79,1.34Z"/>
      <polygon class="st3" points="184.5 354.3 182.73 352.57 180.38 355.03 182.78 357.25 184.33 355.49 186.21 357.25 188.4 354.77 186.16 352.57 184.5 354.3"/>
      <path class="st3" d="M202.31,339.93l.36.62h3.18c.9.55,1.65,1.58,2.89,2.55h-8.54c-.41,0-.8-.02-1.16-.08l.44-1.27c-3.75-.93-5.24-4.98-7.84-5.16-1.08,1.11-2.15,2.32-3.05,3.33l.36.62h3.18c.9.55,1.65,1.58,2.89,2.55h-4.44c-1.03,0-2.63-.18-4.8-.62l-.33.68,1.49,3.05c.57.33.88.57,1.36.88-1.16.52-2.53.8-3.9.8-2.55,0-4.05-1.14-4.05-2.87,0-.9.28-1.96.7-2.99l-.72-.33c-.77,1.36-1.65,3.25-2.02,4.39,0,3.58,2.45,5.68,5.73,5.68,4.41,0,6.37-2.61,6.37-3.58,0-.36-.26-.85-.7-1.36.31.02.59.05.85.05h1.27c2.06,0,3.23-1.6,4.7-2.3.77.96,1.52,1.84,2.24,2.3h6.78c2.3,0,3.46-1.99,5.22-2.48.41.18.85.33,1.36.49l1.06-3.09c-3.75-.93-5.24-4.98-7.84-5.16-1.08,1.11-2.15,2.32-3.05,3.33v-.03Z"/>
      <polygon class="st3" points="204.35 350.71 206.75 352.93 208.94 350.45 206.7 348.27 204.35 350.71"/>
      <path class="st3" d="M217.77,331.11l-3.79,1.34c.7,4.52,1.01,7.43,1.58,14.66l2.83-.26c-.2-8.12-.33-11.28-.62-15.74Z"/>
      <path class="st3" d="M231.11,331.11l-2.74,1.4c.77,3.38,1.4,6.01,1.8,8.75.11.7.2,1.27.26,1.86h-4.8c-.15-1.4-.54-3.09-1.19-5.09l-3.62,2.04c1.29,1.93,2.32,3.64,3.25,5.49-1.11,1.23-1.89,1.96-2.99,2.74-.88.64-1.86,1.14-2.96,1.65v.77l5.09,1.03c1.06-1.55,1.8-3.23,2.19-4.9h6.87c.33-1.29.52-3.14.52-5.4,0-1.86-.08-3.38-.28-5.96l.83-1.03-2.22-3.36h0Z"/>
      <path class="st3" d="M234.62,332.45c.7,4.52,1.01,7.43,1.58,14.66l2.83-.26c-.2-8.12-.33-11.28-.62-15.74l-3.79,1.34Z"/>
      <polygon class="st3" points="251.44 336.78 249.2 334.59 246.84 337.04 249.25 339.26 251.44 336.78"/>
      <path class="st3" d="M251.34,341.14c.44,1.23.72,2.14.96,3.07.2.85.44,1.84.62,2.99-.88.39-2.06.68-3.51.68-1.91,0-3.18-1.11-3.18-2.79,0-.9.13-1.62.54-2.66l-.72-.33c-.77,1.36-1.49,2.92-1.86,4.05,0,3.36,1.96,5.6,4.87,5.6,2.48,0,4.15-.93,5.22-2.5.83-1.21,1.27-2.81,1.27-4.59s-.13-2.92-.44-4.87l-3.77,1.36h0Z"/>
      <polygon class="st3" points="277.32 349.99 275.54 348.27 273.19 350.71 275.6 352.93 277.14 351.18 279.02 352.93 281.22 350.45 278.98 348.27 277.32 349.99"/>
      <path class="st3" d="M301.65,338.66c.98,2.04,1.29,2.68,2.09,4.44h-1.23c-.85,0-1.67-.02-2.4-.11.31-.9.52-2.02.72-3.25l-3.64-.93c-.2,1.63-.39,2.92-.59,4.15-.31.08-.68.13-1.23.13-.41,0-.85-.02-1.27-.08.26-.68.44-1.47.59-2.35l-3.38-.83c-.2,1.21-.36,2.28-.49,3.14-.44.08-1.01.11-1.71.11h-2.04c-.31-2.63-.41-8.1-.57-12l-3.77,1.4c.77,4.61,1.14,6.94,1.71,10.29-.77.2-1.67.31-2.92.31s-2.15-.08-2.89-.18c.31-1.14.64-2.68.85-4.1l-3.82.59-.08,3.49c-.71.13-1.88.2-2.84.2-.39,0-.59-.29-1.03-1.45l-.67-1.76c-.49-1.27-1.36-2.32-2.79-2.32-2.37,0-4.1,2.81-4.59,5.29-.28.15-.57.24-.83.24h-2.06c-.02-3.66-.26-8.36-.57-12l-3.77,1.34c.85,4.93,1.21,9.96,1.58,14.4h5.81c.24-.33.46-.7.68-1.06,1.42.83,3.09,1.27,5.29,1.32l.36-2.15c.58,1.27,1.36,1.86,2.54,1.88h.05c3.19,0,4.54-.71,5.39-2.45l1.32,2.17c.57.18,1.29.28,2.06.28,1.78,0,2.99-.33,3.95-.88.18.31.39.59.62.88h3.02c2.09,0,3.33-.64,4.19-2.04l.96,1.76c.52.18,1.03.28,1.52.28,1.16,0,2.32-.68,3.31-1.96l.98,1.67c.88.18,1.91.28,3.09.28h2.4c.33-1.23.52-2.89.52-4.44,0-1.06-.2-3.18-.54-5.26l-3.87,1.52v.02ZM266.23,342.92c.2-.96.9-1.84,1.67-1.84.52,0,.93.46,1.27,1.36l.46,1.23c-1.19-.08-2.4-.26-3.4-.77h0Z"/>
      <polygon class="st3" points="316.88 333.04 318.76 334.8 320.95 332.32 318.7 330.13 317.05 331.86 315.27 330.13 312.93 332.58 315.32 334.8 316.88 333.04"/>
      <path class="st3" d="M351.58,338.66c.98,2.04,1.29,2.68,2.09,4.44h-1.23c-.85,0-1.67-.02-2.4-.11.31-.9.52-2.02.72-3.25l-3.64-.93c-.2,1.63-.39,2.92-.59,4.15-.31.08-.68.13-1.23.13-.41,0-.85-.02-1.27-.08.26-.68.44-1.47.59-2.35l-3.38-.83c-.2,1.21-.36,2.28-.49,3.14-.44.08-1.01.11-1.71.11h-.02c-.62,0-1.19-.05-1.71-.13.41-1.06.83-2.35,1.23-3.95l-3.64-.93c-.33,2.15-.49,3.38-.8,4.87-.52.11-1.21.13-1.86.13-.15,0-.36,0-.62-.02.33-.93.55-2.06.75-3.33l-3.64-.93c-.2,1.63-.36,2.92-.57,4.15-.33.08-.7.13-1.27.13-.41,0-.83-.02-1.23-.08.24-.68.42-1.49.57-2.35l-3.38-.83c-.2,1.21-.33,2.24-.46,3.12-.46.11-1.03.13-1.73.13h-1.67c0-1.52-.02-3.75-.18-7.28l-3.51,1.4c.05.28.08.55.13.77-2.66,1.6-4.34,3.14-4.34,5.03,0,1.67,1.19,2.74,3.43,3.79l2.11-1.73c.26.62.68,1.19,1.11,1.76h2.91c2.09,0,3.25-.72,4.15-2.09l.98,1.8c.52.18,1.03.28,1.52.28,1.14,0,2.28-.64,3.25-1.89l.85,1.6c.64.2,1.14.28,1.58.28,1.45,0,2.55-.64,3.49-2.22l.98,1.99c.33.13,1.11.24,1.55.24h.02c2.09,0,3.33-.64,4.19-2.04l.96,1.76c.52.18,1.03.28,1.52.28,1.16,0,2.32-.68,3.31-1.96l.98,1.67c.88.18,1.91.28,3.09.28h2.4c.33-1.23.52-2.89.52-4.44,0-1.06-.2-3.18-.54-5.26l-3.87,1.52.02.04ZM313.39,342c.68-.64,1.4-1.16,2.37-1.63.08.59.18,1.29.46,3.2-1.21-.31-1.93-.67-2.83-1.58h0Z"/>
      <path class="st3" d="M359.24,336.55c1.67-.49,2.68-.72,4.52-.98l.18-2.37c-.75.11-1.45.28-2.09.52-.46-.26-.83-.62-1.08-1.23.31-.2.77-.31,1.11-.31.44,0,1.06.13,1.4.26l.57-.9-1.91-1.4c-1.62,0-2.7,1.55-2.7,2.81,0,.8.2,1.34.54,1.86-.31.2-.54.42-.72.59l.2,1.16h0Z"/>
      <path class="st3" d="M373.97,337.58c-1.49,0-2.66.96-3.77,3.33l-.64,1.36c-.46-.26-.96-.59-1.47-.96l-.7,1.76c-.2.02-.44.02-.67.02h-1.36c-.13-2.99-1.47-5.78-3.92-5.78-2.02,0-3.92,3.2-3.92,5.53s1.84,3.51,5.18,3.87c-.72.75-1.55,1.21-2.61,1.78-.9.49-1.93.93-3.2,1.42v.77l5.05,1.06c1.47-1.67,2.43-3.25,2.94-4.9h1.86c1.04,0,1.91-.29,2.63-.83,1.67.75,3.36,1.14,5.16,1.14,1.27,0,1.73-.02,2.24-.13.55-1.89.75-3.53.75-4.61,0-2.96-1.6-4.83-3.56-4.83h-.01ZM359.55,342.15c.26-.83.77-1.5,1.32-1.5.88,0,1.42,1.11,1.78,2.4-1.32-.18-2.3-.39-3.09-.9h-.01ZM374.8,343.65c-1.19,0-2.22-.13-3.25-.46l.52-.9c.44-.77.88-1.14,1.47-1.14.8,0,1.32.68,1.32,1.71,0,.33-.02.57-.05.8h0Z"/>
    </g>
    <g>
      <path class="st3" d="M126.33,363.61c1.45.38,1.9.86,1.9,1.62,0,1.13-1.12,1.89-2.92,1.89-1,0-2.05-.19-2.92-.58l.36-1.53h.83v.92c.52.24,1.15.36,1.63.36.92,0,1.38-.3,1.38-.73,0-.3-.18-.45-1.12-.71l-.83-.25c-1.47-.4-2-.82-2-1.64,0-1.21,1.15-1.85,2.97-1.85.69,0,1.32.08,2.16.19v1.7h-.79l-.34-.97c-.39-.1-.76-.14-1.11-.14-.63,0-1.28.18-1.28.68,0,.35.23.52,1.26.8l.82.24h-.01Z"/>
      <path class="st3" d="M136.35,361.81l-.71.19v2.81c0,1.49-1.03,2.28-3,2.28s-3.03-.78-3.03-2.28v-2.96l-.86-.04v-.57h3.29v.57l-.71.19v2.81c0,.93.56,1.41,1.58,1.41.97,0,1.49-.47,1.49-1.41v-2.95l-.87-.05v-.57h2.82v.57h-.01Z"/>
      <path class="st3" d="M142.06,365.34h.71v1.64h-5.71v-.57l.74-.18v-4.38l-.87-.04v-.57h3.33v.57l-.74.2v4.21h2.31l.24-.87h0Z"/>
      <path class="st3" d="M150.4,366.23l.68.18v.57h-3.61v-.57l1.08-.05-.5-1.09h-2.48l-.48,1.07,1.08.08v.57h-2.8v-.57l.69-.19,2.29-4.85,1.64-.25,2.43,5.1h-.01ZM145.9,364.51h1.79l-.89-1.95-.89,1.95h-.01Z"/>
      <path class="st3" d="M154.09,366.37l.87.04v.57h-3.33v-.57l.74-.2v-4.36l-.86-.04v-.57h3.33v.57l-.75.2v4.36Z"/>
      <path class="st3" d="M164.37,366.37l.86.04v.57h-3.43v-.57l.86-.2v-3.47l-2.15,3.09h-.83l-2.14-3.02v3.52l.83.06v.57h-2.61v-.57l.75-.19v-4.35l-.86-.06v-.57h2.65l2.24,3.18,2.16-3.18h2.4v.57l-.74.17v4.39h0Z"/>
      <path class="st3" d="M172.73,366.23l.68.18v.57h-3.61v-.57l1.08-.05-.5-1.09h-2.48l-.48,1.07,1.08.08v.57h-2.8v-.57l.69-.19,2.29-4.85,1.64-.25,2.43,5.1h-.01ZM168.23,364.51h1.79l-.89-1.95-.89,1.95h-.01Z"/>
      <path class="st3" d="M181.42,361.81l-.71.19v4.98h-1.04l-3.95-3.71v3.08l.83.06v.57h-2.61v-.57l.74-.18v-4.36l-.85-.06v-.57h1.88l3.95,3.71v-3.08l-.86-.06v-.57h2.61v.57h.01Z"/>
      <path class="st3" d="M191.02,366.23l.68.18v.57h-3.61v-.57l1.08-.05-.5-1.09h-2.48l-.48,1.07,1.08.08v.57h-2.8v-.57l.69-.19,2.29-4.85,1.64-.25,2.43,5.1h-.01ZM186.52,364.51h1.79l-.89-1.95-.89,1.95h-.01Z"/>
      <path class="st3" d="M197.26,365.34h.71v1.64h-5.71v-.57l.74-.18v-4.38l-.87-.04v-.57h3.33v.57l-.74.2v4.21h2.31l.24-.87h0Z"/>
      <path class="st3" d="M205,366.37l.93.04v.57h-2.5l-1.63-2.34h-.68v1.72l.97.05v.57h-3.37v-.57l.74-.2v-4.36l-.85-.04v-.57h3.35c2.03,0,2.99.53,2.99,1.62,0,.72-.57,1.29-1.52,1.58l1.58,1.93h-.01ZM201.14,362v1.94h.5c.99,0,1.59-.42,1.59-1.09,0-.56-.41-.86-1.28-.86h-.82Z"/>
      <path class="st3" d="M213.31,366.23l.68.18v.57h-3.61v-.57l1.08-.05-.5-1.09h-2.48l-.48,1.07,1.08.08v.57h-2.8v-.57l.69-.19,2.29-4.85,1.64-.25,2.43,5.1h-.01ZM208.82,364.51h1.79l-.89-1.95-.89,1.95h-.01Z"/>
      <path class="st3" d="M217.69,361.81l-.75.2v3.95c0,.43-.1.85-.24,1.14-.63.62-1.28,1.11-2.02,1.58l-.3-.2c.65-.96.83-1.51.83-2.51v-4.11l-.86-.04v-.57h3.33v.57h.01Z"/>
      <path class="st3" d="M225.6,366.37l.83.04v.57h-3.29v-.57l.74-.2v-1.73h-2.96v1.89l.83.04v.57h-3.29v-.57l.74-.2v-4.36l-.86-.04v-.57h3.33v.57l-.75.2v1.72h2.96v-1.88l-.86-.04v-.57h3.29v.57l-.71.19v4.37h.01Z"/>
      <path class="st3" d="M229.72,366.37l.87.04v.57h-3.33v-.57l.74-.2v-4.36l-.86-.04v-.57h3.33v.57l-.75.2v4.36Z"/>
      <path class="st3" d="M239.57,366.07l-.76.77c-.54.17-1.09.27-1.73.27-2.22,0-3.66-1.15-3.66-2.9,0-1.89,1.55-3.1,3.9-3.1.7,0,1.47.09,1.99.19v1.87h-.8l-.29-1.09c-.25-.06-.57-.1-.91-.1-1.28,0-2.1.82-2.1,2.06,0,1.35.85,2.1,2.37,2.1.59,0,1.2-.11,1.81-.32l.18.25h.01Z"/>
      <path class="st3" d="M247.48,366.37l.83.04v.57h-3.29v-.57l.74-.2v-1.73h-2.96v1.89l.83.04v.57h-3.29v-.57l.74-.2v-4.36l-.86-.04v-.57h3.33v.57l-.75.2v1.72h2.96v-1.88l-.86-.04v-.57h3.29v.57l-.71.19v4.37h.01Z"/>
      <path class="st3" d="M255.8,366.23l.68.18v.57h-3.61v-.57l1.08-.05-.5-1.09h-2.48l-.48,1.07,1.08.08v.57h-2.8v-.57l.69-.19,2.3-4.85,1.64-.25,2.43,5.1h-.02ZM251.31,364.51h1.79l-.9-1.95-.89,1.95Z"/>
      <path class="st3" d="M263.3,366.37l.93.04v.57h-2.5l-1.63-2.34h-.68v1.72l.97.05v.57h-3.37v-.57l.74-.2v-4.36l-.85-.04v-.57h3.35c2.03,0,2.99.53,2.99,1.62,0,.72-.57,1.29-1.52,1.58l1.58,1.93h-.01ZM259.42,362v1.94h.5c.99,0,1.59-.42,1.59-1.09,0-.56-.41-.86-1.28-.86h-.82,0Z"/>
      <path class="st3" d="M267.19,366.37l.87.04v.57h-3.33v-.57l.74-.2v-4.36l-.86-.04v-.57h3.33v.57l-.75.2v4.36Z"/>
      <path class="st3" d="M274.81,362.85h-.71l-.25-.85h-1.23v4.37l.76.04v.57h-3.24v-.57l.75-.2v-4.21h-1.26l-.25.85h-.71v-1.61h6.14v1.61h-.01Z"/>
      <path class="st3" d="M281.38,366.23l.68.18v.57h-3.61v-.57l1.08-.05-.5-1.09h-2.48l-.48,1.07,1.08.08v.57h-2.8v-.57l.69-.19,2.3-4.85,1.64-.25,2.43,5.1h-.02ZM276.89,364.51h1.79l-.9-1.95-.89,1.95Z"/>
      <path class="st3" d="M289.18,365.34c0,1.01-1.16,1.64-3.41,1.64h-3.14v-.57l.74-.19v-4.37l-.87-.04v-.57h3.29c1.95,0,2.91.5,2.91,1.41,0,.63-.57,1.08-1.56,1.3,1.38.18,2.04.63,2.04,1.4h0ZM285.08,362v1.72h.46c.83,0,1.37-.39,1.37-.97,0-.48-.39-.75-1.12-.75h-.72ZM285.68,366.21c1.16,0,1.72-.35,1.72-.89s-.54-.85-1.63-.85h-.68v1.74h.59Z"/>
      <path class="st3" d="M294.79,365.34h.71v1.64h-5.71v-.57l.74-.18v-4.38l-.87-.04v-.57h3.33v.57l-.74.2v4.21h2.31l.24-.87h0Z"/>
      <path class="st3" d="M301.61,365.35h.8v1.63h-6.14v-.57l.74-.19v-4.37l-.86-.04v-.57h6v1.61h-.8l-.27-.85h-2.36v1.72h1.67l.18-.52h.71v1.8h-.71l-.18-.52h-1.67v1.74h2.63l.24-.86.02-.02Z"/>
      <path class="st3" d="M311.15,362.85h-.8l-.25-.85h-2.26v1.94h1.55l.21-.57h.71v1.8h-.71l-.21-.56h-1.55v1.75l1.12.05v.57h-3.58v-.57l.74-.2v-4.36l-.86-.04v-.57h5.9v1.61h0Z"/>
      <path class="st3" d="M311.84,364.21c0-1.89,1.44-3.1,3.66-3.1s3.66,1.14,3.66,2.89c0,1.89-1.45,3.11-3.66,3.11s-3.66-1.15-3.66-2.9ZM317.37,364.08c0-1.27-.75-2.1-1.9-2.1s-1.87.86-1.87,2.15.75,2.1,1.88,2.1,1.88-.85,1.88-2.15h.01Z"/>
      <path class="st3" d="M327.34,361.81l-.71.19v2.81c0,1.49-1.03,2.28-3,2.28s-3.03-.78-3.03-2.28v-2.96l-.86-.04v-.57h3.29v.57l-.71.19v2.81c0,.93.55,1.41,1.58,1.41.97,0,1.49-.47,1.49-1.41v-2.95l-.87-.05v-.57h2.82v.57h-.01Z"/>
      <path class="st3" d="M335.5,361.81l-.71.19v4.98h-1.04l-3.95-3.71v3.08l.83.06v.57h-2.61v-.57l.74-.18v-4.36l-.85-.06v-.57h1.88l3.95,3.71v-3.08l-.86-.06v-.57h2.61v.57h.01Z"/>
      <path class="st3" d="M343.62,364c0,1.81-1.47,2.98-3.71,2.98h-3.57v-.57l.74-.18v-4.38l-.87-.04v-.57h3.69c2.25,0,3.72,1.09,3.72,2.76h0ZM339.94,366.21c1.15,0,1.88-.84,1.88-2.12s-.77-2.08-1.97-2.08h-1.05v4.21h1.15,0Z"/>
      <path class="st3" d="M350.78,366.23l.68.18v.57h-3.61v-.57l1.08-.05-.5-1.09h-2.48l-.48,1.07,1.08.08v.57h-2.8v-.57l.69-.19,2.3-4.85,1.64-.25,2.43,5.1h-.02ZM346.3,364.51h1.79l-.9-1.95-.89,1.95Z"/>
      <path class="st3" d="M357.17,362.85h-.71l-.25-.85h-1.23v4.37l.76.04v.57h-3.24v-.57l.75-.2v-4.21h-1.26l-.25.85h-.71v-1.61h6.14v1.61h-.01Z"/>
      <path class="st3" d="M360.37,366.37l.87.04v.57h-3.33v-.57l.74-.2v-4.36l-.86-.04v-.57h3.33v.57l-.75.2v4.36Z"/>
      <path class="st3" d="M361.96,364.21c0-1.89,1.44-3.1,3.66-3.1s3.66,1.14,3.66,2.89c0,1.89-1.45,3.11-3.66,3.11s-3.66-1.15-3.66-2.9ZM367.5,364.08c0-1.27-.75-2.1-1.9-2.1s-1.87.86-1.87,2.15.75,2.1,1.88,2.1,1.88-.85,1.88-2.15h.01Z"/>
      <path class="st3" d="M377.61,361.81l-.71.19v4.98h-1.04l-3.95-3.71v3.08l.83.06v.57h-2.61v-.57l.74-.18v-4.36l-.85-.06v-.57h1.88l3.95,3.71v-3.08l-.86-.06v-.57h2.61v.57h.01Z"/>
    </g>
  </g>
  <g id="Layer_5">
    <path class="st1" d="M250.8,297.93h-.11l.28.03-.17-.03M267.76,296.72c-.42.03-.87.04-1.34.04h-.29c-1.23.38-2.48.68-3.75.91,1.82-.23,3.62-.56,5.38-.97M243.61,296.46c-.3.12-.6.2-.87.24,1.62.36,3.25.68,4.88.9.7.1,1.38.15,2.09.16-1.88-.32-3.94-.75-6.11-1.3M258.52,296.06c-2.25,1-4.53,1.62-6.78,1.81,1.13.14,2.17.24,3.07.26h1.42c3.14-.05,6.25-.52,9.27-1.36-1.97-.05-4.32-.29-6.98-.7M235.44,294.03c.34.42.72.71,1.15.88.85.29,1.73.59,2.61.85.89.27,1.77.49,2.65.73.16.03.33.05.49.05.3,0,.61-.05.93-.15-1.29-.33-2.61-.69-3.95-1.09-1.33-.4-2.64-.83-3.9-1.26M247.07,293.67c-.94,1.09-1.86,1.92-2.73,2.44l-.46.24c2.5.63,4.86,1.11,6.93,1.42,2.45-.1,4.92-.69,7.36-1.75-3.33-.53-7.08-1.31-11.1-2.33M229.32,291.64c.59.36,1.2.71,1.82,1.01,1.48.71,3,1.34,4.57,1.92-.2-.18-.42-.4-.6-.67-2.11-.74-4.07-1.51-5.81-2.28M228.15,291.12l.24.13-.09-.06-.15-.06M284.7,289.79c-1.28.36-3.02.55-5.15.55h-.76c-3.77,2.82-7.8,4.9-12.02,6.25.99-.01,1.85-.09,2.55-.21,4.61-1.19,9.06-2.97,13.2-5.27.74-.42,1.47-.84,2.18-1.3M233.98,289.75c.19,1.37.48,2.51.9,3.38.11.24.24.44.36.64,1.33.46,2.72.91,4.14,1.34,1.42.43,2.83.82,4.2,1.16.21-.09.44-.19.67-.33.84-.48,1.72-1.28,2.62-2.32-2.1-.55-4.28-1.14-6.5-1.8-2.21-.67-4.36-1.36-6.41-2.07M268.09,289.27c-2.95,2.95-6.07,5.17-9.24,6.63,2.8.42,5.27.65,7.28.67,4.32-1.3,8.49-3.4,12.35-6.25-2.9-.06-6.41-.43-10.38-1.05M252.14,285.9c-1.71,3.19-3.36,5.76-4.93,7.61,4.07,1.03,7.93,1.82,11.31,2.35,3.2-1.45,6.35-3.67,9.36-6.63-4.71-.75-10.07-1.87-15.74-3.33M223.22,285.52c1.46,2.22,3.2,4.08,5.18,5.51,1.89.88,4.12,1.78,6.56,2.64l-.26-.45c-.44-.9-.74-2.09-.93-3.53-3.91-1.34-7.49-2.76-10.55-4.15M252.83,284.16l-1.09.18-.78.29-.54.11-.67.02-1.21-.12h-.34c1.3.36,2.58.71,3.85,1.04.26-.49.53-1,.78-1.51M216.7,282.11c2.05,2.37,4.37,4.45,6.96,6.22.4.28.8.56,1.23.82.76.48,1.65.97,2.67,1.47-1.77-1.42-3.33-3.18-4.66-5.25-2.44-1.13-4.53-2.21-6.2-3.26M214.82,280.85c1.26,1.31,2.58,2.56,3.96,3.75-.91-.88-1.79-1.82-2.61-2.81-.49-.32-.94-.63-1.35-.93M234,280.46c-.33,3.62-.36,6.7-.06,9.07,2.09.73,4.27,1.43,6.49,2.1,2.23.67,4.43,1.28,6.58,1.82,1.57-1.82,3.24-4.41,4.94-7.61-1.45-.36-2.92-.76-4.4-1.18h-.18l-1.09.16-.55.42-.65.67-.98.21-.25.24-.35.49-.62.09-.56.05-.53-.27-1.13.55-.42.09-.61-.03-.44.11-.3-.06-.35-.27-.78-.35-.62.15.02-.59-.77-1.89.39-1.56.03-.23-.11-.72-.52-.69v-.03c-.72-.25-1.45-.49-2.16-.74M298.4,276.96c-1.58.53-3.85.77-6.71.77-.39,0-.78,0-1.19-.01-2.68,4.11-5.84,7.75-9.43,10.79-.65.57-1.33,1.09-2.02,1.62h.53c2.53,0,4.51-.25,5.75-.76,5.04-3.33,9.47-7.52,13.07-12.41M277.46,276.38c-2.5,4.61-5.37,8.68-8.49,11.99-.23.25-.46.48-.69.71,4,.62,7.57.98,10.45,1.03.75-.56,1.48-1.14,2.21-1.75,3.53-3.02,6.66-6.6,9.33-10.66-3.58-.1-7.92-.55-12.81-1.32M299.74,276.35c-.3.19-.63.35-1.03.49-2.49,3.41-5.37,6.48-8.59,9.19,3.56-2.8,6.79-6.05,9.62-9.68M274.13,275.82l.08.7-.06.44-.57.26-.52.18-.59.28-.34.05-.3.24-.35.16-1.2.39-1.29.27-2.04.29-.82.43-.75.27-1.07.02-1.51.33-.86.3-1.06.52-.25.17-.24.42-.35.34-.68.57-.49.27h-.31l-.61.13-.7-.02-1.15-.3-.32.12-.27.23-.94.35-1.02.77-.49.12c-.28.55-.56,1.08-.83,1.61,5.7,1.46,11.09,2.58,15.83,3.33.26-.27.53-.54.78-.8,3.11-3.27,5.93-7.31,8.44-11.89-1.03-.16-2.07-.34-3.14-.54M218.87,274.53c.86,4.12,2.26,7.72,4.15,10.68,3.11,1.43,6.76,2.89,10.73,4.27-.29-2.39-.26-5.47.09-9.07-5.55-1.92-10.61-3.92-14.96-5.88M279.1,272.72h-.03l-.89.26-2.15.61-.57.3-.55.39-.43.49-.35.87c1.11.2,2.18.39,3.23.56.6-1.13,1.19-2.28,1.75-3.47M209.41,269.59c1.66,4.51,3.97,8.55,6.87,12.02,1.67,1.08,3.86,2.26,6.43,3.46-1.84-2.97-3.21-6.55-4.06-10.64-3.65-1.66-6.78-3.31-9.24-4.83M235.72,269.17c-.8,4.07-1.37,7.8-1.7,11.1.72.25,1.44.49,2.17.74l.09-.59-.13-.6-.09-.61.06-.16.03-.14-.19-.96-.08-.19-.02-.19.12-.14v-.17l-.11-.3-.11-.55-.75-.48.2-.39.15.15.19.14.08-.27.02-.18-.19-1.23.69-1.58v-1.81l-.18-.53.02-.35-.06-.36-.18-.29-.05-.04M204.53,265.72c.34.77.7,1.52,1.08,2.28,2.2,4.21,4.93,8.13,8.12,11.69.53.5,1.19,1.04,2.02,1.59-2.78-3.43-4.99-7.42-6.6-11.83-2.09-1.33-3.67-2.59-4.63-3.71M296.74,264.46l-.77.08-.93.26-.57.27-.78.68-.64,1.78-.77.71-.48.13h-1.12l-1.58.08-.58.14-1.04,1.04-.11.34.15.26.02.29-.11.25-.49.68-.5.47-1.22.23-.42-.21-.39-.14-.76-.06-1.28.02-.52.33-.75.21-.73.36-1.04.05c-.57,1.2-1.16,2.37-1.77,3.5,4.93.78,9.27,1.23,12.84,1.33,2.58-3.95,4.72-8.34,6.35-13.08M306.69,260.28c-1.66.56-4.07.83-7.08.83h-.96l-.09.26-.04.3.11.77-.09.77.05.47v.56l-.3.15-.27.06h-1.07c-1.64,4.75-3.78,9.15-6.35,13.1.42,0,.82.01,1.21.01,2.94,0,5.24-.28,6.78-.85,3.52-4.82,6.26-10.27,8.03-16.18l.06-.26M308.82,259.01c-.41.48-1.05.87-1.92,1.18l-.11.39c-1.75,5.83-4.44,11.23-7.89,16,.57-.25,1.01-.54,1.33-.88,3.7-4.92,6.63-10.52,8.6-16.7M218.13,258.6c-.45,5.19-.31,10.12.47,14.56.06.36.14.74.2,1.11,4.38,1.99,9.49,4.01,15.05,5.95.32-3.33.9-7.09,1.71-11.18l-.14-.13v-.4l-.23-.41-.34-.33-.13-.59-.06-.78-.87-1.07-.85-.77c-5.43-1.95-10.42-3.98-14.81-5.97M206.51,252.56c-.01,4.86.62,9.57,1.92,14.03.26.91.56,1.8.87,2.67,2.45,1.55,5.6,3.2,9.29,4.9-.06-.32-.12-.65-.18-.98-.79-4.48-.94-9.44-.47-14.67-4.52-2.05-8.38-4.08-11.43-5.96M200.14,247.46c.32,6.06,1.7,12,4.08,17.55.82,1.21,2.48,2.6,4.83,4.1-.29-.82-.57-1.62-.8-2.47-1.31-4.51-1.94-9.29-1.92-14.2-2.9-1.8-5.01-3.5-6.18-4.98M311.47,246.43c-.09,1.09-.2,2.2-.35,3.31.2-1.21.35-2.35.35-3.31M199.37,246.23c.34,4.57,1.24,9.05,2.67,13.34-1.2-4-1.9-8.16-2.09-12.36-.25-.33-.44-.65-.57-.98M298.11,242.15l.26.28.36.29,1.53.64.13.04v-1.13c-.74-.03-1.5-.06-2.3-.12M308.92,241.56c-1.58.49-3.8.74-6.58.74-.56,0-1.14,0-1.75-.03v1.17l.54.16,1.17.27.78.47.28.04.45-.1.32.03.73.61.17.55.3.3.24.46.14.47.58.74.39.82.42.61.39.39.63.19.5.2v.39l-.11.49-.15.38-.57.69-.17.43-.63.71-.75,1.18-.3.26-1.03.57-.8.71-.99,1.27-.79,1.27-.29.41-.52.04-.33-.06-.21-.14.14-.34.1-.4h-.3l-.28.09-.76.93-.4.41-.14.54-.25.7-.32.62-.04.14h.94c3.05,0,5.46-.29,7.1-.85,1.78-6.14,2.47-12.4,2.18-18.54M221.73,240.92c-1.89,5.97-3.09,11.89-3.6,17.49,4.31,1.95,9.2,3.93,14.5,5.85l-.29-.5-.48-1.12-.2-.86-.71-1.03v-.38l-.05-.46-.13-.52-.06-.42-.62-1.81-.24-.3-.18-.41-.03-.3-.04-.18-.55-.32-.46-.78-1.49-1.3-.78-.17-.59-.47-.4-.59-.39-1-.75-1.08-.58-1.51.3-.53.03-.38-.16-.64-.19-.5-.12-.48.21-.64.14-.74.19-.38.16-.43-.03-.88-.19-.48.05-.31-.26-.17-.19-.35h.21c-.7-.29-1.37-.59-2.05-.89M311.27,240.06c-.38.61-1.12,1.09-2.17,1.45.3,6.15-.38,12.4-2.15,18.52,1.17-.45,1.9-1.06,2.14-1.85h0c1.8-6.03,2.5-12.15,2.18-18.13M277.54,238.96l-.98.61h.03l.13.05v.79l.18.3.24.13.86.13.55-.06,1.13-.44.57-.14,1.55.14,1.21.3,1.9.27h.38l1.08-.35h.03c-2.8-.48-5.76-1.06-8.85-1.74M222.48,238.6c-.11.31-.21.63-.32.94-.14.4-.26.8-.39,1.2.6.27,1.21.54,1.82.82l-.18-.24-.13-.27-.09-.65-.15-.49-.54-1.16-.05-.14M209.39,234.54c-.09.28-.18.56-.27.85-1.71,5.73-2.59,11.45-2.62,16.99,3.04,1.89,6.92,3.91,11.45,5.96.5-5.61,1.72-11.54,3.6-17.49-4.8-2.17-8.91-4.3-12.16-6.3M310.98,233.41c.16,1.03.3,2.08.4,3.12-.1-1.08-.24-2.12-.4-3.12M202.43,228.98l-.09.26c-1.77,5.9-2.5,11.97-2.21,17.93,1.09,1.5,3.23,3.23,6.19,5.1.04-5.53.91-11.23,2.62-16.93.1-.3.19-.59.28-.89-3.2-1.99-5.54-3.83-6.8-5.45M201.33,226.75c-1.77,6.25-2.41,12.55-2.03,18.69.08.45.28.92.62,1.44-.25-5.88.48-11.86,2.23-17.7l.12-.39c-.56-.73-.88-1.42-.96-2.05M214.08,223.33c-1.86,3.51-3.41,7.21-4.65,11.08,3.23,2,7.36,4.12,12.17,6.28.13-.4.25-.79.38-1.19.13-.4.27-.79.41-1.18l-.09-.26-.6-.93-.7-.7-.46-.33-.2-.29-.4-.04-.4-.41-.3-.03-.39-.1-.36-.77-.29-.72-.54-.96.19-.23.24-.38-.03-.5-.06-.34-.2-.64-.74-1.63-.23-.25-.36-.29-.16-.7-.04-.61-.6-.34-.84-2.26-.54-.8-.17-.49M304.83,222.78c-1.28.36-3.03.55-5.17.55-.56,0-1.15-.01-1.76-.03,1.74,6,2.67,12.37,2.69,18.85.64.02,1.26.03,1.85.03,2.75,0,4.95-.24,6.47-.74-.33-6.43-1.74-12.74-4.09-18.64M287.23,222.11c.72,5.69.88,11.74.43,17.95l.09-.1.23-.45.18-.29.19-.13.2-.25.18-.41.41-.4,1.55-.91.93-.8.12-.27.49-.39.42-.43,1.87-1.19.41-.52.26-.59.04-.03.42-.62.14-.09.13.04.31-.04.21-.33.02-.03.25.29-.04.23-.06.44-.32,1.34-.23.21-.11.18-.06.26.23.38-.25,2.45.04.18.28,1.19.48,1.13.46.63.47.86.35.36c.85.06,1.67.11,2.45.14-.02-6.47-.97-12.85-2.7-18.85-2.96-.12-6.5-.52-10.48-1.17M306.95,221.49c-.34.53-1,.93-1.95,1.22,2.35,5.91,3.75,12.21,4.09,18.63,1.15-.4,1.89-.97,2.17-1.67-.36-6.3-1.86-12.45-4.3-18.18M307.21,220.71l-.06.39-.06.19c2.21,5.13,3.64,10.58,4.2,16.19-.31-3.77-1.01-7.47-2.05-11.05-.44-1.37-.88-2.64-1.26-3.8v-.03c-.24-.63-.48-1.27-.74-1.89M271.82,218.82c-.36,2.76-.82,5.64-1.34,8.63l.35.21.58.79h-.06l-.18-.08-.24-.12-.09.09-.02.31.02.38.3.34.28.25.05.36,3.1,1.72.43-.36.67-.28.44.68.56.54.06.55-.03.06,5.59,3.1-4.53,2.85c3.11.68,6.1,1.26,8.91,1.73l.39-.17.39-.09.02-.02c.47-6.29.32-12.44-.42-18.2-4.58-.76-9.73-1.86-15.22-3.26M264.51,216.8l.13.67.25.38.27.64.1.33.04.28.16.42.17.44.05.43.3,1.03.5.83.11.3.04.44-.12.15-.06.18.4.46.69.42.28.11.31.18-.28.23.35.6.44.62.52.17.62.93.52.32c.53-2.96.97-5.83,1.34-8.57-.58-.15-1.17-.3-1.76-.46-.44.59-.71.91-.71.91.08-.21.17-.58.26-1.03-1.62-.44-3.27-.9-4.94-1.38M272.1,215.16c-.82,1.26-1.56,2.29-2.09,2.99.56.15,1.11.29,1.66.44.16-1.17.3-2.31.43-3.43M210.87,212.14c-3.63,4.97-6.5,10.57-8.4,16.67,1.23,1.61,3.56,3.48,6.79,5.49,1.24-3.9,2.82-7.62,4.7-11.16l-.54-.76-.26-.87-.64-.83-.48-1.4-.83-1.43-.68-4.68.29-.86.05-.16h0M244.38,209.84c.04.23.08.42.1.56.09.61,2.09,1.61,2.09,1.61l1.56.42,1.73-.21.36-.12c-2.03-.75-3.97-1.5-5.83-2.25M209.73,209.58c-3.54,4.82-6.35,10.29-8.16,16.32-.24.79.03,1.71.76,2.73,1.89-6.1,4.76-11.69,8.41-16.63-.69-.88-1.04-1.7-1.02-2.4M296.37,208.03c-.9.23-2.09.34-3.53.34-.45,0-.92-.01-1.42-.03,2.73,4.52,4.88,9.52,6.44,14.8.63.02,1.23.04,1.81.04,2.12,0,3.85-.17,5.11-.54-2.09-5.24-4.93-10.17-8.4-14.62M283.83,207.46c1.58,4.39,2.72,9.28,3.38,14.48,3.97.65,7.5,1.06,10.45,1.19-1.55-5.29-3.72-10.29-6.47-14.81-2.09-.11-4.57-.4-7.36-.87M298.04,207.13c-.28.36-.78.63-1.48.84,3.48,4.44,6.31,9.38,8.38,14.62.99-.31,1.64-.75,1.93-1.31-2.21-5.11-5.18-9.87-8.83-14.14M298.25,205.99c.06.27.06.52,0,.74l-.11.25c3.63,4.25,6.61,8.99,8.81,14.06.09-.29.09-.6,0-.94-1.84-4.29-4.2-8.35-7.03-12.06-.24-.3-.47-.6-.71-.89-.32-.39-.64-.77-.97-1.15M274.31,205.44c.69,2.89.34,5.37,0,6.02-.67,1.22-1.35,2.37-2,3.38-.14,1.23-.29,2.5-.46,3.8,5.46,1.42,10.6,2.51,15.19,3.27-.68-5.2-1.82-10.1-3.4-14.49-2.83-.48-5.98-1.15-9.32-1.99M267.01,211.77l-.2-.04h-.02l.19-.24.03.09v.2M261.05,201.53c-2.03,3.32-4.12,7.19-6.22,11.52l.35.14.83.53,1.34-.12,1.06-.09s.93,1.34,1.14,1.4c.14.03.54.29.79.45.21.06.44.14.65.2l.52.06,1.63-.36-.14.1-.02.11.48.16.38.02.26-.06.21.15.09.38.02.3.04.2c1.7.49,3.37.97,5.01,1.42.38-1.89.8-5.01.8-5.01-.09-5.02-2.1-8.09-4.56-9.96-1.61-.49-3.17-1-4.67-1.51M261.44,200.9c-.1.15-.19.31-.29.46,1.33.45,2.69.9,4.09,1.34-1.24-.85-2.56-1.42-3.8-1.8M257.82,200.18c1.04.38,2.1.76,3.19,1.13.1-.15.19-.31.28-.46-1.37-.41-2.62-.59-3.48-.67M256.68,200.11h-.05c-8.07.06-11.09,3.82-12.21,6.71,0,.09,0,.18-.04.31-.26.76-.15,1.77-.02,2.51,1.94.79,4,1.59,6.14,2.36l.21-.08.4-.52,1.14-.24.44.7,1.08.75.91.34c2.1-4.31,4.21-8.2,6.24-11.52-1.29-.44-2.54-.89-3.76-1.34-.23-.01-.39-.01-.46-.01M224.65,198.72c-4.59,3.2-8.74,7.05-12.27,11.46.2-.13.39-.25.56-.38h.09s.02.02.03.02c.39,0,1.7-1,2.02-1.2.11-.06.38-.3.7-.59.42.2,1.32.12,1.61.16h.12c.49,0,1.64-.26,2.09-.56.49-.33,1.55-1.16,1.77-1.55.06-.11.19-.14.36-.14.19,0,.42.04.67.09.24.04.47.09.68.09.1,0,.17,0,.24-.03.49-.16,1.28-1.16,1.55-1.38s-.11-1.81-.11-1.81c0,0-.23-.73-.67-1.7-.44-.96-.33-1.42-.33-1.42h1.94c-.41-.36-.75-.72-1.04-1.05M287.07,198.6c-.5.11-1.14.15-1.88.15-.36,0-.75-.01-1.17-.03,2.74,2.8,5.17,5.98,7.28,9.43.59.03,1.14.04,1.66.04,1.35,0,2.47-.1,3.31-.31-2.69-3.41-5.77-6.54-9.2-9.28M279.37,198.15c1.7,2.69,3.17,5.75,4.38,9.1,2.77.46,5.24.77,7.31.88-2.11-3.46-4.56-6.63-7.31-9.43-1.26-.09-2.75-.27-4.38-.56M288.27,198.1c-.2.19-.54.34-.97.45,3.4,2.75,6.46,5.87,9.14,9.28.7-.2,1.2-.47,1.45-.84-2.82-3.29-6.05-6.29-9.64-8.9M288.55,197.32l-.02.4-.13.24c3.56,2.6,6.78,5.58,9.6,8.85l.06-.13c.1-.33.02-.72-.24-1.15-.38-.43-.76-.85-1.15-1.27-2.48-2.6-5.19-4.92-8.15-6.94M272.89,196.72c.14,1.64.21,3.48.21,5.47.54,1.02.9,2.05,1.16,3.04,3.33.84,6.45,1.5,9.29,1.99-1.22-3.36-2.7-6.42-4.42-9.11-1.89-.33-4-.79-6.24-1.38M288.09,196.5c.16.19.28.36.35.54,1.16.78,2.29,1.62,3.38,2.5-.77-.69-1.56-1.35-2.35-2.01h0c-.45-.34-.91-.69-1.37-1.02M223.58,196.48c-5.22,3.43-9.84,7.75-13.62,12.81-.16.75.16,1.62.89,2.59.08-.11.15-.2.23-.31l.11-.31v-.28c.21-.17.46-.33.72-.49,3.61-4.59,7.88-8.6,12.61-11.91-.63-.77-.96-1.48-.94-2.09M223.8,195.67c-4.75,3.22-9.03,7.17-12.63,11.75,3.55-4.37,7.76-8.13,12.43-11.19l.04-.2.16-.35M265.81,194.61c-.26.32-.52.65-.77,1,4.09,1.4,6.51,3.79,7.92,6.32,0-1.91-.08-3.66-.21-5.23-1.14-.3-2.3-.62-3.48-.99-1.2-.35-2.34-.73-3.46-1.09M243.99,194.17c-3.07,1.46-6.06,3.2-8.93,5.22l2.14.64,3.91,2.21.47.6c1.5-3.16,4.01-5.16,6.66-6.43-1.6-.76-3.03-1.52-4.25-2.24M259.68,192.27c-1.42.63-2.84,1.36-4.26,2.2.73-.08,1.37-.1,1.89-.1h.43c2.81.1,5.16.52,7.14,1.17.26-.34.52-.68.77-1-2.19-.74-4.2-1.51-5.98-2.29M275.78,191.98c2.91,1.85,5.58,4.04,8.05,6.52.53.03,1.02.05,1.47.05.61,0,1.15-.03,1.6-.1-3.1-2.48-6.47-4.64-10.1-6.42h-.09c-.28,0-.59-.02-.92-.05M277.54,191.97l-.35.05c3.56,1.79,6.89,3.94,9.94,6.37.45-.09.79-.23,1-.41-3.25-2.35-6.79-4.38-10.58-6.03M277.98,191.77l-.17.11c3.73,1.64,7.23,3.66,10.44,5.98l.1-.18c.04-.15.03-.32-.05-.5-3.21-2.17-6.65-3.97-10.31-5.39M274.06,191.72c1.91,1.73,3.63,3.82,5.15,6.19,1.6.28,3.06.47,4.32.57-2.5-2.51-5.24-4.72-8.19-6.56-.4-.05-.84-.13-1.29-.2M278.02,191.25l.06.35h0c3.54,1.38,6.89,3.12,10,5.19-.3-.4-.78-.85-1.48-1.33-.26-.17-.52-.34-.77-.5-2.44-1.53-5.04-2.78-7.8-3.7M271.89,191.22c.45,1.42.78,3.21.98,5.31,2.17.57,4.24,1.01,6.11,1.34-1.56-2.4-3.32-4.51-5.27-6.22-.59-.12-1.19-.27-1.81-.43M239.84,191.07c-5.36,1.79-10.44,4.35-15.08,7.57.31.36.7.75,1.14,1.14h2.34s1.94-.23,2.5-.72c.36-.32,1.12-.55,1.61-.68l.45.17,1.56.61.49.15c2.88-2.03,5.87-3.79,8.95-5.26-1.8-1.07-3.16-2.08-3.96-2.98M274.25,190.66c.88.38,1.73.77,2.58,1.19l.39-.02c-.98-.42-1.95-.8-2.96-1.17M274.51,190.56c1.03.39,2.04.78,3.05,1.22l.21-.09c-1.08-.41-2.16-.79-3.26-1.13M269.69,190.56c-1.17.92-2.44,2.23-3.77,3.88,1.09.38,2.22.74,3.38,1.08,1.16.34,2.29.65,3.41.96-.19-2.11-.53-3.91-.99-5.31-.33-.1-.69-.18-1.02-.29-.34-.1-.68-.2-1.01-.32M277.23,190.52c.25.16.44.31.59.46,1.21.4,2.39.86,3.55,1.37-.58-.3-1.17-.6-1.77-.88-.76-.36-1.56-.69-2.37-.94M272.86,190.28c.87.45,1.72.94,2.55,1.46.35.04.68.08.98.09-1.15-.56-2.33-1.07-3.52-1.55M255.51,190.22c-3.84.83-7.63,2.12-11.31,3.84,1.23.72,2.67,1.47,4.27,2.23,2.29-1.05,4.65-1.56,6.54-1.78,1.48-.89,2.97-1.67,4.45-2.34-1.52-.67-2.87-1.32-3.96-1.95M276.55,190.11l.04.03h.05l-.1-.03M272.11,190.1c.57.43,1.14.88,1.7,1.37.41.09.78.15,1.14.2-.92-.56-1.87-1.08-2.83-1.58M273.16,189.96c1.61.46,3.2.99,4.75,1.59l-.18-.4c-1.48-.48-3-.89-4.57-1.19M267.76,189.86c-2.58.38-5.2,1.16-7.82,2.3,1.76.75,3.72,1.51,5.85,2.24,1.32-1.65,2.58-2.96,3.75-3.9-.6-.2-1.2-.43-1.76-.64M271.33,189.78c.18.36.34.77.49,1.22.56.15,1.09.28,1.6.39-.69-.59-1.37-1.13-2.09-1.61M272.57,189.65c1.63.3,3.22.69,4.76,1.18-.23-.16-.5-.34-.84-.53-1.19-.32-2.44-.54-3.71-.63l-.21-.02M271.08,189.63c-.39.21-.79.48-1.21.79.28.1.58.19.89.28.3.09.61.17.9.26-.17-.49-.36-.94-.58-1.33M270.79,189.62c-.88.01-1.76.08-2.64.19.47.18,1,.38,1.55.56.36-.29.73-.54,1.09-.75M238.94,189.39c-5.4,1.56-10.52,3.91-15.16,6.94-.08.62.23,1.35.88,2.15,4.63-3.22,9.71-5.77,15.05-7.58-.47-.55-.73-1.05-.76-1.51M266.73,189.22c.32.15.68.3,1.06.45.73-.1,1.45-.18,2.17-.21-1.07-.13-2.16-.2-3.23-.24M265.11,189.18c-3.1,0-6.22.34-9.32.98,1.11.61,2.43,1.26,3.92,1.91,2.6-1.15,5.17-1.95,7.73-2.34-.43-.17-.83-.35-1.19-.54-.38,0-.75-.01-1.13-.01M273.16,189.01c-.53,0-1.09.15-1.71.43.45,0,.9.02,1.34.05,1.02.08,2,.23,2.95.45-.6-.29-1.31-.59-2.11-.88-.15-.03-.31-.04-.48-.04M265.43,188.54c.25.15.55.3.87.46.99.03,1.96.1,2.94.18-1.27-.26-2.53-.47-3.81-.64M239.41,188.32c-.85.24-1.68.49-2.52.77-4.42,1.55-8.64,3.64-12.55,6.21-.26.23-.43.49-.53.77h0c4.64-3,9.73-5.33,15.1-6.88l.05-.26c.06-.24.21-.44.43-.62M252.79,188.31c-4.37.41-8.66,1.32-12.79,2.69.82.88,2.19,1.88,4,2.95,3.66-1.73,7.44-3.03,11.27-3.87-1.08-.63-1.92-1.22-2.48-1.77M264.75,188.09l.31.23c.93.12,1.87.26,2.8.43-1.04-.25-2.07-.46-3.11-.65M258.07,188.06c-1.7,0-3.38.08-5.05.23.57.53,1.44,1.11,2.53,1.73,3.19-.68,6.41-1.03,9.6-1.03h.7c-.33-.17-.62-.34-.87-.5-2.31-.29-4.61-.43-6.91-.43M269.91,187.9c.45.34.87.86,1.23,1.51.67-.35,1.29-.55,1.87-.59-.23-.08-.45-.15-.68-.23-.3-.1-.58-.19-.87-.27-.29-.09-.59-.17-.87-.25-.12-.03-.25-.06-.36-.1h-.03c-.1-.02-.19-.04-.3-.06M264.36,187.66l.13.19c1.07.19,2.15.41,3.21.67-1.09-.32-2.22-.6-3.34-.85M267,187.3c.91.34,1.82.76,2.72,1.26.39.21.77.45,1.15.7-.44-.72-.96-1.22-1.53-1.48-.46-.11-.91-.2-1.37-.31-.33-.06-.65-.12-.96-.16M264.69,187.24c-.2.04-.33.13-.38.23,1.63.35,3.25.78,4.85,1.29-1.48-.6-2.96-1.11-4.48-1.52M252.06,187.24c-4.42.2-8.77.92-12.94,2.1.01.45.28.96.76,1.51,4.11-1.37,8.39-2.3,12.75-2.72-.3-.32-.49-.62-.56-.9M254.59,187.18c-.78,0-1.58.01-2.36.04.08.27.28.57.61.89,1.74-.16,3.48-.25,5.24-.25,2.19,0,4.39.13,6.59.39l-.27-.24c-3.28-.57-6.56-.85-9.81-.85M265.4,187.17h-.21c1.56.45,3.1,1,4.64,1.65l-.2-.12c-1.12-.62-2.26-1.13-3.44-1.5-.29-.02-.55-.03-.77-.03M246.2,186.48h-.3c-33.23,1.2-59.79,28.45-59.79,61.89s27.8,61.93,62.07,61.93c31.3,0,57.19-23.12,61.46-53.17.02-.19.05-.39.1-.6-.15.56-.31,1.12-.47,1.67-1.93,6.45-4.95,12.31-8.76,17.42h.01l-.14.18c-3.99,5.29-8.84,9.79-14.31,13.34v.02l-.32.19c-1.03.65-2.08,1.29-3.16,1.87-1.31.75-2.66,1.44-4.04,2.07v-.03c-2.81,1.27-5.71,2.31-8.69,3.11v.02c-.16.04-.34.09-.54.13-4.26,1.09-8.67,1.71-13.15,1.77h-1.41c-4.29-.03-8.66-.57-13-1.64l-.12-.03h0c-.85-.21-1.68-.45-2.54-.71-.85-.25-1.68-.52-2.51-.82h0l-.11-.03c-4.2-1.49-8.12-3.44-11.73-5.76l-.42-.27h0l-.44-.3h0l-.34-.24c-3.69-2.51-7.02-5.43-9.96-8.69l-.42-.43.02-.02c-2.03-2.3-3.87-4.75-5.49-7.34h-.02c-.82-1.28-1.56-2.61-2.25-3.96-.56-1.07-1.08-2.16-1.58-3.27l-.19-.38h.03c-2.59-5.96-4.16-12.37-4.58-18.97l-.02-.24h.02c-.38-6.36.34-12.91,2.29-19.36.12-.39.23-.75.35-1.13,1.93-5.93,4.75-11.35,8.28-16.12l.1-.17h.02c3.92-5.25,8.7-9.72,14.08-13.29l.33-.25v.02c2.45-1.59,5.01-2.99,7.67-4.19v-.02c1.49-.68,3.04-1.28,4.6-1.81,1.12-.39,2.26-.75,3.41-1.07l.52-.16v.02c1.86-.5,3.73-.9,5.63-1.21h-.19M252.26,186.44c-3.82.05-7.62.55-11.32,1.47-.32.08-.63.16-.94.25-.46.23-.74.52-.85.85l-.02.15c4.16-1.18,8.49-1.9,12.9-2.09l.03-.27.2-.34M253.11,186.43h-.56l-.33.4-.02.21c.82-.03,1.63-.05,2.45-.05,3.17,0,6.36.27,9.56.8l-.09-.18c-3.65-.78-7.34-1.18-11.02-1.18M260.99,186.24c1.26.2,2.5.48,3.72.82.2-.04.46-.06.75-.08-.17-.04-.33-.09-.49-.13-1.13-.2-2.24-.4-3.38-.56-.19-.02-.4-.04-.59-.06M253.1,186c-2.45.1-4.86.35-7.24.77,2.2-.32,4.41-.49,6.64-.52.16-.1.36-.18.6-.25M254.9,185.95c-.85.03-1.52.13-1.97.3h.18c3.68,0,7.37.4,11.01,1.18h0l.26-.27c-2.81-.74-5.67-1.15-8.54-1.2-.32,0-.62-.01-.93-.01M254.79,185.76h.21-.23M254.6,185.76c-.63,0-1.33.03-2.05.08.71-.03,1.43-.05,2.15-.06h-.09"/>
    <path class="st2" d="M236.17,281.2v.03l.5.69.11.72-.03.23-.39,1.56.77,1.89-.02.59.62-.15.78.35.35.27.3.06.44-.11.61.03.42-.09,1.13-.55.53.27.56-.05.62-.09.35-.49.25-.24.98-.21.65-.67.55-.42,1.09-.15h.18c-1.52-.43-3.07-.87-4.61-1.34-2.32-.7-4.57-1.42-6.77-2.15M258.2,272.32c-1.7,4.42-3.43,8.39-5.14,11.79l.49-.12,1.02-.77.94-.35.27-.23.32-.12,1.15.3.7.02.61-.13h.31l.49-.27.68-.57.35-.34.24-.42.25-.17,1.06-.52.86-.3,1.51-.33,1.07-.02.75-.27.82-.43,2.04-.29,1.29-.27,1.2-.39.35-.16.3-.24.34-.05.59-.28.52-.18.57-.26.06-.44-.08-.7c-4.92-.88-10.27-2.05-15.93-3.5M236.41,265.79c-.26,1.15-.48,2.28-.71,3.39l.05.04.18.29.06.36-.02.35.18.53v1.81l-.69,1.58.19,1.23-.02.18-.08.27-.19-.14-.15-.15-.2.39.75.48.11.55.13.3v.17l-.14.14.02.19.08.19.19.96-.03.14-.06.16.09.61.13.6-.09.59c2.21.74,4.48,1.46,6.79,2.16,1.75.53,3.5,1.02,5.22,1.49h.34l1.21.11.67-.02.54-.11.78-.29,1.09-.18c1.73-3.42,3.49-7.44,5.2-11.89-3.53-.9-7.18-1.91-10.87-3.03-3.7-1.12-7.3-2.28-10.74-3.47M232.94,264.57l.85.77.87,1.07.06.78.13.59.34.33.24.41v.4l.13.13c.21-1.08.44-2.18.69-3.31-1.12-.39-2.22-.77-3.31-1.17M298,261.08c-.09.3-.17.6-.27.91-.25.83-.52,1.65-.79,2.46h1.07l.27-.06.31-.15v-.56l-.06-.47.09-.77-.11-.77.04-.3.09-.26c-.21,0-.43,0-.64-.01M284.18,259.64c-1.32,4.64-2.96,9.04-4.87,13.08l1.04-.05.73-.36.75-.21.52-.33,1.28-.02.76.06.39.14.42.21,1.22-.23.5-.47.49-.68.11-.25-.02-.29-.15-.26.11-.34,1.04-1.04.58-.14,1.58-.09h1.12l.48-.12.77-.71.64-1.78.78-.68.57-.27.93-.26.77-.08c.29-.84.56-1.68.82-2.54.1-.28.17-.57.26-.85-3.81-.13-8.42-.61-13.63-1.44M263.92,255.35c-1.78,6.04-3.69,11.72-5.64,16.81,5.62,1.44,10.97,2.61,15.85,3.49l.35-.87.43-.49.55-.39.57-.3,2.15-.61.89-.26h.03c1.92-4.06,3.57-8.47,4.89-13.11-6.02-.98-12.84-2.4-20.09-4.26M241.02,248.48c-1.85,6.03-3.39,11.82-4.56,17.13,3.44,1.19,7.05,2.35,10.75,3.47,3.7,1.12,7.34,2.12,10.88,3.04,1.95-5.09,3.86-10.75,5.63-16.81-3.71-.96-7.53-2.01-11.43-3.19-3.9-1.17-7.66-2.38-11.28-3.64M300.58,243.45c-.09,5.83-.9,11.73-2.54,17.49.21,0,.44.01.65.01l.04-.14.32-.62.25-.7.14-.54.4-.41.76-.93.28-.06h.3l-.1.39-.14.34.21.14.33.06.52-.04.29-.41.79-1.27.99-1.27.8-.71,1.03-.57.3-.26.75-1.18.63-.71.17-.43.57-.69.15-.38.11-.49v-.39l-.5-.2-.63-.19-.39-.39-.42-.61-.39-.82-.58-.74-.14-.47-.24-.46-.3-.3-.17-.55-.73-.61-.32-.03-.45.1-.28-.04-.78-.47-1.17-.27-.54-.16M223.57,241.81l.19.35.26.17-.05.31.19.48.03.88-.16.43-.19.38-.14.74-.21.64.12.48.19.5.16.64-.03.38-.3.53.58,1.51.75,1.08.39,1,.4.59.59.47.78.17,1.49,1.3.46.78.55.32.04.18.03.3.18.41.24.3.62,1.81.06.42.13.52.08.46v.38l.7,1.03.2.86.48,1.12.29.5c1.19.43,2.41.87,3.65,1.29,1.17-5.32,2.7-11.11,4.56-17.13-6.22-2.15-11.99-4.38-17.06-6.6h-.21M287.59,240.87c-.47,5.74-1.47,11.6-3.03,17.4-.11.4-.21.8-.33,1.2,5.2.84,9.82,1.33,13.61,1.46,1.64-5.8,2.47-11.71,2.55-17.55l-.13-.04-1.53-.64-.36-.29-.26-.28c-3.1-.21-6.64-.64-10.52-1.27M287.45,240.28l-.02.02-.39.09-.39.17c.26.04.5.09.75.13,0-.13.02-.27.03-.4M268.56,237.17c-.58,2.7-1.22,5.45-1.93,8.23-.84,3.34-1.73,6.61-2.66,9.78,7.27,1.87,14.06,3.31,20.08,4.28.12-.41.25-.8.35-1.22,1.56-5.78,2.54-11.64,3.02-17.37-.33-.05-.67-.11-1.01-.17h-.03l-1.08.35h-.38l-1.9-.27-1.21-.3-1.55-.14-.57.14-1.13.44-.55.06-.86-.13-.24-.13-.18-.3v-.79l-.14-.05h-.03l-1.48.93-6.52-3.34M296.47,231.84l-.02.03-.21.33-.31.04-.13-.04-.14.09-.42.62-.04.03-.26.59-.41.52-1.87,1.19-.42.43-.49.39-.12.27-.93.8-1.55.91-.41.4-.18.41-.2.25-.19.13-.18.29-.23.45-.09.1c-.02.21-.03.44-.05.65,3.82.62,7.31,1.05,10.36,1.27l-.35-.36-.47-.86-.46-.63-.48-1.13-.28-1.19-.04-.18.25-2.45-.23-.38.06-.26.11-.18.23-.21.32-1.34.06-.44.04-.23-.25-.29M275.67,231.05l-.67.28-.43.36,2.12,1.18.03-.06-.06-.55-.56-.54-.44-.68M247.27,230.44c-1.04,2.67-2.05,5.43-3.05,8.24-1.14,3.25-2.2,6.46-3.17,9.63,3.62,1.23,7.4,2.46,11.29,3.63,3.9,1.17,7.72,2.23,11.43,3.18.92-3.17,1.82-6.43,2.66-9.77.71-2.8,1.35-5.56,1.94-8.27l-1.19-.61c-3.06-.8-6.2-1.68-9.39-2.65-3.63-1.08-7.15-2.22-10.52-3.38M270.48,227.45c-.11.6-.21,1.2-.32,1.8l1.31.73-.05-.36-.28-.25-.3-.34-.02-.38.02-.31.09-.09.24.12.18.09h.06l-.58-.8-.35-.21M248.64,227.01c-.43,1.07-.87,2.17-1.3,3.27,3.37,1.16,6.88,2.3,10.51,3.38,2.91.87,5.76,1.67,8.56,2.43l-13.3-6.8c-1.72-.77-3.2-1.53-4.48-2.26M229.23,223.39c-2.62,4.76-4.9,9.87-6.74,15.22l.05.14.54,1.16.15.49.09.65.13.27.18.24c5.13,2.24,10.97,4.5,17.29,6.68.97-3.16,2.02-6.36,3.17-9.63.99-2.82,2.01-5.57,3.05-8.24-6.61-2.29-12.65-4.66-17.87-7M217.59,217.41c-1.27,1.9-2.44,3.87-3.51,5.91l.17.49.54.8.84,2.26.6.34.04.61.16.7.36.29.23.25.74,1.63.2.64.06.34.03.5-.24.38-.19.23.54.96.29.72.36.77.39.1.3.03.4.41.4.04.2.29.46.33.7.7.6.93.09.26c1.84-5.26,4.09-10.29,6.68-14.99-4.51-2.03-8.39-4.02-11.47-5.9M263.15,215.25l-1.63.36-.52-.06c.7.21,1.4.43,2.1.64.46.14.91.27,1.36.41l-.04-.2-.02-.3-.09-.38-.21-.15-.26.06-.38-.02-.48-.16.02-.11.14-.1M254.54,213.64c-.87,1.79-1.74,3.66-2.6,5.6,3.76,2.06,11.67,6.39,11.67,6.39l6.39,3.53c.11-.61.23-1.21.33-1.81l-.52-.32-.62-.93-.52-.17-.44-.62-.35-.6.28-.23-.31-.18-.28-.11-.69-.42-.4-.46.06-.18.12-.15-.04-.44-.11-.3-.5-.83-.3-1.03-.05-.43-.17-.44-.16-.42-.04-.28-.1-.33-.27-.64-.25-.38-.13-.67c-.48-.14-.98-.29-1.46-.43-2.94-.88-5.77-1.79-8.51-2.73M254.83,213.05c-.08.14-.14.29-.2.43,1.86.63,3.77,1.26,5.72,1.88-.26-.17-.65-.42-.79-.45-.2-.05-1.14-1.4-1.14-1.4l-1.06.09-1.34.12-.83-.53-.35-.14M210.87,212.14l-.05.16-.29.86.68,4.68.83,1.43.48,1.4.64.83.26.87.54.76c1.06-2.01,2.22-3.95,3.47-5.83-3.06-1.88-5.3-3.63-6.56-5.16M252.23,211.18l-1.14.24-.4.52-.21.08c1.3.47,2.63.94,3.98,1.41.08-.14.14-.29.21-.43l-.91-.34-1.08-.75-.44-.7M211.9,210.47c-.26.16-.52.32-.72.49v.28l-.11.31c.27-.36.55-.73.83-1.08M243.76,209.59c-.02.33-.02.53-.02.53-.1,3.96,4.07,6.83,6.31,8.08.16.1.8.45,1.73.96.86-1.93,1.73-3.79,2.59-5.57-1.43-.49-2.81-.99-4.17-1.48l-.36.12-1.73.21-1.56-.42s-2.01-1-2.09-1.61c-.02-.14-.05-.33-.1-.56-.2-.09-.41-.16-.61-.25M239.77,208.03c-3.83,4.48-7.37,9.6-10.47,15.21,5.2,2.33,11.26,4.7,17.87,6.98.43-1.12.87-2.21,1.31-3.29-6.75-3.93-7.77-7.14-7.77-7.14-1.89-4.28-1.62-8.59-.93-11.75M244.41,206.82c-.41,1.05-.57,1.99-.63,2.59.18.08.36.15.56.23-.12-.74-.24-1.75.02-2.51.04-.13.05-.23.04-.31M230.31,203.05c-4.75,4.05-9.05,8.85-12.63,14.24,3.07,1.87,6.94,3.85,11.46,5.87,3.11-5.64,6.7-10.81,10.56-15.31-3.67-1.64-6.85-3.26-9.39-4.79M225.69,199.77h-1.94s-.11.46.33,1.42c.44.96.67,1.7.67,1.7,0,0,.39,1.59.11,1.81-.28.23-1.05,1.22-1.55,1.38-.06.02-.15.03-.24.03-.19,0-.44-.04-.68-.09-.24-.04-.47-.09-.67-.09-.17,0-.3.03-.36.14-.23.39-1.28,1.21-1.77,1.55-.45.3-1.6.56-2.09.56h-.12c-.3-.04-1.2.04-1.61-.16-.32.29-.59.53-.7.59-.32.19-1.63,1.2-2.02,1.2h-.12c-.17.12-.36.24-.56.36-.48.6-.96,1.22-1.42,1.85,1.21,1.52,3.46,3.28,6.55,5.17,3.6-5.39,7.88-10.18,12.63-14.24-1.86-1.13-3.36-2.2-4.45-3.19M235.06,199.37c-1.59,1.12-3.13,2.31-4.65,3.58,2.54,1.51,5.71,3.12,9.38,4.76.02-.02.03-.04.05-.06.64-2.74,1.58-4.52,1.58-4.52.04-.11.1-.2.14-.3l-.47-.6-3.91-2.21-2.14-.64M232.35,198.37c-.48.12-1.23.35-1.61.68-.57.49-2.5.72-2.5.72h-2.34c1.08.96,2.55,2,4.37,3.09,1.48-1.26,3.02-2.45,4.58-3.55l-.49-.15-1.56-.61-.45-.17"/>
    <path class="st2" d="M201.4,225.86c-1.94,6.46-2.66,13-2.29,19.36h-.02l.02.24c.42,6.6,2,13.02,4.58,18.96h-.03l.19.39c.48,1.11,1.02,2.2,1.58,3.27.7,1.35,1.44,2.68,2.25,3.96h.02c1.63,2.58,3.47,5.03,5.49,7.33l-.02.02.42.43c2.94,3.26,6.27,6.18,9.96,8.69l.34.25h0l.44.3h0l.42.27c3.61,2.32,7.53,4.27,11.73,5.76l.11.04h0c.83.29,1.66.56,2.51.8.85.26,1.7.49,2.54.71h0l.12.03c4.35,1.07,8.71,1.61,13,1.64h1.41c4.48-.06,8.89-.68,13.15-1.77.19-.03.38-.08.55-.13v-.02c2.97-.8,5.87-1.84,8.67-3.11v.03c1.4-.63,2.74-1.32,4.05-2.07,1.07-.58,2.12-1.21,3.16-1.87l.33-.19v-.02c5.45-3.55,10.31-8.05,14.31-13.34l.14-.17h-.01c3.81-5.12,6.83-10.97,8.76-17.43,1.92-6.39,2.64-12.86,2.3-19.17v-.18h0c-.38-6.55-1.91-12.92-4.43-18.83l-.15-.4h-.02c-1.16-2.65-2.51-5.23-4.07-7.68h.02c-.88-1.41-1.82-2.75-2.83-4.05-.73-.96-1.49-1.9-2.29-2.8l-.35-.44-.02.02c-3.08-3.49-6.61-6.6-10.54-9.26h0l-.28-.19-.44-.29h0l-.23-.15c-1.99-1.29-4.06-2.45-6.21-3.49h-.03c-1.79-.88-3.65-1.65-5.56-2.32h0l-.17-.06h-.06c-.49-.19-.98-.34-1.47-.5-.3-.1-.59-.18-.89-.28h0c-.3-.1-.6-.17-.9-.26-.49-.13-1-.28-1.49-.4l-.06-.02-.17-.04h0c-1.96-.48-3.94-.86-5.9-1.14h-.04c-2.37-.33-4.73-.49-7.09-.52h-1.14c-4.75.06-9.43.73-13.94,1.94v-.02l-.53.16c-1.15.32-2.3.68-3.41,1.07-1.57.54-3.11,1.14-4.61,1.81v.02c-2.65,1.19-5.2,2.6-7.64,4.19v-.02l-.35.25c-5.37,3.55-10.15,8.04-14.08,13.3h-.02l-.1.16c-3.53,4.76-6.35,10.18-8.28,16.12-.12.38-.24.74-.35,1.13M202.43,228.98c1.27,1.62,3.6,3.47,6.8,5.45-.1.3-.19.6-.28.89-1.72,5.7-2.59,11.41-2.62,16.93-2.97-1.87-5.11-3.6-6.19-5.1-.29-5.96.44-12.02,2.21-17.93l.09-.26M205.61,267.99c-.39-.75-.74-1.5-1.08-2.28.96,1.14,2.53,2.38,4.63,3.71,1.6,4.42,3.82,8.39,6.6,11.83-.82-.56-1.49-1.09-2.02-1.59-3.2-3.54-5.93-7.47-8.12-11.69M269.31,296.36c-.71.13-1.57.2-2.55.21,4.22-1.34,8.25-3.43,12.02-6.25,2.48.04,4.5-.13,5.91-.54-.72.46-1.45.88-2.18,1.3-4.14,2.31-8.59,4.08-13.2,5.27M309.09,258.18h0c-.24.78-.98,1.4-2.14,1.85,1.77-6.13,2.46-12.38,2.15-18.52,1.05-.35,1.8-.84,2.17-1.45.32,5.98-.38,12.09-2.18,18.13h0M298,206.82c-2.82-3.27-6.04-6.26-9.6-8.85l.13-.24.02-.4c3.14,2.16,6.03,4.66,8.64,7.47.21.24.43.47.64.71.26.44.34.84.25,1.17l-.06.13M286.6,195.47c.7.49,1.19.93,1.48,1.33-3.11-2.07-6.46-3.81-10-5.18h0l-.06-.35c2.76.93,5.37,2.17,7.8,3.7.26.17.52.33.77.5M272.34,188.6c.23.08.45.15.68.23-.58.04-1.2.24-1.87.59-.36-.67-.78-1.18-1.24-1.52.23.05.47.12.71.18.28.08.58.16.87.25.29.09.57.18.87.27M240,188.15c.31-.09.62-.16.94-.25,3.71-.92,7.5-1.42,11.32-1.47l-.2.34-.03.27c-4.41.2-8.74.91-12.9,2.09l.02-.15c.1-.33.39-.62.85-.85M209.39,234.54c3.25,2,7.36,4.13,12.16,6.3-1.88,5.96-3.09,11.88-3.6,17.49-4.53-2.05-8.41-4.07-11.45-5.96.03-5.54.9-11.26,2.62-16.99.09-.29.18-.56.27-.85M297.55,261.93c-1.71,5.73-4.14,10.98-7.17,15.63-3.56-.1-7.91-.55-12.84-1.33,2.67-4.97,4.93-10.57,6.63-16.58,5.2.84,9.81,1.32,13.63,1.44-.09.28-.16.57-.26.85M288.25,197.86c-3.21-2.32-6.7-4.34-10.44-5.98l.17-.11c3.66,1.42,7.1,3.23,10.31,5.39.08.18.1.35.05.5l-.1.18M264.13,187.62l.09.18c-4.04-.69-8.05-.92-12.01-.76l.02-.21.33-.4c3.86-.04,7.75.35,11.58,1.18M221.73,240.92c5.56,2.51,12.03,5.05,19.11,7.5-1.86,6.02-3.39,11.8-4.56,17.13-6.72-2.33-12.87-4.75-18.15-7.15.5-5.6,1.72-11.53,3.6-17.49M236.46,265.61c1.17-5.31,2.72-11.11,4.56-17.13,3.62,1.26,7.39,2.47,11.28,3.64,3.9,1.18,7.73,2.23,11.43,3.19-1.77,6.05-3.69,11.72-5.63,16.81-3.54-.91-7.18-1.91-10.88-3.04-3.7-1.11-7.31-2.28-10.75-3.47M247.17,269.26c3.69,1.11,7.34,2.12,10.87,3.03-1.99,5.14-4.01,9.68-5.99,13.4-2.94-.76-5.99-1.6-9.06-2.52-3.08-.93-6.07-1.89-8.96-2.9.41-4.19,1.21-9.09,2.4-14.48,3.44,1.19,7.04,2.35,10.74,3.47M277.36,276.19c-5.72-.92-12.19-2.28-19.09-4.05,1.95-5.09,3.86-10.76,5.64-16.81,7.25,1.86,14.07,3.28,20.09,4.26-1.71,6.01-3.97,11.62-6.64,16.58M247.35,230.27c2.34-6.01,4.76-11.61,7.19-16.63,2.74.94,5.57,1.86,8.51,2.73,2.93.88,5.81,1.68,8.61,2.4-.74,5.53-1.8,11.55-3.17,17.85-3.44-.89-7.01-1.88-10.64-2.96-3.63-1.08-7.14-2.22-10.51-3.38M257.8,233.82c3.63,1.09,7.19,2.08,10.65,2.97-.6,2.8-1.28,5.66-2.01,8.55-.83,3.34-1.73,6.61-2.66,9.77-3.71-.94-7.52-2.01-11.43-3.18-3.9-1.17-7.67-2.39-11.29-3.63.98-3.16,2.04-6.37,3.17-9.63,1-2.81,2.01-5.57,3.05-8.24,3.38,1.16,6.89,2.3,10.52,3.38M254.61,213.47c2.18-4.5,4.35-8.52,6.44-11.94,1.88.64,3.84,1.27,5.88,1.88s4.02,1.17,5.96,1.66c-.15,4-.56,8.56-1.22,13.51-2.78-.72-5.64-1.52-8.56-2.39-2.93-.88-5.76-1.79-8.48-2.73M271.66,190.96c-.29-.09-.59-.16-.9-.26-.31-.1-.6-.19-.89-.28.42-.32.83-.58,1.21-.79.2.4.41.84.58,1.33M271.33,189.78c.72.49,1.41,1.03,2.09,1.61-.5-.11-1.04-.25-1.6-.39-.15-.45-.3-.86-.49-1.22M269.69,190.37c-.55-.18-1.07-.36-1.55-.56.88-.12,1.76-.17,2.64-.19-.35.2-.72.45-1.09.75M267.79,189.67c-.39-.15-.75-.3-1.06-.45,1.07.04,2.16.12,3.23.24-.72.03-1.44.11-2.17.21M272.11,190.1c.97.48,1.91,1.01,2.83,1.58-.35-.05-.73-.13-1.14-.2-.56-.48-1.12-.94-1.7-1.37M275.35,191.92c2.95,1.84,5.69,4.05,8.19,6.56-1.27-.1-2.73-.29-4.32-.57-1.52-2.37-3.25-4.46-5.15-6.19.45.08.89.15,1.29.2M278.98,197.87c-1.88-.33-3.94-.78-6.11-1.34-.19-2.1-.53-3.88-.98-5.31.62.16,1.23.31,1.81.43,1.95,1.72,3.7,3.82,5.27,6.22M272.72,196.49c-1.12-.3-2.25-.61-3.41-.96-1.16-.35-2.29-.71-3.38-1.08,1.33-1.65,2.6-2.97,3.77-3.88.33.11.68.23,1.01.32.33.11.69.2,1.02.29.46,1.41.79,3.2.99,5.31M265.79,194.4c-2.11-.73-4.09-1.48-5.85-2.24,2.63-1.15,5.26-1.92,7.82-2.3.56.21,1.16.44,1.76.64-1.16.93-2.43,2.24-3.75,3.9M259.71,192.06c-1.48-.65-2.81-1.3-3.92-1.91,3.47-.72,6.96-1.06,10.44-.97.36.17.76.35,1.19.54-2.54.4-5.13,1.19-7.73,2.34M255.55,190.03c-1.09-.62-1.96-1.2-2.53-1.73,3.94-.35,7.95-.3,11.97.2.25.17.54.33.87.5-3.43-.05-6.89.29-10.3,1.02M265.43,188.54c1.27.17,2.54.39,3.81.64-.98-.1-1.95-.16-2.94-.18-.32-.16-.62-.31-.87-.46M265.06,188.32l-.31-.23c1.04.19,2.07.4,3.11.65-.93-.16-1.87-.31-2.8-.43M277.21,191.83l-.39.02c-.85-.42-1.7-.82-2.58-1.19,1.01.36,1.99.75,2.96,1.17M276.38,191.84c-.29-.01-.61-.04-.98-.09-.84-.53-1.68-1.01-2.55-1.46,1.19.47,2.37,1,3.52,1.55M276.8,192.04c3.62,1.78,6.99,3.95,10.1,6.42-.76.12-1.81.13-3.06.05-2.46-2.49-5.14-4.68-8.05-6.52.36.04.72.06,1.01.05M287.07,198.6c3.42,2.75,6.49,5.87,9.2,9.28-1.17.29-2.87.38-4.97.27-2.1-3.46-4.54-6.63-7.28-9.43,1.26.06,2.3.03,3.05-.12M291.06,208.13c-2.07-.11-4.55-.41-7.31-.88-1.21-3.36-2.68-6.42-4.38-9.1,1.63.29,3.11.47,4.38.56,2.75,2.8,5.19,5.98,7.31,9.43M283.55,207.22c-3.18-.55-6.73-1.31-10.5-2.3.1-3.08.04-5.83-.16-8.2,2.23.59,4.35,1.05,6.24,1.38,1.73,2.69,3.2,5.75,4.42,9.11M283.62,207.42c1.58,4.39,2.73,9.27,3.4,14.49-4.58-.76-9.72-1.86-15.19-3.27.65-4.95,1.06-9.51,1.19-13.52,3.82,1,7.39,1.77,10.58,2.31M261.16,201.36c1.61-2.63,3.17-4.9,4.65-6.75,1.11.38,2.25.74,3.46,1.09,1.18.35,2.34.69,3.48.99.21,2.36.27,5.11.16,8.19-1.92-.49-3.9-1.05-5.9-1.65-2.01-.6-3.96-1.23-5.84-1.87M261.01,201.3c-3.69-1.27-7.07-2.58-10.03-3.87,2.87-2.12,5.8-3.87,8.7-5.16,1.77.77,3.79,1.55,5.98,2.29-1.48,1.86-3.05,4.12-4.65,6.75M250.78,197.36c-2.55-1.12-4.79-2.23-6.59-3.28,3.67-1.72,7.47-3.02,11.31-3.84,1.09.63,2.44,1.29,3.96,1.95-2.91,1.31-5.81,3.06-8.67,5.17M244,193.95c-1.81-1.07-3.18-2.07-4-2.95,4.13-1.37,8.41-2.28,12.79-2.69.55.55,1.4,1.14,2.48,1.77-3.83.84-7.61,2.15-11.27,3.87M239.87,190.85c-.48-.56-.75-1.06-.76-1.51,4.17-1.19,8.52-1.91,12.94-2.1.06.28.26.58.56.9-4.35.42-8.64,1.34-12.75,2.72M252.23,187.22c4.01-.16,8.09.09,12.17.79l.27.24c-3.96-.47-7.92-.5-11.82-.15-.33-.32-.54-.62-.61-.89M288.12,198c-.2.18-.55.31-1,.41-3.05-2.45-6.37-4.59-9.94-6.37l.35-.05c3.79,1.65,7.33,3.68,10.58,6.03M288.27,198.1c3.58,2.61,6.81,5.6,9.64,8.9-.25.36-.75.64-1.45.84-2.68-3.41-5.75-6.54-9.14-9.28.42-.11.75-.25.97-.45M298.04,207.13c3.65,4.27,6.62,9.04,8.83,14.14-.28.57-.93,1-1.93,1.31-2.08-5.24-4.9-10.17-8.38-14.62.7-.2,1.2-.48,1.48-.84M304.78,222.65c-1.59.46-3.95.62-6.92.49-1.55-5.29-3.7-10.28-6.44-14.8,2.08.1,3.77,0,4.95-.31,3.48,4.43,6.31,9.37,8.4,14.62M297.66,223.13c-2.94-.13-6.47-.54-10.45-1.19-.67-5.19-1.81-10.09-3.38-14.48,2.79.47,5.27.76,7.36.87,2.75,4.51,4.92,9.51,6.47,14.81M297.7,223.28c1.74,6,2.68,12.37,2.7,18.85-3.6-.13-7.93-.61-12.81-1.41.52-6.43.36-12.72-.38-18.61,3.97.65,7.52,1.05,10.48,1.17M287.42,240.68c-5.64-.92-11.99-2.28-18.76-4.02,1.36-6.3,2.43-12.32,3.16-17.84,5.48,1.41,10.64,2.5,15.22,3.26.75,5.88.89,12.17.39,18.6M287.41,240.85c-.47,5.74-1.46,11.59-3.02,17.37-.11.41-.24.82-.35,1.22-6.02-.98-12.81-2.41-20.08-4.28.93-3.17,1.82-6.43,2.66-9.78.73-2.89,1.41-5.75,2-8.55,6.77,1.74,13.14,3.09,18.78,4M221.79,240.75c.13-.4.24-.8.39-1.2,1.89-5.69,4.28-11.12,7.06-16.16,5.22,2.34,11.27,4.71,17.87,7-1.04,2.67-2.06,5.42-3.05,8.24-1.14,3.25-2.2,6.47-3.17,9.63-7.08-2.44-13.56-4.99-19.11-7.49M229.31,223.24c3.12-5.64,6.7-10.82,10.56-15.31,4.25,1.89,9.15,3.82,14.51,5.66-2.43,5.02-4.86,10.62-7.2,16.63-6.61-2.26-12.65-4.65-17.87-6.98M239.98,207.79c3.43-3.98,7.09-7.43,10.81-10.22,2.97,1.31,6.37,2.63,10.11,3.9-2.09,3.42-4.27,7.46-6.44,11.94-5.33-1.84-10.24-3.75-14.48-5.62M239.8,207.72c-3.68-1.64-6.85-3.25-9.38-4.76,4.22-3.56,8.79-6.54,13.56-8.79,1.8,1.06,4.04,2.19,6.62,3.33-3.73,2.8-7.37,6.26-10.81,10.23M230.26,202.86c-2.55-1.53-4.43-2.97-5.51-4.23,4.64-3.22,9.72-5.77,15.08-7.57.82.9,2.17,1.91,3.96,2.98-4.76,2.26-9.34,5.25-13.53,8.81M224.64,198.48c-.65-.8-.96-1.52-.88-2.15,4.66-3.05,9.77-5.39,15.16-6.94.03.46.29.97.76,1.51-5.34,1.8-10.42,4.37-15.05,7.58M264.36,187.66c1.12.25,2.24.54,3.34.85-1.06-.26-2.14-.47-3.21-.67l-.13-.19M274.51,190.56c1.11.34,2.19.72,3.26,1.13l-.21.09c-1-.44-2.02-.84-3.05-1.22M311.26,239.68c-.28.72-1.02,1.28-2.17,1.67-.34-6.42-1.74-12.72-4.09-18.63.94-.3,1.61-.7,1.95-1.22,2.45,5.73,3.93,11.88,4.3,18.18M308.92,241.42c-1.86.6-4.71.83-8.33.71-.02-6.47-.96-12.85-2.69-18.85,2.96.12,5.32-.05,6.93-.5,2.34,5.91,3.75,12.21,4.09,18.64M308.92,241.56c.29,6.15-.4,12.42-2.18,18.54-1.92.67-4.89.94-8.7.83,1.75-6.16,2.56-12.46,2.55-18.67,3.6.12,6.43-.12,8.33-.71M297.84,260.94c-3.79-.13-8.4-.61-13.61-1.46.11-.4.23-.8.33-1.2,1.56-5.8,2.55-11.65,3.03-17.4,4.87.78,9.21,1.26,12.81,1.4.01,6.2-.82,12.5-2.56,18.67M290.29,277.7c-2.66,4.06-5.8,7.64-9.33,10.66-.73.61-1.46,1.19-2.21,1.75-2.9-.06-6.45-.42-10.45-1.03.23-.24.46-.46.69-.71,3.12-3.29,5.99-7.36,8.49-11.99,4.89.77,9.24,1.22,12.81,1.32M268.06,289.05c-4.74-.75-10.13-1.87-15.83-3.33,1.97-3.72,4-8.26,5.98-13.4,6.89,1.76,13.34,3.11,19.07,4.02-2.5,4.58-5.33,8.62-8.44,11.89-.26.27-.52.54-.78.8M267.88,289.23c-2.99,2.97-6.16,5.19-9.36,6.63-3.38-.53-7.24-1.32-11.31-2.35,1.57-1.85,3.22-4.42,4.93-7.61,5.68,1.46,11.03,2.58,15.74,3.33M247.02,293.46c-2.15-.55-4.35-1.16-6.58-1.82-2.23-.68-4.41-1.37-6.49-2.1-.3-2.37-.28-5.45.06-9.07,2.87,1,5.85,1.95,8.93,2.88,3.07.92,6.11,1.76,9.03,2.51-1.7,3.2-3.37,5.77-4.94,7.61M233.75,289.48c-3.97-1.38-7.62-2.84-10.73-4.27-1.89-2.95-3.29-6.56-4.15-10.68,4.35,1.97,9.42,3.96,14.96,5.88-.33,3.6-.36,6.66-.09,9.07M218.8,274.27c-.06-.36-.14-.74-.2-1.11-.78-4.44-.92-9.37-.47-14.56,5.28,2.38,11.41,4.82,18.13,7.13-1.18,5.38-1.99,10.28-2.4,14.48-5.56-1.93-10.67-3.96-15.05-5.95M218.6,274.17c-3.69-1.71-6.85-3.36-9.29-4.9-.31-.87-.61-1.76-.87-2.67-1.3-4.45-1.93-9.18-1.92-14.03,3.05,1.88,6.91,3.91,11.43,5.96-.46,5.23-.31,10.21.47,14.67.05.32.12.65.18.98M209.43,234.4c1.94-6.11,4.72-11.82,8.16-16.99,3.08,1.87,6.96,3.86,11.47,5.9-2.78,5.05-5.18,10.48-7.07,16.18-.13.4-.25.79-.38,1.19-4.81-2.17-8.94-4.28-12.17-6.28M217.68,217.29c3.58-5.39,7.88-10.18,12.63-14.24,2.53,1.52,5.71,3.14,9.39,4.79-3.86,4.51-7.45,9.67-10.56,15.31-4.52-2.02-8.39-4-11.46-5.87M217.51,217.19c-3.08-1.89-5.33-3.64-6.55-5.17,3.82-5.18,8.46-9.67,13.68-13.31,1.08,1.27,2.95,2.7,5.49,4.24-4.75,4.05-9.04,8.85-12.63,14.24M210.85,211.86c-.73-.97-1.05-1.84-.89-2.59,3.79-5.07,8.4-9.38,13.62-12.81-.01.62.31,1.33.94,2.09-5.2,3.65-9.86,8.12-13.67,13.31M245.86,186.77c2.38-.42,4.8-.68,7.24-.77-.24.08-.44.15-.6.25-2.22.03-4.44.2-6.64.52M255.84,185.96c2.88.05,5.73.46,8.54,1.2l-.26.26h0c-3.7-.79-7.46-1.18-11.19-1.17.45-.17,1.12-.27,1.97-.3.31,0,.61,0,.93.01M264.69,187.24c1.51.41,2.99.91,4.48,1.52-1.6-.5-3.22-.93-4.85-1.29.04-.11.17-.18.38-.23M265.19,187.18c.27-.01.6,0,.99.03,1.18.39,2.33.89,3.44,1.5l.2.12c-1.53-.65-3.08-1.21-4.64-1.65M269.71,188.56c-.89-.49-1.8-.91-2.72-1.26.65.1,1.42.24,2.25.43.61.26,1.15.77,1.61,1.51-.38-.25-.76-.48-1.15-.7M266.18,187.02h-.04.1-.04M273.63,189.05c.8.3,1.51.6,2.11.88-.96-.21-1.93-.36-2.95-.45-.44-.03-.89-.05-1.34-.05.8-.36,1.53-.5,2.18-.39M276.55,190.11l.1.04h-.05l-.04-.04M277.33,190.83c-1.55-.48-3.13-.88-4.76-1.18l.21.02c1.28.1,2.52.31,3.71.63.33.18.62.35.84.53M277.72,191.15l.18.4c-1.56-.6-3.13-1.14-4.75-1.59,1.57.31,3.09.71,4.57,1.19M288.09,196.5c1.99,1.43,3.85,2.97,5.61,4.64-1.66-1.48-3.41-2.84-5.26-4.09-.08-.17-.19-.35-.35-.54M308.82,259.01c-1.96,6.18-4.89,11.78-8.6,16.7-.31.34-.75.63-1.33.88,3.44-4.78,6.14-10.17,7.89-16l.11-.39c.87-.31,1.51-.71,1.92-1.18M298.58,276.72c-1.75.64-4.48.91-7.98.84,3.02-4.64,5.43-9.87,7.15-15.57.09-.3.17-.6.27-.91,3.77.11,6.73-.15,8.68-.8l-.06.26c-1.77,5.91-4.51,11.38-8.03,16.18M298.4,276.96c-3.61,4.88-8.03,9.08-13.07,12.41-1.34.55-3.5.79-6.28.75.69-.52,1.36-1.05,2.02-1.62,3.58-3.04,6.74-6.68,9.43-10.79,3.42.08,6.12-.16,7.91-.75M266.13,296.57c-2-.01-4.46-.25-7.28-.67,3.17-1.46,6.29-3.69,9.24-6.63,3.97.62,7.48.99,10.38,1.05-3.86,2.85-8.02,4.95-12.35,6.25M265.5,296.76c-3.03.85-6.13,1.31-9.27,1.36-.47,0-.94.01-1.42,0-.9-.02-1.94-.11-3.07-.26,2.25-.19,4.53-.82,6.78-1.81,2.65.42,5,.64,6.98.7M250.82,297.75c-2.07-.3-4.42-.78-6.93-1.42l.46-.24c.87-.52,1.78-1.34,2.73-2.44,4.01,1.02,7.77,1.81,11.1,2.33-2.44,1.06-4.9,1.65-7.36,1.75M243.59,296.27c-1.36-.34-2.78-.73-4.2-1.16-1.44-.43-2.81-.88-4.14-1.34-.13-.19-.26-.41-.36-.64-.42-.87-.72-2.01-.9-3.38,2.05.71,4.2,1.41,6.41,2.07,2.21.67,4.39,1.27,6.5,1.8-.91,1.04-1.79,1.82-2.62,2.32-.23.14-.44.24-.67.33M234.96,293.67c-2.44-.85-4.67-1.75-6.56-2.64-1.99-1.43-3.72-3.28-5.18-5.51,3.07,1.4,6.65,2.81,10.55,4.15.19,1.44.49,2.63.93,3.53l.26.45M227.56,290.64c-1.02-.49-1.91-.99-2.67-1.47-.43-.27-.83-.54-1.23-.82-2.59-1.77-4.92-3.85-6.96-6.22,1.67,1.04,3.78,2.14,6.2,3.26,1.33,2.07,2.9,3.83,4.66,5.25M216.27,281.61c-2.9-3.47-5.2-7.5-6.87-12.02,2.46,1.52,5.59,3.17,9.24,4.83.85,4.09,2.22,7.67,4.06,10.64-2.56-1.19-4.75-2.36-6.43-3.46M204.22,265.01c-2.38-5.54-3.76-11.48-4.08-17.55,1.18,1.48,3.28,3.18,6.18,4.98-.02,4.92.62,9.69,1.92,14.2.24.84.5,1.65.8,2.47-2.34-1.5-4.01-2.89-4.83-4.1M202.47,228.81c1.9-6.11,4.76-11.71,8.4-16.67,1.26,1.55,3.5,3.29,6.57,5.17-3.44,5.17-6.22,10.88-8.17,16.99-3.24-2.01-5.57-3.87-6.79-5.49M202.34,228.63c-.74-1.02-1.01-1.93-.76-2.73,1.81-6.03,4.61-11.5,8.16-16.32-.02.72.33,1.52,1.02,2.4-3.65,4.96-6.52,10.55-8.41,16.63M223.8,195.67l-.16.35-.04.2c-4.67,3.06-8.88,6.83-12.43,11.19,3.61-4.58,7.88-8.53,12.63-11.75M236.89,189.09c.84-.28,1.67-.55,2.52-.77-.21.18-.36.39-.43.62l-.05.26c-5.37,1.55-10.46,3.87-15.1,6.88h0c.09-.28.26-.55.53-.77,3.91-2.58,8.11-4.67,12.55-6.21M260.99,186.24c.65.06,1.31.14,1.96.24.84.11,1.67.28,2.5.52-.29,0-.54.02-.75.08-1.22-.33-2.47-.61-3.72-.82M281.37,192.35c-1.17-.52-2.35-.98-3.55-1.37-.15-.15-.34-.3-.59-.46.82.26,1.61.58,2.37.94.59.29,1.19.58,1.77.88M306.95,220.1c.1.34.1.65,0,.94-2.21-5.07-5.18-9.82-8.81-14.06l.11-.25c.06-.23.06-.48,0-.75.58.67,1.13,1.35,1.68,2.05,2.83,3.71,5.19,7.77,7.03,12.06M307.15,221.09l.06-.39c2.19,5.3,3.58,10.96,4.07,16.77-.56-5.6-1.99-11.06-4.2-16.19l.06-.19M299.74,276.35c-2.82,3.63-6.05,6.87-9.62,9.68,3.22-2.69,6.1-5.77,8.59-9.19.4-.14.73-.3,1.03-.49M262.38,297.69c1.27-.24,2.51-.55,3.75-.91.59,0,1.13,0,1.64-.04-1.77.41-3.56.73-5.38.97M250.98,297.97l-.28-.02h.11l.17.02M242.75,296.7c.28-.04.57-.13.87-.24,2.17.55,4.22.99,6.11,1.3-.71-.01-1.41-.06-2.09-.16-1.63-.23-3.25-.53-4.88-.9M239.19,295.77c-.88-.27-1.76-.56-2.61-.85-.43-.17-.8-.46-1.15-.88,1.26.43,2.56.86,3.9,1.26,1.34.41,2.66.77,3.95,1.09-.5.16-.99.19-1.44.11-.88-.23-1.77-.46-2.65-.73M235.73,294.59c-1.57-.58-3.09-1.22-4.57-1.92-.62-.3-1.23-.64-1.82-1.01,1.73.77,3.69,1.53,5.81,2.28.18.27.39.48.6.67M228.15,291.12l.15.06.09.06-.24-.13M214.82,280.85c.41.3.86.62,1.35.93.82.99,1.7,1.93,2.61,2.81-1.38-1.19-2.7-2.44-3.96-3.75M199.37,246.23c.13.31.32.63.57.98.19,4.21.89,8.35,2.09,12.36-1.43-4.29-2.33-8.77-2.67-13.34M201.33,226.75c.08.63.4,1.32.96,2.05l-.12.39c-1.75,5.83-2.48,11.82-2.23,17.7-.34-.52-.55-.99-.62-1.44-.39-6.15.26-12.45,2.03-18.69"/>
    <g>
      <path class="st3" d="M282.29,235.98l-18.69-10.36s-12.73-6.95-13.55-7.42c-2.24-1.26-6.4-4.13-6.31-8.08,0,0-.27-9.89,12.88-10,0,0,13.46-.26,13.66,12.88,0,0-.7,5.14-1.09,6.22,0,0,2.72-3.32,5.12-7.77.93-1.73,1.8-16.47-16.56-17.07-3.09-.1-12.78.87-16.3,8.75,0,0-4.38,8.37-.73,16.65,0,0,1.46,4.57,12.41,9.5l21.97,11.24,7.21-4.53"/>
      <path class="st3" d="M272.32,242.24l-25.78-13.72s-11.89-5.27-8.78-19.93c0,0-8.57,15.65,2.23,24.68,2.5,2.09,21.68,11.54,25.27,13.38l7.05-4.43h0Z"/>
      <path class="st3" d="M262.48,248.43l-21.39-11.6s-4.05-2.09-5.93-5.87c-1.62-3.24-3.07-7.27-1.77-13.41-.02.1-6.43,16.71.75,24.11,2.51,2.59,17.89,9.72,21.17,11.28l7.16-4.5h.01Z"/>
      <path class="st3" d="M284.45,237.72l-6.8,4.45c7.48,7.16,4.89,17.62,4.89,17.62h-3.09c1.71-8.89-3.56-14.9-4.49-15.87l-6.83,4.48c5.56,4.54,4.95,11.4,4.95,11.4h-3.35c.24-5.22-3.61-9.11-4.21-9.69l-6.59,4.31c1.27.75,1.59.99,2.24,1.49,3.33,2.58,3.14,5.88,3.14,6.58,0,9.93-8.86,12.35-12.9,12.94-1.18.17-3.35.04-3.99-.06-11.7-2.01-11.93-12.75-11.93-12.75.13-7.39,5.54-10.36,5.54-10.36l-.06-.84c-7.15,2.55-9.26,9.92-9.39,10.52-3.11,14.72,8.65,18.98,14.39,20.19,1.78.36,4.27.34,4.88.26,14.07-1.81,17.02-13.46,17.02-13.46h15.12s5.67-8.85,6.31-17.83c.54-7.43-4.34-12.88-4.84-13.39h-.02Z"/>
      <path class="st3" d="M255.93,297.18c-30.85,0-55.87-24.96-55.87-55.74,0-27.59,20.1-50.49,46.49-54.95-33.53.87-60.43,28.24-60.43,61.89s27.8,61.93,62.07,61.93c31.51,0,57.52-23.43,61.53-53.77-6.6,23.44-28.17,40.64-53.78,40.64h-.01Z"/>
    </g>
    <polyline class="st0" points="266.97 211.49 266.77 211.71 266.8 211.73 267.01 211.77 267.01 211.56 266.97 211.49"/>
  </g>
</svg>