<?xml version="1.0" encoding="UTF-8"?>
<svg id="Layer_1" xmlns="http://www.w3.org/2000/svg" version="1.1" viewBox="0 0 500 500">
  <!-- Generator: Adobe Illustrator 30.5.1, SVG Export Plug-In . SVG Version: 2.1.4 Build 3)  -->
  <defs>
    <style>
      .st0 {
        fill: #c89c7c;
      }

      .st1 {
        fill: #fff;
      }

      .st2 {
        fill: #176096;
      }
    </style>
  </defs>
  <path class="st0" d="M71.52,290.12l-1.95,3.41-3.95-2.34-1.95,3.4-3.95-2.34,1.95-3.41,3.95,2.33,1.95-3.4,3.95,2.34ZM215.82,286.94c-.1.51-.21.88-.36,1.24-.05.13-.19.24-.31.32-.62.4-1.23.8-1.85,1.18-1.83,1.1-3.67,2.19-5.51,3.28-.54.32-1.1.65-1.64.96-.05.04-.13.05-.25.09.05-.3.21-.51.28-.75.2-.65.64-1.04,1.23-1.37,1.85-1.02,3.68-2.1,5.5-3.17.8-.47,1.58-.97,2.36-1.45.14-.09.29-.17.55-.33ZM233.96,287.63c.27-.13.54-.08.75.15.06.06.12.13.17.2.13.15.14.31.04.49-.11.2-.21.42-.38.58-.16-.02-.2-.17-.28-.26-.34-.38-.74-.36-1.05.05-.03.04-.04.08-.05.14.04.05.08.11.14.15.16.11.34.22.52.31.35.18.72.21,1.08.07.24-.1.47-.22.7-.34.15-.07.3-.17.51-.21,0,.09.02.17,0,.21-.1.19-.21.39-.33.56-.05.08-.14.15-.22.2-.28.2-.57.4-.86.59-.46.3-.86.7-1.19,1.14-.13.17-.25.36-.34.56-.13.26-.06.45.17.6.3.19.63.2.96.14.4-.06.78-.19,1.14-.39.36-.19.72-.4,1.03-.67.11-.09.84-.66,1.02-.77-.03.11-.02.19-.05.24-.73.95-1.52,1.83-2.67,2.29-.39.16-.78.31-1.21.28-.18,0-.37-.04-.54-.1-.41-.15-.59-.54-.45-.96.08-.25.2-.49.32-.72.25-.46.53-.9.84-1.33.06-.08.11-.17.2-.3l-.19-.02c-.4-.08-.69-.28-.98-.48-.26-.18-.31-.33-.21-.63.02-.05.03-.08.05-.12.23-.48.5-.93.86-1.3.14-.14.32-.26.5-.34ZM81.53,289.43c-.42.83-.41.85-1.28,1.22-1.12.48-2.25.9-3.37,1.37-1.1.46-2.19.94-3.29,1.42-.3.13-.57.3-.93.49.03-.13.03-.2.05-.27.06-.15.15-.28.19-.42.18-.57.59-.88,1.11-1.1,1.5-.61,2.96-1.31,4.48-1.84,1.02-.36,2.01-.76,2.98-1.25.05-.03.1-.03.25-.07l-.2.45ZM189.46,287.82c-.04.41-.14.76-.3,1.08-.06.13-.23.21-.35.29-.76.48-1.52.97-2.3,1.44-1.31.78-2.61,1.55-3.92,2.32-.4.24-.8.47-1.2.7-.06.04-.14.06-.33.13l.57-1.24c.06-.16.2-.23.33-.31.78-.45,1.57-.9,2.34-1.36,1.62-.96,3.24-1.92,4.86-2.88.08-.05.16-.09.3-.16ZM281.52,287.96c.17.31.21.47.17.82-.06.56-.26,1.05-.63,1.48-.54.07-1.05-.27-1.61-.22-.11.16-.21.32-.32.48-.34.5-.83.8-1.4.96-.27.07-.54.07-.78-.06-1-.57-1.98-.31-2.93.09-.62.27-1.22.59-1.81.89-1.37.71-2.82,1.11-4.35,1.28-.4.05-.8.06-1.21.08-.1,0-.21-.05-.31-.07v-.07c.05-.15.17-.18.28-.21.61-.18,1.22-.36,1.82-.56.94-.3,1.86-.61,2.79-.94.64-.22,1.22-.57,1.8-.91.43-.26.87-.49,1.32-.71.53-.26,1.09-.38,1.66-.44.41-.05.81,0,1.17.2.34.18.66.3,1.05.16.48-.18.91-.42,1.17-.89.11-.2.19-.42.29-.63.04-.08.09-.17.15-.27.32.19.02.43.1.65.26.17.6.15.91.23.08.03.18,0,.31,0-.03-.22-.06-.41-.06-.59,0-.09.06-.18.11-.27.09-.17.14-.36.3-.48ZM195.99,287.87s.05.08.04.1c-.05.17-.12.33-.19.49-.25.53-.46,1.07-.63,1.63-.15.53-.09,1.04.12,1.54.05.14.15.27.26.37.25.23.58.22.83-.02.11-.1.19-.23.37-.46-.05.63-.15,1.12-.39,1.57-.05.08-.09.17-.14.25-.35.49-.74.52-1.14.09-.4-.42-.54-.94-.51-1.5.05-1.08.34-2.11.76-3.1.14-.32.31-.63.48-.93.02-.03.1-.03.14-.03ZM254.95,283.45c-.08.7-.31,1.36-.55,2.03-.35.95-.7,1.9-1.03,2.86-.1.29-.16.6-.24.9-.12.5-.03.97.15,1.43.25.64.77.97,1.45.92.55-.04.9-.39,1.18-.83.08-.12.14-.26.23-.44.05.1.1.15.1.18-.06.44-.11.89-.23,1.33-.15.6-.5,1.09-.98,1.47-.39.3-.81.35-1.25.22-.54-.15-.9-.51-1.11-1.02-.21-.5-.26-1.02-.25-1.55,0-.76.11-1.52.31-2.26.42-1.53.91-3.02,1.62-4.43.14-.29.25-.61.39-.91.03-.06.07-.11.19-.28v.38ZM136.31,289.02l-1.95,3.41-3.95-2.33-1.95,3.41-3.95-2.34,1.96-3.41,3.94,2.33,1.95-3.41,3.95,2.34ZM311.14,267.58c.44-.2.89-.22,1.34-.05.44.16.81.44,1.13.79.86.98,1.36,2.12,1.46,3.43.08,1.08,0,2.14-.27,3.19-.16.66-.48,1.23-.94,1.71-.59.62-1.23,1.17-1.92,1.68-.15.11-.31.23-.49.37.04.25.08.5.12.75.03.16.05.31.05.46,0,.17-.09.3-.21.3-.14,0-.22-.07-.25-.19-.05-.15-.09-.29-.15-.44-.05-.14-.1-.28-.14-.4-.05-.02-.07-.03-.09-.03-.02,0-.04,0-.05,0-.68.35-1.37.7-2.08,1.07-.04.16-.09.32-.12.5-.14.87-.41,1.7-.72,2.52-.21.58-.53,1.09-.96,1.51-.52.5-1.05.99-1.6,1.43-1.68,1.33-3.52,2.36-5.45,3.27-3.13,1.48-6.39,2.55-9.78,3.23-.17.04-.35.05-.52.06-1.24.06-2.5.14-3.74.19-2.19.1-4.37.19-6.57.28-.2,0-.42.06-.6-.05-.05-.14,0-.22.09-.26.14-.06.29-.11.43-.14,3.64-.73,7.22-1.71,10.77-2.79,2.28-.69,4.57-1.38,6.78-2.28,2.14-.87,4.26-1.79,6.28-2.93,1.03-.58,2.03-1.19,2.95-1.93.33-.27.63-.57.95-.85.25-.21.31-.48.25-.78-.03-.13-.07-.25-.12-.4-.29.07-.54.15-.81.19-.91.17-1.83.29-2.75.24-.36-.02-.73-.06-1.09-.14-1.29-.3-2.22-1.37-2.33-2.73-.13-1.46.15-2.84.94-4.08.28-.44.61-.86.93-1.27.13-.17.29-.31.45-.44.85-.69,1.8-.85,2.81-.48.78.29,1.4.8,1.92,1.46.57.73.94,1.56,1.21,2.44.07.22.14.44.23.71l.44-.16c.41-.16.77-.32,1.12-.52.02-.25-.05-.46-.09-.66-.2-.91-.38-1.83-.45-2.76-.07-.98-.05-1.95.17-2.91.1-.44.26-.86.5-1.23.25-.39.56-.69.97-.89ZM312.99,282.87c.18-.11.36-.1.55,0,.3.15.5.39.59.68.16.52.28,1.05.21,1.6-.07.55-.34.99-.71,1.36-.15.16-.34.18-.53.13-.24-.07-.47-.17-.7-.26-.24-.09-.46-.19-.69-.29l-.1.05c-.18.12-.23.29-.3.44-.83,1.92-2.18,3.33-4.04,4.22-.78.38-1.56.75-2.4.98-.82.23-1.63.41-2.46.6-1.07.24-2.14.46-3.2.68-.39.08-.79.15-1.27.13.12-.11.16-.19.24-.22.23-.1.46-.18.7-.26,1.39-.45,2.78-.89,4.17-1.35,1.58-.51,3.11-1.11,4.55-1.96.59-.35,1.18-.74,1.71-1.19.41-.34.76-.77,1.07-1.21.5-.72.88-1.5,1.27-2.29.22-.45.5-.88.76-1.31.14-.24.35-.4.59-.54ZM228.93,289.72l-1.95,3.41-3.96-2.34,1.95-3.41,3.95,2.34ZM86.89,283.96s.02.06.02.08c-.08.24-.17.48-.28.7-.37.78-.76,1.57-1.13,2.36-.23.48-.3,1-.28,1.53.02.49.17.91.4,1.33.31.56.84.69,1.36.32.15-.11.27-.27.41-.4.06-.06.14-.11.25-.22,0,.18.03.3,0,.4-.11.38-.2.76-.35,1.11-.23.5-.6.9-1.08,1.18-.48.27-1.02.16-1.32-.31-.34-.53-.57-1.1-.59-1.74-.03-.85.12-1.67.43-2.46.51-1.33,1.19-2.57,1.92-3.79.04-.06.1-.11.21-.23l.04.16ZM202.4,259.7c1.06,1.31,2.12,2.63,3.07,4.03.24.35.45.73.65,1.1.15.29.14.44,0,.53-.2.11-.33-.04-.46-.14-.24-.17-.45-.36-.68-.54-.12-.09-.24-.19-.44-.18-.16.22-.12.47-.02.7.17.4.33.79.54,1.16.54.95,1.08,1.89,1.64,2.82.78,1.32,1.62,2.61,2.33,3.97.98,1.89,1.44,3.9,1.32,6.04-.05.86-.22,1.7-.49,2.51-.35,1.04-1.04,1.75-2.13,2.01-1.04.25-2.06.21-3.07-.11-1.68-.53-2.98-1.58-3.93-3.09-.1-.16-.21-.32-.35-.54-.08.21-.14.37-.19.53-.17.6-.34,1.2-.51,1.8-.2.72-.3,1.45-.37,2.18-.05.57.02,1.13.17,1.68.24.85.79,1.41,1.59,1.73.71.29,1.42.25,2.15.05.82-.23,1.59-.57,2.36-.93,1.57-.73,2.96-1.74,4.22-2.93.8-.76,1.57-1.55,2.34-2.34.54-.55,1.05-1.13,1.57-1.71.22-.25.4-.53.59-.79.32-.43.39-.91.28-1.44-.21-.96-.46-1.9-.8-2.81-.8-2.11-1.68-4.19-2.66-6.23-.44-.93-.91-1.85-1.38-2.76-.29-.57-.63-1.11-.94-1.68-.09-.16-.14-.3-.14-.49v-3.93c0-.06.03-.1.04-.15.11-.06.17.01.2.07.41.56.84,1.11,1.23,1.69,1.25,1.93,2.37,3.94,3.29,6.04.79,1.8,1.45,3.65,1.91,5.57.23.93.46,1.85.67,2.78.28,1.27.54,2.55.83,3.82.08.38.22.75.36,1.11.39.98,1.12,1.61,2.08,1.99.39.16.81.24,1.22.35.13.04.27.04.4.02,1.22-.11,2.32-.47,3.19-1.41.52-.56.97-1.16,1.37-1.81.25-.41.49-.84.74-1.26.14-.26.31-.49.57-.65.15-.09.34-.02.34.16,0,.21,0,.42-.04.63-.02.16-.07.31-.14.44-.08.2-.05.38.04.56.14.26.29.51.53.69.35.27.71.53,1.13.68.68.24,1.36.39,2.09.31.93-.09,1.83-.23,2.68-.65.1-.05.19-.12.33-.19-.12-.07-.19-.14-.27-.18-1.11-.52-2.11-1.22-3.05-1.99-.56-.46-1.01-1.01-1.39-1.63-.3-.49-.43-1.04-.55-1.59-.39-1.78-.14-3.49.63-5.11.25-.53.64-.97,1.09-1.35.76-.63,1.64-1,2.6-1.2.74-.16,1.49-.16,2.23-.16.86,0,1.73.02,2.6-.04.79-.06,1.55-.22,2.28-.58.57-.28,1.03-.67,1.41-1.18.17-.23.33-.48.52-.7.04-.05.14-.07.2-.07.04,0,.09.08.1.13.02.11.02.23,0,.34-.17.87-.46,1.7-.85,2.48-.3.59-.65,1.15-1.1,1.64-.35.37-.75.67-1.2.89-.9.44-1.85.64-2.85.61-1.13-.04-2.27,0-3.39.11-.98.09-1.88.42-2.65,1.05-.55.45-.68.54-.25,1.32.25.46.6.86,1,1.2,1.54,1.31,3.27,2.27,5.25,2.69.74.16,1.47.28,2.23.31.3,0,.56-.05.82-.22.72-.51,1.46-1.01,2.2-1.5.98-.65,1.96-1.3,2.94-1.95,1.01-.67,2.02-1.35,3.03-2.03.46-.31.92-.63,1.43-.98,0,.12.02.19,0,.25-.41,1.11-.82,2.23-1.23,3.34-.06.18-.18.29-.33.39-.84.57-1.69,1.16-2.52,1.74-.61.41-1.2.85-1.81,1.24-1.34.87-2.62,1.84-3.94,2.82,0,.14-.04.29,0,.44.14.87.28,1.73.47,2.59.28,1.27.81,2.43,1.52,3.52.43.65,1,1.12,1.68,1.47.93.48,1.77.33,2.5-.48.15-.17.29-.37.4-.57.68-1.17,1.13-2.43,1.49-3.73.28-.98.54-1.95.83-2.92.48-1.59,1.15-3.1,2.08-4.49.54-.81,1.25-1.48,2.04-2.05.3-.21.61-.41.94-.58.66-.35,1.27-.28,1.87.21.66.54,1.26,1.13,1.84,1.76.81.88,1.71,1.62,2.76,2.19.67.37,1.38.56,2.15.57,1.57.02,2.94-.51,4.11-1.57.59-.53,1.04-1.19,1.46-1.87.29-.48.59-.96.91-1.42.19-.27.42-.51.64-.76.06-.07.14-.13.23-.17.15-.1.34-.02.34.16,0,.21-.02.43-.06.64-.05.25-.13.5-.21.73-.14.37-.04.68.19.98.32.39.74.62,1.17.83.86.42,1.75.5,2.69.26,1.31-.35,2.27-1.12,2.87-2.33.2-.4.36-.82.53-1.23.25-.59.46-1.2.71-1.79.1-.25.24-.5.54-.63.05.08.13.17.12.24,0,.21-.04.42-.08.64-.07.32-.17.63-.25.96-.05.2-.03.38.08.56.28.46.65.82,1.18.98.27.08.55.16.83.21.83.16,1.92-.18,2.59-.79-.13-.54-.59-.83-.98-1.22.03-.57.05-1.17.08-1.78.03-.58.02-1.16.09-1.81.15.13.25.18.33.27.7.73,1.17,1.58,1.43,2.57.2.75.25,1.49.16,2.27-.06.56-.12,1.12-.28,1.67-.06.2-.14.41-.22.61-.66,1.68-2.18,2.2-3.33,2.13-1.23-.07-2.26-.59-2.91-1.71-.05-.09-.12-.18-.22-.33-.09.21-.17.37-.23.53-.16.41-.31.84-.5,1.24-.44.99-1.17,1.74-2.1,2.25-.82.43-1.68.62-2.62.43-.89-.18-1.63-.56-2.22-1.25-.41-.47-.67-.99-.63-1.64,0-.11-.02-.22-.03-.32-.14-.06-.22.02-.27.09-.25.38-.49.75-.71,1.13-.35.61-.68,1.23-1.1,1.79-.52.69-1.15,1.25-1.87,1.71-.4.25-.83.4-1.26.56-.1.04-.2.09-.32.15.2.36.46.61.76.83.81.58,1.64,1.1,2.62,1.31.79.18,1.57.38,2.37.48.94.11,1.88.06,2.81-.1,2.44-.43,4.76-1.22,6.98-2.33.96-.49,1.89-1.04,2.78-1.67.82-.58,1.64-1.15,2.47-1.71.19-.13.4-.22.65-.35.05.13.14.23.13.32-.02.18-.07.34-.14.51-.24.66-.05,1.23.42,1.7.19.18.43.34.66.46.95.49,1.95.56,2.97.22,1.02-.33,1.89-.89,2.48-1.81.43-.67.81-1.37,1.21-2.06.2-.33.4-.66.61-.99.13-.19.27-.38.53-.41.16.07.18.22.14.35-.09.32-.19.64-.31.94-.1.28-.23.54-.34.78.29.9.92,1.39,1.77,1.62.8.21,1.6.2,2.37-.13.14-.06.27-.15.4-.22.11-.3-.03-.55-.15-.79-.13-.24-.3-.45-.49-.73.05-1.06.11-2.17.16-3.27,0-.07.04-.15.06-.27.12.07.23.11.29.19.68.71,1.05,1.57,1.22,2.53.17,1.04.06,2.06-.15,3.08-.08.4-.19.79-.32,1.19-.17.54-.45,1.04-.85,1.45-.45.45-.99.74-1.61.83-1.05.15-2.02-.06-2.88-.73-.57-.44-.92-1.04-1.11-1.74-.02-.07-.03-.15-.05-.29-.09.11-.15.18-.19.25-.35.63-.68,1.27-1.05,1.88-.83,1.35-2.08,2.07-3.6,2.25-1.17.14-2.2-.28-2.98-1.21-.32-.39-.46-.85-.54-1.34-.04-.23-.07-.46-.11-.69-.08,0-.14,0-.19.03-.08.05-.15.11-.24.17-.62.5-1.23,1-1.85,1.48-1.02.8-2.11,1.5-3.26,2.09-1.58.81-3.21,1.51-4.93,1.94-.99.25-1.99.45-3.01.44-1.55-.03-3.05-.32-4.47-.97-.54-.25-1.04-.59-1.5-.98-.74-.64-1.12-1.47-1.29-2.42-.1-.6-.14-1.2-.08-1.81v-.24c-.08-.04-.15-.08-.22-.08-1.22-.07-2.26-.59-3.21-1.31-.81-.61-1.53-1.32-2.2-2.06-.42-.46-.85-.9-1.35-1.27-.11-.08-.22-.16-.34-.23-.21-.13-.42-.16-.66-.09-.34.09-.65.26-.94.45-.71.47-1.38.99-1.96,1.62-.36.39-.67.81-.91,1.28-.49,1-1,1.98-1.36,3.03-.36,1.05-.73,2.1-.99,3.18-.21.86-.46,1.7-.82,2.5-.24.53-.53,1.04-.89,1.5-.56.72-1.27.96-2.14.77-.63-.13-1.15-.43-1.6-.88-.58-.57-1.04-1.25-1.45-1.96-.24-.41-.44-.83-.64-1.24-.69-1.41-1.04-2.93-1.33-4.46-.13-.64-.22-1.3-.34-1.99-.09.03-.18.04-.25.08-.16.1-.33.21-.48.31-1,.66-1.98,1.36-2.99,1.99-.82.52-1.69.94-2.6,1.24-.79.26-1.59.41-2.43.27-1.03-.18-1.79-.76-2.35-1.63-.17-.28-.32-.58-.44-.89-.12-.29-.2-.59-.32-.92-.1.06-.21.11-.26.19-.14.23-.26.48-.38.72-.4.83-.83,1.63-1.39,2.36-.26.34-.54.66-.83.97-.99,1.01-2.21,1.24-3.51.89-1.56-.41-2.7-1.36-3.34-2.89-.25-.62-.44-1.24-.6-1.89-.16-.66-.33-1.32-.51-1.98-.03-.11-.08-.22-.14-.38-.06.08-.13.14-.14.19-.37,1.85-1.34,3.38-2.53,4.79-.8.95-1.72,1.79-2.67,2.57-.4.33-.78.69-1.17,1.04-.96.86-2.05,1.51-3.17,2.12-.68.37-1.38.69-2.1.94-.5.17-1,.27-1.53.3-1.2.08-2.92-.79-3.35-2.52-.27-1.11-.31-2.24-.16-3.37.18-1.51.52-3,.89-4.47.17-.68.36-1.35.58-2.02.09-.29.09-.52-.02-.79-.13-.29-.18-.63-.37-.89-.14,0-.12.11-.12.18-.05.7-.05,1.4-.13,2.1-.12,1.06-.44,2.05-.99,2.97-.33.55-.7,1.07-1.13,1.55-.74.82-1.63,1.42-2.71,1.67-1.14.27-2.23.17-3.3-.4-1.32-.71-2.13-1.82-2.63-3.2-.31-.85-.5-1.71-.55-2.62-.08-1.29-.05-2.57.13-3.85.22-1.58.51-3.15.93-4.7.02-.07.02-.15.04-.29-.1.06-.17.09-.21.14-.47.55-.81,1.17-1.07,1.86-.64,1.72-1.04,3.5-1.4,5.3-.19.93-.45,1.85-.64,2.79-.19.94-.43,1.86-.74,2.76-.29.87-.66,1.71-1.25,2.41-.43.52-.98.88-1.59,1.12-.33.13-.68.08-1.02-.02-.8-.25-1.43-.76-1.93-1.41-.36-.48-.64-1-.88-1.57-.35-.85-.63-1.72-.84-2.61-.2-.83-.36-1.68-.43-2.53-.08-1.07-.16-2.14-.24-3.24l.88-.36c-.09.53-.08,1.05-.06,1.58.03.96.1,1.92.35,2.84.29,1.1.67,2.16,1.42,3.03.38.44.84.73,1.37.94.53.21,1.02.12,1.49-.16.44-.26.77-.64,1.05-1.06.63-.92,1.07-1.94,1.35-3.02.29-1.1.51-2.2.79-3.3.56-2.17,1.11-4.34,1.83-6.46.28-.83.67-1.62,1.14-2.36.23-.38.54-.71.85-1.02.17-.17.42-.27.64-.37.2-.08.31-.03.44.16.1.17.16.34.18.54.05.54.02,1.09-.06,1.63-.22,1.48-.56,2.95-.91,4.4-.26,1.11-.51,2.24-.6,3.39-.07.92-.05,1.83.28,2.71.26.7.62,1.35,1.12,1.89.55.58,1.23,1,2.04,1.1.42.05.83.13,1.25.15.63.03,1.23-.14,1.79-.41,1.25-.61,2.21-1.54,2.79-2.85.07-.16.11-.33.15-.51.19-.89.12-1.79-.06-2.67-.38-1.9-.94-3.74-1.63-5.54-.56-1.46-1.16-2.89-1.75-4.33-.14-.32-.17-.63-.13-.97.09-.67.15-1.35.23-2.03.06-.48.15-.96.23-1.48.12.05.22.06.27.12.11.14.19.29.28.44,1.01,1.56,1.84,3.2,2.59,4.89.06.13.12.25.15.38.37,1.23.77,2.45,1.12,3.69.22.81.34,1.64.54,2.45.25,1.04.6,2.05,1.12,2.99.37.68.9,1.22,1.46,1.71.66.58,1.44.97,2.27,1.23.66.21,1.36.24,2.05.21.42-.02.84-.05,1.25-.19.24-.08.48-.15.67-.38-.04-.59-.24-1.16-.47-1.71-.41-.97-.9-1.9-1.44-2.8-.84-1.4-1.68-2.8-2.5-4.2-.67-1.14-1.2-2.35-1.65-3.6-.35-.97-.71-1.93-.95-2.94-.05-.22-.18-.42-.3-.63-.09-.15-.21-.28-.33-.43.25-1.15.51-2.29.81-3.5.11.1.17.15.22.2ZM72.03,241.61c.19,0,.22.16.25.28.17.58.36,1.15.48,1.74.33,1.64.65,3.29.93,4.94.32,1.88.61,3.77.89,5.67.23,1.5.42,3.01.63,4.51.17,1.25.34,2.52.5,3.77.13.97.24,1.93.37,2.9.16,1.14.32,2.28.52,3.41.32,1.76.67,3.52,1.03,5.28.16.78.38,1.55.69,2.29.29.68.63,1.34,1.12,1.91.3.36.64.67,1.04.91.4.24.84.4,1.31.41.58,0,1.15.02,1.71-.13.11-.03.2-.08.33-.14-.05-.09-.09-.16-.14-.22-.73-.89-.9-1.94-.73-3.03.37-2.4,1.34-4.54,2.92-6.39.09-.1.17-.21.25-.31,0-.02,0-.04.03-.09-.07-.06-.16-.14-.24-.2-.07-.06-.15-.11-.26-.18.05-1.18.12-2.36.18-3.58.14.04.23.05.31.09,1.32.63,2.64,1.25,3.97,1.89.19.09.36.21.54.34.15.11.13.3-.05.36-.18.06-.37.08-.56.11-.16.03-.34-.02-.48.14.08.18.25.23.41.3,1.53.82,3.12,1.49,4.77,2.04.62.2,1.22.49,1.82.74.47.19.85.52,1.21.88.52.53.82,1.16.97,1.89.19.92.14,1.82-.02,2.74-.1.59-.27,1.18-.44,1.76-.15.54-.43,1.04-.77,1.5-.45.62-1.03,1.05-1.81,1.15-.57.08-1.14.13-1.71.16-1.03.05-2.07-.06-3.11-.13-1.02-.07-2.02-.18-3.03-.36-.19-.04-.34,0-.47.13-.24.2-.48.4-.72.58-1.28.96-2.7,1.55-4.27,1.82-1.17.2-2.25-.07-3.24-.72-.74-.49-1.32-1.13-1.76-1.91-.21-.37-.38-.77-.57-1.15-.03-.06-.07-.11-.14-.2-.11.18-.07.34-.09.49-.09.88-.3,1.72-.7,2.52-.58,1.16-1.47,1.99-2.67,2.46-.83.33-1.7.5-2.59.42-1.46-.11-2.42-.87-2.91-2.27-.1-.29-.17-.6-.26-.94-.1.07-.19.11-.24.18-.22.32-.43.65-.64.98-.16.26-.33.53-.49.79-.43.66-.99,1.19-1.65,1.6-.86.53-1.8.64-2.78.51-1.21-.17-2.2-.76-3.07-1.61-.81-.79-1.42-1.73-1.95-2.74-.34-.65-.68-1.32-1.03-1.96-.18-.34-.38-.67-.58-1.01-.07-.12-.14-.23-.24-.32-.2-.18-.43-.28-.68-.14-.24.13-.49.23-.71.4-.51.39-1,.8-1.48,1.21-.17.15-.34.32-.48.5-.64.81-1.19,1.67-1.62,2.62-.62,1.33-1.15,2.68-1.61,4.07-.28.87-.65,1.7-1.09,2.51-.24.43-.5.83-.83,1.2-.3.33-.64.62-1.03.84-.64.38-1.27.34-1.92.04-.87-.41-1.51-1.08-2-1.89-.71-1.17-1.24-2.41-1.57-3.75-.5-2.04-.73-4.1-.69-6.2.03-1.11.03-2.22.17-3.29l-.75-.87c-.36-.44-.6-.94-.78-1.48-.44-1.31-.45-2.64-.35-3.99.08-1.03.21-2.05.43-3.07.27-1.23.52-2.48.82-3.71.74-3.01,1.5-6.01,2.23-9.02.17-.72.29-1.46.44-2.17.25-1.26.58-2.51,1.04-3.7.02-.05.07-.08.1-.12.12,0,.14.09.13.17-.04.42-.06.86-.14,1.28-.3,1.57-.59,3.14-.93,4.7-.25,1.18-.58,2.34-.87,3.51-.43,1.7-.85,3.4-1.28,5.1-.31,1.23-.57,2.47-.76,3.72-.15.99-.22,1.98-.06,2.97.18,1.12.6,2.14,1.47,2.9.73.64,1.5.63,2.22-.03.33-.29.55-.65.69-1.06.05-.13.08-.27.25-.28.13,0,.21.12.22.36.03.71-.11,1.39-.21,2.09-.09.58-.26,1.13-.54,1.65-.24.44-.55.79-.92,1.12-.34.29-.73.42-1.16.43-.14,0-.26-.02-.43-.03-.13.27-.18.54-.18.84-.03,1.45-.06,2.89.09,4.33.15,1.28.43,2.53,1,3.7.64,1.34,1.71,2.13,3.05,2.6.44.16.88.06,1.26-.22.17-.12.34-.27.46-.43.3-.38.62-.76.86-1.17.5-.83.94-1.71,1.22-2.64.46-1.58,1.02-3.12,1.74-4.58.79-1.58,1.78-3.01,3.16-4.13.47-.38.99-.67,1.54-.91.33-.14.6-.09.84.15.13.12.25.25.34.4.16.26.33.53.45.81.46,1,.99,1.98,1.57,2.93.45.75.97,1.45,1.6,2.07.52.51,1.11.9,1.76,1.21.41.19.84.26,1.28.31.36.05.73.05,1.09.06.93.03,1.72-.35,2.44-.9.48-.36.89-.8,1.24-1.3.24-.33.46-.67.72-.99.2-.26.42-.51.64-.76.13-.15.27-.27.48-.28.17.08.22.23.17.4-.05.25-.12.49-.21.73-.24.63-.2.84.29,1.28.67.6,1.44.95,2.36.9,1.41-.06,2.6-.61,3.64-1.56.22-.2.31-.41.27-.72-.1-.99-.17-1.98-.26-2.97-.13-1.28-.26-2.56-.42-3.84-.15-1.35-.33-2.71-.5-4.06-.17-1.32-.35-2.63-.53-3.94-.22-1.55-.44-3.09-.65-4.63-.2-1.43-.41-2.86-.62-4.28-.29-1.93-.58-3.85-.88-5.79-.19-1.23-.39-2.46-.59-3.69-.03-.19-.03-.38.03-.57.36-1.23.73-2.47,1.08-3.7.02-.05.05-.11.06-.16ZM174.75,282.61c.07.17.15.29.16.41.1.81.02,1.59-.36,2.33-.23.43-.52.6-1,.51-.37-.06-.74-.19-1.14-.31-.06.09-.14.22-.23.34-.19.27-.37.54-.59.79-.45.53-1.47.71-2.08.37-.14-.07-.27-.14-.42-.2-.48-.22-.96-.24-1.45-.05-.24.08-.46.18-.69.29-.73.37-1.38.84-2.01,1.36-.47.4-.95.79-1.42,1.18-.81.68-1.73,1.15-2.72,1.49-.94.32-1.92.55-2.91.68-.16.02-.34.08-.46-.11.1-.17.27-.2.44-.27.85-.36,1.72-.67,2.55-1.08,1.48-.72,2.86-1.59,4.1-2.69.77-.68,1.56-1.33,2.44-1.85.38-.23.79-.39,1.22-.52.46-.14.91-.1,1.34.1.19.08.38.18.57.28.24.12.48.15.73.08.58-.15,1.07-.43,1.33-1.01.16-.35.31-.71.46-1.07.04-.09.06-.18.1-.28.06-.16.16-.23.24-.17.12.07.13.18.11.3-.04.18-.08.38-.12.56l.12.1c.29.18.61.22.92.26.12,0,.25-.07.38-.11-.02-.29-.12-.56,0-.83.14-.27.15-.59.37-.89ZM169.48,241.57c.05.06.12.09.15.16.2.47.38.94.58,1.4.33.79.68,1.58.98,2.38.5,1.33.97,2.67,1.43,4.01.13.37.18.76.24,1.14.03.18.08.42-.13.52-.23.1-.34-.12-.44-.28-.24-.33-.45-.67-.68-1.01-.11-.16-.19-.34-.4-.45-.11.22-.15.43-.11.67.15.99.29,1.96.46,2.95.31,1.82.64,3.65.93,5.47.2,1.25.35,2.51.5,3.77.08.67.15,1.35.19,2.03.05.76-.05,1.52-.16,2.27-.15.94-.37,1.87-.7,2.77-.17.48-.42.92-.7,1.34-.12.17-.27.32-.44.46-.65.55-1.39.98-2.16,1.34-.9.41-1.82.71-2.8.9-1.06.21-2.06,0-3.03-.41-.66-.28-1.27-.66-1.8-1.14-.33-.3-.62-.65-.9-.99-.55-.68-.97-1.46-1.38-2.22-.2-.38-.42-.75-.66-1.1-.43-.61-.79-.71-1.5-.51-.41.12-.78.32-1.12.59-.83.65-1.53,1.42-2.15,2.27-.65.89-1.18,1.87-1.63,2.88-.48,1.08-.32,2.08.36,3.05.1-.05.19-.08.27-.13,1.14-.65,2.31-1.23,3.65-1.35.77-.06,1.53,0,2.28.21.46.14.91.3,1.3.61.29.24.52.52.7.85.44.78.59,1.65.64,2.52.05.79.04,1.6-.15,2.39-.14.57-.31,1.13-.59,1.64-.28.51-.64.92-1.23,1.08-.44.11-.87.09-1.31-.03-.74-.2-1.45-.52-2.12-.9-1.33-.76-2.52-1.71-3.47-2.95-.05-.07-.11-.17-.13-.19-.3,0-.44.15-.6.26-.86.59-1.73,1.15-2.54,1.82-.55.45-1.16.84-1.81,1.11-1.14.48-2.33.65-3.56.44-.62-.1-1.15-.4-1.64-.81-.7-.61-1.17-1.39-1.6-2.2-.21-.4-.45-.77-.74-1.12-.05-.07-.14-.12-.24-.21l-.59-.52c-.2-.26-.46-.38-.74-.45-.92-.24-1.85-.35-2.8-.26-1.53.14-2.91.72-4.14,1.64-1.15.87-2.15,1.88-3.15,2.91-1.28,1.33-2.41,2.78-3.67,4.13-.08.08-.15.18-.22.27-.84,1.17-1.82,2.21-2.85,3.21-.75.72-1.64,1.22-2.69,1.36-.82.11-1.61,0-2.36-.37-1.22-.6-2.11-1.51-2.69-2.77-.42-.93-.59-1.89-.63-2.89-.03-.76-.03-1.52.1-2.28.02-.11.04-.23.05-.34.32-1.37.72-2.72,1.32-3.99.54-1.16,1.12-2.31,1.79-3.4.54-.88.99-1.81,1.47-2.72.38-.72.75-1.45,1.12-2.17.12-.24.21-.5.32-.77-.2-.17-.37-.32-.55-.45-.98-.68-1.66-1.6-2.23-2.64-.62-1.11-.88-2.32-.95-3.58-.06-1.11-.04-2.23.14-3.33.17-1.11.37-2.23.68-3.32.42-1.46.85-2.91,1.37-4.34.12-.33.24-.66.37-.99.05-.14.15-.27.25-.43.09.09.17.15.21.22.08.18.09.37.04.57-.12.43-.2.88-.33,1.3-.54,1.67-.97,3.37-1.3,5.1-.27,1.43-.34,2.87.18,4.28.56,1.51,1.4,2.82,2.78,3.69.82.52,1.72.78,2.65.92.64.1,1.3.09,1.95.05.95-.07,1.92-.15,2.87-.25.98-.1,1.92-.37,2.86-.65.37-.11.74-.23,1.1-.36.98-.35,1.92-.77,2.85-1.24,1.72-.88,3.35-1.9,4.99-2.91.47-.29.92-.64,1.33-1.07-.12-.31-.36-.45-.63-.55-.42-.16-.85-.24-1.3-.26-.56-.03-1.11.04-1.67.08-1.1.09-2.19.12-3.28-.07-.64-.11-1.22-.37-1.74-.73-.54-.37-.73-.94-.79-1.56-.09-.92-.05-1.83.16-2.73.58-2.44,1.63-4.66,3.13-6.65.54-.73,1.11-1.45,1.71-2.13.39-.45.84-.86,1.29-1.25.33-.3.73-.51,1.13-.68.68-.29,1.16-.18,1.67.35.3.31.4.65.28,1.11-.21.76-.35,1.56-.51,2.34-.05.21-.09.42-.16.62-.04.09-.14.17-.19.24-.2-.07-.26-.22-.3-.38-.13-.58-.53-.76-1.17-.59-.54.14-1.03.41-1.45.8-1.35,1.26-2.51,2.69-3.41,4.32-.31.56-.6,1.13-.81,1.74-.12.36-.09.47.22.69.34.24.7.41,1.1.51.72.17,1.43.24,2.17.23,1.19-.02,2.39-.02,3.58-.03.47,0,.92.1,1.35.27.68.26,1.12.75,1.28,1.47.15.61.17,1.23.08,1.86-.07.51-.17.99-.34,1.48-.32.95-.79,1.81-1.51,2.52-.8.8-1.69,1.48-2.61,2.11-1.72,1.18-3.54,2.19-5.44,3.06-1.71.77-3.47,1.37-5.29,1.78-1.36.3-2.73.43-4.12.37-.89-.05-1.76-.18-2.6-.48-.09-.03-.18-.05-.33-.09l-.02.03c-.57,1.35-1.3,2.57-1.95,3.83-.61,1.17-1.27,2.32-1.88,3.49-.66,1.27-1.31,2.56-1.74,3.94-.36,1.16-.58,2.35-.49,3.58.07,1.08.27,2.12.9,3.04.48.71,1.11,1.03,1.95.99.62-.03,1.17-.22,1.68-.55.86-.55,1.67-1.19,2.37-1.94,1.69-1.81,3.35-3.66,5.04-5.47,1.13-1.23,2.29-2.43,3.54-3.52,1.01-.88,2.05-1.71,3.26-2.29.91-.44,1.83-.82,2.82-.97,1.28-.19,2.52-.07,3.74.4.83.32,1.43.9,1.89,1.65.23.36.41.76.62,1.12.35.63.74,1.22,1.27,1.72.36.34.79.54,1.26.65,1.4.37,2.7.12,3.95-.58.47-.27.92-.56,1.36-.88.5-.36.98-.75,1.46-1.11.07-.56-.06-1.08-.14-1.59-.09-.65-.08-1.29-.05-1.93.05-.88.21-1.74.44-2.59.2-.72.51-1.39.86-2.04.6-1.07,1.24-2.11,2.03-3.05.56-.67,1.18-1.28,1.84-1.84.4-.34.87-.57,1.34-.78.34-.16.68-.14.99.06.22.15.44.32.62.53.38.44.69.93.93,1.47.37.77.8,1.52,1.34,2.18,1.06,1.31,2.42,2.05,4.09,2.26.71.08,1.38-.05,2.05-.21,1.03-.26,1.99-.71,2.95-1.16.49-.23.93-.55,1.3-.93.06-1.02-.04-2.02-.15-3-.25-2.05-.65-4.08-1.02-6.11-.33-1.76-.6-3.54-.9-5.31-.33-1.93-.65-3.84-.95-5.77-.08-.5-.29-.92-.56-1.33-.06-.09-.14-.18-.2-.27.24-.88,1.35-3.51,1.67-3.94ZM102.02,241.4c.08.05.14.07.16.12,1.25,2.98,2.55,5.93,3.6,8.99.1.29.18.6.24.9.06.29,0,.47-.14.52-.2.06-.33-.07-.44-.2-.38-.41-.75-.84-1.13-1.25-.1-.11-.21-.2-.37-.36-.02.15-.04.22-.03.29.3,1.57.62,3.13.9,4.71.38,2.15.76,4.29,1.11,6.45.27,1.7.54,3.39.76,5.09.21,1.58.35,3.18.53,4.76.14,1.21.14,2.41.08,3.62-.02.47-.05.94-.15,1.39-.3,1.49-.68,2.96-1.24,4.38-.81,2.02-1.93,3.81-3.55,5.27-1.02.92-2.15,1.63-3.37,2.23-1.69.83-3.47,1.39-5.3,1.74-.94.18-1.9.31-2.85.44-.25.04-.5.04-.75.03-.1,0-.2-.07-.31-.12l.02-.09c.09-.2.25-.29.42-.37.44-.23.89-.45,1.33-.69,2.46-1.28,4.87-2.66,7.18-4.22,1.32-.88,2.59-1.82,3.77-2.89.45-.41.89-.86,1.33-1.3.83-.87,1.37-1.92,1.78-3.05.13-.35.17-.71.17-1.09-.02-.96-.14-1.91-.26-2.86-.25-1.78-.5-3.55-.77-5.33-.31-2.02-.63-4.04-.96-6.06-.36-2.19-.73-4.38-1.11-6.57-.36-2.09-.73-4.18-1.1-6.28-.15-.88-.32-1.77-.47-2.64-.12-.66-.36-1.25-.72-1.77.54-1.24,1.07-2.52,1.66-3.79ZM109.4,282.58c0,.23-.06.39-.14.54-.16.33-.34.65-.52.98-.23.41-.48.79-.71,1.21-.25.45-.4.92-.35,1.45.05.44.23.82.54,1.13.36.37.81.35,1.16-.03.11-.12.15-.31.33-.38.03.05.06.07.06.1-.06.65-.26,1.25-.72,1.74-.05.06-.11.11-.16.17-.36.31-.8.3-1.14-.03-.47-.45-.68-1.02-.72-1.67-.04-.65.11-1.28.31-1.89.28-.86.71-1.64,1.2-2.39.24-.37.49-.73.82-1.21l.04.27ZM146.29,283.95c0,.12,0,.18-.02.22-.13.28-.27.55-.41.83-.12.25-.25.51-.34.76-.15.42-.11.85.1,1.24.17.33.47.4.76.17.08-.06.15-.14.3-.28l-.04.21c-.07.47-.25.81-.58,1.07-.34.27-.66.2-.87-.19-.15-.28-.24-.57-.23-.88,0-.39.07-.77.22-1.12.25-.64.57-1.25.93-1.85.03-.05.07-.08.16-.18ZM163.76,282.88c-.08.33-.23.56-.35.79-.04.06-.11.11-.17.15-.12.06-.25.12-.36.17-2.05,1.02-4.1,2.04-6.15,3.06-.1.05-.2.09-.38.17l.15-.35c.15-.33.32-.59.65-.75,1.01-.49,2-1,2.99-1.5,1.07-.53,2.14-1.06,3.21-1.59.12-.06.24-.09.42-.16ZM131.91,280.5c0,.16,0,.23-.02.29-.17.37-.36.73-.54,1.1-.15.33-.32.66-.44,1.01-.21.56-.14,1.12.14,1.63.24.43.63.52,1.01.21.1-.08.19-.18.39-.38l-.03.28c-.1.62-.33,1.07-.76,1.42-.44.35-.87.26-1.15-.24-.2-.36-.31-.75-.31-1.17,0-.52.1-1,.28-1.48.33-.86.76-1.66,1.24-2.44.04-.06.1-.11.21-.23ZM312.86,284.16c-.26-.06-.46.1-.56.47.36.17.72.32,1.14.52l.04-.2c.02-.18-.02-.32-.11-.43-.13-.18-.29-.31-.51-.36ZM120.3,277.78c0,.1.05.18.02.23-.08.19-.17.39-.26.58-.28.6-.59,1.18-.84,1.79-.27.64-.25,1.29.05,1.93.32.67.79.76,1.32.27.09-.09.19-.18.28-.28l.05.08c-.07.73-.33,1.35-.91,1.8-.25.2-.55.32-.85.17-.15-.07-.3-.19-.39-.33-.32-.5-.49-1.06-.44-1.66.05-.52.15-1.04.34-1.53.4-1.01.92-1.97,1.48-2.9.03-.05.08-.07.17-.15ZM170.66,273.96c.62-1.07,2.18-1.16,2.99,0,.05.06.07.14.08.21.08.4-.03.91-.28,1.37-.11-.06-.23-.12-.34-.18-.24-.13-.45-.3-.7-.4-.19-.07-.41-.11-.62-.1-.59.03-.89.29-.98.88-.07.48-.08.97-.08,1.45,0,.78.04,1.56.02,2.34,0,.63-.06,1.24-.28,1.84-.05.13-.1.26-.16.38-.06.12-.14.25-.3.22-.12-.03-.19-.12-.23-.24-.05-.15-.1-.29-.15-.44-.41-1.15-1.04-2.17-1.92-3.02-.21-.2-.42-.4-.68-.51-.34.35-.37.36-.82.26-.36-.08-.7-.2-1-.42-.33-.25-.53-.56-.5-1,.02-.25,0-.51.04-.75.02-.18.07-.37.12-.61l.44.04c.98.16,1.79.57,2.48,1.24.8.76,1.41,1.65,1.87,2.64.11.23.19.46.34.67.05-.04.1-.05.11-.08.09-.46.15-.91.13-1.39-.05-.86-.08-1.71-.06-2.57,0-.64.16-1.27.49-1.84ZM216.16,241.65s.05.09.07.13c1.13,2.37,2.25,4.75,3.18,7.21.21.56.38,1.14.56,1.72.06.2.12.42.02.66-.1-.02-.23-.01-.31-.07-.17-.12-.35-.25-.49-.4-.24-.26-.44-.54-.67-.8-.07-.08-.15-.15-.25-.24-.16.25-.15.47-.11.7.14.78.3,1.57.43,2.36.41,2.36.84,4.72,1.23,7.08.32,1.94.61,3.89.87,5.84.21,1.53.38,3.06.52,4.59.13,1.42.22,2.84.29,4.27.09,1.86-.09,3.7-.74,5.46-.09.26-.2.51-.32.76-.03.05-.13.07-.19.07-.04,0-.09-.07-.1-.12-.03-.13-.04-.27-.05-.4-.05-1-.09-1.99-.17-2.98-.11-1.36-.24-2.72-.4-4.07-.19-1.65-.42-3.29-.65-4.93-.35-2.41-.73-4.82-1.12-7.22-.38-2.35-.78-4.69-1.19-7.03-.45-2.55-.93-5.1-1.39-7.66-.06-.37-.22-.7-.46-1-.08-.1-.17-.21-.25-.3.11-.47,1.27-3.31,1.56-3.79l.12.15ZM46.47,274.27s.04.1.03.14c-.06.18-.15.36-.23.53-.29.62-.6,1.22-.87,1.84-.3.68-.25,1.36.08,2.03.29.56.75.64,1.22.22.05-.06.1-.12.16-.17.05-.05.07-.15.17-.12l.04.02c-.05.76-.34,1.39-.93,1.85-.47.36-.96.25-1.26-.27-.37-.64-.45-1.32-.33-2.03.06-.38.17-.76.31-1.12.36-.99.88-1.91,1.42-2.8.04-.06.07-.15.19-.13ZM108.87,241.74c1.14,2.39,2.27,4.78,3.2,7.26.17.45.32.92.45,1.39.06.2.08.42.11.63,0,.12-.14.22-.25.16-.16-.09-.34-.19-.47-.32-.25-.26-.49-.55-.73-.83-.08-.1-.17-.19-.29-.33-.06.13-.14.21-.14.28,0,.19,0,.39.05.58.5,2.82,1.04,5.64,1.51,8.46.47,2.83.89,5.67,1.22,8.51.25,2.17.46,4.35.53,6.53.03.96.05,1.92-.09,2.87-.15,1.04-.41,2.06-.81,3.04-.06.15-.09.4-.32.33-.18-.05-.14-.26-.14-.4-.06-2.63-.34-5.25-.66-7.87-.48-3.93-1.07-7.84-1.74-11.75-.73-4.25-1.49-8.49-2.23-12.73-.05-.3-.13-.61-.17-.92-.07-.5-.27-.93-.62-1.29-.04-.04-.06-.09-.13-.18l.73-1.83c.25-.61.51-1.23.78-1.87.1.14.16.2.21.29ZM80.05,243.44c.07.03.15.03.18.07.57.66,1.25,1.22,1.9,1.79,1.27,1.13,2.48,2.33,3.68,3.55.25.25.44.53.66.81.06.07.11.16.15.25.04.09.06.2-.03.27-.05.04-.14.06-.21.05-.13-.03-.26-.08-.37-.14-.39-.2-.78-.41-1.17-.63-.06-.04-.13-.09-.2-.11-.08-.03-.2-.06-.26-.02-.12.07-.06.21,0,.31.09.17.18.35.29.51.26.36.53.72.81,1.07,1.39,1.72,2.91,3.32,4.48,4.87,1.45,1.45,2.89,2.91,4.34,4.37,1.34,1.35,2.6,2.76,3.83,4.21,1.13,1.33,2.17,2.73,3.09,4.23.73,1.18,1.33,2.41,1.92,3.67.44.95.81,1.94.99,2.99.19,1.11.34,2.24.25,3.37-.03.32-.07.65-.25.95l-.14-.05c-.1-.04-.13-.13-.14-.22-.1-.46-.19-.91-.29-1.37-.17-.78-.46-1.53-.78-2.26-.78-1.79-1.73-3.47-2.85-5.08-1.3-1.87-2.78-3.58-4.33-5.24-1.47-1.57-3-3.09-4.49-4.63-1.33-1.35-2.69-2.68-3.97-4.08-1.21-1.31-2.38-2.65-3.37-4.15-.43-.64-.89-1.27-1.33-1.92-.29-.43-.56-.88-.84-1.33-.25-.4-.49-.79-.84-1.12-.25-.23-.53-.45-.9-.53,0-.28-.04-.53-.04-.77,0-.96.03-1.92.05-2.87,0-.21.04-.42.08-.63,0-.06.07-.13.11-.19ZM158.44,278.44c-.96-.25-1.93-.19-2.9-.04-.05,0-.08.06-.15.1.19.22.45.31.68.44.7.41,1.44.72,2.24.87.55.1,1.06,0,1.54-.4l-.09-.19c-.36-.39-.8-.66-1.32-.79ZM176.76,241.42c.18-.02.2.1.23.19,1.08,2.35,2.16,4.7,3.02,7.14.13.37.24.75.34,1.11.06.22.13.45.03.68-.2.08-.34-.04-.46-.16-.25-.25-.47-.52-.7-.77-.13-.14-.25-.29-.39-.47-.06.1-.13.17-.13.22,0,.19-.02.4.02.58.31,1.84.64,3.69.93,5.54.27,1.73.54,3.46.77,5.21.24,1.7.45,3.4.63,5.1.26,2.4.44,4.81.44,7.23,0,1.48-.24,2.91-.74,4.29-.09.26-.22.5-.34.74-.04.08-.22.05-.24-.04-.03-.11-.05-.23-.05-.34-.02-.39-.02-.78-.03-1.17-.04-1.58-.17-3.15-.34-4.73-.19-1.79-.38-3.57-.62-5.34-.27-2.11-.57-4.21-.88-6.31-.31-2.1-.63-4.2-.97-6.3-.32-1.98-.66-3.96-.99-5.93-.08-.46-.18-.92-.24-1.38-.07-.64-.25-1.22-.75-1.71l.72-1.71c.24-.56.48-1.12.73-1.67ZM91.07,274.27c-.04.34-.08.68-.14,1.01-.13.66-.34,1.3-.54,1.98.11.04.2.07.29.08.52.06,1.03.1,1.54.14.98.07,1.95.09,2.93.05.52-.02,1.04-.08,1.53-.26.29-.1.58-.22.73-.5,0-.06,0-.1,0-.13-.35-.69-.84-1.25-1.56-1.58-.37-.17-.74-.34-1.12-.47-1.05-.37-2.1-.76-3.11-1.24-.14-.06-.28-.09-.44-.15l-.11,1.04ZM304.67,276.08c-.7-.45-1.38-.38-2.03.09-.18.14-.35.31-.49.48-.06.08-.09.2-.13.29.22.26.5.34.77.42.96.26,1.93.22,2.9.09.04,0,.06-.05.14-.1l-.1-.2c-.25-.47-.63-.79-1.06-1.07ZM129.26,273.55l-1.63,2.85-3.3-1.95-1.63,2.84-3.3-1.95,1.64-2.85,3.3,1.95,1.63-2.84,3.3,1.95ZM88.19,271.69c-.36-.29-.77-.35-1.17-.07-.31.22-.64.44-.92.7-.74.68-1.24,1.54-1.67,2.43-.19.4-.1.73.18,1,.2.2.45.38.69.51.83.43,1.73.61,2.75.77l.08.02c.09-.02.2-.08.29-.18.39-.42.78-.86,1.17-1.29.15-.18.2-.37.14-.6-.1-.41-.19-.84-.31-1.24-.14-.49-.32-.97-.62-1.37-.18-.25-.39-.49-.63-.68ZM66.7,269.77c.06.06.13.09.14.13.15.7.52,1.3.86,1.91.19.34.37.68.54,1.03.33.67.32,1.4.22,2.12-.12.88-1.1,1.09-1.65.87-.29-.12-.53-.31-.73-.54-.14-.16-.27-.31-.44-.51-.06.2-.11.35-.15.49-.19.52-.46.98-.93,1.31-1.3.93-2.75,0-2.97-1.26-.09-.54-.12-1.09-.05-1.63.03-.23.05-.47.05-.7,0-.11-.05-.22-.07-.36-.15.05-.27.08-.42.14-.03-.08-.07-.16-.06-.22.07-.38.16-.76.25-1.14,0-.04.03-.07.05-.1.09-.15.16-.34.36-.31.2.03.28.22.31.39.05.27.08.54.07.81,0,.4-.04.82-.09,1.22-.05.42.03.81.24,1.18.33.58,1.18.89,1.75.72.49-.15.91-.41,1.2-.86.14-.23.21-.44.12-.71-.17-.52-.31-1.04-.59-1.52-.21-.34-.3-.71-.27-1.11.02-.27.02-.54.03-.81.05,0,.08-.02.13-.03l.3.54c.1.19.19.38.25.58.16.48.33.96.48,1.44.15.48.45.86.84,1.17.36.3.78.41,1.23.23.08-.04.15-.11.25-.18-.11-.21-.2-.4-.3-.58-.18-.34-.37-.68-.57-1.02-.36-.61-.5-1.26-.44-1.96.02-.22-.04-.46.08-.7ZM147.52,270.6c-.01.08-.02.15-.05.21-.17.45-.36.9-.55,1.35-.31.7-.29,1.4-.04,2.1.1.29.3.5.55.65.29.18.6.15.84-.09.12-.12.21-.27.32-.4.15.05.13.17.1.24-.14.39-.27.76-.43,1.14-.11.26-.34.42-.57.55-.22.11-.45.11-.67,0-.36-.17-.66-.41-.78-.81-.1-.31-.19-.64-.21-.97-.04-.69.08-1.36.34-2,.27-.66.59-1.31.89-1.96.05-.09.14-.16.3-.34l-.06.33ZM312.15,271.35c-.41-.27-.81-.18-1.16.12-.28.24-.49.54-.65.88-.13.25-.17.5-.11.78.18.76.35,1.52.52,2.28,0,.06.05.09.11.18l.37-.19c.91-.53,2.09-1.48,2.52-2.06-.02-.06-.02-.15-.05-.21-.23-.42-.46-.86-.82-1.2-.22-.21-.46-.41-.72-.57ZM291.24,267.26c.06.04.12.06.12.08.12.64.43,1.2.73,1.77.17.32.34.66.5.99.16.31.25.64.24,1.01,0,.33,0,.66-.03,1,0,.14-.02.28-.05.41-.19.81-1,1.14-1.71.7-.27-.17-.46-.41-.63-.67-.06-.11-.14-.22-.25-.4l-.09.45c-.13.81-.57,1.39-1.27,1.78-.25.14-.53.22-.83.25-.43.04-.74-.13-1.01-.45-.35-.43-.54-.94-.53-1.51.02-.52.06-1.05.09-1.57,0-.18.04-.35.04-.53,0-.1-.06-.21-.11-.33-.14.06-.27.1-.42.16-.09-.47-.03-.9.08-1.33.04-.17.14-.31.35-.38.26.11.33.35.34.61,0,.54.02,1.09.02,1.64,0,.28-.03.54-.04.82-.03.53.28,1.07.75,1.26.14.06.3.08.44.07.77-.11,1.35-.51,1.75-1.19.12-.2.12-.41.04-.62-.12-.36-.23-.72-.37-1.08l-.23-.57c-.17-.51-.16-1.03-.08-1.55,0-.03.04-.05.1-.09.25.34.49.69.64,1.1.21.59.44,1.16.66,1.74.11.3.32.53.55.74.37.31.73.34,1.23.06-.05-.32-.24-.6-.38-.89-.19-.39-.37-.78-.57-1.15-.29-.54-.33-1.11-.23-1.7.04-.2.09-.4.14-.61ZM263.7,267.35c.33-.53,1.01-.78,1.6-.58.14.05.27.11.4.18.41.25.64.59.54,1.1-.04.22-.05.46-.19.65-.14.07-.22-.02-.31-.08-.25-.19-.51-.33-.82-.41-.33-.09-.61.03-.87.18-.19.11-.24.35-.26.55-.06.44-.11.88-.08,1.32.03.47.05.95.05,1.43,0,.67-.03,1.34-.26,1.98-.05.14-.12.27-.19.4-.09.14-.28.12-.35-.04-.06-.12-.09-.25-.13-.37-.35-1-.89-1.89-1.65-2.63-.16-.16-.35-.29-.54-.45-.08.09-.14.17-.21.22-.06.05-.15.09-.22.07-.42-.06-.83-.17-1.16-.44-.25-.2-.41-.46-.38-.81.02-.31.05-.62.08-.93,0-.06.04-.12.08-.19.73.03,1.4.27,1.98.7.83.63,1.44,1.45,1.91,2.38.1.19.18.39.27.58.04.06.08.13.16.26l.05-.24c.12-.54.08-1.02.05-1.52-.05-.83-.1-1.67.1-2.49.07-.29.17-.56.33-.81ZM142.27,264.54c1.25.06,2.48.29,3.68.59.34.08.66.2.98.33.33.13.46.42.35.76-.07.2-.18.39-.3.56-.48.68-.97,1.35-1.45,2.04-.42.59-.93,1.1-1.47,1.56-.69.58-1.52.81-2.39.93-.7.09-1.42.14-2.1.34-.33.09-.67.14-1.01.2-.11-.09-.05-.18.02-.24.35-.26.72-.51,1.12-.68,1.23-.52,2.43-1.07,3.64-1.61.34-.15.66-.31.99-.48.12-.06.23-.14.34-.21.12-.08.08-.28-.05-.33-.09-.04-.18-.07-.27-.09-.95-.25-1.91-.43-2.89-.49-.34-.02-.69-.04-1.03-.07-.62-.06-1.12.19-1.61.51-.08.06-.15.1-.25.17l-.1-.12s-.05-.06-.05-.09c0-.11.02-.24.07-.32.26-.41.52-.82.82-1.2.36-.48.76-.92,1.16-1.38.47-.54,1.1-.69,1.77-.66ZM176.48,265.67c.01.17-.03.34-.07.51-.15.53-.32,1.04-.44,1.57-.09.36-.14.73-.17,1.09-.04.36.06.69.22,1.01.05.12.14.24.23.33.31.3.72.27,1-.06.05-.07.13-.14.19-.2,0,0,.04,0,.05,0,.11.12.05.26,0,.38-.13.32-.27.64-.42.96-.15.33-.43.5-.77.54-.36.04-.62-.18-.8-.48-.21-.36-.32-.76-.33-1.17,0-.35.02-.71.08-1.04.15-.8.35-1.6.64-2.36.12-.3.19-.64.28-.95.04-.12.06-.15.25-.29l.04.19ZM70.54,264.46c-.18.34-.37.68-.55,1.02-.36.18-.73.36-1.1.52-1.26.52-2.53,1.02-3.79,1.54-.59.24-1.17.5-1.74.77-1.5.69-3,1.39-4.49,2.1-.71.34-1.41.71-2.02,1.22-.08-.1-.03-.18,0-.24.21-.44.42-.88.63-1.32.09-.2.23-.36.42-.46.5-.29,1-.59,1.52-.84,2.11-1.01,4.25-2,6.42-2.89,1.39-.57,2.77-1.15,4.15-1.73.24-.1.48-.23.82-.23l-.25.55ZM298.46,264.81c.4-.39.85-.51,1.37-.29.11.05.22.09.31.15.13.08.25.17.4.28v.41c.03.39.04.75-.15,1.12-.09-.04-.17-.06-.25-.1-.17-.09-.33-.2-.51-.27-.5-.19-.94-.1-1.32.29-.24.26-.44.53-.63.87.09.07.17.16.26.2.7.33,1.42.42,2.19.2.4-.11.75-.3,1.04-.59.35-.35.71-.71,1.06-1.07.08-.07.17-.13.32-.24.02.16.06.25.04.33-.09.38-.18.75-.3,1.12-.04.12-.13.24-.22.34-.4.41-.79.86-1.22,1.24-.83.7-1.59,1.46-2.32,2.26-.07.08-.16.15-.27.26-.16-.26-.06-.48-.02-.69.04-.21.07-.42.15-.63.08-.2.23-.39.36-.63-.17-.05-.3-.06-.42-.11-.31-.12-.61-.23-.91-.38-.35-.17-.49-.46-.43-.87.11-.78.32-1.53.72-2.2.14-.25.33-.48.49-.72.08-.11.17-.21.26-.3ZM274.26,264.08c0,.45-.16.86-.29,1.28-.09.31-.2.63-.3.94-.17.53-.11,1.04.05,1.55.04.13.11.26.2.35.5.52.89.51,1.24-.09.04-.08.08-.17.13-.25.05.03.11.04.11.05.02.72-.23,1.33-.75,1.82-.25.24-.48.26-.78.08-.33-.19-.55-.46-.65-.85-.16-.62-.15-1.24-.04-1.85.08-.45.22-.9.36-1.35.18-.55.39-1.1.6-1.64.04-.08.08-.17.13-.25v.2ZM56.32,264.22l-1.95,3.41-3.95-2.33-1.95,3.41-3.95-2.34,1.95-3.41,3.95,2.33,1.95-3.4,3.95,2.34ZM252.16,265.09l-1.95,3.41-3.96-2.34,1.95-3.41,3.95,2.34ZM226.15,261.72c.06.23-.03.41-.11.6-.13.32-.28.65-.39.98-.14.41-.23.83-.36,1.24-.24.76.51,1.82,1.04,2.04.3.12.51.09.74-.13.16-.17.3-.35.34-.59.04-.16.08-.3.3-.35.04.1.12.2.12.29-.03.61-.08,1.21-.39,1.75-.49.86-1.17.99-1.89.33-.41-.37-.68-.84-.79-1.4-.09-.49-.09-.97,0-1.45.17-.99.42-1.95.88-2.83.08-.16.17-.3.27-.44.04-.05.12-.07.19-.12l.03.09ZM307.8,246.11c-.04.1-.04.16-.06.2-.39.61-.78,1.21-1.16,1.82-.1.16-.23.25-.39.32-1.62.68-3.21,1.39-4.84,2.05-1.75.71-3.5,1.41-5.22,2.19-1.12.51-2.23,1.05-3.34,1.58-.83.4-1.67.79-2.49,1.2-.84.41-1.69.84-2.53,1.25-1.73.85-3.46,1.69-5.19,2.53-.73.36-1.45.71-2.18,1.08-1.34.67-2.69,1.35-4.03,2.02-1.44.73-2.81,1.6-4.21,2.41-.7.41-1.38.86-2.07,1.27-.48.29-.93.63-1.33,1.01-.21.19-.35.46-.52.69-.06.09-.13.18-.26.37v-.26c-.01-.06-.01-.1,0-.14.28-.75.56-1.49.87-2.23.14-.34.39-.63.67-.87.45-.4.93-.76,1.44-1.06,3.42-2.02,6.91-3.91,10.48-5.64,1.24-.61,2.51-1.19,3.76-1.79,1.77-.85,3.53-1.71,5.31-2.56,1.95-.93,3.89-1.86,5.86-2.74,1.91-.85,3.87-1.62,5.81-2.43,1.26-.53,2.52-1.07,3.78-1.59.5-.21,1-.41,1.5-.62.1-.04.22-.05.36-.07ZM258.07,264.03l-1.95,3.41-3.96-2.34,1.95-3.41,3.95,2.34ZM313.88,253.57c.46-.12.84.05,1.04.49.1.23.15.48.18.73.05.49-.04.98-.17,1.45-.12.47-.27.93-.44,1.39-.08.24-.09.44.06.66.11.16.18.34.27.52.3.58.22,1.17.08,1.77-.02.09-.11.18-.2.3-.32-.5-.34-1.09-.75-1.5-.17.02-.24.18-.33.29-.47.59-.94,1.19-1.42,1.78-.31.38-.65.73-.98,1.08-.22.22-.46.42-.69.62-1.03.82-2.1,1.58-3.19,2.3-.76.5-1.52.98-2.31,1.45-.17.11-.38.17-.59.23-.05.02-.14-.05-.18-.09-.02-.02,0-.12.04-.16.13-.12.26-.23.41-.32,1.24-.82,2.38-1.78,3.51-2.75.85-.73,1.73-1.43,2.57-2.17.89-.8,1.74-1.65,2.43-2.64.06-.09.12-.19.21-.34l-.9-1.05c-.73-.82-.76-.97-.45-2.05.18-.64.52-1.17,1.02-1.59.23-.18.49-.31.77-.38ZM309.57,254.34c-.1.17-.25.22-.42.29-.83.37-1.65.74-2.48,1.12-2.24,1.01-4.49,2.03-6.73,3.07-1.12.52-2.2,1.11-3.3,1.67-1.08.55-2.16,1.11-3.23,1.67-.85.44-1.71.89-2.56,1.34-1.23.64-2.46,1.28-3.69,1.92-.58.3-1.16.62-1.73.92-.09.05-.2.08-.39.16.07-.17.11-.26.15-.33.36-.62.74-1.23,1.1-1.86.13-.23.31-.38.54-.5,1.7-.87,3.39-1.74,5.09-2.61,2.66-1.35,5.32-2.72,8-4.04,1.12-.55,2.28-1.04,3.42-1.56,1.93-.88,3.86-1.74,5.79-2.62.44-.19.88-.39,1.33-.57.06-.03.14-.03.35-.07l-1.23,2ZM282.83,259.99c0,.16-.04.31-.09.46-.18.59-.37,1.19-.54,1.78-.15.53-.11,1.04.05,1.55.11.33.35.55.67.67.18.07.35.05.48-.09.13-.14.23-.3.34-.46.04-.06.09-.1.2-.22,0,.87-.25,1.53-.85,2.03-.21.17-.43.16-.65.05-.33-.18-.58-.43-.69-.81-.2-.69-.16-1.39-.04-2.08.07-.4.2-.79.33-1.18.19-.55.4-1.1.6-1.64.03-.08.03-.2.19-.22v.17ZM66.3,241.53c.38.06.75.14,1.09.36.19.13.33.27.32.52,0,.33,0,.66-.03,1,0,.15-.05.3-.22.43-.08-.06-.18-.11-.27-.17-.31-.22-.65-.32-1.02-.37-.54-.06-.84.09-1.07.59-.21.42-.3.88-.3,1.35,0,.54,0,1.1.04,1.64.05.75,0,1.48-.11,2.21,0,.06,0,.12,0,.2.07.06.15.15.24.22.63.47,1.12,1.05,1.51,1.74.32.56.26,1.12.12,1.69-.06.25-.21.3-.44.2-.33-.15-.66-.21-1.01-.22-1.12,0-2.01.46-2.72,1.3-.14.16-.18.33-.18.53,0,.4.14.77.31,1.12.63,1.36,1.26,2.72,1.86,4.08.44,1.01.78,2.08.92,3.19.11.87.13,1.74.07,2.61-.16.05-.21-.02-.23-.12-.04-.19-.07-.39-.1-.58-.23-1.74-.78-3.37-1.55-4.94-.14-.28-.25-.57-.38-.85-.39-.85-.77-1.7-1.16-2.54-.17-.38-.26-.76-.28-1.19-.03-.63.05-1.24.18-1.86.18-.88.76-1.47,1.46-1.95.27-.18.58-.29.88-.42.08-.04.16-.07.34-.15l-.18-.09c-.4-.2-.58-.16-.89.12-.13.12-.24.25-.36.38-.07.07-.17.13-.26.07-.06-.05-.13-.16-.13-.23.05-.79.15-1.57.87-2.06.03-.02.05-.05.07-.09-.13-.91-1.98-3.05-2.95-3.57-.18.05-.3.28-.54.26-.36-.05-.73-.11-1.04-.3-.19-.12-.36-.29-.5-.47-.1-.13-.15-.32-.16-.49-.04-.53.02-1.05.14-1.57,0-.04.04-.06.09-.11.2-.02.4.07.58.16.94.41,1.81.9,2.55,1.66.78.79,1.46,1.65,1.96,2.65.12.23.25.46.37.67.18-.07.17-.18.17-.27,0-.33-.03-.66-.05-.99-.06-1.03-.02-2.07.15-3.09.06-.36.15-.73.28-1.07.1-.27.26-.52.44-.75.28-.38.67-.49,1.13-.42ZM81.61,257.99c.52.03,1.03.07,1.54.16,1.04.17,2.08.36,3.12.55.21.04.41.1.6.18.31.15.4.33.31.66-.08.3-.16.61-.31.87-.67,1.25-1.4,2.46-2.41,3.47-.55.55-1.21.9-1.93,1.11-.61.17-1.23.29-1.85.43-.37.08-.75.16-1.12.23-.09.02-.18.02-.35.03.11-.14.16-.25.25-.3.33-.21.65-.41.99-.6,1.44-.81,2.82-1.73,4.2-2.65.09-.06.18-.14.34-.26-.39-.21-.75-.21-1.07-.27-1.04-.17-2.09-.29-3.13-.44-.25-.04-.49,0-.73.07-.35.09-.63.28-.82.6-.14.24-.27.47-.42.7-.04.05-.14.1-.18.08-.05-.02-.12-.11-.13-.18-.02-.09,0-.19.03-.28.08-.29.15-.61.27-.89.34-.78.69-1.57,1.18-2.27.15-.2.3-.41.48-.58.33-.29.73-.45,1.16-.42ZM166.51,256.83c-.31,1.04-.64,2.08-.92,3.13-.2.76-.2,1.55.06,2.3.12.36.31.67.61.9.39.31.75.26,1.03-.16.06-.09.11-.2.17-.3.03-.04.09-.05.17-.08.03.29-.06.52-.16.75-.09.21-.18.43-.27.64-.04.09-.07.18-.14.26-.54.68-.94.7-1.51.22-.25-.21-.43-.5-.54-.81-.38-.96-.36-1.93-.14-2.93.24-1.05.64-2.04,1-3.05.14-.39.28-.76.43-1.15.05-.14.1-.3.37-.38l-.15.65ZM188.19,255.13c.17-.65.45-.76,1.03-.43.97.53,1.72,1.31,2.19,2.33.23.48.13.95-.05,1.42-.11.29-.35.41-.64.39-.23-.02-.45-.07-.68-.11-.13-.02-.26-.04-.39-.06-1.04,1.33-2.15,2.56-3.53,3.52-1.27.88-2.56,1.71-3.98,2.32-.05.02-.11,0-.23,0l.1-.16c.11-.15.23-.25.37-.33,1.85-1.13,3.53-2.5,5.14-3.95.4-.36.76-.77,1.13-1.16.06-.06.11-.15.18-.26-.15-.13-.34-.12-.49-.17-.43-.17-.69-.48-.63-.93.12-.81.26-1.61.47-2.41ZM236.12,255.5c.62-1.07,2.18-1.16,2.99,0,.05.06.07.14.08.21.08.4-.03.91-.28,1.37-.11-.06-.23-.12-.34-.18-.24-.13-.45-.3-.7-.4-.19-.07-.41-.11-.62-.1-.59.03-.89.29-.98.88-.07.48-.08.97-.08,1.46,0,.78.04,1.56.02,2.34,0,.63-.06,1.24-.28,1.84-.04.13-.1.26-.16.38-.06.12-.14.25-.3.22-.12-.03-.19-.12-.23-.24-.04-.15-.1-.29-.15-.44-.41-1.15-1.04-2.17-1.91-3.02-.21-.2-.42-.4-.68-.51-.34.35-.37.36-.82.26-.36-.08-.7-.2-1-.42-.33-.25-.52-.56-.5-.99.02-.25,0-.51.04-.76.02-.18.07-.37.12-.61l.44.04c.97.16,1.79.57,2.48,1.24.8.76,1.41,1.65,1.87,2.64.11.23.19.46.34.67.05-.04.1-.05.11-.08.09-.46.15-.91.13-1.39-.05-.86-.08-1.71-.06-2.57,0-.64.16-1.27.49-1.84ZM299.54,241.59c.11.11.04.17,0,.23-.36.64-.74,1.28-1.1,1.93-.11.2-.26.32-.47.4-.6.21-1.19.45-1.78.66-2.45.87-4.87,1.82-7.25,2.85-2.39,1.03-4.77,2.05-7.16,3.08-1.42.61-2.82,1.23-4.22,1.87-1.63.74-3.27,1.46-4.88,2.23-2.66,1.27-5.27,2.63-7.79,4.16-.43.26-.85.52-1.28.79-.67.42-1.27.95-1.8,1.55-.36.41-.64.87-.83,1.39-.06.16-.06.35-.26.47-.16-.17-.15-.34-.12-.52.18-.92.44-1.81.87-2.65.41-.77,1.01-1.38,1.67-1.92.53-.41,1.09-.8,1.67-1.14,1.91-1.12,3.85-2.19,5.85-3.15,2.47-1.18,4.94-2.35,7.45-3.43,2.89-1.23,5.77-2.47,8.66-3.69,2.38-1,4.76-1.97,7.15-2.93,1.5-.6,3.01-1.16,4.52-1.74.37-.14.75-.29,1.1-.43ZM305.05,257.56c.05.12-.02.23-.06.33-.19.62-.39,1.22-.54,1.84-.14.53,0,1.05.29,1.5.31.47.76.51,1.18.12.11-.1.21-.21.38-.39,0,.16,0,.23-.03.29-.09.29-.18.59-.28.89-.11.33-.34.57-.59.77-.39.31-.83.24-1.16-.15-.3-.36-.38-.79-.44-1.24-.04-.43.03-.86.14-1.27.26-.89.59-1.77.98-2.62.03-.05.06-.09.1-.14l.02.05ZM127.17,256.36c.14-.06.22,0,.24.11.18.67.55,1.23.94,1.8.27.4.5.83.66,1.29.24.66.15,1.3-.15,1.92-.14.28-.36.44-.66.51-.61.13-1.14,0-1.59-.46-.1-.11-.21-.21-.31-.31l-.28.51c-.09.17-.17.33-.27.48-.38.57-1.33,1.01-2.27.79-.56-.14-1.01-.71-1.08-1.38-.06-.58-.05-1.17.05-1.75.03-.16.05-.3.06-.46.02-.18-.05-.34-.15-.49-.11-.16-.22-.13-.33.07-.03.05-.05.08-.1.16-.18-.18-.23-.4-.2-.61.05-.3.13-.61.2-.91,0-.06.05-.1.09-.15.15-.2.37-.21.54-.02.26.3.4.66.4,1.07,0,.23-.04.46-.06.7-.03.44-.06.89-.07,1.33,0,.47.26.75.66.93.05.03.11.04.16.05.79.22,1.9-.31,2.23-1.07.06-.14.05-.26.02-.4-.14-.55-.3-1.09-.58-1.58-.15-.26-.29-.53-.26-.82.03-.29.05-.57.18-.89.09.07.15.1.19.16.34.55.57,1.14.74,1.77.07.26.16.52.24.77.13.39.38.67.72.89.38.25.8.25,1.22.13.05-.02.1-.05.14-.08-.1-.31-.28-.52-.42-.75-.28-.44-.54-.89-.82-1.35-.27-.44-.3-.92-.22-1.41.03-.19.08-.38.13-.54ZM148.5,256.41c.06.09.14.15.13.19-.05.29-.09.57-.16.86-.13.47-.28.93-.4,1.4-.13.49-.21.99-.07,1.49.05.18.12.37.2.54.08.18.23.31.41.4.28.13.52.07.73-.15.08-.09.16-.19.24-.29.04.02.08.04.12.05l-.05.4c-.07.41-.22.79-.5,1.12-.35.4-1.06.53-1.46-.15-.29-.5-.4-1.04-.35-1.62.09-.89.34-1.75.59-2.61.14-.44.28-.88.43-1.33.03-.09.08-.18.15-.3ZM258.62,241.62c.55-.21.99-.13,1.44.38.42.47.55,1.06.57,1.68.03.99-.12,1.94-.37,2.88-.05.2-.12.42-.19.65.19.29.38.61.6.9.15.22.21.43.15.7-.08.48-.12.97-.17,1.45-.02.15,0,.31-.14.42-.19.02-.26-.13-.36-.25-.19-.29-.38-.58-.58-.87-.09-.13-.18-.26-.37-.3-.09.17-.19.33-.28.51-1.5,2.75-3.44,5.1-5.94,6.98-.18.14-.37.28-.56.41-2.61,1.69-5.26,3.31-8.03,4.72-.31.16-.62.3-.94.43-.06.02-.16-.02-.19-.07-.04-.06-.04-.17,0-.21.14-.14.28-.26.43-.37.91-.62,1.83-1.22,2.74-1.83,2.29-1.58,4.52-3.24,6.62-5.08,1.23-1.07,2.4-2.2,3.48-3.4.7-.77,1.34-1.61,1.91-2.5.05-.08.09-.17.15-.29l-.18-.19c-.18-.2-.38-.35-.57-.5-.29-.25-.59-.5-.87-.77-.51-.47-.71-1.04-.59-1.74.11-.62.22-1.23.43-1.82.25-.64.57-1.23,1.17-1.61.19-.12.4-.23.62-.32ZM58.49,253.58c-.37.77-.76,1.53-1.12,2.3-.14.31-.24.65-.32.99-.15.78.05,1.51.44,2.18.27.46.79.58,1.25.31.13-.07.25-.18.36-.28.13-.12.23-.26.34-.39.14.02.16.12.14.21-.14.47-.24.95-.44,1.38-.24.49-.62.89-1.11,1.16-.5.27-1.06.14-1.37-.35-.35-.56-.6-1.17-.61-1.86-.02-.91.17-1.78.5-2.62.51-1.29,1.17-2.5,1.89-3.68.05-.08.11-.16.18-.22.03-.03.1,0,.26-.03l-.38.88ZM271.46,255.72c0,.1,0,.2-.02.29-.17.6-.35,1.2-.54,1.78-.14.41-.15.84-.1,1.26.04.31.13.62.38.82.49.41.75.27,1.02-.09.05-.07.08-.18.14-.26.03-.04.09-.05.17-.08v.27c-.07.6-.28,1.11-.74,1.52-.23.21-.42.24-.68.1-.31-.17-.55-.41-.65-.77-.19-.65-.15-1.31-.04-1.96.06-.36.18-.72.29-1.07.14-.44.3-.88.46-1.32.06-.18.16-.35.31-.5ZM156.98,257.98l-1.95,3.41-3.95-2.34,1.95-3.41,3.95,2.34ZM162.89,256.9l-1.95,3.41-3.95-2.34,1.95-3.41,3.95,2.34ZM197.22,251.95c.13.63.46,1.15.78,1.69.23.39.45.76.68,1.15.18.3.32.63.33.99.02.49.07.98.04,1.45-.06.98-1.04,1.46-1.85.92-.22-.15-.4-.36-.58-.56-.1-.11-.17-.25-.29-.43-.05.11-.1.17-.11.23-.05.29-.06.59-.16.86-.31.87-.92,1.41-1.8,1.66-.48.13-.87-.02-1.2-.37-.41-.43-.66-.96-.68-1.57,0-.51,0-1.01,0-1.52,0-.28,0-.54,0-.82-.02-.22-.15-.27-.36-.14-.05.03-.09.06-.14.09-.04-.03-.08-.05-.09-.08-.12-.44-.03-.88.03-1.33.03-.18.12-.38.35-.41.15-.03.3.15.35.4.05.25.09.5.1.76.04.66.07,1.33.07,1.98,0,.45.17.79.48,1.08.3.28.65.39,1.06.26.66-.2,1.15-.6,1.52-1.18.16-.27.22-.54.09-.84-.22-.5-.42-1.01-.65-1.49-.14-.29-.26-.55-.26-.88,0-.21-.04-.42-.05-.65,0-.13.03-.26.05-.46l.24.3c.24.29.42.58.56.9.25.59.53,1.17.79,1.75.15.33.38.58.67.79.42.3.77.29,1.3-.05-.12-.32-.31-.61-.47-.9-.26-.45-.52-.91-.77-1.37-.2-.37-.29-.76-.26-1.18.02-.37.02-.73.12-1.1.07.05.12.06.13.07ZM248.04,246.35c.21-.3.4-.4.74-.27.3.12.61.25.87.43.76.53,1.46,1.14,1.97,1.94.14.23.28.46.42.69.38.64.35,1.31.14,1.97-.18.61-.52.79-1.13.69-.38-.06-.75-.13-1.13-.19-.04,0-.07,0-.11.02-.04.02-.07.03-.09.07-.45.73-1.07,1.33-1.63,1.96-.28.32-.58.63-.88.92-.81.82-1.72,1.48-2.66,2.13-.92.64-1.86,1.24-2.83,1.79-.64.36-1.31.66-1.96.98-.11.06-.25.14-.37-.05.19-.22.39-.44.65-.61,2.22-1.36,4.28-2.97,6.23-4.71.65-.58,1.28-1.17,1.88-1.81.21-.22.41-.46.61-.69l-.07-.07c-.16-.12-.33-.12-.49-.16-.23-.06-.44-.15-.61-.31-.34-.32-.46-.71-.38-1.17.06-.36.13-.73.23-1.09.11-.38.19-.76.21-1.14.02-.37.14-.73.28-1.07.04-.09.08-.18.14-.26ZM249.98,242.04c-.25.61-.52,1.22-.77,1.82-.08.19-.2.32-.39.4-1.41.57-2.75,1.31-4.12,1.96-1.04.5-2.06,1.05-3.09,1.57-1.73.88-3.47,1.76-5.2,2.65-1.58.81-3.15,1.62-4.71,2.46-1.29.7-2.56,1.43-3.83,2.16-1.37.79-2.73,1.6-4.08,2.41-.32.18-.62.41-.89.65-.32.29-.6.6-.69,1.05-.02.13-.11.24-.16.34-.17,0-.19-.11-.2-.18-.02-.21-.06-.44,0-.63.18-.59.38-1.19.64-1.75.32-.68.83-1.22,1.48-1.59.91-.54,1.83-1.09,2.75-1.6,2.09-1.16,4.18-2.32,6.28-3.46,1.41-.76,2.84-1.46,4.27-2.19,1.48-.75,2.97-1.48,4.44-2.23,1.33-.67,2.64-1.35,3.97-2.03.71-.36,1.42-.69,2.12-1.05.67-.33,1.33-.68,2.01-1.02.06-.04.14-.06.31-.15l-.12.41ZM97.03,253.92c.1.36.25.46.67.68.21.1.42.19.63.3.14.06.27.14.41.21.5.26.73.67.7,1.24-.02.31,0,.63-.02.94,0,.48-.2.86-.54,1.19-.46.45-1.03.67-1.66.74-.49.06-1.02-.31-1.14-.8-.06-.28-.1-.58-.07-.87.04-.46.11-.93.2-1.38.16-.78.35-1.56.54-2.33.02-.08.07-.17.16-.37l.12.47ZM267.14,246.14c.13-.02.14.06.14.14-.07.84-.22,1.66-.53,2.44-.59,1.51-1.4,2.9-2.35,4.21-.35.48-.75.94-1.19,1.35-1.73,1.63-3.68,2.93-5.73,4.09-.34.19-.64.43-.95.64-.05.04-.13.06-.19.09-.03-.03-.05-.06-.08-.09.09-.12.17-.25.28-.35,1.22-1.13,2.42-2.28,3.66-3.38,1.04-.9,2.02-1.85,2.99-2.83.64-.64,1.23-1.33,1.81-2.04.68-.86,1.19-1.82,1.65-2.8.07-.16.1-.33.15-.5.11-.33.15-.68.34-.97ZM209.09,241.36c.1.11.04.18,0,.24-.3.61-.62,1.22-.91,1.83-.11.23-.27.36-.49.45-2.38.99-4.76,1.97-7.14,2.98-2.49,1.05-4.96,2.11-7.4,3.26-1.03.48-2.07.94-3.1,1.4-1.34.59-2.65,1.24-3.95,1.93-1.06.56-2.1,1.15-3.07,1.84-.62.44-1.2.9-1.69,1.49-.24.3-.47.62-.55,1.01-.02.08-.09.16-.16.28-.06-.13-.14-.21-.14-.29,0-.25-.02-.52.05-.75.15-.53.34-1.04.54-1.54.19-.48.52-.87.87-1.23.58-.61,1.23-1.12,1.92-1.58,1.35-.9,2.8-1.62,4.27-2.31.83-.4,1.67-.78,2.52-1.14.26-.11.41-.28.44-.55.03-.23.08-.47.06-.69-.09-1.36-.55-2.54-1.64-3.41-.38-.29-.78-.56-1.17-.85-.08-.06-.15-.12-.24-.19v-.36c-.02-.35-.04-.7.1-1.03.64.17,1.6.87,2.16,1.52.6.7.92,1.51,1.11,2.41.19.89.1,1.78-.02,2.68.21.02.35-.07.5-.14,1.09-.48,2.18-.98,3.28-1.45,2.26-.97,4.53-1.93,6.8-2.88,1.95-.82,3.9-1.64,5.85-2.45.4-.17.81-.32,1.2-.49ZM190.33,256.9c-.21.21-.18.44-.17.65.27.18.54.28.82.3-.13-.39-.35-.68-.64-.96ZM96.68,256c-.09.36-.15.72-.16,1.1,0,.25.15.45.38.54.15.05.34.09.5.06.47-.08.93-.25,1.3-.57.08-.07.14-.18.21-.27-.18-.21-.4-.34-.63-.43-.49-.21-.98-.43-1.4-.77,0,0-.04,0-.1,0l-.11.34ZM314.4,255.66c-.1-.44-.43-.64-.86-.5-.41.13-.68.41-.85.83.37.54.86.98,1.31,1.52l.2-.4c.16-.39.24-.76.24-1.1,0-.11,0-.23-.03-.35ZM188.93,256.31c-.27-.03-.51.16-.68.53-.02.05-.02.11-.03.19l.12.11s.09.06.14.08c.26.12.55.16.84.15.21,0,.31-.14.27-.35-.06-.34-.39-.69-.67-.72ZM49.75,241.64c.15-.09.3-.02.44.04,1.02.38,1.96.89,2.82,1.56.67.52,1.19,1.16,1.62,1.88.52.84.54,1.72.27,2.64-.05.18-.15.36-.26.52-.22.29-.43.33-.8.22-.63-.19-1.25-.36-1.88-.54-.09-.03-.19-.04-.28-.05-.45-.09-.82.04-1.14.39-.51.56-1.03,1.1-1.56,1.64-.25.25-.5.49-.75.73-.73.69-1.46,1.38-2.18,2.09-.33.32-.63.69-.9,1.07-.15.19-.22.45-.3.69-.05.14.01.28.15.35.21.1.41.22.63.28.43.11.86.18,1.32.13,1.02-.1,2.01-.31,2.97-.7.92-.36,1.82-.75,2.65-1.27.39-.25.81-.44,1.21-.68.78-.47,1.47-1.06,2.07-1.75.05-.06.09-.12.12-.17.18.02.19.13.16.22-.03.13-.07.26-.13.39-.44.98-1.09,1.79-1.91,2.45-1.13.91-2.37,1.64-3.7,2.24-.92.41-1.86.74-2.85.89-.86.14-1.73.15-2.55-.21-.24-.1-.47-.26-.68-.42-.26-.2-.39-.49-.35-.82.11-.88.28-1.74.75-2.5.31-.49.65-.97,1.04-1.39.75-.8,1.56-1.56,2.33-2.34.46-.46.92-.94,1.43-1.47l-.32-.26c-.44-.34-.68-.8-.63-1.36.06-.76.24-1.5.47-2.22.06-.18.15-.36.26-.52.21-.28.28-.59.29-.93,0-.27.03-.54.15-.8ZM207.61,247.45c.59-.08,1.1.29,1.26.88.13.47.16.95.07,1.42-.14.08-.21.02-.28-.05-.83-.74-1.9-.47-2.25.58-.21.62-.24,1.26-.17,1.91.06.6.16,1.2.2,1.8.05.54.08,1.09.07,1.63,0,.39-.1.77-.17,1.15,0,.06-.09.17-.13.16-.08,0-.19-.06-.23-.12-.14-.28-.27-.56-.39-.85-.51-1.19-1.33-2.14-2.29-2.97-.26-.22-.55-.42-.92-.54-.06.18-.11.35-.17.54-.75.09-1.46.05-2.06-.49-.2-.18-.33-.38-.36-.65-.05-.46-.13-.92,0-1.4l.19-.07c.39-.13.76-.1,1.12-.02.97.2,1.8.68,2.52,1.36.43.41.83.87,1.21,1.33.36.41.6.9.83,1.4.05.11.13.21.2.33.16-.12.15-.26.14-.39-.06-.58-.15-1.16-.2-1.74-.11-1.05-.14-2.1.02-3.15.04-.27.1-.53.19-.79.26-.76.83-1.14,1.6-1.25ZM212.69,248.54c-.03.15-.06.3-.11.45-.25.84-.52,1.68-.78,2.5-.24.77-.17,1.54.09,2.29.14.41.44.68.83.85.32.13.6.1.84-.16.18-.18.33-.38.4-.63.03-.1.09-.22.27-.16.02.46-.1.91-.23,1.36-.16.56-.54.98-.94,1.37-.28.27-.6.26-.91.09-.51-.28-.87-.66-1.03-1.26-.24-.93-.2-1.86-.02-2.78.11-.55.27-1.1.45-1.63.27-.81.58-1.61.88-2.41.04-.13.06-.31.29-.36l-.06.49ZM151.8,241.53c.39-.11.67,0,.91.31.19.28.3.58.36.91.14.74.16,1.47-.05,2.2-.09.31-.06.55.16.8.38.41.51.9.46,1.46-.03.3,0,.63-.18.97l-.14-.09c-.3-.26-.44-.64-.73-.86-.15,0-.17.14-.22.23-.15.27-.3.54-.44.82-.45.91-1.07,1.71-1.69,2.51-.35.46-.75.89-1.13,1.33-.44.52-.99.93-1.53,1.32-.75.53-1.52,1.06-2.3,1.54-.74.45-1.52.84-2.28,1.25-.09.05-.2.12-.3.02,0-.18.14-.24.23-.32.58-.48,1.16-.96,1.76-1.41,1.44-1.1,2.82-2.28,4.14-3.55,1.17-1.13,2.18-2.41,2.97-3.85.06-.12.13-.24.18-.37.02-.04,0-.07.02-.15-.22-.24-.48-.46-.79-.63-.22-.12-.44-.25-.63-.4-.4-.3-.61-.71-.5-1.22.11-.52.2-1.04.39-1.52.25-.61.64-1.11,1.32-1.29ZM158.47,252.8l-1.95,3.41-3.95-2.34,1.95-3.41,3.95,2.34ZM128.28,241.55c.68-.09,1.3.07,1.82.54.12.1.24.22.23.39,0,.44.04.9-.21,1.3-.2.06-.29-.09-.41-.18-.38-.3-.81-.43-1.29-.43-.5,0-.8.21-.93.7-.08.31-.13.65-.14.98-.03.76,0,1.52-.05,2.28-.05.86-.14,1.71-.52,2.5-.04.06-.05.15-.06.22-.24,1.43-.85,2.65-1.9,3.66-.5.48-1.1.8-1.71,1.06-1.06.45-2.14.87-3.21,1.29-.15.06-.33.07-.49.11-.08-.2.07-.22.15-.28.79-.49,1.59-.96,2.37-1.45.82-.52,1.63-1.02,2.42-1.57.92-.64,1.64-1.47,2.08-2.52.05-.11.1-.21.14-.31-.11-.33-.22-.66-.32-1-.42-1.39-1.25-2.49-2.3-3.45-.08-.07-.18-.14-.3-.22l-.14.14c-.17.1-.35.13-.52.06-.34-.12-.67-.29-.97-.52-.33-.26-.5-.58-.42-1.01.05-.29.05-.58.1-.88.03-.18.14-.26.33-.26.25,0,.49.05.72.18,1.54.84,2.67,2.08,3.47,3.64.13.26.2.54.31.82.05.14.12.28.2.48.07-.13.13-.18.13-.25.02-.25.04-.51.04-.75,0-.8-.03-1.6.08-2.4.08-.6.2-1.19.3-1.79.06-.34.24-.62.49-.84.15-.13.32-.22.51-.25ZM78.66,248.15c.12.01.14.07.14.13l-.08.66c-.03.2-.06.41-.09.61-.17.89-.37,1.79-.55,2.68-.13.63.11,1.14.5,1.6.05.06.11.11.18.15.54.3.77.15.92-.34.04-.13.04-.27.07-.4.02-.06.07-.13.1-.19l.04.02c.12.09.12.21.1.33-.05.46-.11.93-.19,1.39-.05.29-.17.55-.38.76-.15.16-.32.2-.52.16-.31-.07-.55-.26-.74-.52-.27-.37-.44-.78-.51-1.22-.07-.4-.1-.8-.05-1.22.08-.62.18-1.23.34-1.83.19-.76.35-1.51.54-2.27.05-.17.05-.38.17-.51ZM165.33,248.24c.06.11-.04.22-.08.31-.15.33-.34.65-.5.99-.15.31-.3.64-.42.96-.2.56-.16,1.11.13,1.64.25.47.62.54,1.03.2.1-.08.19-.18.28-.27.04.04.05.05.05.06-.05.61-.26,1.12-.73,1.52-.45.39-.91.3-1.2-.22-.24-.45-.36-.94-.3-1.46.05-.45.15-.89.32-1.3.33-.81.74-1.58,1.19-2.33.04-.06.06-.15.17-.15l.05.05ZM272.3,242.44c.53-1,1.58-1.13,2.27-.89.25.09.49.22.72.36.19.12.3.31.27.54-.08.69-.18,1.39-.26,2.05-.18.1-.25,0-.32-.1-.45-.54-1.11-.74-1.76-.52-.49.17-.83.49-.94,1.01-.08.4-.14.8-.19,1.21-.05.58-.08,1.16-.12,1.75-.08,1.26-.15,2.53-.57,3.74-.07.22-.17.43-.28.63-.07.15-.29.16-.39.03-.07-.08-.13-.19-.15-.3-.07-.24-.12-.49-.17-.74-.28-1.21-.78-2.32-1.37-3.39-.44-.81-1.1-1.45-1.85-1.97-.07-.06-.16-.07-.25-.11-.22.26-.05.6-.25.87-.07,0-.17,0-.25-.03-.37-.16-.75-.3-1.1-.5-.48-.26-.71-.69-.72-1.24,0-.63.05-1.24.21-1.85.04-.15.11-.28.17-.43.52.06.96.21,1.4.4.69.3,1.3.75,1.85,1.26.77.71,1.32,1.57,1.72,2.52.34.8.7,1.6.87,2.47.03.11.07.22.14.39l.14-.21c.12-.21.17-.41.18-.61.06-.76.13-1.51.18-2.28.07-.96.19-1.9.38-2.84.09-.44.25-.86.45-1.25ZM94.72,246.35c.54-.23.79-.17,1.24.31-.08.43-.22.88-.39,1.31-.8-.44-1.2-.37-1.79.32.07.07.13.19.22.23.97.51,1.93.61,2.9-.04.29-.19.57-.39.86-.58.11-.07.23-.13.41-.22-.04.17-.04.28-.08.39-.11.33-.15.71-.36.98-.2.27-.55.41-.84.6-1.16.76-2.32,1.53-3.48,2.29-.06.04-.13.06-.25.12l.05-.29c.05-.29.14-.55.23-.81.04-.1.14-.18.23-.25.15-.12.3-.24.44-.35-.02-.17-.16-.18-.25-.23-.18-.11-.37-.2-.54-.32-.18-.13-.26-.33-.25-.56.06-1.09.53-1.98,1.33-2.7.1-.09.23-.14.35-.19ZM311.38,245.58c.14,0,.14.1.13.17-.04.21-.1.41-.16.62-.14.44-.3.88-.44,1.33-.13.4-.08.8.05,1.21.07.23.21.42.38.57.4.35.9.27,1.18-.19.1-.16.17-.33.25-.49l.04.27c.07.64-.12,1.21-.43,1.76-.26.47-.82.55-1.23.25-.3-.23-.52-.52-.62-.89-.12-.43-.21-.88-.16-1.33.1-.97.31-1.92.72-2.81.08-.17.15-.35.3-.46ZM250.62,249.24c-.04.11-.09.21-.12.32-.04.13-.06.27-.06.4,0,.08.05.21.11.25.31.18.63.36,1.06.38l-.1-.24c-.27-.57-.58-.96-.89-1.1ZM229.57,241.65c.73,0,1.46.02,2.18.17.23.05.45.1.66.17.46.17.62.46.52.96-.09.46-.26.89-.49,1.31-.44.78-.84,1.58-1.33,2.32-.44.66-.94,1.28-1.45,1.89-.21.25-.49.42-.81.53-1.44.48-2.89.93-4.37,1.29-.12.03-.25.03-.43.05.04-.12.05-.21.1-.25.13-.11.27-.21.42-.31,1.73-1.23,3.48-2.44,5.21-3.67.29-.21.59-.42.92-.78-.3-.06-.49-.1-.68-.12-1.03-.1-2.07-.12-3.1-.05-.64.05-1.26.07-1.9.13-.31.03-.61.09-.91.14-.43.06-.73.3-.93.7-.07.15-.1.35-.34.4-.04-.07-.11-.16-.11-.24,0-.13,0-.28.04-.4.29-1.05.66-2.07,1.25-3,.17-.27.37-.49.62-.68.21-.16.42-.28.67-.31.38-.06.75-.14,1.13-.16,1.03-.05,2.07-.07,3.1-.07ZM249.22,248.62c-.28-.22-.62-.22-.9,0-.27.2-.44.47-.44.82.45.39.88.5,1.73.44l.06-.07c.13-.14.14-.31.06-.5-.11-.28-.27-.51-.5-.69ZM184.83,241.8s.06.05.06.08c0,.29-.11.53-.24.77-.26.52-.55,1.03-.79,1.56-.24.55-.45,1.11-.64,1.69-.22.69.16,1.35.64,1.69.02,0,.03.02.05.04.48.3.81.23,1.12-.26.08-.12.16-.25.24-.4l.11.08s.04.05.04.07c.04.64-.08,1.24-.47,1.77-.13.17-.3.3-.46.43-.35.29-.71.23-1.05-.03-.44-.34-.75-.77-.87-1.34-.12-.54-.1-1.09.03-1.62.39-1.58,1.06-3.05,1.98-4.39.05-.06.1-.11.16-.16.03-.02.07,0,.11,0ZM145.39,241.66c.15.18.14.35.08.53-.15.52-.31,1.04-.47,1.56-.13.39-.28.76-.39,1.16-.07.26-.12.53-.13.8-.03.65.22,1.18.66,1.61.45.44,1.07.36,1.42-.18.07-.11.15-.22.24-.32,0,0,.04,0,.1-.02l.04.08c.04.2-.06.37-.14.54-.11.27-.24.53-.35.8-.11.26-.25.48-.47.66-.45.36-.9.39-1.38.06-.4-.27-.64-.66-.8-1.12-.19-.55-.16-1.12-.05-1.67.13-.66.32-1.32.62-1.93.25-.53.45-1.07.58-1.64.05-.24.16-.48.25-.71.04-.07.12-.14.19-.21ZM161.58,241.85c.06.1.14.16.14.21.05.66.32,1.23.66,1.79.1.17.19.34.27.51.16.34.26.69.24,1.07-.04.41-.03.82-.1,1.22-.14.72-.64,1-1.33.82-.38-.1-.71-.3-.94-.63-.08-.11-.14-.22-.24-.37-.07.21-.13.39-.19.56-.2.52-.52.95-.95,1.29-.81.64-2.01.11-2.25-.76-.08-.29-.13-.61-.14-.92-.02-.37,0-.74.02-1.11,0-.17.03-.35-.14-.49-.05-.05-.06-.14-.08-.21-.06-.35.05-.87.28-1.31.2.03.29.17.29.35,0,.35,0,.7,0,1.05,0,.31-.03.63,0,.93.06.79.73,1.34,1.51,1.24.04,0,.08,0,.12-.02.52-.18.85-.58,1.13-1.03.22-.36.22-.75.1-1.12-.1-.29-.19-.6-.35-.87-.16-.29-.2-.57-.17-.89.02-.27.06-.53.16-.76.17-.02.19.09.23.18.31.7.49,1.44.63,2.18.05.29.17.55.34.79.2.26.46.4.78.45.28.04.57.09.85-.19l-.4-.7c-.12-.23-.25-.46-.36-.7-.14-.29-.25-.61-.33-.93-.13-.54-.07-1.07.24-1.62ZM118.28,241.61c.09.21.05.38,0,.54-.1.38-.21.75-.31,1.12-.13.47-.26.93-.39,1.4-.16.62,0,1.2.3,1.73.05.08.11.17.18.22.41.32.78.18,1.08-.22.05-.07.07-.17.12-.27.03-.06.07-.12.15-.26.04.11.05.13.05.15-.04.64-.23,1.25-.53,1.82-.05.1-.14.19-.23.27-.43.37-.93.31-1.23-.16-.25-.4-.43-.83-.45-1.31-.04-.66.02-1.32.17-1.97.23-.99.57-1.94.93-2.88.03-.06.08-.11.15-.19ZM98.32,241.58c-.08.22-.13.36-.2.49-.49.95-.2.68-1.13,1.12-2.24,1.06-4.49,2.1-6.74,3.17-.68.32-1.33.68-2.01,1.03-.12.06-.24.11-.35.17-.03-.03-.04-.06-.07-.09l.31-.52c.1-.18.21-.35.32-.52.1-.16.26-.29.43-.38.44-.25.87-.49,1.33-.7,2.58-1.21,5.16-2.41,7.74-3.62.1-.05.2-.07.38-.15ZM281.17,241.55c-.02.19,0,.3-.04.39-.16.55-.35,1.11-.52,1.67-.13.41-.08.81.04,1.21.05.2.16.4.29.56.31.42.74.33,1.02.11.15-.12.26-.28.39-.41.04.02.06.04.1.05-.17.59-.25,1.21-.73,1.67-.11.1-.23.22-.36.28-.37.17-.68.11-.93-.18-.38-.44-.49-.97-.5-1.52,0-.36.05-.75.16-1.09.28-.85.61-1.68.93-2.52.02-.05.06-.09.15-.22ZM52.25,245.48c-.05.3-.11.61-.17.93.18.06.34.12.5.17.45.15.92.29,1.37.44.15.05.33.11.47-.02-.13-.49-.53-1.16-1-1.62-.31-.3-.6-.64-1.06-.8-.04.33-.06.62-.11.9ZM258.79,244c-.5,0-.93.19-1.23.62-.03.05-.02.11-.04.18l.09.12c.25.3.56.52.86.77.33.28.6.63,1.01.85.17-.28.18-.55.21-.81.04-.43-.05-.86-.25-1.24-.14-.27-.36-.48-.66-.49ZM50.11,244.76c-.11.02-.22.05-.33.09-.17.06-.33.19-.46.31-.17.17-.15.32,0,.51.17.21.4.36.66.43.82.23.79.26,1.22-.49.21-.38.1-.67-.29-.82-.14-.06-.29-.07-.45-.11l-.35.07ZM152.3,243.41c-.17-.26-.4-.33-.7-.22-.22.08-.41.21-.54.42-.14.23-.13.4.1.53.42.26.85.51,1.29.77.1-.21.13-.43.09-.67-.05-.29-.08-.58-.25-.83Z"/>
  <path class="st2" d="M362.84,315.11c.25.16.53.3.78.46-.21-.18-.43-.36-.65-.53-.04.03-.1.06-.14.08h0Z"/>
  <path class="st2" d="M375.1,297.49c.76-.72,1.47-1.5,2.2-2.26.41-.42.54-.88.4-1.5-.35-1.53-1.09-2.85-2.03-4.05-1.24-1.6-2.77-2.89-4.41-4.05-1.51-1.06-3.06-2.03-4.75-2.76-.05-.03-.1-.06-.2-.13-.06-.69-.13-1.42-.19-2.15-.2-2.15-.41-4.3-.61-6.46-.02-.2-.06-.45.18-.53.14-.05.36-.02.5.06,1.51.84,3.03,1.67,4.52,2.56.7.42,1.44.63,2.22.66,2.45.12,4.47-.86,6.19-2.59.76-.77,1.4-1.61,1.76-2.65.52-1.47.65-2.98.45-4.51-.19-1.49-.46-2.97-.63-4.46-.1-.95,0-1.9.29-2.83.26-.83,1.46-1.3,2.17-.88,1.02.6,1.91,1.34,2.68,2.24,1.51,1.79,2.75,3.75,3.84,5.82.64,1.21,1.23,2.43,1.79,3.67.42.92.72,1.9,1.15,2.82.92,2,1.55,4.1,2.31,6.15.52,1.41.93,2.86,1.43,4.28.71,1.97,1.46,3.92,2.44,5.78.46.88,1.15,1.57,1.91,2.16,1.62,1.26,3.47,1.67,5.45,1.22.71-.16,1.42-.48,2.03-.88,1.52-.96,2.73-2.26,3.79-3.71.05-.07.09-.18.14-.29-.46-.43-.9-.88-1.37-1.28-.95-.81-1.66-1.82-2.36-2.85-.6-.88-1.16-1.81-1.65-2.76-.34-.66-.54-1.4-.77-2.11-.54-1.7-.8-3.44-.9-5.21-.06-1.03-.13-2.06-.08-3.1.06-1.46.28-2.91.63-4.34.43-1.78.92-3.55,1.67-5.21.79-1.74,1.69-3.42,2.82-4.96.44-.6.95-1.15,1.6-1.57.95-.62,1.62-.58,2.41.26.76.81,1.46,1.68,2.21,2.5,2.13,2.34,4.76,3.74,7.84,4.31,1.19.22,2.34.09,3.51-.2.92-.23,1.81-.5,2.64-.98.99-.58,1.81-1.35,2.56-2.2,1.14-1.3,2.1-2.73,2.69-4.38.1-.29.19-.58.25-.88.12-.51.06-1-.15-1.48-.71-1.6-1.61-3.1-2.58-4.55-1.5-2.25-3.15-4.38-4.91-6.41-1.42-1.64-2.87-3.24-4.35-4.82-2.11-2.24-4.26-4.45-6.42-6.63-1.79-1.82-3.65-3.56-5.44-5.38-1.28-1.3-2.51-2.64-3.72-3.99-1.59-1.76-3.14-3.54-4.7-5.32-2.71-3.09-5.32-6.27-7.52-9.75-2.7-4.28-4.97-8.77-6.11-13.77-33.22,3.45-59.14,31.93-59.14,66.57,0,21.23,9.75,40.14,24.94,52.4,3.34-1.71,6.64-3.53,9.83-5.54,3.35-2.11,6.6-4.36,9.51-7.09h0ZM351.03,267.87c-1.1-.29-2.21-.55-3.23-1.13-.47-.27-.99-.45-1.44-.75-2-1.27-3.7-2.85-4.76-5.05-.4-.83-.75-1.66-.89-2.58-.05-.38-.2-.75-.29-1.11-.38-1.57-.3-3.14-.13-4.73.14-1.22.29-2.42.57-3.6.42-1.74.88-3.46,1.56-5.12.82-1.98,1.78-3.87,2.94-5.66,1.12-1.74,2.44-3.34,4.16-4.52.84-.58,1.66-1.2,2.65-1.54,2.99-1.02,6.03-.16,7.77,2.65.9,1.44,1.32,3.06,1.55,4.72.44,3.05.31,6.1-.08,9.14-.36,2.81-.93,5.58-1.61,8.33-.05.19-.11.39-.18.65-.59.11-1.14.21-1.78.33.09-.34.16-.56.23-.79,1.2-4.28,1.84-8.64,1.59-13.1-.06-1.13-.16-2.3-.5-3.37-.6-1.92-1.7-3.47-3.78-3.99-1.12-.28-2.21-.18-3.29.23-1.39.53-2.51,1.4-3.52,2.48-1.63,1.74-2.82,3.74-3.6,6-.4,1.15-.81,2.3-1.12,3.48-.35,1.32-.3,2.64.17,3.96.34.92.84,1.7,1.57,2.34,1.33,1.16,2.75,2.2,4.42,2.79,1.84.64,3.75.86,5.7.74,3.98-.25,7.74-1.37,11.33-3.11,1.76-.85,3.39-1.94,4.98-3.1,2-1.45,3.88-3.01,5.74-4.63,1.33-1.16,2.61-2.4,3.91-3.61,1.58-1.48,2.98-3.12,4.28-4.86.39-.52.72-1.07,1.12-1.69-.27-.1-.44-.18-.63-.24-1.1-.31-2.19-.14-3.26.16-1,.28-2.01.57-2.99.9-.94.32-1.86.74-2.81,1.05-1.62.53-3.23,1.09-4.92,1.35-1.39.22-2.79.29-4.18.04-1.3-.24-2.42-.88-3.42-1.7-.96-.78-1.56-1.81-1.84-3.06-.23-1-.45-1.98-.57-2.99-.06-.48-.1-.97-.09-1.46.02-1.48-.02-2.98.11-4.45.17-2.03.69-3.99,1.24-5.95.88-3.13,2.15-6.08,3.62-8.96.55-1.08,1.22-2.11,1.91-3.1,1-1.39,2.05-2.76,3.16-4.07.84-1,1.78-1.94,2.94-2.58.54-.29,1.12-.56,1.72-.68.86-.18,1.73-.06,2.47.46.43.29.84.64,1.17,1.03.2.24.34.63.34.95-.02,2.77-.08,5.55-.14,8.32,0,.19-.06.41-.14.59-.13.29-.35.34-.58.15-.2-.17-.35-.39-.51-.59-.2-.26-.35-.54-.56-.79-.46-.55-1.07-.69-1.74-.53-1.22.29-2.27.86-3.19,1.74-1.05,1.01-1.91,2.17-2.85,3.29-1.74,2.08-3.01,4.45-4.17,6.89-.82,1.72-1.25,3.56-1.69,5.39-.06.28-.14.55-.2.83-.14.7-.05.9.56,1.22.64.32,1.31.51,2.02.57,2.43.21,4.78-.23,7.1-.92,1.13-.34,2.28-.64,3.39-1.04,1.75-.64,3.54-1.16,5.36-1.58,1.38-.32,2.76-.29,4.07.24,1.44.58,2.42,1.65,2.8,3.21.28,1.15.37,2.3.29,3.5-.08,1.18-.18,2.35-.41,3.51-.36,1.91-.95,3.75-1.88,5.45-.73,1.34-1.5,2.65-2.37,3.9-.94,1.34-2.01,2.58-3.07,3.83-.8.94-1.62,1.85-2.5,2.73-1.06,1.05-2.18,2.05-3.27,3.07-1.66,1.57-3.48,2.94-5.24,4.38-1.91,1.55-4.06,2.7-6.26,3.74-2.71,1.28-5.52,2.23-8.5,2.64-2.12.29-4.25.36-6.35-.18v-.04Z"/>
  <path class="st2" d="M411.23,193.44c.28.43.54.87.84,1.27,1.12,1.57,2.35,3.04,3.67,4.44.92.97,1.8,1.98,2.73,2.93,2.09,2.12,4.22,4.19,6.29,6.32,1.69,1.74,3.32,3.54,4.96,5.33,1.39,1.52,2.74,3.09,4.11,4.62,1.78,1.99,3.39,4.12,5,6.26,1.85,2.46,3.6,5,5.19,7.64,1.21,2,2.32,4.04,3.4,6.12,2.2,4.23,4.01,8.61,5.29,13.22,1.02,3.64,1.73,7.33,2,11.1.29,3.93.29,7.87.09,11.8-.27,5.33-.97,10.59-2.41,15.73-.31,1.1-.68,2.17-1.04,3.25-.37,1.11-.72,2.25-1.15,3.34,0,.03-.03.06-.04.08,7.86-11.02,12.5-24.55,12.5-39.19,0-31.6-21.59-58.07-50.61-65.09-.12.14-.25.29-.39.41-.14.12-.26.24-.45.41h0Z"/>
  <path class="st2" d="M395.03,192.32c.83.53,1.68,1.03,2.57,1.46,1.48.7,2.9,1.48,4.18,2.52.63.51,1.19,1.11,1.67,1.75.83,1.11,1.41,2.37,1.62,3.77.24,1.49-.12,2.78-1.16,3.88-.11.11-.21.24-.34.41.42.59.8,1.18,1.23,1.74,1.81,2.34,3.66,4.64,5.76,6.72,1.41,1.39,2.83,2.75,4.25,4.14.77.75,1.52,1.5,2.29,2.26,1.86,1.83,3.73,3.65,5.56,5.5.95.96,1.83,1.99,2.75,2.99.62.67,1.25,1.32,1.84,2.02.79.92,1.52,1.89,2.31,2.82,1.87,2.27,3.54,4.68,5.16,7.13.89,1.35,1.65,2.77,2.33,4.26.7,1.55,1.3,3.11,1.68,4.76.97,4.25.78,8.41-.9,12.47-1.09,2.64-2.67,4.87-5.04,6.49-1.56,1.07-3.27,1.76-5.16,1.85-1.19.06-2.36-.16-3.49-.49-2-.58-3.78-1.61-5.28-3.06-1.13-1.09-2.16-2.29-3.23-3.44-.67-.72-1.13-.78-1.92-.18-.78.61-1.47,1.32-2.03,2.15-1.41,2.1-2.28,4.43-2.83,6.88-.35,1.56-.4,3.14-.18,4.74.06.46.27.86.6,1.17,1.04,1.02,2.2,1.91,3.49,2.58.85.44,1.72.87,2.61,1.32.46-.66.91-1.34,1.38-1.98,1.21-1.64,2.56-3.11,4.17-4.37,1.89-1.48,4.04-2.28,6.35-2.75,1.71-.35,3.39-.29,5.07.05,1,.19,1.88.64,2.7,1.26,1.17.9,2.13,2.01,2.83,3.28.85,1.55,1.48,3.22,1.67,4.99.14,1.27.22,2.56.21,3.83,0,1.58-.29,3.12-.94,4.58-.92,2.04-2.46,3.32-4.57,3.94-1.12.33-2.27.43-3.43.52-2.7.18-5.25-.43-7.77-1.29-2.06-.7-3.94-1.72-5.69-3-.08-.06-.16-.11-.27-.18-.45.32-.7.78-.94,1.24-1.02,1.93-2.16,3.77-3.42,5.54-.99,1.39-2.25,2.49-3.78,3.26-3.31,1.7-7.26.79-9.74-1.55-1.27-1.2-2.25-2.62-2.96-4.21-.5-1.13-.93-2.3-1.32-3.47-1.23-3.69-2.37-7.41-3.64-11.07-1.07-3.08-2.41-6.04-4.11-8.82-.74-1.21-1.44-2.46-2.52-3.41-.32-.28-.6-.6-1.02-.75-.25.35-.14.72-.12,1.08.06,1.49.53,2.91.73,4.39.12.85.27,1.7.28,2.54,0,2.03-.35,3.97-1.54,5.67-.79,1.11-1.78,1.97-2.98,2.6-.32.17-.64.34-1.01.53.05.2.1.4.16.58.92,2.79,1.33,5.67,1.19,8.61-.22,4.36-1.71,8.15-4.8,11.29-2.25,2.27-4.75,4.21-7.41,5.94-1.3.85-2.62,1.67-3.93,2.5-.12.07-.23.16-.41.28.27.15.49.28.72.4,3.97,2.07,8.16,3.63,12.44,4.89,3.36.99,6.77,1.69,10.23,2.18.77.11,1.56.13,2.34.18,1.78.11,3.56.27,5.34.31,1.7.05,3.4-.03,5.11-.06.54,0,1.08-.03,1.62-.06,1.46-.07,2.92-.13,4.38-.26,1.23-.12,2.46-.31,3.69-.53,1.54-.26,3.08-.53,4.6-.87.92-.2,1.82-.51,2.7-.84,2.62-.96,5.18-2.08,7.7-3.31,1.96-.96,3.81-2.07,5.6-3.33,1.65-1.16,3.18-2.47,4.66-3.84,2.16-2.02,4.16-4.19,5.86-6.62.9-1.27,1.76-2.58,2.58-3.91.95-1.53,1.91-3.07,2.75-4.66,1.38-2.64,2.57-5.38,3.39-8.27.34-1.19.74-2.37,1.01-3.57.43-1.92.94-3.82,1.07-5.8.09-1.3.34-2.58.44-3.87.15-1.84.25-3.7.11-5.56-.45-5.71-1.83-11.2-3.89-16.53-.77-2-1.77-3.88-2.8-5.76-1.95-3.59-4.07-7.09-6.39-10.44-2.02-2.89-4.19-5.66-6.51-8.31-1.52-1.75-3.08-3.49-4.66-5.19-2.98-3.17-5.98-6.32-8.99-9.46-2.27-2.37-4.45-4.81-6.53-7.35-2.31-2.82-4.49-5.74-6.53-8.77-.94-1.4-1.81-2.83-2.62-4.29-2.12-.21-4.28-.32-6.46-.32-1.14,0-2.29.03-3.42.09.5.53,1.05,1.02,1.69,1.44l-.02.04Z"/>
  <path class="st2" d="M431.5,286.71c1.34-.24,2.58-.7,3.68-1.63-.08-.14-.13-.23-.19-.3-.12-.14-.25-.26-.39-.39-1.02-1-2.3-1.29-3.64-1.33-1.67-.05-3.31.25-4.91.74-1.19.36-2.32.88-3.38,1.58-.19.13-.36.28-.63.48,1.26.42,2.4.78,3.59.95,1.95.28,3.91.26,5.86-.09Z"/>
  <path class="st2" d="M391.6,188.11c-.33-.89-.63-1.81-.94-2.7-.13-.36-.27-.72-.42-1.08-.04-.09-.1-.18-.14-.27-.14-.25-.35-.35-.61-.28-.26.07-.4.28-.39.55.04.64.1,1.3.14,1.94.09,1.57.33,3.11.67,4.65.02.07.04.15.05.22,1.12-.12,2.23-.2,3.37-.26-.74-.79-1.34-1.7-1.73-2.77v-.02Z"/>
  <path class="st2" d="M413.02,190.57c.15-.95.05-1.87-.22-2.77-.76-2.64-2.49-4.48-4.77-5.84-1.56-.93-3.13-1.84-4.55-2.98-.6-.48-1.18-1-1.65-1.59-1-1.26-1.75-2.68-2.13-4.28-.13-.53-.21-1.08-.35-1.6-.08-.3-.22-.62-.41-.87-.31-.41-.65-.4-.9.06-.15.28-.23.61-.24.92-.12,3.12.36,6.17,1.15,9.19.97,3.65,2.45,7.06,4.26,10.3,3.01.29,5.97.81,8.85,1.51.5-.58.83-1.25.95-2.05h0Z"/>
  <path class="st2" d="M348.43,313.7c-9.55,4.43-19.22,8.58-29.04,12.35-2.21.85-4.45,1.65-6.67,2.48-.18.07-.39.14-.53.27-.1.09-.16.29-.14.42,0,.09.2.19.33.21.24.03.48.02.72-.02,1.05-.15,2.11-.31,3.16-.47,3.33-.51,6.67-.99,10-1.51,4.72-.75,9.43-1.53,14.15-2.3.89-.15,1.8-.28,2.64-.59,5.71-2.16,11.25-4.7,16.61-7.64,1.08-.59,2.16-1.2,3.21-1.79-2.47-1.51-4.83-3.18-7.07-4.99-2.42,1.24-4.87,2.44-7.35,3.59h0Z"/>
  <path class="st2" d="M396.76,324.63c-12.08,0-23.39-3.32-33.13-9.08.46.39.92.76,1.38,1.13,2.7,2.08,5.63,3.78,8.68,5.25,3.47,1.68,7.06,3.02,10.73,4.17,3.29,1.03,6.61,1.89,9.99,2.52,2.47.46,4.96.72,7.47.88,3.51.21,7.02.19,10.53-.18,3.09-.33,6.1-.99,9.04-1.99,6.13-2.07,11.39-5.53,15.9-10.18,3.23-3.33,5.96-7.05,8.34-11.05,1.76-2.95,3.23-6.03,4.48-9.22-11.98,16.8-31.44,27.73-53.42,27.73h.02Z"/>
  <path class="st1" d="M450.18,296.9s.03-.06.04-.08c.43-1.1.78-2.22,1.15-3.34.36-1.08.74-2.16,1.04-3.25,1.43-5.14,2.14-10.4,2.41-15.73.2-3.93.2-7.87-.09-11.8-.27-3.78-.99-7.46-2-11.1-1.28-4.61-3.1-9-5.29-13.22-1.08-2.07-2.2-4.12-3.4-6.12-1.6-2.64-3.34-5.18-5.19-7.64-1.61-2.14-3.21-4.27-5-6.26-1.37-1.54-2.72-3.1-4.11-4.62-1.63-1.8-3.28-3.59-4.97-5.33-2.07-2.14-4.2-4.2-6.29-6.32-.94-.95-1.81-1.95-2.73-2.93-1.33-1.4-2.55-2.87-3.67-4.44-.29-.41-.54-.83-.83-1.27.18-.17.32-.29.45-.41.14-.13.26-.28.39-.41-2.89-.7-5.84-1.22-8.85-1.51.82,1.46,1.69,2.89,2.62,4.29,2.03,3.03,4.21,5.95,6.53,8.77,2.08,2.54,4.26,4.98,6.53,7.35,3,3.14,6.02,6.29,8.98,9.46,1.59,1.7,3.14,3.43,4.67,5.19,2.31,2.65,4.5,5.42,6.51,8.31,2.33,3.35,4.44,6.85,6.39,10.44,1.02,1.87,2.02,3.76,2.79,5.76,2.06,5.33,3.44,10.82,3.89,16.53.14,1.85.04,3.7-.11,5.56-.11,1.3-.36,2.58-.45,3.87-.14,1.98-.63,3.89-1.07,5.8-.27,1.21-.66,2.39-1.01,3.57-.82,2.88-2.01,5.63-3.39,8.27-.84,1.59-1.8,3.13-2.75,4.66-.83,1.33-1.68,2.64-2.58,3.91-1.72,2.42-3.7,4.6-5.86,6.62-1.48,1.37-3.01,2.69-4.67,3.84-1.79,1.25-3.64,2.37-5.6,3.33-2.51,1.23-5.07,2.35-7.7,3.31-.89.32-1.79.63-2.7.84-1.53.34-3.07.61-4.6.87-1.23.2-2.45.41-3.68.53-1.45.14-2.92.18-4.38.26-.54.03-1.08.05-1.62.06-1.71.03-3.4.1-5.11.06-1.78-.05-3.56-.19-5.34-.31-.78-.05-1.56-.06-2.34-.18-3.46-.5-6.87-1.2-10.23-2.18-4.29-1.26-8.47-2.82-12.44-4.89-.23-.12-.44-.25-.72-.4.18-.12.29-.2.41-.28,1.31-.84,2.63-1.65,3.93-2.5,2.66-1.73,5.16-3.68,7.41-5.94,3.09-3.12,4.58-6.92,4.8-11.29.15-2.95-.26-5.81-1.19-8.61-.06-.18-.11-.38-.16-.58.37-.19.69-.37,1.01-.53,1.2-.63,2.2-1.49,2.98-2.6,1.2-1.7,1.56-3.64,1.54-5.67,0-.85-.16-1.7-.28-2.54-.2-1.46-.67-2.89-.73-4.39-.02-.35-.13-.72.12-1.08.42.15.7.47,1.02.75,1.08.95,1.78,2.2,2.52,3.41,1.7,2.77,3.04,5.74,4.11,8.82,1.28,3.67,2.41,7.39,3.64,11.07.39,1.18.82,2.35,1.32,3.47.71,1.59,1.69,3.01,2.96,4.21,2.48,2.34,6.43,3.24,9.74,1.55,1.52-.77,2.78-1.87,3.78-3.26,1.26-1.77,2.41-3.61,3.42-5.54.24-.46.5-.92.94-1.24.1.06.19.12.27.18,1.75,1.28,3.63,2.3,5.69,3,2.52.86,5.07,1.47,7.77,1.29,1.16-.08,2.31-.18,3.43-.52,2.11-.63,3.66-1.9,4.57-3.94.65-1.46.93-2.99.94-4.58,0-1.28-.07-2.56-.21-3.83-.19-1.78-.82-3.45-1.67-4.99-.7-1.28-1.66-2.38-2.83-3.28-.82-.63-1.7-1.07-2.7-1.26-1.69-.33-3.37-.4-5.07-.05-2.31.47-4.46,1.26-6.35,2.75-1.61,1.26-2.96,2.74-4.17,4.37-.48.64-.93,1.33-1.38,1.98-.89-.45-1.76-.87-2.61-1.32-1.3-.67-2.44-1.56-3.49-2.58-.33-.31-.54-.7-.6-1.17-.22-1.58-.17-3.18.18-4.74.55-2.45,1.43-4.79,2.83-6.88.55-.83,1.25-1.54,2.03-2.15.79-.61,1.25-.55,1.92.18,1.07,1.15,2.1,2.35,3.23,3.44,1.51,1.45,3.28,2.47,5.28,3.06,1.14.33,2.31.55,3.5.49,1.89-.1,3.59-.78,5.16-1.85,2.37-1.61,3.95-3.85,5.04-6.49,1.68-4.05,1.86-8.22.9-12.47-.38-1.65-.98-3.22-1.68-4.76-.67-1.48-1.43-2.91-2.33-4.26-1.62-2.45-3.29-4.87-5.16-7.13-.77-.94-1.52-1.9-2.31-2.82-.59-.69-1.23-1.35-1.84-2.02-.92-1-1.8-2.03-2.75-2.99-1.83-1.85-3.71-3.67-5.56-5.5-.76-.76-1.52-1.51-2.29-2.26-1.41-1.38-2.84-2.75-4.25-4.14-2.11-2.07-3.96-4.39-5.76-6.72-.43-.55-.82-1.15-1.23-1.74.14-.17.24-.29.35-.41,1.03-1.1,1.39-2.39,1.16-3.88-.22-1.4-.8-2.65-1.62-3.77-.48-.65-1.04-1.25-1.67-1.75-1.27-1.03-2.7-1.82-4.18-2.52-.89-.42-1.74-.92-2.57-1.46-.64-.41-1.19-.9-1.69-1.44-1.12.06-2.25.15-3.37.26,1.13,5,3.4,9.49,6.11,13.77,2.2,3.48,4.81,6.66,7.52,9.75,1.56,1.78,3.11,3.56,4.7,5.32,1.22,1.35,2.44,2.7,3.72,3.99,1.79,1.82,3.64,3.57,5.44,5.38,2.16,2.19,4.3,4.39,6.42,6.63,1.49,1.58,2.93,3.18,4.35,4.82,1.76,2.04,3.41,4.16,4.91,6.41.97,1.46,1.87,2.95,2.58,4.55.22.49.27.98.15,1.48-.06.29-.15.59-.25.88-.59,1.65-1.54,3.08-2.69,4.38-.75.86-1.56,1.62-2.56,2.2-.83.49-1.72.75-2.64.98-1.16.29-2.32.42-3.51.2-3.08-.57-5.71-1.97-7.84-4.31-.74-.82-1.45-1.69-2.2-2.5-.78-.84-1.45-.88-2.41-.26-.64.41-1.15.96-1.6,1.57-1.13,1.54-2.03,3.22-2.82,4.96-.75,1.67-1.24,3.44-1.67,5.21-.34,1.43-.55,2.87-.63,4.34-.05,1.04.03,2.06.08,3.1.09,1.78.35,3.52.9,5.21.23.71.44,1.46.77,2.11.49.96,1.05,1.87,1.65,2.76.69,1.02,1.41,2.04,2.36,2.85.47.4.91.85,1.37,1.28-.05.11-.08.21-.14.29-1.06,1.45-2.27,2.76-3.79,3.71-.62.39-1.33.71-2.03.88-1.98.44-3.83.05-5.45-1.22-.77-.6-1.45-1.28-1.91-2.16-.98-1.85-1.73-3.81-2.44-5.78-.51-1.41-.92-2.87-1.43-4.28-.76-2.05-1.4-4.16-2.31-6.15-.43-.92-.74-1.9-1.15-2.82-.56-1.23-1.15-2.47-1.79-3.67-1.09-2.06-2.33-4.04-3.84-5.82-.76-.9-1.65-1.64-2.68-2.24-.72-.41-1.91.06-2.17.88-.29.94-.39,1.88-.29,2.83.16,1.49.44,2.98.63,4.46.2,1.54.06,3.04-.45,4.51-.36,1.04-1,1.89-1.76,2.65-1.72,1.73-3.74,2.71-6.19,2.59-.78-.04-1.52-.24-2.22-.66-1.48-.89-3-1.72-4.52-2.56-.14-.07-.35-.1-.5-.06-.24.07-.2.32-.18.53.2,2.16.41,4.3.61,6.46.06.73.13,1.46.19,2.15.1.06.15.11.2.13,1.69.74,3.25,1.7,4.75,2.76,1.64,1.16,3.17,2.45,4.41,4.05.94,1.21,1.68,2.52,2.03,4.05.14.62,0,1.08-.4,1.5-.74.76-1.44,1.54-2.2,2.26-2.91,2.72-6.15,4.98-9.51,7.09-3.2,2.01-6.48,3.82-9.83,5.54,2.24,1.82,4.6,3.48,7.07,4.99.04-.03.1-.06.14-.08.22.18.43.36.64.53,9.74,5.76,21.05,9.08,33.13,9.08,21.99,0,41.45-10.94,53.42-27.73v-.04ZM422.67,285.37c1.04-.7,2.19-1.22,3.38-1.58,1.6-.48,3.23-.77,4.91-.74,1.35.04,2.62.33,3.64,1.33.13.13.26.25.39.39.06.07.11.17.19.3-1.1.93-2.32,1.39-3.68,1.63-1.95.35-3.91.37-5.86.09-1.19-.17-2.33-.53-3.59-.95.26-.2.43-.36.63-.48Z"/>
  <path class="st1" d="M372.13,261.67c1.76-1.44,3.58-2.82,5.24-4.38,1.09-1.02,2.21-2.02,3.27-3.07.87-.87,1.71-1.78,2.51-2.73,1.05-1.25,2.12-2.5,3.07-3.83.87-1.23,1.64-2.56,2.37-3.9.93-1.7,1.51-3.54,1.88-5.45.22-1.16.33-2.33.41-3.51.08-1.2,0-2.35-.29-3.5-.38-1.56-1.36-2.63-2.81-3.21-1.31-.53-2.69-.56-4.07-.24-1.81.42-3.6.94-5.36,1.58-1.11.41-2.26.71-3.39,1.04-2.31.69-4.67,1.13-7.1.92-.71-.06-1.38-.24-2.02-.57-.62-.32-.71-.53-.56-1.22.05-.28.14-.55.2-.83.43-1.83.87-3.67,1.69-5.39,1.16-2.44,2.42-4.81,4.18-6.89.94-1.11,1.8-2.28,2.85-3.29.92-.88,1.97-1.46,3.19-1.74.67-.16,1.28-.02,1.74.53.21.25.37.53.56.79.15.21.32.42.51.59.24.2.45.14.58-.15.08-.18.14-.39.14-.59.05-2.77.11-5.55.14-8.32,0-.32-.13-.71-.33-.95-.34-.4-.75-.74-1.17-1.03-.75-.51-1.62-.64-2.47-.46-.6.13-1.19.39-1.73.68-1.15.64-2.09,1.58-2.94,2.58-1.11,1.31-2.16,2.67-3.16,4.07-.71.99-1.37,2.02-1.91,3.1-1.46,2.87-2.74,5.83-3.62,8.96-.55,1.96-1.07,3.93-1.24,5.95-.13,1.47-.09,2.97-.11,4.45,0,.49.04.98.09,1.46.12,1.01.35,2,.57,2.99.28,1.25.88,2.27,1.84,3.06,1.01.82,2.12,1.46,3.42,1.7,1.4.26,2.8.18,4.18-.04,1.69-.26,3.3-.82,4.92-1.35.95-.31,1.87-.73,2.81-1.05.99-.33,1.99-.63,2.99-.9,1.07-.29,2.16-.47,3.26-.16.18.05.36.13.64.24-.41.62-.74,1.17-1.12,1.69-1.31,1.73-2.7,3.37-4.29,4.86-1.3,1.22-2.58,2.45-3.91,3.61-1.85,1.61-3.75,3.19-5.75,4.63-1.59,1.15-3.21,2.24-4.97,3.1-3.58,1.73-7.34,2.86-11.33,3.1-1.94.12-3.86-.09-5.7-.74-1.67-.58-3.09-1.62-4.42-2.79-.73-.64-1.23-1.42-1.57-2.34-.47-1.31-.52-2.64-.17-3.96.31-1.18.72-2.33,1.12-3.48.78-2.26,1.97-4.26,3.6-6,1.01-1.08,2.13-1.96,3.52-2.48,1.08-.41,2.18-.51,3.29-.23,2.08.52,3.18,2.07,3.78,3.99.34,1.07.43,2.24.5,3.37.26,4.46-.38,8.82-1.59,13.1-.06.23-.13.45-.23.79.64-.12,1.19-.22,1.78-.33.07-.25.14-.44.18-.65.68-2.75,1.24-5.52,1.61-8.33.4-3.05.53-6.09.08-9.14-.24-1.66-.65-3.28-1.55-4.72-1.74-2.81-4.78-3.69-7.77-2.65-.99.34-1.82.95-2.65,1.54-1.72,1.19-3.03,2.77-4.16,4.52-1.15,1.79-2.12,3.69-2.94,5.66-.68,1.66-1.14,3.38-1.56,5.12-.28,1.19-.44,2.4-.57,3.6-.17,1.58-.26,3.16.13,4.73.09.38.23.74.29,1.11.14.92.5,1.76.89,2.58,1.05,2.2,2.76,3.78,4.76,5.05.45.29.97.48,1.44.75,1.01.58,2.12.85,3.23,1.13,2.1.53,4.22.47,6.34.18,2.97-.41,5.78-1.35,8.5-2.64,2.21-1.04,4.36-2.19,6.26-3.74v.04Z"/>
  <path class="st1" d="M354.06,268.73h1.89c-.03.13-.04.25-.08.35-2.27,5.51-5.01,10.75-8.43,15.62-1.77,2.52-3.71,4.92-5.93,7.07-.64.63-1.37,1.18-2.13,1.83-.04-.22-.1-.34-.09-.46,0-.09.1-.17.16-.25,1.8-2.22,3.4-4.59,4.96-6.99,2.7-4.17,5.23-8.46,7.58-12.84.67-1.25,1.23-2.56,1.84-3.84.07-.15.14-.29.23-.48"/>
  <path class="st1" d="M452.23,268.06c0-.08.02-.18.04-.26.08-.64.1-1.27.04-1.91-.04-.45-.12-.89-.2-1.34-.12-.63-.26-1.25-.38-1.88-.1-.53-.18-1.07-.26-1.61-.1-.65-.2-1.31-.29-1.96-.02-.12-.03-.24-.04-.37h-.18c0,.1,0,.21,0,.31,0,.68.07,1.36.15,2.04.11.91.24,1.83.35,2.75.06.52.13,1.04.14,1.57.02.52,0,1.03-.05,1.55-.08.9-.26,1.79-.54,2.65-.13.39-.29.76-.49,1.11-1.42,2.46-3.32,3.69-5.63,3.76-.57.02-1.14-.04-1.7-.18-.63-.17-1.22-.44-1.76-.81-.97-.65-1.73-1.53-2.23-2.66-.22-.5-.4-1.38-.4-1.93s.05-1.05.18-1.56c.3-1.12.85-2.07,1.73-2.82.41-.35.9-.62,1.41-.76.69-.18,1.38-.21,2.05-.02,1.02.29,1.82.89,2.38,1.85.25.43.4.94.43,1.46.05,1.19-.34,2.18-1.21,2.97-.35.32-.8.52-1.26.55-1.09.08-1.92-.33-2.47-1.25-.17-.29-.27-.63-.27-.98,0-.45.07-.88.29-1.26.08-.15.18-.29.3-.41.02-.02.05-.05.06-.06.03-.04.03-.07,0-.11-.02-.04-.05-.06-.09-.06v.09s-.05-.04-.07-.05c-.12.11-.22.22-.3.36-.23.33-.34.71-.39,1.11-.03.27-.04.53.02.79.14.75.6,1.32,1.26,1.75.22.14.47.24.73.29,1.31.27,2.37-.23,3.15-1.44.15-.24.28-.51.36-.78.47-1.53.18-2.87-.85-4.03-.43-.47-.96-.84-1.54-1.06-1.33-.52-2.61-.39-3.84.36-.47.29-.85.66-1.21,1.1-.42.52-.74,1.11-.98,1.73-.18.5-.31,1.02-.35,1.56-.12,1.31.14,2.52.77,3.65.46.84,1.11,1.5,1.86,2.05.5.37,1.04.65,1.62.86.24.08.48.15.72.22.02,0,.03,0,.04.02.16.03.32.06.48.09h.05c.74.12,1.51.08,2.26-.06.72-.14,1.41-.4,2.05-.77,1.36-.82,2.36-1.98,3.09-3.35.35-.65.61-1.34.79-2.06.02-.08.04-.16.06-.24.04-.18.07-.37.11-.54"/>
  <path class="st1" d="M447.84,277.06c-.27,1.12-2.65,2.23-2.28,4.13,0,0-2.53-4.48,1.15-5.63,0,0,.34.76-.99,2.54,0,0,1.3-.91,1.66-2.69,0,0,.73.52.45,1.65Z"/>
  <path class="st0" d="M390.37,206.8c-.66-.51-1.32-1.01-2.09-1.59-.1.61-.16,1.08-.25,1.55-.63,3.81-1.78,7.44-3.76,10.76-.46.78-1.04,1.5-1.61,2.21-2.43,3.02-4.96,5.93-7.85,8.52-.16.15-.33.3-.51.42-.08.06-.2.04-.44.07.23-.38.38-.65.55-.91,1.83-2.63,3.72-5.21,5.5-7.87,1.6-2.39,3.3-4.73,4.57-7.32,1.21-2.49,2.23-5.05,2.52-7.93-.25-.12-.53-.28-.81-.4-.52-.23-1.04-.42-1.54-.66-.83-.41-1.31-1.07-1.49-2.01-.22-1.1-.45-2.2-.4-3.32.06-1.11.28-2.21,1.04-3.12.44-.53,1.2-.71,1.69-.24.31.29.63.56.89.88,1.23,1.56,1.61,3.42,1.8,5.33.03.29.03.57.1.85.04.16.17.31.29.42.32.29.64.56.98.81.34.24.53.56.63.94.15.59.31,1.18.43,1.77.07.32.02.44-.24.83M387.32,201.66c0-.24.04-.41,0-.55-.23-.67-.44-1.35-.73-1.99-.17-.41-.47-.75-.87-.99-.28-.17-.54-.17-.77.04-.53.45-.83,1.03-.87,1.73-.02.27.08.48.34.59.94.38,1.89.76,2.9,1.17Z"/>
  <path class="st0" d="M392.75,213.34c.59.41,1.12.9,1.55,1.48.54.71,1.02,1.46,1.53,2.19.48.71,1.1,1.24,1.9,1.54.87.32,1.57.04,2.03-.84-.28-.26-.58-.52-.87-.8-.72-.71-1.44-1.41-2.15-2.13-.64-.65-.77-1.55-1-2.38-.1-.36-.15-.74-.25-1.24.22.13.34.16.4.24.86,1.22,1.91,2.24,3.08,3.16,1.33,1.05,2.08,2.45,2.42,4.09.18.89.1,1.75-.54,2.47-.51.57-1.09.82-1.88.66-.94-.19-1.64-.71-2.32-1.47-.02.21-.04.35-.04.5.05.84.05,1.67-.14,2.49-.19.83-.49,1.58-1.17,2.15-1,.82-2.19.61-3.07-.14-.4-.34-.73-.83-.94-1.33-.41-.97-.71-1.99-1.05-2.99-.12-.35-.2-.71-.33-1.04-.15-.39-.35-.72-.8-.84-.17-.05-.37-.28-.43-.46-.21-.7-.38-1.41-.53-2.13-.09-.44.06-.54.5-.44.46.1.72.44.9.83.29.65.56,1.31.8,1.97.25.73.49,1.46.68,2.21.25,1,.9,1.51,1.84,1.69.52.09,1-.09,1.39-.44.25-.22.46-.51.64-.8.43-.74.52-1.58.57-2.4.03-.31-.12-.7-.31-.95-.41-.55-.91-1.03-1.35-1.55-.17-.19-.36-.4-.45-.63-.25-.73-.45-1.47-.67-2.21-.04-.11-.04-.23-.05-.35.04-.03.07-.06.11-.07"/>
  <path class="st0" d="M427.69,298.27c-.14.74-.25,1.37-.37,2-.1.52-.1,1.11-.36,1.53-.25.42-.77.69-1.19,1-6.12,4.74-12.23,9.46-18.35,14.2-.13.1-.25.19-.45.33,0-.19,0-.3.03-.41.27-.96.55-1.92.84-2.87.07-.27.22-.46.43-.63,6.41-4.78,12.62-9.82,18.9-14.78.14-.11.29-.2.53-.38"/>
  <path class="st0" d="M381.35,305.21l-4.65,8.04,9.32,5.54,4.65-8.04-9.32-5.54Z"/>
  <path class="st0" d="M395.31,302.73l-4.65,8.04,9.32,5.54,4.65-8.04-9.32-5.54Z"/>
  <path class="st0" d="M348.74,289.49l-4.65,8.04,9.32,5.55,4.65-8.04-9.32-5.54Z"/>
  <path class="st0" d="M362.7,287.01l-4.65,8.04,9.32,5.55,4.65-8.04-9.32-5.55Z"/>
  <path class="st0" d="M397.12,240.38l-3.37,8.67,10.05,4.03,3.37-8.67-10.05-4.03Z"/>
  <path class="st0" d="M410.53,235.74l-3.37,8.67,10.05,4.03,3.37-8.67-10.05-4.03Z"/>
  <path class="st0" d="M399.07,227.84l-3.37,8.67,10.05,4.03,3.37-8.67-10.05-4.03Z"/>
  <path class="st0" d="M396.97,255.07c.05.38-.02.76-.07,1.13-.11.84-.28,1.67-.43,2.5-.13.72-.26,1.45-.41,2.17-.28,1.46-.02,2.85.57,4.18.36.82,1,1.33,1.83,1.59.63.2,1.16.09,1.54-.45.23-.32.39-.69.57-1.05.08-.17.09-.36.17-.52.04-.06.17-.1.26-.11.05,0,.14.08.14.14.15,1.94-.2,3.73-1.55,5.21-.54.59-1.12.67-1.86.39-1.49-.58-2.15-1.81-2.46-3.26-.33-1.51-.47-3.05-.25-4.6.14-.91.25-1.82.45-2.72.31-1.47.66-2.94,1.01-4.39.03-.1.05-.19.09-.29.05-.18.37-.1.4.09"/>
  <path class="st0" d="M358.72,272.19c0,.31-.09.61-.17.9-.17.66-.4,1.31-.6,1.96-.18.57-.36,1.13-.54,1.7-.37,1.14-.3,2.28.04,3.42.21.69.66,1.17,1.32,1.47.48.23.92.19,1.29-.2.22-.23.39-.52.56-.78.08-.12.11-.28.19-.4.04-.05.14-.06.23-.06.04,0,.1.08.1.12-.08,1.58-.54,2.99-1.78,4.03-.49.41-.96.42-1.53.11-1.13-.62-1.54-1.68-1.65-2.87-.11-1.25-.07-2.51.26-3.72.2-.72.39-1.44.64-2.14.4-1.15.83-2.29,1.25-3.43.03-.08.06-.16.1-.23.06-.13.31-.05.31.12"/>
  <path class="st0" d="M387.76,290.19c0,.26-.07.5-.15.75-.14.54-.33,1.08-.5,1.61-.14.47-.3.93-.44,1.4-.31.94-.25,1.89.03,2.82.17.57.54.97,1.08,1.22.4.18.76.16,1.06-.17.18-.19.32-.42.46-.65.06-.1.09-.23.16-.32.03-.05.12-.06.18-.06.03,0,.08.06.08.1-.06,1.3-.44,2.46-1.46,3.32-.41.34-.79.35-1.26.09-.94-.51-1.27-1.38-1.36-2.37-.09-1.03-.06-2.06.22-3.07.16-.59.32-1.18.52-1.76.33-.95.68-1.89,1.03-2.83.03-.06.05-.13.08-.18.06-.11.25-.04.25.1"/>
</svg>