<?xml version="1.0" encoding="UTF-8"?>
<svg id="Layer_1" xmlns="http://www.w3.org/2000/svg" xmlns:xlink="http://www.w3.org/1999/xlink" version="1.1" viewBox="0 0 500 500">
  <!-- Generator: Adobe Illustrator 30.5.1, SVG Export Plug-In . SVG Version: 2.1.4 Build 3)  -->
  <defs>
    <style>
      .st0 {
        fill: #256c47;
      }

      .st1 {
        fill: url(#linear-gradient2);
      }

      .st2 {
        fill: url(#linear-gradient1);
      }

      .st3 {
        fill: url(#linear-gradient9);
      }

      .st4 {
        fill: url(#linear-gradient3);
      }

      .st5 {
        fill: url(#linear-gradient6);
      }

      .st6 {
        fill: url(#linear-gradient8);
      }

      .st7 {
        fill: url(#linear-gradient7);
      }

      .st8 {
        fill: url(#linear-gradient5);
      }

      .st9 {
        fill: url(#linear-gradient4);
      }

      .st10 {
        fill: url(#linear-gradient13);
      }

      .st11 {
        fill: url(#linear-gradient12);
      }

      .st12 {
        fill: url(#linear-gradient15);
      }

      .st13 {
        fill: url(#linear-gradient11);
      }

      .st14 {
        fill: url(#linear-gradient10);
      }

      .st15 {
        fill: url(#linear-gradient14);
      }

      .st16 {
        fill: url(#linear-gradient);
      }

      .st17 {
        fill: #8d9e5b;
      }

      .st18 {
        fill: #fff;
      }

      .st19 {
        fill-rule: evenodd;
      }

      .st19, .st20 {
        fill: #a0b179;
      }
    </style>
    <linearGradient id="linear-gradient" x1="-2042.89" y1="-2756.68" x2="-2042.89" y2="-2730.89" gradientTransform="translate(2102.0125 -2491.3459) scale(1 -1)" gradientUnits="userSpaceOnUse">
      <stop offset="0" stop-color="#10311c"/>
      <stop offset=".13" stop-color="#194a2e"/>
      <stop offset=".27" stop-color="#235d3c"/>
      <stop offset=".43" stop-color="#266b46"/>
      <stop offset=".63" stop-color="#2b734c"/>
      <stop offset="1" stop-color="#2c764e"/>
    </linearGradient>
    <linearGradient id="linear-gradient1" x1="-2020.2" y1="-2756.57" x2="-2020.2" y2="-2730.92" xlink:href="#linear-gradient"/>
    <linearGradient id="linear-gradient2" x1="-1804.98" y1="-2756.59" x2="-1804.98" y2="-2730.89" xlink:href="#linear-gradient"/>
    <linearGradient id="linear-gradient3" x1="-1901.81" y1="-2756.35" x2="-1901.81" y2="-2730.75" xlink:href="#linear-gradient"/>
    <linearGradient id="linear-gradient4" x1="-1863.66" y1="-2756.35" x2="-1863.66" y2="-2731.7" xlink:href="#linear-gradient"/>
    <linearGradient id="linear-gradient5" x1="-1988.22" y1="-2756.42" x2="-1988.22" y2="-2731" xlink:href="#linear-gradient"/>
    <linearGradient id="linear-gradient6" x1="-1940.17" y1="-2756.64" x2="-1940.17" y2="-2730.78" xlink:href="#linear-gradient"/>
    <linearGradient id="linear-gradient7" x1="-1689.02" y1="-2799.13" x2="-1689.02" y2="-2730.64" xlink:href="#linear-gradient"/>
    <linearGradient id="linear-gradient8" x1="-1688.96" y1="-2808.04" x2="-1688.96" y2="-2758.59" xlink:href="#linear-gradient"/>
    <linearGradient id="linear-gradient9" x1="-1688.5" y1="-2748.36" x2="-1688.5" y2="-2703.71" xlink:href="#linear-gradient"/>
    <linearGradient id="linear-gradient10" x1="-1691.51" y1="-2714.38" x2="-1691.51" y2="-2674.66" xlink:href="#linear-gradient"/>
    <linearGradient id="linear-gradient11" x1="-1694.62" y1="-2766.13" x2="-1694.62" y2="-2757.64" xlink:href="#linear-gradient"/>
    <linearGradient id="linear-gradient12" x1="-1681.51" y1="-2766.12" x2="-1681.51" y2="-2757.63" xlink:href="#linear-gradient"/>
    <linearGradient id="linear-gradient13" x1="-1687.99" y1="-2759.44" x2="-1687.99" y2="-2750.95" xlink:href="#linear-gradient"/>
    <linearGradient id="linear-gradient14" x1="-1688.51" y1="-2737.87" x2="-1688.51" y2="-2730.26" xlink:href="#linear-gradient"/>
    <linearGradient id="linear-gradient15" x1="-1688.52" y1="-2728.61" x2="-1688.52" y2="-2721" xlink:href="#linear-gradient"/>
  </defs>
  <g id="Frame_29">
    <g id="Group_320">
      <path id="Vector" class="st0" d="M136.84,239.93h-.05c-1.28,0-2.31,1.04-2.31,2.33v20.65c0,1.28,1.03,2.33,2.31,2.33h.05c1.28,0,2.31-1.04,2.31-2.33v-20.65c0-1.28-1.03-2.33-2.31-2.33Z"/>
      <path id="Vector_2" class="st16" d="M67.43,252.53h-14.06c-.95,0-1.72-.78-1.72-1.73v-4.92c0-.95.77-1.73,1.72-1.73h4.71c.95,0,1.72.78,1.72,1.73v1.6c0,.95.77,1.73,1.72,1.73h1.21c.95,0,1.72-.78,1.72-1.73v-6.25c0-.95-.77-1.73-1.72-1.73h-12.52c-1.75,0-3.17,1.43-3.17,3.19v10.16c0,2.38,1.93,4.32,4.29,4.32h13.55c.95,0,1.72.78,1.72,1.73v.04c0,.95-.77,1.73-1.72,1.73h-3.33c-.95,0-1.72.78-1.72,1.73v1.22c0,.95.77,1.73,1.72,1.73h5.55c2.28,0,4.11-1.85,4.11-4.14v-4.83c0-2.1-1.7-3.81-3.78-3.81v-.04Z"/>
      <path id="Vector_3" class="st2" d="M86.3,239.58h-10.14c-1.72,0-3.12,1.41-3.12,3.14v10.97c0,.93.75,1.67,1.66,1.67h7.7c.93,0,1.66-.76,1.66-1.67v-1.3c0-.93-.75-1.67-1.66-1.67h-3.82c-.53,0-.95-.42-.95-.95v-3.88c0-.93.75-1.67,1.66-1.67h4.97c.93,0,1.66.76,1.66,1.67v14.76h-10.63c-1,0-1.82.83-1.82,1.83v.88c0,1,.82,1.83,1.82,1.83h14.34c.51,0,.91-.41.91-.92v-20.42c0-2.38-1.93-4.32-4.29-4.32l.02.04Z"/>
      <path id="Vector_4" class="st1" d="M338.42,246.19h-10.14c-2.36,0-4.29,1.94-4.29,4.32v10.27h-3.66v-16.91c0-2.38-1.93-4.32-4.29-4.32h-12.94c-1.71,0-3.12,1.41-3.12,3.14v10.94c0,.93.75,1.67,1.66,1.67h7.7c.93,0,1.66-.76,1.66-1.67v-1.3c0-.93-.75-1.67-1.66-1.67h-3.82c-.53,0-.95-.42-.95-.95v-3.82c0-.93.75-1.67,1.66-1.67h7.77c.93,0,1.66.76,1.66,1.67v14.78h-22.24v-11.89c0-1.73-1.4-3.14-3.12-3.14h-10.14c-2.36,0-4.29,1.94-4.29,4.32v10.6h-6.99v-9.35c0-1.29-1.03-2.33-2.31-2.33h-.05c-1.28,0-2.31,1.04-2.31,2.33v9.35h-9.37c-1.28,0-2.31,1.04-2.31,2.33v.05c0,1.29,1.03,2.33,2.31,2.33h25.65v-13.3c0-.93.75-1.67,1.66-1.67h4.97c.93,0,1.66.76,1.66,1.67v7.68c0,.53-.42.95-.94.95h-3.82c-.93,0-1.66.76-1.66,1.67v1.3c0,.93.75,1.67,1.66,1.67h7.7c.12,0,.25,0,.37-.04h27.24s.16,0,.23-.04h8.96v-12.63c0-.93.75-1.67,1.66-1.67h4.97c.93,0,1.66.76,1.66,1.67v7.08c0,.53-.42.95-.95.95h-3.82c-.93,0-1.66.76-1.66,1.67v1.3c0,.93.75,1.67,1.66,1.67h7.7c.93,0,1.66-.76,1.66-1.67v-14.18c0-1.73-1.4-3.14-3.12-3.14l.05-.04Z"/>
      <path id="Vector_5" class="st4" d="M214.61,239.53h-11.61c-1.44,0-2.61,1.18-2.61,2.62v13.18c0,.95.77,1.73,1.72,1.73h1.21c.95,0,1.72-.78,1.72-1.73v-9.42c0-.95.77-1.73,1.72-1.73h4.71c.95,0,1.72.78,1.72,1.73v12.74c0,.95-.77,1.73-1.72,1.73h-13.64l.02-4.81c0-1.29-1.03-2.33-2.31-2.33h-.05c-1.28,0-2.31,1.04-2.31,2.33v4.81h-5.11c-.44,0-.79-.35-.79-.79v-17.81c0-1.29-1.03-2.33-2.31-2.33h-.05c-1.28,0-2.31,1.04-2.31,2.33v21.79c0,.81.65,1.48,1.47,1.48h29.46c2.36,0,4.29-1.94,4.29-4.32v-17.97c0-1.76-1.42-3.19-3.17-3.19l-.04-.04Z"/>
      <path id="Vector_6" class="st9" d="M254.49,256.67l.05-13.99c0-1.29-1.03-2.33-2.31-2.33h-.05c-1.28,0-2.31,1.04-2.31,2.33v10.01c0,.67-.53,1.2-1.19,1.2h-8.77v-11.01c0-1.29-1.03-2.33-2.31-2.33h-.05c-1.28,0-2.31,1.04-2.31,2.33v17.42h-10.77c-1.28,0-2.31,1.04-2.31,2.33v.05c0,1.29,1.03,2.33,2.31,2.33h15.37v-6.43h12.73c1.05,0,1.91-.86,1.91-1.92l.02.02Z"/>
      <path id="Vector_7" class="st8" d="M130.05,239.65h-.05c-1.28,0-2.31,1.04-2.31,2.33v17.03c0,.74-.6,1.36-1.35,1.36h-2.56c-.44,0-.79-.35-.79-.79v-11.05c0-1.16-.93-2.1-2.08-2.1h-.51c-1.16,0-2.08.93-2.08,2.1v11.05c0,.44-.35.79-.79.79h-.75c-.44,0-.79-.35-.79-.79v-11.05c0-1.16-.93-2.1-2.08-2.1h-.51c-1.16,0-2.08.93-2.08,2.1v11.15c0,.39-.32.69-.68.69h-.75c-.39,0-.68-.32-.68-.69v-11.15c0-1.16-.93-2.1-2.08-2.1h-.51c-1.16,0-2.08.93-2.08,2.1v10.85c0,.55-.44.99-.98.99h-2.61c-.6,0-1.09-.49-1.09-1.09v-16.08c0-1.29-1.03-2.33-2.31-2.33h-.05c-1.28,0-2.31,1.04-2.31,2.33v20.01c0,1.02.82,1.87,1.86,1.87h33.51c1.02,0,1.86-.83,1.86-1.87v-21.23c0-1.29-1.03-2.33-2.31-2.33h-.04Z"/>
      <path id="Vector_8" class="st5" d="M177.13,239.44h-.05c-1.28,0-2.31,1.04-2.31,2.33v17.25c0,.74-.6,1.36-1.35,1.36h-4.25c-.77,0-1.4-.63-1.38-1.41l.09-14.99c0-2.38-1.93-4.32-4.29-4.32h-12.94c-1.72,0-3.12,1.41-3.12,3.14v4.69c0,1.04.84,1.9,1.89,1.9h.86c1.03,0,1.89-.85,1.89-1.9v-1.5c0-.93.75-1.67,1.66-1.67h7.77c.93,0,1.66.76,1.66,1.67l-.07,6.64h-15.09c-2.14,0-3.87,1.76-3.87,3.89v4.65c0,2.29,1.84,4.14,4.11,4.14h9.73c.95,0,1.72-.78,1.72-1.73v-1.22c0-.95-.77-1.73-1.72-1.73h-7.51c-.95,0-1.72-.78-1.72-1.73v-.04c0-.95.77-1.73,1.72-1.73h11.57v-.02h1.16v6.45c0,.78.63,1.39,1.38,1.39l9.16.07h3.76c1.02,0,1.86-.83,1.86-1.87v-21.44c0-1.29-1.03-2.33-2.31-2.33l-.02.04Z"/>
      <path id="Vector_9" class="st20" d="M108.28,239.05l-1.67,1.68c-.44.44-.44,1.15,0,1.59l1.67,1.68c.44.44,1.15.44,1.58,0l1.67-1.68c.44-.44.44-1.15,0-1.59l-1.67-1.68c-.44-.44-1.15-.44-1.58,0Z"/>
      <path id="Vector_10" class="st20" d="M115.99,239.04l-1.67,1.68c-.44.44-.44,1.15,0,1.59l1.67,1.68c.44.44,1.15.44,1.58,0l1.67-1.68c.44-.44.44-1.15,0-1.59l-1.67-1.68c-.44-.44-1.15-.44-1.58,0Z"/>
      <path id="Vector_11" class="st20" d="M112.17,234.16l-1.67,1.68c-.44.44-.44,1.15,0,1.59l1.67,1.68c.44.44,1.15.44,1.58,0l1.67-1.68c.44-.44.44-1.15,0-1.59l-1.67-1.68c-.44-.44-1.15-.44-1.58,0Z"/>
      <path id="Vector_12" class="st20" d="M49.09,260.35l-1.67,1.68c-.44.44-.44,1.15,0,1.59l1.67,1.68c.44.44,1.15.44,1.58,0l1.67-1.68c.44-.44.44-1.15,0-1.59l-1.67-1.68c-.44-.44-1.15-.44-1.58,0Z"/>
      <path id="Vector_13" class="st20" d="M55.3,260.37l-1.67,1.68c-.44.44-.44,1.15,0,1.59l1.67,1.68c.44.44,1.15.44,1.58,0l1.67-1.68c.44-.44.44-1.15,0-1.59l-1.67-1.68c-.44-.44-1.15-.44-1.58,0Z"/>
      <path id="Vector_14" class="st20" d="M246.1,260.57l-1.67,1.68c-.44.44-.44,1.15,0,1.59l1.67,1.68c.44.44,1.15.44,1.58,0l1.67-1.68c.44-.44.44-1.15,0-1.59l-1.67-1.68c-.44-.44-1.15-.44-1.58,0Z"/>
      <path id="Vector_15" class="st20" d="M227.16,245.43l-1.67,1.68c-.44.44-.44,1.15,0,1.59l1.67,1.68c.44.44,1.15.44,1.58,0l1.67-1.68c.44-.44.44-1.15,0-1.59l-1.67-1.68c-.44-.44-1.15-.44-1.58,0Z"/>
      <path id="Vector__x28_Stroke_x29_" class="st19" d="M41.33,227.72h300.21v1.63H41.33v-1.63Z"/>
      <path id="Vector__x28_Stroke_x29__x5F_2" class="st19" d="M41.33,274.23h300.21v1.63H41.33v-1.63Z"/>
      <path id="Vector_16" class="st17" d="M129.84,213.54h3.06v2.22h-8.95c-.28,0-.58.02-.84.05-.28.02-.54.05-.79.11-.25.05-.49.11-.7.19-.21.09-.39.16-.53.26-.19.12-.35.26-.47.42-.12.16-.21.33-.25.53-.04.19-.04.41.02.63.05.23.18.48.37.76.09.09.21.18.35.23s.3.11.46.14c.16.04.33.05.49.07.16,0,.3.02.42.02h8.86v2.22h-10c-.21,0-.44,0-.67-.02-.23-.02-.44-.05-.67-.09-.23-.04-.44-.12-.65-.23-.21-.11-.42-.25-.61-.42-.12-.12-.25-.26-.37-.44-.12-.18-.23-.37-.31-.6-.09-.23-.18-.51-.23-.81-.05-.3-.09-.65-.09-1.04,0-.6.07-1.09.19-1.44.12-.37.28-.65.47-.85.28-.39.63-.7,1.02-.95.4-.25.82-.44,1.26-.58.44-.14.91-.23,1.4-.28.49-.05.96-.09,1.42-.09h1.33c.42,0,.81.02,1.14.02h1.03v-5.51c0-.19-.02-.39-.05-.6-.04-.21-.14-.42-.32-.62-.19-.25-.42-.41-.67-.48-.26-.07-.49-.09-.72-.09h-6.39v-2.22h7.37c.54,0,1.07.09,1.54.26.47.18.86.42,1.16.74.28.26.51.67.68,1.18.18.51.26,1.14.26,1.9v5.43l-.05-.04ZM121.35,201.79v-2.29h2.85v2.29h-2.85Z"/>
      <path id="Vector_17" class="st17" d="M132.68,215.75v-2.22h.28c.53,0,.96-.05,1.28-.18.32-.12.58-.32.79-.6.21-.3.35-.65.42-1.02.07-.37.1-.78.1-1.2v-7.86h2.85v7.52l.05,1.78c.09.35.25.62.46.83.21.21.44.35.7.48.26.11.54.18.84.21.3.04.58.05.84.05h.32v2.22h-1.17c-.28,0-.56,0-.86-.04-.3-.02-.58-.07-.88-.12-.3-.07-.58-.16-.88-.3-.3-.14-.54-.32-.79-.53-.26.23-.53.41-.79.53-.28.12-.56.23-.86.3-.3.07-.6.11-.91.12-.32,0-.63.02-.96.02h-.86.02ZM133.83,220.06v-2.29h2.85v2.29h-2.85ZM137.69,220.06v-2.29h2.85v2.29h-2.85Z"/>
      <path id="Vector_18" class="st17" d="M141.33,215.76v-2.22h2.1v-10.83h2.87v10.83h4.94v-10.83h2.87v10.83h2.66c.12,0,.26,0,.42-.02.16-.02.3-.04.45-.07.16-.04.32-.11.46-.18.14-.09.28-.19.4-.33.12-.12.21-.26.28-.42.07-.16.12-.32.18-.48.04-.16.07-.33.07-.49s.02-.32.02-.46v-8.37h2.85v8.83c0,.74-.12,1.41-.39,2.01h1.84v2.22h-22.04l.02-.02ZM147.38,198.96v-2.29h2.85v2.29h-2.85ZM151.24,198.96v-2.29h2.85v2.29h-2.85ZM155.12,198.96v-2.29h2.85v2.29h-2.85Z"/>
      <path id="Vector_19" class="st17" d="M163.14,215.74v-2.22h1.4c.54,0,.96-.05,1.28-.18.32-.12.58-.32.79-.6.23-.32.39-.67.44-1.07.07-.41.09-.81.09-1.25v-11.93h2.85v12.79c0,.44-.03.85-.1,1.2-.07.35-.16.67-.28.93-.12.26-.25.51-.4.72-.16.21-.32.39-.49.53-.26.25-.54.42-.82.56-.28.14-.58.25-.88.32-.3.07-.61.12-.93.14-.32.02-.65.04-1,.04h-1.98l.04.02Z"/>
      <path id="Vector_20" class="st17" d="M172.14,198.5h2.87v17.25h-2.87v-17.25Z"/>
      <path id="Vector_21" class="st17" d="M186.58,215.74c-.33,0-.68-.04-1.07-.09-.39-.05-.75-.18-1.14-.35-.37-.18-.74-.44-1.07-.78-.33-.33-.63-.79-.88-1.36-.09-.19-.16-.42-.23-.67-.07-.25-.14-.55-.21-.88-.07-.33-.1-.7-.14-1.15-.03-.42-.05-.92-.05-1.46,0-.35,0-.7.04-1.09.02-.39.07-.76.14-1.15.07-.39.18-.76.3-1.13.14-.37.32-.72.53-1.04.32-.46.67-.81,1.07-1.07.4-.26.81-.46,1.21-.58.4-.12.79-.21,1.16-.23.37-.04.68-.04.95-.04h3.83v-1.5h2.87v12.35h2.59v2.22h-9.89v-.02ZM185.11,212.05c.14.33.32.58.53.78.21.19.44.33.68.44.25.11.47.18.72.21s.47.05.68.05h3.26v-8.61h-3.27c-.19,0-.4,0-.61.04-.21.02-.44.07-.65.16-.21.09-.42.19-.63.35-.19.16-.37.35-.53.6-.07.12-.14.26-.21.42-.07.16-.12.37-.18.62-.05.25-.09.53-.12.86-.04.33-.05.72-.05,1.16,0,.51,0,.95.03,1.29.04.35.05.63.09.86.04.23.07.41.11.51.03.12.07.21.09.26h.07ZM185.39,198.94v-2.29h2.85v2.29h-2.85ZM189.24,198.94v-2.29h2.85v2.29h-2.85Z"/>
      <path id="Vector_22" class="st17" d="M196.11,215.76v-2.22h2.1v-10.83h2.87v10.83h4.94v-10.83h2.87v10.83h2.66c.12,0,.26,0,.42-.02.16-.02.3-.04.46-.07.16-.04.32-.11.46-.18.14-.09.28-.19.4-.33.12-.12.21-.26.28-.42.07-.16.12-.32.18-.48.03-.16.07-.33.07-.49s.02-.32.02-.46v-8.37h2.85v8.83c0,.74-.12,1.41-.39,2.01h1.84v2.22h-22.04l.02-.02Z"/>
      <path id="Vector_23" class="st17" d="M222.84,213.54h4.94v-10.83h2.87v10.83h2.66c.12,0,.26,0,.42-.02.16-.02.3-.04.46-.07.16-.04.32-.11.46-.18.14-.09.28-.19.4-.33.12-.12.21-.26.28-.42.07-.16.12-.32.18-.48.04-.16.07-.33.07-.49s.02-.32.02-.46v-8.37h2.85v8.83c0,.65-.11,1.27-.3,1.81-.19.55-.49,1.02-.88,1.37-.25.21-.51.39-.79.53-.28.14-.58.25-.88.32-.3.07-.58.12-.86.16-.28.04-.54.04-.79.04h-16.11v-2.22h2.1v-10.83h2.87v10.83l.02-.02Z"/>
      <path id="Vector_24" class="st17" d="M240.98,217.84h5.46c.16,0,.33,0,.53-.02.19,0,.4-.04.65-.07.46-.05.88-.23,1.23-.51.42-.37.68-.86.77-1.5h-4.6c-.33,0-.67,0-1.03-.04-.37-.04-.72-.11-1.05-.21-.35-.11-.68-.28-1-.49-.32-.21-.6-.53-.84-.92-.67-1.04-1-2.73-1-5.06,0-1.02.09-1.94.25-2.75.17-.81.56-1.53,1.12-2.15.3-.33.61-.6.95-.79.33-.19.67-.33,1.02-.42.35-.09.68-.14,1.03-.18.35-.02.68-.04,1-.04h4.18c.39,0,.75.02,1.1.07.35.05.68.19,1,.44.33.28.54.6.61.93.09.35.14.67.14.95v8.44h1.68v2.22h-1.75c-.05.53-.16,1.04-.32,1.5-.16.46-.37.86-.67,1.23-.3.35-.65.65-1.05.85-.4.21-.81.37-1.23.48-.42.11-.81.18-1.17.21-.37.04-.67.05-.89.05h-6.13v-2.22l.02-.02ZM249.63,205.93c0-.18-.02-.33-.05-.48-.03-.12-.14-.25-.32-.37-.12-.09-.25-.14-.37-.16-.12-.02-.25-.04-.39-.04h-2.45c-.47,0-.91.07-1.3.21-.39.14-.7.33-.93.6-.19.23-.35.51-.46.85-.11.33-.19.67-.23,1.02-.04.35-.07.67-.09.97s0,.53,0,.69c0,.58.02,1.07.07,1.48.05.41.11.76.18,1.02.07.28.14.49.23.65.09.16.16.28.25.37.33.37.72.6,1.16.67.23.04.44.05.67.07.23,0,.44.02.65.02h3.41v-7.59l-.04.02ZM244.3,200.23h2.56s.07,0,.11-.02c.03,0,.05-.05.05-.09s0-.05-.02-.07c0,0-.07-.04-.16-.07-.09-.04-.26-.09-.47-.16-.21-.07-.54-.18-.96-.32-.4-.14-.7-.32-.88-.53-.18-.21-.26-.51-.26-.9,0-.48.12-.81.37-1,.25-.19.56-.28.95-.28h3.13v1.22h-2.71c-.07,0-.11.02-.11.09,0,.04.02.07.07.09.05.04.14.07.25.11.12.05.28.11.49.18.21.07.47.16.81.26.44.16.77.33,1,.56.23.23.33.56.33.99,0,.35-.1.65-.3.88-.21.23-.49.33-.86.33h-3.36v-1.27h-.02Z"/>
      <path id="Vector_25" class="st17" d="M253.83,215.74v-2.22h.47c.19,0,.4,0,.67-.02.25,0,.49-.07.75-.16.25-.09.49-.21.72-.41.23-.18.42-.44.58-.76.07-.16.16-.39.25-.7.09-.32.14-.78.18-1.39v-.85c0-.37,0-.78.05-1.25.03-.48.11-.95.23-1.44.12-.49.28-.97.51-1.43.23-.46.52-.86.91-1.22.35-.33.75-.6,1.21-.78.44-.18.89-.32,1.36-.41.47-.09.93-.14,1.4-.16.46-.02.89-.04,1.28-.04s.82,0,1.28.04c.45.02.93.07,1.38.16.47.09.93.23,1.37.41.44.18.84.44,1.21.78.39.35.68.76.91,1.22.21.46.39.93.49,1.43.11.49.17.95.21,1.41.04.46.05.85.05,1.2,0,.7-.03,1.32-.12,1.88s-.19,1.06-.35,1.48c-.14.44-.31.81-.52,1.15-.21.32-.42.6-.66.83-.35.33-.74.58-1.19.78-.45.18-.91.32-1.4.42-.49.11-.94.16-1.42.18-.45.02-.88.04-1.24.04s-.82,0-1.28-.04c-.45-.02-.93-.09-1.4-.18-.47-.09-.93-.23-1.36-.42-.44-.18-.84-.44-1.21-.78-.02,0-.05-.05-.11-.09-.26.28-.56.53-.89.7-.31.18-.65.32-1,.41-.33.09-.68.16-1.01.19-.35.04-.67.05-.98.05h-1.28l-.02-.02ZM261.2,205.79c-.25.3-.42.63-.52,1-.11.37-.17.74-.21,1.13-.04.39-.05.78-.04,1.15v1.07c.02.44.09.86.21,1.29.11.42.31.81.61,1.18.21.25.45.44.7.58.25.14.51.25.77.32.26.07.54.12.82.14.28.02.54.04.8.04s.54,0,.82-.04c.28-.02.54-.07.8-.14.26-.07.52-.18.77-.32.25-.14.47-.33.7-.58.21-.25.39-.49.49-.76.12-.26.19-.55.26-.83.05-.28.09-.58.09-.88v-1.66c0-.21,0-.44-.03-.69-.02-.23-.07-.48-.14-.7-.07-.23-.16-.46-.26-.69-.11-.21-.25-.41-.42-.58-.21-.23-.46-.42-.7-.55-.25-.14-.51-.25-.79-.32-.28-.07-.54-.12-.82-.14-.28-.02-.54-.04-.8-.04-.23,0-.49,0-.77.04-.28.02-.56.07-.84.14-.28.07-.56.18-.82.32-.26.14-.49.32-.7.55l.02-.04Z"/>
      <path id="Vector_26" class="st17" d="M156.51,298.95c-.33,0-.68-.04-1.07-.09-.39-.05-.75-.18-1.14-.35-.37-.18-.74-.44-1.07-.78-.33-.33-.63-.79-.88-1.36-.09-.19-.16-.42-.23-.67-.07-.25-.14-.55-.21-.88-.07-.33-.11-.7-.14-1.14-.04-.42-.05-.92-.05-1.46,0-.35,0-.7.03-1.09.02-.39.07-.76.14-1.15.07-.39.18-.76.3-1.13.14-.37.32-.72.53-1.04.32-.46.67-.81,1.07-1.07.4-.26.81-.46,1.21-.58.4-.12.79-.21,1.16-.23.37-.04.68-.04.95-.04h3.83v-1.5h2.87v12.35h2.59v2.22h-9.89v-.02ZM155.03,295.25c.14.33.32.58.53.78.21.19.44.33.68.44.25.11.47.18.72.21.25.04.47.05.68.05h3.26v-8.61h-3.27c-.19,0-.4,0-.61.04-.21.02-.44.07-.65.16-.21.09-.42.19-.63.35-.19.16-.37.35-.53.6-.07.12-.14.26-.21.42-.07.16-.12.37-.18.62-.05.25-.09.53-.12.86s-.05.72-.05,1.16c0,.51,0,.95.04,1.29.03.35.05.63.09.86.03.23.07.41.1.51.04.12.07.21.09.26h.07ZM155.31,282.14v-2.29h2.85v2.29h-2.85ZM159.17,282.14v-2.29h2.85v2.29h-2.85Z"/>
      <path id="Vector_27" class="st17" d="M166.1,298.93v-2.22h5.37v2.22h-5.37Z"/>
      <path id="Vector_28" class="st17" d="M171.26,298.93v-2.22h5.37v2.22h-5.37Z"/>
      <path id="Vector_29" class="st17" d="M176.43,298.93v-2.22h3.29c.53,0,.96-.05,1.28-.18.31-.12.58-.32.79-.6.23-.32.39-.67.44-1.07.07-.41.09-.81.09-1.25v-7.73h2.85v8.6c0,.44-.04.85-.1,1.2-.07.35-.16.67-.28.93-.12.26-.25.51-.4.72-.16.21-.32.39-.49.53-.26.25-.54.42-.82.56-.28.14-.58.25-.88.32-.3.07-.61.12-.93.14-.32.02-.65.04-1,.04h-3.87l.03.02ZM178.09,303.24v-2.29h2.85v2.29h-2.85ZM181.94,303.24v-2.29h2.85v2.29h-2.85Z"/>
      <path id="Vector_30" class="st17" d="M186.85,301.11h1.02c.28,0,.54-.04.75-.09.21-.05.42-.11.58-.18.17-.07.33-.18.51-.3.17-.12.31-.25.44-.41.12-.14.23-.32.32-.51.09-.19.14-.42.19-.69.05-.26.07-.56.07-.92v-12.14h2.85v10.83h2.14v2.22h-2.14c-.02.53-.11.97-.23,1.36-.12.39-.28.7-.44.99-.16.28-.33.49-.53.67-.18.18-.33.32-.46.42-.53.37-1.19.65-2.01.79-.81.16-1.84.21-3.06.16v-2.22Z"/>
      <path id="Vector_31" class="st17" d="M195.42,298.93v-2.22h.28c.53,0,.96-.05,1.28-.18.32-.12.58-.32.79-.6.21-.3.35-.65.42-1.02.07-.37.1-.78.1-1.2v-7.86h2.85v7.52l.05,1.78c.09.35.25.62.46.83.21.21.44.35.7.48.26.11.54.18.84.21.3.04.58.05.84.05h.32v2.22h-1.17c-.28,0-.56,0-.86-.04-.3-.02-.58-.07-.88-.12-.3-.07-.58-.16-.88-.3-.3-.14-.54-.32-.79-.53-.26.23-.53.41-.79.53-.28.12-.56.23-.86.3-.3.07-.6.11-.91.12-.32,0-.63.02-.96.02h-.86.02ZM196.58,303.24v-2.29h2.85v2.29h-2.85ZM200.43,303.24v-2.29h2.85v2.29h-2.85Z"/>
      <path id="Vector_32" class="st17" d="M204.12,298.93v-2.22h5.37v2.22h-5.37Z"/>
      <path id="Vector_33" class="st17" d="M209.29,298.93v-2.22h5.37v2.22h-5.37Z"/>
      <path id="Vector_34" class="st17" d="M214.24,298.95v-2.22h9.54c.12,0,.23-.05.33-.14.09-.09.16-.16.18-.25,0-.09.02-.18.02-.28v-6.13c0-.19-.02-.39-.05-.6-.03-.21-.14-.42-.31-.62-.19-.25-.42-.41-.67-.48-.26-.07-.49-.09-.72-.09h-6.39v-2.22h7.37c.54,0,1.07.09,1.54.26.47.18.86.42,1.16.74.28.28.51.67.68,1.18.18.51.26,1.15.26,1.9v6.75h2.33v2.22h-15.27v-.04ZM219.08,283.99v-2.29h2.85v2.29h-2.85Z"/>
      <path id="Vector_35" class="st17" d="M229.26,298.93v-2.22h1.4c.54,0,.96-.05,1.28-.18s.58-.32.79-.6c.23-.32.39-.67.44-1.07.07-.41.09-.81.09-1.25v-11.93h2.85v12.79c0,.44-.04.85-.11,1.2-.07.35-.16.67-.28.93-.12.26-.25.51-.4.72-.16.21-.31.39-.49.53-.26.25-.54.42-.82.56-.28.14-.58.25-.88.32-.3.07-.61.12-.93.14s-.65.04-1,.04h-1.98l.04.02Z"/>
      <path id="Vector_36" class="st17" d="M238.26,281.68h2.87v17.25h-2.87v-17.25Z"/>
    </g>
    <g id="Group_319">
      <path id="Vector_37" class="st7" d="M381.02,264.44c2.72,1.87,4.03,3.86,4.03,7.06-.05,10.74.08,21.5-.08,32.24-.05,3.1.88,4.07,3.99,4.04,16.08-.14,32.16-.06,48.23-.08.56,0,1.13-.05,1.77-.11.86-.08,1.53-.8,1.53-1.69v-3.01c0-10.52-.05-21.05.05-31.57,0-1.19.4-2.75,1.2-3.51,3.23-3.06,6.68-5.85,10.07-8.75,1.41-1.21,2.83-2.4,4.41-3.75.8-.68.8-1.91,0-2.59-5.31-4.49-10.36-8.76-15.41-13.04-.62-.53-1.53-.53-2.16,0-5.24,4.34-10.13,8.46-15.1,12.48-1.7,1.37-1.73,2.43.02,3.7l6.59,5.87c1.68,1.46,3.18.74,5.4-1.22,1.95-1.72,1.74-1.83-.16-3.14-3.44-2.33-3.45-4.13-.43-6.61,1.15-.93,2.41-1.72,3.68-2.56.57-.37,1.33-.35,1.88.03,1.77,1.25,3.5,2.44,5.16,3.73,1.71,1.33,1.68,2.81,0,4.18-2.86,2.33-5.56,4.95-8.7,6.85-2.04,1.25-2.35,2.65-2.33,4.68.05,10.52,0,21.05.03,31.57,0,1.74-.39,2.72-2.41,2.73-2.06,0-2.78-.5-2.75-2.54v-19.46c0-1.8-1.47-3.26-3.26-3.26h-.06c-1.79,0-3.24,1.46-3.24,3.26v19.47c.03,2.15-1.26,2.56-3.1,2.51-1.87-.05-3.01-.31-2.97-2.44l-.03-19.55c0-1.8-1.45-3.26-3.24-3.26h-.74c-1.79,0-3.24,1.46-3.24,3.26v19.06c.05,2.04-.97,3.02-2.72,2.91-1.61-.11-3.63.13-3.59-2.59l-.03-19.31c0-1.8-1.45-3.26-3.24-3.26h-.83c-1.79,0-3.25,1.46-3.26,3.26v19.33c-.03.45-.34.88-.7,1.32-.59.68-1.61.76-2.32.19-.54-.43-1.02-.88-1.09-1.4-.38-2.61-.37-5.31-.32-7.94.16-6.96.56-13.93.62-20.91.03-3.23-.42-6.38-3.6-8.51-2.81-1.88-5.18-4.42-7.94-6.42-2.03-1.46-1.12-2.52-.78-2.83,1.87-1.66,3.96-3.07,6.09-4.42.57-.37,1.74-.63,2.16-.31,1.82,1.43,3.55,2.99,5.35,4.6.75.68.75,1.85,0,2.52-.96.87-1.85,1.67-2.75,2.49-.77.69-.74,1.9.05,2.56.69.58,1.34,1.13,1.98,1.67.59.5,1.42.51,2.05.08,2.68-1.9,4.03-2.85,6.57-4.81,2.25-1.74,2.25-4.9-.59-6.96-2.44-1.77-5.07-3.65-6.58-5.07-5.93-5.52-7.27-6-12.18-2.4-.03.02-.05.03-.08.05-3.96,3.15-7.91,6.3-12.1,9.63-.83.66-.85,1.93-.05,2.62,3.92,3.36,7.38,6.58,11.23,9.23l.03.06Z"/>
      <path id="Vector_38" class="st6" d="M458.67,279.53c0-2.03-.3-3.52-2.17-4.86-2.57-1.85-4.95-3.97-7.35-6.03-1.01-.87-2.49-.84-3.47.08l-.97.93c-.96.92-.96,2.46,0,3.36l1.92,1.8c1.71,2.03,4.67,3.07,4.59,6.64-.21,8.59-.13,17.19-.03,25.79.03,2.49-.99,3.46-3.39,3.46-23.27-.02-46.54-.03-69.81.03-2.19,0-2.97-.8-2.96-2.99.06-9.17,0-18.32.05-27.48,0-.93.26-2.17.88-2.75,1.15-1.06,4.03-3.3,5.75-4.62.78-.61.99-1.72.46-2.56l-1.37-2.2c-.59-.95-1.87-1.19-2.76-.51-2.09,1.56-3.79,2.81-5.43,4.13-3.05,2.44-5.39,4.89-5.15,9.63.49,10.39.27,20.81.05,31.21-.06,3.36,1.02,4.1,4.19,4.08,27.65-.11,55.3-.06,82.96-.08,1.2,0,2.41-.11,4.01-.19v-3.92c0-10.97-.05-21.95,0-32.92l.02-.05Z"/>
      <path id="Vector_39" class="st3" d="M391.09,239.26c2.09,1.77,4.19,3.55,6.3,5.32,3.85,3.22,7.94,6.18,11.51,9.68,3.5,3.44,5.03,3.68,8.71.55,6.33-5.44,12.83-10.65,19.18-16.05,3.71-3.15,7.3-6.42,11.12-9.81,1.25-1.11,1.23-3.09-.05-4.17-4.92-4.18-9.61-8.19-14.42-12.04-.67-.53-2.54-.43-3.26.13-5.07,4.08-10.01,8.31-14.9,12.62-.51.45-.78,2.14-.45,2.43,2.75,2.4,5.47,5.02,8.65,6.67,1.18.61,4.12-.63,5.29-1.93,1.53-1.7-.67-2.43-1.97-3.3-.99-.68-1.68-1.82-2.49-2.75,2.67-1.96,5.32-3.96,8.02-5.87.18-.11.8.31,1.14.56,1.49,1.16,2.94,2.35,4.41,3.52,1.74,1.38,1.79,2.75-.08,4.15-2.57,1.93-5.15,3.84-7.59,5.93-5.5,4.71-10.9,9.55-16.72,14.67-1.89-1.7-3.47-3.15-5.07-4.57-2.14-1.88-4.25-3.8-6.44-5.6-4.27-3.51-8.61-6.93-12.86-10.45-.56-.45-1.07-1.3-1.1-1.98-.13-2.44,6.47-6.45,8.5-5.11,2.33,1.54,4.51,3.33,6.33,4.68-1.65,1.99-3.58,3.7-4.46,5.84-.26.63,3.21,3.06,4.14,3.94,1.79-1.51,7.62-6.79,9.57-8.31.27-.21,0-1.8-.5-2.22-4.38-3.8-8.82-7.54-13.34-11.16-1.42-1.13-2.86-3.43-5.11-1.58-4.65,3.81-9.22,7.7-13.92,11.69-1.39,1.17-1.37,3.31,0,4.49,4.03,3.39,7.96,6.72,11.89,10.05l-.03-.03Z"/>
      <path id="Vector_40" class="st14" d="M416.5,221.99c2.3-1.93,4.64-3.83,6.94-5.74,1.77-1.48,1.63-2.96-.08-4.37-5.86-4.79-11.73-9.57-16.7-13.62.86-1.32,2.17-2.8,3.45-3.89,1.97-1.66,3.67-3.76,6.47-1.82,1.82,1.27,3.5,2.75,5.34,4.21-2.13,2.36-3.53,3.91-4.91,5.42,3.37,4.95,3.71,4.9,7.67,1.19,2.27-2.14,4.91-3.88,7.4-5.82-5.07-4.29-10.04-8.44-14.94-12.66-2.85-2.44-4.97-1.91-7.7.66-.8.74-9.25,7.93-12.91,11.02-.34.29-.22,1.87.19,2.2,3.64,2.98,7.43,5.76,11.12,8.67,1.89,1.48,3.72,3.02,5.47,4.68.53.5.64,1.42.94,2.14-.3.21-.61.43-.91.64-6.5-5.34-13.01-10.66-19.51-15.98-1.79,1.51-3.32,2.81-4.89,4.13,7.3,6.32,14.27,12.46,21.37,18.46,1.8,1.53,3.98,2.3,6.2.45v.03Z"/>
      <path id="Vector_41" class="st13" d="M406.45,266.68l-2.88,2.9c-.52.53-.52,1.38,0,1.91l2.88,2.9c.52.53,1.37.53,1.9,0l2.88-2.9c.52-.53.52-1.38,0-1.91l-2.88-2.9c-.52-.53-1.37-.53-1.9,0Z"/>
      <path id="Vector_42" class="st11" d="M419.55,266.67l-2.88,2.9c-.52.53-.52,1.38,0,1.91l2.88,2.9c.52.53,1.37.53,1.9,0l2.88-2.9c.52-.53.52-1.38,0-1.91l-2.88-2.9c-.52-.53-1.37-.53-1.9,0Z"/>
      <path id="Vector_43" class="st10" d="M413.07,259.99l-2.88,2.9c-.52.53-.52,1.38,0,1.91l2.88,2.9c.52.53,1.37.53,1.9,0l2.88-2.9c.52-.53.52-1.38,0-1.91l-2.88-2.9c-.52-.53-1.37-.53-1.9,0Z"/>
      <path id="Vector_44" class="st15" d="M410.08,241.87l2.58-2.59c.48-.48,1.23-.47,1.7,0l2.58,2.59c.48.48.46,1.24,0,1.71l-2.58,2.59c-.47.48-1.23.47-1.7,0l-2.58-2.59c-.48-.48-.46-1.24,0-1.71Z"/>
      <path id="Vector_45" class="st12" d="M410.07,232.61l2.58-2.59c.48-.48,1.23-.47,1.7,0l2.58,2.59c.47.48.46,1.24,0,1.71l-2.58,2.59c-.48.48-1.23.47-1.7,0l-2.58-2.59c-.47-.48-.46-1.24,0-1.71Z"/>
      <path id="Vector_46" class="st18" d="M439.69,240.13c.21,0,.42.08.56.21l5.08,4.29,10.32,8.75c.21.18.32.42.32.68s-.11.51-.32.68l-.35.31c-1.44,1.22-2.75,2.33-4.06,3.44-.86.74-1.73,1.46-2.59,2.19-2.49,2.11-5.08,4.29-7.51,6.58-1.06,1-1.44,2.83-1.45,4.08-.06,8.14-.06,16.4-.05,24.4v10.2c0,.47-.35.84-.8.88-.61.06-1.15.1-1.7.1h-23.19c-7.42,0-16.19,0-25.08.08h-.13c-1.28,0-2.08-.19-2.48-.61-.42-.43-.61-1.24-.57-2.62.09-6.72.09-13.56.08-20.17v-12.09c0-3.3-1.3-5.61-4.36-7.73-2.99-2.06-5.77-4.49-8.71-7.04-.8-.71-1.63-1.42-2.46-2.14-.21-.18-.32-.43-.3-.69,0-.27.13-.51.34-.68l.51-.42c3.98-3.18,7.78-6.19,11.55-9.2l.05-.03h.03c2.13-1.59,3.34-2.17,4.43-2.17,1.63,0,3.4,1.38,6.73,4.49,1.55,1.45,4.12,3.3,6.66,5.13,1.2.87,1.87,1.96,1.89,3.12.02.98-.45,1.88-1.31,2.54-2.32,1.78-3.66,2.73-5.88,4.33l-.66.47c-.14.11-.34.16-.51.16-.21,0-.4-.06-.56-.21l-.97-.82-1.01-.85c-.19-.16-.32-.4-.32-.68,0-.26.09-.5.29-.68l.86-.77,1.88-1.72c.53-.48.82-1.16.82-1.87s-.3-1.38-.83-1.87l-.37-.34c-1.7-1.51-3.31-2.94-5.02-4.31-.27-.21-.62-.32-1.07-.32-.65,0-1.47.24-2,.58-1.95,1.25-4.2,2.73-6.18,4.5-.51.47-.8,1.09-.77,1.72.05.84.59,1.62,1.62,2.36,1.25.9,2.43,1.93,3.58,2.94,1.39,1.21,2.81,2.44,4.38,3.51,2.72,1.82,3.26,4.45,3.23,7.83-.03,4.13-.19,8.33-.34,12.38-.1,2.78-.21,5.66-.27,8.51-.06,2.46-.08,5.32.32,8.09.11.79.74,1.38,1.39,1.9.45.35.99.55,1.57.55.72,0,1.39-.31,1.85-.85.43-.5.86-1.09.88-1.83v-19.33c.02-1.35,1.12-2.46,2.46-2.46h.83c1.34,0,2.45,1.11,2.45,2.46l.03,19.3c-.05,3.22,2.38,3.33,3.84,3.39.17,0,.34,0,.49.03h.32c.96,0,1.77-.31,2.33-.9.64-.66.94-1.62.89-2.83v-19.06c0-1.35,1.12-2.46,2.46-2.46h.74c1.34,0,2.44,1.11,2.44,2.46l.03,19.54c-.05,3.15,2.33,3.22,3.76,3.25h.3c.83,0,2.03-.1,2.83-.9.56-.56.82-1.35.82-2.41v-19.47c-.02-.66.24-1.27.7-1.74.46-.47,1.07-.72,1.8-.72,1.34,0,2.45,1.11,2.45,2.46v19.44c0,.82.06,1.85.75,2.56.69.71,1.76.8,2.7.8h.09c2.85-.02,3.21-1.8,3.21-3.54-.02-5.02,0-10.03,0-15.05,0-5.5,0-11.02-.02-16.52,0-1.93.27-2.96,1.95-3.99,2.29-1.4,4.36-3.17,6.38-4.89.8-.68,1.6-1.37,2.41-2.03,1.06-.87,1.58-1.8,1.58-2.78s-.54-1.87-1.58-2.67c-1.37-1.06-2.75-2.04-4.22-3.07l-.96-.68c-.42-.31-.91-.45-1.44-.45-.48,0-.94.14-1.34.4l-.54.35c-1.07.69-2.19,1.42-3.2,2.25-1.1.9-2.57,2.32-2.49,4,.06,1.32,1.01,2.56,3.05,3.94.42.29.89.61,1.07.79-.21.29-.83.84-1.05,1.03-1.42,1.25-2.35,1.8-3.08,1.8-.42,0-.83-.18-1.28-.58l-6.65-5.92c-.62-.45-.96-.87-.97-1.16,0-.18.11-.58.97-1.27,3.8-3.07,7.51-6.18,11.46-9.46l3.66-3.04c.16-.13.35-.21.56-.21M439.74,239.26c-.38,0-.77.13-1.07.39-5.24,4.34-10.13,8.46-15.1,12.48-1.7,1.37-1.73,2.43.02,3.7l6.59,5.87c.61.53,1.2.77,1.8.77,1.07,0,2.19-.74,3.61-1.99,1.95-1.72,1.74-1.83-.16-3.14-3.44-2.33-3.45-4.13-.43-6.61,1.15-.93,2.41-1.72,3.67-2.56.27-.18.59-.27.91-.27s.69.1.97.31c1.77,1.25,3.5,2.44,5.16,3.73,1.71,1.33,1.68,2.81,0,4.18-2.86,2.33-5.56,4.95-8.69,6.85-2.05,1.25-2.35,2.65-2.33,4.68.05,10.52,0,21.05.03,31.57,0,1.74-.38,2.72-2.41,2.73h-.1c-1.98,0-2.68-.51-2.65-2.54v-19.46c0-1.8-1.47-3.26-3.26-3.26h-.06c-1.79,0-3.25,1.46-3.25,3.26v19.47c.03,2.04-1.13,2.51-2.81,2.51h-.27c-1.87-.05-3.01-.31-2.97-2.44l-.03-19.55c0-1.8-1.45-3.26-3.24-3.26h-.74c-1.79,0-3.24,1.46-3.24,3.26v19.06c.05,1.95-.86,2.93-2.44,2.93h-.27c-1.61-.11-3.63.13-3.59-2.59l-.03-19.31c0-1.8-1.45-3.26-3.24-3.26h-.83c-1.79,0-3.24,1.46-3.24,3.26v19.33c-.03.45-.34.88-.7,1.32-.32.39-.78.58-1.25.58-.37,0-.75-.13-1.05-.37-.54-.43-1.02-.88-1.1-1.4-.38-2.61-.37-5.31-.32-7.96.16-6.96.56-13.93.62-20.91.03-3.23-.42-6.38-3.59-8.51-2.81-1.88-5.18-4.42-7.94-6.42-2.03-1.46-1.12-2.52-.78-2.83,1.87-1.66,3.96-3.07,6.09-4.42.4-.26,1.05-.45,1.58-.45.24,0,.45.05.57.14,1.82,1.43,3.55,2.99,5.35,4.6.75.68.75,1.85,0,2.52-.96.87-1.85,1.67-2.75,2.49-.77.69-.74,1.9.05,2.56.69.58,1.34,1.13,1.98,1.67.31.26.69.39,1.07.39.34,0,.69-.1.97-.31,2.68-1.9,4.03-2.85,6.57-4.81,2.25-1.74,2.25-4.9-.59-6.96-2.45-1.77-5.07-3.65-6.59-5.07-3.44-3.2-5.32-4.71-7.27-4.71-1.41,0-2.84.79-4.91,2.32l-.08.05c-3.96,3.15-7.91,6.3-12.1,9.63-.83.66-.85,1.93-.05,2.62,3.92,3.36,7.38,6.58,11.24,9.23,2.72,1.87,4.03,3.86,4.03,7.06-.05,10.74.08,21.5-.08,32.24-.05,3.06.85,4.04,3.87,4.04h.13c8.36-.08,16.72-.1,25.08-.1h23.17c.56,0,1.13-.05,1.77-.11.86-.08,1.53-.8,1.53-1.69v-3.01c0-10.52-.05-21.05.05-31.57,0-1.19.4-2.75,1.2-3.51,3.23-3.06,6.68-5.85,10.07-8.75,1.41-1.21,2.83-2.4,4.41-3.75.8-.68.8-1.91,0-2.59-5.31-4.49-10.36-8.76-15.41-13.04-.32-.26-.7-.4-1.09-.4l-.03.08Z"/>
      <path id="Vector_47" class="st18" d="M379.13,268.03c.39,0,.74.19.94.53l1.37,2.22c.3.5.19,1.14-.27,1.5-2.03,1.56-4.68,3.63-5.8,4.66-.83.76-1.12,2.22-1.14,3.35-.03,4.45-.03,8.89-.02,13.35,0,4.63,0,9.42-.03,14.14,0,1.35.27,2.27.88,2.89.61.61,1.52.9,2.88.9,13.49-.03,26.98-.05,40.48-.05h29.34c1.47,0,2.48-.34,3.16-1.05.69-.71,1.02-1.75,1.01-3.23-.08-7.49-.17-16.84.03-25.76.06-2.93-1.66-4.39-3.19-5.69-.59-.5-1.14-.96-1.58-1.5l-.03-.03-.03-.03-1.92-1.8c-.3-.29-.48-.68-.48-1.09s.16-.8.46-1.09l.98-.93c.34-.32.77-.5,1.23-.5.43,0,.83.16,1.17.43l.86.74c2.09,1.82,4.25,3.68,6.55,5.34,1.57,1.11,1.84,2.28,1.84,4.2-.03,8.15-.03,16.43-.02,24.44v11.63c-.26,0-.51.03-.75.05-.91.06-1.68.11-2.46.11h-36.85c-13.73,0-29.94,0-46.2.08-1.5,0-2.32-.19-2.75-.63-.42-.42-.59-1.27-.56-2.64v-.42c.22-10.11.45-20.57-.05-30.84-.22-4.52,2.06-6.72,4.86-8.96,1.37-1.11,2.8-2.17,4.46-3.39l.96-.71c.19-.14.43-.23.67-.23M379.13,267.21c-.4,0-.8.13-1.13.39-2.09,1.56-3.79,2.81-5.43,4.13-3.05,2.44-5.38,4.89-5.15,9.62.49,10.39.27,20.81.05,31.21-.06,3.33,1.01,4.08,4.11,4.08h.08c15.37-.06,30.75-.08,46.12-.08h36.84c1.2,0,2.41-.11,4.01-.19v-3.92c0-10.97-.05-21.93,0-32.92,0-2.03-.3-3.52-2.17-4.86-2.57-1.85-4.95-3.96-7.35-6.03-.48-.42-1.09-.63-1.68-.63-.64,0-1.28.24-1.79.71l-.97.93c-.96.92-.96,2.46,0,3.36l1.92,1.8c1.71,2.03,4.68,3.07,4.59,6.64-.19,8.59-.13,17.19-.03,25.79.03,2.49-.99,3.46-3.37,3.46h-29.33c-13.49,0-26.99,0-40.48.05h-.02c-2.17,0-2.94-.82-2.92-2.99.06-9.17,0-18.32.05-27.48,0-.93.26-2.17.88-2.75,1.15-1.06,4.03-3.3,5.75-4.62.78-.61.99-1.72.46-2.56l-1.37-2.22c-.37-.58-.99-.9-1.63-.9l-.02-.03Z"/>
      <path id="Vector_48" class="st18" d="M394.73,213.16c.7,0,1.41.68,2.09,1.32.29.27.58.55.86.77,3.99,3.17,8.23,6.72,13.31,11.13.16.16.32.8.34,1.14-1.31,1.05-3.84,3.28-6.07,5.26-1.1.96-2.1,1.85-2.81,2.48-.24-.21-.53-.43-.85-.69-.73-.6-2.05-1.64-2.44-2.15.61-1.3,1.68-2.49,2.78-3.73.48-.53.97-1.08,1.44-1.66l.54-.66-.67-.5c-.53-.39-1.07-.82-1.66-1.27-1.42-1.09-3.02-2.33-4.72-3.44-.4-.26-.89-.4-1.49-.4-2.24,0-5.34,1.82-6.94,3.51-.91.96-1.34,1.88-1.31,2.72.05,1.01.77,2.04,1.39,2.56,2.32,1.91,4.7,3.84,7,5.69,1.97,1.58,3.92,3.17,5.87,4.76,1.76,1.45,3.52,2.99,5.19,4.49l1.23,1.09c1.09.97,2.17,1.93,3.34,2.99l1.73,1.56.53.47.53-.47c1.71-1.5,3.37-2.97,5.04-4.44,4.01-3.54,7.8-6.9,11.68-10.23,2.27-1.95,4.72-3.78,7.06-5.53l.48-.35c1.12-.84,1.7-1.75,1.71-2.7,0-.95-.53-1.87-1.63-2.72-.59-.47-1.17-.93-1.76-1.4-.88-.71-1.76-1.42-2.65-2.11-.97-.76-1.41-.76-1.53-.76-.19,0-.38.06-.54.16-2.22,1.56-4.43,3.2-6.57,4.78l-1.47,1.09-.7.51.57.66c.24.27.48.58.7.87.58.72,1.15,1.48,1.95,2.03.24.16.53.34.8.5.48.27,1.28.74,1.33,1.05,0,.08-.06.27-.32.56-.83.92-2.75,1.82-3.9,1.82-.26,0-.38-.05-.43-.06-2.62-1.37-4.97-3.46-7.24-5.47-.37-.34-.75-.66-1.12-.98-.03-.35.16-1.14.32-1.32,5.66-4.99,10.37-8.99,14.86-12.61.19-.14.72-.31,1.34-.31.51,0,.83.11.91.18,4.28,3.44,8.42,6.96,12.8,10.68l1.6,1.35c.43.37.69.9.69,1.46s-.22,1.11-.65,1.48l-2.01,1.8c-3.12,2.78-6.06,5.42-9.09,8.01-2.96,2.51-5.99,5.02-8.93,7.46-3.37,2.8-6.87,5.68-10.26,8.59-1.65,1.42-2.75,2.01-3.66,2.01-1.01,0-2.11-.71-3.96-2.52-2.48-2.43-5.23-4.63-7.9-6.75-1.23-.98-2.46-1.96-3.66-2.96-1.52-1.27-3.02-2.54-4.54-3.83l-1.76-1.5-11.89-10.05c-.48-.4-.75-1-.75-1.62s.27-1.22.75-1.62l2.21-1.88c4.01-3.39,7.78-6.61,11.7-9.81.42-.35.8-.51,1.15-.51M394.65,212.31c-.51,0-1.06.19-1.66.69-4.65,3.81-9.22,7.7-13.92,11.69-1.39,1.17-1.37,3.31,0,4.49,4.03,3.39,7.96,6.72,11.89,10.05,2.09,1.77,4.19,3.55,6.3,5.32,3.85,3.22,7.94,6.18,11.51,9.68,1.85,1.82,3.16,2.75,4.52,2.75,1.21,0,2.46-.72,4.19-2.2,6.33-5.44,12.83-10.65,19.18-16.05,3.71-3.15,7.3-6.42,11.12-9.81,1.25-1.11,1.23-3.09-.05-4.17-4.92-4.18-9.61-8.19-14.42-12.04-.3-.24-.85-.35-1.41-.35-.7,0-1.45.18-1.84.48-5.07,4.08-10,8.31-14.9,12.62-.51.45-.78,2.14-.45,2.43,2.75,2.4,5.47,5.02,8.65,6.67.21.11.48.16.8.16,1.39,0,3.55-1.03,4.49-2.09,1.54-1.7-.67-2.43-1.96-3.3-.99-.68-1.68-1.82-2.49-2.75,2.67-1.96,5.32-3.96,8.02-5.87.02,0,.05-.02.08-.02.24,0,.75.35,1.06.58,1.48,1.16,2.94,2.35,4.41,3.52,1.74,1.38,1.79,2.75-.08,4.15-2.57,1.93-5.15,3.84-7.59,5.93-5.5,4.71-10.9,9.55-16.72,14.67-1.88-1.7-3.47-3.15-5.07-4.57-2.14-1.88-4.25-3.8-6.44-5.6-4.27-3.51-8.62-6.93-12.87-10.45-.56-.45-1.07-1.3-1.1-1.98-.11-2.11,4.79-5.39,7.45-5.39.42,0,.78.08,1.05.26,2.33,1.54,4.51,3.33,6.33,4.68-1.65,1.99-3.58,3.7-4.46,5.84-.26.63,3.21,3.06,4.14,3.94,1.79-1.51,7.62-6.79,9.57-8.31.27-.21,0-1.8-.49-2.22-4.38-3.8-8.82-7.54-13.34-11.16-1.04-.82-2.08-2.28-3.45-2.28h-.05Z"/>
      <path id="Vector_49" class="st18" d="M413.62,184.13c.89,0,1.85.45,2.94,1.38,3.45,2.96,6.84,5.82,10.44,8.84,1.25,1.05,2.49,2.11,3.76,3.17-.51.39-1.04.77-1.55,1.16-1.73,1.29-3.52,2.61-5.11,4.1-1.58,1.48-2.65,2.46-3.31,2.46s-1.58-1.21-2.8-2.99l4.47-4.95.58-.64-.67-.53c-.58-.45-1.14-.92-1.68-1.37-1.25-1.03-2.43-1.99-3.71-2.88-.89-.63-1.76-.93-2.62-.93-1.66,0-2.93,1.11-4.14,2.19-.22.19-.45.4-.69.6-1.31,1.11-2.67,2.62-3.61,4.05l-.4.61.56.47,4.09,3.33c3.96,3.23,8.3,6.75,12.61,10.28.48.39,1.05,1,1.05,1.59,0,.47-.32.98-.97,1.53-1.1.92-2.22,1.83-3.32,2.75-1.2,1-2.41,1.99-3.61,2.99-.72.61-1.44.9-2.21.9-.93,0-1.92-.45-2.99-1.35-5.15-4.36-10.15-8.7-15.44-13.32-1.73-1.5-3.45-3.01-5.21-4.52l2.33-1.98,1.33-1.13,8.44,6.91,10.56,8.65.46.39.49-.35.45-.32.45-.32.53-.37-.25-.6c-.08-.21-.16-.43-.22-.64-.19-.6-.4-1.29-.91-1.77-1.61-1.51-3.42-3.07-5.51-4.73-1.45-1.14-2.91-2.27-4.36-3.38-2.22-1.7-4.54-3.47-6.7-5.23-.11-.18-.19-.84-.13-1.11,3.4-2.88,12.03-10.18,12.85-10.95,1.49-1.4,2.62-2.03,3.69-2.03M413.62,183.33c-1.37,0-2.72.8-4.25,2.24-.78.74-9.25,7.93-12.91,11.02-.34.29-.22,1.87.19,2.2,3.64,2.98,7.43,5.76,11.12,8.67,1.89,1.48,3.72,3.02,5.47,4.68.53.5.64,1.42.94,2.14-.3.21-.61.43-.91.64-6.51-5.32-13.01-10.66-19.51-15.98-1.79,1.51-3.32,2.81-4.89,4.13,7.3,6.32,14.27,12.46,21.37,18.46,1.05.9,2.25,1.53,3.5,1.53.88,0,1.79-.32,2.7-1.08,2.3-1.93,4.63-3.83,6.94-5.74,1.77-1.48,1.63-2.96-.08-4.37-5.87-4.79-11.73-9.57-16.7-13.62.86-1.32,2.17-2.8,3.45-3.89,1.41-1.19,2.67-2.61,4.32-2.61.65,0,1.36.23,2.16.79,1.82,1.27,3.5,2.75,5.34,4.21-2.13,2.36-3.53,3.91-4.91,5.42,1.79,2.64,2.73,3.86,3.82,3.86.94,0,2.01-.93,3.85-2.67,2.27-2.14,4.91-3.88,7.4-5.82-5.07-4.29-10.04-8.44-14.94-12.66-1.25-1.05-2.37-1.54-3.45-1.54Z"/>
      <path id="Vector_50" class="st18" d="M407.34,267.09c.14,0,.29.06.38.16l2.88,2.89c.21.21.21.56,0,.77l-2.88,2.89c-.1.1-.24.16-.38.16s-.29-.06-.39-.16l-2.88-2.89c-.09-.1-.16-.24-.16-.39s.06-.29.16-.39l2.88-2.89c.1-.1.24-.16.39-.16ZM407.34,266.29c-.35,0-.69.13-.96.4l-2.88,2.89c-.53.53-.53,1.38,0,1.91l2.88,2.89c.26.26.61.4.96.4s.69-.13.96-.4l2.88-2.89c.53-.53.53-1.38,0-1.91l-2.88-2.89c-.25-.26-.61-.4-.96-.4Z"/>
      <path id="Vector_51" class="st18" d="M420.45,267.09c.14,0,.29.06.38.16l2.88,2.89c.1.1.16.24.16.39s-.06.29-.16.39l-2.88,2.89c-.09.1-.24.16-.38.16s-.29-.06-.38-.16l-2.88-2.89c-.09-.1-.16-.24-.16-.39s.06-.29.16-.39l2.88-2.89c.09-.1.24-.16.38-.16ZM420.45,266.29c-.35,0-.69.13-.96.4l-2.88,2.89c-.53.53-.53,1.38,0,1.91l2.88,2.89c.26.26.61.4.96.4s.69-.13.96-.4l2.88-2.89c.53-.53.53-1.38,0-1.91l-2.88-2.89c-.26-.26-.61-.4-.96-.4Z"/>
      <path id="Vector_52" class="st18" d="M413.96,260.41c.14,0,.29.06.38.16l2.88,2.89c.1.1.16.24.16.39s-.06.29-.16.39l-2.88,2.89c-.09.1-.24.16-.38.16s-.29-.06-.38-.16l-2.88-2.89c-.09-.1-.16-.24-.16-.39s.06-.29.16-.39l2.88-2.89c.09-.1.24-.16.38-.16ZM413.96,259.6c-.35,0-.69.13-.96.4l-2.88,2.89c-.53.53-.53,1.38,0,1.91l2.88,2.89c.26.26.61.4.96.4s.69-.13.96-.4l2.88-2.89c.53-.53.53-1.38,0-1.91l-2.88-2.89c-.26-.26-.61-.4-.96-.4Z"/>
      <path id="Vector_53" class="st18" d="M413.45,239.71s.18,0,.29.11l2.57,2.59c.16.16.16.42,0,.58l-2.57,2.59c-.09.1-.22.11-.29.11s-.17,0-.29-.11l-2.57-2.59c-.16-.16-.16-.42,0-.58l2.57-2.59c.09-.1.22-.11.29-.11ZM413.45,238.9c-.3,0-.62.11-.85.35l-2.57,2.59c-.46.47-.46,1.24,0,1.72l2.57,2.59c.24.24.54.35.85.35s.62-.11.85-.35l2.57-2.59c.46-.47.46-1.24,0-1.72l-2.57-2.59c-.24-.24-.54-.35-.85-.35Z"/>
      <path id="Vector_54" class="st18" d="M413.45,230.46s.18,0,.29.11l2.57,2.59c.1.1.11.23.11.29s0,.18-.11.29l-2.57,2.59c-.09.1-.22.11-.29.11s-.17,0-.29-.11l-2.57-2.59c-.1-.1-.11-.23-.11-.29s0-.18.11-.29l2.57-2.59c.09-.1.22-.11.29-.11ZM413.45,229.66c-.3,0-.62.11-.85.35l-2.57,2.59c-.46.47-.46,1.24,0,1.72l2.57,2.59c.24.24.54.35.85.35s.62-.11.85-.35l2.57-2.59c.46-.47.46-1.24,0-1.72l-2.57-2.59c-.24-.24-.54-.35-.85-.35Z"/>
    </g>
  </g>
</svg>