<?xml version="1.0" encoding="UTF-8"?>
<svg id="Layer_1" xmlns="http://www.w3.org/2000/svg" version="1.1" viewBox="0 0 500 500">
  <!-- Generator: Adobe Illustrator 30.5.1, SVG Export Plug-In . SVG Version: 2.1.4 Build 3)  -->
  <defs>
    <style>
      .st0 {
        fill: #1b7f7e;
      }
    </style>
  </defs>
  <path class="st0" d="M403.19,256.63c-.61.88-1.53,1.67-1.78,2.65-2.69,10.22-10.45,14.36-19.51,18.15-17.82,7.44-35,16.4-52.83,23.8-9.74,4.04-20.13,6.77-30.47,9.02-9.87,2.15-16.65-3.66-18-13.91-.18-1.34-.58-2.65-1.2-5.45-2.68,2.68-4.6,4.39-6.25,6.31-6.81,7.91-13.97,15.08-24.98,16.94-13.67,2.31-21.66-2.6-23.52-16.11-1.32-9.56,1.54-18.65,6.39-28.29-.88,6.19-2.04,11.13-2.18,16.09-.23,8.26,4.09,11.98,12.27,12.44,12.04.68,21.87-3.64,30.22-12.01,4.09-4.1,8.3-8.07,12.45-12.1.54.36,1.08.71,1.61,1.07,0,3.28-.54,6.67.11,9.81,1.33,6.39,4.62,8.62,11.03,8.84,9.7.34,18.87-1.64,28.46-5.68-4.26-3.5-8.18-6.28-11.58-9.59-10.44-10.13-15.58-22.42-14.2-37.12,1.17-12.54,12.38-24.75,27.14-27.48,17.46-3.23,33.19,1.56,46.28,12.87-8.87-.67-18.12-2.56-27.13-1.74-11.02,1-22,3.68-32.68,6.75-7.66,2.2-8.81,5.89-5.34,13.18,6.42,13.49,15.89,24.04,30.21,29.57,6.53,2.52,13.02,2.72,19.49-.07,13.1-5.65,26.18-11.36,39.3-16.97,2.13-.91,4.44-1.39,6.66-2.06v1.09Z"/>
  <path class="st0" d="M96.81,235.99c1.15-5.07,1.86-10.3,3.56-15.18,2.23-6.4,5.24-12.52,7.91-18.77.47.19.94.38,1.41.57-1.64,4.21-3.46,8.36-4.88,12.64-1.47,4.43-3.19,8.91-3.72,13.5-1.65,14.35,5.91,24.18,22.33,29.3,16.08,5.01,32.48,4.35,48.8,1.63,24.36-4.06,47.2-12.9,69.77-22.67,6.68-2.89,13.93-4.93,21.12-6.04,6.22-.95,9.08,2.36,8.48,8.74-.34,3.64-1.55,7.46-3.35,10.65-2.56,4.53-5.91,8.64-9.1,12.78-7.36,9.54-14.83,19-21.33,27.31,1.98-16.78,18.24-27.31,26.38-42.48-.39-.68-.78-1.35-1.16-2.03-4.2.84-8.57,1.2-12.57,2.61-18.7,6.6-37.16,13.92-55.98,20.16-17.5,5.81-35.58,9.91-54.14,9.14-7.92-.33-16.14-2.31-23.49-5.33-11.36-4.67-17.38-14.16-18.83-26.44-.19-1.58-.8-3.11-1.22-4.66,0-1.81,0-3.62,0-5.43Z"/>
  <path class="st0" d="M270.63,220.71c-3.58-1.52-7.08-3.07-10.62-4.5-7.46-3.03-9.35-7.14-6.13-14.48,3.43-7.83,8.42-14.04,16.95-17.2,26.67-9.87,53.22-20.08,80.36-30.36-.41,6.37-3.5,9.1-8.53,11.05-25.74,9.98-51.38,20.19-76.99,30.5-3.42,1.38-6.43,3.77-9.62,5.69-.1.65-.21,1.3-.31,1.95,3.18,1.56,6.27,3.35,9.55,4.62,7.24,2.82,8.67,6.33,5.34,12.73Z"/>
  <path class="st0" d="M252.82,170.86c-8.09,1.67-16.17,3.35-24.29,5.03.57-10.02,2.55-12.84,11.44-15.18,5.21-1.37,10.54-2.35,15.86-3.21,5.37-.86,6.89,1.12,5.61,6.44-3.35,14.01-12.51,22.69-26.39,27.05,6.47-5.71,12.93-11.41,19.4-17.12-.54-1.01-1.09-2.02-1.63-3.02Z"/>
  <path class="st0" d="M238.2,335.87c-2.06,3.67-3.71,6.62-5.58,9.96-4.74-3.25-9.15-6.26-14-9.59,2.03-4.21,4.01-8.32,6.35-13.18,4.72,3.14,9,5.98,13.68,9.09.82-1.22,1.69-2.29,2.3-3.48q3.5-6.82,9.55-2.59c9.03,6.33,9.13,7.32,1.18,18.44-4.29-2.76-8.67-5.57-13.48-8.66Z"/>
  <path class="st0" d="M177.46,243.27c-5.03-3.34-9.18-6.1-13.75-9.13-1.94,3.58-3.61,6.67-5.41,10.02-4.09-2.76-7.93-5.1-11.42-7.89-.97-.77-1.57-3.11-1.15-4.31,1.19-3.34,3.01-6.46,4.91-10.34,4.61,3.06,8.87,5.9,13.69,9.1,1.73-3.17,3.41-6.24,5.52-10.12,4.09,2.94,8.19,5.72,12.04,8.8.73.59,1.04,2.59.64,3.56-1.43,3.43-3.25,6.7-5.07,10.32Z"/>
  <path class="st0" d="M202.47,207.87c2.1-7.54,3.56-14.02,5.77-20.23,1.15-3.24,3.09-7.15,7.88-5.25,3.79,1.5,4.38,5.83,1.86,10.59-5.98-4.88-7.5-4.52-9.67,2.95-1.6,5.51-2.63,11.18-4.06,16.75-.51,1.98-1.44,3.85-2.48,6.52-2.41-6.63-4.39-12.3-6.54-17.9-.97-2.54-1.97-4.76-5.85-3.81-1.52.37-4.11-1.72-5.44-3.33-.69-.84.06-3.17.62-4.65.56-1.47,1.71-2.72,2.78-4.34,11.15,3.04,11.46,13.52,15.11,22.7Z"/>
  <path class="st0" d="M316.13,182.82c2.2,1.39,3.73,2.32,5.23,3.3,10.7,6.96,10.91,8.74,1.99,19.26-4.35-3.06-8.73-6.14-13.52-9.51,2.03-4.21,4.04-8.37,6.3-13.06Z"/>
  <path class="st0" d="M162.87,222.24c-4.98-3.52-9.22-6.52-13.86-9.81,1.98-4.12,3.89-8.09,6.25-13,4.57,3.16,8.74,5.85,12.63,8.9.69.54.7,2.73.23,3.8-1.43,3.25-3.25,6.33-5.25,10.11Z"/>
  <path class="st0" d="M355.62,333.58c-6.41,2.68-12.71,5.68-19.29,7.85-2.1.69-5.65-.1-7.2-1.6-1.27-1.23-1.15-4.66-.58-6.84.7-2.7,2.49-5.11,3.83-7.68-4.22-5.3-2.52-11.86,3.98-14.48.82-.33,2.08.43,3.14.68-.54,1.02-.82,2.42-1.66,2.97-1.64,1.09-3.6,1.7-5.43,2.51.52.88,1.09,2.53,1.56,2.5,2.38-.14,4.74-.68,7.08-1.16.6-.12,1.13-.57,2.56.07-1.48,1.55-2.92,3.13-4.44,4.65-2.79,2.79-5.98,5.25-8.34,8.36-3.05,4.03-1.51,7.16,3.56,6.84,4.2-.27,8.33-1.92,12.44-3.16,2.72-.82,5.34-1.99,8.01-3.01.26.5.51,1,.77,1.5Z"/>
  <path class="st0" d="M162.35,301.78c1.62-5.72,2.43-10.13,4.17-14.14.9-2.06,3.46-3.4,5.26-5.07,1.27,2.17,2.54,4.34,3.81,6.51-.47.36-.94.72-1.41,1.08-1.47-.76-2.93-1.53-5.75-3-2.17,7.72-4.2,14.95-6.51,23.15-1.62-4.59-2.75-8.23-4.2-11.73-1.02-2.47-1.57-5.66-5.86-4.54-.87.23-3.4-2.16-3.45-3.41-.07-1.68,1.21-3.79,2.55-4.99.58-.52,3.39.29,4.11,1.28,2.08,2.87,3.68,6.1,5.32,9.26.69,1.33,1.01,2.85,1.96,5.61Z"/>
  <path class="st0" d="M196.58,285.24c-.87,4.13-1.74,8.26-2.6,12.39-.18.88-.7,1.88-.45,2.62.81,2.45,1.38,5.39,3.12,6.93.82.73,4.09-1.32,6.39-2.16-.81,1.9-1.49,4.53-2.95,6.6-.96,1.37-3.37,2.99-4.55,2.63-1.62-.49-3.52-2.61-3.86-4.31-1.74-8.77.67-16.94,4.9-24.71Z"/>
</svg>