<?xml version="1.0" encoding="UTF-8"?>
<svg id="Layer_1" xmlns="http://www.w3.org/2000/svg" version="1.1" viewBox="0 0 500 500">
  <!-- Generator: Adobe Illustrator 30.5.1, SVG Export Plug-In . SVG Version: 2.1.4 Build 3)  -->
  <defs>
    <style>
      .st0 {
        fill: #0a2243;
      }

      .st1 {
        fill: #0da98e;
      }
    </style>
  </defs>
  <g>
    <path class="st1" d="M93.76,375.58l-2.25,1.16c-.04-.11-.35-.82-.92-2.15-.58-1.33-1.34-3.04-2.29-5.13h-8.56c-1.01,2.25-1.8,3.98-2.35,5.22-.55,1.23-.86,1.92-.92,2.07l-1.93-1.05c.25-.5,1.28-2.71,3.1-6.62,1.82-3.92,3.7-8.03,5.66-12.34h1.88c1.93,4.31,3.82,8.49,5.68,12.54,1.86,4.05,2.83,6.15,2.9,6.31M87.48,367.61c-.51-1.18-1.05-2.41-1.62-3.69-.57-1.28-1.16-2.62-1.79-4.02h-.06c-.49,1.07-1.07,2.37-1.75,3.92-.69,1.54-1.25,2.81-1.7,3.79h0s6.92.01,6.92.01h0Z"/>
    <path class="st1" d="M108.97,376.33c-.12,0-.73,0-1.83-.01-1.1,0-2.51-.01-4.23-.01-1.13,0-2.2,0-3.22.01-1.02,0-1.88.01-2.58.01.02-1.66.04-3.34.05-5.04.02-1.7.02-3.37.02-5.01,0-2.74,0-4.82-.03-6.26-.02-1.44-.03-2.44-.04-3.02h2.38c-.02,1.24-.03,2.68-.04,4.3-.01,1.63-.02,2.96-.02,4,0,2.53,0,4.64.02,6.34,0,1.69.01,2.59.01,2.69.39,0,.87,0,1.43,0,.56,0,1.06,0,1.52,0,1.72,0,3.22,0,4.5-.02,1.28-.01,1.96-.02,2.05-.02v2.02Z"/>
    <path class="st1" d="M127.82,375.2l-1.81,1.49c-.21-.22-.96-1.06-2.25-2.51-1.29-1.45-3.28-3.72-5.97-6.79v-.13c.38-.1.87-.31,1.47-.63.61-.32,1.12-.67,1.53-1.05.36-.33.67-.73.93-1.21.26-.48.4-1.13.4-1.94,0-.74-.19-1.38-.59-1.92-.39-.53-.93-.93-1.61-1.18-.56-.21-1.14-.34-1.76-.38-.62-.04-1.19-.06-1.7-.06-.35,0-.61,0-.8,0-.18,0-.32,0-.41,0-.02,1.83-.03,3.45-.04,4.85,0,1.4,0,2.39,0,2.97,0,1.32,0,3.11.02,5.38.01,2.27.03,3.69.04,4.27h-2.39c0-.58.02-1.7.04-3.36.02-1.66.03-3.73.03-6.21v-2.67c0-1.3-.03-3.67-.07-7.11.1,0,.58,0,1.44-.03.87-.02,1.67-.03,2.4-.03.84,0,1.65.05,2.44.14.79.1,1.56.3,2.31.62.95.4,1.71,1,2.27,1.78.56.78.84,1.71.84,2.77,0,1.37-.42,2.5-1.26,3.41-.84.91-1.64,1.59-2.39,2.03v.07c1.32,1.54,2.77,3.13,4.34,4.77,1.58,1.64,2.42,2.52,2.54,2.65"/>
    <path class="st1" d="M147.57,375.58l-2.25,1.16c-.04-.11-.35-.82-.92-2.15-.58-1.33-1.34-3.04-2.29-5.13h-8.56c-1.01,2.25-1.8,3.98-2.35,5.22-.55,1.23-.86,1.92-.92,2.07l-1.93-1.05c.25-.5,1.28-2.71,3.1-6.62,1.82-3.92,3.7-8.03,5.66-12.34h1.88c1.93,4.31,3.82,8.49,5.68,12.54,1.86,4.05,2.83,6.15,2.9,6.31M141.29,367.61c-.51-1.18-1.05-2.41-1.62-3.69-.57-1.28-1.16-2.62-1.79-4.02h-.06c-.49,1.07-1.07,2.37-1.75,3.92-.69,1.54-1.25,2.81-1.7,3.79h0s6.92.01,6.92.01h0Z"/>
    <path class="st1" d="M155.71,357.01c0,.76,0,1.58-.02,2.46-.02.88-.02,2.25-.02,4.1v6.43c0,.83-.1,1.6-.3,2.33-.2.72-.56,1.37-1.07,1.95-.52.6-1.26,1.11-2.2,1.55-.95.43-2.19.72-3.74.87l-.29-1.98c1.06-.12,1.91-.28,2.54-.45.63-.18,1.16-.47,1.6-.87.42-.4.73-.88.91-1.45.18-.57.27-1.32.27-2.23,0-.99,0-1.97,0-2.93,0-.96,0-1.86,0-2.71,0-2.05-.01-3.55-.03-4.5-.02-.94-.03-1.8-.04-2.56h2.38Z"/>
    <path class="st1" d="M178.26,376.36h-2.38c0-.58.02-1.65.04-3.2.01-1.56.02-3.5.02-5.82-.14,0-1,0-2.57,0-1.57,0-2.75,0-3.54,0-.95,0-2.1,0-3.43,0-1.33,0-2.06,0-2.17,0,0,2.68,0,4.71.02,6.08.01,1.38.03,2.36.04,2.93h-2.38c0-.58.02-1.6.04-3.08.02-1.47.03-3.96.03-7.47,0-1.06,0-2.35-.02-3.87-.01-1.52-.03-3.16-.05-4.93h2.38c0,1.47,0,2.9-.03,4.31-.02,1.41-.03,2.75-.03,4.02.12,0,.74,0,1.89,0,1.14,0,2.39,0,3.74,0,1.04,0,2.29,0,3.76,0,1.47,0,2.24,0,2.34,0,0-1.27,0-2.61-.03-4.02-.02-1.41-.03-2.85-.03-4.32h2.38c-.02,1.46-.04,3.14-.05,5.04-.01,1.91-.02,3.46-.02,4.67,0,2.83.01,5,.03,6.51.02,1.51.03,2.55.04,3.13"/>
    <path class="st1" d="M187.23,376.36h-2.38c0-.58.02-1.61.04-3.09.02-1.48.03-3.61.03-6.39,0-1.1,0-2.54-.02-4.32,0-1.78-.03-3.63-.06-5.55h2.38c-.02,1.38-.04,2.98-.05,4.81-.01,1.82-.02,3.32-.02,4.47,0,2.93,0,5.2.03,6.8.02,1.6.03,2.7.04,3.27"/>
    <path class="st1" d="M217.41,376.36h-2.38c0-.58.02-1.65.04-3.2.01-1.56.02-3.5.02-5.82-.14,0-1,0-2.57,0-1.57,0-2.75,0-3.54,0-.95,0-2.1,0-3.43,0-1.33,0-2.06,0-2.17,0,0,2.68,0,4.71.02,6.08.01,1.38.03,2.36.04,2.93h-2.38c0-.58.02-1.6.04-3.08.02-1.47.03-3.96.03-7.47,0-1.06,0-2.35-.02-3.87-.01-1.52-.03-3.16-.05-4.93h2.38c0,1.47,0,2.9-.03,4.31-.02,1.41-.03,2.75-.03,4.02.12,0,.74,0,1.89,0,1.14,0,2.39,0,3.74,0,1.04,0,2.29,0,3.76,0,1.47,0,2.24,0,2.34,0,0-1.27,0-2.61-.03-4.02-.02-1.41-.03-2.85-.03-4.32h2.38c-.02,1.46-.04,3.14-.05,5.04-.01,1.91-.02,3.46-.02,4.67,0,2.83.01,5,.03,6.51.02,1.51.03,2.55.04,3.13"/>
    <path class="st1" d="M239.73,357.01c0,1.85,0,3.38-.03,4.59-.02,1.21-.03,2.26-.03,3.16,0,1.1,0,2.04,0,2.81,0,.78,0,1.45,0,2.02,0,1.12-.17,2.1-.5,2.95-.33.85-.84,1.6-1.51,2.23-.68.64-1.5,1.13-2.49,1.5-.98.36-2.12.54-3.41.54s-2.43-.18-3.41-.54c-.98-.36-1.82-.86-2.5-1.5-.67-.64-1.18-1.38-1.51-2.23-.33-.85-.5-1.84-.5-2.95,0-.57,0-1.24,0-2.02,0-.78,0-1.71,0-2.81,0-.9,0-1.95-.03-3.16-.02-1.21-.03-2.74-.03-4.59h2.38c-.01.24-.02,1.06-.04,2.46-.02,1.4-.02,3.24-.02,5.53,0,.69,0,1.41,0,2.15,0,.74,0,1.5,0,2.28,0,1.76.5,3.1,1.52,4.01,1.01.91,2.38,1.36,4.1,1.36,1.87,0,3.27-.43,4.21-1.3.93-.87,1.4-2.23,1.4-4.08,0-.78,0-1.54,0-2.28,0-.74,0-1.46,0-2.15,0-2.28,0-4.15-.03-5.61-.02-1.46-.03-2.25-.03-2.38h2.38Z"/>
    <path class="st1" d="M269.5,376.07l-2.35.46-2.98-16.22-.02-.02c-.38.78-1.21,2.59-2.5,5.44-1.29,2.84-2.55,5.7-3.77,8.56h-1.99c-1.15-2.65-2.42-5.52-3.8-8.59-1.39-3.08-2.2-4.87-2.44-5.39h-.03c-.06.25-.45,2.1-1.17,5.53-.72,3.44-1.41,6.99-2.07,10.66l-2.22-.4c.96-4.15,1.86-8.27,2.7-12.34.84-4.08,1.3-6.29,1.37-6.63l2.3-.33c.1.22.78,1.77,2.05,4.65,1.27,2.88,2.76,6.2,4.47,9.96h.09c1.31-2.95,2.7-6.09,4.16-9.42,1.47-3.33,2.23-5.06,2.28-5.19l2.18.17c.03.21.43,2.32,1.2,6.34.77,4.01,1.62,8.27,2.56,12.77"/>
    <path class="st1" d="M290.08,375.58l-2.25,1.16c-.04-.11-.35-.82-.92-2.15-.58-1.33-1.34-3.04-2.29-5.13h-8.56c-1.01,2.25-1.8,3.98-2.35,5.22-.55,1.23-.86,1.92-.92,2.07l-1.93-1.05c.25-.5,1.28-2.71,3.1-6.62,1.82-3.92,3.7-8.03,5.66-12.34h1.88c1.93,4.31,3.82,8.49,5.68,12.54,1.86,4.05,2.83,6.15,2.9,6.31M283.8,367.61c-.51-1.18-1.05-2.41-1.62-3.69-.57-1.28-1.16-2.62-1.79-4.02h-.06c-.49,1.07-1.07,2.37-1.75,3.92-.69,1.54-1.25,2.81-1.7,3.79h0s6.92.01,6.92.01h0Z"/>
    <path class="st1" d="M310.09,357.01c-.02,1.51-.04,3.24-.05,5.19-.02,1.95-.02,3.35-.02,4.21,0,2.74,0,4.91.03,6.52.02,1.62.03,2.47.03,2.58l-1.92.94c-2.91-3.93-5.63-7.48-8.16-10.64-2.53-3.16-3.99-4.99-4.39-5.48h-.03c0,2.6.02,5.77.05,9.53.03,3.76.06,5.93.06,6.51h-2.25c0-.24.03-1.1.04-2.57.02-1.47.03-3.53.03-6.15,0-1.05,0-2.45-.01-4.19-.01-1.74-.03-3.58-.06-5.53l2.2-1.04c.17.22,1.65,2.09,4.43,5.62,2.78,3.52,5.4,6.8,7.86,9.82h.03c0-1.5-.02-3.99-.06-7.5-.04-3.51-.06-6.11-.06-7.81h2.25Z"/>
    <path class="st1" d="M319.06,376.36h-2.38c0-.58.02-1.61.04-3.09.02-1.48.03-3.61.03-6.39,0-1.1,0-2.54-.02-4.32,0-1.78-.03-3.63-.06-5.55h2.38c-.02,1.38-.04,2.98-.05,4.81-.01,1.82-.02,3.32-.02,4.47,0,2.93,0,5.2.03,6.8.02,1.6.03,2.7.04,3.27"/>
    <path class="st1" d="M339,359.04c-.15,0-.8,0-1.94-.01-1.14,0-2.86-.01-5.16-.01-.02,1.98-.03,3.48-.04,4.5,0,1.02-.01,2.42-.01,4.18s0,3.42.02,5.17c.02,1.75.03,2.92.04,3.49h-2.39c.02-.58.04-1.76.05-3.54.01-1.79.02-3.53.02-5.24v-4c0-.99-.01-2.51-.04-4.56-2.05,0-3.72,0-4.99,0-1.28.01-1.98.02-2.1.02v-1.99c.99,0,2.2,0,3.62.01,1.42,0,2.94.01,4.55.01,2.33,0,4.28,0,5.84-.01,1.57,0,2.41-.01,2.54-.01v1.99Z"/>
    <path class="st1" d="M358.42,375.58l-2.25,1.16c-.04-.11-.35-.82-.92-2.15-.58-1.33-1.34-3.04-2.29-5.13h-8.56c-1.01,2.25-1.8,3.98-2.35,5.22-.55,1.23-.86,1.92-.92,2.07l-1.93-1.05c.25-.5,1.28-2.71,3.1-6.62,1.82-3.92,3.7-8.03,5.66-12.34h1.88c1.93,4.31,3.82,8.49,5.68,12.54,1.86,4.05,2.83,6.15,2.9,6.31M352.14,367.61c-.51-1.18-1.05-2.41-1.62-3.69-.57-1.28-1.16-2.62-1.79-4.02h-.06c-.49,1.07-1.07,2.37-1.75,3.92-.69,1.54-1.25,2.81-1.7,3.79h0s6.92.01,6.92.01h0Z"/>
    <path class="st1" d="M376.71,375.2l-1.81,1.49c-.21-.22-.96-1.06-2.25-2.51-1.29-1.45-3.28-3.72-5.97-6.79v-.13c.38-.1.87-.31,1.47-.63.61-.32,1.12-.67,1.53-1.05.36-.33.67-.73.93-1.21.26-.48.4-1.13.4-1.94,0-.74-.19-1.38-.59-1.92-.39-.53-.93-.93-1.61-1.18-.56-.21-1.15-.34-1.76-.38-.62-.04-1.19-.06-1.7-.06-.35,0-.61,0-.8,0-.18,0-.32,0-.41,0-.02,1.83-.03,3.45-.04,4.85,0,1.4,0,2.39,0,2.97,0,1.32,0,3.11.02,5.38.01,2.27.03,3.69.04,4.27h-2.39c0-.58.02-1.7.04-3.36.02-1.66.03-3.73.03-6.21v-2.67c0-1.3-.03-3.67-.07-7.11.1,0,.58,0,1.44-.03.87-.02,1.67-.03,2.4-.03.84,0,1.65.05,2.44.14.79.1,1.56.3,2.31.62.95.4,1.71,1,2.27,1.78.56.78.84,1.71.84,2.77,0,1.37-.42,2.5-1.26,3.41-.84.91-1.64,1.59-2.39,2.03v.07c1.32,1.54,2.77,3.13,4.34,4.77,1.58,1.64,2.42,2.52,2.54,2.65"/>
    <path class="st1" d="M382.78,376.36h-2.38c0-.58.02-1.61.04-3.09.02-1.48.03-3.61.03-6.39,0-1.1,0-2.54-.02-4.32,0-1.78-.03-3.63-.06-5.55h2.38c-.02,1.38-.04,2.98-.05,4.81-.01,1.82-.02,3.32-.02,4.47,0,2.93,0,5.2.03,6.8.02,1.6.03,2.7.04,3.27"/>
    <path class="st1" d="M405.45,375.58l-2.25,1.16c-.04-.11-.35-.82-.92-2.15-.58-1.33-1.34-3.04-2.29-5.13h-8.56c-1.01,2.25-1.8,3.98-2.35,5.22-.55,1.23-.86,1.92-.92,2.07l-1.93-1.05c.25-.5,1.28-2.71,3.1-6.62,1.82-3.92,3.7-8.03,5.66-12.34h1.88c1.93,4.31,3.82,8.49,5.68,12.54,1.86,4.05,2.83,6.15,2.9,6.31M399.17,367.61c-.51-1.18-1.05-2.41-1.62-3.69-.57-1.28-1.16-2.62-1.79-4.02h-.06c-.49,1.07-1.07,2.37-1.75,3.92-.69,1.54-1.25,2.81-1.7,3.79h0s6.92.01,6.92.01h0Z"/>
    <path class="st1" d="M425.46,357.01c-.02,1.51-.04,3.24-.05,5.19-.02,1.95-.02,3.35-.02,4.21,0,2.74,0,4.91.03,6.52.02,1.62.03,2.47.03,2.58l-1.92.94c-2.91-3.93-5.63-7.48-8.16-10.64-2.53-3.16-3.99-4.99-4.39-5.48h-.03c0,2.6.02,5.77.05,9.53.04,3.76.06,5.93.07,6.51h-2.25c0-.24.03-1.1.04-2.57.02-1.47.03-3.53.03-6.15,0-1.05,0-2.45-.01-4.19-.01-1.74-.03-3.58-.06-5.53l2.2-1.04c.17.22,1.65,2.09,4.43,5.62,2.78,3.52,5.4,6.8,7.86,9.82h.03c0-1.5-.02-3.99-.06-7.5-.04-3.51-.06-6.11-.06-7.81h2.25Z"/>
    <path class="st0" d="M99.46,328.55c-3.6-.05-6.56-.69-6.56-5.5-.79,2.27-3.17,5.5-7.67,5.5-5.55,0-9.73-5.71-9.73-12.27,0-6.08,4.18-12.06,10.85-12.06,3.01,0,5.02,1.32,6.24,2.12.58.37.9.58.9.58.11,0,.37-.69.58-1.32.11-.21,0-.42.37-.79h2.65c-.32,1.38-.37,2.75-.37,3.86v13.7c0,1.43.26,4.02,2.75,4.23h5.92v1.96h-5.92ZM80.31,316.59c0,7.78,3.39,10.16,5.61,10.16,2.59,0,4.87-1.96,5.71-4.76.48-1.59.58-3.6.58-6.4,0-4.5-.58-9.52-5.87-9.52-4.13,0-6.03,5.08-6.03,10.53M86.07,297.71c0,1.48-1.16,2.7-2.7,2.7-1.64,0-2.7-1.22-2.7-2.7s1.06-2.7,2.7-2.7c1.54,0,2.7,1.22,2.7,2.7M93.69,297.71c0,1.48-1.11,2.7-2.7,2.7s-2.7-1.22-2.7-2.7,1.11-2.7,2.7-2.7,2.7,1.22,2.7,2.7"/>
    <path class="st0" d="M108.44,336.06c0,1.48-1.16,2.7-2.7,2.7-1.64,0-2.7-1.22-2.7-2.7s1.06-2.65,2.7-2.65c1.53,0,2.7,1.16,2.7,2.65M122.25,328.55c-2.7,0-4.97-1.64-6.61-4.13-1.27,3.17-4.55,4.13-7.83,4.13h-3.39v-1.96h2.43c2.8,0,3.97-1.85,3.97-4.92v-13.28c0-1.16-.21-1.38-2.33-2.12l6.98-1.32v13.49c0,3.33,2.22,8.15,5.92,8.15h2.96v1.96h-2.11ZM116.06,336.06c0,1.48-1.11,2.7-2.7,2.7s-2.7-1.22-2.7-2.7,1.11-2.65,2.7-2.65,2.7,1.16,2.7,2.65"/>
    <path class="st0" d="M123.41,326.59h2.75c2.8-.05,3.97-2.01,3.97-5.08v-12.86c0-1.27-.05-1.64-2.38-2.38l6.98-1.32v16.72c0,4.44-3.17,6.88-7.67,6.88h-3.65v-1.96ZM134.79,296.75c0,1.48-1.11,2.7-2.7,2.7s-2.65-1.22-2.65-2.7,1.11-2.7,2.65-2.7,2.7,1.16,2.7,2.7"/>
    <path class="st0" d="M143.41,298.71c0-1.27-.79-1.75-3.81-1.75v-1.75l8.46-.37v27.3c0,2.8,1.27,4.29,3.49,4.44h2.64v1.96h-2.96c-4.5,0-7.83-1.59-7.83-6.61v-23.22Z"/>
    <path class="st0" d="M191.86,324.05c-.95,2.91-3.7,4.55-7.35,4.55-3.44,0-6.08-1.96-7.19-4.5-.69,2.54-4.02,4.5-7.3,4.5-3.54,0-5.55-1.22-7.35-3.65-1.22,2.38-3.81,3.6-7.14,3.6h-2.27v-1.96h1.22c2.91,0,4.13-1.96,4.13-5.08v-9.26c0-1.16,0-1.37-2.38-2.17l6.98-1.27v10.69c.37,3.23,2.33,7.3,5.61,7.3,3.01,0,4.23-1.96,4.23-5.08v-11.37c0-1.11-.05-1.32-2.38-2.12l7.03-1.32v11.53c0,3.39,2.07,8.36,5.71,8.36,2.96,0,4.18-1.96,4.18-5.08v-13.07c0-1.22,0-1.59-2.27-2.33l6.88-1.32v15.39c.63,3.07,2.8,6.24,5.82,6.24h1.48v1.96h-.63c-2.7,0-5.71-1.8-6.98-4.55"/>
    <path class="st0" d="M198.68,326.59h2.75c2.8-.05,3.97-2.01,3.97-5.08v-12.86c0-1.27-.05-1.64-2.38-2.38l6.98-1.32v16.72c0,4.44-3.17,6.88-7.67,6.88h-3.65v-1.96ZM210.05,296.75c0,1.48-1.11,2.7-2.7,2.7s-2.65-1.22-2.65-2.7,1.11-2.7,2.65-2.7,2.7,1.16,2.7,2.7"/>
    <path class="st0" d="M214.66,342.09l.53-1.48h2.43c-1.06-.74-2.06-2.01-2.06-3.54,0-2.27,1.59-4.18,4.18-4.18,1.91,0,3.33,1.22,3.33,2.75,0,1.06-.63,1.43-1.59,1.43-.79,0-1.53-.42-1.53-1.16,0-.42.26-.9.74-1.16-.21-.37-.69-.53-1.06-.53-.95,0-1.48,1.16-1.48,2.33,0,1.53,1.11,4.07,3.28,4.07h2.33v1.48h-9.1ZM214.76,328.55h13.44c4.6,0,7.25-2.43,7.25-6.88v-27.03l-6.98,1.32c2.27.74,2.33,1.11,2.33,2.33v23.22c0,3.07-1.11,5.08-3.91,5.08h-3.28v-27.08l-7.09,1.32c2.43.74,2.49,1.16,2.49,2.33v23.43h-2.96l-1.27,1.96Z"/>
    <path class="st0" d="M242.48,298.39c0-1.22-.05-1.59-2.27-2.33l6.93-1.32v33.8h-4.66v-30.15Z"/>
    <path class="st0" d="M292.36,323.84c-1.59-3.81-3.12-7.09-4.07-9.31-.37-.79-.63-1.43-.9-1.96-2.17-4.76-3.12-5.76-4.65-5.76-.85,0-1.16.74-1.16,1.59,0,.9.37,1.8.58,2.38.26.69.43,1.16.79,1.96.79,1.8,2.27,5.45,6.51,15.82h-19.63c-4.5,0-7.88-1.59-7.88-6.61v-9.73c0-1.27-.79-1.69-3.81-1.69v-1.8l8.46-.37v13.81c0,2.8,1.27,4.28,3.54,4.44h13.86c-2.7-7.46-7.04-14.65-7.04-18.67,0-1.75.9-3.02,3.02-3.02h1.85c3.07,0,5.34.64,7.51,5.82.63,1.53,1.9,4.34,3.01,7.04,1.59,3.6,2.91,8.57,6.93,8.83h2.27v1.96h-1.27c-3.97,0-6.56-1.48-7.94-4.71M275.43,336.06c0,1.43-1.11,2.65-2.64,2.65-1.64,0-2.7-1.22-2.7-2.65,0-1.53,1.06-2.7,2.7-2.7,1.53,0,2.64,1.16,2.64,2.7M283.1,336.06c0,1.43-1.16,2.65-2.7,2.65s-2.7-1.22-2.7-2.65c0-1.53,1.11-2.7,2.7-2.7s2.7,1.16,2.7,2.7"/>
    <path class="st0" d="M336.84,326.59v1.96h-36.24v-1.96h24.28c-.16-11.96-4.34-18.25-8.62-18.25-4.71,0-7.78,4.65-9.42,10.1l-2.17-3.97c.79-.42,1.32-.85,2.12-2.06,1.85-3.01,4.34-5.93,9.63-5.93,8.41,0,13.54,10.32,13.7,20.1h6.72Z"/>
    <path class="st0" d="M367.36,326.59l-1.22,1.96h-30.26v-1.96h24.28c-.16-11.96-4.34-18.25-8.62-18.25-4.71,0-7.78,4.65-9.42,10.1l-2.17-3.97c.79-.42,1.32-.85,2.12-2.06,1.85-3.02,4.34-5.93,9.63-5.93,8.41,0,13.54,10.32,13.7,20.1h1.96ZM353.98,336.01c0,1.53-1.27,2.7-2.75,2.7s-2.75-1.16-2.75-2.7,1.27-2.75,2.75-2.75,2.75,1.16,2.75,2.75"/>
    <path class="st0" d="M374.39,298.39c0-1.22-.05-1.59-2.27-2.33l6.93-1.32v33.8h-4.66v-30.15Z"/>
    <path class="st0" d="M390.95,308.66c0-1.27-.05-1.64-2.38-2.38l7.04-1.32v13.17c0,2.86-.11,5.77-.58,8.46h7.72v1.96h-8.09c-1.27,5.4-4.39,9.52-11.8,9.52-.69,0-1.85-.05-3.81-.21,7.67-2.06,11.48-5.82,11.9-15.76v-13.44Z"/>
    <path class="st0" d="M401.74,326.59h1.16c2.96,0,4.18-1.96,4.18-5.08v-23.12c0-1.22,0-1.59-2.33-2.33l6.98-1.32v26.93c0,4.44-3.23,6.88-7.72,6.88h-2.27v-1.96Z"/>
    <path class="st0" d="M418.77,298.39c0-1.22-.05-1.59-2.27-2.33l6.93-1.32v33.8h-4.66v-30.15Z"/>
  </g>
  <g>
    <polygon class="st1" points="203.03 206.34 250 253.3 296.97 206.34 289.17 206.34 275.03 192.21 269.84 192.21 250 212.05 230.15 192.21 224.96 192.21 210.83 206.34 203.03 206.34"/>
    <polygon class="st0" points="333.14 206.34 250 123.19 166.86 206.34 210.83 206.34 250 167.18 289.17 206.34 333.14 206.34"/>
  </g>
</svg>