<?xml version="1.0" encoding="UTF-8"?>
<svg id="Layer_1" xmlns="http://www.w3.org/2000/svg" version="1.1" viewBox="0 0 500 500">
  <!-- Generator: Adobe Illustrator 30.5.1, SVG Export Plug-In . SVG Version: 2.1.4 Build 3)  -->
  <defs>
    <style>
      .st0 {
        fill: #b08e2f;
      }

      .st1 {
        fill: #27265f;
      }
    </style>
  </defs>
  <g>
    <g>
      <g>
        <path class="st0" d="M359.59,224.6c-18.05-.25-35.11,6.61-47.93,19.26-12.85,12.67-19.93,29.59-19.93,47.64,0,23.75,12.77,45.92,33.32,57.88h0c2.23,1.3,4.9,1.3,7.14.02,2.24-1.29,3.57-3.6,3.57-6.24s-1.38-4.9-3.6-6.19c-16.17-9.43-26.19-26.9-26.15-45.59.06-28.27,23.09-51.81,51.34-52.48,14.34-.31,27.84,4.99,38.04,14.96,10.22,9.99,15.86,23.36,15.86,37.64,0,18.65-10.03,36.08-26.18,45.49-2.22,1.29-3.6,3.66-3.6,6.18v.08c0,2.57,1.33,4.87,3.56,6.16,1.12.64,2.34.96,3.56.96,1.24,0,2.47-.33,3.6-.98,20.54-11.93,33.32-34.08,33.35-57.81.05-36.43-29.54-66.48-65.96-66.99Z"/>
        <path class="st0" d="M404.42,291.91c0-16.25-8.74-31.42-22.8-39.6-1.99-1.16-4.38-1.17-6.38-.02-2,1.15-3.19,3.22-3.19,5.56s1.23,4.37,3.2,5.52c10.15,5.92,16.43,16.88,16.41,28.6-.04,17.74-14.49,32.51-32.21,32.93-8.99.22-17.46-3.13-23.87-9.38-6.42-6.27-9.95-14.65-9.95-23.62,0-11.7,6.3-22.64,16.43-28.54,1.97-1.15,3.2-3.29,3.2-5.58s-1.19-4.36-3.18-5.51c-1.96-1.13-4.43-1.12-6.4.02-14.05,8.16-22.8,23.32-22.82,39.55-.03,24.93,20.21,45.49,45.13,45.84.23,0,.45,0,.68,0,12.1,0,23.48-4.67,32.11-13.18,8.79-8.67,13.64-20.25,13.64-32.6Z"/>
      </g>
      <g>
        <path class="st1" d="M373.99,214.95c23.75-2.27,47.91.8,69.43,10.96,3.24,1.53,6.6-1.78,5.1-5.04-6.31-13.75-21.71-23.35-36.27-25.6-14.94-2.32-31.85,1.88-41.56,13.44-2.2,2.62-.1,6.56,3.3,6.23Z"/>
        <path class="st1" d="M343.61,214.95c-23.75-2.27-47.91.8-69.43,10.96-3.24,1.53-6.6-1.78-5.1-5.04,6.31-13.75,21.71-23.35,36.27-25.6,14.94-2.32,31.85,1.88,41.56,13.44,2.2,2.62.1,6.56-3.3,6.23Z"/>
        <path class="st1" d="M371.12,195.84c17.07-16.68,37.82-29.47,60.97-35.05,3.48-.84,4.02-5.53.81-7.12-13.54-6.75-31.55-4.56-44.31,2.82-13.09,7.57-23.62,21.45-23.93,36.55-.07,3.4,4.02,5.18,6.45,2.81Z"/>
        <path class="st1" d="M344.75,195.84c-17.07-16.68-37.82-29.47-60.97-35.05-3.48-.84-4.02-5.53-.81-7.12,13.54-6.75,31.55-4.56,44.31,2.82,13.09,7.57,23.62,21.45,23.93,36.55.07,3.4-4.02,5.18-6.45,2.81Z"/>
      </g>
    </g>
    <g id="udF194.tif">
      <path class="st1" d="M373.72,305.31h-29.85c-2.34,0-4.23-1.9-4.23-4.23v-18.45c0-1.83.87-3.55,2.35-4.63l14.31-10.44c1.49-1.09,3.51-1.09,4.99,0l14.31,10.44c1.48,1.08,2.35,2.8,2.35,4.63v18.45c0,2.34-1.9,4.23-4.23,4.23Z"/>
    </g>
  </g>
  <g>
    <path class="st1" d="M55.26,276.19h10.57c.45,0,.75-.31.75-.78v-1.51c0-.47-.29-.78-.75-.78h-5.28c-.3-.26-.61-.62-.92-1.09-.33-.51-.49-1.09-.49-1.78s.2-1.28.61-1.79c.39-.48.98-.72,1.8-.72.48,0,.9.09,1.25.28.38.2.71.44.98.71.24.24.66.37,1.13,0l1.11-.95c.08-.08.14-.17.19-.27.16-.32-.07-.65-.14-.75-.46-.69-1.09-1.21-1.89-1.57-.77-.34-1.63-.52-2.54-.52-1.07,0-1.99.19-2.72.56-.73.37-1.33.84-1.78,1.4-.45.56-.78,1.17-.96,1.83-.19.64-.28,1.26-.28,1.85,0,.7.09,1.35.26,1.92.1.32.21.62.35.9h-1.25c-.45,0-.75.31-.75.78v1.51c0,.47.29.78.75.78Z"/>
    <path class="st1" d="M89.63,275.71c.59.32,1.27.48,2.04.48h4.11s.01,0,.02,0c0,0,0,0,.02,0h3.62s.01,0,.02,0c0,0,0,0,.02,0h3.62s.01,0,.02,0c0,0,0,0,.02,0h3.62s.01,0,.02,0c0,0,0,0,.02,0h3.62s.01,0,.02,0c0,0,0,0,.02,0h6.19c1.5,0,2.6-.39,3.28-1.15.66-.74.99-1.9.99-3.42v-8.99c0-.45-.3-.75-.75-.75h-2.11c-.45,0-.75.3-.75.75v8.82c0,.71-.16.98-.26,1.07-.17.17-.48.26-.91.26h-5.69s-.01,0-.02,0c0,0,0,0-.01,0h-3.62s-.01,0-.02,0c0,0,0,0-.01,0h-3.62s-.01,0-.02,0c0,0,0,0-.01,0h-3.62s-.01,0-.02,0c0,0,0,0-.01,0h-3.62s-.01,0-.02,0c0,0,0,0-.01,0h-3.79c-.81,0-1.46-.16-1.92-.49-.42-.29-.63-.73-.63-1.34v-8.33c0-.45-.3-.75-.75-.75h-2.11c-.45,0-.75.3-.75.75v8.82c0,.71-.16.97-.26,1.07-.17.17-.48.26-.91.26h-2.07c-.05,0-.1,0-.15,0-.03,0-.05,0-.08,0h-3.62s-.01,0-.02,0c0,0,0,0-.01,0h-3.62s-.01,0-.02,0c0,0,0,0-.01,0h-1.45c-.43,0-.74-.09-.91-.26-.1-.1-.26-.36-.26-1.07v-17.74c0-.45-.3-.75-.75-.75h-2.11c-.45,0-.75.3-.75.75v17.91c0,1.52.33,2.68.99,3.42.67.76,1.77,1.15,3.28,1.15h1.94s.01,0,.02,0c0,0,0,0,.01,0h3.62s.01,0,.02,0c0,0,0,0,.02,0h3.62s.07,0,.11,0c.04,0,.08,0,.12,0h2.57c1.58,0,2.72-.45,3.43-1.34.28.36.62.65,1.02.86Z"/>
    <rect class="st1" x="85.79" y="255.57" width="3.73" height="3.9" rx=".75" ry=".75"/>
    <path class="st1" d="M117.22,278.32h2.24c.41,0,.75.33.75.75v2.4c0,.41-.33.75-.75.75h-2.24c-.41,0-.75-.33-.75-.75v-2.4c0-.41.33-.75.75-.75Z"/>
    <path class="st1" d="M125.42,252.97h2.11c.41,0,.75.33.75.75v21.73c0,.41-.33.75-.75.75h-2.11c-.41,0-.75-.33-.75-.75v-21.73c0-.41.33-.75.75-.75Z"/>
    <path class="st1" d="M129.8,249.94h-3.25c-.17-.15-.35-.36-.54-.63-.2-.29-.3-.63-.3-1.03s.12-.76.35-1.06c.21-.27.55-.4,1.04-.4.26,0,.49.05.69.16.22.12.41.27.59.47.2.2.54.29.92-.04l.72-.59c.11-.11.27-.36.09-.79l-.04-.07c-.31-.43-.72-.77-1.24-1-.5-.22-1.07-.33-1.7-.33-.7,0-1.3.12-1.78.36-.48.23-.88.54-1.18.9-.3.36-.51.77-.64,1.2-.12.42-.18.83-.18,1.22,0,.46.06.89.18,1.28.04.12.08.24.12.35h-.55c-.36,0-.62.27-.62.65v.92c0,.38.25.65.62.65h6.68c.36,0,.61-.27.61-.65v-.92c0-.38-.25-.65-.61-.65Z"/>
    <path class="st1" d="M146.49,254.25h2.24c.41,0,.75.33.75.75v2.4c0,.41-.33.75-.75.75h-2.24c-.41,0-.75-.33-.75-.75v-2.4c0-.41.33-.75.75-.75Z"/>
    <path class="st1" d="M142.47,254.25h2.24c.41,0,.75.33.75.75v2.4c0,.41-.33.75-.75.75h-2.24c-.41,0-.75-.33-.75-.75v-2.4c0-.41.33-.75.75-.75Z"/>
    <path class="st1" d="M162.55,275.71c.59.32,1.27.48,2.04.48h1.58c1.58,0,2.72-.45,3.42-1.34.28.36.62.65,1.02.86.59.32,1.27.48,2.04.48h1.58c1.58,0,2.72-.45,3.42-1.34.28.36.62.65,1.02.86.59.32,1.27.48,2.04.48h4.25c1.58,0,2.72-.45,3.42-1.34.28.36.62.65,1.02.86.59.32,1.27.48,2.04.48h1.58c1.58,0,2.72-.45,3.42-1.34.28.36.62.65,1.02.86.59.32,1.27.48,2.04.48h1.58c1.5,0,2.6-.39,3.28-1.15.66-.75.99-1.9.99-3.42v-8.99c0-.45-.3-.75-.75-.75h-2.11c-.45,0-.75.3-.75.75v8.82c0,.71-.16.97-.26,1.07-.17.17-.48.26-.91.26h-.82c-.79,0-1.41-.16-1.87-.48-.41-.29-.61-.73-.61-1.34v-5.5c0-.45-.3-.75-.75-.75h-2.11c-.45,0-.75.3-.75.75v5.99c0,.71-.16.98-.26,1.07-.17.17-.48.26-.91.26h-.82c-.79,0-1.41-.16-1.87-.48-.41-.29-.61-.73-.61-1.34v-5.5c0-.45-.3-.75-.75-.75h-2.11c-.45,0-.75.3-.75.75v5.99c0,.71-.16.98-.26,1.07-.17.17-.48.26-.91.26h-3.42c-.81,0-1.46-.16-1.92-.49-.42-.29-.63-.73-.63-1.34v-8.33c0-.45-.29-.75-.75-.75h-2.11c-.45,0-.75.29-.75.75v8.82c0,.71-.16.98-.26,1.07-.17.17-.48.26-.91.26h-.76c-.79,0-1.44-.15-1.91-.46-.43-.27-.63-.66-.63-1.23v-5.63c0-.45-.29-.75-.75-.75h-2.11c-.45,0-.75.29-.75.75v5.99c0,.71-.16.98-.26,1.07-.17.17-.48.26-.91.26h-.82c-.79,0-1.41-.16-1.87-.48-.41-.29-.61-.73-.61-1.34v-5.5c0-.45-.3-.75-.75-.75h-2.11c-.45,0-.75.3-.75.75v5.99c0,.71-.16.98-.26,1.07-.17.17-.48.26-.91.26h-4.51c-.43,0-.74-.09-.91-.26-.1-.1-.26-.36-.26-1.07v-11.16c0-.45-.3-.75-.75-.75h-2.11c-.45,0-.75.3-.75.75v1h-2.81c-.85,0-1.68.12-2.48.36-.81.25-1.54.65-2.15,1.21-.61.56-1.11,1.29-1.49,2.17-.37.88-.56,1.98-.56,3.26,0,1.08.17,2.04.49,2.84.33.81.79,1.49,1.37,2.03.58.53,1.27.93,2.06,1.19,1.43.47,3.23.52,4.65.07.44-.14.85-.34,1.21-.58.25.74.66,1.29,1.21,1.66.67.45,1.6.68,2.75.68h5.5c1.58,0,2.72-.45,3.42-1.34.28.36.62.65,1.02.86ZM148.34,264.7v2.87c0,1.22-.23,2.18-.7,2.84-.44.62-1.19.93-2.31.93-.95,0-1.65-.24-2.14-.75-.49-.5-.74-1.27-.74-2.29,0-1.38.28-2.34.83-2.83.57-.52,1.31-.77,2.24-.77h2.81Z"/>
    <path class="st1" d="M221.89,276.56v-.37h1.85s.02,0,.04,0c.01,0,.02,0,.03,0h3.62s.01,0,.02,0c0,0,0,0,.01,0h3.62s.01,0,.02,0c0,0,0,0,.01,0h3.62s.01,0,.02,0c0,0,0,0,.01,0h3.62s.01,0,.02,0c0,0,0,0,.01,0h3.62s.01,0,.02,0c0,0,0,0,.01,0h3.62s.01,0,.02,0c0,0,0,0,.01,0h5.04c.65,0,1.36-.1,2.11-.29.67-.17,1.24-.54,1.71-1.09.52.5,1.13.88,1.82,1.14.83.31,1.8.47,2.88.47,1.01,0,1.93-.15,2.76-.44.84-.3,1.56-.76,2.14-1.38.58-.61,1.03-1.41,1.34-2.36.31-.94.47-2.07.47-3.36,0-2.63-.61-4.57-1.8-5.77-1.2-1.21-2.85-1.82-4.91-1.82s-3.71.61-4.91,1.82c-1.19,1.21-1.8,3.15-1.8,5.77v.67c0,.22.01.45.03.64,0,.53-.05.97-.16,1.31-.1.33-.24.59-.4.78-.15.18-.32.31-.5.38-.19.08-.38.12-.57.12h-5.27s-.01,0-.02,0c0,0,0,0-.01,0h-3.62s-.01,0-.02,0c0,0,0,0-.01,0h-3.62s-.01,0-.02,0c0,0,0,0-.01,0h-3.62s-.01,0-.02,0c0,0,0,0-.01,0h-3.62s-.01,0-.02,0c0,0,0,0-.01,0h-3.62s-.01,0-.02,0c0,0,0,0-.01,0h-3.62s-.02,0-.03,0c-.01,0-.02,0-.03,0h-1.85v-3.89c0-2.62-.59-4.57-1.76-5.77-1.17-1.21-2.81-1.82-4.88-1.82-.9,0-1.77.16-2.59.47-.82.32-1.55.8-2.18,1.45-.62.64-1.12,1.47-1.47,2.45-.36.97-.54,2.12-.54,3.42s.15,2.4.45,3.29c.31.92.76,1.67,1.36,2.23.59.56,1.32.97,2.16,1.22.81.24,1.73.36,2.74.36h3.1v.44c0,.56-.07,1.02-.2,1.38-.13.34-.3.6-.52.78-.23.19-.49.33-.81.41-.34.09-.71.13-1.11.13h-3.95c-.45,0-.75.29-.75.75v1.91c0,.45.3.75.75.75h4.08c.89,0,1.72-.12,2.46-.35.76-.24,1.42-.61,1.95-1.11.54-.5.96-1.15,1.26-1.93.29-.77.44-1.7.44-2.78ZM259.3,264.7c1.09,0,1.86.34,2.34,1.04.51.74.77,1.8.77,3.15,0,1.48-.25,2.56-.75,3.2-.48.62-1.25.92-2.35.92s-1.87-.3-2.35-.92c-.5-.65-.75-1.72-.75-3.2,0-1.36.26-2.42.77-3.15.48-.7,1.25-1.04,2.34-1.04ZM218.3,268.89v3.89h-2.91c-1.11,0-1.95-.26-2.5-.77-.54-.51-.81-1.49-.81-2.92,0-1.35.3-2.44.89-3.24.57-.77,1.32-1.15,2.28-1.15,1.09,0,1.84.34,2.3,1.03.49.74.74,1.8.74,3.16Z"/>
    <path class="st1" d="M211.67,259.73h7.01c.36,0,.62-.27.62-.65v-1.05c0-.38-.25-.65-.62-.65h-3.61c-.17-.11-.34-.27-.52-.48-.18-.21-.26-.5-.26-.88,0-.32.11-.61.33-.89.2-.25.55-.37,1.06-.37.35,0,.64.06.87.17.25.13.48.28.65.43.38.38.7.21.83.12l.88-.75c.25-.25.28-.59.09-.88-.29-.44-.74-.8-1.34-1.06-.58-.25-1.21-.38-1.88-.38-.76,0-1.4.12-1.9.35-.5.23-.91.52-1.23.87-.33.35-.56.75-.69,1.16-.12.4-.18.79-.18,1.16,0,.44.06.85.19,1.19.03.08.06.16.09.23h-.39c-.36,0-.61.27-.61.65v1.05c0,.38.25.65.61.65Z"/>
    <rect class="st1" x="73.59" y="317.86" width="3.73" height="3.9" rx=".75" ry=".75"/>
    <path class="st1" d="M81.19,303.54c-.6-.82-1.43-1.49-2.45-1.99-1.02-.5-2.33-.75-3.91-.75-1.38,0-2.57.27-3.54.81-.95.53-1.77,1.21-2.4,2-.17.2-.19.39-.18.52.02.2.13.38.33.53l1.46,1.2c.35.26.75.22,1.02-.08.44-.49.96-.87,1.54-1.16.56-.28,1.19-.42,1.87-.42.79,0,1.45.12,1.96.37.51.24.9.58,1.2,1.04.31.47.54,1.04.68,1.7.15.68.22,1.45.22,2.27,0,.57-.03,1.05-.09,1.43-.05.33-.16.59-.31.77-.14.17-.35.29-.64.37-.34.09-.8.13-1.37.13h-9.68c-.81,0-1.46-.16-1.92-.49-.42-.29-.63-.73-.63-1.34v-3.39c0-2.13-.58-3.73-1.74-4.76-1.14-1.01-2.61-1.52-4.38-1.52h-4.84c-.45,0-.75.3-.75.75v1.91c0,.45.3.75.75.75h3.82c2.28,0,3.34.92,3.34,2.91v2.63c0,.54-.03,1-.09,1.34-.05.3-.15.53-.3.71-.14.16-.36.29-.65.36-.34.09-.8.13-1.37.13h-6.29c-.45,0-.75.3-.75.75v1.91c0,.45.29.75.75.75h7.31c1.1,0,2.02-.15,2.74-.44.54-.22,1-.57,1.37-1.05.28.4.64.73,1.09.97.65.35,1.39.53,2.21.53h11.03c.85,0,1.61-.1,2.25-.3.68-.21,1.25-.57,1.69-1.06.43-.49.75-1.13.96-1.92.2-.76.3-1.71.3-2.84s-.12-2.18-.34-3.22c-.23-1.06-.66-2.01-1.25-2.82Z"/>
    <path class="st1" d="M121.12,292.47h-2.11c-.45,0-.75.3-.75.75v17.74c0,.71-.16.98-.26,1.07-.17.17-.48.26-.91.26h-3c-.38,0-.73-.16-1.08-.49-.34-.32-.53-1.01-.55-1.94.02-.23.04-.46.05-.71.01-.25.02-.49.02-.74,0-2.63-.61-4.57-1.8-5.77-1.2-1.21-2.85-1.82-4.91-1.82s-3.71.61-4.91,1.82c-1.19,1.21-1.8,3.15-1.8,5.77v.67c0,.22.01.45.03.64,0,.52-.05.96-.16,1.31-.1.33-.24.59-.4.78-.15.18-.32.31-.5.38-.19.08-.38.12-.57.12h-5.27s-.01,0-.02,0c0,0,0,0-.01,0h-1.45c-.43,0-.74-.09-.91-.26-.1-.1-.26-.36-.26-1.07v-17.74c0-.45-.3-.75-.75-.75h-2.11c-.45,0-.75.3-.75.75v17.91c0,1.52.33,2.68.99,3.42.67.76,1.77,1.15,3.28,1.15h1.94s.01,0,.02,0c0,0,0,0,.01,0h5.04c.65,0,1.36-.1,2.11-.29.67-.17,1.24-.54,1.71-1.09.52.5,1.13.88,1.82,1.14.83.31,1.8.47,2.88.47s2.01-.15,2.84-.45c.69-.25,1.3-.63,1.83-1.13.18.21.38.39.6.53.34.23.7.41,1.08.53.37.12.75.2,1.13.23.36.03.71.05,1.03.05h3.26c1.5,0,2.6-.39,3.28-1.15.66-.74.99-1.9.99-3.42v-17.91c0-.45-.3-.75-.75-.75ZM103.51,305.24c.48-.7,1.25-1.04,2.34-1.04s1.86.34,2.34,1.04c.51.74.77,1.8.77,3.15,0,1.48-.25,2.56-.75,3.2-.48.62-1.25.92-2.35.92s-1.87-.3-2.35-.92c-.5-.65-.75-1.72-.75-3.2,0-1.36.26-2.42.77-3.15Z"/>
    <path class="st1" d="M126.39,292.47h2.11c.41,0,.75.33.75.75v21.73c0,.41-.33.75-.75.75h-2.11c-.41,0-.75-.33-.75-.75v-21.73c0-.41.33-.75.75-.75Z"/>
    <path class="st1" d="M155.69,304.23h-2.11c-.45,0-.75.3-.75.75v9.61c0,1.48-.4,2.56-1.19,3.2-.82.66-1.89.99-3.2.99-.53,0-1.08-.07-1.64-.22-.54-.14-1.05-.38-1.51-.71-.45-.32-.82-.77-1.11-1.33-.29-.56-.43-1.29-.43-2.17,0-.93.17-1.83.51-2.68.35-.87.72-1.61,1.1-2.21.23-.37.14-.77-.25-1.01l-1.8-.98c-.23-.14-.45-.18-.64-.13-.11.03-.27.11-.38.29-.59.84-1.1,1.88-1.54,3.1-.44,1.24-.67,2.54-.67,3.88,0,1.22.2,2.31.59,3.24.39.94.95,1.75,1.67,2.4.71.65,1.58,1.15,2.59,1.49.99.33,2.12.5,3.34.5,2.6,0,4.63-.68,6.03-2.03,1.41-1.35,2.12-3.23,2.12-5.6v-9.65c0-.45-.3-.75-.75-.75Z"/>
    <rect class="st1" x="147.53" y="300.34" width="3.73" height="3.9" rx=".75" ry=".75"/>
    <path class="st1" d="M190.92,295.82v2.4c0,.45.3.75.75.75h2.24c.45,0,.75-.3.75-.75v-2.4c0-.45-.3-.75-.75-.75h-1.7c.29-.1.47-.36.47-.7v-2.4c0-.45-.3-.75-.75-.75h-2.24c-.45,0-.75.3-.75.75v2.4c0,.34.18.6.47.7h-1.76c-.45,0-.75.29-.75.75v2.4c0,.45.29.75.75.75h2.24c.45,0,.75-.3.75-.75v-2.4c0-.34-.18-.6-.47-.7h1.22c-.29.1-.47.36-.47.7Z"/>
    <path class="st1" d="M210.73,312.29h-7.07c-.13-.05-.35-.15-.7-.33-.31-.16-.62-.42-.92-.75-.31-.34-.59-.78-.83-1.31-.24-.51-.36-1.15-.36-1.9,0-1.1.3-2.03.89-2.75.58-.71,1.47-1.05,2.71-1.05,1.38,0,2.49.51,3.4,1.57.28.32.68.36,1.04.08l1.43-1.17c.35-.26.43-.65.19-1.03-.61-.89-1.43-1.59-2.43-2.1-1-.5-2.19-.75-3.54-.75-1.48,0-2.73.24-3.7.72-.97.48-1.75,1.09-2.31,1.81-.57.72-.96,1.53-1.17,2.38-.21.83-.31,1.61-.31,2.32,0,1.13.19,2.12.58,2.94.23.49.48.93.77,1.32h-3.24c-.81,0-1.46-.16-1.92-.49-.42-.29-.63-.73-.63-1.34v-8.33c0-.45-.3-.75-.75-.75h-2.11c-.45,0-.75.3-.75.75v8.82c0,.71-.16.98-.26,1.07-.17.17-.48.26-.91.26h-2.24s-.06,0-.1,0c-.03,0-.07,0-.1,0h-.95c-.38,0-.73-.16-1.08-.49-.34-.32-.53-1.01-.55-1.95.02-.23.04-.46.05-.71.01-.25.02-.5.02-.74,0-2.63-.61-4.57-1.8-5.77-1.2-1.21-2.85-1.82-4.91-1.82s-3.71.61-4.91,1.82c-1.19,1.21-1.8,3.15-1.8,5.77v.67c0,.22.01.45.03.64,0,.53-.05.97-.16,1.31-.1.33-.24.59-.4.78-.15.18-.32.31-.5.38-.19.08-.38.12-.57.12h-3.09c-.43,0-.74-.09-.91-.26-.1-.1-.26-.36-.26-1.07v-17.74c0-.45-.3-.75-.75-.75h-2.11c-.45,0-.75.3-.75.75v17.91c0,1.52.33,2.68.99,3.42.67.76,1.77,1.15,3.28,1.15h3.36c.65,0,1.36-.1,2.11-.29.67-.17,1.24-.54,1.71-1.09.52.5,1.13.88,1.82,1.14.83.31,1.8.47,2.88.47s2.01-.15,2.84-.45c.69-.25,1.3-.63,1.82-1.13.18.21.38.39.6.53.34.23.7.41,1.08.53.37.12.75.2,1.13.23.36.03.71.05,1.03.05h.72s.06,0,.1,0c.03,0,.07,0,.1,0h2.73c1.58,0,2.72-.45,3.42-1.34.28.36.62.65,1.02.86.59.32,1.27.48,2.04.48h15.9c.45,0,.75-.29.75-.75v-1.91c0-.45-.3-.75-.75-.75ZM173.86,305.24c.48-.7,1.25-1.04,2.34-1.04s1.86.34,2.34,1.04c.51.74.77,1.8.77,3.15,0,1.48-.25,2.56-.75,3.2-.48.62-1.25.92-2.35.92s-1.87-.3-2.35-.92c-.5-.65-.75-1.72-.75-3.2,0-1.36.26-2.42.77-3.15Z"/>
    <rect class="st1" x="232.8" y="324.04" width="3.73" height="3.9" rx=".75" ry=".75"/>
    <rect class="st1" x="228.78" y="324.04" width="3.73" height="3.9" rx=".75" ry=".75"/>
    <path class="st1" d="M270.22,312.29h-7.07c-.13-.05-.35-.15-.7-.33-.31-.16-.62-.42-.92-.75-.31-.34-.59-.78-.83-1.31-.24-.51-.36-1.15-.36-1.9,0-1.1.3-2.03.89-2.75.58-.71,1.47-1.05,2.71-1.05,1.38,0,2.49.51,3.4,1.57.28.32.68.36,1.04.08l1.43-1.17c.35-.26.43-.65.19-1.03-.61-.89-1.43-1.59-2.43-2.1-1-.5-2.19-.75-3.54-.75-1.48,0-2.73.24-3.7.72-.97.48-1.75,1.09-2.31,1.81-.57.72-.96,1.53-1.17,2.38-.21.83-.31,1.61-.31,2.32,0,1.13.19,2.12.58,2.94.23.49.48.93.77,1.32h-3.2c-.81,0-1.46-.16-1.92-.49-.42-.29-.63-.73-.63-1.34v-17.25c0-.45-.3-.75-.75-.75h-2.11c-.45,0-.75.3-.75.75v17.74c0,.71-.16.97-.26,1.07-.17.17-.48.26-.91.26h-4.74c-.6,0-1.2-.07-1.78-.2-.59-.14-1.2-.32-1.81-.54-.62-.23-1.26-.48-1.91-.75-.66-.28-1.35-.55-2.05-.81h-.01c-.26-.09-.45-.04-.56.02-.12.06-.28.2-.36.45l-.73,1.99c-.14.41.05.79.45.92,1.12.42,2.12.78,2.99,1.09.85.3,1.56.6,2.12.88.53.27.93.56,1.19.87.23.28.35.6.35.98,0,.41-.2.77-.61,1.08-.3.23-.98.51-2.5.51h-7.28c-.69,0-1.34-.08-1.95-.23-.59-.15-1.12-.4-1.58-.74-.45-.33-.81-.78-1.07-1.34-.27-.56-.4-1.27-.4-2.11,0-.93.17-1.83.51-2.68.35-.87.72-1.61,1.1-2.21.23-.37.14-.77-.25-1.01l-1.8-.98c-.23-.14-.45-.18-.64-.13-.12.03-.28.11-.37.28-.59.84-1.11,1.88-1.55,3.11-.44,1.23-.67,2.54-.67,3.88,0,2.35.72,4.23,2.13,5.58,1.41,1.36,3.48,2.04,6.14,2.04h7.69c1.18,0,2.19-.13,3.02-.4.84-.27,1.53-.63,2.05-1.09.53-.46.92-.98,1.15-1.56.23-.56.34-1.14.34-1.72,0-.53-.09-1.03-.25-1.48-.04-.11-.08-.21-.12-.31h1.69s0,0,0,0c0,0,0,0,0,0h2.57c1.58,0,2.73-.45,3.43-1.34.28.36.62.65,1.02.86.59.32,1.27.48,2.04.48h15.87c.45,0,.75-.29.75-.75v-1.91c0-.45-.3-.75-.75-.75Z"/>
  </g>
</svg>