<?xml version="1.0" encoding="UTF-8"?>
<svg id="Layer_1" xmlns="http://www.w3.org/2000/svg" version="1.1" viewBox="0 0 500 500">
  <!-- Generator: Adobe Illustrator 30.5.1, SVG Export Plug-In . SVG Version: 2.1.4 Build 3)  -->
  <defs>
    <style>
      .st0 {
        fill: #cb9e39;
      }

      .st1 {
        fill: #e87537;
      }

      .st2 {
        fill: #5f5f5f;
      }

      .st3 {
        fill: #1f80b4;
      }

      .st4 {
        fill: #4eaa54;
      }

      .st5 {
        fill: #1d645c;
      }

      .st6 {
        fill: #ba2f3e;
      }

      .st7 {
        fill: #5d5d5d;
      }

      .st8 {
        fill: #1f655d;
      }

      .st9 {
        fill: #185985;
      }

      .st10 {
        fill: #8a253f;
      }

      .st11 {
        fill: #e12c3c;
      }

      .st12 {
        fill: #2ea8d0;
      }

      .st13 {
        fill: #507a48;
      }
    </style>
  </defs>
  <path class="st5" d="M321.03,177.73c4.15.89,6.76,4.3,9.26,7.46,2.66-16.29,15.83-30.64,32.93-31.38-.06.4-.48.49-.78.64-19.23,9.82-27.61,24.84-26.25,46.84.59,9.56,5.65,17.71,10.56,25.59,1.5-1.18,2.71-2.7,4.11-3.99.8-.74,2.8-1.88,3.29-2.62.93-1.42,2.86-6.82,3.6-8.75,2.2-5.74,3.92-11.37,4.86-17.48-2.53-8.37-5.59-16.65-7.12-25.29,4.33,1.46,7.8,5.44,9.56,9.6.66,1.56.94,3.26,1.63,4.8.62-.68,1.11-1.43,1.79-2.06,4.24-3.9,10.04-5.43,15.71-4.9.44.04.84-.04,1.14.4-6.57,2.82-12.47,5.85-14.59,13.19-2.29,7.96-2,13.58-6.55,21.23-1.11,1.86-2.6,3.45-3.68,5.32,5.52-2.7,11.55-5.14,17.76-5.65,2.2-.18,4.45.19,6.63-.32,3.45-2.81,6.16-6.59,8.29-10.49,4.46-8.13,6.84-17.31,4.5-26.5.4-.44,2.75,2.35,3.04,2.74,6.94,9.33,2.54,24.18-5.48,31.48-1.34,1.22-2.96,2.06-4.25,3.34,3.27.23,6.45,1.1,9.68,1.51,8.99,1.14,14.5.42,20.81-6.39l2.7-3.35c-2.05,5.81-6.69,11.02-12.66,12.93-8.22,2.63-16.27.17-24.52.43-34.14,1.08-51.73,30.07-41.86,61.95.25.82,2.11,6.28,2.39,6.49.32.24.57-.23.73-.43,1.11-1.42,2.78-4.71,3.61-6.42,6.77-13.92,7.47-29.62,1.06-43.83.45-.09.64.23.9.51,9.25,9.59,11.5,23.67,8.28,36.33-1.97,7.78-6.17,14.36-10.99,20.65,2.53,4.56,5.67,8.84,9.13,12.74,1.39,1.57,3.53,2.92,4.25,4.88-.4.09-.14-.33-.44-.5s-.68-.14-1.08-.41c-5.39-3.59-10.36-8.65-14.3-13.75-2.18,1.75-4.04,3.84-6.18,5.66-4.36,3.72-9.13,6.99-14.39,9.28-.47.2-.46.45-.91-.14,6.55-6.07,12.45-12.89,17.71-20.11-11.42-18.43-12.9-43.83,1.32-61.18-8.72-6.36-19.81-11.35-30.74-11.96-14.08-.79-32.19,6.17-40.98-8.93-.89-1.52-1.88-3.46-2.11-5.22,3.51,3.41,6.9,7.07,11.83,8.36,2.98.78,5.95.68,9.01.64.56,0,3.21.1,3.35,0,.04-.03-.02-.37,0-.51.26-.01.51,0,.77,0,1.55-.04,3.59.2,5.03.02.49-.06.25-.49.74-.56,1.48-.19,3.93.37,5.24-.16.33-.13.17-.55.68-.61.49-.06,3.86.17,4.34.28,2.51.57,2.63.26,5.06.25.26,0,.52-.01.77,0-.29,1.33,1.13.6,1.88.78.19.05.16.46.35.5.67.16,1.67-.09,2.4,0,.23.07.4.22.51.26-.22,1.41,2.24,1.14,2.91,1.29.2.05.16.46.35.51,2.05.46,1.29.68,1.96.95,1.13.45,2.69.82,3.78,1.51.44.28.55,1.08,1.29,1.15.14-.91-.34-1.7-.77-2.46-.35-.63-.95-.86-1.19-1.23-1.24-1.91-1.84-4.25-3.27-6.09l-.94-3.93-1.03-.45c-.03-.16.03-.35,0-.51-.43-2.43-.55-4.84-1.04-7.06-.39-1.77-.65-3.48-1.08-5.1-.15-.55-.88-3.02-1.11-3.28-.25-.28-.76-.19-.85-.3-.05-.06-.09-.95-.28-1.41-.25-.61-1.6-1.52-2.09-2.02-.89-.91-1.01-1.18-2.34-2.05-1.44-.94-3.14-1.94-4.69-2.63-.43-.19-1.82-.38-1.33-1.12.98.11,2.17-.14,3.1-.02.48.06.34.48.55.53,1.12.26,3.31.22,4.71.52Z"/>
  <path class="st5" d="M123.06,233.55c1.42.4,0,4.07-.42,4.99-1.39,3.06-4.47,6.36-8.07,6.36-2.79,0-4.06-1.86-4.64-4.38-1.43-6.16,1.52-24.15,3.35-30.63.74-2.62,2.3-5.27,2.99-7.95.4-.04.87-.21.75.36l-3.88,26.23c-.15,1.09.66,5.54,2.17,5.25.28-.05,2.83-3.73,3.37-4.34,2.08-2.33,7.62-7.11,10.81-6.97,1.4.06,2.5,2.86,3.99.86.39-.52,1.17-3.36,1.26-4.07.36-3.04,0-6.81.28-10.01.39-4.32,2.15-11.29,4.17-15.12.98-1.85,1.03-.08.97.97-.61,9.95-5.61,19.33,6.6,24.53,13.94,5.95,42.17,1.41,56.63-2.98,10.04-3.04,18.01-7.37,27.41-11.43,2.54-1.1,5.63-2.47,8.41-2.01.75.82-2.94,5.02-3.74,5.65-2,1.57-4.41,1.54-6.73,2.53-2.75,1.17-5.59,3.18-8.31,4.55-20.15,10.17-42.22,17.86-65.22,15.81-6.21-.55-12.97-1.91-17.64-6.29-.33-.31-1.29-2.04-1.79-1.68-.7,2.07-2.86,5.15-5.28,5.15-1.27,0-2.19-1.13-3.42-1.24-2.97-.25-7.5,3.44-9.06,5.86,1.33.24,3.86-.32,5.02,0Z"/>
  <path class="st5" d="M271.63,218.37c1.23,7.81,3.95,16.36,8.9,22.62,3.38,4.28,9.97,8.78,15.48,9.47,2.31.29,2.91-1.03,4.78-2.03,3.23-1.74,6.74-3.17,10.46-3.3.11-.39-.1-.43-.25-.65-.55-.8-1.5-1.54-2.11-2.52-2.55-4.09-3.88-9.96-3.03-14.71.06-.36-.25-.76.37-.65,5.67,4.89,8.05,12.37,13.51,17.37,2.34,2.15,4.85,3.15,7.14,4.94.21.16.47,0,.32.59-11.02.1-21.97,2.83-30.48,10.04l-7.85,7.45c.19-3.5,1.28-6.93,3.04-9.95.25-.43,2.27-3,2.1-3.17-9.6,1.07-18.07-4.82-22.09-13.29-2.97-6.26-4.06-15.49-.83-21.85.14-.27-.13-.49.54-.37Z"/>
  <path class="st5" d="M401.55,253.88c2.43,3.17,5.14,8.12,5.15,12.21,0,.39.17.75-.39.65-5.97-6.69-13.05-12.41-21.8-14.99-5.1-1.5-9.98-1.9-15.25-2.25-.28-.02-.86.14-.64-.38s4.1-2.54,5.01-3.23c5.65-4.25,7.37-9.07,11.35-14.38.6-.8,3.75-4.66,4.36-4.91.5-.21.61,1.37.64,1.67.51,6.12-1.62,12.29-5.66,16.85,3.84.07,7.42,1.45,10.72,3.3.83.46,2.61,2.03,3.32,2.1,1.07.1,3.81-.82,4.94-1.21,11.48-4.01,16.88-14.71,19.74-25.79.16-.61.78-4.9,1.03-4.89.77.02,1.42,2.62,1.59,3.29,3.1,12.08-3.12,26.7-15.29,30.86-.7.24-3.52,1.09-4.05,1.09h-4.76Z"/>
  <path class="st7" d="M102.1,294.78c.04.06,1.34.51,1.41.51h8.1c-.78-.73-3.39-3.08-3.55-4.03-.1-.57,1.77-2.65,1.49-2.91l-1.8.26v-2.92c5.81-2.05,16.84-2.5,18.91,4.98.92,3.33-.36,6.24-1.7,9.23-.25.16-3.44-.52-4.04-.66-1.15-.27-4.43-1.59-5.06-1.59-1.01,0-3.58,1.12-5.15,1.25-1.96.16-6.56.27-8.18-.56-.58-.29-1.13-.78-1.59-1.23-.54.42-.62,1.53-1.34,1.75-.84.25-6.55.12-7.47-.15-.58-.17-2.68-1.77-2.9-1.6-.07.24-.68,1.8-.78,1.8h-12.86c-.1,0,.08-1.77,0-2.06-1.62.36-3.05,1.47-4.77,1.55-2.73.12-5.26-1.73-5.52-4.51-.11-1.14.38-4.46,1.29-5.15,1.47-1.11,6.84-1.6,8.75-2.57.56-.4.07-2.52.25-2.71.11-.11,2.6.08,3.09,0v11.83h8.75v-8.62c0-.61,2.54-.34,3.09-.39v8.1c0,.1,1.33.9,1.41.9h6.82v-21.48c0-.58,3.34-.58,3.34,0v20.97ZM113.86,287.63c-.72.17-2.27,1.77-2.44,2.45-.32,1.3,1.52,2.85,2.54,3.51,1.23.79,1.87,1.48,3.06.28,2.56-2.58.76-7.15-3.16-6.24ZM118.82,295.81c.15.16,4.01,1.04,4.22.99.39-.09.79-1.27.86-1.69.52-3.04-.76-5.85-3.67-7.01,1.34,2.87.68,4.95-1.25,7.2-.14.16-.29.38-.16.51ZM75.6,289.38c-.45-.02-.9-.01-1.35.06-.76.13-5.18,1.27-5.67,1.53-.77.4-.54,2.36-.04,3.03,1.48,2.04,5.15.61,7.07,0v-4.63Z"/>
  <path class="st5" d="M193.17,292.47c-1.63,4.45-9.85,9.87-14.54,10.29-14.32,1.29-13.82-12.96-11.11-22.95,1.11-4.09,5.12-14.07,7.8-17.16,1.77-2.04,1.37-.3.82,1.07-2.81,6.98-7.07,13.41-6.38,21.42.61,7.09,9.64,8.74,15.3,7.05,3-.89,10.82-6.26,10.83-9.63,0-2.61-5.95-3.92-6.71-6.81-.51-1.94.58-6.02,1.94-7.47.01-.02.23.03.43-.09.18-.11-.06-.73.86-.16-.28-1.36.96-1.93,1.22-2.77.1-.32.03-1.05.07-1.09.08-.08,1.22.05,1.54,0,.18.7-.32.36-.5.71-.16.31-1,1.92-1.03,2.04-.18.72.07,1.95.03,2.75.12.42,1.67.36,1.98.71.2.23-.06,1.15.04,1.25.05.05.77-.07,1.1.05.43.16.78.79,1.43.76.38,1.67.95,4.29.55,5.96-.05.2-.46.16-.5.35-.25,1.02.53,2.59-.51,3.09l-.52,2.91h-1.03c-.06.04.61.87.53,1.38-.02.15-.4.15-.44.24-.9,2.13-2.34,3.83-3.17,6.09Z"/>
  <path class="st5" d="M104.92,221.21c.67,1.58.03,3.23,0,4.75-.34,14.55-3.17,29.63-16.32,38.22-6.75,4.41-18.24,5.99-22.13-2.84-2.81-6.37-.1-15.5,2.66-21.53.28-.62,2.17-4.54,2.39-4.68.84-.53.82.44.68,1.06-.37,1.65-2.09,4.51-2.69,6.57-2.49,8.45.02,14.62,9.57,14.97,10.66.39,21.89-7.34,22.01-18.64.07-6.67-1.33-8.2,1.74-14.97.21-.45,1.46-3.37,2.1-2.91Z"/>
  <path class="st8" d="M297.36,210.14c3.08-.81,6.33-1.26,9.52-1.29-.03-.36-.37-.41-.63-.52-1.25-.53-2.6-.77-3.97-1.43-13.09-6.41-13.79-23.61-4.79-33.8.58-.11.35.25.38.64.5,6.84-.95,12.76,1.36,19.74,1.6,4.82,7.47,12.06,11.77,14.73,1.92,1.19,5.29.35,7.45,1.17-2.43,0-2.56.31-5.06-.25-.48-.11-3.85-.34-4.34-.28-.51.06-.36.48-.68.61-1.31.53-3.76-.03-5.24.16-.49.06-.25.49-.74.56-1.45.18-3.48-.06-5.03-.02Z"/>
  <path class="st8" d="M223.01,238.44c.38.46-1.27,8.2-1.47,9.46-1.12,7.06-3.42,18.29-2.65,25.14.35,3.15,3.74,5.61,6.18,2.83.29-.33,1.5-2.8,1.55-.53.05,2.15-1.63,7.66-2.88,9.49-1.88,2.75-5.44,3.76-7.53.67-2.84-4.2-.8-16.99-.11-22.2,1.02-7.67,2.27-17.48,6.13-24.23.2-.35.21-.75.78-.63Z"/>
  <path class="st7" d="M142.23,273.43c.7.13,2.79-.36,3.05.42.03,4.7-.06,9.52-2,13.86.81,1.69,2.08,3.07,3.02,4.68.58,1,1.68,2.57,1.49,3.68-.04.21-.97,2.46-1.05,2.57-.51.62-13.33.08-15.15.22-.48-.17-1.45-3.06-1.15-3.53.09-.15,2.45-1.39,2.98-1.78.98-.72,5.88-4.52,5.7-5.55-.15-.88-7.09-6.5-8.22-7.49-.83-.55,1.99-2.47,2.17-2.44l7.75,7.18c.28,0,.68-1.47.77-1.79.22-.8.64-3,.64-3.73v-6.3ZM135.03,295.81h9.78c-.6-2.07-2.32-3.65-3.48-5.41l-3.09,2.83c-.76.76-1.99,1.24-2.78,1.85-.29.22-.53.25-.43.73Z"/>
  <path class="st2" d="M141.2,342.38h-2.83v-9.13c0-2.11-5.4-1.29-5.4,0v9c0,.57-2.83.57-2.83,0v-9c0-1.97-5.4-1.07-5.4,0v9c0,.57-2.83.57-2.83,0v-12.48c.69.12,1.85-.17,2.43-.02.37.1-.18.95.52.78.37-.09,1.12-.65,1.74-.84,1.53-.46,2.89-.63,4.39.13.47.24,1.12,1.15,1.34,1.17.17.01,1.87-1.16,2.45-1.35,1.73-.56,4.33-.72,5.54.89.26.34.89,1.89.89,2.2v9.65Z"/>
  <path class="st2" d="M253.11,329.77c.63.11,1.64-.15,2.18-.02.38.1-.21.89.53.79.4-.05,1.09-.66,1.72-.85,1.92-.58,3.7-.53,5.34.75.23.18.21.62.4.62.14,0,1.78-1.13,2.5-1.36,1.84-.6,4.13-.84,5.48.84.36.45.89,1.67.89,2.19v9.65h-2.83v-9.13c0-1.9-5.1-1.83-5.42.5-.28,2.11.51,6.84-.02,8.47-.24.74-1.87.33-2.54.42v-8.36c0-.13-.39-1.38-.5-1.56-.73-1.18-4.35-.72-5.03.4-.63,1.05.24,7.44-.17,9.1-.24.74-1.87.33-2.54.42v-12.86Z"/>
  <path class="st8" d="M206.46,292.25c1.64-.57,4.73,2.41,4.96,3.97.29,2-2.67,7.17-4.68,6.75-.97-.2-3.31-3.29-4.16-3.04-.37.11-2.29,4.65-4.13,4.65-.62,0-4.4-2.84-4.64-3.38-.1-.23-.12-.32-.08-.57.09-.66,3.59-6.53,4.09-6.76,1.74-.79,4.72,3.04,5.24,2.95.85-.62,2.7-4.33,3.42-4.58Z"/>
  <path class="st8" d="M146.77,241.87c1.93,2.21,1.01,4.49-.58,6.58-.37.49-1.9,2.09-2.41,2.23-1.48.41-3.74-3.27-4.74-2.97-.54.16-2.41,4.81-4.39,4.62-.5-.05-4.36-3.04-4.48-3.53-.18-.71,3.44-7,4.27-7.23,1.76-.51,4.59,3.16,5.08,3.04.78-.73,2.58-4.33,3.4-4.59,1.21-.38,3.1.99,3.85,1.84Z"/>
  <path class="st8" d="M191.11,268.28c.25-.97.88-1.98,1.44-2.81,2.06-3.07,5.5-6.07,8.51-8.21.5-.35,2.76-1.51,2.85-1.65.12-.17.9-3.07,1.22-3.79.67-1.53,3.73-7.5,5.01-8.11,1.04-.49,1.23-.08.9.9-.69,2.1-3.43,4.63-3.72,7.35-.39,3.51,3.66,4.07,3.79,5.42.11,1.11-2.13,5.45-3.03,5.87-1.65.76-4.33-1.6-6.78-1.39-1.96.17-6.4,3.02-6.99,4.85-1.07,3.32,3.47,3.58,4.57,6.26,1.15,2.8-.13,8.72-1.15,11.56-.96,2.68-2.6,5.91-4.56,7.91.83-2.27,2.27-3.97,3.17-6.09.04-.09.42-.09.44-.24.08-.51-.59-1.34-.53-1.38h1.03s.52-2.91.52-2.91c1.04-.51.27-2.07.51-3.09.05-.2.46-.16.5-.35.4-1.67-.18-4.29-.55-5.96-.65.03-1-.61-1.43-.76-.33-.12-1.05,0-1.1-.05-.1-.1.16-1.02-.04-1.25-.31-.36-1.86-.3-1.98-.71.04-.8-.21-2.03-.03-2.75.03-.12.87-1.72,1.03-2.04.19-.36.69-.01.5-.71-.32.05-1.46-.08-1.54,0-.04.04.03.76-.07,1.09-.26.85-1.5,1.41-1.22,2.77-.92-.57-.68.05-.86.16-.2.12-.41.08-.43.09Z"/>
  <path class="st2" d="M192.91,342.63c-4,.9-3.24-2.71-4.6-5.24-.2-.26-6.13-.27-6.47-.04-.81,1.01-1.26,5.07-2.43,5.28-.58.11-1.32-.06-1.93,0l5.94-18.24c.92.09,3.02-.4,3.56.38l5.94,17.86ZM182.62,334.91h4.89c-.19-.91-1.83-7.1-2.19-7.21-.5-.15-.38.24-.5.51-.9,2.03-1.44,4.57-2.2,6.69Z"/>
  <path class="st7" d="M372.74,323.08h2.83c.24,6.41-.56,12.97.51,19.29-.79-.12-1.94.17-2.66,0-.2-.05-.18-.52-.31-.53-.31-.01-1.26.62-1.81.77-3.52.96-6.68-.77-7.06-4.49-.16-1.59.17-6.85,1.47-7.86,1.39-1.08,5.37-1.28,7.02-.5v-6.69ZM372.96,332.12c-1.18-.52-4.56-1.04-5.35.12-1,1.47-1.16,6.63.66,7.79,1.03.66,4.06.78,4.67-.28.43-.75-.19-6.32.02-7.63Z"/>
  <path class="st2" d="M76.88,327.45c-2.45-.57-4.94-1.52-7.46-.64-2.07.72-1.75,3.08-.04,4.15,2.6,1.63,7.8,2.12,8.28,5.87.5,4.01-1.14,5.69-5.03,6.05-1.02.09-6.58-.1-7.04-.8-.22-.34.08-1.98-.03-2.54,2.52.49,5.22,1.12,7.82.75,1.22-.17,1.72-.62,1.72-1.91-.01-4.04-8.53-3.09-9.62-7.64-.35-1.44-.38-3.76.59-4.97,1.53-1.9,6.39-2.07,8.6-1.64,2.46.47,2.35.85,2.21,3.32Z"/>
  <path class="st8" d="M238.7,237.41c-.2,3.48-.9,6.95-1.28,10.42-.82,7.48-.77,16.88-4.15,23.63-.27.55-1.87,3.59-2.54,2.99,1.53-5.48,1.48-11.22,2.06-16.85.77-7.52,1.16-12.5,4.94-19.25.22-.4.4-1.1.97-.95Z"/>
  <path class="st2" d="M198.06,323.08v6.95c7.96-3.39,10.55,4.21,7.84,10.54-1.05,2.45-4.59,2.21-6.93,2.05-.46-.03-.85-.46-1.31-.49-.61-.04-1.45.45-2.18.25v-19.29h2.57ZM198.09,340.03c2.37.63,5.04,1.54,5.81-1.45.75-2.88.58-7.31-3.4-7.01-.39.03-2.29.64-2.41.82-.39.62.17,6.42,0,7.64Z"/>
  <path class="st0" d="M375.56,153.03c.17.12,1.15,3.53,1.27,4.01,1.51,6.29,1.06,10.15-2.66,15.44-.27.03-1.13,1.48-1.43,1.13-.18-.22,1.15-2.43,1.34-2.91,1.34-3.49.75-6.17-.82-9.44-3.77,2.15-6.19,5.81-5.66,10.29-.36.06-.37-.46-.44-.71-.61-2.47-.43-6.99.51-9.37.64-1.61,5.53-7.25,6.99-8.19.24-.16.68-.4.91-.24Z"/>
  <path class="st11" d="M407.98,194.83c.45-4.61,2.73-7.49,6.17-10.29.54-.44,3.97-3.11,4.38-2.7.76,5.72,2.09,9.81-.98,15.1-.49.84-3.06,4.14-3.78,4.45-.32.14-.48-.06-.38-.38l2.03-2.91c.65-1.25.9-7.58-.4-8.01-1.62-.53-5.03,3.43-5.68,4.81-.62,1.33-.6,2.17-.85,3.53-.08.42.17.44-.51.39.09-1.29-.12-2.72,0-3.99Z"/>
  <path class="st4" d="M273.84,251.42c2.04,1.74,4.13,5.46,4.48,8.11-.61-.48-.94-1.42-1.43-2.05-.82-1.06-1.97-2.3-3.23-2.94-.9-.45-4.3-1.64-5.08-1.15-.49,2.97,1.03,6.85,3.72,8.31l1.77,1.95c-.85-.24-2.03-.68-2.78-1.09-.5-.27-1.91-1.23-2.47-1.64-4.41-3.22-5.78-8.51-6.2-13.74,3.52.35,8.49,1.91,11.21,4.23Z"/>
  <path class="st2" d="M318.46,324.37v2.32h-8.36s-.39.36-.39.39v5.02h7.85c.56,0,.56,2.57,0,2.57h-7.85v7.72c-.52-.04-2.83.2-2.83-.39v-17.62h11.58Z"/>
  <path class="st6" d="M288.61,198.82c-.52-.1-.42-.54-.51-.9-.82-3.17-1.06-4.36-3.74-6.55-.94-.77-2.61-2.38-3.34-.78-.63,1.41-.65,4.68-.28,6.19.26,1.04,1.3,2.25,1.44,2.94.18.93-.78.01-1.04-.25-1.39-1.41-3.64-4.88-3.99-6.81-.63-3.46.19-7.39.66-10.82.36-.37,2.95,1.51,3.42,1.85,3.65,2.61,7.38,6.56,7.38,11.4v3.73Z"/>
  <path class="st12" d="M347.99,185.52c.26.12,2.38,3.35,2.67,3.87.69,1.24,2.33,4.45,2.51,5.73.45,3.31-.52,6.86-1.78,9.88-.46.06-.24-.56-.19-.83.27-1.62.64-2.22.33-4.06-.18-1.1-2.55-6.6-3.75-6.04-2.48,1.16-3.92,7.99-2.57,10.43-.71.14-.44-.18-.62-.52-2.64-4.9-2.06-9.12.23-13.89.76-1.57,1.76-3.01,2.47-4.6.24-.06.46-.05.7.05Z"/>
  <path class="st9" d="M434.74,247.96c-1.74,6.04-4.42,12.59-11.25,14.09-.27.06-1.36.3-1.35-.19,3.32-1.26,5.72-4.92,5.64-8.48-3.08-.5-5.89.4-8.3,2.34-.61.49-.71,1.43-1.71,1.24,1.51-2.61,3.78-5.91,6.63-7.13,1.27-.54,9.69-2.46,10.35-1.87Z"/>
  <path class="st11" d="M326.94,263.14c.27.35-.42.18.51.51,0,.17.01.34,0,.51-.43.01-.86,0-1.29,0-1.46.03-2.73-.35-4.24-.25-3.35.21-2.8,1.2-1.27,3.57,1.75,2.7,4.16,4.11,7.31,4.66-.07.45-1.34.29-1.68.26-2.7-.19-7.15-1.58-9.13-3.47-.71-.68-6.16-8.22-5.65-8.63,3.68-.21,9.14-.93,12.53.72.68.33,2.46,1.53,2.91,2.11Z"/>
  <path class="st13" d="M380.97,224.29c.37.38-1.52,4.49-1.88,5.2-2.25,4.44-4.56,6.91-9.5,8.25-.67.18-2.03.73-2.26-.07,2.72-.05,7.17-5.78,6.71-8.07-.12-.62-3.31-.43-3.94-.35-.8.1-2.9.64-3.6.98-.21.1-1.7,1.58-2,1.26,3.02-6.4,10.14-6.98,16.46-7.2Z"/>
  <path class="st10" d="M375.31,195.48c.65-1.1.98-2.02,1.93-3.09,3.2-3.64,8.63-4.67,13.25-5.14-.67,3.38-1.83,7.38-3.75,10.27-1.01,1.51-3.34,3.21-4.99,4.01-.75.36-2.21.56-2.54.7-.06.03-.14.96-.81-.06,3.6-1.03,5.73-5.44,5.66-9.01-2.17-.3-3.92.47-5.92,1.03-.26.07-.73-.08-1.09.01-.36.09-1.17,1.9-1.74,1.28Z"/>
  <path class="st2" d="M155.09,342.37c-.8-.04-1.63.07-2.43,0-.37-.04-.66-.48-1-.46-.34.03-.89.54-1.4.65-3.69.84-6.97-.27-6.42-4.62.05-.41.31-1.46.58-1.74.9-.95,5.89-.96,7.33-1.03.71-5.2-4.09-3.12-7.2-2.83.11-.52-.17-1.96.03-2.28.12-.19,3.01-.73,3.47-.77,9.76-.82,5.17,7.19,7.04,13.09ZM151.75,336.97c-1.62.18-5.33-.62-5.42,1.68-.13,3.21,4.97,2.02,5.38,1.37.24-.38-.1-2.41.04-3.05Z"/>
  <path class="st3" d="M400.01,236.13c.71-2.79,1.18-5.11,3.47-7.21.94-.86,8.54-5.76,9.14-5.14.13,6.49.15,11.28-4.76,15.96-.21.2-.57.19-.64.25l-.51-.26c1.39-2.38,1.88-5.79,1.28-8.48-2.82.15-6.26,2.58-7.45,5.14l-.51-.26Z"/>
  <path class="st2" d="M290.13,329.54c.37.33,2.33,8.33,2.86,9.49.3-.03.45-.35.57-.59.57-1.19,2.67-8.64,3.07-8.89.37-.23,2.19.09,2.79-.03l-6.79,19.06c-.6.46-1.72.16-2.47.23-.49-.5,2.01-5.41,1.82-6.25-.04-.16-.56-.28-.81-.79-.65-1.28-3.66-10.32-3.82-11.63-.02-.21-.03-.42-.02-.62.52.1,2.59-.16,2.8.03Z"/>
  <path class="st2" d="M219.92,342.37c-.8-.11-1.93.17-2.66,0-.24-.06-.07-.57-.54-.52-.62.06-1.68.78-2.45.92-2.57.48-5.38-.46-5.67-3.36-.08-.84.05-2.6.65-3.21.85-.88,5.96-1.04,7.33-1.03.66-4.94-4.16-3.2-7.2-2.83.11-.52-.17-1.96.03-2.28.12-.19,3.01-.73,3.47-.77,10.04-.84,4.53,7.24,7.04,13.09ZM216.58,336.97c-.18-.18-4.89.16-5.11.29-.87.52-.42,3.51,1.9,3.58.45.01,3.05-.62,3.17-.82.24-.38-.1-2.41.04-3.05Z"/>
  <path class="st2" d="M286.04,342.37c-.8-.11-1.93.17-2.66,0-.24-.06-.07-.57-.54-.52-.53.05-1.06.57-1.64.71-4.01,1-7.5-.91-6.16-5.38.49-1.62,1.3-1.46,2.91-1.72,1.49-.24,3.22-.28,4.73-.29.24-1.99-.13-3.57-2.44-3.61-.96-.01-3.83.91-4.34.75-.67-.21-.57-1.89-.06-2.31.37-.31,2.55-.67,3.14-.72,9.9-.82,5.09,7.03,7.04,13.09ZM282.95,336.97c-1.53.16-5.41-.56-5.65,1.44-.44,3.63,5.39,2.44,5.65,1,.13-.72-.09-1.68,0-2.45Z"/>
  <path class="st2" d="M112.13,342.37c-.79-.12-1.94.17-2.66,0-.2-.05-.17-.52-.31-.53-.28,0-1.94.81-2.68.93-4.62.71-6.66-2.67-4.85-6.78,2.43-.56,4.91-.95,7.41-.82.49-5.02-4.09-3.29-7.2-2.83.11-.52-.18-1.96.03-2.28.12-.19,3.01-.73,3.47-.77,9.7-.81,4.84,7.18,6.78,13.09ZM109.04,336.97c-.18-.18-4.92.21-5.16.37-.26.18-.22.5-.25.78-.34,2.64,1.58,3.04,3.73,2.44,2.32-.65,1.62-1.48,1.69-3.59Z"/>
  <path class="st2" d="M413.06,329.32c6.61-1.03,8.16,3.32,7.5,9.04-.44,3.79-3.45,4.94-6.93,4.41-4.79-.73-5.37-6.56-4.24-10.44.56-1.92,1.74-2.72,3.67-3.02ZM413.58,331.63c-1.17.22-1.32.66-1.62,1.73-.93,3.3-.25,8.51,4.47,7.04,1.31-.41,1.46-2.13,1.55-3.33.24-3.18-.56-6.15-4.41-5.44Z"/>
  <path class="st2" d="M324.82,329.32c3.89-.53,6.85.76,7.26,4.95.44,4.4.09,8.17-5.05,8.58-6.36.51-7.39-5.49-6.1-10.47.56-2.18,1.72-2.77,3.88-3.07ZM325.08,331.63c-1.23.23-1.39.8-1.67,1.93-.82,3.34-.1,8.28,4.52,6.84,1.24-.39,1.44-1.92,1.55-3.08.32-3.25-.42-6.44-4.41-5.69Z"/>
  <path class="st2" d="M389.98,342.37c-.7-.1-1.79.18-2.42-.03-.42-.14-.35-.81-.54-.74-.26.1-.66.58-1.28.78-3.87,1.28-7.54-.1-6.77-4.71.06-.35.36-1.24.58-1.47.85-.88,5.96-1.04,7.33-1.03.49-5.02-4.09-3.29-7.2-2.83.11-.52-.18-1.96.03-2.28.12-.19,3.01-.73,3.47-.77,9.68-.81,4.86,7.17,6.78,13.09ZM386.89,336.97c-.18-.18-4.92.21-5.16.37-.4.27-.32,1.98-.11,2.46.75,1.68,5.02.96,5.27-.38.13-.72-.09-1.68,0-2.45Z"/>
  <path class="st2" d="M337.75,329.51v9.39c0,1.42,2.58,1.53,3.62,1.3.23-.05,2.04-.8,2.04-.91v-9.39c0-.57,2.83-.57,2.83,0v12.48c-.68-.13-1.85.17-2.43.02-.35-.09.15-1.01-.52-.79-.49.16-1.11.67-1.94.89-3.74,1.01-6.07-.13-6.42-4.12-.1-1.16-.21-7.72.03-8.45.25-.77,2.13-.31,2.79-.42Z"/>
  <path class="st2" d="M361.42,342.38h-2.83v-9.39c0-.07-.9-.96-1.03-1.02-.95-.43-4.63.08-4.63,1.02v9.39h-2.83v-12.48c0-.47,1.87-.54,2.32-.25.19.12.18.62.41.66.35.06,2.2-.92,3.08-1.02,1.42-.16,3.46-.02,4.48,1.13.3.34,1.03,1.97,1.03,2.32v9.65Z"/>
  <path class="st1" d="M313.82,200.88c-.82-.66-1.75-1.11-2.56-1.94-3.36-3.44-3.57-8.47-4.39-12.97.46-.32,4.06.95,4.81,1.23,2.55.98,6.93,2.87,7.54,5.71l.51-.26c.03,1.07.63,1.76,1.03,2.57,0,.67.19.85-.51.77-.04-.14.05-.38-.08-.7-.3-.75-2.26-1.36-3.01-1.62-1.49-.53-3-1.19-4.63-1.03-.1,1.73.15,3.46.52,5.15.05.22-.08.55,0,.84.05.16.34.15.49.4.3.53-.37.42.53.82.1.82.23.37.51.51,0,.7-.02.52-.77.51Z"/>
  <path class="st2" d="M234.07,342.38h-2.57v-8.88c0-2.71-5.66-1.58-5.66-.51v9.39h-2.83v-12.48c0-.52,2.86-.86,2.7.64,1.83-1.43,5.51-1.95,7.32-.37.26.23,1.04,1.32,1.04,1.53v10.68Z"/>
  <path class="st2" d="M240.76,329.51v9.39c0,.94,1.63,1.44,2.44,1.44.74,0,3.22-.66,3.22-1.44v-9.39h2.57v12.86c-.62-.11-1.65.15-2.18.02-.37-.1.18-.94-.52-.78-.36.08-1.02.65-1.51.81-1.79.57-4.41.85-5.84-.69-.29-.31-1.02-1.99-1.02-2.32v-9.9h2.83Z"/>
  <path class="st2" d="M83.32,329.51v9.13c0,2.11,4.73,2.09,5.53.64.68-1.23-.27-7.55.17-9.35.25-.77,2.13-.31,2.79-.42v12.86c-.64-.09-1.58.16-2.16-.03-.42-.14-.34-.78-.54-.74-1.73.44-2.49,1.5-4.82,1.22-1.35-.16-3.54-1.37-3.54-2.89v-10.42h2.57Z"/>
  <path class="st2" d="M169.24,342.38h-2.57v-8.88c0-2.65-5.66-1.67-5.66-.51v9.39h-2.83v-12.48c0-.52,2.86-.86,2.7.64,1.7-1.49,5.58-1.88,7.31-.37.26.22,1.05,1.54,1.05,1.78v10.42Z"/>
  <path class="st2" d="M434.74,342.38h-2.57v-8.88c0-2.74-5.66-1.62-5.66-.51v9.39h-2.83v-12.48c0-.51,2.81-.89,2.7.64,1.7-1.49,5.58-1.88,7.32-.36.26.22,1.05,1.54,1.05,1.78v10.42Z"/>
  <path class="st7" d="M154.84,273.69v25.08c0,.61-2.54.34-3.09.39v-25.47h3.09Z"/>
  <path class="st5" d="M89.14,235.96c2.27,2.21,1.89,4.02.48,6.6-.39.72-1.86,2.91-2.62,3.01-.32.04-5.21-2.5-5.36-2.76-.87-1.43,1.86-7.39,3.07-8.25,1.29-.93,3.46.45,4.43,1.4Z"/>
  <path class="st8" d="M197.54,233.81c.03,2.67-1.01,6.31-3.08,8.11-2.86,2.49-5.03,4.06-8.58,5.57-1.8.77-6.23,2.55-8.03,2.53-1.15-.01-2-1.24-1.25-1.83.7-.55,4.57-1.35,5.82-1.83,2.67-1.03,5.29-2.25,5.85-5.34.73-.25.58.9,1.19,1.01,1.34.23,2.67-3.95,3.32-4.1.7-.15.58,1.44,1.28,1.28,1.22-.28,2.05-4.46,2.69-5.24.24-.3.49-.13.79-.16Z"/>
  <path class="st2" d="M393.83,332.08c-.15-.15-2.01.23-2.06-.15-.18-3.2.04-1.68,1.64-2.2.79-.26.28-2.56.42-3.31h2.58c.06.58-.25,3.35.38,3.35h3.73v2.32h-4.12v6.82c0,1.84,2.67,1.5,3.72.64.3.06.98,2.21.91,2.31-.09.12-2.39.92-2.76.97-1.15.16-2.21.17-3.16-.56-.3-.23-1.27-1.57-1.27-1.81,0-1.14.3-8.06,0-8.36Z"/>
  <path class="st8" d="M213.42,228.7c1.85-.52,5,2.61,5.2,4.5.18,1.64-1.96,6.09-3.74,6.27-.93.1-5.17-2.64-5.25-3.48-.09-.86,2.99-7.07,3.79-7.29Z"/>
  <path class="st8" d="M221.37,292.02c.7-.07,2.65,1.08,3.19,1.6,2.55,2.47,1.64,5.43-.39,7.86-.64.76-1.42,1.77-2.43,1.41-.22-.08-3.69-2.41-3.86-2.58-.88-.87-.56-1.44-.21-2.5.37-1.13,2.57-5.67,3.71-5.78Z"/>
  <path class="st9" d="M373.51,262.11c.04-.1-.09-.38.03-.48,1.16-.21,1.82-.94,3-1.25,1.62-.42,8.86-.63,10.25-.1.28.11.43-.15.36.41-.05.38-.69,1.49-.93,1.92-.18.33-.57.46-.62.53.27-.27-.23-.8-.51-.51-.29.29.24.79.51.51-2.84,4.76-4.92,7.98-11,8.94-.26.04-3.08.39-2.64-.19,1.72-.37,3.65-1.32,4.89-2.58.41.45,1.94-.98,1.98-1.09.17-.46,0-.88.08-1.29.05-.23.97-.67,1.01-.89.09-.48-.13-1.63.05-1.84.07-.07,1.43-.55,1.82-.81.6-.4,1.11-1.34,2.22-1.45l2.09-1.38c-1.4-.13-3.38-.52-4.74-.27-.3.05-.05.75-.26,1.06-.46.68-5.67-.08-6.83.25l1.69,1.01c.64-.03,4.83-.17,5,.01.04.04.04.99,0,1.03-.08.09-2.08.04-2.43-.01-.41-.06-.71-.43-1.29-.52s-2.82-.09-3.36.01c-.74.14-.85,1.51-2.18,1.03-.13-.11.43-.91.51-1.03.25-.15,1.19-.5,1.24-.55.14-.15,0-.38.04-.48Z"/>
  <rect class="st2" x="95.66" y="323.08" width="2.57" height="19.29"/>
  <path class="st8" d="M228.03,235.1c-.72-.2-.31-.94.32-1.22.9-.4,5.36-.9,5.7-1.38.69-.98-2-2.45-2.24-3.24-1.09-3.66,4.27-5.36,6-3.69,2.02,1.95-3.38.81-3.73,1.96-.39,1.27,4.12,2.57,2.17,5.5-.61.9-3.08,2.07-4.1,2.07-.93,0-3.45.19-4.12,0Z"/>
  <rect class="st2" x="115.47" y="329.51" width="2.57" height="12.86"/>
  <rect class="st2" x="403.35" y="329.51" width="2.57" height="12.86"/>
  <path class="st2" d="M86.95,304.01c.79.46,2.55-2.03,3.18-2.03.51,0,2.19,2.06,2.2,2.45,0,.62-1.93,2.06-2.5,2.41-.53.08-1.62-1.98-2.27-2.27l-3.08,2.31c-.29-.87-2.43-2.13-1.82-3.09.15-.24,2.25-1.82,2.6-1.81.66.02,1.44,1.88,1.69,2.03Z"/>
  <path class="st2" d="M135.54,270.08v1.8c-1.5.23-3.59-.85-3.29,1.35.33,2.38,2.67.71,3.64.99.57.16.51,1.95.41,2.04-.41.39-5.96.21-6.94.26.04-1.49-.5-2.05,1.29-1.8-.34-1.2-.68-4.63,1.16-4.63h3.73Z"/>
  <path class="st2" d="M69.89,277.34c.22.13.93,1.77,1.72,1.76.71,0,2.02-1.98,2.78-1.78.38.1,2.09,2.23,1.97,2.64-.05.15-2.18,1.88-2.49,1.93-1.01.15-1.66-1.97-2.25-1.98-.63,0-1.99,2.19-2.78,1.98-.46-.12-2.11-2.18-1.97-2.64.07-.24,2.41-2.28,3.03-1.91Z"/>
  <path class="st8" d="M121.91,219.92c1.14-3.43,1.43-6.28.4-9.79-.14-.47-.65-1.12-.66-1.41,0-.44,1.58-2.54,2.33-1.04,1.35,2.69,1.02,7.61-.32,10.26-.12.23-1.4,2.35-1.75,1.97Z"/>
  <path class="st8" d="M321.03,177.73c-1.41-.3-3.59-.26-4.71-.52-.21-.05-.07-.47-.55-.53-.94-.12-2.13.13-3.1.02-.5.73.89.93,1.33,1.12,1.55.69,3.25,1.69,4.69,2.63,1.32.86,1.44,1.13,2.34,2.05.49.5,1.84,1.41,2.09,2.02.19.45.23,1.35.28,1.41.09.11.6.01.85.3.23.25.96,2.73,1.11,3.28.43,1.61.69,3.33,1.08,5.1.49,2.23.61,4.64,1.04,7.06-1.98-4.44-1.65-9.58-3.56-14.07-2.43-5.72-8.42-8.8-13.94-10.89.04-.41,1.11-.48,1.42-.51,2.61-.21,5.52,0,8.04.7.54.15,1.34.28,1.6.84Z"/>
  <path class="st2" d="M116.43,323.88c.56-.15,2.14,1.44,2.14,1.9,0,.52-1.32,1.51-1.72,1.91-.37.06-1.87-1.51-1.91-1.92-.05-.53,1.04-1.77,1.48-1.89Z"/>
  <path class="st2" d="M404.56,323.88c.56-.15,1.84,1.13,1.89,1.66.08.79-1.2,1.61-1.72,2.16-.35.06-1.9-1.53-1.9-1.91,0-.34,1.43-1.82,1.73-1.9Z"/>
  <path class="st5" d="M372.22,263.14c-.08.12-.65.92-.51,1.03,1.33.48,1.45-.89,2.18-1.03.54-.11,2.78-.09,3.36-.01s.88.45,1.29.52c.35.05,2.35.1,2.43.01.04-.04.04-.99,0-1.03-.17-.18-4.36-.05-5-.01l-1.69-1.01c1.16-.33,6.37.43,6.83-.25.21-.3-.04-1,.26-1.06,1.36-.24,3.34.14,4.74.27l-2.09,1.38c-1.12.11-1.62,1.05-2.22,1.45-.39.26-1.76.73-1.82.81-.18.2.04,1.35-.05,1.84-.04.22-.96.66-1.01.89-.09.42.08.83-.08,1.29-.04.11-1.57,1.54-1.98,1.09.62-.63,3.08-4.12,2.55-4.87-2.33-.83-5.28-.74-7.58.23-.95.4-1.61,1.34-2.7,1.29.85-1.53,1.69-2,3.09-2.83.33-.49.34-.93,1.29-1.03-.04.1.1.33-.04.48-.05.05-.99.4-1.24.55Z"/>
  <path class="st8" d="M327.46,202.17l1.03.45.94,3.93c1.43,1.84,2.03,4.17,3.27,6.09.24.37.84.6,1.19,1.23.43.76.91,1.55.77,2.46-.73-.06-.85-.87-1.29-1.15-1.09-.69-2.65-1.07-3.78-1.51-.67-.26.09-.49-1.96-.95-.2-.04-.15-.46-.35-.51-.67-.16-3.13.12-2.91-1.29,2.24.71,4.16,1.15,6.36,2.26.83.42,1.39,1.44,2.64,1.34-1.19-2.47-2.9-4.62-4.08-7.11-.7-1.49-1.56-3.62-1.84-5.24Z"/>
  <path class="st1" d="M326.94,263.14c.55-.07.52.05.51.51.66.24,1.06.67,1.54,1.23.17.2,1.27,1.58,1.04,1.86l-3.86-2.57c.43,0,.86.01,1.29,0,0-.17,0-.34,0-.51-.94-.34-.25-.17-.51-.51Z"/>
  <path class="st0" d="M314.08,199.85c.32.14.51-.21.51.51.08.04.32-.06.44.08l2.64,2.75c-.61.03-.95-.47-1.49-.7-1.74-.75-1.13-.61-2.37-1.61.75,0,.78.19.77-.51-.29-.15-.41.3-.51-.51-.91-.4-.24-.28-.53-.82-.14-.26-.44-.24-.49-.4-.08-.28.04-.61,0-.84,1.14.54.91,1.09,1.03,2.06Z"/>
  <path class="st6" d="M378.14,194.19c-1.81,1.15-2.76,2.75-4.25,4.11-.17-1.06,1-2.13,1.42-2.83.57.63,1.38-1.19,1.74-1.28.36-.09.83.06,1.09-.01Z"/>
  <path class="st0" d="M317.17,193.68c.75.26,2.71.86,3.01,1.62.13.32.03.55.08.7.71.07.52-.1.51-.77.02.05.27.1.37.27.55,1.02.93,2.42.92,3.58l-1.79-2.5c-.08-.19.03-.45,0-.58-.25-.03-.46-.08-.64-.25l-2.45-2.06Z"/>
  <path class="st12" d="M406.7,239.73l.51.26s-.05.52-.37.77c-.35.28-2.03,1.44-2.33,1.54-.31.1-.54-.08-.38-.38.13-.24,1.21-.86,1.54-1.16l.13.25.13-.25s-.04-.21,0-.26l.26-.26c.31-.39.49-.48.51-.51Z"/>
  <path class="st8" d="M323.86,210.66c-.73-.1-1.73.15-2.4,0-.19-.05-.16-.46-.35-.5-.75-.18-2.17.55-1.88-.78,1.51.06,3.2.86,4.63,1.29Z"/>
  <path class="st12" d="M400.52,236.38c-.42.9-.41,2.46-1.28,3.09-.11-1.19.52-2.37.77-3.34l.51.26Z"/>
  <path class="st8" d="M296.59,210.14c-.02.14.04.48,0,.51-.13.1-2.79,0-3.35,0,.93-.41,2.28-.47,3.34-.51Z"/>
  <path class="st4" d="M333.89,151.23c-.26,7.41-3.41,14.44-10.94,16.72.33-1.12,2.11-1.67,2.82-2.32,1.66-1.53,2.68-5.74,2.46-7.96-1.06-.11-2.03.15-3.03.44-.78.23-2.84,1.16-3.45,1.63-.77.6-1.99,2.92-2.65,3.08s-.25-.21-.19-.44c.64-2.6,3.19-6.44,5.54-7.84,1.1-.65,8.89-3.86,9.43-3.3Z"/>
  <path class="st0" d="M331.4,229.35c.26.33.76.42,1.16,1.03.33.5.63,1.28.69,1.88-.28-.23-.48-.56-.78-.77-1.53-1.1-1.77-2.06-3.94-2.74-.95-.3-5.18-1.08-5.67-.3-.97,1.55,2.64,6.44,4.19,7.19.51.25,1.33.64,1.75.83.37.16,1.63.33,1.74.44.26.25.05.53-.38.51-1.98-.09-5.35-1.42-7.11-2.41-3.84-2.18-6.4-7.35-7.43-11.48,5.87-.17,11.14.43,15.32,4.88.29.31.28.73.45.95Z"/>
  <path class="st3" d="M405.92,240.5c.08-.09.18-.17.26-.26l-.26.26Z"/>
  <path class="st0" d="M292.38,227.73c.61.45,2.33,2.17,2.74,2.8.69,1.06,2.36,5.3,2.5,6.49.06.48.26,1.67-.51,1.41.42-1.11-.38-1.45-.49-1.74-.65-1.72-.95-2.42-2.46-3.65-1.42-1.15-3.49-1.93-5.27-2.33-.68,2.16-.06,6.52,1.41,8.23.62.72,2.68,1.56,2.83,2.83-.65-.29-1.32-.5-1.97-.8-1.47-.67-4.84-4.14-5.63-5.75-1.44-2.93-1.82-8.22-1.66-11.46,1.23.37,2.62.83,3.78,1.36,1.28.58,3.65,1.8,4.74,2.6Z"/>
  <path class="st3" d="M405.67,240.76s.21.04.26,0l-.13.25-.13-.25Z"/>
  <path class="st5" d="M385.6,263.14c-.27.27-.8-.23-.51-.51.29-.29.79.24.51.51Z"/>
</svg>