<?xml version="1.0" encoding="UTF-8"?>
<svg id="Layer_1" data-name="Layer 1" xmlns="http://www.w3.org/2000/svg" viewBox="0 0 410.66 288.67">
  <defs>
    <style>
      .cls-1 {
        fill: #003f87;
      }
    </style>
  </defs>
  <path class="cls-1" d="M384.94,213.74l-.94-.03c-.47,1.19-3.53,8.57-3.53,8.57,2.25,7.35,6.96,14.71,7.18,22.54.01.35-.02.71-.04,1.07-1.25,1.44-2.46,2.82-3.99,4.05-6.23,5.03-12.46,9.87-19.84,12.75,0,0-3.52,6.58-4.38,8.34,0,0,.68,1.08.68,1.03,8.22-3.2,15.63-8.47,22.12-14.66,4.49-4.28,7.2-10.59,8.66-16.53,2.39-9.71-3.16-18.15-5.91-27.12"/>
  <path class="cls-1" d="M395.38,222.07c3.7,15.84,7.98,32.18,11.48,48.39l1.21-.06s2.59-8.88,2.59-8.88c-3.5-16.21-8.69-32.02-11.48-48.39l-.72-.21c-.59,1.8-3.08,9.15-3.08,9.15"/>
  <path class="cls-1" d="M208.32,222.07c3.7,15.84,7.98,32.18,11.48,48.39l1.21-.06s2.59-8.88,2.59-8.88c-3.5-16.21-8.69-32.02-11.48-48.39l-.72-.21c-.59,1.8-3.08,9.15-3.08,9.15"/>
  <path class="cls-1" d="M395.98,261.52c-2.84-14.15-14.13-25.02-24.52-34.18,0,0-1.06,0-1.06,0-.94,2.68-3.22,8.56-3.22,8.56,7.88,6.95,17.01,15.46,21.91,25.41-3.15,0-5.71.58-25.17,1.58l-3.76,9.14,32.07-1.35,3.75-9.15Z"/>
  <path class="cls-1" d="M345.51,250.5c1.95,3.56,3.24,12.8,3.16,13.47.24-.14,1.49-2.63,1.49-2.63-18.04-.43-23.57-21.5-26.9-29.24.01.03-.96-.14-.96-.14-.91,2.85-3.07,9.18-3.07,9.18,4.23,9.84,10.17,27.95,27.93,28.81,0,0,8.63-13.58,2.05-28.82l-.99.07c-.42,1.32-2.72,9.3-2.72,9.3"/>
  <path class="cls-1" d="M81.69,250.5c1.95,3.56,3.24,12.8,3.16,13.47.24-.14,1.49-2.63,1.49-2.63-18.04-.43-17.46-.48.31.39,0,0,2.78-8.85-1.25-20.59l-.99.07c-.42,1.32-2.72,9.3-2.72,9.3"/>
  <path class="cls-1" d="M284.78,250.5c1.95,3.56,3.24,12.8,3.16,13.47.24-.14,1.49-2.63,1.49-2.63-18.04-.43-21.38-21.5-24.71-29.24.01.03-.96-.14-.96-.14-.91,2.85-3.07,9.18-3.07,9.18,4.24,9.84,7.97,27.95,25.74,28.81,0,0,8.63-13.58,2.05-28.82l-.99.07c-.42,1.32-2.72,9.3-2.72,9.3"/>
  <path class="cls-1" d="M198.43,222.07c2.29,11.56,4.56,23.12,6.79,34.7.84,4.35,2.5,9.24,2.58,13.69l3.75-9.15c-18.25,2.22-20.4-6.61-22.52-16l-.62-.06-3.09,9.42s3.33,17.52,22.52,16c1.26-.1,3.77-7.98,3.75-9.15-.08-4.45-1.74-9.34-2.58-13.69-2.15-11.12-4.33-22.23-6.52-33.34-.42-.04-.39-.04-.81-.08l-3.26,7.66Z"/>
  <path class="cls-1" d="M189.2,260.98c-9.22,1.07-13.84-6.39-12.33-10.37l-.79-.31c-7.04,15.44,3.35,19.77,8.26,20.15.77.06,1.5-.38,1.84-1.08,1.15-2.34,3.74-7.65,3.67-7.64l-.65-.75Z"/>
  <path class="cls-1" d="M174.19,260.98c-16.17,1.2-19.56-6.39-18.04-10.37l-.79-.31c-7.51,16.96,2.97,19.83,13.23,20.12,1.25.04,2.4-.67,2.95-1.79,1.25-2.56,3.37-6.91,3.3-6.9l-.65-.75Z"/>
  <path class="cls-1" d="M86.01,260.98c-16.17,1.2-19.56-6.39-18.04-10.37l-.79-.31c-7.29,16.47,2.37,19.65,12.33,20.09,1.78.08,3.43-.9,4.21-2.5,1.26-2.58,3-6.17,2.94-6.16l-.65-.75Z"/>
  <path class="cls-1" d="M153.98,260.91c-7.78.74-16.91.57-22.27-4.66h-1.23c-4.28,5.06-17.51,6.07-24.22,2.73-7.65-3.82-8.51-13.68-12.03-44.57l-.72-.32c-.79,1.79-3.07,7.91-3.07,7.91,3.89,31.62,4.77,40.81,12.78,45.94,5.97,3.83,20.72,2.21,27.9-3.54l-3.48-.29c1.14.73,3.01,5.91,18.03,6.21,2.72.06,5.2-1.57,6.2-4.1l2.1-5.32Z"/>
  <path class="cls-1" d="M329.94,257.42c-36.92,12.29-28.37-.47-27.59-3.75l-1.35-.06c-5.99,16.92,1.07,22.84,26.15,13.27.82-.31,1.26-1.23,1.36-2.1.26-2.37.26-9.85.52-9.99l.91,2.63Z"/>
  <path class="cls-1" d="M338.4,234.39c1.96.92,3.92,1.84,6.89,3.31.53-.2.8-.31,1.32-.51l2.86-6.89c-3.01-1.5-5.03-2.46-6.91-3.34-.52.2-.79.31-1.3.52l-2.87,6.91Z"/>
  <path class="cls-1" d="M123.36,281.07c1.96.92,3.92,1.84,6.89,3.31.53-.2.8-.31,1.32-.51l2.86-6.89c-3.01-1.5-5.03-2.46-6.91-3.34-.52.2-.79.31-1.3.52l-2.87,6.91Z"/>
  <path class="cls-1" d="M72.4,281.63c1.96.92,3.92,1.84,6.89,3.31.53-.2.8-.31,1.32-.51l2.86-6.89c-3.01-1.5-5.03-2.46-6.91-3.34-.52.2-.79.31-1.3.52l-2.87,6.91Z"/>
  <path class="cls-1" d="M164.75,241.34c.81-.87,1.7-1.69,2.67-2.39,1.93-1.4,4.28-2.52,6.69-2.68,5.55-.37,7.97,3.1,7.67,8.23l.84.36c.72-1.67,2.82-5.51,2.75-8.2-.18-6.41-3.56-11.59-10.51-9.09-6.62,2.38-10.1,8.7-12.48,14.89l1.11.6s.6-1.02,1.25-1.72"/>
  <path class="cls-1" d="M243.24,261.3c1.41-3.07,6.23-5.79,9.18-7.28,3.03-1.53,6.4-2.61,9.18-4.59,4.12-2.95,6.11-9.25,4.33-13.94.39,1.04-2.72,3.86-2.14,5.4.28.75.4,1.53.61,2.28-.87.61-2.07,1.74-2.61,2.03-2.82,1.54-5.88,2.63-8.7,4.18-5.18,2.86-8.24,6.84-10.41,11.92h-.02l-3.16,7.98,1,1.23c7.01.02,15.18.3,22.44-1.83,2.73-.8,4.78-3.07,5.26-5.87l1.13-6.63c-8.73,5.09-17.98,5.16-26.11,5.13"/>
  <path class="cls-1" d="M3.72,264.29c1.41-3.07,6.23-5.79,9.18-7.28,3.03-1.53,6.4-2.61,9.18-4.59,4.12-2.95,6.11-9.24,4.33-13.94.39,1.04-2.72,3.86-2.14,5.4.28.75.4,1.53.61,2.28-.87.61-2.07,1.74-2.61,2.03-2.82,1.54-5.88,2.63-8.7,4.18-5.18,2.86-8.24,6.84-10.41,11.92h-.02L0,272.26l1,1.23c7.53.03,16.39.35,24.43-2.84,1.95-.77,3.34-2.54,3.69-4.61l1.29-7.61c-8.74,5.02-18.57,5.89-26.69,5.86"/>
  <path class="cls-1" d="M65.24,260.98c-9.01.31-20.93,1.14-28.25-5.28-6.13-5.37-8.05-14.71-10.03-22.41-.45-.03-.43-.02-.87-.05-1,2.64-3.23,7.91-3.23,7.91,2.14,7.95,3.9,18.18,10.43,23.91,7.33,6.43,19.25,5.6,28.26,5.28,1.91-.07,3.06-9.34,3.71-9.36"/>
  <path class="cls-1" d="M264.2,221.77c-2.93,5.65-11.22.33-15.06-1.55,0,0-2.46,5.17-3,6.28-1.18-.47-6.31-3-7.25-3.46l-3.2,6.94c2.38,1.18,4.8,2.74,7.42,3.79l.8-.3c1.08-1.87,1.92-3.7,2.82-5.83,3.6,1.8,9.62,5.22,13.45,3.52,2.47-1.1,4.1-6.63,4.91-8.91l-.9-.48Z"/>
  <path class="cls-1" d="M294.71,274.53c-2.93,5.65-11.22.33-15.06-1.55,0,0-2.46,5.17-3,6.28-1.18-.47-6.31-3-7.25-3.46l-3.2,6.94c2.38,1.18,4.8,2.74,7.42,3.79l.8-.3c1.08-1.87,1.92-3.7,2.82-5.83,3.6,1.8,9.62,5.22,13.45,3.52,2.47-1.1,4.1-6.63,4.91-8.91l-.9-.48Z"/>
  <path class="cls-1" d="M28.97,223.18c-2.93,5.65-11.22.33-15.06-1.55,0,0-2.46,5.17-3,6.28-1.18-.47-6.31-3-7.25-3.46l-3.2,6.94c2.38,1.18,4.8,2.74,7.42,3.79l.8-.3c1.08-1.87,1.92-3.7,2.82-5.83,3.6,1.8,9.62,5.22,13.45,3.52,2.47-1.1,4.1-6.63,4.91-8.91l-.9-.48Z"/>
  <path class="cls-1" d="M64.34,276.67c-2.93,5.65-11.22.33-15.06-1.55,0,0-2.46,5.17-3,6.28-1.18-.47-6.31-3-7.25-3.46l-3.2,6.94c2.38,1.18,4.8,2.74,7.42,3.79l.8-.3c1.08-1.87,1.92-3.7,2.82-5.83,3.6,1.8,9.62,5.22,13.45,3.52,2.47-1.1,4.1-6.63,4.91-8.91l-.9-.48Z"/>
  <path class="cls-1" d="M369.5,213.45c-5.11.33-8.02,5.16-9.02,9.77-.5,2.33,2.17,2.83,4.09,2.73,2.68-.14,4.95-1.72,6.93-3.4l1.93-5.26c-2.55,2.83-6.11,4.43-8.74,7.16-.75.78-1.12,2.25-1.49,3.25-.13.35-.56,2.13-.44,2.01,2.64-2.74,6.19-4.33,8.74-7.16.74-.83,1.12-2.23,1.49-3.25.12-.33.6-2.15.44-2.01-2.52,2.13-5.85,4.13-9.26,2.92-.43-.15-1.04-.73-1.45-.79-1.49,2.56-1.77,3.22-.83,1.99.28-.32.58-.61.91-.88,1.31-1.07,2.88-1.58,4.55-1.69.5-.03,1.16-2.21,1.32-2.6.08-.2.9-2.8.82-2.8"/>
  <path class="cls-1" d="M229.79,43.24c-6.16,5.13-21.1,8.75-26.57,4.55,2.65-1.28,8.97-2.39,12.1-2.3,0,0,5.27-11.86,5.09-11.87-12.17-.34-19.1,10.04-21.47,20.36-1.05,4.56,2.61,6.43,6.88,6.96-.57,1.32-1.97,3.82-2.31,7.81l.87.55c6.27-5.68,16.75-9.31,22.83-15.22,0,0,2.48-8.12,3.37-10.38l-.8-.46Z"/>
  <path class="cls-1" d="M35.29,67.56c-17.78.8-31.65,33.19-34.66,51.18-6.65,39.77,40.93,36.45,59.71,26.7l9.18-20.08c4.53-9.55-8.87-58.94-34.24-57.8M9.22,104.59c13.36-21.63,49.64-11.54,54.47,18.85-25.46,7.97-60.75,5.99-54.47-18.85"/>
  <path class="cls-1" d="M226.26,68.61l-2.78.19c-1.2,3.73-9.78,28.25-9.78,28.25,8.69,4.27,19.39,15.59,20.15,19.49-53.38,23.22-118.13,8.61-127.76-18.1l-3.21-.64-12.19,23.83c13.82,22.75,63.29,48.68,147.14,20.06,0,0,7-30.08-11.56-73.07"/>
  <path class="cls-1" d="M103.09,122.73c-3.4,11.4-19.39,41.84-79.68,41.07v3.45l48.45,22.48c10.55-6.53,35.58-29.53,34.94-64.59l-3.71-2.41Z"/>
  <path class="cls-1" d="M407.08,84.84l-2.51-2.76c-61.01.02-101.92-63.58-123.55,50.91l4.64.94c15.68-59.21,38.11-47.5,69.56-36.92-16.4,7.65-34.06,25.14-61.5,25.73C244.19,123.78,265.87,30.93,257.15,0h-1.98l-7.18,18.85c6.85,48.4-7.26,131.31,43.46,131.31s53.49-48.44,110.5-48.09l5.14-17.22Z"/>
  <path class="cls-1" d="M76.89,26.5c-8.75,15.4-29.44,0-38.95-4.66,0,0-7.14,14.9-8.06,17.24-3.69-1.44-16.79-8.86-19.24-10.08L1.59,46.93c6.25,3.1,11.82,7.36,18.8,10.33l3.85-1.02c2.74-4.95,4.9-9.51,7.39-14.95,9.43,4.73,25.2,13.68,35.25,9.22,6.48-2.88,10.19-16.92,12.32-22.89l-2.31-1.12Z"/>
  <path class="cls-1" d="M336.84,151.76l-9.05,17.92c6.25,3.1,11.82,7.36,18.8,10.33l3.85-1.02c2.74-4.95,5.39-10.57,7.88-16.02,0,0-19.03-10-21.48-11.22"/>
  <path class="cls-1" d="M91.08,50.24l-9.05,17.92c6.25,3.1,11.82,7.36,18.8,10.33l3.85-1.02c2.74-4.95,5.39-10.57,7.88-16.02,0,0-19.03-10-21.48-11.22"/>
  <path class="cls-1" d="M313.11,29.65c-8.58,2.32-17.32,4.74-25.39,8.53-3.95,1.85-9.54,4.52-10.14,9.41-.21,1.72-.19,3.52-.04,5.25l1.37.04c.59-4.81,7.3-6.37,11.01-7.97,8.16-3.51,16.83-5.88,25.4-8.16,19.15-5.08,38.69-8.8,57.63-14.62l-.11-6.54c-.46-.35-.65-.51-1.11-.86-6.53,1.61-40.75,10.08-58.62,14.91"/>
</svg>