<?xml version="1.0" encoding="UTF-8"?>
<svg id="Layer_1" data-name="Layer 1" xmlns="http://www.w3.org/2000/svg" viewBox="0 0 248.77 249.78">
  <defs>
    <style>
      .cls-1 {
        fill: #003d83;
      }
    </style>
  </defs>
  <path class="cls-1" d="M143.5,68.65s-2.58,5.43-3.14,6.6c-1.24-.49-6.63-3.15-7.61-3.64l-3.36,7.29c2.5,1.24,5.04,2.88,7.79,3.98l.84-.32c1.13-1.96,2.02-3.88,2.96-6.11,3.78,1.89,10.09,5.48,14.12,3.69,2.6-1.15,4.3-6.96,5.16-9.35l-.94-.51c-3.08,5.93-11.78.34-15.81-1.63Z"/>
  <path class="cls-1" d="M173.43,108.31l.84-.32c1.13-1.96,2.02-3.88,2.96-6.11,3.78,1.89,10.09,5.48,14.12,3.69,2.6-1.15,4.3-6.96,5.16-9.35l-.94-.51c-3.08,5.93-11.78.34-15.81-1.63,0,0-2.58,5.43-3.14,6.6-1.24-.49-6.63-3.15-7.61-3.64l-3.36,7.29c2.5,1.24,5.04,2.88,7.79,3.98Z"/>
  <path class="cls-1" d="M106.99,14.65c1.13-1.96,2.22-4.81,3.16-7.04-3.61-1.47-7.44-3.42-8.42-3.91l-3.36,7.29c2.5,1.24,5.04,2.88,7.79,3.98l.84-.32Z"/>
  <path class="cls-1" d="M175.68,97c1.13-1.96,2.22-4.81,3.16-7.04-3.61-1.47-7.44-3.42-8.42-3.91l-3.36,7.29c2.5,1.24,5.04,2.88,7.79,3.98l.84-.32Z"/>
  <path class="cls-1" d="M228.34,142.88s-2.58,5.43-3.14,6.6c-1.24-.49-6.63-3.15-7.61-3.64l-3.36,7.29c2.5,1.24,5.04,2.88,7.79,3.98l.84-.32c1.13-1.96,2.02-3.88,2.96-6.11,3.78,1.89,10.09,5.48,14.12,3.69,2.6-1.15,4.3-6.96,5.16-9.35l-.94-.51c-3.08,5.93-11.78.34-15.81-1.63Z"/>
  <path class="cls-1" d="M174.36,231.86s-2.58,5.43-3.14,6.6c-1.24-.49-6.63-3.15-7.61-3.64l-3.36,7.29c2.5,1.24,5.04,2.88,7.79,3.98l.84-.32c1.13-1.96,2.02-3.88,2.96-6.11,3.78,1.89,10.09,5.48,14.12,3.69,2.6-1.15,4.3-6.96,5.16-9.35l-.94-.51c-3.08,5.93-11.78.34-15.81-1.63Z"/>
  <path class="cls-1" d="M13.76,187.57c1.13-1.96,2.02-3.88,2.96-6.11,3.78,1.89,10.09,5.48,14.12,3.69,2.6-1.15,4.3-6.96,5.16-9.35l-.94-.51c-3.08,5.93-11.78.34-15.81-1.63,0,0-2.58,5.43-3.14,6.6-1.24-.49-6.63-3.15-7.61-3.64l-3.36,7.29c2.5,1.24,5.04,2.88,7.79,3.98l.84-.32Z"/>
  <path class="cls-1" d="M93.23,199.87h1.22c0-14.62,54.35-22.66,91.88-31.68l-.24-2.92c-37.41,9.02-92.85,15.84-92.85,34.61Z"/>
  <path class="cls-1" d="M242.49,192.07c-.44.05-.9.14-1.38.27-17.92,2.85-25.7-4.41-34.32-4.9-9.37-.57-14.69,13.49-10.77,30-8.03,1.4-13.72-3.15-13.72-20.49h-1.22c0,5.55.33,10.15.95,13.94-14.04,4.24-75.84,27.65-110.77,10.31-28.04-13.9-19.89-34.13-29.81-46.11-.45.13-.51.15-.96.28l-.8,5.43c12.92,13.16,5.75,36.15,31.09,48.7,38.26,19.01,97.26-5.61,112.49-9.87l-.1-3.62c2.89,9.68,8.55,11.47,15.45,9.49.8,1.94,1.73,3.89,2.8,5.83l1.42-.87c-1.03-1.86-1.93-3.67-2.72-5.44,12.86-4.56,29.48-20.59,40.8-23.33.2-.03.39-.05.59-.09v-.05c.41-.08.82-.15,1.22-.2l-.24-9.26ZM206.79,196.7c7.14.45,11.61,3.25,18.22,4.71-9.18,6.29-19.49,13.76-27.69,15.76-3.35-12.53.35-21.02,9.47-20.46Z"/>
  <path class="cls-1" d="M9.84,222.97l-.03-.02c-1.9,20.43,30.85,14.32,30.85.21,0-30.35-29.66-32.53-30.82-.19ZM39.61,223.16c0,1.63-27.86,9.02-28.74,1.37.56-23.84,28.74-21.76,28.74-1.37Z"/>
  <path class="cls-1" d="M235.94,102.94c-.51.14-.58.15-1.09.29l-.76,4.76c4.51,5.06,6.3,7.76,6.99,10.74-21.05,19.49-27.6,1.27-39.51-11.97-.5.15-.57.17-1.07.32l-.78,5.06c3.39,3.66,6.31,7.64,9.15,11.21-6.78,4.16-20,5.03-20-5.36h-1.22c0,13.89,7.19,23.88,23.03,11.94l-.5-4.95c8.1,9.82,15.98,15.33,32.66-.65l-.13-1.19c-.13-7.13-1.57-13.77-6.79-20.19Z"/>
  <path class="cls-1" d="M101.9,55.58c12.72,7.76,34.93,7.82,50.13-4.73.34-.19.79-.56,1.36-1.17,3.4-3.59,3.54-8.05,2.69-11.86,5.61,9.59,7.21,21.03,12.51,21.79,5.19.74,7.92-4.55,8.33-14.4,1.65,5.84,4.93,10.32,9.18,13.55-1.26,2.75-2.01,5.44-2.01,7.95h1.22c0-2.24.84-4.57,2.26-6.9,19.24,12.76,55.18,2.67,55.18-20.89,0-8.6-5.97-23.8-29.37-9.28-5.04,3.13-16.41,12.58-23.41,22.54-7.63-2.68-13-7.75-13-15.96h-1.22c-.78,14.59-3.37,16.59-7.58,16.38-6.26-.31-5.95-17.48-16.92-28.69l-.97,6.58c5.03,4.99,6.05,8.16,3.27,10.86-10.52,9.99-29.34,12.23-43.04,9.54,5.35-3.53,9-7.48,10.12-11.61,4.51-16.45-17.38-30.33-27.01-7.09-2.74,6.62-1.88,12.43,1.35,17.06C61.16,58.16,4.66,60.34,6.49,33.99l-1.35-.03c-2.73,39.29,63.18,36.94,96.77,21.62ZM214.1,37.68c18.64-11.21,27.42-4.51,27.42,1.97,0,10.59-29.33,18.3-48.46,13.47,6.3-6.21,15.08-11.89,21.04-15.43ZM94.83,35.36c5.8-11.7,26.44-5.23,24.57,1.49-1.02,3.65-8.31,7.53-18.74,10.78-5.59-2.93-8.35-7.19-5.83-12.27Z"/>
  <path class="cls-1" d="M81.81,110.82v.51c3.36-.37,6.7-.11,9.53-1.87,1.66-1.03,3.58-2.33,5.02-3.92,1.38,1.23,2.7,2.09,2.54,2.87l.34.18c.69-2-.32-3.46-1.63-4.73.28-.47.51-.97.67-1.48.67-2.09.49-5.09-1.29-6.59-2.13-1.78-2.88,1.05-3.33,2.77-.64,2.47.22,4.28,1.42,5.69-1.5,1.33-3.27,2.5-4.51,3.22-3.78,2.15-8.75,3.35-8.75,3.35ZM98.03,99.41c.19,1.05-.49,2.26-1.54,3.45-1.32-1.14-2.56-2.19-2.53-3.46.05-1.79,3.2-2.29,4.07.02Z"/>
  <path class="cls-1" d="M48.19,37.05c-2.5.89-4.45,1.36-4.45,1.36v.6c3.9-.43,7.78-.13,11.07-2.17,1.93-1.2,4.16-2.7,5.84-4.56,1.6,1.44,3.13,2.43,2.95,3.33l.4.2c.8-2.33-.37-4.02-1.89-5.5.32-.55.59-1.12.78-1.72.78-2.42.57-5.92-1.5-7.66-2.48-2.07-3.35,1.22-3.87,3.22-.74,2.87.26,4.98,1.65,6.62-1.57,1.39-3.39,2.63-4.79,3.47.45-2.3-.06-5.08-1.72-6.81-1.66-1.73-4.47.69-4.68,4.51l.84.14c.49-3.43,4.52-1.86,5.05-.44.44,2.44-2.35,4.17-5.67,5.4ZM62.59,25.14c.22,1.22-.57,2.63-1.79,4.01-1.53-1.32-2.98-2.55-2.94-4.02.06-2.08,3.72-2.67,4.73.02Z"/>
  <path class="cls-1" d="M97.93,118.38c5.08-.21,2.07-7.04,2.07-7.04l-.49.28s1.37,3.96-1.86,4.31-2.56-3.12-2.56-3.12l-.77-.42c-11.7,7.85-8.92,3.4-8.59,1.37l-1.12-.39c-1.32,10.21,8.5,4.5,9.71.35,0,0-1.12,4.86,3.61,4.66Z"/>
  <path class="cls-1" d="M28.67,160.92c9.09-.92,8.97-7.12,17.26-8.05l.07-1.68c-13.8,1.06-39.73,1.68-39.31-2.56.36-3.57,15.78-5.71,24.92-15.69,17.9,11.2,51.24,23.56,136.55,2.71l-.13-4.67c3.66,7.27,11.33,6.72,20.6,2.48l-.49-8.53c-11.33,5.24-21.2,4.14-21.2-6.95h-1.22c0,3.56.31,6.52.89,8.97-78.02,18.87-111.57,9.12-130.36-1.22,1.73-4.16,2.46-9.24,1.58-15.49-13.16.73-24.47-3.84-32.77,3.46l.05.02s0,0,0,0l.49,8.53c7.3-3,12.01.99,19.88,6.57-9.97,3.62-22.82,5.53-21.74,19.88.77,10.31,11.05,13.62,24.93,12.22ZM36.4,119.55c-.45,1.92-1.39,3.45-2.69,4.73-3.39-2.01-6.28-3.98-8.88-5.73,2.7.35,6.43,1.12,11.57,1Z"/>
</svg>