<?xml version="1.0" encoding="UTF-8"?>
<svg id="Layer_1" data-name="Layer 1" xmlns="http://www.w3.org/2000/svg" xmlns:xlink="http://www.w3.org/1999/xlink" viewBox="0 0 858.03 242.66">
  <defs>
    <style>
      .cls-1 {
        fill: url(#linear-gradient-20);
      }

      .cls-1, .cls-2, .cls-3, .cls-4, .cls-5, .cls-6, .cls-7, .cls-8 {
        opacity: .5;
      }

      .cls-9 {
        mask: url(#mask-15);
      }

      .cls-2 {
        fill: url(#linear-gradient-14);
      }

      .cls-10 {
        mask: url(#mask-5);
      }

      .cls-11 {
        mask: url(#mask-13);
      }

      .cls-12 {
        fill: url(#linear-gradient-2);
      }

      .cls-13 {
        fill: url(#linear-gradient-9);
      }

      .cls-13, .cls-14, .cls-15, .cls-16, .cls-17, .cls-18, .cls-19, .cls-20 {
        mix-blend-mode: multiply;
      }

      .cls-14 {
        fill: url(#linear-gradient-13);
      }

      .cls-21 {
        mask: url(#mask-1);
      }

      .cls-3 {
        fill: url(#linear-gradient-24);
      }

      .cls-22 {
        mask: url(#mask-10);
      }

      .cls-23 {
        mask: url(#mask-6);
      }

      .cls-24 {
        fill: #d9a86a;
      }

      .cls-25 {
        mask: url(#mask-7);
      }

      .cls-26 {
        filter: url(#luminosity-noclip-15);
      }

      .cls-27 {
        filter: url(#luminosity-noclip-5);
      }

      .cls-28 {
        fill: #fff;
      }

      .cls-29 {
        mask: url(#mask);
      }

      .cls-30 {
        fill: url(#linear-gradient-4);
      }

      .cls-31 {
        mask: url(#mask-8);
      }

      .cls-32 {
        filter: url(#luminosity-noclip-11);
      }

      .cls-4 {
        fill: url(#linear-gradient-12);
      }

      .cls-33 {
        mask: url(#mask-2);
      }

      .cls-34 {
        filter: url(#luminosity-noclip-3);
      }

      .cls-35 {
        mask: url(#mask-9);
      }

      .cls-36 {
        fill: url(#linear-gradient-3);
      }

      .cls-37 {
        fill: url(#linear-gradient-5);
      }

      .cls-15 {
        fill: url(#linear-gradient-21);
      }

      .cls-38 {
        fill: url(#linear-gradient-8);
      }

      .cls-39 {
        filter: url(#luminosity-noclip-13);
      }

      .cls-5 {
        fill: url(#linear-gradient-22);
      }

      .cls-6 {
        fill: url(#linear-gradient-10);
      }

      .cls-16 {
        fill: url(#linear-gradient-23);
      }

      .cls-40 {
        filter: url(#luminosity-noclip-9);
      }

      .cls-41 {
        fill: url(#linear-gradient-7);
      }

      .cls-17 {
        fill: url(#linear-gradient-11);
      }

      .cls-42 {
        fill: url(#linear-gradient-6);
      }

      .cls-18 {
        fill: url(#linear-gradient-17);
      }

      .cls-43 {
        mask: url(#mask-11);
      }

      .cls-44 {
        mask: url(#mask-12);
      }

      .cls-45 {
        mask: url(#mask-4);
      }

      .cls-19 {
        fill: url(#linear-gradient-15);
      }

      .cls-20 {
        fill: url(#linear-gradient-19);
      }

      .cls-46 {
        mask: url(#mask-14);
      }

      .cls-47 {
        fill: url(#linear-gradient);
      }

      .cls-48 {
        filter: url(#luminosity-noclip-7);
      }

      .cls-7 {
        fill: url(#linear-gradient-18);
      }

      .cls-8 {
        fill: url(#linear-gradient-16);
      }

      .cls-49 {
        mask: url(#mask-3);
      }

      .cls-50 {
        filter: url(#luminosity-noclip);
      }
    </style>
    <linearGradient id="linear-gradient" x1="722.9" y1="64.14" x2="722.9" y2="38.67" gradientUnits="userSpaceOnUse">
      <stop offset="0" stop-color="#006837"/>
      <stop offset=".5" stop-color="#009245"/>
      <stop offset="1" stop-color="#39b54a"/>
    </linearGradient>
    <linearGradient id="linear-gradient-2" y1="178.52" y2="204" xlink:href="#linear-gradient"/>
    <linearGradient id="linear-gradient-3" x1="640.24" y1="121.33" x2="665.71" y2="121.33" xlink:href="#linear-gradient"/>
    <linearGradient id="linear-gradient-4" x1="780.09" y1="121.33" x2="805.57" y2="121.33" xlink:href="#linear-gradient"/>
    <linearGradient id="linear-gradient-5" x1="738.97" y1="137.97" x2="781.2" y2="179.47" xlink:href="#linear-gradient"/>
    <linearGradient id="linear-gradient-6" x1="706.88" y1="137.78" x2="664.65" y2="179.47" xlink:href="#linear-gradient"/>
    <linearGradient id="linear-gradient-7" x1="739.35" y1="105.18" x2="781.13" y2="63.02" xlink:href="#linear-gradient"/>
    <linearGradient id="linear-gradient-8" x1="706.39" y1="105.25" x2="664.51" y2="62.82" xlink:href="#linear-gradient"/>
    <filter id="luminosity-noclip" x="713.51" y="42.02" width="18.77" height="11.69" color-interpolation-filters="sRGB" filterUnits="userSpaceOnUse">
      <feFlood flood-color="#fff" result="bg"/>
      <feBlend in="SourceGraphic" in2="bg"/>
    </filter>
    <filter id="luminosity-noclip-2" x="713.51" y="-7797.43" width="18.77" height="32766" color-interpolation-filters="sRGB" filterUnits="userSpaceOnUse">
      <feFlood flood-color="#fff" result="bg"/>
      <feBlend in="SourceGraphic" in2="bg"/>
    </filter>
    <mask id="mask-1" x="713.51" y="-7797.43" width="18.77" height="32766" maskUnits="userSpaceOnUse"/>
    <linearGradient id="linear-gradient-9" x1="722.9" y1="38.65" x2="722.9" y2="57.85" gradientUnits="userSpaceOnUse">
      <stop offset="0" stop-color="#b3b3b3"/>
      <stop offset="1" stop-color="#000"/>
    </linearGradient>
    <mask id="mask" x="713.51" y="42.02" width="18.77" height="11.69" maskUnits="userSpaceOnUse">
      <g class="cls-50">
        <g class="cls-21">
          <path class="cls-13" d="M722.9,51.4c-5.18,0-9.39,5.18-9.39,0s4.21-9.39,9.39-9.39,9.39,4.21,9.39,9.39-4.21,0-9.39,0Z"/>
        </g>
      </g>
    </mask>
    <linearGradient id="linear-gradient-10" x1="722.9" y1="38.65" x2="722.9" y2="57.85" gradientUnits="userSpaceOnUse">
      <stop offset="0" stop-color="#fff"/>
      <stop offset="1" stop-color="#fff"/>
    </linearGradient>
    <filter id="luminosity-noclip-3" x="643.59" y="111.94" width="11.69" height="18.77" color-interpolation-filters="sRGB" filterUnits="userSpaceOnUse">
      <feFlood flood-color="#fff" result="bg"/>
      <feBlend in="SourceGraphic" in2="bg"/>
    </filter>
    <filter id="luminosity-noclip-4" x="643.59" y="-7797.43" width="11.69" height="32766" color-interpolation-filters="sRGB" filterUnits="userSpaceOnUse">
      <feFlood flood-color="#fff" result="bg"/>
      <feBlend in="SourceGraphic" in2="bg"/>
    </filter>
    <mask id="mask-3" x="643.59" y="-7797.43" width="11.69" height="32766" maskUnits="userSpaceOnUse"/>
    <linearGradient id="linear-gradient-11" x1="982.35" y1="473.5" x2="982.35" y2="492.7" gradientTransform="translate(166.72 1103.68) rotate(-90)" xlink:href="#linear-gradient-9"/>
    <mask id="mask-2" x="643.59" y="111.94" width="11.69" height="18.77" maskUnits="userSpaceOnUse">
      <g class="cls-34">
        <g class="cls-49">
          <path class="cls-17" d="M652.98,121.33c0,5.18,5.18,9.39,0,9.39s-9.39-4.21-9.39-9.39,4.21-9.39,9.39-9.39,0,4.21,0,9.39Z"/>
        </g>
      </g>
    </mask>
    <linearGradient id="linear-gradient-12" x1="982.35" y1="473.5" x2="982.35" y2="492.7" gradientTransform="translate(166.72 1103.68) rotate(-90)" xlink:href="#linear-gradient-10"/>
    <filter id="luminosity-noclip-5" x="713.51" y="188.96" width="18.77" height="11.69" color-interpolation-filters="sRGB" filterUnits="userSpaceOnUse">
      <feFlood flood-color="#fff" result="bg"/>
      <feBlend in="SourceGraphic" in2="bg"/>
    </filter>
    <filter id="luminosity-noclip-6" x="713.51" y="-7797.43" width="18.77" height="32766" color-interpolation-filters="sRGB" filterUnits="userSpaceOnUse">
      <feFlood flood-color="#fff" result="bg"/>
      <feBlend in="SourceGraphic" in2="bg"/>
    </filter>
    <mask id="mask-5" x="713.51" y="-7797.43" width="18.77" height="32766" maskUnits="userSpaceOnUse"/>
    <linearGradient id="linear-gradient-13" x1="547.5" y1="732.95" x2="547.5" y2="752.15" gradientTransform="translate(1270.4 936.96) rotate(-180)" xlink:href="#linear-gradient-9"/>
    <mask id="mask-4" x="713.51" y="188.96" width="18.77" height="11.69" maskUnits="userSpaceOnUse">
      <g class="cls-27">
        <g class="cls-10">
          <path class="cls-14" d="M722.9,191.26c5.18,0,9.39-5.18,9.39,0s-4.21,9.39-9.39,9.39-9.39-4.21-9.39-9.39,4.21,0,9.39,0Z"/>
        </g>
      </g>
    </mask>
    <linearGradient id="linear-gradient-14" x1="547.5" y1="732.95" x2="547.5" y2="752.15" gradientTransform="translate(1270.4 936.96) rotate(-180)" xlink:href="#linear-gradient-10"/>
    <filter id="luminosity-noclip-7" x="790.53" y="111.94" width="11.69" height="18.77" color-interpolation-filters="sRGB" filterUnits="userSpaceOnUse">
      <feFlood flood-color="#fff" result="bg"/>
      <feBlend in="SourceGraphic" in2="bg"/>
    </filter>
    <filter id="luminosity-noclip-8" x="790.53" y="-7797.43" width="11.69" height="32766" color-interpolation-filters="sRGB" filterUnits="userSpaceOnUse">
      <feFlood flood-color="#fff" result="bg"/>
      <feBlend in="SourceGraphic" in2="bg"/>
    </filter>
    <mask id="mask-7" x="790.53" y="-7797.43" width="11.69" height="32766" maskUnits="userSpaceOnUse"/>
    <linearGradient id="linear-gradient-15" x1="288.05" y1="298.1" x2="288.05" y2="317.3" gradientTransform="translate(1103.68 -166.72) rotate(90)" xlink:href="#linear-gradient-9"/>
    <mask id="mask-6" x="790.53" y="111.94" width="11.69" height="18.77" maskUnits="userSpaceOnUse">
      <g class="cls-48">
        <g class="cls-25">
          <path class="cls-19" d="M792.83,121.33c0-5.18-5.18-9.39,0-9.39s9.39,4.21,9.39,9.39-4.21,9.39-9.39,9.39,0-4.21,0-9.39Z"/>
        </g>
      </g>
    </mask>
    <linearGradient id="linear-gradient-16" x1="288.05" y1="298.1" x2="288.05" y2="317.3" gradientTransform="translate(1103.68 -166.72) rotate(90)" xlink:href="#linear-gradient-10"/>
    <filter id="luminosity-noclip-9" x="667.16" y="62.99" width="33.2" height="35.8" color-interpolation-filters="sRGB" filterUnits="userSpaceOnUse">
      <feFlood flood-color="#fff" result="bg"/>
      <feBlend in="SourceGraphic" in2="bg"/>
    </filter>
    <filter id="luminosity-noclip-10" x="667.16" y="-7797.43" width="33.2" height="32766" color-interpolation-filters="sRGB" filterUnits="userSpaceOnUse">
      <feFlood flood-color="#fff" result="bg"/>
      <feBlend in="SourceGraphic" in2="bg"/>
    </filter>
    <mask id="mask-9" x="667.16" y="-7797.43" width="33.2" height="32766" maskUnits="userSpaceOnUse"/>
    <linearGradient id="linear-gradient-17" x1="693.02" y1="70" x2="681.16" y2="85.61" xlink:href="#linear-gradient-9"/>
    <mask id="mask-8" x="667.16" y="62.99" width="33.2" height="35.8" maskUnits="userSpaceOnUse">
      <g class="cls-40">
        <g class="cls-35">
          <path class="cls-18" d="M700.36,98.79c-5.42-13.63-14.12-26.71-20.61-33.2-1.68-1.68-3.91-2.6-6.29-2.6s-4.62.92-6.29,2.6t0,0l33.2,33.2Z"/>
        </g>
      </g>
    </mask>
    <linearGradient id="linear-gradient-18" x1="693.02" y1="70" x2="681.16" y2="85.61" xlink:href="#linear-gradient-10"/>
    <filter id="luminosity-noclip-11" x="664.56" y="143.87" width="35.8" height="33.2" color-interpolation-filters="sRGB" filterUnits="userSpaceOnUse">
      <feFlood flood-color="#fff" result="bg"/>
      <feBlend in="SourceGraphic" in2="bg"/>
    </filter>
    <filter id="luminosity-noclip-12" x="664.56" y="-7797.43" width="35.8" height="32766" color-interpolation-filters="sRGB" filterUnits="userSpaceOnUse">
      <feFlood flood-color="#fff" result="bg"/>
      <feBlend in="SourceGraphic" in2="bg"/>
    </filter>
    <mask id="mask-11" x="664.56" y="-7797.43" width="35.8" height="32766" maskUnits="userSpaceOnUse"/>
    <linearGradient id="linear-gradient-19" x1="952.48" y1="504.85" x2="940.62" y2="520.46" gradientTransform="translate(166.72 1103.68) rotate(-90)" xlink:href="#linear-gradient-9"/>
    <mask id="mask-10" x="664.56" y="143.87" width="35.8" height="33.2" maskUnits="userSpaceOnUse">
      <g class="cls-32">
        <g class="cls-43">
          <path class="cls-20" d="M700.36,143.87c-13.63,5.42-26.71,14.12-33.2,20.61-1.68,1.68-2.6,3.91-2.6,6.29s.92,4.62,2.6,6.29t0,0l33.2-33.2Z"/>
        </g>
      </g>
    </mask>
    <linearGradient id="linear-gradient-20" x1="952.48" y1="504.85" x2="940.62" y2="520.46" gradientTransform="translate(166.72 1103.68) rotate(-90)" xlink:href="#linear-gradient-10"/>
    <filter id="luminosity-noclip-13" x="745.44" y="143.87" width="33.2" height="35.8" color-interpolation-filters="sRGB" filterUnits="userSpaceOnUse">
      <feFlood flood-color="#fff" result="bg"/>
      <feBlend in="SourceGraphic" in2="bg"/>
    </filter>
    <filter id="luminosity-noclip-14" x="745.44" y="-7797.43" width="33.2" height="32766" color-interpolation-filters="sRGB" filterUnits="userSpaceOnUse">
      <feFlood flood-color="#fff" result="bg"/>
      <feBlend in="SourceGraphic" in2="bg"/>
    </filter>
    <mask id="mask-13" x="745.44" y="-7797.43" width="33.2" height="32766" maskUnits="userSpaceOnUse"/>
    <linearGradient id="linear-gradient-21" x1="517.62" y1="764.3" x2="505.76" y2="779.91" gradientTransform="translate(1270.4 936.96) rotate(-180)" xlink:href="#linear-gradient-9"/>
    <mask id="mask-12" x="745.44" y="143.87" width="33.2" height="35.8" maskUnits="userSpaceOnUse">
      <g class="cls-39">
        <g class="cls-11">
          <path class="cls-15" d="M745.44,143.87c5.42,13.63,14.12,26.71,20.61,33.2,1.68,1.68,3.91,2.6,6.29,2.6s4.62-.92,6.29-2.6h0s-33.2-33.2-33.2-33.2Z"/>
        </g>
      </g>
    </mask>
    <linearGradient id="linear-gradient-22" x1="517.62" y1="764.3" x2="505.76" y2="779.91" gradientTransform="translate(1270.4 936.96) rotate(-180)" xlink:href="#linear-gradient-10"/>
    <filter id="luminosity-noclip-15" x="745.44" y="65.59" width="35.8" height="33.2" color-interpolation-filters="sRGB" filterUnits="userSpaceOnUse">
      <feFlood flood-color="#fff" result="bg"/>
      <feBlend in="SourceGraphic" in2="bg"/>
    </filter>
    <filter id="luminosity-noclip-16" x="745.44" y="-7797.43" width="35.8" height="32766" color-interpolation-filters="sRGB" filterUnits="userSpaceOnUse">
      <feFlood flood-color="#fff" result="bg"/>
      <feBlend in="SourceGraphic" in2="bg"/>
    </filter>
    <mask id="mask-15" x="745.44" y="-7797.43" width="35.8" height="32766" maskUnits="userSpaceOnUse"/>
    <linearGradient id="linear-gradient-23" x1="258.17" y1="329.45" x2="246.31" y2="345.06" gradientTransform="translate(1103.68 -166.72) rotate(90)" xlink:href="#linear-gradient-9"/>
    <mask id="mask-14" x="745.44" y="65.59" width="35.8" height="33.2" maskUnits="userSpaceOnUse">
      <g class="cls-26">
        <g class="cls-9">
          <path class="cls-16" d="M745.44,98.79c13.63-5.42,26.71-14.12,33.2-20.61,1.68-1.68,2.6-3.91,2.6-6.29s-.92-4.62-2.6-6.29t0,0l-33.2,33.2Z"/>
        </g>
      </g>
    </mask>
    <linearGradient id="linear-gradient-24" x1="258.17" y1="329.45" x2="246.31" y2="345.06" gradientTransform="translate(1103.68 -166.72) rotate(90)" xlink:href="#linear-gradient-10"/>
  </defs>
  <g>
    <path class="cls-24" d="M737.17,128.99c-.43-2.63-.66-5.19-.66-7.66s.23-5.04.66-7.66c19.45-4.73,39.95-17.49,49.71-27.25,3.88-3.88,6.02-9.04,6.02-14.54s-2.14-10.65-6.02-14.54c-8.02-8.02-21.06-8.02-29.07,0-9.76,9.76-22.52,30.26-27.25,49.71-5.25.86-10.07.86-15.32,0-4.73-19.45-17.49-39.95-27.25-49.71-8.01-8.02-21.06-8.02-29.07,0-3.88,3.88-6.02,9.04-6.02,14.54s2.14,10.65,6.02,14.54c9.76,9.76,30.26,22.52,49.71,27.25.43,2.63.66,5.19.66,7.66s-.23,5.03-.66,7.66c-19.45,4.73-39.95,17.49-49.71,27.25-3.88,3.88-6.02,9.04-6.02,14.54s2.14,10.65,6.02,14.54c8.02,8.02,21.06,8.02,29.07,0,9.76-9.76,22.52-30.26,27.25-49.71,5.25-.86,10.07-.86,15.32,0,4.73,19.45,17.49,39.95,27.25,49.71,4.01,4.01,9.27,6.01,14.54,6.01s10.53-2,14.54-6.01c3.88-3.88,6.02-9.04,6.02-14.54s-2.14-10.65-6.02-14.54c-9.76-9.76-30.26-22.52-49.71-27.25ZM729.08,127.5c-2.1-.25-4.16-.38-6.17-.38s-4.08.13-6.17.38c.25-2.1.38-4.16.38-6.17s-.13-4.08-.38-6.17c4.2.5,8.15.5,12.35,0-.25,2.1-.38,4.16-.38,6.17s.13,4.08.38,6.17Z"/>
    <path class="cls-24" d="M722.9,71.96c-11.34,0-20.56-9.22-20.56-20.56s9.22-20.56,20.56-20.56,20.56,9.22,20.56,20.56-9.22,20.56-20.56,20.56Z"/>
    <path class="cls-47" d="M722.9,38.67c-7.02,0-12.74,5.71-12.74,12.74s5.71,12.74,12.74,12.74,12.74-5.71,12.74-12.74-5.71-12.74-12.74-12.74Z"/>
    <path class="cls-24" d="M722.9,211.82c-11.34,0-20.56-9.22-20.56-20.56s9.22-20.56,20.56-20.56,20.56,9.22,20.56,20.56-9.22,20.56-20.56,20.56Z"/>
    <path class="cls-12" d="M722.9,178.52c-7.02,0-12.74,5.71-12.74,12.74s5.71,12.74,12.74,12.74,12.74-5.71,12.74-12.74-5.71-12.74-12.74-12.74Z"/>
    <path class="cls-24" d="M652.98,141.89c-11.34,0-20.56-9.22-20.56-20.56s9.22-20.56,20.56-20.56,20.56,9.22,20.56,20.56-9.22,20.56-20.56,20.56Z"/>
    <path class="cls-36" d="M652.98,108.59c-7.02,0-12.74,5.71-12.74,12.74s5.71,12.74,12.74,12.74,12.74-5.71,12.74-12.74-5.71-12.74-12.74-12.74Z"/>
    <path class="cls-24" d="M792.83,141.89c-11.34,0-20.56-9.22-20.56-20.56s9.22-20.56,20.56-20.56,20.56,9.22,20.56,20.56-9.22,20.56-20.56,20.56Z"/>
    <path class="cls-30" d="M792.83,108.59c-7.02,0-12.74,5.71-12.74,12.74s5.71,12.74,12.74,12.74,12.74-5.71,12.74-12.74-5.71-12.74-12.74-12.74Z"/>
    <path class="cls-37" d="M739.2,137.62c4.99,16.7,15.94,33.95,24.14,42.16,2.41,2.41,5.61,3.73,9.01,3.73s6.6-1.33,9.01-3.73c2.41-2.41,3.73-5.61,3.73-9.01s-1.33-6.6-3.73-9.01c-8.2-8.21-25.46-19.15-42.16-24.14Z"/>
    <path class="cls-42" d="M706.61,137.62c-16.7,4.99-33.95,15.94-42.16,24.14-2.41,2.41-3.73,5.61-3.73,9.01s1.33,6.6,3.73,9.01c2.41,2.41,5.61,3.73,9.01,3.73s6.6-1.33,9.01-3.73c8.2-8.21,19.15-25.46,24.14-42.16Z"/>
    <path class="cls-41" d="M772.35,59.15c-3.26,0-6.52,1.24-9.01,3.72-8.2,8.21-19.15,25.46-24.14,42.16,16.7-4.99,33.95-15.94,42.16-24.14,2.41-2.41,3.73-5.61,3.73-9.01s-1.33-6.6-3.73-9.01c-2.48-2.48-5.75-3.72-9.01-3.72Z"/>
    <path class="cls-38" d="M673.46,59.15c-3.26,0-6.52,1.24-9.01,3.72-2.41,2.41-3.73,5.61-3.73,9.01s1.33,6.6,3.73,9.01c8.2,8.21,25.46,19.15,42.16,24.14-4.99-16.7-15.94-33.95-24.14-42.16-2.48-2.48-5.75-3.72-9.01-3.72Z"/>
    <g class="cls-29">
      <path class="cls-6" d="M722.9,51.4c-5.18,0-9.39,5.18-9.39,0s4.21-9.39,9.39-9.39,9.39,4.21,9.39,9.39-4.21,0-9.39,0Z"/>
    </g>
    <g class="cls-33">
      <path class="cls-4" d="M652.98,121.33c0,5.18,5.18,9.39,0,9.39s-9.39-4.21-9.39-9.39,4.21-9.39,9.39-9.39,0,4.21,0,9.39Z"/>
    </g>
    <g class="cls-45">
      <path class="cls-2" d="M722.9,191.26c5.18,0,9.39-5.18,9.39,0s-4.21,9.39-9.39,9.39-9.39-4.21-9.39-9.39,4.21,0,9.39,0Z"/>
    </g>
    <g class="cls-23">
      <path class="cls-8" d="M792.83,121.33c0-5.18-5.18-9.39,0-9.39s9.39,4.21,9.39,9.39-4.21,9.39-9.39,9.39,0-4.21,0-9.39Z"/>
    </g>
    <g class="cls-31">
      <path class="cls-7" d="M700.36,98.79c-5.42-13.63-14.12-26.71-20.61-33.2-1.68-1.68-3.91-2.6-6.29-2.6s-4.62.92-6.29,2.6t0,0l33.2,33.2Z"/>
    </g>
    <g class="cls-22">
      <path class="cls-1" d="M700.36,143.87c-13.63,5.42-26.71,14.12-33.2,20.61-1.68,1.68-2.6,3.91-2.6,6.29s.92,4.62,2.6,6.29t0,0l33.2-33.2Z"/>
    </g>
    <g class="cls-44">
      <path class="cls-5" d="M745.44,143.87c5.42,13.63,14.12,26.71,20.61,33.2,1.68,1.68,3.91,2.6,6.29,2.6s4.62-.92,6.29-2.6h0s-33.2-33.2-33.2-33.2Z"/>
    </g>
    <g class="cls-46">
      <path class="cls-3" d="M745.44,98.79c13.63-5.42,26.71-14.12,33.2-20.61,1.68-1.68,2.6-3.91,2.6-6.29s-.92-4.62-2.6-6.29t0,0l-33.2,33.2Z"/>
    </g>
  </g>
  <g>
    <g>
      <path class="cls-28" d="M43.81,88.57c0-1.84.36-4.09,1.04-6.43h3.78v.45c-.45,1.66-.67,3.1-.67,4.23,0,3.78,3.55,5.17,13.41,5.17s13.05-.81,13.05-3.24c0-1.67-.4-4.36-1.12-7.65l.23-.32h4.32c.54,2.97.86,5.71.86,7.74,0,7.69-4.59,10.44-17.32,10.44s-17.55-2.75-17.55-10.39ZM64.51,82.54h-.45l-2.7-2.66-2.7,2.66h-.45l-3.28-3.2,3.28-3.2h.45l2.7,2.66,2.7-2.66h.45l3.29,3.2-3.29,3.2Z"/>
      <path class="cls-28" d="M83.27,88.57v-23.58h4.86v23.13c0,2.79,1.3,3.87,4.63,3.87h.04v5.4l-1.12,1.12h-.04c-5.89,0-8.37-2.97-8.37-9.94Z"/>
      <path class="cls-28" d="M112.79,96.09c-3.96,1.71-8.73,2.43-15.61,2.43h-5.49v-5.44l1.12-1.08h2.75l.04-.13c-.72-1.49-1.08-2.88-1.08-4.28,0-5.35,4.9-10.35,10.3-10.35,2.38,0,4.54.77,5.94,2.07v6.12h-.45c-1.62-1.04-4-1.67-6.43-1.67-3.74,0-5.94,1.26-5.94,3.15s2.11,3.74,5.26,4.91c3.19-.23,5.8-.77,9.18-1.8h.4v6.08Z"/>
      <path class="cls-28" d="M122.38,64.99v33.52h-4.86v-33.52h4.86Z"/>
      <path class="cls-28" d="M120.8,106.62v-3.73l.41-.32c1.8.72,3.6,1.08,5.26,1.08,4.19,0,7.38-3.82,7.38-9.31,0-2.52-.76-6.43-2.12-10.53l.23-.32h4.32l.67,2.61,7.65-1.21v-2.75h4.09v6.39c0,2.66,1.39,3.46,5.04,3.46h.04v5.4l-1.12,1.12h-.04c-4.59,0-7.2-1.98-7.7-6.43l-.13-.63-6.93,1.08c.04.54.09,1.08.09,1.58,0,9.09-4.5,15.88-10.21,15.88-2.56,0-4.95-1.3-6.93-3.38ZM146.9,102.16l3.28,3.19-3.28,3.2h-.45l-3.29-3.2,3.29-3.19h.45Z"/>
      <path class="cls-28" d="M153.79,91.99c1.8,0,3.29-.32,4.54-.95-.09-.63-.13-1.3-.13-2.02v-5.54h4.09v5.08c0,2.61,1.39,3.42,5.04,3.42h.04v5.4l-1.12,1.12h-.04c-3.55,0-5.8-1.12-6.97-3.64-1.31,2.47-3.42,3.64-6.57,3.64v-5.4l1.12-1.12ZM163.42,79.84h-.45l-2.7-2.66-2.7,2.66h-.45l-3.29-3.2,3.29-3.19h.45l2.7,2.65,2.7-2.65h.45l3.29,3.19-3.29,3.2Z"/>
      <path class="cls-28" d="M181.33,97.39l-1.12,1.12h-.05c-3.69,0-6.03-1.17-7.29-3.78-1.3,2.56-3.42,3.78-6.62,3.78v-5.4l1.12-1.12c1.8,0,3.33-.32,4.54-.95-.09-.76-.13-1.57-.13-2.47v-23.58h4.86v23.13c0,2.79,1.31,3.87,4.63,3.87h.04v5.4Z"/>
      <path class="cls-28" d="M181.33,91.99c3.06,0,4.41-1.12,4.41-3.64v-23.35h4.86v23.58c0,6.48-3.15,9.94-9,9.94h-1.4v-5.4l1.12-1.12Z"/>
      <path class="cls-28" d="M218.5,92.94h-.13c-1.35,2.7-3.6,3.91-6.57,3.91-4.05,0-6.93-2.88-6.93-6.75s3.01-6.88,7.69-9.36l5.45-2.83v-3.37h4.59v13.23c0,3.01.95,4.23,4.59,4.23v5.35l-1.17,1.17c-4.27-.04-6.57-1.84-7.51-5.58ZM218.23,71.88h-.45l-2.7-2.66-2.7,2.66h-.45l-3.29-3.2,3.29-3.19h.45l2.7,2.66,2.7-2.66h.45l3.29,3.19-3.29,3.2ZM218,88.89v-6.48l-4.19,1.62c-3.51,1.4-5.13,2.61-5.13,4.23,0,1.35,1.35,2.12,3.74,2.12,2.16,0,4-.5,5.58-1.48Z"/>
      <path class="cls-28" d="M227.18,91.99c1.8,0,3.28-.32,4.54-.95-.09-.63-.14-1.3-.14-2.02v-5.54h4.1v5.08c0,2.61,1.39,3.42,5.04,3.42h.04v5.4l-1.12,1.12h-.04c-3.55,0-5.8-1.12-6.97-3.64-1.3,2.47-3.42,3.64-6.57,3.64v-5.4l1.12-1.12ZM236.54,108.55h-.45l-2.7-2.66-2.7,2.66h-.45l-3.29-3.2,3.29-3.19h.45l2.7,2.65,2.7-2.65h.45l3.29,3.19-3.29,3.2Z"/>
      <path class="cls-28" d="M254.72,97.39l-1.12,1.12h-.04c-3.69,0-6.03-1.17-7.29-3.78-1.3,2.56-3.42,3.78-6.61,3.78v-5.4l1.12-1.12c1.8,0,3.33-.32,4.54-.95-.09-.76-.14-1.57-.14-2.47v-23.58h4.86v23.13c0,2.79,1.3,3.87,4.63,3.87h.04v5.4Z"/>
      <path class="cls-28" d="M281.27,89.88c0,5.49-3.38,9.09-8.95,9.09-3.15,0-6.08-.72-8.55-1.89-2.21.9-4.68,1.44-7.2,1.44h-2.97v-5.4l1.12-1.12h3.29c-.81-1.4-1.26-2.92-1.26-4.54,0-3.38,1.89-6.71,4.5-8.55v-3.24l.27-.27,9.4,3.64c7.88,3.15,10.35,5.9,10.35,10.84ZM260.12,86.59c0,1.84,2.52,3.78,6.39,4.9,1.75-.67,2.61-1.93,2.61-3.46,0-2.43-2.25-4.46-5.08-4.46-2.29,0-3.91,1.31-3.91,3.02ZM277.99,90.42c0-1.3-1.17-2.43-5.45-4.23l-.04.04c-.04,2.16-.85,4.18-2.21,5.98.99.14,2.07.18,3.15.18,2.97,0,4.54-.72,4.54-1.98Z"/>
      <path class="cls-28" d="M305.08,89.92c0,5.54-2.7,8.59-7.78,8.59h-13.23v-6.16l10.35-7.79-10.35-6.93v-6.3l.36-.22,13.59,9.18c.5-1.12.67-2.75.67-5.71v-9.58h4.86v9.58c0,4.23-.36,6.43-1.8,8.28,2.48,2.25,3.33,4.23,3.33,7.06ZM286.49,66.61c-.27-.63-.45-1.26-.45-1.8,0-2.75,2.25-4.82,5.04-4.82,2.02,0,3.01,1.04,3.01,3.11v1.39h-2.03v-.31c0-.72-.49-1.04-1.53-1.04-1.35,0-2.47.72-2.47,1.53,0,.72.72,1.4,1.84,1.94h4.95v3.06h-9.81v-3.06h1.44ZM301.97,90.37c0-.85-.95-1.71-4.54-3.96l-7.2,5.49v.09h7.07c3.15,0,4.68-.54,4.68-1.62Z"/>
      <path class="cls-28" d="M314.21,64.99v33.52h-4.86v-33.52h4.86Z"/>
      <path class="cls-28" d="M328.84,88.57c0-1.84.36-4.09,1.04-6.43h3.78v.45c-.45,1.66-.67,3.1-.67,4.23,0,3.78,3.55,5.17,13.41,5.17s13.05-.81,13.05-3.24c0-1.67-.4-4.36-1.12-7.65l.23-.32h4.32c.54,2.97.86,5.71.86,7.74,0,7.69-4.59,10.44-17.32,10.44s-17.55-2.75-17.55-10.39ZM349.54,82.54h-.45l-2.7-2.66-2.7,2.66h-.45l-3.28-3.2,3.28-3.2h.45l2.7,2.66,2.7-2.66h.45l3.29,3.2-3.29,3.2Z"/>
      <path class="cls-28" d="M368.3,88.57v-23.58h4.86v23.13c0,2.79,1.3,3.87,4.63,3.87h.04v5.4l-1.12,1.12h-.04c-5.89,0-8.37-2.97-8.37-9.94Z"/>
      <path class="cls-28" d="M377.84,91.99c1.8,0,3.29-.32,4.54-.95-.09-.63-.13-1.3-.13-2.02v-5.54h4.09v5.08c0,2.61,1.39,3.42,5.04,3.42h.04v5.4l-1.12,1.12h-.04c-3.55,0-5.8-1.12-6.97-3.64-1.31,2.47-3.42,3.64-6.57,3.64v-5.4l1.12-1.12ZM387.2,108.55h-.45l-2.7-2.66-2.7,2.66h-.45l-3.29-3.2,3.29-3.19h.45l2.7,2.65,2.7-2.65h.45l3.29,3.19-3.29,3.2Z"/>
      <path class="cls-28" d="M391.43,91.99h7.38c-.36-.5-.77-.95-1.12-1.4l-3.46-4.45-1.58.5h-.45v-5.76c4.05-1.58,8.42-2.34,11.83-2.34,6.25,0,9.09,2.02,9.09,6.43,0,2.52-1.21,4.59-3.78,7.02h6.25v5.4l-1.08,1.12h-4.37c-3.42,0-5.31-.4-7.06-1.8-1.8,1.17-3.42,1.8-6.39,1.8h-6.39v-5.44l1.12-1.08ZM410.02,86.82c0-1.49-1.62-2.07-5.85-2.07-1.71,0-3.46.14-5.26.41l-.09.13,4,4.72c.49.58.9.99,1.35,1.31,4.68-2.57,5.85-3.46,5.85-4.5Z"/>
      <path class="cls-28" d="M441.2,91.99v5.4l-1.12,1.12c-2.83,0-4.54-1.12-5.98-3.64l-.5,4.09-6.43-.85c-3.1-.41-5.31-1.31-6.57-2.93-.81,2.29-2.7,3.33-6.12,3.33v-5.4l1.12-1.12c1.58,0,2.7-.18,3.69-.58-.04-.27-.04-.54-.04-.86,0-4.99,4.05-8.86,11.07-10.62l1.35-.32c.85-.22,1.44.14,1.71.95l2.79,7.69c.99,2.79,2.34,3.74,5.04,3.74ZM432.7,91.86l-1.75-4.5c-.27-.72-.68-.99-1.44-.9-4.59.54-6.79,1.4-6.79,2.88,0,1.21,1.26,1.85,4.41,2.25l5.76.72-.18-.45Z"/>
      <path class="cls-28" d="M471.17,97.39l-1.12,1.12h-.04c-5.31,0-7.69-2.11-7.69-6.79v-.54l-2.21,1.75c-5.17,4.36-8.01,5.58-13.81,5.58h-6.21v-5.4l1.12-1.12h5.31c6.53,0,9.58-.67,13.46-3.01l1.93-1.12v-.14l-9.63-2.11c-2.43-.54-3.38-.67-4.05-.67-1.35,0-1.98.67-1.98,2.11v.77h-3.2v-5.08c0-2.83,1.4-4.18,3.96-4.18,1.26,0,2.83.31,6.25,1.12l8.05,1.84c2.83.67,4.27.85,6.48.85h1.17v6.03h-3.06v.99c0,2.16,1.04,2.61,5.22,2.61h.04v5.4ZM454.79,102.16l3.28,3.19-3.28,3.2h-.45l-3.29-3.2,3.29-3.19h.45Z"/>
      <path class="cls-28" d="M471.17,91.99c3.06,0,4.41-1.12,4.41-3.64v-23.35h4.86v23.58c0,6.48-3.15,9.94-9,9.94h-1.39v-5.4l1.12-1.12Z"/>
      <path class="cls-28" d="M491.15,64.99v33.52h-4.86v-33.52h4.86Z"/>
      <path class="cls-28" d="M545.96,91.99v5.35l-1.12,1.17c-3.51,0-6.3-.94-9.13-3.42-5,2.7-10.53,4.09-16.25,4.09-9.76,0-13.68-3.06-13.68-10.62,0-1.84.36-4.09,1.03-6.43h3.78v.45c-.45,1.66-.67,3.1-.67,4.23,0,3.69,3.01,5.17,10.66,5.17s14.44-2.16,20.2-5.8h.45v5.22l-.09.09c1.44.36,2.92.5,4.81.5ZM523.33,102.16l3.29,3.19-3.29,3.2h-.45l-3.28-3.2,3.28-3.19h.45Z"/>
      <path class="cls-28" d="M545.96,91.99c3.06,0,4.41-1.12,4.41-3.64v-23.35h4.86v23.58c0,6.48-3.15,9.94-9,9.94h-1.39v-5.4l1.12-1.12Z"/>
      <path class="cls-28" d="M561.76,88.57v-23.58h4.86v23.13c0,2.79,1.3,3.87,4.63,3.87h.04v5.4l-1.12,1.12h-.04c-5.9,0-8.37-2.97-8.37-9.94Z"/>
      <path class="cls-28" d="M571.3,91.99h8.91c5.17,0,6.88-.67,7.11-4l-.18-.09c-1.66,1.08-3.73,1.62-6.21,1.62-4.86,0-7.65-2.16-7.65-6.62,0-5.13,3.92-10.39,8.64-10.39,5.08,0,8.82,6.21,8.82,14.04,0,8.46-2.92,11.97-10.53,11.97h-10.03v-5.44l1.12-1.08ZM584.62,68.86h-.45l-2.7-2.66-2.7,2.66h-.45l-3.29-3.2,3.29-3.19h.45l2.7,2.65,2.7-2.65h.45l3.29,3.19-3.29,3.2ZM586.6,83.89c-.95-2.92-3.15-5.31-5.94-5.31-2.25,0-3.96,2.07-3.96,3.64s1.58,2.12,5.17,2.12c1.58,0,3.15-.14,4.73-.45Z"/>
    </g>
    <g>
      <path class="cls-24" d="M43.27,156.87c0-2.76.41-5.34,1.15-7.91h3.82v.46c-.46,1.79-.74,3.77-.74,5.47,0,4.83,3.5,7.73,9.48,7.73,6.53,0,9.8-2.3,9.8-6.49,0-2.67-.69-6.67-1.79-10.9l.23-.32h4.42c.92,3.86,1.52,7.91,1.52,10.63,0,9.06-5.29,14.45-14.17,14.45s-13.71-4.97-13.71-13.11ZM57.26,144.91l3.36,3.27-3.36,3.27h-.46l-3.36-3.27,3.36-3.27h.46Z"/>
      <path class="cls-24" d="M75.61,152.87v-24.11h4.97v23.65c0,2.85,1.33,3.96,4.74,3.96h.05v5.52l-1.15,1.15h-.05c-6.03,0-8.56-3.04-8.56-10.17Z"/>
      <path class="cls-24" d="M85.36,156.37c1.84,0,3.36-.32,4.65-.97-.09-.64-.14-1.33-.14-2.07v-5.66h4.19v5.2c0,2.67,1.43,3.5,5.15,3.5h.05v5.52l-1.15,1.15h-.05c-3.63,0-5.93-1.15-7.13-3.73-1.33,2.53-3.5,3.73-6.72,3.73v-5.52l1.15-1.15ZM94.93,173.3h-.46l-2.76-2.71-2.76,2.71h-.46l-3.36-3.27,3.36-3.27h.46l2.76,2.71,2.76-2.71h.46l3.36,3.27-3.36,3.27Z"/>
      <path class="cls-24" d="M99.26,156.37c1.84,0,3.36-.32,4.65-.97-.09-.64-.14-1.33-.14-2.07v-5.66h4.19v5.2c0,2.67,1.43,3.5,5.15,3.5h.05v5.52l-1.15,1.15h-.05c-3.63,0-5.93-1.15-7.13-3.73-1.33,2.53-3.5,3.73-6.72,3.73v-5.52l1.15-1.15ZM105.83,166.76l3.36,3.27-3.36,3.27h-.46l-3.36-3.27,3.36-3.27h.46Z"/>
      <path class="cls-24" d="M120.69,173.3h-.46l-2.76-2.71-2.76,2.71h-.46l-3.36-3.27,3.36-3.27h.46l2.76,2.71,2.76-2.71h.46l3.36,3.27-3.36,3.27ZM112.92,156.37h1.33c2.85,0,4.09-1.01,4.09-3.31,0-1.7-.41-4.46-1.15-7.82l.23-.32h4.42c.55,3.04.83,5.84.83,7.91,0,6.9-2.62,10.21-8.42,10.21h-2.25v-5.52l.92-1.15Z"/>
      <path class="cls-24" d="M144.2,158.71c0,9.2-5.2,16.06-12.15,16.06-2.99,0-5.71-1.33-8.05-3.45v-3.82l.41-.32c2.35.74,4.65,1.1,6.81,1.1,4.97,0,8.51-2.48,9.34-6.72l-.18-.14c-1.61,1.2-3.63,1.84-5.98,1.84-5.2,0-8.33-2.76-8.33-7.73,0-5.98,4-11.82,8.97-11.82,5.24,0,9.16,6.53,9.16,15ZM134.95,156.6c1.7,0,3.4-.18,5.11-.6-1.01-3.27-3.36-5.75-6.39-5.75-2.44,0-4.05,2.21-4.05,3.91s1.47,2.44,5.34,2.44Z"/>
      <path class="cls-24" d="M170.79,157.56h-.14c-1.47,2.58-3.68,3.73-6.58,3.73-4,0-6.81-2.85-6.81-6.62s2.85-6.62,7.5-9.16l5.61-3.08v-3.13h3.87v13.57c0,3.31,1.15,4.51,4.88,4.51v4.6l-1.01,1.06c-4.28-.09-6.49-1.7-7.32-5.47ZM170.37,154.02v-7.45l-4.42,1.93c-3.77,1.7-5.34,3.04-5.34,4.74,0,1.52,1.52,2.39,3.96,2.39s4.19-.51,5.8-1.61ZM170.33,136.63h-.46l-2.58-2.48-2.53,2.48h-.46l-3.08-2.99,3.08-3.04h.46l2.53,2.53,2.58-2.53h.46l3.04,3.04-3.04,2.99Z"/>
      <path class="cls-24" d="M179.11,157.38h6.35v4.6l-1.06,1.06h-6.35v-4.6l1.06-1.06Z"/>
      <path class="cls-24" d="M185.46,157.38h6.35v4.6l-1.06,1.06h-6.35v-4.6l1.06-1.06Z"/>
      <path class="cls-24" d="M191.81,157.38h6.35v4.6l-1.06,1.06h-6.35v-4.6l1.06-1.06Z"/>
      <path class="cls-24" d="M198.15,157.38c1.98,0,3.63-.32,4.97-1.15-.09-.78-.14-1.61-.14-2.53v-2.9h3.5v2.67c0,1.15.28,2.02.74,2.62l4.23-5.01c4.28-5.06,7.41-7.32,11.78-7.32,5.47,0,9.66,4.55,9.66,9.89,0,1.01-.14,1.93-.41,2.81,1.43.6,3.13.92,4.88.92v4.6l-1.01,1.06c-2.21,0-4.51-.92-6.49-2.48-1.79,1.56-4.28,2.48-7.22,2.48h-11.82c-3.45,0-5.7-1.15-6.85-3.63-1.47,2.48-3.68,3.63-6.85,3.63v-4.6l1.06-1.06ZM229.71,154.99c0-3.27-3.13-5.57-7.18-5.57s-6.9,1.7-10.17,5.38l-2.07,2.35.05.18c.51.05.97.05,1.52.05h11.87c4.51,0,5.98-.64,5.98-2.39Z"/>
      <path class="cls-24" d="M237.35,157.38c1.98,0,3.63-.32,4.97-1.15-.09-.78-.14-1.66-.14-2.58v-5.29h3.5v5.06c0,3.04,1.52,3.96,5.15,3.96h.05v4.6l-1.06,1.06h-.05c-3.36,0-5.52-1.15-6.62-3.63-1.52,2.48-3.68,3.63-6.85,3.63v-4.6l1.06-1.06ZM244.16,138.33l3.04,3.04-3.04,2.99h-.46l-3.08-2.99,3.08-3.04h.46Z"/>
      <path class="cls-24" d="M249.81,163.04v-4.55l1.06-1.1c2.71,0,3.82-.78,4.88-2.94l1.06-2.12c2.71-5.43,4.97-7.59,8.37-7.59,4.46,0,7.31,3.5,7.31,9.39,0,2.12-.6,4.92-1.38,7.36l-.28.87c-.28.92-.97,1.29-1.93,1.06l-12.56-3.13c-1.52,2.02-3.5,2.76-6.53,2.76ZM269.14,156.87c.14-.51.18-1.15.18-1.84,0-2.9-1.75-4.74-4.6-4.74-2.39,0-4.09,1.47-5.57,4.55l-.18.41,8.97,2.16c.69.14,1.06-.05,1.2-.55Z"/>
      <path class="cls-24" d="M326.36,157.38v4.55l-1.01,1.1c-3.4,0-6.3-.97-9.25-3.45-4.74,2.62-10.17,4.05-15.73,4.05-9.94,0-13.89-2.94-13.89-10.3,0-1.84.37-4,.97-6.35h3.27v.41c-.41,1.66-.64,3.17-.64,4.28,0,4.05,3.22,5.71,11.32,5.71,7.36,0,14.54-2.3,19.87-6.26h.41v4.51c-.37.32-.74.64-1.1.92,1.75.6,3.54.83,5.8.83ZM303.64,166.99l3.04,3.04-3.04,2.99h-.46l-3.08-2.99,3.08-3.04h.46Z"/>
      <path class="cls-24" d="M326.36,157.38h6.35v4.6l-1.06,1.06h-6.35v-4.6l1.06-1.06Z"/>
      <path class="cls-24" d="M332.71,157.38h6.35v4.6l-1.06,1.06h-6.35v-4.6l1.06-1.06Z"/>
      <path class="cls-24" d="M339.05,157.38h6.35v4.6l-1.06,1.06h-6.35v-4.6l1.06-1.06Z"/>
      <path class="cls-24" d="M345.4,157.38h6.35v4.6l-1.06,1.06h-6.35v-4.6l1.06-1.06Z"/>
      <path class="cls-24" d="M351.75,157.38h6.35v4.6l-1.06,1.06h-6.35v-4.6l1.06-1.06Z"/>
      <path class="cls-24" d="M358.1,157.38h6.35v4.6l-1.06,1.06h-6.35v-4.6l1.06-1.06Z"/>
      <path class="cls-24" d="M364.44,157.38c3.36,0,4.83-1.24,4.83-4.05v-24.57h4.23v24.66c0,6.17-3.08,9.62-8.6,9.62h-1.52v-4.6l1.06-1.06Z"/>
      <path class="cls-24" d="M384.41,128.76v34.27h-4.23v-34.27h4.23Z"/>
      <path class="cls-24" d="M387.17,171.5v-3.13l.37-.32c2.35.78,4.37,1.15,6.35,1.15,4.37,0,7.82-2.25,8.92-6.17h-5.2c-5.34,0-8.33-2.39-8.33-7.18,0-5.47,3.82-11.13,8.56-11.13s8.1,5.43,8.6,12.65h1.98v4.55l-1.06,1.1h-1.24c-1.2,6.9-5.57,11.73-11.13,11.73-2.99,0-5.52-1.24-7.82-3.27ZM396.74,150.34c-2.58,0-4.28,2.67-4.28,4.51s1.7,2.53,5.38,2.53h5.11c-.69-3.82-3.13-7.04-6.21-7.04Z"/>
      <path class="cls-24" d="M408.42,157.38h9.06c4.83,0,6.58-.69,6.86-4.33l-.14-.09c-1.7,1.06-3.73,1.61-6.12,1.61-4.83,0-7.64-2.3-7.64-6.85,0-5.06,3.82-10.49,8.46-10.49,5.06,0,8.65,6.16,8.65,14.03,0,8.46-2.81,11.78-10.08,11.78h-10.12v-4.6l1.06-1.06ZM421.49,133.23h-.46l-2.58-2.48-2.53,2.48h-.46l-3.08-2.99,3.08-3.04h.46l2.53,2.53,2.58-2.53h.46l3.04,3.04-3.04,2.99ZM423.93,149.14c-.83-3.5-3.13-6.49-6.03-6.49-2.48,0-4.28,2.62-4.28,4.42,0,1.93,1.75,2.67,5.25,2.67,1.7,0,3.36-.14,5.06-.6Z"/>
      <path class="cls-24" d="M441.49,156.73c0-2.81.41-5.66,1.01-7.68h3.17v.41c-.41,1.7-.69,3.86-.69,6.07,0,5.43,4.23,8,13.02,8,7.08,0,11.55-1.56,11.55-4,0-1.29-1.38-1.84-4.65-2.48l-3.45-.69c-4.55-.92-6.76-3.22-6.76-7.27,0-6.49,5.7-12.56,11.73-12.56,3.27,0,4.88,1.43,4.88,4.37v4.05h-2.94v-.69c0-1.33-.74-2.12-3.17-2.12-3.77,0-7.18,2.9-7.18,5.8,0,1.43,1.15,2.16,3.73,2.67l3.59.78c5.29,1.1,7.31,3.13,7.31,6.99,0,7.04-5.84,11.36-15.69,11.36s-15.46-4.28-15.46-13.02Z"/>
      <path class="cls-24" d="M499.6,157.38v4.6l-1.01,1.06c-3.13,0-5.11-1.01-6.67-3.68-1.66,2.81-4.46,4.14-8.97,4.14-5.15,0-7.41-1.7-7.41-6.39v-2.25h2.99v.74c0,1.7,1.43,2.25,5.47,2.25,2.9,0,4.97-.37,6.62-1.24-.23-.64-.41-1.24-.64-1.98l-4.23-13.39v-.37h4.46l4,12.7c.87,2.81,2.25,3.82,5.38,3.82Z"/>
      <path class="cls-24" d="M499.59,157.38h6.35v4.6l-1.06,1.06h-6.35v-4.6l1.06-1.06Z"/>
      <path class="cls-24" d="M505.94,157.38h6.35v4.6l-1.06,1.06h-6.35v-4.6l1.06-1.06Z"/>
      <path class="cls-24" d="M512.29,157.38h6.35v4.6l-1.06,1.06h-6.35v-4.6l1.06-1.06Z"/>
      <path class="cls-24" d="M518.64,157.38h6.35v4.6l-1.06,1.06h-6.35v-4.6l1.06-1.06Z"/>
      <path class="cls-24" d="M524.98,157.38h6.35v4.6l-1.06,1.06h-6.35v-4.6l1.06-1.06Z"/>
      <path class="cls-24" d="M531.33,157.38h6.35v4.6l-1.06,1.06h-6.35v-4.6l1.06-1.06Z"/>
      <path class="cls-24" d="M537.68,157.38h6.35v4.6l-1.06,1.06h-6.35v-4.6l1.06-1.06Z"/>
      <path class="cls-24" d="M544.03,157.38h6.35v4.6l-1.06,1.06h-6.35v-4.6l1.06-1.06Z"/>
      <path class="cls-24" d="M574.9,152.96l-5.8,4.6c-5.43,4.37-8.28,5.47-14.08,5.47h-5.71v-4.6l1.06-1.06h4.74c6.3,0,9.2-.69,13.76-3.36l2.62-1.56v-.14l-9.57-2.16c-2.99-.69-3.82-.83-4.55-.83-1.33,0-1.98.64-1.98,2.02v.87h-2.9v-4.32c0-2.85,1.33-4.14,3.86-4.14,1.38,0,3.04.41,6.58,1.29l7.54,1.79c2.94.74,4.42.92,6.76.92h.97v5.2h-3.31Z"/>
      <path class="cls-24" d="M581.43,128.21c-.32-.64-.46-1.29-.46-1.89,0-2.67,2.16-4.74,4.88-4.74,2.02,0,2.99,1.01,2.99,3.13v1.24h-1.93v-.32c0-.78-.46-1.2-1.52-1.2-1.33,0-2.48.78-2.48,1.7,0,.74.64,1.43,1.7,2.07h4.97v2.81h-9.57v-2.81h1.43ZM586.9,134.01v29.03h-4.23v-29.03h4.23Z"/>
    </g>
  </g>
</svg>