<?xml version="1.0" encoding="UTF-8"?>
<svg id="Layer_1" data-name="Layer 1" xmlns="http://www.w3.org/2000/svg" xmlns:xlink="http://www.w3.org/1999/xlink" viewBox="0 0 858.03 242.66">
  <defs>
    <style>
      .cls-1 {
        fill: url(#linear-gradient-20);
      }

      .cls-1, .cls-2, .cls-3, .cls-4, .cls-5, .cls-6, .cls-7, .cls-8 {
        opacity: .5;
      }

      .cls-9 {
        mask: url(#mask-15);
      }

      .cls-2 {
        fill: url(#linear-gradient-14);
      }

      .cls-10 {
        mask: url(#mask-5);
      }

      .cls-11 {
        mask: url(#mask-13);
      }

      .cls-12 {
        fill: url(#linear-gradient-2);
      }

      .cls-13 {
        fill: url(#linear-gradient-9);
      }

      .cls-13, .cls-14, .cls-15, .cls-16, .cls-17, .cls-18, .cls-19, .cls-20 {
        mix-blend-mode: multiply;
      }

      .cls-14 {
        fill: url(#linear-gradient-13);
      }

      .cls-21 {
        mask: url(#mask-1);
      }

      .cls-3 {
        fill: url(#linear-gradient-24);
      }

      .cls-22 {
        font-family: BrandoArabic-SemiBold, 'Brando Arabic';
        font-size: 46px;
        font-weight: 600;
      }

      .cls-22, .cls-23 {
        fill: #d9a86a;
      }

      .cls-24 {
        mask: url(#mask-10);
      }

      .cls-25 {
        mask: url(#mask-6);
      }

      .cls-26 {
        mask: url(#mask-7);
      }

      .cls-27 {
        filter: url(#luminosity-noclip-15);
      }

      .cls-28 {
        filter: url(#luminosity-noclip-5);
      }

      .cls-29 {
        mask: url(#mask);
      }

      .cls-30 {
        fill: url(#linear-gradient-4);
      }

      .cls-31 {
        mask: url(#mask-8);
      }

      .cls-32 {
        filter: url(#luminosity-noclip-11);
      }

      .cls-4 {
        fill: url(#linear-gradient-12);
      }

      .cls-33 {
        mask: url(#mask-2);
      }

      .cls-34 {
        filter: url(#luminosity-noclip-3);
      }

      .cls-35 {
        mask: url(#mask-9);
      }

      .cls-36 {
        fill: url(#linear-gradient-3);
      }

      .cls-37 {
        fill: url(#linear-gradient-5);
      }

      .cls-15 {
        fill: url(#linear-gradient-21);
      }

      .cls-38 {
        fill: url(#linear-gradient-8);
      }

      .cls-39 {
        filter: url(#luminosity-noclip-13);
      }

      .cls-5 {
        fill: url(#linear-gradient-22);
      }

      .cls-6 {
        fill: url(#linear-gradient-10);
      }

      .cls-16 {
        fill: url(#linear-gradient-23);
      }

      .cls-40 {
        fill: #1b8c42;
        font-family: BrandoArabic-Bold, 'Brando Arabic';
        font-size: 45px;
        font-weight: 700;
      }

      .cls-41 {
        filter: url(#luminosity-noclip-9);
      }

      .cls-42 {
        fill: url(#linear-gradient-7);
      }

      .cls-17 {
        fill: url(#linear-gradient-11);
      }

      .cls-43 {
        fill: url(#linear-gradient-6);
      }

      .cls-18 {
        fill: url(#linear-gradient-17);
      }

      .cls-44 {
        mask: url(#mask-11);
      }

      .cls-45 {
        mask: url(#mask-12);
      }

      .cls-46 {
        mask: url(#mask-4);
      }

      .cls-19 {
        fill: url(#linear-gradient-15);
      }

      .cls-20 {
        fill: url(#linear-gradient-19);
      }

      .cls-47 {
        mask: url(#mask-14);
      }

      .cls-48 {
        fill: url(#linear-gradient);
      }

      .cls-49 {
        filter: url(#luminosity-noclip-7);
      }

      .cls-7 {
        fill: url(#linear-gradient-18);
      }

      .cls-8 {
        fill: url(#linear-gradient-16);
      }

      .cls-50 {
        mask: url(#mask-3);
      }

      .cls-51 {
        filter: url(#luminosity-noclip);
      }
    </style>
    <linearGradient id="linear-gradient" x1="722.9" y1="64.14" x2="722.9" y2="38.67" gradientUnits="userSpaceOnUse">
      <stop offset="0" stop-color="#006837"/>
      <stop offset=".5" stop-color="#009245"/>
      <stop offset="1" stop-color="#39b54a"/>
    </linearGradient>
    <linearGradient id="linear-gradient-2" y1="178.52" y2="204" xlink:href="#linear-gradient"/>
    <linearGradient id="linear-gradient-3" x1="640.24" y1="121.33" x2="665.71" y2="121.33" xlink:href="#linear-gradient"/>
    <linearGradient id="linear-gradient-4" x1="780.09" y1="121.33" x2="805.57" y2="121.33" xlink:href="#linear-gradient"/>
    <linearGradient id="linear-gradient-5" x1="738.97" y1="137.97" x2="781.2" y2="179.47" xlink:href="#linear-gradient"/>
    <linearGradient id="linear-gradient-6" x1="706.88" y1="137.78" x2="664.65" y2="179.47" xlink:href="#linear-gradient"/>
    <linearGradient id="linear-gradient-7" x1="739.35" y1="105.18" x2="781.13" y2="63.02" xlink:href="#linear-gradient"/>
    <linearGradient id="linear-gradient-8" x1="706.39" y1="105.25" x2="664.51" y2="62.82" xlink:href="#linear-gradient"/>
    <filter id="luminosity-noclip" x="713.51" y="42.02" width="18.77" height="11.69" color-interpolation-filters="sRGB" filterUnits="userSpaceOnUse">
      <feFlood flood-color="#fff" result="bg"/>
      <feBlend in="SourceGraphic" in2="bg"/>
    </filter>
    <filter id="luminosity-noclip-2" x="713.51" y="-8333.74" width="18.77" height="32766" color-interpolation-filters="sRGB" filterUnits="userSpaceOnUse">
      <feFlood flood-color="#fff" result="bg"/>
      <feBlend in="SourceGraphic" in2="bg"/>
    </filter>
    <mask id="mask-1" x="713.51" y="-8333.74" width="18.77" height="32766" maskUnits="userSpaceOnUse"/>
    <linearGradient id="linear-gradient-9" x1="722.9" y1="38.65" x2="722.9" y2="57.85" gradientUnits="userSpaceOnUse">
      <stop offset="0" stop-color="#b3b3b3"/>
      <stop offset="1" stop-color="#000"/>
    </linearGradient>
    <mask id="mask" x="713.51" y="42.02" width="18.77" height="11.69" maskUnits="userSpaceOnUse">
      <g class="cls-51">
        <g class="cls-21">
          <path class="cls-13" d="M722.9,51.4c-5.18,0-9.39,5.18-9.39,0s4.21-9.39,9.39-9.39,9.39,4.21,9.39,9.39-4.21,0-9.39,0Z"/>
        </g>
      </g>
    </mask>
    <linearGradient id="linear-gradient-10" x1="722.9" y1="38.65" x2="722.9" y2="57.85" gradientUnits="userSpaceOnUse">
      <stop offset="0" stop-color="#fff"/>
      <stop offset="1" stop-color="#fff"/>
    </linearGradient>
    <filter id="luminosity-noclip-3" x="643.59" y="111.94" width="11.69" height="18.77" color-interpolation-filters="sRGB" filterUnits="userSpaceOnUse">
      <feFlood flood-color="#fff" result="bg"/>
      <feBlend in="SourceGraphic" in2="bg"/>
    </filter>
    <filter id="luminosity-noclip-4" x="643.59" y="-8333.74" width="11.69" height="32766" color-interpolation-filters="sRGB" filterUnits="userSpaceOnUse">
      <feFlood flood-color="#fff" result="bg"/>
      <feBlend in="SourceGraphic" in2="bg"/>
    </filter>
    <mask id="mask-3" x="643.59" y="-8333.74" width="11.69" height="32766" maskUnits="userSpaceOnUse"/>
    <linearGradient id="linear-gradient-11" x1="1518.67" y1="1009.81" x2="1518.67" y2="1029.02" gradientTransform="translate(-369.6 1640) rotate(-90)" xlink:href="#linear-gradient-9"/>
    <mask id="mask-2" x="643.59" y="111.94" width="11.69" height="18.77" maskUnits="userSpaceOnUse">
      <g class="cls-34">
        <g class="cls-50">
          <path class="cls-17" d="M652.98,121.33c0,5.18,5.18,9.39,0,9.39s-9.39-4.21-9.39-9.39,4.21-9.39,9.39-9.39,0,4.21,0,9.39Z"/>
        </g>
      </g>
    </mask>
    <linearGradient id="linear-gradient-12" x1="1518.67" y1="1009.81" x2="1518.67" y2="1029.02" gradientTransform="translate(-369.6 1640) rotate(-90)" xlink:href="#linear-gradient-10"/>
    <filter id="luminosity-noclip-5" x="713.51" y="188.96" width="18.77" height="11.69" color-interpolation-filters="sRGB" filterUnits="userSpaceOnUse">
      <feFlood flood-color="#fff" result="bg"/>
      <feBlend in="SourceGraphic" in2="bg"/>
    </filter>
    <filter id="luminosity-noclip-6" x="713.51" y="-8333.74" width="18.77" height="32766" color-interpolation-filters="sRGB" filterUnits="userSpaceOnUse">
      <feFlood flood-color="#fff" result="bg"/>
      <feBlend in="SourceGraphic" in2="bg"/>
    </filter>
    <mask id="mask-5" x="713.51" y="-8333.74" width="18.77" height="32766" maskUnits="userSpaceOnUse"/>
    <linearGradient id="linear-gradient-13" x1="547.5" y1="1805.58" x2="547.5" y2="1824.78" gradientTransform="translate(1270.4 2009.59) rotate(-180)" xlink:href="#linear-gradient-9"/>
    <mask id="mask-4" x="713.51" y="188.96" width="18.77" height="11.69" maskUnits="userSpaceOnUse">
      <g class="cls-28">
        <g class="cls-10">
          <path class="cls-14" d="M722.9,191.26c5.18,0,9.39-5.18,9.39,0s-4.21,9.39-9.39,9.39-9.39-4.21-9.39-9.39,4.21,0,9.39,0Z"/>
        </g>
      </g>
    </mask>
    <linearGradient id="linear-gradient-14" x1="547.5" y1="1805.58" x2="547.5" y2="1824.78" gradientTransform="translate(1270.4 2009.59) rotate(-180)" xlink:href="#linear-gradient-10"/>
    <filter id="luminosity-noclip-7" x="790.53" y="111.94" width="11.69" height="18.77" color-interpolation-filters="sRGB" filterUnits="userSpaceOnUse">
      <feFlood flood-color="#fff" result="bg"/>
      <feBlend in="SourceGraphic" in2="bg"/>
    </filter>
    <filter id="luminosity-noclip-8" x="790.53" y="-8333.74" width="11.69" height="32766" color-interpolation-filters="sRGB" filterUnits="userSpaceOnUse">
      <feFlood flood-color="#fff" result="bg"/>
      <feBlend in="SourceGraphic" in2="bg"/>
    </filter>
    <mask id="mask-7" x="790.53" y="-8333.74" width="11.69" height="32766" maskUnits="userSpaceOnUse"/>
    <linearGradient id="linear-gradient-15" x1="-248.27" y1="834.41" x2="-248.27" y2="853.62" gradientTransform="translate(1640 369.6) rotate(90)" xlink:href="#linear-gradient-9"/>
    <mask id="mask-6" x="790.53" y="111.94" width="11.69" height="18.77" maskUnits="userSpaceOnUse">
      <g class="cls-49">
        <g class="cls-26">
          <path class="cls-19" d="M792.83,121.33c0-5.18-5.18-9.39,0-9.39s9.39,4.21,9.39,9.39-4.21,9.39-9.39,9.39,0-4.21,0-9.39Z"/>
        </g>
      </g>
    </mask>
    <linearGradient id="linear-gradient-16" x1="-248.27" y1="834.41" x2="-248.27" y2="853.62" gradientTransform="translate(1640 369.6) rotate(90)" xlink:href="#linear-gradient-10"/>
    <filter id="luminosity-noclip-9" x="667.16" y="62.99" width="33.2" height="35.8" color-interpolation-filters="sRGB" filterUnits="userSpaceOnUse">
      <feFlood flood-color="#fff" result="bg"/>
      <feBlend in="SourceGraphic" in2="bg"/>
    </filter>
    <filter id="luminosity-noclip-10" x="667.16" y="-8333.74" width="33.2" height="32766" color-interpolation-filters="sRGB" filterUnits="userSpaceOnUse">
      <feFlood flood-color="#fff" result="bg"/>
      <feBlend in="SourceGraphic" in2="bg"/>
    </filter>
    <mask id="mask-9" x="667.16" y="-8333.74" width="33.2" height="32766" maskUnits="userSpaceOnUse"/>
    <linearGradient id="linear-gradient-17" x1="693.02" y1="70" x2="681.16" y2="85.61" xlink:href="#linear-gradient-9"/>
    <mask id="mask-8" x="667.16" y="62.99" width="33.2" height="35.8" maskUnits="userSpaceOnUse">
      <g class="cls-41">
        <g class="cls-35">
          <path class="cls-18" d="M700.36,98.79c-5.42-13.63-14.12-26.71-20.61-33.2-1.68-1.68-3.91-2.6-6.29-2.6s-4.62.92-6.29,2.6t0,0l33.2,33.2Z"/>
        </g>
      </g>
    </mask>
    <linearGradient id="linear-gradient-18" x1="693.02" y1="70" x2="681.16" y2="85.61" xlink:href="#linear-gradient-10"/>
    <filter id="luminosity-noclip-11" x="664.56" y="143.87" width="35.8" height="33.2" color-interpolation-filters="sRGB" filterUnits="userSpaceOnUse">
      <feFlood flood-color="#fff" result="bg"/>
      <feBlend in="SourceGraphic" in2="bg"/>
    </filter>
    <filter id="luminosity-noclip-12" x="664.56" y="-8333.74" width="35.8" height="32766" color-interpolation-filters="sRGB" filterUnits="userSpaceOnUse">
      <feFlood flood-color="#fff" result="bg"/>
      <feBlend in="SourceGraphic" in2="bg"/>
    </filter>
    <mask id="mask-11" x="664.56" y="-8333.74" width="35.8" height="32766" maskUnits="userSpaceOnUse"/>
    <linearGradient id="linear-gradient-19" x1="1488.79" y1="1041.16" x2="1476.93" y2="1056.78" gradientTransform="translate(-369.6 1640) rotate(-90)" xlink:href="#linear-gradient-9"/>
    <mask id="mask-10" x="664.56" y="143.87" width="35.8" height="33.2" maskUnits="userSpaceOnUse">
      <g class="cls-32">
        <g class="cls-44">
          <path class="cls-20" d="M700.36,143.87c-13.63,5.42-26.71,14.12-33.2,20.61-1.68,1.68-2.6,3.91-2.6,6.29s.92,4.62,2.6,6.29t0,0l33.2-33.2Z"/>
        </g>
      </g>
    </mask>
    <linearGradient id="linear-gradient-20" x1="1488.79" y1="1041.16" x2="1476.93" y2="1056.78" gradientTransform="translate(-369.6 1640) rotate(-90)" xlink:href="#linear-gradient-10"/>
    <filter id="luminosity-noclip-13" x="745.44" y="143.87" width="33.2" height="35.8" color-interpolation-filters="sRGB" filterUnits="userSpaceOnUse">
      <feFlood flood-color="#fff" result="bg"/>
      <feBlend in="SourceGraphic" in2="bg"/>
    </filter>
    <filter id="luminosity-noclip-14" x="745.44" y="-8333.74" width="33.2" height="32766" color-interpolation-filters="sRGB" filterUnits="userSpaceOnUse">
      <feFlood flood-color="#fff" result="bg"/>
      <feBlend in="SourceGraphic" in2="bg"/>
    </filter>
    <mask id="mask-13" x="745.44" y="-8333.74" width="33.2" height="32766" maskUnits="userSpaceOnUse"/>
    <linearGradient id="linear-gradient-21" x1="517.62" y1="1836.93" x2="505.76" y2="1852.54" gradientTransform="translate(1270.4 2009.59) rotate(-180)" xlink:href="#linear-gradient-9"/>
    <mask id="mask-12" x="745.44" y="143.87" width="33.2" height="35.8" maskUnits="userSpaceOnUse">
      <g class="cls-39">
        <g class="cls-11">
          <path class="cls-15" d="M745.44,143.87c5.42,13.63,14.12,26.71,20.61,33.2,1.68,1.68,3.91,2.6,6.29,2.6s4.62-.92,6.29-2.6h0s-33.2-33.2-33.2-33.2Z"/>
        </g>
      </g>
    </mask>
    <linearGradient id="linear-gradient-22" x1="517.62" y1="1836.93" x2="505.76" y2="1852.54" gradientTransform="translate(1270.4 2009.59) rotate(-180)" xlink:href="#linear-gradient-10"/>
    <filter id="luminosity-noclip-15" x="745.44" y="65.59" width="35.8" height="33.2" color-interpolation-filters="sRGB" filterUnits="userSpaceOnUse">
      <feFlood flood-color="#fff" result="bg"/>
      <feBlend in="SourceGraphic" in2="bg"/>
    </filter>
    <filter id="luminosity-noclip-16" x="745.44" y="-8333.74" width="35.8" height="32766" color-interpolation-filters="sRGB" filterUnits="userSpaceOnUse">
      <feFlood flood-color="#fff" result="bg"/>
      <feBlend in="SourceGraphic" in2="bg"/>
    </filter>
    <mask id="mask-15" x="745.44" y="-8333.74" width="35.8" height="32766" maskUnits="userSpaceOnUse"/>
    <linearGradient id="linear-gradient-23" x1="-278.14" y1="865.76" x2="-290" y2="881.37" gradientTransform="translate(1640 369.6) rotate(90)" xlink:href="#linear-gradient-9"/>
    <mask id="mask-14" x="745.44" y="65.59" width="35.8" height="33.2" maskUnits="userSpaceOnUse">
      <g class="cls-27">
        <g class="cls-9">
          <path class="cls-16" d="M745.44,98.79c13.63-5.42,26.71-14.12,33.2-20.61,1.68-1.68,2.6-3.91,2.6-6.29s-.92-4.62-2.6-6.29t0,0l-33.2,33.2Z"/>
        </g>
      </g>
    </mask>
    <linearGradient id="linear-gradient-24" x1="-278.14" y1="865.76" x2="-290" y2="881.37" gradientTransform="translate(1640 369.6) rotate(90)" xlink:href="#linear-gradient-10"/>
  </defs>
  <g>
    <path class="cls-23" d="M737.17,128.99c-.43-2.63-.66-5.19-.66-7.66s.23-5.04.66-7.66c19.45-4.73,39.95-17.49,49.71-27.25,3.88-3.88,6.02-9.04,6.02-14.54s-2.14-10.65-6.02-14.54c-8.02-8.02-21.06-8.02-29.07,0-9.76,9.76-22.52,30.26-27.25,49.71-5.25.86-10.07.86-15.32,0-4.73-19.45-17.49-39.95-27.25-49.71-8.01-8.02-21.06-8.02-29.07,0-3.88,3.88-6.02,9.04-6.02,14.54s2.14,10.65,6.02,14.54c9.76,9.76,30.26,22.52,49.71,27.25.43,2.63.66,5.19.66,7.66s-.23,5.03-.66,7.66c-19.45,4.73-39.95,17.49-49.71,27.25-3.88,3.88-6.02,9.04-6.02,14.54s2.14,10.65,6.02,14.54c8.02,8.02,21.06,8.02,29.07,0,9.76-9.76,22.52-30.26,27.25-49.71,5.25-.86,10.07-.86,15.32,0,4.73,19.45,17.49,39.95,27.25,49.71,4.01,4.01,9.27,6.01,14.54,6.01s10.53-2,14.54-6.01c3.88-3.88,6.02-9.04,6.02-14.54s-2.14-10.65-6.02-14.54c-9.76-9.76-30.26-22.52-49.71-27.25ZM729.08,127.5c-2.1-.25-4.16-.38-6.17-.38s-4.08.13-6.17.38c.25-2.1.38-4.16.38-6.17s-.13-4.08-.38-6.17c4.2.5,8.15.5,12.35,0-.25,2.1-.38,4.16-.38,6.17s.13,4.08.38,6.17Z"/>
    <path class="cls-23" d="M722.9,71.96c-11.34,0-20.56-9.22-20.56-20.56s9.22-20.56,20.56-20.56,20.56,9.22,20.56,20.56-9.22,20.56-20.56,20.56Z"/>
    <path class="cls-48" d="M722.9,38.67c-7.02,0-12.74,5.71-12.74,12.74s5.71,12.74,12.74,12.74,12.74-5.71,12.74-12.74-5.71-12.74-12.74-12.74Z"/>
    <path class="cls-23" d="M722.9,211.82c-11.34,0-20.56-9.22-20.56-20.56s9.22-20.56,20.56-20.56,20.56,9.22,20.56,20.56-9.22,20.56-20.56,20.56Z"/>
    <path class="cls-12" d="M722.9,178.52c-7.02,0-12.74,5.71-12.74,12.74s5.71,12.74,12.74,12.74,12.74-5.71,12.74-12.74-5.71-12.74-12.74-12.74Z"/>
    <path class="cls-23" d="M652.98,141.89c-11.34,0-20.56-9.22-20.56-20.56s9.22-20.56,20.56-20.56,20.56,9.22,20.56,20.56-9.22,20.56-20.56,20.56Z"/>
    <path class="cls-36" d="M652.98,108.59c-7.02,0-12.74,5.71-12.74,12.74s5.71,12.74,12.74,12.74,12.74-5.71,12.74-12.74-5.71-12.74-12.74-12.74Z"/>
    <path class="cls-23" d="M792.83,141.89c-11.34,0-20.56-9.22-20.56-20.56s9.22-20.56,20.56-20.56,20.56,9.22,20.56,20.56-9.22,20.56-20.56,20.56Z"/>
    <path class="cls-30" d="M792.83,108.59c-7.02,0-12.74,5.71-12.74,12.74s5.71,12.74,12.74,12.74,12.74-5.71,12.74-12.74-5.71-12.74-12.74-12.74Z"/>
    <path class="cls-37" d="M739.2,137.62c4.99,16.7,15.94,33.95,24.14,42.16,2.41,2.41,5.61,3.73,9.01,3.73s6.6-1.33,9.01-3.73c2.41-2.41,3.73-5.61,3.73-9.01s-1.33-6.6-3.73-9.01c-8.2-8.21-25.46-19.15-42.16-24.14Z"/>
    <path class="cls-43" d="M706.61,137.62c-16.7,4.99-33.95,15.94-42.16,24.14-2.41,2.41-3.73,5.61-3.73,9.01s1.33,6.6,3.73,9.01c2.41,2.41,5.61,3.73,9.01,3.73s6.6-1.33,9.01-3.73c8.2-8.21,19.15-25.46,24.14-42.16Z"/>
    <path class="cls-42" d="M772.35,59.15c-3.26,0-6.52,1.24-9.01,3.72-8.2,8.21-19.15,25.46-24.14,42.16,16.7-4.99,33.95-15.94,42.16-24.14,2.41-2.41,3.73-5.61,3.73-9.01s-1.33-6.6-3.73-9.01c-2.48-2.48-5.75-3.72-9.01-3.72Z"/>
    <path class="cls-38" d="M673.46,59.15c-3.26,0-6.52,1.24-9.01,3.72-2.41,2.41-3.73,5.61-3.73,9.01s1.33,6.6,3.73,9.01c8.2,8.21,25.46,19.15,42.16,24.14-4.99-16.7-15.94-33.95-24.14-42.16-2.48-2.48-5.75-3.72-9.01-3.72Z"/>
    <g class="cls-29">
      <path class="cls-6" d="M722.9,51.4c-5.18,0-9.39,5.18-9.39,0s4.21-9.39,9.39-9.39,9.39,4.21,9.39,9.39-4.21,0-9.39,0Z"/>
    </g>
    <g class="cls-33">
      <path class="cls-4" d="M652.98,121.33c0,5.18,5.18,9.39,0,9.39s-9.39-4.21-9.39-9.39,4.21-9.39,9.39-9.39,0,4.21,0,9.39Z"/>
    </g>
    <g class="cls-46">
      <path class="cls-2" d="M722.9,191.26c5.18,0,9.39-5.18,9.39,0s-4.21,9.39-9.39,9.39-9.39-4.21-9.39-9.39,4.21,0,9.39,0Z"/>
    </g>
    <g class="cls-25">
      <path class="cls-8" d="M792.83,121.33c0-5.18-5.18-9.39,0-9.39s9.39,4.21,9.39,9.39-4.21,9.39-9.39,9.39,0-4.21,0-9.39Z"/>
    </g>
    <g class="cls-31">
      <path class="cls-7" d="M700.36,98.79c-5.42-13.63-14.12-26.71-20.61-33.2-1.68-1.68-3.91-2.6-6.29-2.6s-4.62.92-6.29,2.6t0,0l33.2,33.2Z"/>
    </g>
    <g class="cls-24">
      <path class="cls-1" d="M700.36,143.87c-13.63,5.42-26.71,14.12-33.2,20.61-1.68,1.68-2.6,3.91-2.6,6.29s.92,4.62,2.6,6.29t0,0l33.2-33.2Z"/>
    </g>
    <g class="cls-45">
      <path class="cls-5" d="M745.44,143.87c5.42,13.63,14.12,26.71,20.61,33.2,1.68,1.68,3.91,2.6,6.29,2.6s4.62-.92,6.29-2.6h0s-33.2-33.2-33.2-33.2Z"/>
    </g>
    <g class="cls-47">
      <path class="cls-3" d="M745.44,98.79c13.63-5.42,26.71-14.12,33.2-20.61,1.68-1.68,2.6-3.91,2.6-6.29s-.92-4.62-2.6-6.29t0,0l-33.2,33.2Z"/>
    </g>
  </g>
  <g>
    <text class="cls-40" transform="translate(42.32 98.52)"><tspan x="0" y="0">قالب الجمعيات الأهلية للتبراعات</tspan></text>
    <text class="cls-22" transform="translate(145.58 163.04)"><tspan x="0" y="0">أحــــــــدى قوالــــــب منصـــة </tspan></text>
  </g>
</svg>