<svg width="64" height="64" viewBox="0 0 64 64" fill="none" xmlns="http://www.w3.org/2000/svg">
  <!-- التطوع المجتمعي -->
  <!-- People group -->
  <circle cx="22" cy="18" r="6" stroke="#0F766E" stroke-width="2" fill="none"/>
  <circle cx="42" cy="18" r="6" stroke="#0F766E" stroke-width="2" fill="none"/>
  <circle cx="32" cy="14" r="6" stroke="#0F766E" stroke-width="2" fill="#0F766E" opacity="0.1"/>
  
  <!-- Bodies -->
  <path d="M22 24 L22 36 M16 28 L28 28" stroke="#0F766E" stroke-width="2" stroke-linecap="round"/>
  <path d="M42 24 L42 36 M36 28 L48 28" stroke="#0F766E" stroke-width="2" stroke-linecap="round"/>
  <path d="M32 20 L32 32 M26 24 L38 24" stroke="#0F766E" stroke-width="2" stroke-linecap="round"/>
  
  <!-- Hands joining -->
  <path d="M20 44 Q32 38 44 44" stroke="#0F766E" stroke-width="2" fill="none"/>
  <path d="M16 52 Q32 46 48 52" stroke="#0F766E" stroke-width="2" fill="none"/>
  
  <!-- Heart -->
  <path d="M32 50 C28 46 24 48 24 52 C24 56 32 60 32 60 C32 60 40 56 40 52 C40 48 36 46 32 50 Z" fill="#0F766E" opacity="0.3"/>
</svg>