<svg width="1920" height="1080" viewBox="0 0 1920 1080" fill="none" xmlns="http://www.w3.org/2000/svg">
  <defs>
    <linearGradient id="heroGrad2" x1="100%" y1="0%" x2="0%" y2="100%">
      <stop offset="0%" style="stop-color:#0d1a2d;stop-opacity:1" />
      <stop offset="50%" style="stop-color:#162a45;stop-opacity:1" />
      <stop offset="100%" style="stop-color:#0b1524;stop-opacity:1" />
    </linearGradient>
    <linearGradient id="accentGrad2" x1="0%" y1="0%" x2="100%" y2="100%">
      <stop offset="0%" style="stop-color:#0fbfae" />
      <stop offset="50%" style="stop-color:#14c8b8" />
      <stop offset="100%" style="stop-color:#26d4c6" />
    </linearGradient>
    <pattern id="crossPattern" x="0" y="0" width="60" height="60" patternUnits="userSpaceOnUse">
      <path d="M30 0 L30 60 M0 30 L60 30" stroke="#0fbfae" stroke-width="0.5" opacity="0.08"/>
    </pattern>
  </defs>
  
  <!-- Background -->
  <rect width="1920" height="1080" fill="url(#heroGrad2)"/>
  <rect width="1920" height="1080" fill="url(#crossPattern)"/>
  
  <!-- Organic Shapes -->
  <ellipse cx="200" cy="900" rx="400" ry="300" fill="#0fbfae" opacity="0.04"/>
  <ellipse cx="1700" cy="300" rx="350" ry="250" fill="#0fbfae" opacity="0.05"/>
  
  <!-- Wave Pattern -->
  <path d="M0 600 C320 500 640 700 960 600 C1280 500 1600 700 1920 600 L1920 1080 L0 1080 Z" fill="#0fbfae" opacity="0.02"/>
  <path d="M0 700 C320 620 640 780 960 700 C1280 620 1600 780 1920 700 L1920 1080 L0 1080 Z" fill="#0fbfae" opacity="0.015"/>
  
  <!-- Concentric Circles -->
  <g transform="translate(960, 540)">
    <circle r="500" stroke="#0fbfae" stroke-width="0.5" fill="none" opacity="0.05"/>
    <circle r="400" stroke="#0fbfae" stroke-width="0.5" fill="none" opacity="0.06"/>
    <circle r="300" stroke="#0fbfae" stroke-width="0.5" fill="none" opacity="0.07"/>
    <circle r="200" stroke="#0fbfae" stroke-width="1" fill="none" opacity="0.08"/>
    <circle r="100" stroke="#0fbfae" stroke-width="1" fill="none" opacity="0.1"/>
  </g>
  
  <!-- Center Icon - Community/Hands -->
  <g transform="translate(880, 460)">
    <rect width="160" height="160" rx="32" fill="url(#accentGrad2)" opacity="0.15"/>
    <g transform="translate(40, 40)">
      <circle cx="40" cy="30" r="20" stroke="#0fbfae" stroke-width="2" fill="none" opacity="0.5"/>
      <path d="M20 70 Q40 50 60 70" stroke="#0fbfae" stroke-width="2" fill="none" opacity="0.4"/>
      <circle cx="40" cy="70" r="35" stroke="#26d4c6" stroke-width="1.5" fill="none" opacity="0.3"/>
    </g>
  </g>
  
  <!-- Corner Decorations -->
  <g transform="translate(80, 80)">
    <path d="M0 60 L0 0 L60 0" stroke="#0fbfae" stroke-width="2" fill="none" opacity="0.2"/>
  </g>
  <g transform="translate(1780, 80)">
    <path d="M0 0 L60 0 L60 60" stroke="#0fbfae" stroke-width="2" fill="none" opacity="0.2"/>
  </g>
  <g transform="translate(80, 940)">
    <path d="M0 0 L0 60 L60 60" stroke="#0fbfae" stroke-width="2" fill="none" opacity="0.2"/>
  </g>
  <g transform="translate(1780, 940)">
    <path d="M60 0 L60 60 L0 60" stroke="#0fbfae" stroke-width="2" fill="none" opacity="0.2"/>
  </g>
  
  <!-- Bottom Accent -->
  <rect x="0" y="1076" width="1920" height="4" fill="url(#accentGrad2)" opacity="0.6"/>
</svg>