<svg width="400" height="500" viewBox="0 0 400 500" fill="none" xmlns="http://www.w3.org/2000/svg">
  <defs>
    <linearGradient id="teamBg" x1="0%" y1="0%" x2="100%" y2="100%">
      <stop offset="0%" style="stop-color:#0fbfae;stop-opacity:0.1" />
      <stop offset="100%" style="stop-color:#53687a;stop-opacity:0.06" />
    </linearGradient>
    <linearGradient id="teamAccent" x1="0%" y1="0%" x2="100%" y2="0%">
      <stop offset="0%" style="stop-color:#0fbfae" />
      <stop offset="100%" style="stop-color:#26d4c6" />
    </linearGradient>
  </defs>
  
  <rect width="400" height="500" fill="#f8fafc"/>
  <rect width="400" height="500" fill="url(#teamBg)"/>
  
  <!-- Avatar Circle -->
  <circle cx="200" cy="180" r="80" fill="url(#teamAccent)" opacity="0.12"/>
  <circle cx="200" cy="180" r="60" stroke="#0fbfae" stroke-width="2" fill="none" opacity="0.3"/>
  
  <!-- Person Icon -->
  <g transform="translate(165, 145)">
    <circle cx="35" cy="20" r="18" stroke="#0fbfae" stroke-width="2" fill="none"/>
    <path d="M10 70 C10 50 25 40 35 40 C45 40 60 50 60 70" stroke="#0fbfae" stroke-width="2" fill="none"/>
  </g>
  
  <!-- Name Placeholder -->
  <rect x="120" y="300" width="160" height="16" rx="8" fill="#e2e8f0"/>
  
  <!-- Title Placeholder -->
  <rect x="140" y="330" width="120" height="12" rx="6" fill="url(#teamAccent)" opacity="0.3"/>
  
  <!-- Social Icons -->
  <g transform="translate(155, 370)">
    <circle cx="15" cy="15" r="15" fill="#e2e8f0"/>
    <circle cx="55" cy="15" r="15" fill="#e2e8f0"/>
    <circle cx="95" cy="15" r="15" fill="#e2e8f0"/>
  </g>
  
  <!-- Bio Lines -->
  <rect x="80" y="420" width="240" height="8" rx="4" fill="#e2e8f0"/>
  <rect x="100" y="436" width="200" height="8" rx="4" fill="#e2e8f0"/>
  <rect x="120" y="452" width="160" height="8" rx="4" fill="#e2e8f0"/>
</svg>
