<svg width="600" height="400" viewBox="0 0 600 400" fill="none" xmlns="http://www.w3.org/2000/svg">
  <defs>
    <linearGradient id="projBg" x1="0%" y1="0%" x2="100%" y2="100%">
      <stop offset="0%" style="stop-color:#0fbfae;stop-opacity:0.12" />
      <stop offset="100%" style="stop-color:#53687a;stop-opacity:0.08" />
    </linearGradient>
    <linearGradient id="projAccent" x1="0%" y1="0%" x2="100%" y2="0%">
      <stop offset="0%" style="stop-color:#0fbfae" />
      <stop offset="100%" style="stop-color:#26d4c6" />
    </linearGradient>
  </defs>
  
  <rect width="600" height="400" fill="#f8fafc"/>
  <rect width="600" height="400" fill="url(#projBg)"/>
  
  <!-- Project Icon -->
  <g transform="translate(250, 150)">
    <rect x="0" y="0" width="100" height="100" rx="16" fill="url(#projAccent)" opacity="0.15"/>
    <g transform="translate(25, 25)">
      <!-- Folder icon -->
      <path d="M5 10 L5 40 L45 40 L45 15 L25 15 L20 10 Z" stroke="#0fbfae" stroke-width="2" fill="none"/>
      <rect x="15" y="22" width="20" height="2" rx="1" fill="#0fbfae"/>
      <rect x="15" y="28" width="14" height="2" rx="1" fill="#0fbfae" opacity="0.6"/>
    </g>
  </g>
  
  <!-- Text Lines -->
  <rect x="180" y="280" width="240" height="14" rx="7" fill="#e2e8f0"/>
  <rect x="220" y="305" width="160" height="10" rx="5" fill="#e2e8f0"/>
  
  <!-- Progress Bar -->
  <rect x="200" y="340" width="200" height="6" rx="3" fill="#e2e8f0"/>
  <rect x="200" y="340" width="140" height="6" rx="3" fill="url(#projAccent)" opacity="0.6"/>
</svg>
