<svg width="400" height="300" viewBox="0 0 400 300" fill="none" xmlns="http://www.w3.org/2000/svg">
  <defs>
    <linearGradient id="projectBg1" x1="0%" y1="0%" x2="100%" y2="100%">
      <stop offset="0%" style="stop-color:#f7f8fa;stop-opacity:1" />
      <stop offset="100%" style="stop-color:#e6f4f2;stop-opacity:1" />
    </linearGradient>
    <pattern id="projectDots1" x="0" y="0" width="20" height="20" patternUnits="userSpaceOnUse">
      <circle cx="2" cy="2" r="1" fill="#0F766E" opacity="0.1"/>
    </pattern>
  </defs>
  
  <!-- Background -->
  <rect width="400" height="300" rx="12" fill="url(#projectBg1)"/>
  <rect width="400" height="300" rx="12" fill="url(#projectDots1)"/>
  
  <!-- Training Scene -->
  <rect x="50" y="60" width="120" height="80" rx="8" stroke="#0F766E" stroke-width="2" fill="none"/>
  <path d="M50 80 L170 80" stroke="#0F766E" stroke-width="1.5"/>
  <rect x="60" y="90" width="40" height="30" rx="2" fill="#0F766E" opacity="0.1"/>
  <path d="M65 100 L95 100 M65 108 L90 108 M65 116 L85 116" stroke="#0F766E" stroke-width="1" opacity="0.4"/>
  
  <!-- People -->
  <g transform="translate(200, 100)">
    <circle cx="30" cy="20" r="15" fill="#0F766E" opacity="0.15"/>
    <rect x="15" y="40" width="30" height="50" rx="4" fill="#0F766E" opacity="0.1"/>
    
    <circle cx="80" cy="20" r="15" fill="#0F766E" opacity="0.15"/>
    <rect x="65" y="40" width="30" height="50" rx="4" fill="#0F766E" opacity="0.1"/>
    
    <circle cx="130" cy="20" r="15" fill="#0F766E" opacity="0.15"/>
    <rect x="115" y="40" width="30" height="50" rx="4" fill="#0F766E" opacity="0.1"/>
  </g>
  
  <!-- Progress indicator -->
  <rect x="50" y="220" width="300" height="8" rx="4" fill="#0F766E" opacity="0.1"/>
  <rect x="50" y="220" width="200" height="8" rx="4" fill="#0F766E" opacity="0.4"/>
  
  <text x="50" y="250" fill="#0F766E" font-size="12" opacity="0.6">67% مكتمل</text>
</svg>