<svg width="400" height="300" viewBox="0 0 400 300" fill="none" xmlns="http://www.w3.org/2000/svg">
  <defs>
    <linearGradient id="projectBg2" x1="0%" y1="0%" x2="100%" y2="100%">
      <stop offset="0%" style="stop-color:#f7f8fa;stop-opacity:1" />
      <stop offset="100%" style="stop-color:#ecfdf5;stop-opacity:1" />
    </linearGradient>
  </defs>
  
  <!-- Background -->
  <rect width="400" height="300" rx="12" fill="url(#projectBg2)"/>
  
  <!-- Food boxes -->
  <g transform="translate(50, 80)">
    <rect width="60" height="50" rx="4" stroke="#0F766E" stroke-width="2" fill="#0F766E" opacity="0.1"/>
    <path d="M10 25 L50 25" stroke="#0F766E" stroke-width="1.5"/>
    <path d="M30 10 L30 40" stroke="#0F766E" stroke-width="1.5"/>
  </g>
  
  <g transform="translate(130, 90)">
    <rect width="60" height="50" rx="4" stroke="#0F766E" stroke-width="2" fill="#0F766E" opacity="0.1"/>
    <path d="M10 25 L50 25" stroke="#0F766E" stroke-width="1.5"/>
    <path d="M30 10 L30 40" stroke="#0F766E" stroke-width="1.5"/>
  </g>
  
  <g transform="translate(90, 150)">
    <rect width="60" height="50" rx="4" stroke="#0F766E" stroke-width="2" fill="#0F766E" opacity="0.15"/>
    <path d="M10 25 L50 25" stroke="#0F766E" stroke-width="1.5"/>
    <path d="M30 10 L30 40" stroke="#0F766E" stroke-width="1.5"/>
  </g>
  
  <!-- Hand/volunteer -->
  <g transform="translate(240, 100)">
    <circle cx="50" cy="30" r="25" fill="#0F766E" opacity="0.15"/>
    <rect x="30" y="60" width="40" height="80" rx="6" fill="#0F766E" opacity="0.1"/>
    <path d="M45 140 L55 140" stroke="#0F766E" stroke-width="2"/>
    <path d="M30 140 L70 140" stroke="#0F766E" stroke-width="2"/>
  </g>
  
  <!-- Heart icon -->
  <path d="M340 60 C330 50 315 55 315 70 C315 90 340 105 340 105 C340 105 365 90 365 70 C365 55 350 50 340 60 Z" fill="#0F766E" opacity="0.2"/>
  
  <!-- Stats -->
  <g transform="translate(50, 240)">
    <text fill="#0F766E" font-size="24" font-weight="bold" opacity="0.8">5,000+</text>
    <text y="20" fill="#0F766E" font-size="12" opacity="0.5">أسرة مستفيدة</text>
  </g>
</svg>