<?xml version="1.0" encoding="UTF-8"?>
<svg id="Layer_1" data-name="Layer 1" xmlns="http://www.w3.org/2000/svg" xmlns:xlink="http://www.w3.org/1999/xlink" viewBox="0 0 858.03 242.66">
  <defs>
    <style>
      .cls-1 {
        mask: url(#mask-15);
      }

      .cls-2 {
        mask: url(#mask-5);
      }

      .cls-3 {
        mask: url(#mask-13);
      }

      .cls-4 {
        fill: url(#linear-gradient-2);
      }

      .cls-5 {
        fill: url(#linear-gradient-9);
      }

      .cls-5, .cls-6, .cls-7, .cls-8, .cls-9, .cls-10, .cls-11, .cls-12 {
        mix-blend-mode: multiply;
      }

      .cls-6 {
        fill: url(#linear-gradient-13);
      }

      .cls-13 {
        mask: url(#mask-1);
      }

      .cls-14 {
        fill: url(#linear-gradient-10);
      }

      .cls-15 {
        fill: url(#linear-gradient-12);
      }

      .cls-16 {
        mask: url(#mask-10);
      }

      .cls-17 {
        mask: url(#mask-6);
      }

      .cls-18 {
        mask: url(#mask-7);
      }

      .cls-19 {
        filter: url(#luminosity-noclip-15);
      }

      .cls-20 {
        filter: url(#luminosity-noclip-5);
      }

      .cls-21 {
        mask: url(#mask);
      }

      .cls-22 {
        fill: url(#linear-gradient-4);
      }

      .cls-23 {
        mask: url(#mask-8);
      }

      .cls-24 {
        filter: url(#luminosity-noclip-11);
      }

      .cls-25 {
        mask: url(#mask-2);
      }

      .cls-26 {
        fill: #53687a;
      }

      .cls-27 {
        filter: url(#luminosity-noclip-3);
      }

      .cls-28 {
        mask: url(#mask-9);
      }

      .cls-29 {
        fill: url(#linear-gradient-3);
      }

      .cls-30 {
        fill: url(#linear-gradient-5);
      }

      .cls-31 {
        fill: url(#linear-gradient-22);
      }

      .cls-32 {
        fill: url(#linear-gradient-24);
      }

      .cls-7 {
        fill: url(#linear-gradient-21);
      }

      .cls-33 {
        fill: #0fbfae;
      }

      .cls-34 {
        fill: url(#linear-gradient-8);
      }

      .cls-35 {
        filter: url(#luminosity-noclip-13);
      }

      .cls-8 {
        fill: url(#linear-gradient-23);
      }

      .cls-36 {
        fill: url(#linear-gradient-14);
      }

      .cls-37 {
        filter: url(#luminosity-noclip-9);
      }

      .cls-38 {
        fill: url(#linear-gradient-20);
      }

      .cls-39 {
        fill: url(#linear-gradient-7);
      }

      .cls-9 {
        fill: url(#linear-gradient-11);
      }

      .cls-40 {
        fill: #215ba6;
      }

      .cls-41 {
        fill: url(#linear-gradient-6);
      }

      .cls-10 {
        fill: url(#linear-gradient-17);
      }

      .cls-42 {
        mask: url(#mask-11);
      }

      .cls-43 {
        fill: #6d88a3;
      }

      .cls-44 {
        mask: url(#mask-12);
      }

      .cls-45 {
        mask: url(#mask-4);
      }

      .cls-11 {
        fill: url(#linear-gradient-15);
      }

      .cls-46 {
        fill: url(#linear-gradient-16);
      }

      .cls-12 {
        fill: url(#linear-gradient-19);
      }

      .cls-47 {
        mask: url(#mask-14);
      }

      .cls-48 {
        fill: url(#linear-gradient);
      }

      .cls-49 {
        filter: url(#luminosity-noclip-7);
      }

      .cls-50 {
        fill: url(#linear-gradient-18);
      }

      .cls-51 {
        mask: url(#mask-3);
      }

      .cls-52 {
        filter: url(#luminosity-noclip);
      }
    </style>
    <linearGradient id="linear-gradient" x1="722.9" y1="64.14" x2="722.9" y2="38.67" gradientUnits="userSpaceOnUse">
      <stop offset="0" stop-color="#51d6f2"/>
      <stop offset=".43" stop-color="#2dc9cd"/>
      <stop offset=".78" stop-color="#17c1b6"/>
      <stop offset="1" stop-color="#0fbfae"/>
    </linearGradient>
    <linearGradient id="linear-gradient-2" y1="178.52" y2="204" xlink:href="#linear-gradient"/>
    <linearGradient id="linear-gradient-3" x1="640.24" y1="121.33" x2="665.71" y2="121.33" gradientUnits="userSpaceOnUse">
      <stop offset="0" stop-color="#519ef2"/>
      <stop offset="1" stop-color="#0fbfae"/>
    </linearGradient>
    <linearGradient id="linear-gradient-4" x1="780.09" y1="121.33" x2="805.57" y2="121.33" gradientUnits="userSpaceOnUse">
      <stop offset="0" stop-color="#0fbfae"/>
      <stop offset="1" stop-color="#519ef2"/>
    </linearGradient>
    <linearGradient id="linear-gradient-5" x1="738.97" y1="137.97" x2="781.2" y2="179.47" gradientUnits="userSpaceOnUse">
      <stop offset="0" stop-color="#519ef2"/>
      <stop offset=".5" stop-color="#0fbfae"/>
      <stop offset="1" stop-color="#d9e021"/>
    </linearGradient>
    <linearGradient id="linear-gradient-6" x1="706.88" y1="137.78" x2="664.65" y2="179.47" xlink:href="#linear-gradient-5"/>
    <linearGradient id="linear-gradient-7" x1="739.35" y1="105.18" x2="781.13" y2="63.02" xlink:href="#linear-gradient-5"/>
    <linearGradient id="linear-gradient-8" x1="706.39" y1="105.25" x2="664.51" y2="62.82" xlink:href="#linear-gradient-5"/>
    <filter id="luminosity-noclip" x="713.51" y="42.02" width="18.77" height="11.69" color-interpolation-filters="sRGB" filterUnits="userSpaceOnUse">
      <feFlood flood-color="#fff" result="bg"/>
      <feBlend in="SourceGraphic" in2="bg"/>
    </filter>
    <filter id="luminosity-noclip-2" x="713.51" y="-8075.22" width="18.77" height="32766" color-interpolation-filters="sRGB" filterUnits="userSpaceOnUse">
      <feFlood flood-color="#fff" result="bg"/>
      <feBlend in="SourceGraphic" in2="bg"/>
    </filter>
    <mask id="mask-1" x="713.51" y="-8075.22" width="18.77" height="32766" maskUnits="userSpaceOnUse"/>
    <linearGradient id="linear-gradient-9" x1="722.9" y1="38.65" x2="722.9" y2="57.85" gradientUnits="userSpaceOnUse">
      <stop offset="0" stop-color="#b3b3b3"/>
      <stop offset="1" stop-color="#000"/>
    </linearGradient>
    <mask id="mask" x="713.51" y="42.02" width="18.77" height="11.69" maskUnits="userSpaceOnUse">
      <g class="cls-52">
        <g class="cls-13">
          <path class="cls-5" d="M722.9,51.4c-5.18,0-9.39,5.18-9.39,0s4.21-9.39,9.39-9.39,9.39,4.21,9.39,9.39-4.21,0-9.39,0Z"/>
        </g>
      </g>
    </mask>
    <linearGradient id="linear-gradient-10" x1="722.9" y1="38.65" x2="722.9" y2="57.85" gradientUnits="userSpaceOnUse">
      <stop offset="0" stop-color="#fff"/>
      <stop offset="1" stop-color="#fff"/>
    </linearGradient>
    <filter id="luminosity-noclip-3" x="643.59" y="111.94" width="11.69" height="18.77" color-interpolation-filters="sRGB" filterUnits="userSpaceOnUse">
      <feFlood flood-color="#fff" result="bg"/>
      <feBlend in="SourceGraphic" in2="bg"/>
    </filter>
    <filter id="luminosity-noclip-4" x="643.59" y="-8075.22" width="11.69" height="32766" color-interpolation-filters="sRGB" filterUnits="userSpaceOnUse">
      <feFlood flood-color="#fff" result="bg"/>
      <feBlend in="SourceGraphic" in2="bg"/>
    </filter>
    <mask id="mask-3" x="643.59" y="-8075.22" width="11.69" height="32766" maskUnits="userSpaceOnUse"/>
    <linearGradient id="linear-gradient-11" x1="2156.46" y1="-145.02" x2="2156.46" y2="-125.82" gradientTransform="translate(785.24 2277.79) rotate(-90)" xlink:href="#linear-gradient-9"/>
    <mask id="mask-2" x="643.59" y="111.94" width="11.69" height="18.77" maskUnits="userSpaceOnUse">
      <g class="cls-27">
        <g class="cls-51">
          <path class="cls-9" d="M652.98,121.33c0,5.18,5.18,9.39,0,9.39s-9.39-4.21-9.39-9.39,4.21-9.39,9.39-9.39,0,4.21,0,9.39Z"/>
        </g>
      </g>
    </mask>
    <linearGradient id="linear-gradient-12" x1="2156.46" y1="-145.02" x2="2156.46" y2="-125.82" gradientTransform="translate(785.24 2277.79) rotate(-90)" xlink:href="#linear-gradient-10"/>
    <filter id="luminosity-noclip-5" x="713.51" y="188.96" width="18.77" height="11.69" color-interpolation-filters="sRGB" filterUnits="userSpaceOnUse">
      <feFlood flood-color="#fff" result="bg"/>
      <feBlend in="SourceGraphic" in2="bg"/>
    </filter>
    <filter id="luminosity-noclip-6" x="713.51" y="-8075.22" width="18.77" height="32766" color-interpolation-filters="sRGB" filterUnits="userSpaceOnUse">
      <feFlood flood-color="#fff" result="bg"/>
      <feBlend in="SourceGraphic" in2="bg"/>
    </filter>
    <mask id="mask-5" x="713.51" y="-8075.22" width="18.77" height="32766" maskUnits="userSpaceOnUse"/>
    <linearGradient id="linear-gradient-13" x1="2340.13" y1="1288.54" x2="2340.13" y2="1307.74" gradientTransform="translate(3063.03 1492.55) rotate(-180)" xlink:href="#linear-gradient-9"/>
    <mask id="mask-4" x="713.51" y="188.96" width="18.77" height="11.69" maskUnits="userSpaceOnUse">
      <g class="cls-20">
        <g class="cls-2">
          <path class="cls-6" d="M722.9,191.26c5.18,0,9.39-5.18,9.39,0s-4.21,9.39-9.39,9.39-9.39-4.21-9.39-9.39,4.21,0,9.39,0Z"/>
        </g>
      </g>
    </mask>
    <linearGradient id="linear-gradient-14" x1="2340.13" y1="1288.54" x2="2340.13" y2="1307.74" gradientTransform="translate(3063.03 1492.55) rotate(-180)" xlink:href="#linear-gradient-10"/>
    <filter id="luminosity-noclip-7" x="790.53" y="111.94" width="11.69" height="18.77" color-interpolation-filters="sRGB" filterUnits="userSpaceOnUse">
      <feFlood flood-color="#fff" result="bg"/>
      <feBlend in="SourceGraphic" in2="bg"/>
    </filter>
    <filter id="luminosity-noclip-8" x="790.53" y="-8075.22" width="11.69" height="32766" color-interpolation-filters="sRGB" filterUnits="userSpaceOnUse">
      <feFlood flood-color="#fff" result="bg"/>
      <feBlend in="SourceGraphic" in2="bg"/>
    </filter>
    <mask id="mask-7" x="790.53" y="-8075.22" width="11.69" height="32766" maskUnits="userSpaceOnUse"/>
    <linearGradient id="linear-gradient-15" x1="906.57" y1="1472.21" x2="906.57" y2="1491.41" gradientTransform="translate(2277.79 -785.24) rotate(90)" xlink:href="#linear-gradient-9"/>
    <mask id="mask-6" x="790.53" y="111.94" width="11.69" height="18.77" maskUnits="userSpaceOnUse">
      <g class="cls-49">
        <g class="cls-18">
          <path class="cls-11" d="M792.83,121.33c0-5.18-5.18-9.39,0-9.39s9.39,4.21,9.39,9.39-4.21,9.39-9.39,9.39,0-4.21,0-9.39Z"/>
        </g>
      </g>
    </mask>
    <linearGradient id="linear-gradient-16" x1="906.57" y1="1472.21" x2="906.57" y2="1491.41" gradientTransform="translate(2277.79 -785.24) rotate(90)" xlink:href="#linear-gradient-10"/>
    <filter id="luminosity-noclip-9" x="667.16" y="62.99" width="33.2" height="35.8" color-interpolation-filters="sRGB" filterUnits="userSpaceOnUse">
      <feFlood flood-color="#fff" result="bg"/>
      <feBlend in="SourceGraphic" in2="bg"/>
    </filter>
    <filter id="luminosity-noclip-10" x="667.16" y="-8075.22" width="33.2" height="32766" color-interpolation-filters="sRGB" filterUnits="userSpaceOnUse">
      <feFlood flood-color="#fff" result="bg"/>
      <feBlend in="SourceGraphic" in2="bg"/>
    </filter>
    <mask id="mask-9" x="667.16" y="-8075.22" width="33.2" height="32766" maskUnits="userSpaceOnUse"/>
    <linearGradient id="linear-gradient-17" x1="693.02" y1="70" x2="681.16" y2="85.61" xlink:href="#linear-gradient-9"/>
    <mask id="mask-8" x="667.16" y="62.99" width="33.2" height="35.8" maskUnits="userSpaceOnUse">
      <g class="cls-37">
        <g class="cls-28">
          <path class="cls-10" d="M700.36,98.79c-5.42-13.63-14.12-26.71-20.61-33.2-1.68-1.68-3.91-2.6-6.29-2.6s-4.62.92-6.29,2.6t0,0l33.2,33.2Z"/>
        </g>
      </g>
    </mask>
    <linearGradient id="linear-gradient-18" x1="693.02" y1="70" x2="681.16" y2="85.61" xlink:href="#linear-gradient-10"/>
    <filter id="luminosity-noclip-11" x="664.56" y="143.87" width="35.8" height="33.2" color-interpolation-filters="sRGB" filterUnits="userSpaceOnUse">
      <feFlood flood-color="#fff" result="bg"/>
      <feBlend in="SourceGraphic" in2="bg"/>
    </filter>
    <filter id="luminosity-noclip-12" x="664.56" y="-8075.22" width="35.8" height="32766" color-interpolation-filters="sRGB" filterUnits="userSpaceOnUse">
      <feFlood flood-color="#fff" result="bg"/>
      <feBlend in="SourceGraphic" in2="bg"/>
    </filter>
    <mask id="mask-11" x="664.56" y="-8075.22" width="35.8" height="32766" maskUnits="userSpaceOnUse"/>
    <linearGradient id="linear-gradient-19" x1="2126.59" y1="-113.67" x2="2114.73" y2="-98.06" gradientTransform="translate(785.24 2277.79) rotate(-90)" xlink:href="#linear-gradient-9"/>
    <mask id="mask-10" x="664.56" y="143.87" width="35.8" height="33.2" maskUnits="userSpaceOnUse">
      <g class="cls-24">
        <g class="cls-42">
          <path class="cls-12" d="M700.36,143.87c-13.63,5.42-26.71,14.12-33.2,20.61-1.68,1.68-2.6,3.91-2.6,6.29s.92,4.62,2.6,6.29t0,0l33.2-33.2Z"/>
        </g>
      </g>
    </mask>
    <linearGradient id="linear-gradient-20" x1="2126.59" y1="-113.67" x2="2114.73" y2="-98.06" gradientTransform="translate(785.24 2277.79) rotate(-90)" xlink:href="#linear-gradient-10"/>
    <filter id="luminosity-noclip-13" x="745.44" y="143.87" width="33.2" height="35.8" color-interpolation-filters="sRGB" filterUnits="userSpaceOnUse">
      <feFlood flood-color="#fff" result="bg"/>
      <feBlend in="SourceGraphic" in2="bg"/>
    </filter>
    <filter id="luminosity-noclip-14" x="745.44" y="-8075.22" width="33.2" height="32766" color-interpolation-filters="sRGB" filterUnits="userSpaceOnUse">
      <feFlood flood-color="#fff" result="bg"/>
      <feBlend in="SourceGraphic" in2="bg"/>
    </filter>
    <mask id="mask-13" x="745.44" y="-8075.22" width="33.2" height="32766" maskUnits="userSpaceOnUse"/>
    <linearGradient id="linear-gradient-21" x1="2310.25" y1="1319.89" x2="2298.39" y2="1335.5" gradientTransform="translate(3063.03 1492.55) rotate(-180)" xlink:href="#linear-gradient-9"/>
    <mask id="mask-12" x="745.44" y="143.87" width="33.2" height="35.8" maskUnits="userSpaceOnUse">
      <g class="cls-35">
        <g class="cls-3">
          <path class="cls-7" d="M745.44,143.87c5.42,13.63,14.12,26.71,20.61,33.2,1.68,1.68,3.91,2.6,6.29,2.6s4.62-.92,6.29-2.6h0s-33.2-33.2-33.2-33.2Z"/>
        </g>
      </g>
    </mask>
    <linearGradient id="linear-gradient-22" x1="2310.25" y1="1319.89" x2="2298.39" y2="1335.5" gradientTransform="translate(3063.03 1492.55) rotate(-180)" xlink:href="#linear-gradient-10"/>
    <filter id="luminosity-noclip-15" x="745.44" y="65.59" width="35.8" height="33.2" color-interpolation-filters="sRGB" filterUnits="userSpaceOnUse">
      <feFlood flood-color="#fff" result="bg"/>
      <feBlend in="SourceGraphic" in2="bg"/>
    </filter>
    <filter id="luminosity-noclip-16" x="745.44" y="-8075.22" width="35.8" height="32766" color-interpolation-filters="sRGB" filterUnits="userSpaceOnUse">
      <feFlood flood-color="#fff" result="bg"/>
      <feBlend in="SourceGraphic" in2="bg"/>
    </filter>
    <mask id="mask-15" x="745.44" y="-8075.22" width="35.8" height="32766" maskUnits="userSpaceOnUse"/>
    <linearGradient id="linear-gradient-23" x1="876.69" y1="1503.56" x2="864.83" y2="1519.17" gradientTransform="translate(2277.79 -785.24) rotate(90)" xlink:href="#linear-gradient-9"/>
    <mask id="mask-14" x="745.44" y="65.59" width="35.8" height="33.2" maskUnits="userSpaceOnUse">
      <g class="cls-19">
        <g class="cls-1">
          <path class="cls-8" d="M745.44,98.79c13.63-5.42,26.71-14.12,33.2-20.61,1.68-1.68,2.6-3.91,2.6-6.29s-.92-4.62-2.6-6.29t0,0l-33.2,33.2Z"/>
        </g>
      </g>
    </mask>
    <linearGradient id="linear-gradient-24" x1="876.69" y1="1503.56" x2="864.83" y2="1519.17" gradientTransform="translate(2277.79 -785.24) rotate(90)" xlink:href="#linear-gradient-10"/>
  </defs>
  <g>
    <path class="cls-26" d="M737.17,128.99c-.43-2.63-.66-5.19-.66-7.66s.23-5.04.66-7.66c19.45-4.73,39.95-17.49,49.71-27.25,3.88-3.88,6.02-9.04,6.02-14.54s-2.14-10.65-6.02-14.54c-8.02-8.02-21.06-8.02-29.07,0-9.76,9.76-22.52,30.26-27.25,49.71-5.25.86-10.07.86-15.32,0-4.73-19.45-17.49-39.95-27.25-49.71-8.01-8.02-21.06-8.02-29.07,0-3.88,3.88-6.02,9.04-6.02,14.54s2.14,10.65,6.02,14.54c9.76,9.76,30.26,22.52,49.71,27.25.43,2.63.66,5.19.66,7.66s-.23,5.03-.66,7.66c-19.45,4.73-39.95,17.49-49.71,27.25-3.88,3.88-6.02,9.04-6.02,14.54s2.14,10.65,6.02,14.54c8.02,8.02,21.06,8.02,29.07,0,9.76-9.76,22.52-30.26,27.25-49.71,5.25-.86,10.07-.86,15.32,0,4.73,19.45,17.49,39.95,27.25,49.71,4.01,4.01,9.27,6.01,14.54,6.01s10.53-2,14.54-6.01c3.88-3.88,6.02-9.04,6.02-14.54s-2.14-10.65-6.02-14.54c-9.76-9.76-30.26-22.52-49.71-27.25ZM729.08,127.5c-2.1-.25-4.16-.38-6.17-.38s-4.08.13-6.17.38c.25-2.1.38-4.16.38-6.17s-.13-4.08-.38-6.17c4.2.5,8.15.5,12.35,0-.25,2.1-.38,4.16-.38,6.17s.13,4.08.38,6.17Z"/>
    <path class="cls-26" d="M722.9,71.96c-11.34,0-20.56-9.22-20.56-20.56s9.22-20.56,20.56-20.56,20.56,9.22,20.56,20.56-9.22,20.56-20.56,20.56Z"/>
    <path class="cls-48" d="M722.9,38.67c-7.02,0-12.74,5.71-12.74,12.74s5.71,12.74,12.74,12.74,12.74-5.71,12.74-12.74-5.71-12.74-12.74-12.74Z"/>
    <path class="cls-26" d="M722.9,211.82c-11.34,0-20.56-9.22-20.56-20.56s9.22-20.56,20.56-20.56,20.56,9.22,20.56,20.56-9.22,20.56-20.56,20.56Z"/>
    <path class="cls-4" d="M722.9,178.52c-7.02,0-12.74,5.71-12.74,12.74s5.71,12.74,12.74,12.74,12.74-5.71,12.74-12.74-5.71-12.74-12.74-12.74Z"/>
    <path class="cls-26" d="M652.98,141.89c-11.34,0-20.56-9.22-20.56-20.56s9.22-20.56,20.56-20.56,20.56,9.22,20.56,20.56-9.22,20.56-20.56,20.56Z"/>
    <path class="cls-29" d="M652.98,108.59c-7.02,0-12.74,5.71-12.74,12.74s5.71,12.74,12.74,12.74,12.74-5.71,12.74-12.74-5.71-12.74-12.74-12.74Z"/>
    <path class="cls-26" d="M792.83,141.89c-11.34,0-20.56-9.22-20.56-20.56s9.22-20.56,20.56-20.56,20.56,9.22,20.56,20.56-9.22,20.56-20.56,20.56Z"/>
    <path class="cls-22" d="M792.83,108.59c-7.02,0-12.74,5.71-12.74,12.74s5.71,12.74,12.74,12.74,12.74-5.71,12.74-12.74-5.71-12.74-12.74-12.74Z"/>
    <path class="cls-30" d="M739.2,137.62c4.99,16.7,15.94,33.95,24.14,42.16,2.41,2.41,5.61,3.73,9.01,3.73s6.6-1.33,9.01-3.73c2.41-2.41,3.73-5.61,3.73-9.01s-1.33-6.6-3.73-9.01c-8.2-8.21-25.46-19.15-42.16-24.14Z"/>
    <path class="cls-41" d="M706.61,137.62c-16.7,4.99-33.95,15.94-42.16,24.14-2.41,2.41-3.73,5.61-3.73,9.01s1.33,6.6,3.73,9.01c2.41,2.41,5.61,3.73,9.01,3.73s6.6-1.33,9.01-3.73c8.2-8.21,19.15-25.46,24.14-42.16Z"/>
    <path class="cls-39" d="M772.35,59.15c-3.26,0-6.52,1.24-9.01,3.72-8.2,8.21-19.15,25.46-24.14,42.16,16.7-4.99,33.95-15.94,42.16-24.14,2.41-2.41,3.73-5.61,3.73-9.01s-1.33-6.6-3.73-9.01c-2.48-2.48-5.75-3.72-9.01-3.72Z"/>
    <path class="cls-34" d="M673.46,59.15c-3.26,0-6.52,1.24-9.01,3.72-2.41,2.41-3.73,5.61-3.73,9.01s1.33,6.6,3.73,9.01c8.2,8.21,25.46,19.15,42.16,24.14-4.99-16.7-15.94-33.95-24.14-42.16-2.48-2.48-5.75-3.72-9.01-3.72Z"/>
    <g class="cls-21">
      <path class="cls-14" d="M722.9,51.4c-5.18,0-9.39,5.18-9.39,0s4.21-9.39,9.39-9.39,9.39,4.21,9.39,9.39-4.21,0-9.39,0Z"/>
    </g>
    <g class="cls-25">
      <path class="cls-15" d="M652.98,121.33c0,5.18,5.18,9.39,0,9.39s-9.39-4.21-9.39-9.39,4.21-9.39,9.39-9.39,0,4.21,0,9.39Z"/>
    </g>
    <g class="cls-45">
      <path class="cls-36" d="M722.9,191.26c5.18,0,9.39-5.18,9.39,0s-4.21,9.39-9.39,9.39-9.39-4.21-9.39-9.39,4.21,0,9.39,0Z"/>
    </g>
    <g class="cls-17">
      <path class="cls-46" d="M792.83,121.33c0-5.18-5.18-9.39,0-9.39s9.39,4.21,9.39,9.39-4.21,9.39-9.39,9.39,0-4.21,0-9.39Z"/>
    </g>
    <g class="cls-23">
      <path class="cls-50" d="M700.36,98.79c-5.42-13.63-14.12-26.71-20.61-33.2-1.68-1.68-3.91-2.6-6.29-2.6s-4.62.92-6.29,2.6t0,0l33.2,33.2Z"/>
    </g>
    <g class="cls-16">
      <path class="cls-38" d="M700.36,143.87c-13.63,5.42-26.71,14.12-33.2,20.61-1.68,1.68-2.6,3.91-2.6,6.29s.92,4.62,2.6,6.29t0,0l33.2-33.2Z"/>
    </g>
    <g class="cls-44">
      <path class="cls-31" d="M745.44,143.87c5.42,13.63,14.12,26.71,20.61,33.2,1.68,1.68,3.91,2.6,6.29,2.6s4.62-.92,6.29-2.6h0s-33.2-33.2-33.2-33.2Z"/>
    </g>
    <g class="cls-47">
      <path class="cls-32" d="M745.44,98.79c13.63-5.42,26.71-14.12,33.2-20.61,1.68-1.68,2.6-3.91,2.6-6.29s-.92-4.62-2.6-6.29t0,0l-33.2,33.2Z"/>
    </g>
  </g>
  <g>
    <g>
      <path class="cls-40" d="M46.32,103.39c0-3.1.46-5.95,1.27-8.8h4.22v.51c-.51,1.98-.81,4.17-.81,6.05,0,5.44,3.71,8.64,9.96,8.64s9.91-2.64,9.91-9.15v-33.05h5.49v33.05c0,10.88-5.85,17.29-15.66,17.29-9.2,0-14.39-5.54-14.39-14.54Z"/>
      <path class="cls-40" d="M101.29,100.69c0,10.17-5.75,17.74-13.42,17.74-3.3,0-6.3-1.47-8.9-3.81v-4.22l.46-.36c2.59.81,5.14,1.22,7.52,1.22,5.49,0,9.41-2.75,10.32-7.42l-.2-.15c-1.78,1.32-4.02,2.03-6.61,2.03-5.75,0-9.2-3.05-9.2-8.54,0-6.61,4.42-13.07,9.91-13.07,5.8,0,10.12,7.22,10.12,16.57ZM91.07,98.36c1.88,0,3.76-.2,5.64-.66-1.12-3.61-3.71-6.36-7.07-6.36-2.69,0-4.47,2.44-4.47,4.32s1.63,2.69,5.9,2.69Z"/>
      <path class="cls-40" d="M128.08,95.76c0,6.25-3.05,9.71-8.8,9.71h-14.95v-6.96l11.69-8.8-11.69-7.83v-7.12l.41-.25,15.35,10.37c.56-1.27.76-3.1.76-6.46v-10.83h5.49v10.83c0,4.78-.41,7.27-2.03,9.35,2.8,2.54,3.76,4.78,3.76,7.98ZM107.09,69.43c-.31-.71-.51-1.42-.51-2.03,0-3.1,2.54-5.44,5.69-5.44,2.29,0,3.41,1.17,3.41,3.51v1.58h-2.29v-.36c0-.81-.56-1.17-1.73-1.17-1.53,0-2.8.81-2.8,1.73,0,.81.81,1.58,2.08,2.19h5.59v3.46h-11.08v-3.46h1.63ZM124.58,96.27c0-.97-1.07-1.93-5.13-4.47l-8.13,6.2v.1h7.98c3.56,0,5.29-.61,5.29-1.83Z"/>
      <path class="cls-40" d="M138.41,67.6v37.88h-5.49v-37.88h5.49Z"/>
      <path class="cls-40" d="M169.93,99.17h-.15c-1.53,3.05-4.07,4.42-7.42,4.42-4.58,0-7.83-3.25-7.83-7.63s3.41-7.78,8.69-10.58l6.15-3.2v-3.81h5.19v14.95c0,3.41,1.07,4.78,5.19,4.78v6.05l-1.32,1.32c-4.83-.05-7.42-2.08-8.49-6.3ZM169.63,75.38h-.51l-3.05-3-3.05,3h-.51l-3.71-3.61,3.71-3.61h.51l3.05,3,3.05-3h.51l3.71,3.61-3.71,3.61ZM169.37,94.59v-7.32l-4.73,1.83c-3.97,1.58-5.8,2.95-5.8,4.78,0,1.53,1.53,2.39,4.22,2.39,2.44,0,4.52-.56,6.3-1.68Z"/>
      <path class="cls-40" d="M179.75,98.1c2.03,0,3.71-.36,5.14-1.07-.1-.71-.15-1.47-.15-2.29v-6.25h4.63v5.75c0,2.95,1.58,3.86,5.69,3.86h.05v6.1l-1.27,1.27h-.05c-4.02,0-6.56-1.27-7.88-4.12-1.47,2.8-3.86,4.12-7.42,4.12v-6.1l1.27-1.27ZM190.32,116.81h-.51l-3.05-3-3.05,3h-.51l-3.71-3.61,3.71-3.61h.51l3.05,3,3.05-3h.51l3.71,3.61-3.71,3.61Z"/>
      <path class="cls-40" d="M210.87,104.2l-1.27,1.27h-.05c-4.17,0-6.81-1.32-8.24-4.27-1.47,2.9-3.86,4.27-7.47,4.27v-6.1l1.27-1.27c2.03,0,3.76-.36,5.14-1.07-.1-.86-.15-1.78-.15-2.8v-26.64h5.49v26.13c0,3.15,1.47,4.37,5.24,4.37h.05v6.1Z"/>
      <path class="cls-40" d="M240.86,95.71c0,6.2-3.81,10.27-10.12,10.27-3.56,0-6.86-.81-9.66-2.14-2.49,1.02-5.29,1.63-8.13,1.63h-3.36v-6.1l1.27-1.27h3.71c-.92-1.58-1.42-3.3-1.42-5.13,0-3.81,2.14-7.58,5.08-9.66v-3.66l.31-.3,10.63,4.12c8.9,3.56,11.69,6.66,11.69,12.25ZM216.97,92c0,2.08,2.85,4.27,7.22,5.54,1.98-.76,2.95-2.19,2.95-3.91,0-2.75-2.54-5.03-5.75-5.03-2.59,0-4.42,1.47-4.42,3.41ZM237.15,96.32c0-1.47-1.32-2.75-6.15-4.78l-.05.05c-.05,2.44-.97,4.73-2.49,6.76,1.12.15,2.34.2,3.56.2,3.36,0,5.14-.81,5.14-2.24Z"/>
      <path class="cls-40" d="M267.76,95.76c0,6.25-3.05,9.71-8.8,9.71h-14.95v-6.96l11.69-8.8-11.69-7.83v-7.12l.41-.25,15.35,10.37c.56-1.27.76-3.1.76-6.46v-10.83h5.49v10.83c0,4.78-.41,7.27-2.03,9.35,2.8,2.54,3.76,4.78,3.76,7.98ZM246.76,69.43c-.31-.71-.51-1.42-.51-2.03,0-3.1,2.54-5.44,5.69-5.44,2.29,0,3.41,1.17,3.41,3.51v1.58h-2.29v-.36c0-.81-.56-1.17-1.73-1.17-1.53,0-2.8.81-2.8,1.73,0,.81.81,1.58,2.08,2.19h5.59v3.46h-11.08v-3.46h1.63ZM264.25,96.27c0-.97-1.07-1.93-5.13-4.47l-8.13,6.2v.1h7.98c3.56,0,5.29-.61,5.29-1.83Z"/>
      <path class="cls-40" d="M278.09,67.6v37.88h-5.49v-37.88h5.49Z"/>
      <path class="cls-33" d="M294.61,94.24c0-2.08.41-4.63,1.17-7.27h4.27v.51c-.51,1.88-.76,3.51-.76,4.78,0,4.27,4.02,5.85,15.15,5.85s14.74-.92,14.74-3.66c0-1.88-.46-4.93-1.27-8.64l.25-.36h4.88c.61,3.36.97,6.46.97,8.74,0,8.69-5.19,11.8-19.57,11.8s-19.83-3.1-19.83-11.75ZM318,87.43h-.51l-3.05-3-3.05,3h-.51l-3.71-3.61,3.71-3.61h.51l3.05,3,3.05-3h.51l3.71,3.61-3.71,3.61Z"/>
      <path class="cls-33" d="M339.2,94.24v-26.64h5.49v26.13c0,3.15,1.47,4.37,5.24,4.37h.05v6.1l-1.27,1.27h-.05c-6.66,0-9.46-3.36-9.46-11.24Z"/>
      <path class="cls-33" d="M349.98,98.1c2.03,0,3.71-.36,5.14-1.07-.1-.71-.15-1.47-.15-2.29v-6.25h4.63v5.75c0,2.95,1.58,3.86,5.69,3.86h.05v6.1l-1.27,1.27h-.05c-4.02,0-6.56-1.27-7.88-4.12-1.47,2.8-3.86,4.12-7.42,4.12v-6.1l1.27-1.27ZM360.56,116.81h-.51l-3.05-3-3.05,3h-.51l-3.71-3.61,3.71-3.61h.51l3.05,3,3.05-3h.51l3.71,3.61-3.71,3.61Z"/>
      <path class="cls-33" d="M365.34,98.1h8.34c-.41-.56-.86-1.07-1.27-1.58l-3.91-5.03-1.78.56h-.51v-6.51c4.58-1.78,9.51-2.64,13.37-2.64,7.07,0,10.27,2.29,10.27,7.27,0,2.85-1.37,5.19-4.27,7.93h7.07v6.1l-1.22,1.27h-4.93c-3.86,0-6-.46-7.98-2.03-2.03,1.32-3.86,2.03-7.22,2.03h-7.22v-6.15l1.27-1.22ZM386.34,92.26c0-1.68-1.83-2.34-6.61-2.34-1.93,0-3.91.15-5.95.46l-.1.15,4.53,5.34c.56.66,1.02,1.12,1.52,1.47,5.29-2.9,6.61-3.92,6.61-5.08Z"/>
      <path class="cls-33" d="M421.57,98.1v6.1l-1.27,1.27c-3.2,0-5.14-1.27-6.76-4.12l-.56,4.63-7.27-.97c-3.51-.46-6-1.47-7.42-3.3-.92,2.59-3.05,3.76-6.91,3.76v-6.1l1.27-1.27c1.78,0,3.05-.2,4.17-.66-.05-.3-.05-.61-.05-.97,0-5.64,4.58-10.02,12.51-12l1.53-.36c.97-.25,1.63.15,1.93,1.07l3.15,8.69c1.12,3.15,2.64,4.22,5.69,4.22ZM411.96,97.95l-1.98-5.08c-.31-.81-.76-1.12-1.63-1.02-5.19.61-7.68,1.58-7.68,3.25,0,1.37,1.42,2.08,4.98,2.54l6.51.81-.2-.51Z"/>
      <path class="cls-33" d="M455.44,104.2l-1.27,1.27h-.05c-6,0-8.69-2.39-8.69-7.68v-.61l-2.49,1.98c-5.85,4.93-9.05,6.3-15.61,6.3h-7.02v-6.1l1.27-1.27h6c7.37,0,10.83-.76,15.2-3.41l2.19-1.27v-.15l-10.88-2.39c-2.75-.61-3.81-.76-4.58-.76-1.53,0-2.24.76-2.24,2.39v.86h-3.61v-5.75c0-3.2,1.58-4.73,4.47-4.73,1.42,0,3.2.36,7.07,1.27l9.1,2.08c3.2.76,4.83.97,7.32.97h1.32v6.81h-3.46v1.12c0,2.44,1.17,2.95,5.9,2.95h.05v6.1ZM436.93,109.59l3.71,3.61-3.71,3.61h-.51l-3.71-3.61,3.71-3.61h.51Z"/>
      <path class="cls-33" d="M455.44,98.1c3.46,0,4.98-1.27,4.98-4.12v-26.39h5.49v26.64c0,7.32-3.56,11.24-10.17,11.24h-1.58v-6.1l1.27-1.27Z"/>
      <path class="cls-33" d="M478.02,67.6v37.88h-5.49v-37.88h5.49Z"/>
      <path class="cls-33" d="M539.95,98.1v6.05l-1.27,1.32c-3.97,0-7.12-1.07-10.32-3.86-5.64,3.05-11.9,4.63-18.35,4.63-11.03,0-15.46-3.46-15.46-12,0-2.08.41-4.63,1.17-7.27h4.27v.51c-.51,1.88-.76,3.51-.76,4.78,0,4.17,3.41,5.85,12.05,5.85s16.32-2.44,22.83-6.56h.51v5.9l-.1.1c1.63.41,3.3.56,5.44.56ZM514.37,109.59l3.71,3.61-3.71,3.61h-.51l-3.71-3.61,3.71-3.61h.51Z"/>
      <path class="cls-33" d="M539.95,98.1c3.46,0,4.98-1.27,4.98-4.12v-26.39h5.49v26.64c0,7.32-3.56,11.24-10.17,11.24h-1.58v-6.1l1.27-1.27Z"/>
      <path class="cls-33" d="M557.8,94.24v-26.64h5.49v26.13c0,3.15,1.47,4.37,5.24,4.37h.05v6.1l-1.27,1.27h-.05c-6.66,0-9.46-3.36-9.46-11.24Z"/>
      <path class="cls-33" d="M568.58,98.1h10.07c5.85,0,7.78-.76,8.03-4.52l-.2-.1c-1.88,1.22-4.22,1.83-7.02,1.83-5.49,0-8.64-2.44-8.64-7.47,0-5.8,4.42-11.75,9.76-11.75,5.75,0,9.96,7.02,9.96,15.86,0,9.56-3.3,13.52-11.9,13.52h-11.34v-6.15l1.27-1.22ZM583.63,71.97h-.51l-3.05-3-3.05,3h-.51l-3.71-3.61,3.71-3.61h.51l3.05,3,3.05-3h.51l3.71,3.61-3.71,3.61ZM585.86,88.95c-1.07-3.3-3.56-6-6.71-6-2.54,0-4.47,2.34-4.47,4.12s1.78,2.39,5.85,2.39c1.78,0,3.56-.15,5.34-.51Z"/>
    </g>
    <g>
      <path class="cls-43" d="M58.63,165h-.13c-1.34,2.35-3.36,3.4-6.01,3.4-3.65,0-6.22-2.6-6.22-6.05s2.6-6.05,6.85-8.36l5.12-2.81v-2.86h3.53v12.39c0,3.02,1.05,4.12,4.45,4.12v4.2l-.92.97c-3.91-.08-5.92-1.55-6.68-5ZM58.25,161.76v-6.81l-4.03,1.76c-3.44,1.55-4.87,2.77-4.87,4.33,0,1.39,1.39,2.18,3.61,2.18s3.82-.46,5.29-1.47ZM58.21,145.88h-.42l-2.35-2.27-2.31,2.27h-.42l-2.81-2.73,2.81-2.77h.42l2.31,2.31,2.35-2.31h.42l2.77,2.77-2.77,2.73Z"/>
      <path class="cls-43" d="M72.66,179.11h-.42l-2.35-2.27-2.31,2.27h-.42l-2.81-2.73,2.81-2.77h.42l2.31,2.31,2.35-2.31h.42l2.77,2.77-2.77,2.73ZM66.11,164.83h.97c2.73,0,3.95-1.01,3.95-3.28,0-1.64-.38-4.24-1.01-7.27l.17-.21h3.53c.46,2.65.76,5.25.76,7.14,0,5.96-2.35,8.78-7.39,8.78h-1.81v-4.2l.84-.97Z"/>
      <path class="cls-43" d="M77.24,164.58v-2.06h2.73v.67c0,1.55,1.3,2.06,5.42,2.06,4.7,0,6.26-.76,6.26-2.73,0-1.64-1.85-3.65-7.65-7.98l-2.18-1.64,2.77-4.08,2.18,1.64c5.46,4.16,7.77,7.65,7.77,11.59,0,5.8-2.94,8.36-9.49,8.36-5.76,0-7.81-1.55-7.81-5.84Z"/>
      <path class="cls-43" d="M95.52,177.73v-2.86l.34-.29c2.14.71,3.99,1.05,5.8,1.05,3.99,0,7.14-2.06,8.15-5.63h-4.75c-4.87,0-7.6-2.18-7.6-6.55,0-5,3.49-10.17,7.81-10.17s7.39,4.96,7.86,11.55h1.81v4.16l-.97,1.01h-1.13c-1.09,6.3-5.08,10.71-10.17,10.71-2.73,0-5.04-1.13-7.14-2.98ZM104.26,158.4c-2.35,0-3.91,2.44-3.91,4.12s1.55,2.31,4.92,2.31h4.66c-.63-3.49-2.86-6.43-5.67-6.43Z"/>
      <path class="cls-43" d="M114.93,164.83h7.14l-1.01-1.26-3.78-4.83-1.43.46h-.38v-4.5c3.74-1.51,7.65-2.18,10.8-2.18,5.67,0,8.32,1.76,8.32,5.59,0,2.39-1.39,4.33-4.16,6.72h6.43v4.2l-.92.97h-5c-2.39,0-3.91-.34-5.38-1.47-1.43,1.01-2.9,1.47-5.08,1.47h-6.51v-4.2l.97-.97ZM131.86,159.54c0-1.47-1.6-2.1-5.5-2.1-1.64,0-3.36.13-5.04.46l-.08.13,3.78,4.62c.59.67,1.05,1.18,1.51,1.47,4.28-2.73,5.33-3.66,5.33-4.58Z"/>
      <path class="cls-43" d="M142.74,168.19c-1.22,1.22-3.02,1.81-5.42,1.81h-1.43v-4.16l.97-1.01h.46c3.4,0,4.45-.67,4.45-3.32v-2.39h3.11v2.39c0,1.09-.13,2.06-.29,2.94,1.39.46,3.07.8,4.79.8,2.39,0,3.11-.8,3.11-3.74v-2.39h3.11v2.39c0,1.18-.08,2.23-.25,3.15.84.38,1.76.59,2.9.59,1.97,0,2.52-.71,2.52-3.74v-3.66h3.11v3.66c0,1.05-.08,1.93-.17,2.81,1.47.29,3.23.5,5.08.5v4.24l-.97.92c-1.97,0-3.91-.5-5.54-1.51-.88,1.3-2.27,1.93-4.03,1.93s-3.36-.63-4.49-1.76c-1.05,1.18-2.56,1.76-4.75,1.76-2.39,0-4.49-.71-6.26-2.23Z"/>
      <path class="cls-43" d="M168.79,164.83c3.07,0,4.41-1.13,4.41-3.7v-22.43h3.86v22.52c0,5.63-2.81,8.78-7.86,8.78h-1.39v-4.2l.97-.97Z"/>
      <path class="cls-43" d="M187.03,138.7v31.3h-3.86v-31.3h3.86Z"/>
      <path class="cls-43" d="M213.07,165h-.13c-1.34,2.35-3.36,3.4-6.01,3.4-3.65,0-6.22-2.6-6.22-6.05s2.6-6.05,6.85-8.36l5.12-2.81v-2.86h3.53v12.39c0,3.02,1.05,4.12,4.45,4.12v4.2l-.92.97c-3.91-.08-5.92-1.55-6.68-5ZM212.7,161.76v-6.81l-4.03,1.76c-3.44,1.55-4.87,2.77-4.87,4.33,0,1.39,1.39,2.18,3.61,2.18s3.82-.46,5.29-1.47ZM212.65,145.88h-.42l-2.35-2.27-2.31,2.27h-.42l-2.81-2.73,2.81-2.77h.42l2.31,2.31,2.35-2.31h.42l2.77,2.77-2.77,2.73Z"/>
      <path class="cls-43" d="M220.68,164.83c1.81,0,3.32-.29,4.54-1.05-.08-.71-.13-1.51-.13-2.35v-4.83h3.19v4.62c0,2.77,1.39,3.61,4.7,3.61h.04v4.2l-.97.97h-.04c-3.07,0-5.04-1.05-6.05-3.32-1.39,2.27-3.36,3.32-6.26,3.32v-4.2l.97-.97ZM229.17,179.11h-.42l-2.35-2.27-2.31,2.27h-.42l-2.81-2.73,2.81-2.77h.42l2.31,2.31,2.35-2.31h.42l2.77,2.77-2.77,2.73Z"/>
      <path class="cls-43" d="M232.91,164.83h.97c2.73,0,3.95-1.01,3.95-3.28,0-1.64-.38-4.24-1.01-7.27l.17-.21h3.53c.46,2.65.76,5.25.76,7.14,0,5.96-2.35,8.78-7.39,8.78h-1.81v-4.2l.84-.97ZM236.9,173.61l2.77,2.77-2.77,2.73h-.42l-2.81-2.73,2.81-2.77h.42Z"/>
      <path class="cls-43" d="M241.44,177.73v-2.86l.34-.29c1.72.71,3.23,1.05,4.71,1.05,4.16,0,7.31-3.74,7.31-9.24,0-1.55-.55-4.29-1.72-8.32l.21-.21h3.49l.84,3.36c.63,2.69,2.18,3.61,5.59,3.61v4.16l-.97,1.01c-1.93,0-3.44-.46-4.54-1.47l-.08.04c-.71,7.14-4.45,12.14-8.86,12.14-2.44,0-4.5-1.13-6.3-2.98Z"/>
      <path class="cls-43" d="M262.19,164.83h7.14l-1.01-1.26-3.78-4.83-1.43.46h-.38v-4.5c3.74-1.51,7.65-2.18,10.8-2.18,5.67,0,8.32,1.76,8.32,5.59,0,2.39-1.39,4.33-4.16,6.72h6.43v4.2l-.92.97h-5c-2.39,0-3.91-.34-5.38-1.47-1.43,1.01-2.9,1.47-5.08,1.47h-6.51v-4.2l.97-.97ZM279.12,159.54c0-1.47-1.6-2.1-5.5-2.1-1.64,0-3.36.13-5.04.46l-.08.13,3.78,4.62c.59.67,1.05,1.18,1.51,1.47,4.28-2.73,5.33-3.66,5.33-4.58Z"/>
      <path class="cls-43" d="M284.12,164.83c3.07,0,4.41-1.13,4.41-3.7v-22.43h3.86v22.52c0,5.63-2.81,8.78-7.86,8.78h-1.39v-4.2l.97-.97Z"/>
      <path class="cls-43" d="M302.36,138.7v31.3h-3.86v-31.3h3.86Z"/>
      <path class="cls-43" d="M328.4,165h-.13c-1.34,2.35-3.36,3.4-6.01,3.4-3.65,0-6.22-2.6-6.22-6.05s2.6-6.05,6.85-8.36l5.12-2.81v-2.86h3.53v12.39c0,3.02,1.05,4.12,4.45,4.12v4.2l-.92.97c-3.91-.08-5.92-1.55-6.68-5ZM328.03,161.76v-6.81l-4.03,1.76c-3.44,1.55-4.87,2.77-4.87,4.33,0,1.39,1.39,2.18,3.61,2.18s3.82-.46,5.29-1.47ZM327.98,145.88h-.42l-2.35-2.27-2.31,2.27h-.42l-2.81-2.73,2.81-2.77h.42l2.31,2.31,2.35-2.31h.42l2.77,2.77-2.77,2.73Z"/>
      <path class="cls-43" d="M336.01,164.83h3.49c3.11,0,4.49-.63,5-2.44l-6.85-9.62v-5.12l17.9-9.37h.38v4.54l-14.7,7.56,7.52,10.38c2.18,3.02,3.74,4.07,6.34,4.07h.76v4.16l-.97,1.01c-3.4,0-5.33-1.01-8.4-4.96l-.13.04c-.76,3.11-3.15,4.92-6.85,4.92h-4.45v-4.2l.97-.97Z"/>
      <path class="cls-43" d="M368.65,169.03l-.97.97h-.04c-3.23,0-5.38-1.09-6.47-3.4-1.34,2.31-3.36,3.4-6.3,3.4v-4.2l.97-.97c1.81,0,3.32-.34,4.58-1.05-.13-.8-.17-1.64-.17-2.56v-22.52h3.86v22.31c0,2.69,1.3,3.82,4.5,3.82h.04v4.2Z"/>
      <path class="cls-43" d="M391.76,164.83v4.24l-.92.92c-2.52,0-4.03-1.01-5.25-2.94l-.42,3.36-5.96-.76c-2.77-.34-4.75-1.18-5.84-2.6-.8,2.06-2.52,2.94-5.67,2.94v-4.2l.97-.97c1.55,0,2.77-.17,3.65-.63-.08-.38-.08-.76-.08-1.18,0-4.24,3.44-7.69,9.66-9.33l1.3-.38c.67-.17,1.18.13,1.43.76l2.6,7.52c.88,2.44,2.1,3.23,4.54,3.23ZM384.16,163.99l-1.64-4.45c-.25-.59-.59-.76-1.18-.67-4.37.8-6.22,1.72-6.22,3.23,0,1.39,1.3,2.06,4.33,2.44l5.21.67-.5-1.22Z"/>
      <path class="cls-43" d="M393.44,170h-2.65v-4.2l.97-.97h1.68c.88,0,1.72.04,2.69.34l.08-.13c-.38-1.22-.46-2.39-.46-3.95v-22.39h3.86v22.43c0,2.27.13,3.74.63,4.83,1.09.46,2.27,1.01,3.61,1.81l1.85,1.09-2.48,4.33-1.89-1.09c-3.02-1.64-4.58-2.1-7.9-2.1Z"/>
      <path class="cls-43" d="M411.38,138.7v31.3h-3.86v-31.3h3.86Z"/>
      <path class="cls-43" d="M426.26,156.34h12.9v3.91h-12.9v-3.91Z"/>
      <path class="cls-43" d="M452.64,168.69c0-2.23.38-4.92,1.01-7.06h2.94v.38c-.46,1.72-.71,3.53-.71,5.08,0,4.87,3.53,7.39,8.99,7.39,6.09,0,8.91-2.23,8.91-7.06,0-1.93-.38-4.16-1.39-8.11l.17-.21h3.53l.5,2.1c.25,1.18.71,2.02,1.43,2.56l3.95-4.71c3.91-4.62,6.76-6.68,10.75-6.68,5,0,8.82,4.16,8.82,9.03s-3.87,8.57-9.37,8.57h-10.96c-2.02,0-3.49-.5-4.54-1.6l-.13.04c-.34,7.35-4.62,11.64-11.68,11.64-7.52,0-12.22-4.03-12.22-11.38ZM498.64,162.64c0-2.98-2.86-5.08-6.55-5.08s-6.3,1.55-9.33,4.96l-1.85,2.1.04.17c.38.04.8.04,1.22.04h11.01c4.12,0,5.46-.59,5.46-2.18ZM491.25,143.24l2.77,2.77-2.77,2.73h-.42l-2.81-2.73,2.81-2.77h.42Z"/>
      <path class="cls-43" d="M506.09,161.22v-22.52h3.87v22.31c0,2.69,1.3,3.82,4.49,3.82h.04v4.2l-.97.97h-.04c-5.17,0-7.39-2.69-7.39-8.78Z"/>
      <path class="cls-43" d="M514.49,164.83h5.8v4.2l-.97.97h-5.8v-4.2l.97-.97Z"/>
      <path class="cls-43" d="M520.29,164.83h5.8v4.2l-.97.97h-5.8v-4.2l.97-.97Z"/>
      <path class="cls-43" d="M526.09,164.83h5.8v4.2l-.97.97h-5.8v-4.2l.97-.97Z"/>
      <path class="cls-43" d="M531.88,164.83h5.8v4.2l-.97.97h-5.8v-4.2l.97-.97Z"/>
      <path class="cls-43" d="M544.11,179.11h-.42l-2.35-2.27-2.31,2.27h-.42l-2.81-2.73,2.81-2.77h.42l2.31,2.31,2.35-2.31h.42l2.77,2.77-2.77,2.73ZM537.55,164.83h.97c2.73,0,3.95-1.01,3.95-3.28,0-1.64-.38-4.24-1.01-7.27l.17-.21h3.53c.46,2.65.76,5.25.76,7.14,0,5.96-2.35,8.78-7.39,8.78h-1.81v-4.2l.84-.97Z"/>
      <path class="cls-43" d="M548.06,177.73v-2.86l.34-.29c1.72.71,3.23,1.05,4.7,1.05,4.16,0,7.31-3.74,7.31-9.24,0-1.55-.55-4.29-1.72-8.32l.21-.21h3.49l.84,3.36c.63,2.69,2.18,3.61,5.59,3.61v4.16l-.97,1.01c-1.93,0-3.44-.46-4.54-1.47l-.08.04c-.71,7.14-4.45,12.14-8.86,12.14-2.44,0-4.5-1.13-6.3-2.98Z"/>
      <path class="cls-43" d="M568.81,164.83c3.07,0,4.41-1.13,4.41-3.7v-22.43h3.86v22.52c0,5.63-2.81,8.78-7.86,8.78h-1.39v-4.2l.97-.97Z"/>
      <path class="cls-43" d="M587.05,138.7v31.3h-3.87v-31.3h3.87Z"/>
    </g>
  </g>
</svg>